<svg xmlns="http://www.w3.org/2000/svg" xmlns:ev="http://www.w3.org/2001/xml-events" xmlns:xlink="http://www.w3.org/1999/xlink" width="200mm" height="98mm" baseProfile="full" version="1.1" viewBox="0 0 200 98"><rect width="200" height="98" x="0" y="0" fill="#222"/><text style="font-size:12px;font-family:Arial;font-weight:700" x="10" y="20" fill="#FFF">2024 Running</text><text style="font-size:4px;font-family:Arial" x="10" y="78" fill="#FFF">ATHLETE</text><text style="font-size:9px;font-family:Arial" x="10" y="88" fill="#FFF">Jiakai</text><text style="font-size:4px;font-family:Arial" x="120" y="78" fill="#FFF">STATISTICS</text><text style="font-size:3px;font-family:Arial" x="120" y="83" fill="#FFF">Number: 406</text><text style="font-size:3px;font-family:Arial" x="120" y="88" fill="#FFF">Weekly: 9.7</text><text style="font-size:3px;font-family:Arial" x="141" y="83" fill="#FFF">Total: 2091.1 km</text><text style="font-size:3px;font-family:Arial" x="141" y="88" fill="#FFF">Avg: 5.2 km</text><text style="font-size:3px;font-family:Arial" x="167" y="83" fill="#FFF">Min: 1.0 km</text><text style="font-size:3px;font-family:Arial" x="167" y="88" fill="#FFF">Max: 1630.0 km</text><text style="font-size:10px;font-family:Arial" x="10" y="30" fill="#FFF" dominant-baseline="hanging">2024</text><text style="font-size:4.125px;font-family:Arial" x="175" y="35" fill="#FFF" dominant-baseline="hanging">2091.1 km</text><text style="font-size:2.5px;font-family:Arial" x="10" y="44" fill="#FFF">Jan</text><text style="font-size:2.5px;font-family:Arial" x="25.5" y="44" fill="#FFF">Feb</text><text style="font-size:2.5px;font-family:Arial" x="41" y="44" fill="#FFF">Mar</text><text style="font-size:2.5px;font-family:Arial" x="56.5" y="44" fill="#FFF">Apr</text><text style="font-size:2.5px;font-family:Arial" x="72" y="44" fill="#FFF">May</text><text style="font-size:2.5px;font-family:Arial" x="87.5" y="44" fill="#FFF">Jun</text><text style="font-size:2.5px;font-family:Arial" x="103" y="44" fill="#FFF">Jul</text><text style="font-size:2.5px;font-family:Arial" x="118.5" y="44" fill="#FFF">Aug</text><text style="font-size:2.5px;font-family:Arial" x="134" y="44" fill="#FFF">Sep</text><text style="font-size:2.5px;font-family:Arial" x="149.5" y="44" fill="#FFF">Oct</text><text style="font-size:2.5px;font-family:Arial" x="165" y="44" fill="#FFF">Nov</text><text style="font-size:2.5px;font-family:Arial" x="180.5" y="44" fill="#FFF">Dec</text><rect width="2.6" height="2.6" x="10" y="45.5" fill="#4dd2ff"><title>2024-01-01 1.0 km</title></rect><rect width="2.6" height="2.6" x="10" y="49" fill="#4dd2ff"><title>2024-01-02 1.0 km</title></rect><rect width="2.6" height="2.6" x="10" y="52.5" fill="#4dd2ff"><title>2024-01-03 1.0 km</title></rect><rect width="2.6" height="2.6" x="10" y="56" fill="#4dd2ff"><title>2024-01-04 1.0 km</title></rect><rect width="2.6" height="2.6" x="10" y="59.5" fill="#4dd2ff"><title>2024-01-05 1.0 km</title></rect><rect width="2.6" height="2.6" x="10" y="63" fill="#4dd2ff"><title>2024-01-06 1.0 km</title></rect><rect width="2.6" height="2.6" x="10" y="66.5" fill="#4dd2ff"><title>2024-01-07 1.0 km</title></rect><rect width="2.6" height="2.6" x="13.5" y="45.5" fill="#444"><title>2024-01-08</title></rect><rect width="2.6" height="2.6" x="13.5" y="49" fill="#4dd2ff"><title>2024-01-09 1.0 km</title></rect><rect width="2.6" height="2.6" x="13.5" y="52.5" fill="#444"><title>2024-01-10</title></rect><rect width="2.6" height="2.6" x="13.5" y="56" fill="#444"><title>2024-01-11</title></rect><rect width="2.6" height="2.6" x="13.5" y="59.5" fill="#444"><title>2024-01-12</title></rect><rect width="2.6" height="2.6" x="13.5" y="63" fill="#444"><title>2024-01-13</title></rect><rect width="2.6" height="2.6" x="13.5" y="66.5" fill="#444"><title>2024-01-14</title></rect><rect width="2.6" height="2.6" x="17" y="45.5" fill="#444"><title>2024-01-15</title></rect><rect width="2.6" height="2.6" x="17" y="49" fill="#4dd2ff"><title>2024-01-16 1.0 km</title></rect><rect width="2.6" height="2.6" x="17" y="52.5" fill="#4dd2ff"><title>2024-01-17 1.0 km</title></rect><rect width="2.6" height="2.6" x="17" y="56" fill="#444"><title>2024-01-18</title></rect><rect width="2.6" height="2.6" x="17" y="59.5" fill="#4dd2ff"><title>2024-01-19 1.0 km</title></rect><rect width="2.6" height="2.6" x="17" y="63" fill="#444"><title>2024-01-20</title></rect><rect width="2.6" height="2.6" x="17" y="66.5" fill="#444"><title>2024-01-21</title></rect><rect width="2.6" height="2.6" x="20.5" y="45.5" fill="#444"><title>2024-01-22</title></rect><rect width="2.6" height="2.6" x="20.5" y="49" fill="#444"><title>2024-01-23</title></rect><rect width="2.6" height="2.6" x="20.5" y="52.5" fill="#444"><title>2024-01-24</title></rect><rect width="2.6" height="2.6" x="20.5" y="56" fill="#444"><title>2024-01-25</title></rect><rect width="2.6" height="2.6" x="20.5" y="59.5" fill="#444"><title>2024-01-26</title></rect><rect width="2.6" height="2.6" x="20.5" y="63" fill="#444"><title>2024-01-27</title></rect><rect width="2.6" height="2.6" x="20.5" y="66.5" fill="red"><title>2024-01-28 1630.0 km</title></rect><rect width="2.6" height="2.6" x="24" y="45.5" fill="#444"><title>2024-01-29</title></rect><rect width="2.6" height="2.6" x="24" y="49" fill="#444"><title>2024-01-30</title></rect><rect width="2.6" height="2.6" x="24" y="52.5" fill="#444"><title>2024-01-31</title></rect><rect width="2.6" height="2.6" x="24" y="56" fill="#444"><title>2024-02-01</title></rect><rect width="2.6" height="2.6" x="24" y="59.5" fill="#444"><title>2024-02-02</title></rect><rect width="2.6" height="2.6" x="24" y="63" fill="#444"><title>2024-02-03</title></rect><rect width="2.6" height="2.6" x="24" y="66.5" fill="#444"><title>2024-02-04</title></rect><rect width="2.6" height="2.6" x="27.5" y="45.5" fill="#444"><title>2024-02-05</title></rect><rect width="2.6" height="2.6" x="27.5" y="49" fill="#444"><title>2024-02-06</title></rect><rect width="2.6" height="2.6" x="27.5" y="52.5" fill="#444"><title>2024-02-07</title></rect><rect width="2.6" height="2.6" x="27.5" y="56" fill="#444"><title>2024-02-08</title></rect><rect width="2.6" height="2.6" x="27.5" y="59.5" fill="#444"><title>2024-02-09</title></rect><rect width="2.6" height="2.6" x="27.5" y="63" fill="#444"><title>2024-02-10</title></rect><rect width="2.6" height="2.6" x="27.5" y="66.5" fill="#444"><title>2024-02-11</title></rect><rect width="2.6" height="2.6" x="31" y="45.5" fill="#444"><title>2024-02-12</title></rect><rect width="2.6" height="2.6" x="31" y="49" fill="#444"><title>2024-02-13</title></rect><rect width="2.6" height="2.6" x="31" y="52.5" fill="#444"><title>2024-02-14</title></rect><rect width="2.6" height="2.6" x="31" y="56" fill="#444"><title>2024-02-15</title></rect><rect width="2.6" height="2.6" x="31" y="59.5" fill="#444"><title>2024-02-16</title></rect><rect width="2.6" height="2.6" x="31" y="63" fill="#444"><title>2024-02-17</title></rect><rect width="2.6" height="2.6" x="31" y="66.5" fill="#444"><title>2024-02-18</title></rect><rect width="2.6" height="2.6" x="34.5" y="45.5" fill="#444"><title>2024-02-19</title></rect><rect width="2.6" height="2.6" x="34.5" y="49" fill="#444"><title>2024-02-20</title></rect><rect width="2.6" height="2.6" x="34.5" y="52.5" fill="#444"><title>2024-02-21</title></rect><rect width="2.6" height="2.6" x="34.5" y="56" fill="#444"><title>2024-02-22</title></rect><rect width="2.6" height="2.6" x="34.5" y="59.5" fill="#444"><title>2024-02-23</title></rect><rect width="2.6" height="2.6" x="34.5" y="63" fill="#444"><title>2024-02-24</title></rect><rect width="2.6" height="2.6" x="34.5" y="66.5" fill="#444"><title>2024-02-25</title></rect><rect width="2.6" height="2.6" x="38" y="45.5" fill="#444"><title>2024-02-26</title></rect><rect width="2.6" height="2.6" x="38" y="49" fill="#444"><title>2024-02-27</title></rect><rect width="2.6" height="2.6" x="38" y="52.5" fill="#444"><title>2024-02-28</title></rect><rect width="2.6" height="2.6" x="38" y="56" fill="#444"><title>2024-02-29</title></rect><rect width="2.6" height="2.6" x="38" y="59.5" fill="#444"><title>2024-03-01</title></rect><rect width="2.6" height="2.6" x="38" y="63" fill="#4dd2ff"><title>2024-03-02 1.0 km</title></rect><rect width="2.6" height="2.6" x="38" y="66.5" fill="#4dd2ff"><title>2024-03-03 1.0 km</title></rect><rect width="2.6" height="2.6" x="41.5" y="45.5" fill="#4dd2ff"><title>2024-03-04 1.0 km</title></rect><rect width="2.6" height="2.6" x="41.5" y="49" fill="#4dd2ff"><title>2024-03-05 1.0 km</title></rect><rect width="2.6" height="2.6" x="41.5" y="52.5" fill="#4dd2ff"><title>2024-03-06 1.0 km</title></rect><rect width="2.6" height="2.6" x="41.5" y="56" fill="#4dd2ff"><title>2024-03-07 1.0 km</title></rect><rect width="2.6" height="2.6" x="41.5" y="59.5" fill="#4dd2ff"><title>2024-03-08 1.0 km</title></rect><rect width="2.6" height="2.6" x="41.5" y="63" fill="#444"><title>2024-03-09</title></rect><rect width="2.6" height="2.6" x="41.5" y="66.5" fill="#444"><title>2024-03-10</title></rect><rect width="2.6" height="2.6" x="45" y="45.5" fill="#4dd2ff"><title>2024-03-11 1.0 km</title></rect><rect width="2.6" height="2.6" x="45" y="49" fill="#4dd2ff"><title>2024-03-12 1.0 km</title></rect><rect width="2.6" height="2.6" x="45" y="52.5" fill="#444"><title>2024-03-13</title></rect><rect width="2.6" height="2.6" x="45" y="56" fill="#444"><title>2024-03-14</title></rect><rect width="2.6" height="2.6" x="45" y="59.5" fill="#444"><title>2024-03-15</title></rect><rect width="2.6" height="2.6" x="45" y="63" fill="#4dd2ff"><title>2024-03-16 1.0 km</title></rect><rect width="2.6" height="2.6" x="45" y="66.5" fill="#4dd2ff"><title>2024-03-17 1.0 km</title></rect><rect width="2.6" height="2.6" x="48.5" y="45.5" fill="#4dd2ff"><title>2024-03-18 1.0 km</title></rect><rect width="2.6" height="2.6" x="48.5" y="49" fill="#4dd2ff"><title>2024-03-19 1.0 km</title></rect><rect width="2.6" height="2.6" x="48.5" y="52.5" fill="#4dd2ff"><title>2024-03-20 1.0 km</title></rect><rect width="2.6" height="2.6" x="48.5" y="56" fill="#4dd2ff"><title>2024-03-21 1.0 km</title></rect><rect width="2.6" height="2.6" x="48.5" y="59.5" fill="#4dd2ff"><title>2024-03-22 1.0 km</title></rect><rect width="2.6" height="2.6" x="48.5" y="63" fill="#4dd2ff"><title>2024-03-23 1.0 km</title></rect><rect width="2.6" height="2.6" x="48.5" y="66.5" fill="#4dd2ff"><title>2024-03-24 1.0 km</title></rect><rect width="2.6" height="2.6" x="52" y="45.5" fill="#4dd2ff"><title>2024-03-25 1.0 km</title></rect><rect width="2.6" height="2.6" x="52" y="49" fill="#4dd2ff"><title>2024-03-26 1.0 km</title></rect><rect width="2.6" height="2.6" x="52" y="52.5" fill="#4dd2ff"><title>2024-03-27 1.0 km</title></rect><rect width="2.6" height="2.6" x="52" y="56" fill="#4dd2ff"><title>2024-03-28 1.0 km</title></rect><rect width="2.6" height="2.6" x="52" y="59.5" fill="#4dd2ff"><title>2024-03-29 1.0 km</title></rect><rect width="2.6" height="2.6" x="52" y="63" fill="#4dd2ff"><title>2024-03-30 1.0 km</title></rect><rect width="2.6" height="2.6" x="52" y="66.5" fill="#4dd2ff"><title>2024-03-31 1.0 km</title></rect><rect width="2.6" height="2.6" x="55.5" y="45.5" fill="#4dd2ff"><title>2024-04-01 1.0 km</title></rect><rect width="2.6" height="2.6" x="55.5" y="49" fill="#4dd2ff"><title>2024-04-02 1.0 km</title></rect><rect width="2.6" height="2.6" x="55.5" y="52.5" fill="#4dd2ff"><title>2024-04-03 1.0 km</title></rect><rect width="2.6" height="2.6" x="55.5" y="56" fill="#4dd2ff"><title>2024-04-04 1.0 km</title></rect><rect width="2.6" height="2.6" x="55.5" y="59.5" fill="#4dd2ff"><title>2024-04-05 1.0 km</title></rect><rect width="2.6" height="2.6" x="55.5" y="63" fill="#444"><title>2024-04-06</title></rect><rect width="2.6" height="2.6" x="55.5" y="66.5" fill="#4dd2ff"><title>2024-04-07 1.0 km</title></rect><rect width="2.6" height="2.6" x="59" y="45.5" fill="#4dd2ff"><title>2024-04-08 1.0 km</title></rect><rect width="2.6" height="2.6" x="59" y="49" fill="#4dd2ff"><title>2024-04-09 1.0 km</title></rect><rect width="2.6" height="2.6" x="59" y="52.5" fill="#4dd2ff"><title>2024-04-10 1.0 km</title></rect><rect width="2.6" height="2.6" x="59" y="56" fill="#4dd2ff"><title>2024-04-11 1.0 km</title></rect><rect width="2.6" height="2.6" x="59" y="59.5" fill="#4dd2ff"><title>2024-04-12 1.0 km</title></rect><rect width="2.6" height="2.6" x="59" y="63" fill="#4dd2ff"><title>2024-04-13 1.0 km</title></rect><rect width="2.6" height="2.6" x="59" y="66.5" fill="#4dd2ff"><title>2024-04-14 1.0 km</title></rect><rect width="2.6" height="2.6" x="62.5" y="45.5" fill="#4dd2ff"><title>2024-04-15 1.0 km</title></rect><rect width="2.6" height="2.6" x="62.5" y="49" fill="#4dd2ff"><title>2024-04-16 1.1 km</title></rect><rect width="2.6" height="2.6" x="62.5" y="52.5" fill="#4dd2ff"><title>2024-04-17 1.0 km</title></rect><rect width="2.6" height="2.6" x="62.5" y="56" fill="#4dd2ff"><title>2024-04-18 1.0 km</title></rect><rect width="2.6" height="2.6" x="62.5" y="59.5" fill="#4dd2ff"><title>2024-04-19 1.0 km</title></rect><rect width="2.6" height="2.6" x="62.5" y="63" fill="#4dd2ff"><title>2024-04-20 1.0 km</title></rect><rect width="2.6" height="2.6" x="62.5" y="66.5" fill="#4dd2ff"><title>2024-04-21 1.1 km</title></rect><rect width="2.6" height="2.6" x="66" y="45.5" fill="#4dd2ff"><title>2024-04-22 1.0 km</title></rect><rect width="2.6" height="2.6" x="66" y="49" fill="#4dd2ff"><title>2024-04-23 1.0 km</title></rect><rect width="2.6" height="2.6" x="66" y="52.5" fill="#4dd2ff"><title>2024-04-24 1.0 km</title></rect><rect width="2.6" height="2.6" x="66" y="56" fill="#4dd2ff"><title>2024-04-25 1.0 km</title></rect><rect width="2.6" height="2.6" x="66" y="59.5" fill="#4dd2ff"><title>2024-04-26 1.0 km</title></rect><rect width="2.6" height="2.6" x="66" y="63" fill="#4dd2ff"><title>2024-04-27 1.1 km</title></rect><rect width="2.6" height="2.6" x="66" y="66.5" fill="#4dd2ff"><title>2024-04-28 1.0 km</title></rect><rect width="2.6" height="2.6" x="69.5" y="45.5" fill="#4dd2ff"><title>2024-04-29 1.0 km</title></rect><rect width="2.6" height="2.6" x="69.5" y="49" fill="#4dd2ff"><title>2024-04-30 1.0 km</title></rect><rect width="2.6" height="2.6" x="69.5" y="52.5" fill="#4dd2ff"><title>2024-05-01 1.0 km</title></rect><rect width="2.6" height="2.6" x="69.5" y="56" fill="#4dd2ff"><title>2024-05-02 1.0 km</title></rect><rect width="2.6" height="2.6" x="69.5" y="59.5" fill="#4dd2ff"><title>2024-05-03 1.0 km</title></rect><rect width="2.6" height="2.6" x="69.5" y="63" fill="#4dd2ff"><title>2024-05-04 1.0 km</title></rect><rect width="2.6" height="2.6" x="69.5" y="66.5" fill="#4dd2ff"><title>2024-05-05 1.0 km</title></rect><rect width="2.6" height="2.6" x="73" y="45.5" fill="#4dd2ff"><title>2024-05-06 1.0 km</title></rect><rect width="2.6" height="2.6" x="73" y="49" fill="#4dd2ff"><title>2024-05-07 1.0 km</title></rect><rect width="2.6" height="2.6" x="73" y="52.5" fill="#4dd2ff"><title>2024-05-08 1.0 km</title></rect><rect width="2.6" height="2.6" x="73" y="56" fill="#4dd2ff"><title>2024-05-09 1.0 km</title></rect><rect width="2.6" height="2.6" x="73" y="59.5" fill="#4dd2ff"><title>2024-05-10 1.0 km</title></rect><rect width="2.6" height="2.6" x="73" y="63" fill="#4dd2ff"><title>2024-05-11 1.0 km</title></rect><rect width="2.6" height="2.6" x="73" y="66.5" fill="#4dd2ff"><title>2024-05-12 1.0 km</title></rect><rect width="2.6" height="2.6" x="76.5" y="45.5" fill="#4dd2ff"><title>2024-05-13 1.0 km</title></rect><rect width="2.6" height="2.6" x="76.5" y="49" fill="#4dd2ff"><title>2024-05-14 1.0 km</title></rect><rect width="2.6" height="2.6" x="76.5" y="52.5" fill="#4dd2ff"><title>2024-05-15 1.0 km</title></rect><rect width="2.6" height="2.6" x="76.5" y="56" fill="#4dd2ff"><title>2024-05-16 1.0 km</title></rect><rect width="2.6" height="2.6" x="76.5" y="59.5" fill="#4dd2ff"><title>2024-05-17 1.0 km</title></rect><rect width="2.6" height="2.6" x="76.5" y="63" fill="#4dd2ff"><title>2024-05-18 1.0 km</title></rect><rect width="2.6" height="2.6" x="76.5" y="66.5" fill="#444"><title>2024-05-19</title></rect><rect width="2.6" height="2.6" x="80" y="45.5" fill="#4dd2ff"><title>2024-05-20 1.0 km</title></rect><rect width="2.6" height="2.6" x="80" y="49" fill="#4dd2ff"><title>2024-05-21 1.0 km</title></rect><rect width="2.6" height="2.6" x="80" y="52.5" fill="#4dd2ff"><title>2024-05-22 1.0 km</title></rect><rect width="2.6" height="2.6" x="80" y="56" fill="#4dd2ff"><title>2024-05-23 1.0 km</title></rect><rect width="2.6" height="2.6" x="80" y="59.5" fill="#4dd2ff"><title>2024-05-24 1.0 km</title></rect><rect width="2.6" height="2.6" x="80" y="63" fill="#4dd2ff"><title>2024-05-25 1.0 km</title></rect><rect width="2.6" height="2.6" x="80" y="66.5" fill="#4dd2ff"><title>2024-05-26 1.1 km</title></rect><rect width="2.6" height="2.6" x="83.5" y="45.5" fill="#4dd2ff"><title>2024-05-27 1.0 km</title></rect><rect width="2.6" height="2.6" x="83.5" y="49" fill="#4dd2ff"><title>2024-05-28 1.0 km</title></rect><rect width="2.6" height="2.6" x="83.5" y="52.5" fill="#4dd2ff"><title>2024-05-29 1.0 km</title></rect><rect width="2.6" height="2.6" x="83.5" y="56" fill="#4dd2ff"><title>2024-05-30 1.0 km</title></rect><rect width="2.6" height="2.6" x="83.5" y="59.5" fill="#444"><title>2024-05-31</title></rect><rect width="2.6" height="2.6" x="83.5" y="63" fill="#4dd2ff"><title>2024-06-01 1.0 km</title></rect><rect width="2.6" height="2.6" x="83.5" y="66.5" fill="#4dd2ff"><title>2024-06-02 1.0 km</title></rect><rect width="2.6" height="2.6" x="87" y="45.5" fill="#4dd2ff"><title>2024-06-03 1.0 km</title></rect><rect width="2.6" height="2.6" x="87" y="49" fill="#4dd2ff"><title>2024-06-04 1.0 km</title></rect><rect width="2.6" height="2.6" x="87" y="52.5" fill="#444"><title>2024-06-05</title></rect><rect width="2.6" height="2.6" x="87" y="56" fill="#4dd2ff"><title>2024-06-06 1.0 km</title></rect><rect width="2.6" height="2.6" x="87" y="59.5" fill="#4dd2ff"><title>2024-06-07 1.0 km</title></rect><rect width="2.6" height="2.6" x="87" y="63" fill="#4dd2ff"><title>2024-06-08 1.1 km</title></rect><rect width="2.6" height="2.6" x="87" y="66.5" fill="#4dd2ff"><title>2024-06-09 1.0 km</title></rect><rect width="2.6" height="2.6" x="90.5" y="45.5" fill="#4dd2ff"><title>2024-06-10 1.0 km</title></rect><rect width="2.6" height="2.6" x="90.5" y="49" fill="#4dd2ff"><title>2024-06-11 2.0 km</title></rect><rect width="2.6" height="2.6" x="90.5" y="52.5" fill="#4dd2ff"><title>2024-06-12 3.4 km</title></rect><rect width="2.6" height="2.6" x="90.5" y="56" fill="#4dd2ff"><title>2024-06-13 3.4 km</title></rect><rect width="2.6" height="2.6" x="90.5" y="59.5" fill="#4dd2ff"><title>2024-06-14 2.4 km</title></rect><rect width="2.6" height="2.6" x="90.5" y="63" fill="#4dd2ff"><title>2024-06-15 2.4 km</title></rect><rect width="2.6" height="2.6" x="90.5" y="66.5" fill="#4dd2ff"><title>2024-06-16 3.5 km</title></rect><rect width="2.6" height="2.6" x="94" y="45.5" fill="#4dd2ff"><title>2024-06-17 3.4 km</title></rect><rect width="2.6" height="2.6" x="94" y="49" fill="#4dd2ff"><title>2024-06-18 2.4 km</title></rect><rect width="2.6" height="2.6" x="94" y="52.5" fill="#4dd2ff"><title>2024-06-19 3.4 km</title></rect><rect width="2.6" height="2.6" x="94" y="56" fill="#4dd2ff"><title>2024-06-20 3.4 km</title></rect><rect width="2.6" height="2.6" x="94" y="59.5" fill="#4dd2ff"><title>2024-06-21 3.4 km</title></rect><rect width="2.6" height="2.6" x="94" y="63" fill="#4dd2ff"><title>2024-06-22 3.4 km</title></rect><rect width="2.6" height="2.6" x="94" y="66.5" fill="#4dd2ff"><title>2024-06-23 3.4 km</title></rect><rect width="2.6" height="2.6" x="97.5" y="45.5" fill="#4dd2ff"><title>2024-06-24 3.5 km</title></rect><rect width="2.6" height="2.6" x="97.5" y="49" fill="#4dd2ff"><title>2024-06-25 3.4 km</title></rect><rect width="2.6" height="2.6" x="97.5" y="52.5" fill="#4dd2ff"><title>2024-06-26 2.5 km</title></rect><rect width="2.6" height="2.6" x="97.5" y="56" fill="#4dd2ff"><title>2024-06-27 3.4 km</title></rect><rect width="2.6" height="2.6" x="97.5" y="59.5" fill="#4dd2ff"><title>2024-06-28 3.5 km</title></rect><rect width="2.6" height="2.6" x="97.5" y="63" fill="#4dd2ff"><title>2024-06-29 3.4 km</title></rect><rect width="2.6" height="2.6" x="97.5" y="66.5" fill="#4dd2ff"><title>2024-06-30 3.4 km</title></rect><rect width="2.6" height="2.6" x="101" y="45.5" fill="#4dd2ff"><title>2024-07-01 3.4 km</title></rect><rect width="2.6" height="2.6" x="101" y="49" fill="#4dd2ff"><title>2024-07-02 2.4 km</title></rect><rect width="2.6" height="2.6" x="101" y="52.5" fill="#4dd2ff"><title>2024-07-03 3.4 km</title></rect><rect width="2.6" height="2.6" x="101" y="56" fill="#4dd2ff"><title>2024-07-04 3.4 km</title></rect><rect width="2.6" height="2.6" x="101" y="59.5" fill="#4dd2ff"><title>2024-07-05 3.4 km</title></rect><rect width="2.6" height="2.6" x="101" y="63" fill="#4dd2ff"><title>2024-07-06 3.4 km</title></rect><rect width="2.6" height="2.6" x="101" y="66.5" fill="#4dd2ff"><title>2024-07-07 3.4 km</title></rect><rect width="2.6" height="2.6" x="104.5" y="45.5" fill="#4dd2ff"><title>2024-07-08 3.4 km</title></rect><rect width="2.6" height="2.6" x="104.5" y="49" fill="#4dd2ff"><title>2024-07-09 3.4 km</title></rect><rect width="2.6" height="2.6" x="104.5" y="52.5" fill="#4dd2ff"><title>2024-07-10 3.4 km</title></rect><rect width="2.6" height="2.6" x="104.5" y="56" fill="#4dd2ff"><title>2024-07-11 3.4 km</title></rect><rect width="2.6" height="2.6" x="104.5" y="59.5" fill="#4dd2ff"><title>2024-07-12 3.4 km</title></rect><rect width="2.6" height="2.6" x="104.5" y="63" fill="#4dd2ff"><title>2024-07-13 1.0 km</title></rect><rect width="2.6" height="2.6" x="104.5" y="66.5" fill="#4dd2ff"><title>2024-07-14 1.0 km</title></rect><rect width="2.6" height="2.6" x="108" y="45.5" fill="#444"><title>2024-07-15</title></rect><rect width="2.6" height="2.6" x="108" y="49" fill="#444"><title>2024-07-16</title></rect><rect width="2.6" height="2.6" x="108" y="52.5" fill="#444"><title>2024-07-17</title></rect><rect width="2.6" height="2.6" x="108" y="56" fill="#444"><title>2024-07-18</title></rect><rect width="2.6" height="2.6" x="108" y="59.5" fill="#444"><title>2024-07-19</title></rect><rect width="2.6" height="2.6" x="108" y="63" fill="#444"><title>2024-07-20</title></rect><rect width="2.6" height="2.6" x="108" y="66.5" fill="#444"><title>2024-07-21</title></rect><rect width="2.6" height="2.6" x="111.5" y="45.5" fill="#444"><title>2024-07-22</title></rect><rect width="2.6" height="2.6" x="111.5" y="49" fill="#444"><title>2024-07-23</title></rect><rect width="2.6" height="2.6" x="111.5" y="52.5" fill="#444"><title>2024-07-24</title></rect><rect width="2.6" height="2.6" x="111.5" y="56" fill="#444"><title>2024-07-25</title></rect><rect width="2.6" height="2.6" x="111.5" y="59.5" fill="#444"><title>2024-07-26</title></rect><rect width="2.6" height="2.6" x="111.5" y="63" fill="#444"><title>2024-07-27</title></rect><rect width="2.6" height="2.6" x="111.5" y="66.5" fill="#444"><title>2024-07-28</title></rect><rect width="2.6" height="2.6" x="115" y="45.5" fill="#444"><title>2024-07-29</title></rect><rect width="2.6" height="2.6" x="115" y="49" fill="#444"><title>2024-07-30</title></rect><rect width="2.6" height="2.6" x="115" y="52.5" fill="#444"><title>2024-07-31</title></rect><rect width="2.6" height="2.6" x="115" y="56" fill="#444"><title>2024-08-01</title></rect><rect width="2.6" height="2.6" x="115" y="59.5" fill="#444"><title>2024-08-02</title></rect><rect width="2.6" height="2.6" x="115" y="63" fill="#444"><title>2024-08-03</title></rect><rect width="2.6" height="2.6" x="115" y="66.5" fill="#444"><title>2024-08-04</title></rect><rect width="2.6" height="2.6" x="118.5" y="45.5" fill="#444"><title>2024-08-05</title></rect><rect width="2.6" height="2.6" x="118.5" y="49" fill="#444"><title>2024-08-06</title></rect><rect width="2.6" height="2.6" x="118.5" y="52.5" fill="#444"><title>2024-08-07</title></rect><rect width="2.6" height="2.6" x="118.5" y="56" fill="#444"><title>2024-08-08</title></rect><rect width="2.6" height="2.6" x="118.5" y="59.5" fill="#444"><title>2024-08-09</title></rect><rect width="2.6" height="2.6" x="118.5" y="63" fill="#444"><title>2024-08-10</title></rect><rect width="2.6" height="2.6" x="118.5" y="66.5" fill="#444"><title>2024-08-11</title></rect><rect width="2.6" height="2.6" x="122" y="45.5" fill="#444"><title>2024-08-12</title></rect><rect width="2.6" height="2.6" x="122" y="49" fill="#444"><title>2024-08-13</title></rect><rect width="2.6" height="2.6" x="122" y="52.5" fill="#444"><title>2024-08-14</title></rect><rect width="2.6" height="2.6" x="122" y="56" fill="#444"><title>2024-08-15</title></rect><rect width="2.6" height="2.6" x="122" y="59.5" fill="#444"><title>2024-08-16</title></rect><rect width="2.6" height="2.6" x="122" y="63" fill="#444"><title>2024-08-17</title></rect><rect width="2.6" height="2.6" x="122" y="66.5" fill="#444"><title>2024-08-18</title></rect><rect width="2.6" height="2.6" x="125.5" y="45.5" fill="#444"><title>2024-08-19</title></rect><rect width="2.6" height="2.6" x="125.5" y="49" fill="#444"><title>2024-08-20</title></rect><rect width="2.6" height="2.6" x="125.5" y="52.5" fill="#444"><title>2024-08-21</title></rect><rect width="2.6" height="2.6" x="125.5" y="56" fill="#444"><title>2024-08-22</title></rect><rect width="2.6" height="2.6" x="125.5" y="59.5" fill="#444"><title>2024-08-23</title></rect><rect width="2.6" height="2.6" x="125.5" y="63" fill="#444"><title>2024-08-24</title></rect><rect width="2.6" height="2.6" x="125.5" y="66.5" fill="#444"><title>2024-08-25</title></rect><rect width="2.6" height="2.6" x="129" y="45.5" fill="#444"><title>2024-08-26</title></rect><rect width="2.6" height="2.6" x="129" y="49" fill="#4dd2ff"><title>2024-08-27 1.0 km</title></rect><rect width="2.6" height="2.6" x="129" y="52.5" fill="#4dd2ff"><title>2024-08-28 2.0 km</title></rect><rect width="2.6" height="2.6" x="129" y="56" fill="#4dd2ff"><title>2024-08-29 2.0 km</title></rect><rect width="2.6" height="2.6" x="129" y="59.5" fill="#4dd2ff"><title>2024-08-30 2.0 km</title></rect><rect width="2.6" height="2.6" x="129" y="63" fill="#4dd2ff"><title>2024-08-31 2.0 km</title></rect><rect width="2.6" height="2.6" x="129" y="66.5" fill="#4dd2ff"><title>2024-09-01 2.1 km</title></rect><rect width="2.6" height="2.6" x="132.5" y="45.5" fill="#4dd2ff"><title>2024-09-02 2.1 km</title></rect><rect width="2.6" height="2.6" x="132.5" y="49" fill="#4dd2ff"><title>2024-09-03 2.0 km</title></rect><rect width="2.6" height="2.6" x="132.5" y="52.5" fill="#4dd2ff"><title>2024-09-04 2.1 km</title></rect><rect width="2.6" height="2.6" x="132.5" y="56" fill="#4dd2ff"><title>2024-09-05 2.1 km</title></rect><rect width="2.6" height="2.6" x="132.5" y="59.5" fill="#4dd2ff"><title>2024-09-06 2.0 km</title></rect><rect width="2.6" height="2.6" x="132.5" y="63" fill="#444"><title>2024-09-07</title></rect><rect width="2.6" height="2.6" x="132.5" y="66.5" fill="#4dd2ff"><title>2024-09-08 2.1 km</title></rect><rect width="2.6" height="2.6" x="136" y="45.5" fill="#4dd2ff"><title>2024-09-09 1.0 km</title></rect><rect width="2.6" height="2.6" x="136" y="49" fill="#4dd2ff"><title>2024-09-10 2.0 km</title></rect><rect width="2.6" height="2.6" x="136" y="52.5" fill="#4dd2ff"><title>2024-09-11 2.1 km</title></rect><rect width="2.6" height="2.6" x="136" y="56" fill="#4dd2ff"><title>2024-09-12 2.1 km</title></rect><rect width="2.6" height="2.6" x="136" y="59.5" fill="#4dd2ff"><title>2024-09-13 2.1 km</title></rect><rect width="2.6" height="2.6" x="136" y="63" fill="#4dd2ff"><title>2024-09-14 2.1 km</title></rect><rect width="2.6" height="2.6" x="136" y="66.5" fill="#4dd2ff"><title>2024-09-15 2.1 km</title></rect><rect width="2.6" height="2.6" x="139.5" y="45.5" fill="#4dd2ff"><title>2024-09-16 2.0 km</title></rect><rect width="2.6" height="2.6" x="139.5" y="49" fill="#4dd2ff"><title>2024-09-17 2.1 km</title></rect><rect width="2.6" height="2.6" x="139.5" y="52.5" fill="#4dd2ff"><title>2024-09-18 2.0 km</title></rect><rect width="2.6" height="2.6" x="139.5" y="56" fill="#4dd2ff"><title>2024-09-19 1.0 km</title></rect><rect width="2.6" height="2.6" x="139.5" y="59.5" fill="#4dd2ff"><title>2024-09-20 2.0 km</title></rect><rect width="2.6" height="2.6" x="139.5" y="63" fill="#4dd2ff"><title>2024-09-21 1.0 km</title></rect><rect width="2.6" height="2.6" x="139.5" y="66.5" fill="#4dd2ff"><title>2024-09-22 1.0 km</title></rect><rect width="2.6" height="2.6" x="143" y="45.5" fill="#4dd2ff"><title>2024-09-23 2.1 km</title></rect><rect width="2.6" height="2.6" x="143" y="49" fill="#4dd2ff"><title>2024-09-24 2.1 km</title></rect><rect width="2.6" height="2.6" x="143" y="52.5" fill="#4dd2ff"><title>2024-09-25 2.0 km</title></rect><rect width="2.6" height="2.6" x="143" y="56" fill="#4dd2ff"><title>2024-09-26 2.0 km</title></rect><rect width="2.6" height="2.6" x="143" y="59.5" fill="#4dd2ff"><title>2024-09-27 2.0 km</title></rect><rect width="2.6" height="2.6" x="143" y="63" fill="#4dd2ff"><title>2024-09-28 2.1 km</title></rect><rect width="2.6" height="2.6" x="143" y="66.5" fill="#4dd2ff"><title>2024-09-29 2.1 km</title></rect><rect width="2.6" height="2.6" x="146.5" y="45.5" fill="#4dd2ff"><title>2024-09-30 2.0 km</title></rect><rect width="2.6" height="2.6" x="146.5" y="49" fill="#4dd2ff"><title>2024-10-01 1.0 km</title></rect><rect width="2.6" height="2.6" x="146.5" y="52.5" fill="#4dd2ff"><title>2024-10-02 2.3 km</title></rect><rect width="2.6" height="2.6" x="146.5" y="56" fill="#4dd2ff"><title>2024-10-03 2.1 km</title></rect><rect width="2.6" height="2.6" x="146.5" y="59.5" fill="#4dd2ff"><title>2024-10-04 2.1 km</title></rect><rect width="2.6" height="2.6" x="146.5" y="63" fill="#4dd2ff"><title>2024-10-05 2.0 km</title></rect><rect width="2.6" height="2.6" x="146.5" y="66.5" fill="#4dd2ff"><title>2024-10-06 2.3 km</title></rect><rect width="2.6" height="2.6" x="150" y="45.5" fill="#4dd2ff"><title>2024-10-07 2.1 km</title></rect><rect width="2.6" height="2.6" x="150" y="49" fill="#4dd2ff"><title>2024-10-08 2.1 km</title></rect><rect width="2.6" height="2.6" x="150" y="52.5" fill="#4dd2ff"><title>2024-10-09 2.0 km</title></rect><rect width="2.6" height="2.6" x="150" y="56" fill="#4dd2ff"><title>2024-10-10 2.0 km</title></rect><rect width="2.6" height="2.6" x="150" y="59.5" fill="#4dd2ff"><title>2024-10-11 2.1 km</title></rect><rect width="2.6" height="2.6" x="150" y="63" fill="#4dd2ff"><title>2024-10-12 2.0 km</title></rect><rect width="2.6" height="2.6" x="150" y="66.5" fill="#4dd2ff"><title>2024-10-13 2.1 km</title></rect><rect width="2.6" height="2.6" x="153.5" y="45.5" fill="#4dd2ff"><title>2024-10-14 2.1 km</title></rect><rect width="2.6" height="2.6" x="153.5" y="49" fill="#4dd2ff"><title>2024-10-15 2.1 km</title></rect><rect width="2.6" height="2.6" x="153.5" y="52.5" fill="#4dd2ff"><title>2024-10-16 2.1 km</title></rect><rect width="2.6" height="2.6" x="153.5" y="56" fill="#4dd2ff"><title>2024-10-17 2.0 km</title></rect><rect width="2.6" height="2.6" x="153.5" y="59.5" fill="#4dd2ff"><title>2024-10-18 2.1 km</title></rect><rect width="2.6" height="2.6" x="153.5" y="63" fill="#4dd2ff"><title>2024-10-19 2.1 km</title></rect><rect width="2.6" height="2.6" x="153.5" y="66.5" fill="#4dd2ff"><title>2024-10-20 2.1 km</title></rect><rect width="2.6" height="2.6" x="157" y="45.5" fill="#4dd2ff"><title>2024-10-21 2.1 km</title></rect><rect width="2.6" height="2.6" x="157" y="49" fill="#4dd2ff"><title>2024-10-22 2.1 km</title></rect><rect width="2.6" height="2.6" x="157" y="52.5" fill="#4dd2ff"><title>2024-10-23 2.0 km</title></rect><rect width="2.6" height="2.6" x="157" y="56" fill="#4dd2ff"><title>2024-10-24 2.1 km</title></rect><rect width="2.6" height="2.6" x="157" y="59.5" fill="#4dd2ff"><title>2024-10-25 2.1 km</title></rect><rect width="2.6" height="2.6" x="157" y="63" fill="#4dd2ff"><title>2024-10-26 2.1 km</title></rect><rect width="2.6" height="2.6" x="157" y="66.5" fill="#4dd2ff"><title>2024-10-27 1.0 km</title></rect><rect width="2.6" height="2.6" x="160.5" y="45.5" fill="#4dd2ff"><title>2024-10-28 2.1 km</title></rect><rect width="2.6" height="2.6" x="160.5" y="49" fill="#4dd2ff"><title>2024-10-29 2.0 km</title></rect><rect width="2.6" height="2.6" x="160.5" y="52.5" fill="#4dd2ff"><title>2024-10-30 2.1 km</title></rect><rect width="2.6" height="2.6" x="160.5" y="56" fill="#4dd2ff"><title>2024-10-31 2.1 km</title></rect><rect width="2.6" height="2.6" x="160.5" y="59.5" fill="#4dd2ff"><title>2024-11-01 2.1 km</title></rect><rect width="2.6" height="2.6" x="160.5" y="63" fill="#4dd2ff"><title>2024-11-02 2.1 km</title></rect><rect width="2.6" height="2.6" x="160.5" y="66.5" fill="#4dd2ff"><title>2024-11-03 2.1 km</title></rect><rect width="2.6" height="2.6" x="164" y="45.5" fill="#4dd2ff"><title>2024-11-04 1.0 km</title></rect><rect width="2.6" height="2.6" x="164" y="49" fill="#4dd2ff"><title>2024-11-05 2.1 km</title></rect><rect width="2.6" height="2.6" x="164" y="52.5" fill="#4dd2ff"><title>2024-11-06 2.0 km</title></rect><rect width="2.6" height="2.6" x="164" y="56" fill="#4dd2ff"><title>2024-11-07 2.1 km</title></rect><rect width="2.6" height="2.6" x="164" y="59.5" fill="#4dd2ff"><title>2024-11-08 2.1 km</title></rect><rect width="2.6" height="2.6" x="164" y="63" fill="#4dd2ff"><title>2024-11-09 2.1 km</title></rect><rect width="2.6" height="2.6" x="164" y="66.5" fill="#4dd2ff"><title>2024-11-10 2.1 km</title></rect><rect width="2.6" height="2.6" x="167.5" y="45.5" fill="#4dd2ff"><title>2024-11-11 2.1 km</title></rect><rect width="2.6" height="2.6" x="167.5" y="49" fill="#4dd2ff"><title>2024-11-12 2.1 km</title></rect><rect width="2.6" height="2.6" x="167.5" y="52.5" fill="#4dd2ff"><title>2024-11-13 2.1 km</title></rect><rect width="2.6" height="2.6" x="167.5" y="56" fill="#4dd2ff"><title>2024-11-14 2.1 km</title></rect><rect width="2.6" height="2.6" x="167.5" y="59.5" fill="#4dd2ff"><title>2024-11-15 2.1 km</title></rect><rect width="2.6" height="2.6" x="167.5" y="63" fill="#4dd2ff"><title>2024-11-16 2.0 km</title></rect><rect width="2.6" height="2.6" x="167.5" y="66.5" fill="#4dd2ff"><title>2024-11-17 2.1 km</title></rect><rect width="2.6" height="2.6" x="171" y="45.5" fill="#4dd2ff"><title>2024-11-18 2.0 km</title></rect><rect width="2.6" height="2.6" x="171" y="49" fill="#4dd2ff"><title>2024-11-19 2.1 km</title></rect><rect width="2.6" height="2.6" x="171" y="52.5" fill="#4dd2ff"><title>2024-11-20 2.0 km</title></rect><rect width="2.6" height="2.6" x="171" y="56" fill="#4dd2ff"><title>2024-11-21 2.1 km</title></rect><rect width="2.6" height="2.6" x="171" y="59.5" fill="#4dd2ff"><title>2024-11-22 2.1 km</title></rect><rect width="2.6" height="2.6" x="171" y="63" fill="#4dd2ff"><title>2024-11-23 2.2 km</title></rect><rect width="2.6" height="2.6" x="171" y="66.5" fill="#4dd2ff"><title>2024-11-24 2.1 km</title></rect><rect width="2.6" height="2.6" x="174.5" y="45.5" fill="#4dd2ff"><title>2024-11-25 2.0 km</title></rect><rect width="2.6" height="2.6" x="174.5" y="49" fill="#4dd2ff"><title>2024-11-26 2.0 km</title></rect><rect width="2.6" height="2.6" x="174.5" y="52.5" fill="#4dd2ff"><title>2024-11-27 2.0 km</title></rect><rect width="2.6" height="2.6" x="174.5" y="56" fill="#4dd2ff"><title>2024-11-28 2.1 km</title></rect><rect width="2.6" height="2.6" x="174.5" y="59.5" fill="#4dd2ff"><title>2024-11-29 2.0 km</title></rect><rect width="2.6" height="2.6" x="174.5" y="63" fill="#4dd2ff"><title>2024-11-30 2.1 km</title></rect><rect width="2.6" height="2.6" x="174.5" y="66.5" fill="#4dd2ff"><title>2024-12-01 2.0 km</title></rect><rect width="2.6" height="2.6" x="178" y="45.5" fill="#4dd2ff"><title>2024-12-02 2.0 km</title></rect><rect width="2.6" height="2.6" x="178" y="49" fill="#4dd2ff"><title>2024-12-03 2.0 km</title></rect><rect width="2.6" height="2.6" x="178" y="52.5" fill="#4dd2ff"><title>2024-12-04 2.0 km</title></rect><rect width="2.6" height="2.6" x="178" y="56" fill="#4dd2ff"><title>2024-12-05 2.1 km</title></rect><rect width="2.6" height="2.6" x="178" y="59.5" fill="#4dd2ff"><title>2024-12-06 2.1 km</title></rect><rect width="2.6" height="2.6" x="178" y="63" fill="#4dd2ff"><title>2024-12-07 2.1 km</title></rect><rect width="2.6" height="2.6" x="178" y="66.5" fill="#4dd2ff"><title>2024-12-08 2.1 km</title></rect><rect width="2.6" height="2.6" x="181.5" y="45.5" fill="#4dd2ff"><title>2024-12-09 2.1 km</title></rect><rect width="2.6" height="2.6" x="181.5" y="49" fill="#4dd2ff"><title>2024-12-10 2.1 km</title></rect><rect width="2.6" height="2.6" x="181.5" y="52.5" fill="#4dd2ff"><title>2024-12-11 1.1 km</title></rect><rect width="2.6" height="2.6" x="181.5" y="56" fill="#4dd2ff"><title>2024-12-12 2.1 km</title></rect><rect width="2.6" height="2.6" x="181.5" y="59.5" fill="#4dd2ff"><title>2024-12-13 2.1 km</title></rect><rect width="2.6" height="2.6" x="181.5" y="63" fill="#4dd2ff"><title>2024-12-14 2.1 km</title></rect><rect width="2.6" height="2.6" x="181.5" y="66.5" fill="#4dd2ff"><title>2024-12-15 2.1 km</title></rect><rect width="2.6" height="2.6" x="185" y="45.5" fill="#4dd2ff"><title>2024-12-16 2.1 km</title></rect><rect width="2.6" height="2.6" x="185" y="49" fill="#4dd2ff"><title>2024-12-17 2.1 km</title></rect><rect width="2.6" height="2.6" x="185" y="52.5" fill="#4dd2ff"><title>2024-12-18 2.1 km</title></rect><rect width="2.6" height="2.6" x="185" y="56" fill="#4dd2ff"><title>2024-12-19 2.1 km</title></rect><rect width="2.6" height="2.6" x="185" y="59.5" fill="#4dd2ff"><title>2024-12-20 2.1 km</title></rect><rect width="2.6" height="2.6" x="185" y="63" fill="#4dd2ff"><title>2024-12-21 1.0 km</title></rect><rect width="2.6" height="2.6" x="185" y="66.5" fill="#4dd2ff"><title>2024-12-22 2.1 km</title></rect><rect width="2.6" height="2.6" x="188.5" y="45.5" fill="#4dd2ff"><title>2024-12-23 2.1 km</title></rect><rect width="2.6" height="2.6" x="188.5" y="49" fill="#4dd2ff"><title>2024-12-24 2.1 km</title></rect><rect width="2.6" height="2.6" x="188.5" y="52.5" fill="#4dd2ff"><title>2024-12-25 2.1 km</title></rect><rect width="2.6" height="2.6" x="188.5" y="56" fill="#4dd2ff"><title>2024-12-26 2.1 km</title></rect><rect width="2.6" height="2.6" x="188.5" y="59.5" fill="#4dd2ff"><title>2024-12-27 2.1 km</title></rect><rect width="2.6" height="2.6" x="188.5" y="63" fill="#4dd2ff"><title>2024-12-28 2.1 km</title></rect><rect width="2.6" height="2.6" x="188.5" y="66.5" fill="#4dd2ff"><title>2024-12-29 2.1 km</title></rect><rect width="2.6" height="2.6" x="192" y="45.5" fill="#4dd2ff"><title>2024-12-30 2.1 km</title></rect><rect width="2.6" height="2.6" x="192" y="49" fill="#4dd2ff"><title>2024-12-31 1.0 km</title></rect></svg>