<?xml version="1.0" encoding="utf-8" ?>
<svg baseProfile="full" height="300mm" version="1.1" viewBox="0,0,200,300" width="200mm" xmlns="http://www.w3.org/2000/svg" xmlns:ev="http://www.w3.org/2001/xml-events" xmlns:xlink="http://www.w3.org/1999/xlink"><defs /><rect fill="#222222" height="300" width="200" x="0" y="0" /><text fill="#FFFFFF" style="font-size:12px; font-family:Arial; font-weight:bold;" x="10" y="20">Over 1km Runs</text><text fill="#FFFFFF" style="font-size:4px; font-family:Arial" x="10" y="280">ATHLETE</text><text fill="#FFFFFF" style="font-size:9px; font-family:Arial" x="10" y="290">Jiakai</text><text fill="#FFFFFF" style="font-size:4px; font-family:Arial" x="120" y="280">STATISTICS</text><text fill="#FFFFFF" style="font-size:3px; font-family:Arial" x="120" y="285">Number: 112</text><text fill="#FFFFFF" style="font-size:3px; font-family:Arial" x="120" y="290">Weekly: 5.1</text><text fill="#FFFFFF" style="font-size:3px; font-family:Arial" x="141" y="285">Total: 115.7 km</text><text fill="#FFFFFF" style="font-size:3px; font-family:Arial" x="141" y="290">Avg: 1.0 km</text><text fill="#FFFFFF" style="font-size:3px; font-family:Arial" x="167" y="285">Min: 1.0 km</text><text fill="#FFFFFF" style="font-size:3px; font-family:Arial" x="167" y="290">Max: 1.5 km</text><polyline fill="none" points="10.923076923005283,32.93929942313116 11.701923076994717,34.06613488995936 13.086538461968303,39.70029731176328 14.211538461502641,41.67224828817416 15.076923076994717,44.019805004354566 15.76923076948151,44.77102224261034 16.807692307513207,45.52223903860431 17.41346153849736,45.52223903860431 18.365384615026414,45.428336963406764 19.057692307513207,45.052728592650965 21.04807692253962,44.67712011188269 23.64423076901585,43.92590281867888 25.201923076994717,42.986880580778234 26.846153846010566,42.14175997651182 27.451923076529056,41.484443564200774 27.538461538031697,40.63932196586393 27.365384615492076,39.888102297787555 26.58653846150264,38.103953815530986" stroke="#4dd2ff" stroke-linecap="round" stroke-linejoin="round" stroke-width="0.5"><title>2024-03-18 1.0km</title><desc>10982820714</desc></polyline><polyline fill="none" points="31.115384615492076,32.772515885182656 31.859357060864568,33.93859502079431 32.768656716216356,37.257429538527504 33.92594718700275,40.127765625016764 34.091274397447705,41.29383773112204 35.08323765778914,43.446583306998946 35.331228472758085,44.1641643216135 35.744546498171985,44.881744914338924 36.73650975897908,45.59932508470956 37.480482204351574,45.689022576552816 39.46440872550011,45.41993008181453 41.94431687705219,44.61265224148519 44.92020665900782,43.35688565066084 46.65614236518741,42.459908723132685 47.565442020539194,41.74232670618221 47.73076923098415,41.47323334089015 47.73076923098415,41.114442095160484 47.4001148105599,40.307161406381056" stroke="#4dd2ff" stroke-linecap="round" stroke-linejoin="round" stroke-width="0.5"><title>2024-03-17 1.0km</title><desc>10975003116</desc></polyline><polyline fill="none" points="51.30769230751321,32.843508695834316 52.14263625815511,33.84010730055161 52.4766138382256,34.474305993062444 53.47854657890275,37.28289627924096 53.89601855445653,39.27608550270088 54.981445690151304,42.26586329273414 55.14843448018655,43.26245427771937 55.73289524530992,44.44024258421268 56.23386161541566,45.07443582173437 56.81832238147035,45.52743079152424 57.486277541611344,45.618029765668325 58.48821028228849,45.618029765668325 60.07460378808901,45.255633829627186 60.99304213374853,44.89323778718244 62.24545805947855,44.71203972620424 64.33281793585047,43.89664812118281 66.25318902218714,42.99065681628417 67.75608813297004,41.99406561162323 67.92307692300528,41.722267870558426 67.67259373795241,40.725675640045665" stroke="#4dd2ff" stroke-linecap="round" stroke-linejoin="round" stroke-width="0.5"><title>2024-03-16 1.0km</title><desc>10967572329</desc></polyline><polyline fill="none" points="71.5,32.6623074010713 72.16795516107231,33.6589065187145 72.33494395110756,34.655504830298014 72.58542713616043,35.3803030961426 73.58735987683758,36.920497995684855 73.75434866687283,37.37349612941034 73.75434866687283,38.00769323646091 74.92327019758523,40.09148143371567 75.34074217267334,42.44706384849269 76.00869733328,44.44024545175489 76.34267491335049,45.165037962957285 76.76014688843861,45.527434058487415 78.26304599968717,45.79923106043134 79.84943950548768,45.61803306569345 82.68824893748388,44.80264176055789 85.61055276403204,43.62485336721875 86.44549671467394,43.262456712080166 87.94839582545683,42.265865360968746 88.11538461549208,41.72226973879151 87.86490143090487,40.816276502329856" stroke="#4dd2ff" stroke-linecap="round" stroke-linejoin="round" stroke-width="0.5"><title>2024-03-12 1.0km</title><desc>10939588558</desc></polyline><polyline fill="none" points="103.00022407853976,32.3825436278712 101.96566405147314,31.484410436241888 101.13801602972671,31.259877055650577 99.79308799421415,31.14761035318952 98.34470395604149,31.596677114022896 96.99977592099458,32.3825436278712 96.48249590722844,33.05614317476284 96.0686718961224,33.72974242444616 95.8617598908022,35.41373924841173 95.8617598908022,37.32226673618425 95.75830388814211,41.58837837446481 95.9652158934623,44.50728999450803 96.27558390144259,45.742212461074814 97.62051193742082,46.97713392879814 99.37926398357376,47.53846153849736 101.3449280350469,47.20166499749757 102.68985607055947,46.52807169267908 103.620960094966,45.62994682381395 104.24169611139223,43.833695500623435 104.24169611139223,38.781727322610095 104.03478410560638,36.1996037971694 104.24169611139223,34.627874295110814 103.93132810294628,33.392942836973816 103.31059208698571,32.27027700794861 102.17257605679333,31.484410436241888 100.0,30.923076923121698 98.55161596182734,31.37214374996256 97.20668792584911,32.27027700794861 96.48249590722844,33.28067629085854 95.8617598908022,34.627874295110814 95.8617598908022,38.55719501536805" stroke="#4dd2ff" stroke-linecap="round" stroke-linejoin="round" stroke-width="0.5"><title>2024-03-11 1.0km</title><desc>10935364964</desc></polyline><polyline fill="none" points="111.88461538450792,33.52469286730047 112.23813420627266,35.15500651253387 112.06137479562312,35.82631153881084 112.23813420627266,36.9771193517372 113.38707037642598,40.429536698618904 113.65220949240029,41.10083901043981 114.0941080194898,41.676240717293695 114.71276595722884,43.306544174440205 115.50818330608308,44.07374509656802 116.12684124382213,44.45734538824763 118.60147299524397,44.93684559420217 119.66202945960686,44.745045533170924 121.25286415731534,44.745045533170924 123.55073649762198,44.07374509656802 126.46726677566767,42.82704336917959 127.26268412452191,42.25164217001293 128.32324058935046,41.77214097708929 128.5,41.48444017674774 128.14648117870092,39.56643321865704 127.61620294628665,38.511528189410456" stroke="#4dd2ff" stroke-linecap="round" stroke-linejoin="round" stroke-width="0.5"><title>2024-03-08 1.0km</title><desc>10912839308</desc></polyline><polyline fill="none" points="132.07692307699472,32.91594249056652 132.66731745377183,34.38025670754723 133.51073799328879,36.02760814258363 136.80007809447125,44.81344564491883 137.30613041762263,45.36255842994433 138.90862944163382,45.545595971052535 141.52323311194777,45.088002067641355 144.053494728636,44.35585147223901 147.76454509980977,42.61699208256323 148.43928153114393,41.88484003371559 148.6923076924868,41.06116846448276 148.6079656383954,40.6950920362724 147.76454509980977,39.50534290180076" stroke="#4dd2ff" stroke-linecap="round" stroke-linejoin="round" stroke-width="0.5"><title>2024-03-07 1.0km</title><desc>10906173208</desc></polyline><polyline fill="none" points="152.26923076901585,33.021702546509914 153.03218210302293,34.217528159730136 153.28649921435863,36.977121366537176 153.96467817854136,39.09280536987353 156.3383045522496,44.42799262306653 156.5926216635853,44.8879214937333 157.27080062730238,45.255864468286745 158.2032967028208,45.43983591499273 158.88147566653788,45.43983591499273 159.7291993717663,45.16387873457279 160.91601255862042,45.07189299433958 162.9505494502373,44.703949965536594 166.85007849242538,43.140190886100754 168.2912087906152,42.31231764110271 168.88461538450792,41.76040184008889 168.88461538450792,41.300471819820814 168.46075353166088,40.47259735758416" stroke="#4dd2ff" stroke-linecap="round" stroke-linejoin="round" stroke-width="0.5"><title>2024-03-06 1.0km</title><desc>10898894581</desc></polyline><polyline fill="none" points="172.46153846150264,33.20590557088144 173.12949362164363,34.021304369554855 173.21298801666126,34.29310384916607 173.54696559673175,35.38030116795562 174.38190954737365,39.54788200522307 174.88287591794506,40.45387597428635 175.7178198681213,42.809457176947035 176.80324700381607,44.25904337107204 177.13722458388656,44.893236795207486 177.72168534994125,45.165033876663074 178.9741012752056,45.255632890737616 182.56436026236042,44.98383582907263 184.31774255866185,44.25904337107204 185.15268650930375,43.806047868565656 187.57402396574616,42.990655544330366 188.1584847313352,42.35646114137489 188.74294549645856,42.175262680626474 189.07692307652906,41.72226641199086 188.65945110144094,40.45387597428635 187.90800154581666,39.00428530375939" stroke="#4dd2ff" stroke-linecap="round" stroke-linejoin="round" stroke-width="0.5"><title>2024-03-05 1.0km</title><desc>10891326638</desc></polyline><polyline fill="none" points="22.99045480089262,64.56846069428138 23.83941605850123,64.43686068122042 26.44693992147222,63.252459693234414 27.41718135890551,62.39705800503725 27.53846153849736,61.87065655976767 27.11398090980947,60.554651592159644 26.62886019097641,59.30444508063374 25.658618753543124,57.92263585195178 25.173498034942895,57.46203230158426 23.71813587890938,55.093210298451595 22.080853453371674,52.921784621081315 22.202133632730693,52.32957670366159 22.080853453371674,52.06637305923505 21.292532285442576,50.816154690342955 18.624368332559243,51.01355770678492 17.714766984805465,51.34256263746647 16.13812464894727,51.53996553784236 14.440202133497223,52.26377579988912 13.288040426792577,53.053386327112094 12.19651880953461,53.31658968148986 11.65075800102204,53.71139456774108 11.226277372334152,53.77719536528457 11.044357102829963,53.974597728578374 10.923076923005283,54.36940232454799 11.104997192509472,54.69840602169279 11.165637282421812,55.42221372923814 11.468837731517851,56.40922329633031 11.347557551926002,57.59363334014779 11.711398090934381,58.449039619241375 11.65075800102204,59.63344696350396 12.07523863017559,61.739056150079705" stroke="#4dd2ff" stroke-linecap="round" stroke-linejoin="round" stroke-width="0.5"><title>2024-03-04 1.0km</title><desc>10884866628</desc></polyline><polyline fill="none" points="31.115384615492076,51.35527794808149 31.69116527074948,52.33707601646893 31.85567402932793,53.5866360461805 32.26694592554122,54.925448936759494 32.26694592554122,55.46097367932089 32.67821782222018,56.532022456172854 33.08948971889913,58.138593849609606 34.15879664896056,60.7269544005394 35.72162985568866,63.136802366701886 36.626428028102964,63.85083047498483 37.613480579108,64.02933743654285 39.99885757826269,63.76157698442694 43.28903274983168,63.0475488237571 44.27608530130237,62.33352024271153 45.67440974898636,61.70874489005655 47.56626047287136,60.54844695352949 47.73076923098415,59.8344169028569 47.401751714292914,59.120386432507075" stroke="#4dd2ff" stroke-linecap="round" stroke-linejoin="round" stroke-width="0.5"><title>2024-03-03 1.0km</title><desc>10877188327</desc></polyline><polyline fill="none" points="51.30769230751321,60.99036835809238 52.82739211944863,64.28839962091297 54.043151969555765,65.38774175883736 55.056285177823156,65.82747838797513 55.56285178242251,65.82747838797513 57.69043151894584,65.60761008947156 61.94559099432081,64.50826811336447 65.99812382692471,62.85925363365095 67.72045028116554,61.54004074039403 67.92307692300528,61.32017181185074 67.72045028116554,60.11089212622028 67.11257035657763,58.57180747576058 63.76923076855019,52.85519347595982 62.24953095661476,49.55713699653279" stroke="#4dd2ff" stroke-linecap="round" stroke-linejoin="round" stroke-width="0.5"><title>2024-03-02 1.0km</title><desc>10870189784</desc></polyline><polyline fill="none" points="78.9376709018834,49.384615384507924 80.15570087032393,51.27273810002953 80.5907115736045,52.31120441004168 80.76471585454419,52.97204617015086 80.8517179954797,54.482540344586596 83.63578649563715,61.0909314667806 84.24480147985741,62.884631760651246 84.24480147985741,63.16784736758564 83.80979077657685,63.54546807927545 82.41775652673095,64.30070916994009 80.41670729219913,64.77273462607991 78.1546516357921,65.71678501786664 76.93662166735157,66.0 76.58861310454085,65.81119001889601 76.15360240126029,64.111898938776 75.37058313563466,62.12938983691856" stroke="#4dd2ff" stroke-linecap="round" stroke-linejoin="round" stroke-width="0.5"><title>2024-01-19 1.0km</title><desc>10585384707</desc></polyline><polyline fill="none" points="96.91764229908586,51.32668303558603 97.41479676682502,52.51350089034531 97.51422766083851,54.131887327414006 97.71308944793418,54.887133720563725 99.60227642580867,58.23179164726753 100.49715446820483,60.28173951175995 100.99430893640965,62.00800917670131 101.88918697834015,63.73427681135945 101.98861787235364,65.35265087452717 102.5852032341063,65.89210849907249 102.8834959147498,66.0 103.28121948847547,65.89210849907249 103.1817885953933,65.46054241538513 102.5852032341063,64.48951826279517 99.70170731982216,57.90811540686991 97.91195123456419,54.239779693307355 97.11650408618152,50.57143480994273 96.71878051152453,49.384615384507924" stroke="#4dd2ff" stroke-linecap="round" stroke-linejoin="round" stroke-width="0.5"><title>2024-01-17 1.0km</title><desc>10572816563</desc></polyline><polyline fill="none" points="117.55574290221557,50.815086217131466 118.26558726886287,51.915447465726174 119.07683797366917,55.10649051191285 120.8007457209751,60.71830833144486 122.01762177795172,63.02905072970316 122.72746614459902,65.22975445876364 123.23449783492833,65.88996494677849 123.53871684940532,66.0 123.53871684940532,65.55985973926727 121.40918374946341,61.048414606601 119.48246332583949,56.096812832634896 118.26558726886287,53.67602378083393 116.84589853556827,49.38461538462434" stroke="#4dd2ff" stroke-linecap="round" stroke-linejoin="round" stroke-width="0.5"><title>2024-01-16 1.0km</title><desc>10566280205</desc></polyline><polyline fill="none" points="137.65026621241122,50.463542174664326 138.04798972886056,51.97403834806755 139.53945291275159,55.10291833279189 140.7326234607026,59.202819939819165 142.12465576594695,62.00800917646848 143.31782631389797,65.46054241480306 143.6161189507693,66.0 143.8149807085283,66.0 140.83205433981493,59.85017177811824 140.13603818649426,57.69233120675199 139.63888379186392,55.7502719797194 138.94286763947457,54.347672050702386 138.24685148661956,51.65036072744988 136.95425006002188,49.384615384507924" stroke="#4dd2ff" stroke-linecap="round" stroke-linejoin="round" stroke-width="0.5"><title>2024-01-09 1.0km</title><desc>10520988068</desc></polyline><polyline fill="none" points="157.82855119695887,51.088766166591085 158.61380030587316,53.00593340001069 159.10458099842072,55.02960717200767 160.0861423839815,57.15978703601286 161.85295287752524,62.591731511754915 163.22713881731033,65.68047517014202 163.52160723274574,66.0 163.71791951032355,65.78698345448356 163.42345109488815,64.61539189389441 162.93267040187493,63.86983313434757 161.4603283237666,60.03552488365676 160.0861423839815,57.15978703601286 158.90826872130856,51.83433150337078 157.43592664320022,49.38461538462434" stroke="#4dd2ff" stroke-linecap="round" stroke-linejoin="round" stroke-width="0.5"><title>2024-01-07 1.0km</title><desc>10508221625</desc></polyline><polyline fill="none" points="178.5025988854468,50.696363025694154 180.11442600237206,55.615406373748556 180.31590439286083,56.708524907939136 181.22255714563653,59.00407121353783 182.02847070479766,61.73685981333256 183.64029782172292,65.67206657340284 184.0432546013035,66.0 184.0432546013035,65.23482189211063 183.13660184759647,63.70446449553128 182.63290587347,62.06479410768952 180.61812197696418,57.801642638165504 179.91294761328027,55.94334201852325 179.4092516391538,55.06884680571966 178.5025988854468,51.242924201651476 177.49520693719387,49.38461538462434" stroke="#4dd2ff" stroke-linecap="round" stroke-linejoin="round" stroke-width="0.5"><title>2024-01-06 1.0km</title><desc>10501510624</desc></polyline><polyline fill="none" points="16.18792893597856,69.55030462809373 16.384241213090718,70.18936065433081 17.562114875297993,72.00001786532812 18.347363983746618,73.91718185681384 18.936300815083086,76.36688770970795 19.917862200643867,79.56214998837095 20.997579724527895,81.90533784707077 21.684672694653273,83.6094720910769 22.077297248877585,84.2485219159862 22.469921803101897,84.46153846150264 22.37176566431299,83.71598041488323 21.88098497176543,82.54438842344098 18.641832399647683,76.36688770970795 18.052895568311214,74.55623595695943 17.85658329119906,72.85209106351249 17.169490321539342,71.0414349178318 16.67870962852612,69.23077650915366 15.991616658866405,67.84615384612698" stroke="#4dd2ff" stroke-linecap="round" stroke-linejoin="round" stroke-width="0.5"><title>2024-01-05 1.0km</title><desc>10495609202</desc></polyline><polyline fill="none" points="36.39043511450291,69.46454373339657 36.58929687226191,70.54346933367196 37.18588214600459,71.9460714282468 37.68303654110059,73.45656449219678 38.37905269348994,74.85916380234994 39.671654120553285,78.5274941221578 41.26254818402231,82.19581527262926 41.85913345776498,84.13786393415648 42.256856973748654,84.46153846150264 42.45571873150766,83.9220808763057 42.356287852395326,83.16683992452454 39.96994675742462,78.31171023962088 39.17449972592294,75.50651687814388 38.37905269348994,70.97503935196437 37.18588214600459,67.84615384601057" stroke="#4dd2ff" stroke-linecap="round" stroke-linejoin="round" stroke-width="0.5"><title>2024-01-04 1.0km</title><desc>10489071805</desc></polyline><polyline fill="none" points="57.030181762296706,70.32768427708652 58.02449055202305,72.48553341522347 59.31709197862074,76.04597755637951 60.90798604208976,79.60641305928584 61.7034330740571,82.62738186365459 62.39944922691211,84.46153846150264 62.498880106024444,84.46153846150264 62.498880106024444,83.70629778678995 62.00172571092844,81.87214024562854 61.00741692120209,79.60641305928584 60.21196988923475,77.34068237512838 58.91936846263707,74.75127159547992 58.123921431135386,72.37764103373047 57.62676703603938,70.86714685917832 57.92505967291072,69.78822149685584 56.73188912542537,67.84615384601057" stroke="#4dd2ff" stroke-linecap="round" stroke-linejoin="round" stroke-width="0.5"><title>2024-01-03 1.0km</title><desc>10482519748</desc></polyline><polyline fill="none" points="76.9107587216422,70.09148665610701 77.53153020422906,71.10188534331974 79.91115422174335,78.06239146809094 82.39424015255645,84.01247638976201 82.91154972137883,84.46153846150264 83.01501163560897,84.01247638976201 82.70462589431554,83.22661744547077 80.1180780492723,78.28692339535337 79.18692082492635,75.81707037833985 77.84191594552249,70.87735235947184 76.6003729798831,67.84615384612698" stroke="#4dd2ff" stroke-linecap="round" stroke-linejoin="round" stroke-width="0.5"><title>2024-01-01 1.0km</title><desc>10470902913</desc></polyline><polyline fill="none" points="107.12945792870596,71.48078593728133 105.78969402238727,71.5846324309241 105.5982991787605,71.89617186621763 103.58865331951529,73.35002165520564 102.727376522962,74.2846385864541 102.1531919920817,75.3231011176249 101.7704023043625,75.84233209688682 101.48331003868952,75.94617826968897 100.2392435548827,75.94617826968897 99.09087449265644,76.36156288522761 97.55971574271098,76.25771674257703 96.79413636773825,75.94617826968897 96.3156492584385,75.2192548988387 96.02855699276552,74.59617742605042 95.93285957118496,73.14232891984284 95.64576730504632,72.51925053063314 94.49739824328572,72.51925053063314 93.54042402468622,72.83078975975513 93.44472660264,72.93463615397923 93.82751628989354,73.14232891984284 94.0189111335203,72.93463615397923 93.34902918105945,72.93463615397923 93.15763433696702,72.7269433576148 92.96623949334025,72.00001832924318 92.87054207129404,70.75386026746128 93.34902918105945,70.8577068146551 93.73181886877865,71.6884789171163 94.59309566533193,72.62309694779105 95.26297761825845,72.62309694779105 95.83716214960441,72.20771123282611 96.3156492584385,72.31155767280143 96.41134668048471,72.10386478481814 95.55006988393143,69.61154774471652 95.358675039839,69.50770110578742 94.30600339919329,69.40385445952415 93.25333175901324,69.50770110578742 93.92321371240541,69.50770110578742 92.96623949334025,68.4692342976341 92.87054207129404,67.84615384601057 93.15763433696702,68.26154084445443 93.44472660264,69.61154774471652 93.73181886877865,70.23462741705589 94.0189111335203,71.5846324309241 93.44472660264,75.11540867225267 94.11460855556652,78.33463813934941 94.68879308691248,79.26925177127123 94.78449050849304,80.82693978282623 95.64576730504632,83.11154575867113 95.55006988393143,84.46153846150264" stroke="#4dd2ff" stroke-linecap="round" stroke-linejoin="round" stroke-width="0.5"><title>2023-12-31 1.5km</title><desc>10466792666</desc></polyline><polyline fill="none" points="117.47559998277575,70.31167449429631 118.85865118028596,73.09877977182623 119.94533426407725,76.95783982262947 121.4271748336032,80.06651965831406 122.711436660029,83.71117033541668 123.106594145298,84.46153846150264 123.30417288793251,84.46153846150264 123.40296225855127,83.60397485736758 123.00780477421358,82.42482407775242 121.2295960909687,78.78017018525861 121.2295960909687,77.81540733575821 119.94533426407725,75.0283110741293 119.7477555219084,72.8843872473808 119.35259803710505,71.59803143807221 118.26591495238245,69.56129908608273 116.98165312595665,67.84615384601057" stroke="#4dd2ff" stroke-linecap="round" stroke-linejoin="round" stroke-width="0.5"><title>2023-12-30 1.0km</title><desc>10458865202</desc></polyline><polyline fill="none" points="143.47544367518276,68.8781710434705 142.8097268124111,68.36216253961902 141.28808826953173,67.84615384612698 139.1958352732472,68.05255734641105 137.76929913880304,68.98137272137683 136.72317264042795,70.01338908378966 136.24766059592366,71.25180771679152 135.86725095985457,76.10227017232683 136.34276300435886,80.95271586126182 136.53296782262623,81.67512123147026 136.81827504886314,82.29432553832885 138.33991359267384,83.94553568819538 140.05175695335492,84.46153846150264 141.38319067843258,84.25513737474103 142.99993163067847,83.22313148668036 143.95095571968704,82.39752622984815 144.90197980916128,79.61110490118153 144.80687740026042,77.44388448703103 144.52157017355785,75.58626432495657 144.33136535575613,71.0454046871746 144.04605812905356,69.91018748190254 143.47544367518276,69.18777605460491 142.8097268124111,68.67176766472403 141.28808826953173,68.36216253961902 139.1958352732472,68.46536425559316 137.67419672943652,69.29097770992666 136.91337745822966,70.21979226521216 136.34276300435886,71.66461368498858 136.34276300435886,72.38702383695636 136.6280702315271,74.14144694327842 136.43786541372538,75.58626432495657 136.43786541372538,79.92070754419547" stroke="#4dd2ff" stroke-linecap="round" stroke-linejoin="round" stroke-width="0.5"><title>2023-12-29 1.0km</title><desc>10454615358</desc></polyline><polyline fill="none" points="158.09383787587285,69.64242035802454 158.92153294291347,71.21415182296187 160.36999931000173,76.37840096000582 162.6461607441306,83.33888303372078 163.3703939281404,84.46153846150264 163.47385581117123,84.46153846150264 163.47385581117123,83.33888303372078 161.92192756105214,78.62372122437228 160.68038496002555,75.59253808751237 159.8526898934506,74.02081112936139 158.5076854089275,69.64242035802454 157.67999034235254,67.84615384612698" stroke="#4dd2ff" stroke-linecap="round" stroke-linejoin="round" stroke-width="0.5"><title>2023-12-27 1.0km</title><desc>10441997651</desc></polyline><polyline fill="none" points="178.1840282958001,69.57243632955942 178.88004434620962,72.05396384152118 180.47093817591667,75.18284037616104 181.26638509053737,78.41960218502209 182.36012459825724,80.46954763832036 183.65272583533078,83.8141893359134 184.05044929217547,84.46153846150264 184.24931102152914,84.35364696045872 183.55329497065395,82.30370693246368 182.5589863276109,80.79322297452018 179.3771986681968,73.24077986413613 179.1783369393088,71.19082431355491 178.88004434620962,70.2197917373851 177.28915051650256,67.84615384612698" stroke="#4dd2ff" stroke-linecap="round" stroke-linejoin="round" stroke-width="0.5"><title>2023-12-17 1.0km</title><desc>10391591057</desc></polyline><polyline fill="none" points="15.817186448723078,87.68349576857872 17.2801504987292,90.54092952457722 18.450521738268435,93.61001872189809 20.401140470523387,97.41991345025599 22.15669733006507,102.49975740292575 22.54682107642293,102.9230769231217 22.644352013245225,102.81724705465604 22.644352013245225,102.3939275033772 22.15669733006507,101.0181381017901 19.523362040985376,95.83245853881817 18.35299080144614,92.65754346421454 17.475212371442467,89.05929791450035 16.792495815083385,87.89515772263985 16.207310195546597,86.30769230774604" stroke="#4dd2ff" stroke-linecap="round" stroke-linejoin="round" stroke-width="0.5"><title>2023-12-16 1.0km</title><desc>10386207035</desc></polyline><polyline fill="none" points="37.24252127064392,89.25220491806976 38.3085707006976,91.56574628863018 38.69622503872961,93.3534802388167 40.05301522184163,97.45474379998632 40.82832389837131,98.71666868391912 41.89437332842499,102.18695637397468 42.185114081948996,102.9230769231217 42.378941250965,102.9230769231217 42.378941250965,101.87147602299228 40.92523748287931,97.45474379998632 38.89005220774561,94.29992671962827 38.79313862370327,93.03799793927465 38.2116571161896,91.56574628863018 38.4054842852056,90.61929799825884 38.017829947173595,88.93672171386424 36.467212594579905,86.30769230774604" stroke="#4dd2ff" stroke-linecap="round" stroke-linejoin="round" stroke-width="0.5"><title>2023-12-14 1.0km</title><desc>10376526598</desc></polyline><polyline fill="none" points="64.08519717818126,89.19733854767401 63.13417322887108,87.75251617166214 62.27825167449191,87.03010442561936 60.851715750060976,86.4108940619044 59.52028222056106,86.30769230774604 58.1888486915268,86.61729754670523 56.47700558230281,87.54611285356805 55.716186422389,88.5781291401945 55.14557205280289,90.3325550853042 55.14557205280289,94.25420514831785 55.33577684266493,95.49261868093163 55.716186422389,97.0406340592308 55.430879237595946,98.89825025945902 55.525981632526964,99.62065589544363 55.62108402745798,100.03345894883387 56.57210797723383,101.68466994864866 58.09374629613012,102.81987638387363 58.56925827078521,102.9230769231217 59.52028222056106,102.9230769231217 60.47130616987124,102.9230769231217 62.18314927909523,102.30387357238214 63.13417322887108,101.37506803416181 63.70478759845719,100.34306115936488 63.894992388784885,98.072643362917 63.990094783715904,96.52462912304327 63.70478759845719,94.66700978076551 63.894992388784885,92.19018016546033 63.799889993388206,90.02295066602528 63.70478759845719,89.30054008914158 63.03907083394006,87.85571781918406 62.753763649147004,87.54611285356805 61.7076373049058,86.8237010013545 59.615384615492076,86.61729754670523 58.28395108645782,86.8237010013545 57.52313192654401,87.13330612634309 56.096596002578735,88.68133072694764 55.525981632526964,90.848562298459 55.716186422389,92.29338148678653 55.81128881732002,97.76304065145086" stroke="#4dd2ff" stroke-linecap="round" stroke-linejoin="round" stroke-width="0.5"><title>2023-12-13 1.0km</title><desc>10373769329</desc></polyline><polyline fill="none" points="76.47439205320552,86.87284439429641 78.24520781356841,89.92466207197867 79.28686414286494,94.2198026147671 80.32852047262713,96.48039808066096 82.41183313168585,102.35793073626701 82.82849566359073,102.9230769231217 83.03682692954317,102.9230769231217 83.14099256228656,102.47095999016892 82.72433003038168,101.79278434219304 81.05767990322784,98.96704925387166 78.66187034500763,94.10677275399212 78.3493734463118,92.63738381059375 77.20355148380622,90.15072239958681 76.99522021831945,87.77708730078302 76.47439205320552,86.30769230774604" stroke="#4dd2ff" stroke-linecap="round" stroke-linejoin="round" stroke-width="0.5"><title>2023-12-12 1.0km</title><desc>10365882163</desc></polyline><polyline fill="none" points="96.6756070596166,86.526316995034 97.2800421398133,87.40081542241387 98.38817312009633,89.80568344623316 99.89926082035527,93.63160183129366 101.00739180017263,95.70852483180352 102.61921868054196,100.7368527132785 102.82069704076275,102.04858762503136 103.22365376073867,102.9230769231217 103.32439294084907,102.15789881523233 103.12291458109394,101.28340906719677 101.00739180017263,96.4737062585773 99.49630409991369,93.52229001407977 99.09334738040343,92.3198594939895 98.7911298405379,89.80568344623316 97.98521640058607,87.51012768992223 97.2800421398133,86.30769230774604" stroke="#4dd2ff" stroke-linecap="round" stroke-linejoin="round" stroke-width="0.5"><title>2023-12-11 1.0km</title><desc>10361067591</desc></polyline><polyline fill="none" points="117.74233137536794,89.18770543509163 117.94649606803432,89.52001428802032 120.7027194253169,96.16617595194839 122.74436635663733,102.36923372151796 122.84644870320335,102.70153966674116 123.25477808946744,102.9230769231217 123.3568604355678,102.81230829912238 123.0506133963354,102.03692770237103 122.1318722772412,100.26462769764476 121.11104881158099,97.4954047666397 118.25274310773239,91.7354047667468 117.43608433520421,87.63692981970962 117.02775494894013,86.30769230774604" stroke="#4dd2ff" stroke-linecap="round" stroke-linejoin="round" stroke-width="0.5"><title>2023-12-10 1.0km</title><desc>10355395415</desc></polyline><polyline fill="none" points="137.638951563742,87.33899719838519 137.95575892738998,88.37030140636489 139.75100065674633,91.23503173748031 140.5958202937618,94.78729003528133 142.39106202265248,99.82919113873504 143.02467675087973,102.57931213907432 143.44708656985313,102.9230769231217 143.55268902424723,102.80848867015447 143.55268902424723,102.57931213907432 143.3414841145277,101.662605678197 141.12383256712928,97.19365396013018 140.5958202937618,95.93317808199208 140.27901292964816,93.98516790149733 139.75100065674633,92.49551141506527 138.90618101973087,91.0058535047574 138.80057856440544,89.4016049321508 137.85015647253022,87.33899719838519 137.21654174476862,86.30769230774604" stroke="#4dd2ff" stroke-linecap="round" stroke-linejoin="round" stroke-width="0.5"><title>2023-12-09 1.0km</title><desc>10350143310</desc></polyline><polyline fill="none" points="157.68684371607378,87.738163140486 159.10653182305396,91.03924445947632 159.7149695828557,93.23996129340958 161.03325139684603,96.43099495570641 162.85856467671692,101.71269089507405 163.66981502389535,102.9230769231217 163.56840873043984,101.82272602932062 162.9599709706381,99.9521276531741 161.3374702767469,97.09120796748903 160.3234073431231,94.67042550072074 159.20793811650947,92.90985397493932 158.9037192366086,91.1492803778965 157.68684371607378,88.17830773687456 157.48403112962842,86.30769230774604" stroke="#4dd2ff" stroke-linecap="round" stroke-linejoin="round" stroke-width="0.5"><title>2023-12-08 1.0km</title><desc>10345303898</desc></polyline><polyline fill="none" points="177.97178184892982,86.30769230774604 178.9533428736031,87.69231497077271 179.14965507853776,88.22486179647967 179.54227948840708,89.6094826272456 179.7385916938074,91.52664774644654 180.13121610321105,93.12428340758197 181.50540153775364,96.53256693005096 182.3888064599596,99.62131694657728 183.27221138216555,101.53846881678328 183.4685235871002,102.9230769231217 183.66483579203486,102.81656865437981 183.86114799696952,102.60355209291447 183.86114799696952,102.28402719227597 183.37036748463288,101.00592688529287 181.79986984515563,98.34321428998373 179.9349038982764,92.91126542142592 179.4441233864054,90.67457467317581 177.67731354152784,86.30769230774604" stroke="#4dd2ff" stroke-linecap="round" stroke-linejoin="round" stroke-width="0.5"><title>2023-12-07 1.0km</title><desc>10340288256</desc></polyline><polyline fill="none" points="15.956746120937169,104.76923076924868 16.863398674409837,106.19029066176154 17.467833710368723,107.61134919594042 18.575964608695358,112.31176390289329 20.187791370321065,115.26317949651275 21.49740061443299,118.8704572658753 22.101835650391877,121.1659931082977 22.40405316790566,121.38461538462434 22.50479234009981,120.6194372769678 22.303313995245844,119.63563627377152 20.691487233154476,116.24698339239694 19.58335633482784,114.60730987088755 18.978921299334615,113.40488147246651 16.964137847535312,106.51822736707982 16.25896363891661,105.097167787957" stroke="#4dd2ff" stroke-linecap="round" stroke-linejoin="round" stroke-width="0.5"><title>2023-12-06 1.0km</title><desc>10334845031</desc></polyline><polyline fill="none" points="36.821940016467124,106.36687218607403 38.29428166197613,108.60356720944401 38.98137443000451,112.11836669815239 39.668467197567225,114.67457915202249 41.337121061980724,119.04143166029826 42.22052604937926,121.06509055453353 42.51499437820166,121.38461538462434 42.12236993992701,119.46746534667909 41.14080884261057,117.6568213144783 40.257403855677694,115.10061412269715 38.98137443000451,112.4378935014829 38.39243777189404,110.41422255639918 37.410876675043255,108.28403956058901 36.92009612638503,105.94083464704454 36.33115946827456,104.76923076924868" stroke="#4dd2ff" stroke-linecap="round" stroke-linejoin="round" stroke-width="0.5"><title>2023-12-05 1.0km</title><desc>10329306344</desc></polyline><polyline fill="none" points="56.59320943709463,105.42510473448783 56.996166127733886,107.06478838203475 57.70134033635259,108.15790980914608 58.607992889825255,111.32795740303118 60.42129799630493,115.80973729700781 61.32795055024326,118.8704572658753 62.13386393059045,120.6194372769678 62.73829896654934,121.38461538462434 62.73829896654934,120.83805963338818 60.11908047879115,114.82593311159872 59.11168875312433,111.43726926867384 58.00355785386637,108.9230943301227 57.197644473053515,105.75304160860833 56.492470264900476,104.76923076924868" stroke="#4dd2ff" stroke-linecap="round" stroke-linejoin="round" stroke-width="0.5"><title>2023-12-04 1.0km</title><desc>10324662812</desc></polyline><polyline fill="none" points="77.28988937241957,106.88798121421132 78.00926163932309,108.22613786510192 79.03693630732596,112.12908802030142 80.68121577519923,115.80900325393304 81.8116579093039,119.71193389769178 82.6337976437062,121.27310334297363 83.25040244404227,121.38461538462434 83.25040244404227,120.93856716854498 82.53103017713875,119.71193389769178 81.60612297616899,117.03563968115486 80.57844830863178,115.47446587425657 79.8590760412626,113.57875266275369 78.62586643965915,109.11824164295103 77.80372670572251,106.88798121421132 76.36498217144981,104.76923076924868" stroke="#4dd2ff" stroke-linecap="round" stroke-linejoin="round" stroke-width="0.5"><title>2023-12-02 1.0km</title><desc>10313350310</desc></polyline><polyline fill="none" points="96.89749788027257,106.07240494468715 97.89830501563847,107.80996872310061 98.89911215100437,109.11314021574799 100.10008071316406,113.2398423574632 100.90072642173618,116.60635398712475 102.20177569752559,120.29864824248943 103.00242140563205,121.38461538462434 103.10250211926177,120.73303519503679 102.90234069200233,119.42987395368982 101.8014528430067,117.04074202559423 100.10008071316406,114.32581468916032 99.09927357826382,112.26246657653246 98.09846644243225,107.04978482157458 96.89749788027257,104.76923076924868" stroke="#4dd2ff" stroke-linecap="round" stroke-linejoin="round" stroke-width="0.5"><title>2023-12-01 1.0km</title><desc>10308709030</desc></polyline><polyline fill="none" points="117.37161210365593,106.19029066187795 118.58048164146021,108.2672219077358 120.39378594839945,114.4979982386576 122.2070902553387,118.21458923164755 123.21448153723031,120.94737079984043 123.51669892156497,121.38461538462434 123.61743804998696,121.0566819581436 123.21448153723031,119.96357001410797 121.70339461462572,117.8866551060928 121.30043810233474,116.79354083153885 119.78935117973015,113.8421282756608 119.08417728217319,110.453462190344 118.37900338508189,108.48584608070087 116.76717733452097,104.76923076924868" stroke="#4dd2ff" stroke-linecap="round" stroke-linejoin="round" stroke-width="0.5"><title>2023-11-30 1.0km</title><desc>10303537703</desc></polyline><polyline fill="none" points="137.9485601033084,106.81919099227525 138.94286838173866,109.08493317011744 139.63888417650014,111.35067185014486 139.93717666016892,113.18483869556803 141.03091576555744,115.34267910837661 142.2240856993012,118.57943377853371 143.417255633045,121.16883237473667 143.61611728882417,121.38461538462434 143.8149789441377,121.16883237473667 143.61611728882417,120.41359158942942 142.8206706661731,119.01100052834954 141.72693156031892,115.99003061349504 140.13603831548244,112.75327023246791 139.53945334861055,109.300717957085 138.3462834144011,107.4665462570265 137.65026762057096,105.74026491609402 136.95425182534382,104.76923076924868" stroke="#4dd2ff" stroke-linecap="round" stroke-linejoin="round" stroke-width="0.5"><title>2023-11-29 1.0km</title><desc>10298007687</desc></polyline><polyline fill="none" points="158.09246925450861,106.85991844837554 158.39668809017166,108.07031524321064 159.51215715287253,110.93124923144933 159.71496970951557,113.02192830271088 161.1346576078795,116.43302999192383 161.94590783538297,119.5140183835756 162.65575178479776,120.94447512412444 163.3655957337469,121.38461538462434 163.66981456894428,121.38461538462434 163.87262712605298,121.05451020144392 163.77122084749863,120.61436984385364 163.3655957337469,119.84412390657235 161.74309527873993,115.55274642910808 160.12059482373297,111.81153551209718 159.81637598853558,110.05096243298613 159.1065320391208,107.96027921163477 158.19387553306296,106.08966543269344 157.2812190274708,104.76923076924868" stroke="#4dd2ff" stroke-linecap="round" stroke-linejoin="round" stroke-width="0.5"><title>2023-11-28 1.0km</title><desc>10292316108</desc></polyline><polyline fill="none" points="179.63820277480409,104.76923076924868 180.76923076901585,106.56294741481543 181.63925230363384,108.92309707845561 182.16126522421837,111.18883667432237 182.85728245135397,112.22729931969661 183.64030183199793,113.73778894112911 184.42332121310756,116.19233078684192 185.11933844024315,117.32519467140082 185.11933844024315,117.89162623893935 184.684327673167,118.26924714527559 183.29229321843013,119.0244886247674 182.4222716842778,119.77972965978552 181.55225015012547,120.25175508123357 180.24721784843132,120.8181853578426 178.15916616655886,121.38461538462434 177.81115755299106,121.29021039779764 177.55015109246597,121.00699539470952 177.1151403253898,119.2132989250822 176.4191230982542,117.32519467140082" stroke="#4dd2ff" stroke-linecap="round" stroke-linejoin="round" stroke-width="0.5"><title>2023-11-27 1.0km</title><desc>10287544518</desc></polyline><polyline fill="none" points="16.41527194250375,125.37470046547242 18.094691377598792,127.84021748858504 18.588638270273805,129.01937632996123 19.774110812693834,135.02235201140866 21.058372733183205,138.1310261329636 21.749898383393884,139.31017665250693 22.243845276068896,139.84615384612698 22.3426346546039,139.73895842314232 22.04626651899889,139.20298119005747 22.04626651899889,138.3454172075726 21.25595149071887,136.52309207001235 20.36684708390385,133.52161040809005 19.477742677088827,131.6992792416131 18.885006405878812,128.26900263212156 17.20558697078377,125.5890934158815 16.8104294561781,124.51712835009675 16.118903806898743,123.23076923075132" stroke="#4dd2ff" stroke-linecap="round" stroke-linejoin="round" stroke-width="0.5"><title>2023-11-26 1.0km</title><desc>10281488289</desc></polyline><polyline fill="none" points="36.577875966671854,124.80250254436396 37.405570790637285,125.9251682064496 38.44018931966275,128.61956242809538 39.37134599639103,132.43661277089268 40.30250267311931,134.56966615945566 40.509426379110664,135.91685623815283 41.02673564385623,137.1517794331303 42.16481602657586,139.28482623561285 42.682125290855765,139.84615384612698 42.88904899638146,139.84615384612698 41.33712120261043,136.4781850867439 41.130197496619076,135.3555271831574 40.09557896759361,133.89607067452744 38.02634190861136,128.28276341070887 36.99172337865457,126.3742342403857 36.681337819900364,123.90436942025553 35.957104849629104,123.23076923075132" stroke="#4dd2ff" stroke-linecap="round" stroke-linejoin="round" stroke-width="0.5"><title>2023-11-25 1.0km</title><desc>10275889695</desc></polyline><polyline fill="none" points="56.56362204486504,125.08984192274511 58.06273348303512,127.52987151232082 58.70520981354639,130.43466373032425 61.70343268988654,138.56805353902746 62.45298840897158,139.72996295208577 62.774226574692875,139.84615384612698 62.88130596326664,139.4975811376935 61.810512078460306,138.10328953468706 60.52555941743776,134.268981283647 59.6689243093133,132.5261108216364 59.13352736737579,129.1565558121074 58.49105103686452,127.41367971210275 56.34946326771751,123.23076923075132" stroke="#4dd2ff" stroke-linecap="round" stroke-linejoin="round" stroke-width="0.5"><title>2023-11-24 1.0km</title><desc>10271180196</desc></polyline><polyline fill="none" points="77.72438010806218,125.71743685775436 78.76603620778769,127.18682947428897 79.07853303803131,128.09107038599905 79.80769230704755,131.93408832908608 81.57850767718628,137.35950907110237 82.41183255752549,139.62009539653081 82.72432938683778,139.84615384612698 83.14099182700738,139.84615384612698 83.24515743693337,139.62009539653081 83.0368262170814,138.48980264924467 81.8910045074299,135.21194898337126 78.87020181771368,128.6562206860399 77.82854571798816,125.60440659814049 76.37022717809305,123.23076923075132" stroke="#4dd2ff" stroke-linecap="round" stroke-linejoin="round" stroke-width="0.5"><title>2023-11-23 1.0km</title><desc>10265414399</desc></polyline><polyline fill="none" points="98.12300277408212,126.55386130104307 99.11089605093002,128.05461007612757 99.20968537870795,129.55535730626434 99.60484268935397,131.91367126174737 101.1854719328694,136.41589640302118 101.67941857082769,138.5598082508659 102.46973319258541,139.84615384612698 103.06246915878728,139.84615384612698 102.96367983100936,139.2029811902903 101.87699722638354,136.41589640302118 100.98789327731356,135.02235201152507 99.7036320171319,131.05610299226828 98.22179210139439,126.98264682292938 97.82663479121402,124.62432489206549 97.53026680741459,123.98114552162588 96.93753084167838,123.23076923075132" stroke="#4dd2ff" stroke-linecap="round" stroke-linejoin="round" stroke-width="0.5"><title>2023-11-21 1.0km</title><desc>10253878272</desc></polyline><polyline fill="none" points="117.67382893245667,125.63563902268652 119.28565533878282,128.91500065196306 119.78935109032318,132.19435504823923 121.90487324865535,137.55061834154185 122.81152560189366,139.51822041964624 123.11374305328354,139.84615384612698 123.31522135436535,139.7368427121546 123.41596050467342,139.51822041964624 123.01300390297547,137.76924092310946 121.19969919556752,133.8340295344824 120.49452514341101,131.75710821337998 119.38639448909089,127.49394483387005 118.78195958631113,126.40082404960413 118.37900298507884,124.87045360170305 116.9686548798345,123.23076923075132" stroke="#4dd2ff" stroke-linecap="round" stroke-linejoin="round" stroke-width="0.5"><title>2023-11-20 1.0km</title><desc>10248671423</desc></polyline><polyline fill="none" points="137.9133184342645,126.28044289362151 138.49480006936938,127.12173103587702 139.8515905519016,130.06623563659377 140.2392449756153,133.1158947260119 141.30529464036226,135.5345852423925 142.3713443055749,138.5842326731654 142.855912335217,139.32035349251237 143.43739397078753,139.84615384612698 143.3404803648591,139.00487318774685 141.6929490645416,134.69330204825383 140.62689939979464,130.8023608395597 139.560849734582,128.27850142342504 138.97936809901148,125.9649597130483 137.33183679869398,123.23076923075132" stroke="#4dd2ff" stroke-linecap="round" stroke-linejoin="round" stroke-width="0.5"><title>2023-11-19 1.0km</title><desc>10242265034</desc></polyline><polyline fill="none" points="157.24549796851352,138.94239566568285 157.75802490813658,136.3006360309082 158.39868358289823,134.28455134300748 158.6549470529426,133.79790956730722 159.10340812499635,133.51982844021404 161.28164761886,133.2417472312227 162.88329430576414,132.8941456049797 163.39582124562003,132.4770234847092 163.71615058300085,132.0599011806189 164.10054578795098,130.32188959879568 163.97241405281238,129.7657252177014 164.2286775226239,129.34860171726905 164.03647992014885,126.15064876526594 163.90834818547592,125.73352366976906 163.84428231790662,124.482147278497 163.71615058300085,123.71741644624854 163.01142604090273,123.50885338458465 162.43483323347755,123.92597946169553 162.5629649683833,123.71741644624854 162.6910967035219,123.92597946169553 161.8582404262852,123.50885338458465 161.79417455918156,123.23076923075132 161.60197695647366,123.36981131782522 161.73010869137943,123.30029027693672 161.28164761886,123.85645846166881 161.34571348666213,123.78693745651981 162.6910967035219,124.482147278497 162.37076736614108,124.76023106410867 161.8582404262852,124.96879384969361 160.64098894456401,125.1773565892363 160.5769230767619,124.89927292615175 160.8972524141427,124.76023106410867 161.34571348666213,124.82975199772045 162.6910967035219,123.50885338458465 164.54900686000474,123.57837441022275 164.3568092577625,123.43933235370787 164.10054578795098,123.36981131782522 163.90834818547592,126.70681527320994 163.97241405281238,127.68010587478057 164.1646116550546,128.86195740074618 164.29274339042604,130.87805365258828 164.29274339042604,131.57325825979933 164.10054578795098,132.26846235559788 163.71615058300085,132.6855845678947 160.51285720942542,133.03318627073895 159.03934225765988,133.3112675411394 158.27055184799246,133.86742983624572 157.37362970318645,135.1187938042567 156.8611027635634,136.926316611527 156.66890516108833,137.89959669171367 156.60483929375187,139.84615384612698" stroke="#4dd2ff" stroke-linecap="round" stroke-linejoin="round" stroke-width="0.5"><title>2023-11-18 1.0km</title><desc>10236386505</desc></polyline><polyline fill="none" points="177.4610085207969,123.23076923075132 178.2171736061573,125.4871910995571 180.29662759089842,129.07694564166013 181.05279267625883,131.74361446488183 181.33635458350182,133.28207492863294 181.90347839752212,134.205150392605 183.69937047502026,139.43589981866535 184.07745301816612,139.84615384612698 184.07745301816612,139.43589981866535 183.69937047502026,138.9230821147794 182.65964348288253,135.8461719318293 182.09251966839656,134.82053369597998 181.90347839752212,133.0769469649531 181.05279267625883,130.92310152354185 180.10758631955832,128.87181705981493 180.0130656841211,127.74360931874253 178.12265297072008,124.76923908269964" stroke="#4dd2ff" stroke-linecap="round" stroke-linejoin="round" stroke-width="0.5"><title>2023-11-17 1.0km</title><desc>10231268371</desc></polyline><polyline fill="none" points="16.610199213027954,143.03046621277463 17.43233882728964,144.92618876195047 18.76831569802016,146.82190894184168 19.076618053019047,149.38670306117274 20.001525118015707,151.39393021620344 21.440269441343844,156.7465229772497 22.365176506340504,158.30769230774604 22.262409054208547,157.41559574427083 21.54303689301014,155.9659377093194 21.029199634678662,154.51627828890923 20.207060021348298,151.0593925412977 18.56278079515323,147.60249891551211 18.048943536821753,146.04131856618915 17.740641181822866,144.48013661033474 16.096361955162138,141.69230769237038" stroke="#4dd2ff" stroke-linecap="round" stroke-linejoin="round" stroke-width="0.5"><title>2023-11-16 1.0km</title><desc>10225818993</desc></polyline><polyline fill="none" points="35.7689948072657,142.82517994765658 38.32105215778574,146.7272897551302 38.901065192651004,148.9930268524913 39.82908604759723,151.5105089994613 41.10511472262442,153.9021136108786 41.5691251498647,155.7902201547986 42.381143398117274,157.4265774752712 43.193161646369845,158.30769230774604 41.10511472262442,154.40560889279004 40.17709386814386,151.5105089994613 37.509033910464495,146.60141538421158 35.65299220010638,141.69230769237038" stroke="#4dd2ff" stroke-linecap="round" stroke-linejoin="round" stroke-width="0.5"><title>2023-11-15 1.0km</title><desc>10219684298</desc></polyline><polyline fill="none" points="56.47847917396575,143.538470224943 57.22282961755991,144.80770570668392 58.60519472789019,146.53847970895004 58.81786628300324,148.73079070518725 60.41290294844657,152.53848147322424 61.36992494715378,155.76924215338659 62.32694694632664,158.19230829912703 62.7522900570184,158.30769230774604 62.645954278763384,156.92308364179917 61.263589169830084,155.07693685323466 60.73191028088331,153.46155663207173 59.88122405996546,152.4230970402714 59.5622167265974,151.15386771748308 57.96718006208539,147.92309753666632 57.43550117313862,145.61540047847666 57.11649384023622,142.96154466690496 56.47847917396575,141.69230769237038" stroke="#4dd2ff" stroke-linecap="round" stroke-linejoin="round" stroke-width="0.5"><title>2023-11-14 1.0km</title><desc>10213806154</desc></polyline><polyline fill="none" points="76.87448180885985,143.31069758010563 78.06765218125656,145.4685479871696 78.86309909634292,148.48953322693706 81.05057811178267,154.0999178874772 81.54773243330419,155.9340774512384 82.54204107727855,157.9840177805163 82.84033367037773,158.30769230774604 82.24374848417938,157.22877693979535 80.85171638289467,153.8841342588421 80.7522855186835,153.0209994261386 79.75797687517479,150.64737601939123 78.26651391014457,147.95007203309797 77.66992872394621,146.11590249056462 77.2722052661702,143.41859017580282 76.77505094464868,141.69230769237038" stroke="#4dd2ff" stroke-linecap="round" stroke-linejoin="round" stroke-width="0.5"><title>2023-11-13 1.0km</title><desc>10208522228</desc></polyline><polyline fill="none" points="96.81420829612762,142.026847433066 98.35572041105479,145.26072778913658 99.38339515402913,148.38308848731685 100.61660484597087,150.94787996669766 101.33597716595978,153.95871660439298 102.05534948641434,156.07744991476648 102.98025675537065,158.0846682160627 103.39132665190846,158.30769230774604 103.59686160134152,157.86164409143385 102.46641938341781,155.6314010429196 101.84981453791261,153.17812990187667 99.58893010299653,151.0593925412977 98.35572041105479,149.27519036328886 98.15018546208739,147.37947324942797 96.40313839865848,143.58803191396873 96.81420829612762,142.13836066343356 96.60867334762588,141.69230769237038" stroke="#4dd2ff" stroke-linecap="round" stroke-linejoin="round" stroke-width="0.5"><title>2023-11-12 1.0km</title><desc>10202270880</desc></polyline><polyline fill="none" points="117.01902445498854,143.22267982794438 118.2278942600824,146.39273138449062 120.64563386887312,151.85832164308522 121.45154707226902,154.59110923844855 122.25746027519926,156.77733569859993 122.76115602720529,157.76113655697554 123.26485177874565,158.30769230774604 123.36559092951939,157.87044772319496 122.45893857581541,155.13766615476925 120.74637301918119,152.5141911241226 118.93306831270456,148.36034619202837 118.2278942600824,145.40892300382257 117.52272020699456,143.6599287202116 117.01902445498854,141.69230769237038" stroke="#4dd2ff" stroke-linecap="round" stroke-linejoin="round" stroke-width="0.5"><title>2023-11-11 1.0km</title><desc>10196068378</desc></polyline><polyline fill="none" points="137.31136051099747,142.39436970721 139.5758641017601,146.95776525360998 141.08553316257894,151.52114771585912 142.48736871918663,155.26545175898355 143.13436974445358,157.72264650010038 143.56570376176387,158.30769230774604 143.78137077065185,158.07367401046213 143.4578702575527,156.66956350393593 141.84036769298837,153.04227229568642 140.22286512795836,149.64899239130318 138.0661950414069,146.25570525228977 137.85052803298458,144.9685944445664 136.987859998364,141.69230769237038" stroke="#4dd2ff" stroke-linecap="round" stroke-linejoin="round" stroke-width="0.5"><title>2023-11-10 1.0km</title><desc>10191120477</desc></polyline><polyline fill="none" points="156.98320847610012,142.25745977903716 157.5040366789326,143.952914792113 159.27485256968066,145.309277456603 160.3165089758113,147.11775914754253 160.6290058977902,147.79593923327047 160.6290058977902,148.81320880097337 161.7748279441148,152.31713215948548 162.19149050675333,154.35166463861242 163.0248156315647,156.61225312436 163.23314691288397,157.74254612089135 163.75397511618212,158.30769230774604 164.0664720372297,158.1946630870225 164.37896895920858,157.74254612089135 163.23314691288397,156.9513411107473 161.35816538194194,154.23863512696698 159.17068692902103,148.24805912422016 158.64985872572288,144.85715670126956 158.12903052242473,143.5007936381735 156.77487719478086,141.69230769225396" stroke="#4dd2ff" stroke-linecap="round" stroke-linejoin="round" stroke-width="0.5"><title>2023-11-09 1.0km</title><desc>10185506531</desc></polyline><polyline fill="none" points="177.30326175363734,142.81497451011091 178.2344176089391,144.16217360191513 179.37249698722735,146.40750278008636 179.7863440332003,147.53016613132786 181.13134693540633,150.4490869815927 181.64865574380383,152.4698750708485 181.54519398184493,151.2349493339425 181.75211750576273,152.02081128198188 182.16596455173567,155.051989293308 183.09712040703744,157.85863023577258 183.5109674539417,158.30769230774604 184.02827626187354,158.08316128794104 184.23519978532568,157.74636469699908 183.09712040703744,156.73597447783686 182.26942631369457,155.38878647889942 181.75211750576273,153.92933147225995 181.02788517344743,151.4594813605072 179.9932675571181,150.00002259854227 178.8551881783642,147.53016613132786 178.54480289341882,145.73390437324997 178.64826465491205,143.48857420461718 178.44134113192558,142.92724114633165 177.51018527662382,141.69230769225396" stroke="#4dd2ff" stroke-linecap="round" stroke-linejoin="round" stroke-width="0.5"><title>2023-11-08 1.0km</title><desc>10179505859</desc></polyline><polyline fill="none" points="15.899834540206939,160.47752427402884 18.882761129178107,169.86415870848577 22.362842149101198,176.76923076924868 22.561703921295702,176.66133926832117 22.06454949034378,175.474532232387 21.169671513605863,173.9640491626924 20.573086195625365,172.45356453838758 19.37991556013003,171.15886219451204 18.98219201574102,170.4036186330486 18.68389935651794,167.81420918588992 18.485037583857775,167.05896390322596 17.29186694836244,165.0090104623232 16.59585074475035,161.34066557942424 16.098696313332766,160.15384615387302" stroke="#4dd2ff" stroke-linecap="round" stroke-linejoin="round" stroke-width="0.5"><title>2023-11-06 1.0km</title><desc>10167691585</desc></polyline><polyline fill="none" points="37.09715021029115,162.1519089434296 37.48480466241017,162.67771447671112 38.550854405388236,166.25318697770126 39.2292496971786,167.51511631486937 41.74900363571942,173.29894486477133 42.815053379163146,176.55891065113246 43.00888060498983,176.76923076924868 43.20270783081651,176.76923076924868 43.20270783081651,176.4537505803164 42.42739892704412,174.77118839812465 41.74900363571942,173.8247463006992 41.65209002280608,173.29894486477133 41.070608344394714,172.6679828867782 39.42307692300528,169.82865054125432 37.48480466241017,164.88609560613986 36.709495758172125,162.1519089434296 35.6434460147284,160.15384615387302" stroke="#4dd2ff" stroke-linecap="round" stroke-linejoin="round" stroke-width="0.5"><title>2023-11-05 1.1km</title><desc>10161301187</desc></polyline><polyline fill="none" points="56.27186570316553,160.15384615387302 57.53174239490181,162.25707006559242 59.4700142275542,166.56866941635963 60.34223655285314,170.35445325286128 61.69902683561668,172.98346391064115 62.183594794012606,175.08666895807255 62.668162752408534,176.76923076924868 62.95890352735296,176.45375058043282 62.86198993539438,176.1382703220006 61.60211324412376,173.8247463008156 61.505199652165174,173.50926546251867 60.34223655285314,171.72153939807322 59.85766859399155,170.0389716491336 58.59779190318659,167.7254377626814 58.307051127776504,165.72738275886513 57.725569577887654,163.62416394997854 56.85334725305438,161.9415866759373" stroke="#4dd2ff" stroke-linecap="round" stroke-linejoin="round" stroke-width="0.5"><title>2023-11-04 1.0km</title><desc>10155501797</desc></polyline><polyline fill="none" points="84.55619152635336,164.04480796551798 84.26546708447859,162.67771448148414 83.00566116906703,160.99513609160203 82.23039599088952,160.46932993852533 80.67986563360319,160.15384615387302 79.22624342376366,160.25900742341764 77.1911723301746,161.2054584985599 76.31899900408462,162.04674781742506 75.54373382544145,163.6241639557993 75.34991753101349,164.88609561382327 75.05919308913872,169.09252642979845 75.25300938356668,173.50926546822302 75.4468256784603,174.14022707438562 76.41590715153143,175.71762987133116 77.57880491949618,176.55891065159813 79.5169678661041,176.76923076924868 81.26131451781839,176.03311022208072 82.90875302255154,174.0350668260362 83.39329375885427,173.0886242428096 84.07165079005063,170.03897165774833 84.07165079005063,167.62027705158107 84.55619152635336,164.46545185137074 84.45928337937221,163.3086808673106 83.39329375885427,162.04674781742506 82.52112043276429,161.4157808746677 80.48604933870956,160.46932993852533 79.42005971819162,160.46932993852533 77.09426418319345,161.2054584985599 76.02827456220984,162.15190894750413 75.34991753101349,163.41384190449025 75.15610123611987,164.255129924044 75.34991753101349,167.7254377718782 75.15610123611987,169.30284764559474 75.25300938356668,171.72153940564021" stroke="#4dd2ff" stroke-linecap="round" stroke-linejoin="round" stroke-width="0.5"><title>2023-11-03 1.0km</title><desc>10152446508</desc></polyline><polyline fill="none" points="96.35135175101459,160.15384615387302 97.30837424332276,161.45192870753817 98.14576892275363,163.269242679351 98.86353579163551,166.51444154779892 100.05981390643865,168.85098104015924 101.85423107771203,173.52405074809212 102.21311451168731,174.30289449729025 102.81125356908888,176.37980948144104 103.17013700352982,176.76923076924868 103.64864824945107,176.76923076924868 103.64864824945107,176.50961658684537 102.81125356908888,176.12019524211064 102.4523701351136,175.21154510357883 101.6149754547514,174.43270175531507 101.0168363978155,172.74520665581804 100.1794417174533,171.44713240501005 99.22241922607645,169.50001923902892 98.14576892275363,165.47597855888307 97.42800205387175,163.7884748991346 96.71023518592119,160.9326958003221" stroke="#4dd2ff" stroke-linecap="round" stroke-linejoin="round" stroke-width="0.5"><title>2023-11-02 1.1km</title><desc>10144903556</desc></polyline><polyline fill="none" points="117.89045094279572,161.78281369328033 118.19069312792271,162.86879105470143 118.39085458405316,164.06336523033679 119.19150040997192,165.9095234196866 120.59263060521334,170.9049987164326 122.9945680834353,175.90045711921994 123.69513318082318,176.76923076924868 123.29481026809663,175.46607010287698 121.79359934432432,173.18553616991267 120.99295351840556,170.2534159400966 119.99214623589069,168.84165227238555 118.79117749677971,166.2353158018086 117.79037021426484,161.78281369328033 116.68948220368475,160.15384615387302" stroke="#4dd2ff" stroke-linecap="round" stroke-linejoin="round" stroke-width="0.5"><title>2023-11-01 1.0km</title><desc>10138966680</desc></polyline><polyline fill="none" points="137.91819708887488,161.15746515465435 138.63756909174845,162.1610834915191 139.15140623692423,163.83377924351953 139.97354566911235,168.29429223097395 141.30952224554494,171.1936186386738 142.1316616772674,173.8699150190223 143.46763825416565,176.76923076924868 143.57040568301454,176.65771872724872 142.6454988224432,175.31957358680665 141.30952224554494,172.1972303345101 140.17908052681014,170.19000627845526 138.22649937635288,164.2798311325023 138.02096451772377,161.93805725174025 137.1988250860013,160.1538461537566" stroke="#4dd2ff" stroke-linecap="round" stroke-linejoin="round" stroke-width="0.5"><title>2023-10-31 1.0km</title><desc>10133123337</desc></polyline><polyline fill="none" points="157.2574625229463,161.0833827732131 158.4353356231004,162.94245437148493 158.9707324868068,165.7310576690361 158.9707324868068,166.77678263687994 160.14860558649525,168.75203902169596 163.36098676733673,175.60732144187205 163.89638363104314,176.6530398747418 164.11054237606004,176.76923076924868 161.64771680394188,171.88920585322194 160.57692307746038,168.86823049699888 159.39904997730628,166.42820772447158 157.6857800143771,161.0833827732131 157.0433037779294,160.15384615387302" stroke="#4dd2ff" stroke-linecap="round" stroke-linejoin="round" stroke-width="0.5"><title>2023-10-30 1.0km</title><desc>10127985445</desc></polyline><polyline fill="none" points="178.13742065941915,162.1269333034288 178.61593158869073,163.26924565667287 179.09444251749665,166.48848459112924 179.38154907524586,167.52694719843566 181.2955927918665,171.99232771014795 182.252614649944,174.58847268112004 183.68814743729308,176.56153966777492 184.07095618126914,176.76923076924868 184.16665836656466,176.45769410557114 183.30533869424835,175.10770110262092 182.06121027842164,172.40771122614387 179.86006000405177,168.3577167346375 178.99874033173546,165.34617484139744 178.32882503094152,163.99617121892516 178.23312284518033,161.9192400490865 178.04171847365797,160.9846200265456 177.37180317239836,160.15384615387302" stroke="#4dd2ff" stroke-linecap="round" stroke-linejoin="round" stroke-width="0.5"><title>2023-10-28 1.0km</title><desc>10115543824</desc></polyline><polyline fill="none" points="16.28210728848353,180.41165112773888 17.62711098138243,183.21831332275178 18.454805561807007,185.91270417696796 19.385961964260787,188.04576023155823 20.213656544685364,191.0769400256686 21.4551984150894,193.9958482150687 21.97250752756372,195.11850372538902 22.489816640038043,195.23076923075132 22.59327846299857,195.11850372538902 22.38635481754318,194.44491051812656 21.765583882573992,192.7609262005426 19.69634743221104,188.71935626142658 18.040958271361887,184.22871045023203 17.006340046413243,181.9833825925598 16.592492756433785,180.0748513174476 15.868259998504072,178.61538461537566" stroke="#4dd2ff" stroke-linecap="round" stroke-linejoin="round" stroke-width="0.5"><title>2023-10-27 1.0km</title><desc>10110442644</desc></polyline><polyline fill="none" points="36.72378390748054,180.74557277956046 37.99981333268806,182.98226698092185 39.86477941693738,189.26629411440808 40.5518721845001,191.18344950815663 41.23896495299414,192.35504322231282 42.0242138300091,194.59171949978918 42.31868215929717,195.01775268523488 42.90761881740764,195.23076923075132 43.005774926394224,194.9112444006605 42.90761881740764,194.4852111840155 41.926057720091194,193.20711078308523 40.45371607504785,190.65090659772977 38.6869061011821,185.43197571544442 37.5090327844955,183.51481271034572 36.92009612638503,180.74557277956046 35.840378920082,178.61538461537566" stroke="#4dd2ff" stroke-linecap="round" stroke-linejoin="round" stroke-width="0.5"><title>2023-10-26 1.0km</title><desc>10104873905</desc></polyline><polyline fill="none" points="57.096906226594,181.56681518105324 59.21242807386443,187.36034703161567 61.52942819194868,193.15385630796663 62.63755868328735,195.12145809666254 63.04051522538066,195.23076923075132 62.93977608997375,194.137657527579 60.21981942933053,189.4372680473607 58.70873239589855,185.61135866318364 57.3991236332804,182.87856021872722 56.89542795578018,180.1457567512989 56.19025400606915,178.61538461537566" stroke="#4dd2ff" stroke-linecap="round" stroke-linejoin="round" stroke-width="0.5"><title>2023-10-25 1.0km</title><desc>10098978222</desc></polyline><polyline fill="none" points="76.78423482831568,178.61538461537566 77.66201280569658,180.73200477997307 77.56448191963136,181.47282110224478 78.14966723835096,183.90692919120193 78.9299143301323,185.49438877089415 79.41756876185536,187.3993379556341 80.29534674016759,189.93926628050394 82.14843358192593,193.53749040316325 82.73361890064552,195.01910948613659 82.92868067370728,195.23076923075132 83.12374244676903,195.12493936228566 83.02621156023815,193.7491503652418 81.95337180932984,191.73837946599815 81.17312471801415,190.57424766162876 80.19781585317105,188.35181160271168 80.00275408057496,187.18767705978826 78.83238344313577,185.3885581868235 78.14966723835096,183.8010984902503 77.9546054652892,181.89614454377443 77.66201280569658,180.73200477997307 77.07682748744264,179.67369508673437 76.49164216872305,179.03870889730752" stroke="#4dd2ff" stroke-linecap="round" stroke-linejoin="round" stroke-width="0.5"><title>2023-10-24 1.0km</title><desc>10092835699</desc></polyline><polyline fill="none" points="97.87903263885528,180.5239177143667 98.60326539585367,182.32018198166043 100.15519273420796,187.82122815551702 100.87942549167201,189.16842011618428 101.70712007163092,192.53639481787104 102.94866194203496,194.78170715877786 103.46597105497494,195.23076923075132 102.94866194203496,194.66944162000436 102.22442918457091,192.87319187948015 100.36211637873203,190.62787673214916 99.94826908875257,189.84201565070543 99.53442179877311,187.2598978212336 98.29287992836908,184.7900418988429 97.46518534841016,182.20791552693117 96.94787623593584,179.62578478862997 96.53402894549072,178.61538461537566" stroke="#4dd2ff" stroke-linecap="round" stroke-linejoin="round" stroke-width="0.5"><title>2023-10-23 1.0km</title><desc>10087395010</desc></polyline><polyline fill="none" points="114.5190823036246,179.0536866748589 115.1066007905174,178.69507592532318 115.40036003384739,178.61538461540476 117.49339464330114,178.77476722345455 118.41139227896929,179.0138410476502 118.6317117116414,179.13337792022503 119.10907048243098,179.49198837959557 119.43954963120632,179.89044416727847 120.1739477396477,181.24519165381207 120.54114679386839,182.75931718968786 121.01850556465797,183.55622366722673 121.23882499709725,184.1937480054621 121.75290367309935,185.34925895705237 122.12010272755288,186.54461252110195 122.6709013087675,187.50089347397443 122.92794064688496,187.77980843401747 123.2584197956603,188.33763792351237 123.44201932288706,189.53298489612644 123.55217903899029,189.85174364360864 123.8459382825531,190.2900366152171 123.91937809344381,190.96739778321353 124.02953780977987,191.24631095919176 125.64521364844404,195.0713914624066 125.86553308111615,195.23076923078042 125.86553308111615,195.0315470129135 125.53505393234082,194.71279131202027 125.16785487812012,193.83621216777829 124.8006558236666,193.0791654023633 123.80921837710775,190.0111229470349 123.47873922833242,189.33376058388967" stroke="#4dd2ff" stroke-linecap="round" stroke-linejoin="round" stroke-width="0.5"><title>2023-10-22 1.5km</title><desc>10080655811</desc></polyline><polyline fill="none" points="137.95290043600835,178.61538461537566 137.83891379786655,178.69784431537846 137.80091825174168,178.986453170015 138.3708514426835,179.39875127610867 137.34497169870883,179.2338320700219 138.94078463385813,181.2953186595114 139.0927668181248,181.79007431329228 138.978780179983,182.2023703578452 138.44684253493324,182.49097740883008 138.29486035066657,182.77958431115258 138.33285589679144,183.27433865517378 138.6368202653248,184.46999318461167 138.978780179983,185.33581039033015 139.3587356407661,186.65514832356712 140.0426554698497,187.85079564445186 140.15664210822433,188.30431637514266 140.57459311489947,189.04644041592837 140.84056193754077,189.3762730078015 140.87855748343281,189.58241827911115 141.1445263060741,189.82979250475182 141.33450403646566,190.24208263828768 141.60047285910696,191.0254330568423 141.86644168151543,191.56140902856714 141.82844613562338,192.63335943518905 142.32238823431544,193.58162154842285 142.47437041881494,194.03513764453237 142.7403392412234,194.52988205832662 143.19628579402342,195.10708332274226 143.42425907053985,195.23076923078042 142.55036151083186,193.99390892367228 142.36038378044032,193.3342489778588 141.98042831965722,192.5096729543584 141.82844613562338,191.97369788895594 141.33450403646566,191.2728066459531 140.9165530295577,190.07716662128223 140.84056193754077,189.1288985821593" stroke="#4dd2ff" stroke-linecap="round" stroke-linejoin="round" stroke-width="0.5"><title>2023-10-20 1.4km</title><desc>10069668027</desc></polyline><polyline fill="none" points="157.43449212401174,178.61538461540476 157.35831197956577,179.23537047379068 157.43449212401174,179.85535564849852 158.04393327841535,181.3433172776131 158.19629356707446,182.2526252232492 159.4532659482211,185.31119570010924 159.56753616477363,185.72451475841808 159.64371630898677,186.34449277620297 159.79607659764588,186.75781107490184 160.7102383293677,188.03909586946247 161.2054092674516,189.03105628548656 161.51012984476984,190.02301495114807 161.7767603499815,190.56032516428968 161.9291206386406,191.38695525864023 162.11957099940628,191.80026984997676 162.61474193749018,193.08154315213324 162.69092208170332,193.57751913036918 163.4146334528923,195.06544443956227 163.60508381365798,195.23076923078042 163.7193540299777,195.23076923078042 163.79553417419083,195.18943803748698 163.7574441023171,195.14810684119584 162.99564265902154,194.19748848769814 162.65283200959675,193.0402118008933 161.9291206386406,191.7176069559937 161.81485042208806,191.18029784894316 161.7386702776421,190.27100434413296 161.4339497005567,189.651030656707" stroke="#4dd2ff" stroke-linecap="round" stroke-linejoin="round" stroke-width="0.5"><title>2023-10-19 1.3km</title><desc>10064004415</desc></polyline><polyline fill="none" points="177.09225042862818,178.61538461537566 177.49520717840642,179.81781999743544 179.00629498949274,181.78543943422846 178.90555580239743,183.20649629691616 179.10703417705372,184.62755180161912 179.81220848904923,187.14172359765507 180.81960036279634,188.78139856585767 181.8269922370091,191.62349756073672 183.8417759859003,194.90283580403775 184.14399354811758,195.23076923075132 184.44621110986918,195.1214580964297 183.13660167343915,193.80972385965288 180.71886117570102,189.1093333425233 180.1144260512665,187.0324118688004 178.4018598650582,183.42512030899525 177.6966855530627,179.70850773027632" stroke="#4dd2ff" stroke-linecap="round" stroke-linejoin="round" stroke-width="0.5"><title>2023-10-18 1.0km</title><desc>10058081424</desc></polyline><polyline fill="none" points="16.187930725049227,198.78107385884505 17.36580369481817,200.48522263602354 18.151052341330796,205.06511254236102 20.212330038659275,210.49705621937755 21.586515170056373,213.37278286204673 22.175451654940844,213.69230769225396 22.46991989761591,213.69230769225396 22.666232058778405,213.26627456990536 21.979139493778348,212.414207948721 21.09573476621881,211.02959862106945 19.91786179598421,208.4733933082316 19.427081392146647,206.98227145976853 17.36580369481817,202.82842393196188 17.169491533190012,202.18936940899584 16.973179371561855,199.6331484981347 15.795306402258575,197.0769230768783" stroke="#4dd2ff" stroke-linecap="round" stroke-linejoin="round" stroke-width="0.5"><title>2023-10-17 1.0km</title><desc>10051702317</desc></polyline><polyline fill="none" points="36.24128926359117,199.01899072784 36.63901272136718,199.99002358946018 37.63332136487588,201.71630264632404 39.124784329906106,205.6004230992403 39.920231244992465,207.11091161018703 40.815109023824334,209.91610043437686 41.90884853200987,212.7212838968262 42.30657198932022,213.47652468213346 42.80372631084174,213.69230769225396 42.90315717551857,213.58441619121004 42.80372631084174,213.26074164023157 41.709986803121865,211.64236781513318 40.21852383809164,207.97404720413033 39.124784329906106,205.70831518713385 38.22990655107424,201.50051787507255 37.732752229087055,199.6663460403215 35.942996670957655,197.0769230768783" stroke="#4dd2ff" stroke-linecap="round" stroke-linejoin="round" stroke-width="0.5"><title>2023-10-16 1.0km</title><desc>10046279660</desc></polyline><polyline fill="none" points="56.612962767481804,198.70589061628561 57.51368932193145,200.00906335446052 57.914012235123664,200.87784454098437 58.31433514831588,202.83260034269188 59.21506170229986,205.87332644837443 60.41603044141084,207.71947852999438 61.81716063665226,212.93213077646215 62.317564277909696,213.47511432762258 63.01812937576324,213.69230769225396 63.11821010429412,213.47511432762258 63.01812937576324,212.82353404222522 61.71707990858704,210.97738833958283 61.0165148107335,208.80544926482253 60.21586898481473,207.50228428724222 58.31433514831588,203.04979527217802 57.613770050462335,200.00906335446052 56.11255912669003,197.0769230768783" stroke="#4dd2ff" stroke-linecap="round" stroke-linejoin="round" stroke-width="0.5"><title>2023-10-15 1.0km</title><desc>10039610121</desc></polyline><polyline fill="none" points="75.87326679844409,197.0769230768783 77.78731164103374,200.42309106816538 78.10631911456585,203.76925192552153 78.95700571127236,206.1923294721637 80.0203639571555,207.69232798321173 80.65837890468538,209.76924663211685 82.46608792245388,213.00000351166818 82.89143122034147,213.46153966605198 83.42311034398153,213.69230769225396 83.74211781704798,213.46153966605198 83.74211781704798,213.1153875628952 81.61540132574737,211.3846259030979 80.23303560633212,208.84617201634683 79.70135648362339,206.65386762830894 78.42532658856362,203.76925192552153 77.78731164103374,201.34617063810583 77.89364746585488,199.84616606147029 77.78731164103374,199.38462590344716 76.7239533951506,197.1923082987778" stroke="#4dd2ff" stroke-linecap="round" stroke-linejoin="round" stroke-width="0.5"><title>2023-10-14 1.0km</title><desc>10033377496</desc></polyline><polyline fill="none" points="96.52449956675991,198.2793584590545 97.33041271055117,200.13766577327624 99.14371728431433,202.32390669872984 99.34519557049498,203.963585283258 101.05776100093499,209.21054460247979 102.66958728898317,213.03644076676574 103.17328300373629,213.69230769225396 103.57623957563192,213.69230769225396 103.57623957563192,213.36437426588964 103.47550043277442,213.03644076676574 102.56884814566001,212.38057355210185 101.56145671615377,210.52228153927717 100.45332614332438,207.02431380318012 98.43854328338057,202.54253061441705 98.13632585434243,201.0121625290485 97.63263013958931,199.91904150368646 96.82671699579805,197.84210934175644 96.42376042390242,197.0769230768783" stroke="#4dd2ff" stroke-linecap="round" stroke-linejoin="round" stroke-width="0.5"><title>2023-10-13 1.0km</title><desc>10028006924</desc></polyline><polyline fill="none" points="116.57988582877442,197.0769230768783 117.22688675951213,198.36403653386515 118.30522164423019,199.76815911813173 118.95222257496789,200.93826032499783 119.06005606381223,202.45939060824458 118.95222257496789,204.09752928745002 120.13839094806463,206.5547341449419 121.54022629791871,210.29903901345097 122.94206164823845,212.87324350094423 123.26556211337447,213.34128023358062 123.8047295557335,213.69230769225396 123.8047295557335,213.1072618844919 122.61856118263677,211.5861417776905 121.54022629791871,209.71399195853155 120.13839094806463,205.8526760013774 119.27572304056957,204.3315489612287 118.84438908658922,203.04444033035543 118.62872210936621,201.05527039873414" stroke="#4dd2ff" stroke-linecap="round" stroke-linejoin="round" stroke-width="0.5"><title>2023-10-12 1.0km</title><desc>10021974100</desc></polyline><polyline fill="none" points="137.48227341193706,198.48869504826143 139.38380780816078,201.20363735419232 139.78413083869964,203.37558760645334 139.68405008129776,204.24436681333464 140.58477689977735,207.1764928632183 141.28534220345318,208.47965812822804 141.98590750759467,210.8687914616894 142.98671508394182,213.25792093097698 143.1868765996769,213.47511432738975 143.6872803880833,213.69230769225396 143.58719963021576,213.25792093097698 142.48631129600108,210.43440387025476 141.28534220345318,208.3710610665148 139.68405008129776,204.67875622480642 139.28372705029324,203.26699016976636 139.0835655350238,201.20363735419232 138.48308098874986,199.1402816568734 137.0819503813982,197.0769230768783" stroke="#4dd2ff" stroke-linecap="round" stroke-linejoin="round" stroke-width="0.5"><title>2023-10-10 1.0km</title><desc>10009069592</desc></polyline><polyline fill="none" points="157.40363890631124,198.7166074477136 158.61250906670466,200.6842263059225 159.3176833265461,202.65184256003704 160.0228575868532,205.275326848845 161.53394528711215,208.55467570014298 162.7428154470399,212.70850719569717 163.44798970688134,213.69230769225396 163.64946806710213,213.3643742656568 163.75020724721253,212.16195108287502 163.04503298690543,210.08503602212295 161.53394528711215,207.46156021999195 159.82137922663242,202.65184256003704 159.3176833265461,200.4656021167757 158.5117698861286,198.82591967482585 157.50437808642164,197.0769230768783" stroke="#4dd2ff" stroke-linecap="round" stroke-linejoin="round" stroke-width="0.5"><title>2023-10-09 1.0km</title><desc>10003389142</desc></polyline><polyline fill="none" points="177.62563475128263,198.2873215628788 178.33547901269048,199.49771906947717 179.04532327549532,200.37800755084027 179.75516753736883,202.0285470574163 180.16079283040017,205.3296206103405 181.6818876778707,208.63068688230123 183.00016987882555,212.37188652250916 183.6086078179069,213.47223757824395 184.1156394337304,213.69230769225396 184.1156394337304,212.81202704203315 182.1889192936942,209.731040688348 179.65376121457666,203.56904895463958 178.63969798246399,199.60775515821297 177.42282210476696,197.0769230768783" stroke="#4dd2ff" stroke-linecap="round" stroke-linejoin="round" stroke-width="0.5"><title>2023-10-08 1.0km</title><desc>9996447828</desc></polyline><polyline fill="none" points="16.118904035538435,216.82482065749355 16.4152721487917,217.68239277321845 17.798323347233236,220.14790979633108 18.292270203586668,221.9702457857784 19.774110772646964,225.9364985958673 20.268057629000396,227.65163160441443 21.848687569145113,231.61786896013655 22.342634425964206,232.15384615387302 22.44142379704863,231.72506441478617 22.44142379704863,231.29628254973795 20.564425743184984,227.97321881901007 19.67532140156254,226.04369446774945 18.094691460952163,221.32706863759086 17.60074460459873,218.8615536086727 17.008008376695216,217.14641026011668 16.020114664454013,215.53846153838094" stroke="#4dd2ff" stroke-linecap="round" stroke-linejoin="round" stroke-width="0.5"><title>2023-10-07 1.0km</title><desc>9989974159</desc></polyline><polyline fill="none" points="36.74341611377895,218.4461679549422 38.75316172093153,221.87309997587 39.51877909479663,224.3654089506017 40.0929921255447,225.61156178917736 41.241418186575174,230.4923164874781 41.52852470194921,231.4269271651283 42.10273773269728,232.15384615387302 42.58124859118834,232.15384615387302 42.77265293430537,231.73846392030828 42.67695076344535,231.4269271651283 41.52852470194921,229.7653966435464 40.38009864045307,227.2730971967103 39.99728995375335,225.61156178917736 37.98754434706643,220.73079022637103 37.7004378316924,218.96540061372798 37.12622480094433,217.51154868816957 36.073500911705196,215.53846153849736" stroke="#4dd2ff" stroke-linecap="round" stroke-linejoin="round" stroke-width="0.5"><title>2023-10-06 1.0km</title><desc>9984428862</desc></polyline><polyline fill="none" points="55.93340238137171,215.53846153849736 56.63473233068362,216.67998163157608 58.38805720442906,221.37288963340688 59.55694045312703,225.3047756983433 61.544041976332664,230.25132931023836 62.362260250374675,231.90017736307345 62.71292522503063,232.15384615387302 63.180478524882346,232.15384615387302 63.29736684914678,231.90017736307345 62.94670187449083,231.26600522128865 61.544041976332664,229.23665280279238 60.72582370182499,227.5878022046527 59.32316380320117,223.90959134639706 58.738722179085016,222.00706541130785 57.102285631000996,218.96301955112722 57.102285631000996,217.82150096900295 56.51784400595352,215.6652971416479" stroke="#4dd2ff" stroke-linecap="round" stroke-linejoin="round" stroke-width="0.5"><title>2023-10-04 1.0km</title><desc>9971682885</desc></polyline><polyline fill="none" points="77.076827687677,217.23175791895483 78.3447291185148,219.34837559377775 78.8323835148476,221.0416674928274 79.32003791071475,222.2058045178419 79.71016142843291,224.00492352293804 81.56324813421816,227.7089849829208 81.66077901376411,228.97894671792164 82.24596428917721,231.51886682689656 82.4410260473378,231.8363565254258 83.02621132321656,232.15384615387302 83.02621132321656,231.09554711997043 81.75830989331007,228.76728650659788 80.88053197972476,226.75651294644922 80.3928775829263,225.80404027970508 79.9052231865935,224.42824531521183 78.92991439439356,222.41746569413226 78.53979087714106,220.83000611432362 78.3447291185148,219.2425447840942 78.05213648080826,217.65508170309477 76.58917329180986,215.53846153849736" stroke="#4dd2ff" stroke-linecap="round" stroke-linejoin="round" stroke-width="0.5"><title>2023-10-03 1.0km</title><desc>9965060084</desc></polyline><polyline fill="none" points="96.38757733954117,215.53846153849736 98.43641407229006,218.58072803204414 99.73041621921584,222.79308742273133 99.9460832439363,224.6652435733704 100.70091782975942,225.6013208227232 101.24008539086208,227.005435664556 102.21058700094,230.63272660633083 102.96542158676311,231.80281869485043 103.50458914740011,232.15384615387302 103.61242265999317,232.0368370093638 103.28892212361097,231.10076354490593 102.1027534888126,228.8775868602097 100.1617502681911,224.19720474199858 98.97558163339272,220.68690912087914 98.75991460913792,217.99567723507062 97.78941299906,216.0065029161051" stroke="#4dd2ff" stroke-linecap="round" stroke-linejoin="round" stroke-width="0.5"><title>2023-10-02 1.0km</title><desc>9958643020</desc></polyline><polyline fill="none" points="116.81754565797746,217.17814590933267 118.73158979741856,220.8947571220342 118.93306812737137,221.87856441759504 121.14932976197451,227.12552566535305 122.25746057927608,230.51417829771526 122.86189557053149,231.71660156885628 123.46633056132123,232.15384615387302 123.56706972699612,232.04453501966782 123.46633056132123,231.60729040252045 121.45154725713655,228.54657448385842 119.53750311862677,223.84617705526762 118.63085063174367,221.0040690760361 118.2278939713724,218.4898921039421 116.81754565797746,215.53846153849736" stroke="#4dd2ff" stroke-linecap="round" stroke-linejoin="round" stroke-width="0.5"><title>2023-10-01 1.0km</title><desc>9952075403</desc></polyline><polyline fill="none" points="137.07383560342714,216.77339499245863 138.41883988957852,218.9064595156815 139.34999670321122,220.8149884052109 139.76384417526424,222.72351490950678 140.07422977965325,224.51977296976838 141.62615780252963,228.8981431396678 142.971162088681,231.70478408189956 143.59193329699337,232.15384615387302 143.79885703418404,231.81704961217474 141.7296196706593,228.67361164162867 140.7984628570266,226.54056076181587 140.4880772526376,225.4179012074601 139.03961109835654,222.2744500641711 138.21191615285352,218.79419303592294 137.48768307594582,216.6611283563543 136.97037373529747,215.53846153849736" stroke="#4dd2ff" stroke-linecap="round" stroke-linejoin="round" stroke-width="0.5"><title>2023-09-30 1.0km</title><desc>9945549317</desc></polyline><polyline fill="none" points="157.53473539464176,216.74886002438143 159.05582923581824,218.3994018365629 159.9684855407104,219.93990588583983 160.27270430885255,221.15030081220903 161.08395435707644,223.13094494387042 161.48957938188687,226.1019062269479 161.79379815002903,226.98218991886824 163.01067322306335,229.95314355718438 163.3148919912055,231.8237409706926 163.51770450361073,232.04381110088434 163.8219232717529,232.15384615387302 163.92332952748984,231.9337760397466 162.09801691863686,228.63272044621408 160.88114184560254,225.7717997089494 160.47551682125777,224.12126602674834 159.05582923581824,220.82019320235122 158.44739169906825,218.8395460123429 157.2305166264996,215.53846153849736" stroke="#4dd2ff" stroke-linecap="round" stroke-linejoin="round" stroke-width="0.5"><title>2023-09-28 1.0km</title><desc>9933629332</desc></polyline><polyline fill="none" points="177.01719488063827,215.53846153849736 178.7411032617092,219.2796900587855 179.5523542650044,222.14062320569064 181.07344989478588,224.23130166216288 182.0875136484392,227.9725084535312 183.5072029037401,230.50331950979307 183.9128284053877,231.9337760397466 184.31845390610397,232.15384615387302 184.52126665739343,231.82374097045977 184.31845390610397,231.3836006129859 183.5072029037401,230.28324915282428 181.17485627019778,225.55172865628265 179.95797976572067,222.25065898650791 178.63969688629732,217.6291492175078 178.0312586342916,216.63882383867167" stroke="#4dd2ff" stroke-linecap="round" stroke-linejoin="round" stroke-width="0.5"><title>2023-09-27 1.0km</title><desc>9927137811</desc></polyline><polyline fill="none" points="20.647915070992894,234.0 20.371398809365928,234.60011360555654 20.06031801516656,236.10039453045465 19.749237221083604,236.96305406405008 19.50728549226187,238.01324630971067 18.090139652020298,240.97627706095227 17.364284465787932,242.213993670739 17.22602633491624,242.73908465838758 17.295155400177464,243.151655769645 17.467978063737974,243.75175860835589 17.98644605395384,245.0269747968414 18.159268717397936,245.3645314895548 18.366655913647264,245.96463172510266 19.05794656719081,246.82727457702276 19.36902736139018,247.5023853565217 19.714672688394785,248.02747090079356 19.991188949905336,248.77759216923732 20.405963342171162,249.34018239669967 20.92443133238703,250.2028195404273 21.2355121265864,250.61538461537566" stroke="#4dd2ff" stroke-linecap="round" stroke-linejoin="round" stroke-width="0.5"><title>2023-09-26 1.0km</title><desc>9920397094</desc></polyline><polyline fill="none" points="39.67547482205555,234.0 39.00241375807673,236.00847671349766 38.41348532703705,237.97129995079013 37.824556895997375,239.0211795999785 37.277694781078026,239.70588276250055 36.983230565907434,240.2536447487655 36.8570316163823,240.80140625167405 36.89909793250263,241.4861074507353 37.109429515432566,242.03386786626652 37.61422531330027,242.80986096098786 37.824556895997375,243.58585308579495 38.24522006092593,244.59007674863096 39.044480074429885,245.5942987871822 40.39060220262036,248.33307790919207 41.27399484929629,249.51987844338873 41.989122229861096,250.61538461537566" stroke="#4dd2ff" stroke-linecap="round" stroke-linejoin="round" stroke-width="0.5"><title>2023-09-25 1.0km</title><desc>9914573673</desc></polyline><polyline fill="none" points="60.812236396595836,233.9999999999709 60.584264628821984,234.53598783386406 60.20431168237701,235.1132049280859 60.12832109304145,235.40181325236335 60.20431168237701,235.77288087960915 60.24230697704479,236.1439482612186 59.482401084154844,237.5457561535004 59.29242461081594,238.49403597577475 59.02645754837431,239.19493742237682 57.430655173026025,241.99853444757173 57.392659878358245,242.32836846998543 57.544641056796536,242.9880359331728 57.96258929814212,243.6477026202483 58.19056106591597,244.22491033480037 58.532518717693165,244.80211745519773 58.72249519103207,245.3793239814404 59.21643402148038,246.16267474542838 59.596386967925355,246.94602441511233 60.01433520927094,247.39954214473255 60.12832109304145,247.81183067156235 60.39428815548308,248.14166127471253 60.96421757549979,249.13115192050464 61.38216581637971,249.58466788294027 61.49615170038305,249.99695480332593 61.838109352393076,250.61538461537566" stroke="#4dd2ff" stroke-linecap="round" stroke-linejoin="round" stroke-width="0.5"><title>2023-09-24 1.0km</title><desc>9907510217</desc></polyline><polyline fill="none" points="80.38087361026555,234.0 79.88957535102963,235.59936170827132 79.60298469988629,236.0436280981521 79.39827709202655,236.4878941613133 79.27545252721757,237.06543955515372 79.23451100545935,237.82069039088674 78.53850513836369,238.7536460023839 78.1290899226442,239.81987922283588 77.76061622845009,240.3529951274395 77.51496709883213,241.06381560198497 77.47402557707392,241.8190614398336 78.33379753050394,243.9959412201424 78.66132970317267,244.66233142180135 79.72580926469527,246.35051664331695 80.17616600217298,247.46116224321304 80.74934730445966,248.17197435570415 81.07687947712839,248.7495085815317 81.28158708522096,249.3270422553178 82.14135903841816,250.61538461537566" stroke="#4dd2ff" stroke-linecap="round" stroke-linejoin="round" stroke-width="0.5"><title>2023-09-23 1.0km</title><desc>9901004991</desc></polyline><polyline fill="none" points="100.5602002767846,234.0 100.26972605916671,235.03566045319894 99.97925184178166,235.57600434223423 99.68877762416378,236.52160500071477 99.02483655535616,237.91748901846586 98.36089548678137,238.86308606143575 97.7799470515456,240.4390778883826 97.73845073464327,241.294614610204 97.82144336868078,241.78992479777662 98.65136970416643,243.77116154169198 98.77585865464061,244.35652571672108 98.94184392178431,244.67172157915775 99.52279235678725,245.39216865581693 99.97925184178166,246.29272630956257 100.35271869273856,247.2383104210021 100.97516344464384,248.13886536023347 101.68060083012097,249.62477811501594 102.26154926535673,250.61538461537566" stroke="#4dd2ff" stroke-linecap="round" stroke-linejoin="round" stroke-width="0.5"><title>2023-09-22 1.0km</title><desc>9895405405</desc></polyline><polyline fill="none" points="121.13106223428622,234.0 120.79728284152225,234.45274121768307 120.67211556923576,234.90548210247653 120.42178102489561,235.17712647351436 119.87938951142132,236.1731548086973 119.67077739117667,236.89753804041538 119.04494102997705,238.4821233887924 118.37738224468194,239.84033615596127 117.96015800372697,240.8363569478388 117.83499073144048,241.33436673949473 117.83499073144048,241.65128185180947 117.96015800372697,242.1040174435475 118.21049254829995,242.5567527025123 118.75288406154141,243.96022988960613 119.2952755743172,244.95624401717214 119.58733254298568,245.6806169162155 120.1297240559943,246.58608184178593 120.46350344875827,246.99354062398197 120.71383799309842,247.71791112649953 121.38139677862637,248.8950113756 122.13240041187964,249.80047157465015 122.54962465306744,250.61538461537566" stroke="#4dd2ff" stroke-linecap="round" stroke-linejoin="round" stroke-width="0.5"><title>2023-09-21 1.0km</title><desc>9889267953</desc></polyline><polyline fill="none" points="141.7836083401926,233.9999999999709 141.8758496339433,234.20018897787668 141.7836083401926,235.53477990668034 141.26090767548885,237.10291923192563 140.95343669631984,238.3374080795911 140.4614831294166,239.3717069606937 139.87728826887906,241.10665462817997 138.8626340373885,243.00841656589182 138.58591015613638,244.0427047998819 138.61665725393686,244.27625342967804 138.80113984143827,244.7767143744568 139.20085211459082,245.64417870459147 139.44682889792603,246.37818568872171 140.06177085649688,247.24564695739537 140.4307360316161,247.94628754086443 140.645965716918,248.44674443814438 140.8919425002532,248.88047330267727 141.29165477340575,249.1807468891202 141.7836083401926,249.91474815289257 141.8143554381095,250.04820280053536 141.9988380257273,250.1816574089753 142.15257351531181,250.4152028792887 142.18332061322872,250.61538461537566" stroke="#4dd2ff" stroke-linecap="round" stroke-linejoin="round" stroke-width="0.5"><title>2023-09-20 1.0km</title><desc>9882714971</desc></polyline><polyline fill="none" points="161.7933043000521,233.9999999999709 161.57864879013505,234.8928961128113 161.25666552525945,235.70814776662155 160.64847491355613,237.49393270441215 160.612698995159,238.07625257381005 160.39804348512553,238.38682290821453 160.14761205692776,238.96914179279702 160.0045083834557,239.51263883899082 159.7183010368608,240.25024107808713 158.895454915124,241.57015830260934 158.6807994050905,242.34657865800546 158.6092475685291,243.04535600170493 158.6807994050905,243.74413242045557 158.895454915124,244.52054957897053 159.14588634332176,245.06404091065633 159.93295654677786,246.4227667922387 160.32649164856412,246.96625616578967 160.68425083172042,247.93677151302109 161.04201001522597,248.55790039902786 161.39976919838227,249.06256708092405 161.7933043000521,249.45077189267613 162.04373572848272,249.99425814955612 162.5445985852275,250.61538461537566" stroke="#4dd2ff" stroke-linecap="round" stroke-linejoin="round" stroke-width="0.5"><title>2023-09-19 1.0km</title><desc>9876194288</desc></polyline><polyline fill="none" points="180.76923076924868,234.0 180.41519255610183,235.0084602482384 180.1496638962999,235.44065702077933 179.70711613004096,236.30504970799666 179.57435180014,236.8813108637696 178.77776582026854,238.27393989113625 178.15819894731976,239.57052286795806 178.0254346174188,240.0507381321513 178.06968939420767,240.5789745146758 178.33521805424243,241.25127474759938 178.7335110437125,241.97159565764014 179.08754925709218,242.98004359711194 179.57435180014,244.0365111969877 180.10540911974385,244.99693480494898 180.59221166279167,245.62120939284796 181.16752375895157,246.58163067052374 181.52156197209843,247.68611339398194 182.14112884528004,248.6465316354297 182.450912281638,249.51090684527298 183.02622437803075,250.03913557704072 183.51302692107856,250.61538461537566" stroke="#4dd2ff" stroke-linecap="round" stroke-linejoin="round" stroke-width="0.5"><title>2023-09-18 1.0km</title><desc>9870505463</desc></polyline><polyline fill="none" points="19.714773737825453,252.46153846156085 19.67077332828194,252.6525223091594 19.23076923098415,253.12998168257764 19.010767182102427,253.55969481845386 18.702764314133674,254.99206988420337 18.30676062661223,255.66051050031092 18.13075898750685,256.1857133586891 17.162749973591417,257.7613193853758 16.81074669584632,258.6207392431097 16.590744647197425,259.3846670505591 16.766746286069974,259.90986689692363 17.73475529998541,262.0106620346196 18.21875980705954,262.7745858542621 18.57076308480464,263.586253927846 19.14276841143146,264.35017589404015 19.450771279633045,264.87537172442535 19.846774967154488,266.11674199881963 21.562790946569294,268.4562410657527 21.870793814538047,269.0769230769365" stroke="#4dd2ff" stroke-linecap="round" stroke-linejoin="round" stroke-width="0.5"><title>2023-09-16 1.0km</title><desc>9856514700</desc></polyline><polyline fill="none" points="39.48965151235461,252.46153846156085 38.91267173853703,253.76188811159227 38.4688411434181,255.1103961330955 37.89186136960052,256.02545356651535 36.69351876270957,258.3371719144634 36.64913570322096,258.8669395535835 36.69351876270957,259.49302802904276 36.95981711987406,260.11911590606906 37.403647714992985,260.79336371982936 37.8030952506233,261.7084132140735 38.51322420290671,262.91242375894217 39.40088539337739,264.5980348039302 39.48965151235461,265.2241178015829 39.80033292877488,265.46491879521636 40.155397405149415,265.9465205168235 40.73237717873417,266.9097228979226 41.35374001180753,267.4394836038118 41.48688919027336,267.77660382993054 41.57565530948341,268.2100438657799 42.19701814255677,269.0769230769365" stroke="#4dd2ff" stroke-linecap="round" stroke-linejoin="round" stroke-width="0.5"><title>2023-09-15 1.0km</title><desc>9850671982</desc></polyline><polyline fill="none" points="59.99925447138958,252.46153846156085 59.78599344054237,252.7855195129523 59.44477579090744,254.03515914891614 58.76234049163759,255.84018979861867 57.994600780075416,256.95097531791544 57.65338313067332,257.5526499891421 57.14155665645376,258.8485627123737 57.01360003766604,259.31138803833164 57.01360003766604,259.68164805392735 57.14155665645376,260.1444727673661 57.65338313067332,261.5329448659322 58.12255739886314,262.45859123021364 59.27416696608998,264.4487263042247 59.743341234046966,265.328086309426 59.82864564633928,265.8371889088885 60.16986329597421,266.16116307588527 60.724341976456344,267.04052068892634 61.19351624464616,267.4570580769214 62.21716919308528,269.0769230769365" stroke="#4dd2ff" stroke-linecap="round" stroke-linejoin="round" stroke-width="0.5"><title>2023-09-14 1.0km</title><desc>9844236351</desc></polyline><polyline fill="none" points="76.99861499876715,252.62092106955242 77.03533496335149,252.66076671428164 77.03533496335149,252.89984052084037 77.36581464693882,253.01937738453853 77.65957436547615,253.25845103294705 77.76973425992765,253.49752457582508 77.84317418956198,254.0155168901838 78.06349397846498,254.4538176926435 78.21037383796647,255.6890271375305 78.21037383796647,256.2867081161821 78.13693390809931,256.60547103526187 78.21037383796647,257.0039244205109 78.39397366181947,257.4820680960838 78.32053373241797,257.8805208367412 78.35725369723514,258.0797470972175 78.7244533454068,258.7571158350329 79.0549330287613,259.75324479382834 79.34869274729863,260.31107621101546 79.71589239570312,260.8290620127518 80.11981200869195,261.187667277758 80.22997190314345,261.42673732264666 80.34013179759495,261.9447220580769 80.63389151636511,262.46270629845094 80.96437119971961,263.41898359535844 81.40501077729277,264.2557248460653 81.6253305664286,264.9729306041554 81.7354904608801,265.5706013441086 81.9558102497831,266.0487374616787 82.35972986277193,267.36360960968887 82.91052933526225,268.39956723724026 82.94724930031225,268.55894515800173 82.91052933526225,268.678478567861 82.46988975745626,269.0769230769365 82.69020954635926,268.9175453084463 82.80036944081075,268.678478567861 82.87380937044509,268.4792562035145 82.83708940562792,268.20034477033187 82.61676961672492,267.9214331936091 81.9558102497831,266.4870285320503 81.6253305664286,265.41122254455695 80.92765123490244,263.8572767924925 80.59717155131511,262.3431715177139 80.41357172722928,261.9048770960653 79.71589239570312,260.9884421598399 79.01821306394413,259.6735545445117 78.6877333803568,258.59773503174074 78.57757348637097,257.8805208367412 78.28381376736797,257.1234603789926 77.69629433029331,255.84840879630065 77.54941447102465,255.2507273342053 77.03533496335149,254.29443562368397 76.92517506889999,253.77644357588724 76.88845510408282,253.13891422192683 76.66813531517982,252.46153846156085" stroke="#4dd2ff" stroke-linecap="round" stroke-linejoin="round" stroke-width="0.5"><title>2023-09-13 1.0km</title><desc>9837636972</desc></polyline></svg>