<?xml version="1.0" encoding="utf-8" ?>
<svg baseProfile="full" height="300mm" version="1.1" viewBox="0,0,200,300" width="200mm" xmlns="http://www.w3.org/2000/svg" xmlns:ev="http://www.w3.org/2001/xml-events" xmlns:xlink="http://www.w3.org/1999/xlink"><defs /><rect fill="#222222" height="300" width="200" x="0" y="0" /><text fill="#FFFFFF" style="font-size:12px; font-family:Arial; font-weight:bold;" x="10" y="20">Over 1km Runs</text><text fill="#FFFFFF" style="font-size:4px; font-family:Arial" x="10" y="280">ATHLETE</text><text fill="#FFFFFF" style="font-size:9px; font-family:Arial" x="10" y="290">Jiakai</text><text fill="#FFFFFF" style="font-size:4px; font-family:Arial" x="120" y="280">STATISTICS</text><text fill="#FFFFFF" style="font-size:3px; font-family:Arial" x="120" y="285">Number: 111</text><text fill="#FFFFFF" style="font-size:3px; font-family:Arial" x="120" y="290">Weekly: 5.3</text><text fill="#FFFFFF" style="font-size:3px; font-family:Arial" x="141" y="285">Total: 114.7 km</text><text fill="#FFFFFF" style="font-size:3px; font-family:Arial" x="141" y="290">Avg: 1.0 km</text><text fill="#FFFFFF" style="font-size:3px; font-family:Arial" x="167" y="285">Min: 1.0 km</text><text fill="#FFFFFF" style="font-size:3px; font-family:Arial" x="167" y="290">Max: 1.5 km</text><polyline fill="none" points="10.923076923005283,32.772515885182656 11.667049368377775,33.93859502079431 12.576349023729563,37.257429538527504 13.733639494515955,40.127765625016764 13.898966704960912,41.29383773112204 14.890929965302348,43.446583306998946 15.138920780271292,44.1641643216135 15.552238805685192,44.881744914338924 16.54420206649229,45.59932508470956 17.28817451186478,45.689022576552816 19.272101033013314,45.41993008181453 21.752009184565395,44.61265224148519 24.727898966521025,43.35688565066084 26.463834672700614,42.459908723132685 27.3731343280524,41.74232670618221 27.53846153849736,41.47323334089015 27.53846153849736,41.114442095160484 27.207807118073106,40.307161406381056" stroke="#4dd2ff" stroke-linecap="round" stroke-linejoin="round" stroke-width="0.5"><title>2024-03-17 1.0km</title><desc>10975003116</desc></polyline><polyline fill="none" points="31.115384615492076,32.843508695834316 31.950328566133976,33.84010730055161 32.28430614620447,34.474305993062444 33.28623888688162,37.28289627924096 33.7037108624354,39.27608550270088 34.78913799813017,42.26586329273414 34.95612678816542,43.26245427771937 35.54058755328879,44.44024258421268 36.04155392339453,45.07443582173437 36.62601468944922,45.52743079152424 37.29396984959021,45.618029765668325 38.29590259026736,45.618029765668325 39.882296096067876,45.255633829627186 40.8007344417274,44.89323778718244 42.05315036745742,44.71203972620424 44.14051024382934,43.89664812118281 46.06088133016601,42.99065681628417 47.563780440948904,41.99406561162323 47.73076923098415,41.722267870558426 47.48028604593128,40.725675640045665" stroke="#4dd2ff" stroke-linecap="round" stroke-linejoin="round" stroke-width="0.5"><title>2024-03-16 1.0km</title><desc>10967572329</desc></polyline><polyline fill="none" points="51.30769230751321,32.6623074010713 51.97564746858552,33.6589065187145 52.14263625862077,34.655504830298014 52.39311944367364,35.3803030961426 53.39505218435079,36.920497995684855 53.562040974386036,37.37349612941034 53.562040974386036,38.00769323646091 54.73096250509843,40.09148143371567 55.14843448018655,42.44706384849269 55.816389640793204,44.44024545175489 56.1503672208637,45.165037962957285 56.56783919595182,45.527434058487415 58.07073830720037,45.79923106043134 59.65713181300089,45.61803306569345 62.495941244997084,44.80264176055789 65.41824507154524,43.62485336721875 66.25318902218714,43.262456712080166 67.75608813297004,42.265865360968746 67.92307692300528,41.72226973879151 67.67259373841807,40.816276502329856" stroke="#4dd2ff" stroke-linecap="round" stroke-linejoin="round" stroke-width="0.5"><title>2024-03-12 1.0km</title><desc>10939588558</desc></polyline><polyline fill="none" points="82.80791638651863,32.3825436278712 81.77335635945201,31.484410436241888 80.94570833770558,31.259877055650577 79.60078030219302,31.14761035318952 78.15239626402035,31.596677114022896 76.80746822897345,32.3825436278712 76.29018821520731,33.05614317476284 75.87636420410126,33.72974242444616 75.66945219878107,35.41373924841173 75.66945219878107,37.32226673618425 75.56599619612098,41.58837837446481 75.77290820144117,44.50728999450803 76.08327620942146,45.742212461074814 77.42820424539968,46.97713392879814 79.18695629155263,47.53846153849736 81.15262034302577,47.20166499749757 82.49754837853834,46.52807169267908 83.42865240294486,45.62994682381395 84.0493884193711,43.833695500623435 84.0493884193711,38.781727322610095 83.84247641358525,36.1996037971694 84.0493884193711,34.627874295110814 83.73902041092515,33.392942836973816 83.11828439496458,32.27027700794861 81.9802683647722,31.484410436241888 79.80769230797887,30.923076923121698 78.3593082698062,31.37214374996256 77.01438023382798,32.27027700794861 76.29018821520731,33.28067629085854 75.66945219878107,34.627874295110814 75.66945219878107,38.55719501536805" stroke="#4dd2ff" stroke-linecap="round" stroke-linejoin="round" stroke-width="0.5"><title>2024-03-11 1.0km</title><desc>10935364964</desc></polyline><polyline fill="none" points="91.69230769248679,33.52469286730047 92.04582651425153,35.15500651253387 91.86906710360199,35.82631153881084 92.04582651425153,36.9771193517372 93.19476268440485,40.429536698618904 93.45990180037916,41.10083901043981 93.90180032746866,41.676240717293695 94.52045826520771,43.306544174440205 95.31587561406195,44.07374509656802 95.934533551801,44.45734538824763 98.40916530322284,44.93684559420217 99.46972176758572,44.745045533170924 101.06055646529421,44.745045533170924 103.35842880560085,44.07374509656802 106.27495908364654,42.82704336917959 107.07037643250078,42.25164217001293 108.13093289732933,41.77214097708929 108.30769230797887,41.48444017674774 107.95417348667979,39.56643321865704 107.42389525426552,38.511528189410456" stroke="#4dd2ff" stroke-linecap="round" stroke-linejoin="round" stroke-width="0.5"><title>2024-03-08 1.0km</title><desc>10912839308</desc></polyline><polyline fill="none" points="111.88461538450792,32.91594249056652 112.47500976128504,34.38025670754723 113.31843030080199,36.02760814258363 116.60777040198445,44.81344564491883 117.11382272513583,45.36255842994433 118.71632174914703,45.545595971052535 121.33092541946098,45.088002067641355 123.8611870361492,44.35585147223901 127.57223740732297,42.61699208256323 128.24697383865714,41.88484003371559 128.5,41.06116846448276 128.4156579459086,40.6950920362724 127.57223740732297,39.50534290180076" stroke="#4dd2ff" stroke-linecap="round" stroke-linejoin="round" stroke-width="0.5"><title>2024-03-07 1.0km</title><desc>10906173208</desc></polyline><polyline fill="none" points="132.07692307699472,33.021702546509914 132.8398744110018,34.217528159730136 133.0941915223375,36.977121366537176 133.77237048652023,39.09280536987353 136.14599686022848,44.42799262306653 136.40031397156417,44.8879214937333 137.07849293528125,45.255864468286745 138.01098901079968,45.43983591499273 138.68916797451675,45.43983591499273 139.53689167974517,45.16387873457279 140.7237048665993,45.07189299433958 142.75824175821617,44.703949965536594 146.65777080040425,43.140190886100754 148.09890109859407,42.31231764110271 148.6923076924868,41.76040184008889 148.6923076924868,41.300471819820814 148.26844583963975,40.47259735758416" stroke="#4dd2ff" stroke-linecap="round" stroke-linejoin="round" stroke-width="0.5"><title>2024-03-06 1.0km</title><desc>10898894581</desc></polyline><polyline fill="none" points="152.26923076901585,33.20590557088144 152.93718592915684,34.021304369554855 153.02068032417446,34.29310384916607 153.35465790424496,35.38030116795562 154.18960185488686,39.54788200522307 154.69056822545826,40.45387597428635 155.5255121756345,42.809457176947035 156.61093931132928,44.25904337107204 156.94491689139977,44.893236795207486 157.52937765745446,45.165033876663074 158.78179358271882,45.255632890737616 162.37205256987363,44.98383582907263 164.12543486617506,44.25904337107204 164.96037881681696,43.806047868565656 167.38171627325937,42.990655544330366 167.9661770388484,42.35646114137489 168.55063780397177,42.175262680626474 168.88461538404226,41.72226641199086 168.46714340895414,40.45387597428635 167.71569385332987,39.00428530375939" stroke="#4dd2ff" stroke-linecap="round" stroke-linejoin="round" stroke-width="0.5"><title>2024-03-05 1.0km</title><desc>10891326638</desc></polyline><polyline fill="none" points="184.52891633938998,46.106922232720535 185.3778775969986,45.975322219659574 187.98540145996958,44.790921231673565 188.95564289740287,43.9355195434764 189.07692307699472,43.40911809820682 188.65244244830683,42.093113130598795 188.16732172947377,40.84290661907289 187.19708029204048,39.46109739039093 186.71195957344025,39.00049384002341 185.25659741740674,36.631671836890746 183.61931499186903,34.460246159520466 183.74059517122805,33.86803824210074 183.61931499186903,33.6048345976742 182.83099382393993,32.354616228782106 180.1628298710566,32.55201924522407 179.25322852330282,32.88102417590562 177.67658618744463,33.078427076281514 175.97866367199458,33.80223733832827 174.82650196528994,34.591847865551244 173.73498034803197,34.85505121992901 173.1892195395194,35.24985610618023 172.7647389108315,35.31565690372372 172.58281864132732,35.513059267017525 172.46153846150264,35.90786386298714 172.64345873100683,36.23686756013194 172.70409882091917,36.96067526767729 173.0072992700152,37.94768483476946 172.88601909042336,39.13209487858694 173.24985962943174,39.987501157680526 173.1892195395194,41.17190850194311 173.61370016867295,43.277517688518856" stroke="#4dd2ff" stroke-linecap="round" stroke-linejoin="round" stroke-width="0.5"><title>2024-03-04 1.0km</title><desc>10884866628</desc></polyline><polyline fill="none" points="10.923076923005283,51.35527794808149 11.498857578262687,52.33707601646893 11.663366336841136,53.5866360461805 12.07463823305443,54.925448936759494 12.07463823305443,55.46097367932089 12.485910129733384,56.532022456172854 12.897182026412338,58.138593849609606 13.966488956473768,60.7269544005394 15.529322163201869,63.136802366701886 16.43412033561617,63.85083047498483 17.421172886621207,64.02933743654285 19.806549885775894,63.76157698442694 23.096725057344884,63.0475488237571 24.08377760881558,62.33352024271153 25.48210205649957,61.70874489005655 27.37395278038457,60.54844695352949 27.53846153849736,59.8344169028569 27.20944402180612,59.120386432507075" stroke="#4dd2ff" stroke-linecap="round" stroke-linejoin="round" stroke-width="0.5"><title>2024-03-03 1.0km</title><desc>10877188327</desc></polyline><polyline fill="none" points="31.115384615492076,60.99036835809238 32.6350844274275,64.28839962091297 33.850844277534634,65.38774175883736 34.863977485802025,65.82747838797513 35.37054409040138,65.82747838797513 37.49812382692471,65.60761008947156 41.75328330229968,64.50826811336447 45.80581613490358,62.85925363365095 47.52814258914441,61.54004074039403 47.73076923098415,61.32017181185074 47.52814258914441,60.11089212622028 46.9202626645565,58.57180747576058 43.576923076529056,52.85519347595982 42.05722326459363,49.55713699653279" stroke="#4dd2ff" stroke-linecap="round" stroke-linejoin="round" stroke-width="0.5"><title>2024-03-02 1.0km</title><desc>10870189784</desc></polyline><polyline fill="none" points="58.7453632093966,49.384615384507924 59.96339317783713,51.27273810002953 60.3984038811177,52.31120441004168 60.5724081620574,52.97204617015086 60.65941030299291,54.482540344586596 63.443478803150356,61.0909314667806 64.05249378737062,62.884631760651246 64.05249378737062,63.16784736758564 63.617483084090054,63.54546807927545 62.22544883424416,64.30070916994009 60.22439959971234,64.77273462607991 57.962343943305314,65.71678501786664 56.74431397486478,66.0 56.39630541205406,65.81119001889601 55.961294708773494,64.111898938776 55.17827544314787,62.12938983691856" stroke="#4dd2ff" stroke-linecap="round" stroke-linejoin="round" stroke-width="0.5"><title>2024-01-19 1.0km</title><desc>10585384707</desc></polyline><polyline fill="none" points="76.72533460659906,51.32668303558603 77.22248907433823,52.51350089034531 77.32191996835172,54.131887327414006 77.52078175544739,54.887133720563725 79.40996873332188,58.23179164726753 80.30484677571803,60.28173951175995 80.80200124392286,62.00800917670131 81.69687928585336,63.73427681135945 81.79631017986685,65.35265087452717 82.39289554161951,65.89210849907249 82.69118822226301,66.0 83.08891179598868,65.89210849907249 82.98948090290651,65.46054241538513 82.39289554161951,64.48951826279517 79.50939962733537,57.90811540686991 77.71964354207739,54.239779693307355 76.92419639369473,50.57143480994273 76.52647281903774,49.384615384507924" stroke="#4dd2ff" stroke-linecap="round" stroke-linejoin="round" stroke-width="0.5"><title>2024-01-17 1.0km</title><desc>10572816563</desc></polyline><polyline fill="none" points="97.36343520972878,50.815086217131466 98.07327957637608,51.915447465726174 98.88453028118238,55.10649051191285 100.60843802848831,60.71830833144486 101.82531408546492,63.02905072970316 102.53515845211223,65.22975445876364 103.04219014244154,65.88996494677849 103.34640915691853,66.0 103.34640915691853,65.55985973926727 101.21687605697662,61.048414606601 99.2901556333527,56.096812832634896 98.07327957637608,53.67602378083393 96.65359084308147,49.38461538462434" stroke="#4dd2ff" stroke-linecap="round" stroke-linejoin="round" stroke-width="0.5"><title>2024-01-16 1.0km</title><desc>10566280205</desc></polyline><polyline fill="none" points="117.4579585203901,50.463542174664326 117.85568203683943,51.97403834806755 119.34714522073045,55.10291833279189 120.54031576868147,59.202819939819165 121.93234807392582,62.00800917646848 123.12551862187684,65.46054241480306 123.42381125874817,66.0 123.62267301650718,66.0 120.6397466477938,59.85017177811824 119.94373049447313,57.69233120675199 119.44657609984279,55.7502719797194 118.75055994745344,54.347672050702386 118.05454379459843,51.65036072744988 116.76194236800075,49.384615384507924" stroke="#4dd2ff" stroke-linecap="round" stroke-linejoin="round" stroke-width="0.5"><title>2024-01-09 1.0km</title><desc>10520988068</desc></polyline><polyline fill="none" points="137.63624350493774,51.088766166591085 138.42149261385202,53.00593340001069 138.91227330639958,55.02960717200767 139.89383469196036,57.15978703601286 141.6606451855041,62.591731511754915 143.0348311252892,65.68047517014202 143.3292995407246,66.0 143.52561181830242,65.78698345448356 143.23114340286702,64.61539189389441 142.7403627098538,63.86983313434757 141.26802063174546,60.03552488365676 139.89383469196036,57.15978703601286 138.71596102928743,51.83433150337078 137.2436189511791,49.38461538462434" stroke="#4dd2ff" stroke-linecap="round" stroke-linejoin="round" stroke-width="0.5"><title>2024-01-07 1.0km</title><desc>10508221625</desc></polyline><polyline fill="none" points="158.31029119342566,50.696363025694154 159.92211831035092,55.615406373748556 160.1235967008397,56.708524907939136 161.0302494536154,59.00407121353783 161.83616301277652,61.73685981333256 163.4479901297018,65.67206657340284 163.85094690928236,66.0 163.85094690928236,65.23482189211063 162.94429415557534,63.70446449553128 162.44059818144888,62.06479410768952 160.42581428494304,57.801642638165504 159.72063992125914,55.94334201852325 159.21694394713268,55.06884680571966 158.31029119342566,51.242924201651476 157.30289924517274,49.38461538462434" stroke="#4dd2ff" stroke-linecap="round" stroke-linejoin="round" stroke-width="0.5"><title>2024-01-06 1.0km</title><desc>10501510624</desc></polyline><polyline fill="none" points="177.72639047447592,51.088766166591085 177.92270275158808,51.72782219282817 179.10057641379535,53.53847940382548 179.88582552224398,55.4556433953112 180.47476235358045,57.90534924820531 181.45632373914123,61.100611526868306 182.53604126302525,63.44379938556813 183.22313423315063,65.14793362957425 183.61575878737494,65.78698345448356 184.00838334159926,66.0 183.91022720281035,65.25444195338059 183.4194465102628,64.08284996193834 180.18029393814504,57.90534924820531 179.59135710680857,56.094697495456785 179.39504482969642,54.39055260200985 178.7079518600367,52.57989645632915 178.21717116702348,50.769238047651015 177.53007819736376,49.38461538462434" stroke="#4dd2ff" stroke-linecap="round" stroke-linejoin="round" stroke-width="0.5"><title>2024-01-05 1.0km</title><desc>10495609202</desc></polyline><polyline fill="none" points="16.198127422016114,69.46454373339657 16.39698917977512,70.54346933367196 16.993574453517795,71.9460714282468 17.4907288486138,73.45656449219678 18.186745001003146,74.85916380234994 19.479346428066492,78.5274941221578 21.070240491535515,82.19581527262926 21.66682576527819,84.13786393415648 22.06454928126186,84.46153846150264 22.263411039020866,83.9220808763057 22.163980159908533,83.16683992452454 19.77763906493783,78.31171023962088 18.98219203343615,75.50651687814388 18.186745001003146,70.97503935196437 16.993574453517795,67.84615384601057" stroke="#4dd2ff" stroke-linecap="round" stroke-linejoin="round" stroke-width="0.5"><title>2024-01-04 1.0km</title><desc>10489071805</desc></polyline><polyline fill="none" points="36.837874069809914,70.32768427708652 37.83218285953626,72.48553341522347 39.124784286133945,76.04597755637951 40.71567834960297,79.60641305928584 41.51112538157031,82.62738186365459 42.20714153442532,84.46153846150264 42.30657241353765,84.46153846150264 42.30657241353765,83.70629778678995 41.80941801844165,81.87214024562854 40.8151092287153,79.60641305928584 40.01966219674796,77.34068237512838 38.727060770150274,74.75127159547992 37.93161373864859,72.37764103373047 37.43445934355259,70.86714685917832 37.73275198042393,69.78822149685584 36.539581432938576,67.84615384601057" stroke="#4dd2ff" stroke-linecap="round" stroke-linejoin="round" stroke-width="0.5"><title>2024-01-03 1.0km</title><desc>10482519748</desc></polyline><polyline fill="none" points="56.7184510291554,70.09148665610701 57.339222511742264,71.10188534331974 59.71884652925655,78.06239146809094 62.201932460069656,84.01247638976201 62.71924202889204,84.46153846150264 62.82270394312218,84.01247638976201 62.51231820182875,83.22661744547077 59.925770356785506,78.28692339535337 58.994613132439554,75.81707037833985 57.649608253035694,70.87735235947184 56.40806528739631,67.84615384612698" stroke="#4dd2ff" stroke-linecap="round" stroke-linejoin="round" stroke-width="0.5"><title>2024-01-01 1.0km</title><desc>10470902913</desc></polyline><polyline fill="none" points="86.93715023668483,71.48078593728133 85.59738633036613,71.5846324309241 85.40599148673937,71.89617186621763 83.39634562749416,73.35002165520564 82.53506883094087,74.2846385864541 81.96088430006057,75.3231011176249 81.57809461234137,75.84233209688682 81.29100234666839,75.94617826968897 80.04693586286157,75.94617826968897 78.89856680063531,76.36156288522761 77.36740805068985,76.25771674257703 76.60182867571712,75.94617826968897 76.12334156641737,75.2192548988387 75.83624930074438,74.59617742605042 75.74055187916383,73.14232891984284 75.45345961302519,72.51925053063314 74.30509055126458,72.51925053063314 73.34811633266509,72.83078975975513 73.25241891061887,72.93463615397923 73.6352085978724,73.14232891984284 73.82660344149917,72.93463615397923 73.15672148903832,72.93463615397923 72.96532664494589,72.7269433576148 72.77393180131912,72.00001832924318 72.67823437927291,70.75386026746128 73.15672148903832,70.8577068146551 73.53951117675751,71.6884789171163 74.4007879733108,72.62309694779105 75.07066992623731,72.62309694779105 75.64485445758328,72.20771123282611 76.12334156641737,72.31155767280143 76.21903898846358,72.10386478481814 75.3577621919103,69.61154774471652 75.16636734781787,69.50770110578742 74.11369570717216,69.40385445952415 73.0610240669921,69.50770110578742 73.73090602038428,69.50770110578742 72.77393180131912,68.4692342976341 72.67823437927291,67.84615384601057 72.96532664494589,68.26154084445443 73.25241891061887,69.61154774471652 73.53951117675751,70.23462741705589 73.82660344149917,71.5846324309241 73.25241891061887,75.11540867225267 73.92230086354539,78.33463813934941 74.49648539489135,79.26925177127123 74.5921828164719,80.82693978282623 75.45345961302519,83.11154575867113 75.3577621919103,84.46153846150264" stroke="#4dd2ff" stroke-linecap="round" stroke-linejoin="round" stroke-width="0.5"><title>2023-12-31 1.5km</title><desc>10466792666</desc></polyline><polyline fill="none" points="97.28329229028895,70.31167449429631 98.66634348779917,73.09877977182623 99.75302657159045,76.95783982262947 101.23486714111641,80.06651965831406 102.5191289675422,83.71117033541668 102.91428645281121,84.46153846150264 103.11186519544572,84.46153846150264 103.21065456606448,83.60397485736758 102.81549708172679,82.42482407775242 101.0372883984819,78.78017018525861 101.0372883984819,77.81540733575821 99.75302657159045,75.0283110741293 99.55544782942161,72.8843872473808 99.16029034461826,71.59803143807221 98.07360725989565,69.56129908608273 96.78934543346986,67.84615384601057" stroke="#4dd2ff" stroke-linecap="round" stroke-linejoin="round" stroke-width="0.5"><title>2023-12-30 1.0km</title><desc>10458865202</desc></polyline><polyline fill="none" points="123.28313598316163,68.8781710434705 122.61741912038997,68.36216253961902 121.0957805775106,67.84615384612698 119.00352758122608,68.05255734641105 117.5769914467819,68.98137272137683 116.53086494840682,70.01338908378966 116.05535290390253,71.25180771679152 115.67494326783344,76.10227017232683 116.15045531233773,80.95271586126182 116.3406601306051,81.67512123147026 116.62596735684201,82.29432553832885 118.1476059006527,83.94553568819538 119.8594492613338,84.46153846150264 121.19088298641145,84.25513737474103 122.80762393865734,83.22313148668036 123.75864802766591,82.39752622984815 124.70967211714014,79.61110490118153 124.61456970823929,77.44388448703103 124.32926248153672,75.58626432495657 124.139057663735,71.0454046871746 123.85375043703243,69.91018748190254 123.28313598316163,69.18777605460491 122.61741912038997,68.67176766472403 121.0957805775106,68.36216253961902 119.00352758122608,68.46536425559316 117.48188903741539,69.29097770992666 116.72106976620853,70.21979226521216 116.15045531233773,71.66461368498858 116.15045531233773,72.38702383695636 116.43576253950596,74.14144694327842 116.24555772170424,75.58626432495657 116.24555772170424,79.92070754419547" stroke="#4dd2ff" stroke-linecap="round" stroke-linejoin="round" stroke-width="0.5"><title>2023-12-29 1.0km</title><desc>10454615358</desc></polyline><polyline fill="none" points="137.90153018385172,69.64242035802454 138.72922525089234,71.21415182296187 140.1776916179806,76.37840096000582 142.45385305210948,83.33888303372078 143.17808623611927,84.46153846150264 143.2815481191501,84.46153846150264 143.2815481191501,83.33888303372078 141.729619869031,78.62372122437228 140.48807726800442,75.59253808751237 139.66038220142946,74.02081112936139 138.31537771690637,69.64242035802454 137.4876826503314,67.84615384612698" stroke="#4dd2ff" stroke-linecap="round" stroke-linejoin="round" stroke-width="0.5"><title>2023-12-27 1.0km</title><desc>10441997651</desc></polyline><polyline fill="none" points="157.99172060377896,69.57243632955942 158.68773665418848,72.05396384152118 160.27863048389554,75.18284037616104 161.07407739851624,78.41960218502209 162.1678169062361,80.46954763832036 163.46041814330965,83.8141893359134 163.85814160015434,84.46153846150264 164.057003329508,84.35364696045872 163.36098727863282,82.30370693246368 162.36667863558978,80.79322297452018 159.18489097617567,73.24077986413613 158.98602924728766,71.19082431355491 158.68773665418848,70.2197917373851 157.09684282448143,67.84615384612698" stroke="#4dd2ff" stroke-linecap="round" stroke-linejoin="round" stroke-width="0.5"><title>2023-12-17 1.0km</title><desc>10391591057</desc></polyline><polyline fill="none" points="177.35564798722044,69.22195730695967 178.81861203722656,72.07939106295817 179.9889832767658,75.14848026027903 181.93960200902075,78.95837498863693 183.69515886856243,84.0382189413067 184.0852826149203,84.46153846150264 184.18281355174258,84.35570859303698 184.18281355174258,83.93238904175814 183.69515886856243,82.55659964017104 181.06182357948273,77.37092007719912 179.8914523399435,74.19600500259548 179.01367390993983,70.59775945288129 178.33095735358074,69.4336192610208 177.74577173404396,67.84615384612698" stroke="#4dd2ff" stroke-linecap="round" stroke-linejoin="round" stroke-width="0.5"><title>2023-12-16 1.0km</title><desc>10386207035</desc></polyline><polyline fill="none" points="17.050213578622788,89.25220491806976 18.11626300867647,91.56574628863018 18.503917346708477,93.3534802388167 19.860707529820502,97.45474379998632 20.636016206350178,98.71666868391912 21.70206563640386,102.18695637397468 21.992806389927864,102.9230769231217 22.186633558943868,102.9230769231217 22.186633558943868,101.87147602299228 20.73292979085818,97.45474379998632 18.69774451572448,94.29992671962827 18.60083093168214,93.03799793927465 18.019349424168468,91.56574628863018 18.21317659318447,90.61929799825884 17.825522255152464,88.93672171386424 16.274904902558774,86.30769230774604" stroke="#4dd2ff" stroke-linecap="round" stroke-linejoin="round" stroke-width="0.5"><title>2023-12-14 1.0km</title><desc>10376526598</desc></polyline><polyline fill="none" points="43.89288948569447,89.19733854767401 42.941865536384284,87.75251617166214 42.08594398200512,87.03010442561936 40.65940805757418,86.4108940619044 39.327974528074265,86.30769230774604 37.99654099904001,86.61729754670523 36.284697889816016,87.54611285356805 35.52387872990221,88.5781291401945 34.9532643603161,90.3325550853042 34.9532643603161,94.25420514831785 35.143469150178134,95.49261868093163 35.52387872990221,97.0406340592308 35.23857154510915,98.89825025945902 35.33367394004017,99.62065589544363 35.42877633497119,100.03345894883387 36.379800284747034,101.68466994864866 37.90143860364333,102.81987638387363 38.37695057829842,102.9230769231217 39.327974528074265,102.9230769231217 40.27899847738445,102.9230769231217 41.99084158660844,102.30387357238214 42.941865536384284,101.37506803416181 43.512479905970395,100.34306115936488 43.70268469629809,98.072643362917 43.79778709122911,96.52462912304327 43.512479905970395,94.66700978076551 43.70268469629809,92.19018016546033 43.60758230090141,90.02295066602528 43.512479905970395,89.30054008914158 42.846763141453266,87.85571781918406 42.56145595666021,87.54611285356805 41.51532961241901,86.8237010013545 39.42307692300528,86.61729754670523 38.091643393971026,86.8237010013545 37.33082423405722,87.13330612634309 35.90428831009194,88.68133072694764 35.33367394004017,90.848562298459 35.52387872990221,92.29338148678653 35.618981124833226,97.76304065145086" stroke="#4dd2ff" stroke-linecap="round" stroke-linejoin="round" stroke-width="0.5"><title>2023-12-13 1.0km</title><desc>10373769329</desc></polyline><polyline fill="none" points="56.28208436071873,86.87284439429641 58.05290012108162,89.92466207197867 59.09455645037815,94.2198026147671 60.13621278014034,96.48039808066096 62.21952543919906,102.35793073626701 62.636187971103936,102.9230769231217 62.844519237056375,102.9230769231217 62.94868486979976,102.47095999016892 62.53202233789489,101.79278434219304 60.86537221074104,98.96704925387166 58.469562652520835,94.10677275399212 58.15706575382501,92.63738381059375 57.01124379131943,90.15072239958681 56.80291252583265,87.77708730078302 56.28208436071873,86.30769230774604" stroke="#4dd2ff" stroke-linecap="round" stroke-linejoin="round" stroke-width="0.5"><title>2023-12-12 1.0km</title><desc>10365882163</desc></polyline><polyline fill="none" points="76.4832993671298,86.526316995034 77.08773444732651,87.40081542241387 78.19586542760953,89.80568344623316 79.70695312786847,93.63160183129366 80.81508410768583,95.70852483180352 82.42691098805517,100.7368527132785 82.62838934827596,102.04858762503136 83.03134606825188,102.9230769231217 83.13208524836227,102.15789881523233 82.93060688860714,101.28340906719677 80.81508410768583,96.4737062585773 79.3039964074269,93.52229001407977 78.90103968791664,92.3198594939895 78.59882214805111,89.80568344623316 77.79290870809928,87.51012768992223 77.08773444732651,86.30769230774604" stroke="#4dd2ff" stroke-linecap="round" stroke-linejoin="round" stroke-width="0.5"><title>2023-12-11 1.0km</title><desc>10361067591</desc></polyline><polyline fill="none" points="97.55002368288115,89.18770543509163 97.75418837554753,89.52001428802032 100.51041173283011,96.16617595194839 102.55205866415054,102.36923372151796 102.65414101071656,102.70153966674116 103.06247039698064,102.9230769231217 103.164552743081,102.81230829912238 102.8583057038486,102.03692770237103 101.93956458475441,100.26462769764476 100.9187411190942,97.4954047666397 98.06043541524559,91.7354047667468 97.24377664271742,87.63692981970962 96.83544725645334,86.30769230774604" stroke="#4dd2ff" stroke-linecap="round" stroke-linejoin="round" stroke-width="0.5"><title>2023-12-10 1.0km</title><desc>10355395415</desc></polyline><polyline fill="none" points="117.44664387172088,87.33899719838519 117.76345123536885,88.37030140636489 119.5586929647252,91.23503173748031 120.40351260174066,94.78729003528133 122.19875433063135,99.82919113873504 122.8323690588586,102.57931213907432 123.254778877832,102.9230769231217 123.3603813322261,102.80848867015447 123.3603813322261,102.57931213907432 123.14917642250657,101.662605678197 120.93152487510815,97.19365396013018 120.40351260174066,95.93317808199208 120.08670523762703,93.98516790149733 119.5586929647252,92.49551141506527 118.71387332770973,91.0058535047574 118.60827087238431,89.4016049321508 117.65784878050908,87.33899719838519 117.02423405274749,86.30769230774604" stroke="#4dd2ff" stroke-linecap="round" stroke-linejoin="round" stroke-width="0.5"><title>2023-12-09 1.0km</title><desc>10350143310</desc></polyline><polyline fill="none" points="137.49453602405265,87.738163140486 138.91422413103282,91.03924445947632 139.52266189083457,93.23996129340958 140.8409437048249,96.43099495570641 142.6662569846958,101.71269089507405 143.47750733187422,102.9230769231217 143.3761010384187,101.82272602932062 142.76766327861696,99.9521276531741 141.14516258472577,97.09120796748903 140.13109965110198,94.67042550072074 139.01563042448834,92.90985397493932 138.71141154458746,91.1492803778965 137.49453602405265,88.17830773687456 137.2917234376073,86.30769230774604" stroke="#4dd2ff" stroke-linecap="round" stroke-linejoin="round" stroke-width="0.5"><title>2023-12-08 1.0km</title><desc>10345303898</desc></polyline><polyline fill="none" points="157.77947415644303,86.30769230774604 158.7610351811163,87.69231497077271 158.95734738605097,88.22486179647967 159.34997179592028,89.6094826272456 159.5462840013206,91.52664774644654 159.93890841072425,93.12428340758197 161.31309384526685,96.53256693005096 162.1964987674728,99.62131694657728 163.07990368967876,101.53846881678328 163.27621589461342,102.9230769231217 163.47252809954807,102.81656865437981 163.66884030448273,102.60355209291447 163.66884030448273,102.28402719227597 163.1780597921461,101.00592688529287 161.60756215266883,98.34321428998373 159.7425962057896,92.91126542142592 159.25181569391862,90.67457467317581 157.48500584904104,86.30769230774604" stroke="#4dd2ff" stroke-linecap="round" stroke-linejoin="round" stroke-width="0.5"><title>2023-12-07 1.0km</title><desc>10340288256</desc></polyline><polyline fill="none" points="177.49520765943453,86.30769230774604 178.4018602129072,87.7287522002589 179.00629524886608,89.14981073443778 180.11442614719272,93.85022544139065 181.72625290881842,96.8016410350101 183.03586215293035,100.40891880437266 183.64029718888924,102.70445464679506 183.94251470640302,102.9230769231217 184.04325387859717,102.15789881546516 183.8417755337432,101.17409781226888 182.22994877165183,97.7854449308943 181.1218178733252,96.1457714093849 180.51738283783197,94.94334301096387 178.50259938603267,88.05668890557718 177.79742517741397,86.63562932645436" stroke="#4dd2ff" stroke-linecap="round" stroke-linejoin="round" stroke-width="0.5"><title>2023-12-06 1.0km</title><desc>10334845031</desc></polyline><polyline fill="none" points="16.62963232398033,106.36687218607403 18.101973969489336,108.60356720944401 18.789066737517715,112.11836669815239 19.47615950508043,114.67457915202249 21.14481336949393,119.04143166029826 22.028218356892467,121.06509055453353 22.32268668571487,121.38461538462434 21.93006224744022,119.46746534667909 20.948501150123775,117.6568213144783 20.0650961631909,115.10061412269715 18.789066737517715,112.4378935014829 18.200130079407245,110.41422255639918 17.218568982556462,108.28403956058901 16.72778843389824,105.94083464704454 16.13885177578777,104.76923076924868" stroke="#4dd2ff" stroke-linecap="round" stroke-linejoin="round" stroke-width="0.5"><title>2023-12-05 1.0km</title><desc>10329306344</desc></polyline><polyline fill="none" points="36.400901744607836,105.42510473448783 36.80385843524709,107.06478838203475 37.509032643865794,108.15790980914608 38.41568519733846,111.32795740303118 40.22899030381814,115.80973729700781 41.135642857756466,118.8704572658753 41.94155623810366,120.6194372769678 42.545991274062544,121.38461538462434 42.545991274062544,120.83805963338818 39.926772786304355,114.82593311159872 38.919381060637534,111.43726926867384 37.811250161379576,108.9230943301227 37.00533678056672,105.75304160860833 36.30016257241368,104.76923076924868" stroke="#4dd2ff" stroke-linecap="round" stroke-linejoin="round" stroke-width="0.5"><title>2023-12-04 1.0km</title><desc>10324662812</desc></polyline><polyline fill="none" points="57.09758167993277,106.88798121421132 57.81695394683629,108.22613786510192 58.844628614839166,112.12908802030142 60.48890808271244,115.80900325393304 61.61935021681711,119.71193389769178 62.44148995121941,121.27310334297363 63.05809475155547,121.38461538462434 63.05809475155547,120.93856716854498 62.33872248465195,119.71193389769178 61.4138152836822,117.03563968115486 60.386140616144985,115.47446587425657 59.666768348775804,113.57875266275369 58.433558747172356,109.11824164295103 57.61141901323572,106.88798121421132 56.17267447896302,104.76923076924868" stroke="#4dd2ff" stroke-linecap="round" stroke-linejoin="round" stroke-width="0.5"><title>2023-12-02 1.0km</title><desc>10313350310</desc></polyline><polyline fill="none" points="76.70519018825144,106.07240494468715 77.70599732361734,107.80996872310061 78.70680445898324,109.11314021574799 79.90777302114293,113.2398423574632 80.70841872971505,116.60635398712475 82.00946800550446,120.29864824248943 82.81011371361092,121.38461538462434 82.91019442724064,120.73303519503679 82.7100329999812,119.42987395368982 81.60914515098557,117.04074202559423 79.90777302114293,114.32581468916032 78.90696588624269,112.26246657653246 77.90615875041112,107.04978482157458 76.70519018825144,104.76923076924868" stroke="#4dd2ff" stroke-linecap="round" stroke-linejoin="round" stroke-width="0.5"><title>2023-12-01 1.0km</title><desc>10308709030</desc></polyline><polyline fill="none" points="97.17930441116914,106.19029066187795 98.38817394897342,108.2672219077358 100.20147825591266,114.4979982386576 102.0147825628519,118.21458923164755 103.02217384474352,120.94737079984043 103.32439122907817,121.38461538462434 103.42513035750017,121.0566819581436 103.02217384474352,119.96357001410797 101.51108692213893,117.8866551060928 101.10813040984794,116.79354083153885 99.59704348724335,113.8421282756608 98.8918695896864,110.453462190344 98.1866956925951,108.48584608070087 96.57486964203417,104.76923076924868" stroke="#4dd2ff" stroke-linecap="round" stroke-linejoin="round" stroke-width="0.5"><title>2023-11-30 1.0km</title><desc>10303537703</desc></polyline><polyline fill="none" points="117.75625241082162,106.81919099227525 118.75056068925187,109.08493317011744 119.44657648401335,111.35067185014486 119.74486896768212,113.18483869556803 120.83860807307065,115.34267910837661 122.03177800681442,118.57943377853371 123.2249479405582,121.16883237473667 123.42380959633738,121.38461538462434 123.6226712516509,121.16883237473667 123.42380959633738,120.41359158942942 122.62836297368631,119.01100052834954 121.53462386783212,115.99003061349504 119.94373062299564,112.75327023246791 119.34714565612376,109.300717957085 118.15397572191432,107.4665462570265 117.45795992808416,105.74026491609402 116.76194413285702,104.76923076924868" stroke="#4dd2ff" stroke-linecap="round" stroke-linejoin="round" stroke-width="0.5"><title>2023-11-29 1.0km</title><desc>10298007687</desc></polyline><polyline fill="none" points="137.90016156202182,106.85991844837554 138.20438039768487,108.07031524321064 139.31984946038574,110.93124923144933 139.52266201702878,113.02192830271088 140.9423499153927,116.43302999192383 141.75360014289618,119.5140183835756 142.46344409231097,120.94447512412444 143.1732880412601,121.38461538462434 143.47750687645748,121.38461538462434 143.68031943356618,121.05451020144392 143.57891315501183,120.61436984385364 143.1732880412601,119.84412390657235 141.55078758625314,115.55274642910808 139.92828713124618,111.81153551209718 139.6240682960488,110.05096243298613 138.914224346634,107.96027921163477 138.00156784057617,106.08966543269344 137.088911334984,104.76923076924868" stroke="#4dd2ff" stroke-linecap="round" stroke-linejoin="round" stroke-width="0.5"><title>2023-11-28 1.0km</title><desc>10292316108</desc></polyline><polyline fill="none" points="159.4458950823173,104.76923076924868 160.57692307652906,106.56294741481543 161.44694461114705,108.92309707845561 161.96895753173158,111.18883667432237 162.66497475886717,112.22729931969661 163.44799413951114,113.73778894112911 164.23101352062076,116.19233078684192 164.92703074775636,117.32519467140082 164.92703074775636,117.89162623893935 164.4920199806802,118.26924714527559 163.09998552594334,119.0244886247674 162.229963991791,119.77972965978552 161.35994245763868,120.25175508123357 160.05491015594453,120.8181853578426 157.96685847407207,121.38461538462434 157.61884986050427,121.29021039779764 157.35784339997917,121.00699539470952 156.922832632903,119.2132989250822 156.2268154057674,117.32519467140082" stroke="#4dd2ff" stroke-linecap="round" stroke-linejoin="round" stroke-width="0.5"><title>2023-11-27 1.0km</title><desc>10287544518</desc></polyline><polyline fill="none" points="177.9537334810011,106.91316200396977 179.63315291609615,109.3786790270824 180.12709980877116,110.55783786845859 181.3125723511912,116.56081354990602 182.59683427168056,119.66948767146096 183.28835992189124,120.84863819100428 183.78230681456625,121.38461538462434 183.88109619310126,121.27741996163968 183.58472805749625,120.74144272855483 183.58472805749625,119.88387874606997 182.79441302921623,118.06155360850971 181.9053086224012,115.06007194658741 181.01620421558619,113.23774078011047 180.42346794437617,109.80746417061891 178.74404850928113,107.12755495437887 178.34889099467546,106.05558988859411 177.6573653453961,104.76923076924868" stroke="#4dd2ff" stroke-linecap="round" stroke-linejoin="round" stroke-width="0.5"><title>2023-11-26 1.0km</title><desc>10281488289</desc></polyline><polyline fill="none" points="16.38556827418506,124.80250254436396 17.21326309815049,125.9251682064496 18.247881627175957,128.61956242809538 19.179038303904235,132.43661277089268 20.110194980632514,134.56966615945566 20.31711868662387,135.91685623815283 20.834427951369435,137.1517794331303 21.97250833408907,139.28482623561285 22.489817598368973,139.84615384612698 22.69674130389467,139.84615384612698 21.14481351012364,136.4781850867439 20.937889804132283,135.3555271831574 19.903271275106817,133.89607067452744 17.834034216124564,128.28276341070887 16.799415686167777,126.3742342403857 16.48903012741357,123.90436942025553 15.764797157142311,123.23076923075132" stroke="#4dd2ff" stroke-linecap="round" stroke-linejoin="round" stroke-width="0.5"><title>2023-11-25 1.0km</title><desc>10275889695</desc></polyline><polyline fill="none" points="36.37131435237825,125.08984192274511 37.870425790548325,127.52987151232082 38.5129021210596,130.43466373032425 41.51112499739975,138.56805353902746 42.260680716484785,139.72996295208577 42.58191888220608,139.84615384612698 42.68899827077985,139.4975811376935 41.61820438597351,138.10328953468706 40.33325172495097,134.268981283647 39.476616616826504,132.5261108216364 38.941219674889,129.1565558121074 38.298743344377726,127.41367971210275 36.15715557523072,123.23076923075132" stroke="#4dd2ff" stroke-linecap="round" stroke-linejoin="round" stroke-width="0.5"><title>2023-11-24 1.0km</title><desc>10271180196</desc></polyline><polyline fill="none" points="57.532072416041046,125.71743685775436 58.57372851576656,127.18682947428897 58.88622534601018,128.09107038599905 59.615384615026414,131.93408832908608 61.38619998516515,137.35950907110237 62.219524865504354,139.62009539653081 62.53202169481665,139.84615384612698 62.94868413498625,139.84615384612698 63.05284974491224,139.62009539653081 62.844518525060266,138.48980264924467 61.698696815408766,135.21194898337126 58.677894125692546,128.6562206860399 57.63623802596703,125.60440659814049 56.177919486071914,123.23076923075132" stroke="#4dd2ff" stroke-linecap="round" stroke-linejoin="round" stroke-width="0.5"><title>2023-11-23 1.0km</title><desc>10265414399</desc></polyline><polyline fill="none" points="77.93069508159533,126.55386130104307 78.91858835844323,128.05461007612757 79.01737768622115,129.55535730626434 79.41253499686718,131.91367126174737 80.99316424038261,136.41589640302118 81.4871108783409,138.5598082508659 82.27742550009862,139.84615384612698 82.87016146630049,139.84615384612698 82.77137213852257,139.2029811902903 81.68468953389674,136.41589640302118 80.79558558482677,135.02235201152507 79.5113243246451,131.05610299226828 78.02948440890759,126.98264682292938 77.63432709872723,124.62432489206549 77.3379591149278,123.98114552162588 76.74522314919159,123.23076923075132" stroke="#4dd2ff" stroke-linecap="round" stroke-linejoin="round" stroke-width="0.5"><title>2023-11-21 1.0km</title><desc>10253878272</desc></polyline><polyline fill="none" points="97.48152124043554,125.63563902268652 99.09334764676169,128.91500065196306 99.59704339830205,132.19435504823923 101.71256555663422,137.55061834154185 102.61921790987253,139.51822041964624 102.92143536126241,139.84615384612698 103.12291366234422,139.7368427121546 103.22365281265229,139.51822041964624 102.82069621095434,137.76924092310946 101.00739150354639,133.8340295344824 100.30221745138988,131.75710821337998 99.19408679706976,127.49394483387005 98.58965189429,126.40082404960413 98.18669529305771,124.87045360170305 96.77634718781337,123.23076923075132" stroke="#4dd2ff" stroke-linecap="round" stroke-linejoin="round" stroke-width="0.5"><title>2023-11-20 1.0km</title><desc>10248671423</desc></polyline><polyline fill="none" points="117.72101074177772,126.28044289362151 118.30249237688258,127.12173103587702 119.65928285941482,130.06623563659377 120.0469372831285,133.1158947260119 121.11298694787547,135.5345852423925 122.1790366130881,138.5842326731654 122.6636046427302,139.32035349251237 123.24508627830073,139.84615384612698 123.14817267237231,139.00487318774685 121.50064137205482,134.69330204825383 120.43459170730785,130.8023608395597 119.36854204209521,128.27850142342504 118.78706040652469,125.9649597130483 117.13952910620719,123.23076923075132" stroke="#4dd2ff" stroke-linecap="round" stroke-linejoin="round" stroke-width="0.5"><title>2023-11-19 1.0km</title><desc>10242265034</desc></polyline><polyline fill="none" points="137.05319027625956,138.94239566568285 137.56571721588261,136.3006360309082 138.20637589064427,134.28455134300748 138.46263936068863,133.79790956730722 138.9111004327424,133.51982844021404 141.08933992660604,133.2417472312227 142.69098661351018,132.8941456049797 143.20351355336607,132.4770234847092 143.5238428907469,132.0599011806189 143.90823809569702,130.32188959879568 143.78010636055842,129.7657252177014 144.03636983036995,129.34860171726905 143.8441722278949,126.15064876526594 143.71604049322195,125.73352366976906 143.65197462565266,124.482147278497 143.5238428907469,123.71741644624854 142.81911834864877,123.50885338458465 142.24252554122359,123.92597946169553 142.37065727612935,123.71741644624854 142.49878901126795,123.92597946169553 141.66593273403123,123.50885338458465 141.6018668669276,123.23076923075132 141.4096692642197,123.36981131782522 141.53780099912547,123.30029027693672 141.08933992660604,123.85645846166881 141.15340579440817,123.78693745651981 142.49878901126795,124.482147278497 142.17845967388712,124.76023106410867 141.66593273403123,124.96879384969361 140.44868125231005,125.1773565892363 140.38461538450792,124.89927292615175 140.70494472188875,124.76023106410867 141.15340579440817,124.82975199772045 142.49878901126795,123.50885338458465 144.35669916775078,123.57837441022275 144.16450156550854,123.43933235370787 143.90823809569702,123.36981131782522 143.71604049322195,126.70681527320994 143.78010636055842,127.68010587478057 143.97230396280065,128.86195740074618 144.10043569817208,130.87805365258828 144.10043569817208,131.57325825979933 143.90823809569702,132.26846235559788 143.5238428907469,132.6855845678947 140.32054951717146,133.03318627073895 138.84703456540592,133.3112675411394 138.0782441557385,133.86742983624572 137.1813220109325,135.1187938042567 136.66879507130943,136.926316611527 136.47659746883437,137.89959669171367 136.4125316014979,139.84615384612698" stroke="#4dd2ff" stroke-linecap="round" stroke-linejoin="round" stroke-width="0.5"><title>2023-11-18 1.0km</title><desc>10236386505</desc></polyline><polyline fill="none" points="157.2687008283101,123.23076923075132 158.0248659136705,125.4871910995571 160.10431989841163,129.07694564166013 160.86048498377204,131.74361446488183 161.14404689101502,133.28207492863294 161.71117070503533,134.205150392605 163.50706278253347,139.43589981866535 163.88514532567933,139.84615384612698 163.88514532567933,139.43589981866535 163.50706278253347,138.9230821147794 162.46733579039574,135.8461719318293 161.90021197590977,134.82053369597998 161.71117070503533,133.0769469649531 160.86048498377204,130.92310152354185 159.91527862707153,128.87181705981493 159.8207579916343,127.74360931874253 157.9303452782333,124.76923908269964" stroke="#4dd2ff" stroke-linecap="round" stroke-linejoin="round" stroke-width="0.5"><title>2023-11-17 1.0km</title><desc>10231268371</desc></polyline><polyline fill="none" points="178.1486607515253,124.56892775115557 178.970800365787,126.46465030033141 180.30677723651752,128.36037048022263 180.6150795915164,130.92516459955368 181.53998665651307,132.9323917545844 182.9787309798412,138.28498451563064 183.90363804483786,139.84615384612698 183.8008705927059,138.95405728265177 183.0814984315075,137.50439924770035 182.56766117317602,136.05473982729018 181.74552155984566,132.59785407967865 180.1012423336506,129.14096045389306 179.5874050753191,127.57978010457009 179.27910272032022,126.01859814871568 177.6348234936595,123.23076923075132" stroke="#4dd2ff" stroke-linecap="round" stroke-linejoin="round" stroke-width="0.5"><title>2023-11-16 1.0km</title><desc>10225818993</desc></polyline><polyline fill="none" points="15.576687114778906,142.82517994765658 18.12874446529895,146.7272897551302 18.70875750016421,148.9930268524913 19.636778355110437,151.5105089994613 20.91280703013763,153.9021136108786 21.37681745737791,155.7902201547986 22.18883570563048,157.4265774752712 23.000853953883052,158.30769230774604 20.91280703013763,154.40560889279004 19.984786175657064,151.5105089994613 17.316726217977703,146.60141538421158 15.46068450761959,141.69230769237038" stroke="#4dd2ff" stroke-linecap="round" stroke-linejoin="round" stroke-width="0.5"><title>2023-11-15 1.0km</title><desc>10219684298</desc></polyline><polyline fill="none" points="36.28617148147896,143.538470224943 37.03052192507312,144.80770570668392 38.4128870354034,146.53847970895004 38.62555859051645,148.73079070518725 40.22059525595978,152.53848147322424 41.177617254666984,155.76924215338659 42.13463925383985,158.19230829912703 42.559982364531606,158.30769230774604 42.45364658627659,156.92308364179917 41.07128147734329,155.07693685323466 40.53960258839652,153.46155663207173 39.68891636747867,152.4230970402714 39.369909034110606,151.15386771748308 37.7748723695986,147.92309753666632 37.243193480651826,145.61540047847666 36.924186147749424,142.96154466690496 36.28617148147896,141.69230769237038" stroke="#4dd2ff" stroke-linecap="round" stroke-linejoin="round" stroke-width="0.5"><title>2023-11-14 1.0km</title><desc>10213806154</desc></polyline><polyline fill="none" points="56.68217411683872,143.31069758010563 57.87534448923543,145.4685479871696 58.67079140432179,148.48953322693706 60.85827041976154,154.0999178874772 61.35542474128306,155.9340774512384 62.34973338525742,157.9840177805163 62.6480259783566,158.30769230774604 62.051440792158246,157.22877693979535 60.65940869087353,153.8841342588421 60.55997782666236,153.0209994261386 59.56566918315366,150.64737601939123 58.074206218123436,147.95007203309797 57.47762103192508,146.11590249056462 57.07989757414907,143.41859017580282 56.58274325262755,141.69230769237038" stroke="#4dd2ff" stroke-linecap="round" stroke-linejoin="round" stroke-width="0.5"><title>2023-11-13 1.0km</title><desc>10208522228</desc></polyline><polyline fill="none" points="76.62190060364082,142.026847433066 78.163412718568,145.26072778913658 79.19108746154234,148.38308848731685 80.42429715348408,150.94787996669766 81.14366947347298,153.95871660439298 81.86304179392755,156.07744991476648 82.78794906288385,158.0846682160627 83.19901895942166,158.30769230774604 83.40455390885472,157.86164409143385 82.27411169093102,155.6314010429196 81.65750684542581,153.17812990187667 79.39662241050974,151.0593925412977 78.163412718568,149.27519036328886 77.9578777696006,147.37947324942797 76.21083070617169,143.58803191396873 76.62190060364082,142.13836066343356 76.41636565513909,141.69230769237038" stroke="#4dd2ff" stroke-linecap="round" stroke-linejoin="round" stroke-width="0.5"><title>2023-11-12 1.0km</title><desc>10202270880</desc></polyline><polyline fill="none" points="96.82671676296741,143.22267982794438 98.03558656806126,146.39273138449062 100.45332617685199,151.85832164308522 101.25923938024789,154.59110923844855 102.06515258317813,156.77733569859993 102.56884833518416,157.76113655697554 103.07254408672452,158.30769230774604 103.17328323749825,157.87044772319496 102.26663088379428,155.13766615476925 100.55406532716006,152.5141911241226 98.74076062068343,148.36034619202837 98.03558656806126,145.40892300382257 97.33041251497343,143.6599287202116 96.82671676296741,141.69230769237038" stroke="#4dd2ff" stroke-linecap="round" stroke-linejoin="round" stroke-width="0.5"><title>2023-11-11 1.0km</title><desc>10196068378</desc></polyline><polyline fill="none" points="117.11905281897634,142.39436970721 119.38355640973896,146.95776525360998 120.89322547055781,151.52114771585912 122.2950610271655,155.26545175898355 122.94206205243245,157.72264650010038 123.37339606974274,158.30769230774604 123.58906307863072,158.07367401046213 123.26556256553158,156.66956350393593 121.64806000096723,153.04227229568642 120.03055743593723,149.64899239130318 117.87388734938577,146.25570525228977 117.65822034096345,144.9685944445664 116.79555230634287,141.69230769237038" stroke="#4dd2ff" stroke-linecap="round" stroke-linejoin="round" stroke-width="0.5"><title>2023-11-10 1.0km</title><desc>10191120477</desc></polyline><polyline fill="none" points="136.79090078361332,142.25745977903716 137.31172898644581,143.952914792113 139.08254487719387,145.309277456603 140.1242012833245,147.11775914754253 140.4366982053034,147.79593923327047 140.4366982053034,148.81320880097337 141.582520251628,152.31713215948548 141.99918281426653,154.35166463861242 142.8325079390779,156.61225312436 143.04083922039717,157.74254612089135 143.56166742369533,158.30769230774604 143.8741643447429,158.1946630870225 144.18666126672179,157.74254612089135 143.04083922039717,156.9513411107473 141.16585768945515,154.23863512696698 138.97837923653424,148.24805912422016 138.4575510332361,144.85715670126956 137.93672282993793,143.5007936381735 136.58256950229406,141.69230769225396" stroke="#4dd2ff" stroke-linecap="round" stroke-linejoin="round" stroke-width="0.5"><title>2023-11-09 1.0km</title><desc>10185506531</desc></polyline><polyline fill="none" points="157.11095406115055,142.81497451011091 158.04210991645232,144.16217360191513 159.18018929474056,146.40750278008636 159.5940363407135,147.53016613132786 160.93903924291953,150.4490869815927 161.45634805131704,152.4698750708485 161.35288628935814,151.2349493339425 161.55980981327593,152.02081128198188 161.97365685924888,155.051989293308 162.90481271455064,157.85863023577258 163.3186597614549,158.30769230774604 163.83596856938675,158.08316128794104 164.04289209283888,157.74636469699908 162.90481271455064,156.73597447783686 162.07711862120777,155.38878647889942 161.55980981327593,153.92933147225995 160.83557748096064,151.4594813605072 159.8009598646313,150.00002259854227 158.6628804858774,147.53016613132786 158.35249520093203,145.73390437324997 158.45595696242526,143.48857420461718 158.2490334394388,142.92724114633165 157.31787758413702,141.69230769225396" stroke="#4dd2ff" stroke-linecap="round" stroke-linejoin="round" stroke-width="0.5"><title>2023-11-08 1.0km</title><desc>10179505859</desc></polyline><polyline fill="none" points="177.4382960787043,142.0159858125262 180.42122266767547,151.40262024698313 183.90130368759856,158.30769230774604 184.10016545979306,158.19980080681853 183.60301102884114,157.01299377088435 182.70813305210322,155.50251070118975 182.11154773412272,153.99202607688494 180.9183770986274,152.6973237330094 180.52065355423838,151.94208017154597 180.2223608950153,149.35267072438728 180.02349912235513,148.59742544172332 178.8303284868598,146.54747200082056 178.1343122832477,142.8791271179216 177.63715785183012,141.69230769237038" stroke="#4dd2ff" stroke-linecap="round" stroke-linejoin="round" stroke-width="0.5"><title>2023-11-06 1.0km</title><desc>10167691585</desc></polyline><polyline fill="none" points="16.904842518270016,162.1519089434296 17.29249697038904,162.67771447671112 18.358546713367105,166.25318697770126 19.03694200515747,167.51511631486937 21.556695943698287,173.29894486477133 22.622745687142015,176.55891065113246 22.816572912968695,176.76923076924868 23.010400138795376,176.76923076924868 23.010400138795376,176.4537505803164 22.235091235022992,174.77118839812465 21.556695943698287,173.8247463006992 21.459782330784947,173.29894486477133 20.878300652373582,172.6679828867782 19.23076923098415,169.82865054125432 17.29249697038904,164.88609560613986 16.517188066150993,162.1519089434296 15.451138322707266,160.15384615387302" stroke="#4dd2ff" stroke-linecap="round" stroke-linejoin="round" stroke-width="0.5"><title>2023-11-05 1.1km</title><desc>10161301187</desc></polyline><polyline fill="none" points="36.07955801067874,160.15384615387302 37.33943470241502,162.25707006559242 39.27770653506741,166.56866941635963 40.149928860366344,170.35445325286128 41.506719143129885,172.98346391064115 41.99128710152581,175.08666895807255 42.47585505992174,176.76923076924868 42.766595834866166,176.45375058043282 42.669682242907584,176.1382703220006 41.409805551636964,173.8247463008156 41.31289195967838,173.50926546251867 40.149928860366344,171.72153939807322 39.665360901504755,170.0389716491336 38.4054842106998,167.7254377626814 38.11474343528971,165.72738275886513 37.53326188540086,163.62416394997854 36.66103956056759,161.9415866759373" stroke="#4dd2ff" stroke-linecap="round" stroke-linejoin="round" stroke-width="0.5"><title>2023-11-04 1.0km</title><desc>10155501797</desc></polyline><polyline fill="none" points="64.36388383386657,164.04480796551798 64.0731593919918,162.67771448148414 62.81335347658023,160.99513609160203 62.03808829840273,160.46932993852533 60.48755794111639,160.15384615387302 59.03393573127687,160.25900742341764 56.9988646376878,161.2054584985599 56.126691311597824,162.04674781742506 55.35142613295466,163.6241639557993 55.157609838526696,164.88609561382327 54.866885396651924,169.09252642979845 55.060701691079885,173.50926546822302 55.25451798597351,174.14022707438562 56.223599459044635,175.71762987133116 57.386497227009386,176.55891065159813 59.3246601736173,176.76923076924868 61.0690068253316,176.03311022208072 62.716445330064744,174.0350668260362 63.20098606636748,173.0886242428096 63.87934309756383,170.03897165774833 63.87934309756383,167.62027705158107 64.36388383386657,164.46545185137074 64.26697568688542,163.3086808673106 63.20098606636748,162.04674781742506 62.3288127402775,161.4157808746677 60.29374164622277,160.46932993852533 59.22775202570483,160.46932993852533 56.90195649070665,161.2054584985599 55.83596686972305,162.15190894750413 55.157609838526696,163.41384190449025 54.963793543633074,164.255129924044 55.157609838526696,167.7254377718782 54.963793543633074,169.30284764559474 55.060701691079885,171.72153940564021" stroke="#4dd2ff" stroke-linecap="round" stroke-linejoin="round" stroke-width="0.5"><title>2023-11-03 1.0km</title><desc>10152446508</desc></polyline><polyline fill="none" points="76.1590440585278,160.15384615387302 77.11606655083597,161.45192870753817 77.95346123026684,163.269242679351 78.67122809914872,166.51444154779892 79.86750621395186,168.85098104015924 81.66192338522524,173.52405074809212 82.02080681920052,174.30289449729025 82.61894587660208,176.37980948144104 82.97782931104302,176.76923076924868 83.45634055696428,176.76923076924868 83.45634055696428,176.50961658684537 82.61894587660208,176.12019524211064 82.2600624426268,175.21154510357883 81.42266776226461,174.43270175531507 80.8245287053287,172.74520665581804 79.98713402496651,171.44713240501005 79.03011153358966,169.50001923902892 77.95346123026684,165.47597855888307 77.23569436138496,163.7884748991346 76.5179274934344,160.9326958003221" stroke="#4dd2ff" stroke-linecap="round" stroke-linejoin="round" stroke-width="0.5"><title>2023-11-02 1.1km</title><desc>10144903556</desc></polyline><polyline fill="none" points="97.69814325077459,161.78281369328033 97.99838543590158,162.86879105470143 98.19854689203203,164.06336523033679 98.99919271795079,165.9095234196866 100.40032291319221,170.9049987164326 102.80226039141417,175.90045711921994 103.50282548880205,176.76923076924868 103.1025025760755,175.46607010287698 101.60129165230319,173.18553616991267 100.80064582638443,170.2534159400966 99.79983854386955,168.84165227238555 98.59886980475858,166.2353158018086 97.59806252224371,161.78281369328033 96.49717451166362,160.15384615387302" stroke="#4dd2ff" stroke-linecap="round" stroke-linejoin="round" stroke-width="0.5"><title>2023-11-01 1.0km</title><desc>10138966680</desc></polyline><polyline fill="none" points="117.72588939685374,161.15746515465435 118.44526139972731,162.1610834915191 118.9590985449031,163.83377924351953 119.78123797709122,168.29429223097395 121.11721455352381,171.1936186386738 121.93935398524627,173.8699150190223 123.27533056214452,176.76923076924868 123.37809799099341,176.65771872724872 122.45319113042206,175.31957358680665 121.11721455352381,172.1972303345101 119.98677283478901,170.19000627845526 118.03419168433174,164.2798311325023 117.82865682570264,161.93805725174025 117.00651739398018,160.1538461537566" stroke="#4dd2ff" stroke-linecap="round" stroke-linejoin="round" stroke-width="0.5"><title>2023-10-31 1.0km</title><desc>10133123337</desc></polyline><polyline fill="none" points="137.0651548304595,161.0833827732131 138.2430279306136,162.94245437148493 138.77842479432002,165.7310576690361 138.77842479432002,166.77678263687994 139.95629789400846,168.75203902169596 143.16867907484993,175.60732144187205 143.70407593855634,176.6530398747418 143.91823468357325,176.76923076924868 141.45540911145508,171.88920585322194 140.38461538497359,168.86823049699888 139.20674228481948,166.42820772447158 137.4934723218903,161.0833827732131 136.8509960854426,160.15384615387302" stroke="#4dd2ff" stroke-linecap="round" stroke-linejoin="round" stroke-width="0.5"><title>2023-10-30 1.0km</title><desc>10127985445</desc></polyline><polyline fill="none" points="157.94511296693236,162.1269333034288 158.42362389620394,163.26924565667287 158.90213482500985,166.48848459112924 159.18924138275906,167.52694719843566 161.10328509937972,171.99232771014795 162.06030695745721,174.58847268112004 163.4958397448063,176.56153966777492 163.87864848878235,176.76923076924868 163.97435067407787,176.45769410557114 163.11303100176156,175.10770110262092 161.86890258593485,172.40771122614387 159.66775231156498,168.3577167346375 158.80643263924867,165.34617484139744 158.13651733845472,163.99617121892516 158.04081515269354,161.9192400490865 157.84941078117117,160.9846200265456 157.17949547991157,160.15384615387302" stroke="#4dd2ff" stroke-linecap="round" stroke-linejoin="round" stroke-width="0.5"><title>2023-10-28 1.0km</title><desc>10115543824</desc></polyline><polyline fill="none" points="177.8205688269809,161.95011266623624 179.1655725198798,164.75677486124914 179.99326710030437,167.45116571546532 180.92442350275815,169.5842217700556 181.75211808318272,172.61540156416595 182.99365995358676,175.53430975356605 183.51096906606108,176.65696526388638 184.0282781785354,176.76923076924868 184.13174000149593,176.65696526388638 183.92481635604054,175.98337205662392 183.30404542107135,174.29938773903996 181.2348089707084,170.25781779992394 179.57941980985925,165.7671719887294 178.5448015849106,163.52184413105715 178.13095429493114,161.61331285594497 177.40672153700143,160.15384615387302" stroke="#4dd2ff" stroke-linecap="round" stroke-linejoin="round" stroke-width="0.5"><title>2023-10-27 1.0km</title><desc>10110442644</desc></polyline><polyline fill="none" points="16.531476214993745,180.74557277956046 17.80750564020127,182.98226698092185 19.67247172445059,189.26629411440808 20.359564492013305,191.18344950815663 21.046657260507345,192.35504322231282 21.83190613752231,194.59171949978918 22.126374466810375,195.01775268523488 22.715311124920845,195.23076923075132 22.81346723390743,194.9112444006605 22.715311124920845,194.4852111840155 21.7337500276044,193.20711078308523 20.261408382561058,190.65090659772977 18.49459840869531,185.43197571544442 17.31672509200871,183.51481271034572 16.72778843389824,180.74557277956046 15.64807122759521,178.61538461537566" stroke="#4dd2ff" stroke-linecap="round" stroke-linejoin="round" stroke-width="0.5"><title>2023-10-26 1.0km</title><desc>10104873905</desc></polyline><polyline fill="none" points="36.90459853410721,181.56681518105324 39.02012038137764,187.36034703161567 41.33712049946189,193.15385630796663 42.44525099080056,195.12145809666254 42.848207532893866,195.23076923075132 42.747468397486955,194.137657527579 40.027511736843735,189.4372680473607 38.51642470341176,185.61135866318364 37.206815940793604,182.87856021872722 36.703120263293386,180.1457567512989 35.99794631358236,178.61538461537566" stroke="#4dd2ff" stroke-linecap="round" stroke-linejoin="round" stroke-width="0.5"><title>2023-10-25 1.0km</title><desc>10098978222</desc></polyline><polyline fill="none" points="56.591927136294544,178.61538461537566 57.469705113675445,180.73200477997307 57.37217422761023,181.47282110224478 57.957359546329826,183.90692919120193 58.737606638111174,185.49438877089415 59.22526106983423,187.3993379556341 60.10303904814646,189.93926628050394 61.9561258899048,193.53749040316325 62.54131120862439,195.01910948613659 62.736372981686145,195.23076923075132 62.9314347547479,195.12493936228566 62.83390386821702,193.7491503652418 61.761064117308706,191.73837946599815 60.98081702599302,190.57424766162876 60.00550816114992,188.35181160271168 59.81044638855383,187.18767705978826 58.64007575111464,185.3885581868235 57.957359546329826,183.8010984902503 57.762297773268074,181.89614454377443 57.469705113675445,180.73200477997307 56.88451979542151,179.67369508673437 56.299334476701915,179.03870889730752" stroke="#4dd2ff" stroke-linecap="round" stroke-linejoin="round" stroke-width="0.5"><title>2023-10-24 1.0km</title><desc>10092835699</desc></polyline><polyline fill="none" points="77.68672494636849,180.5239177143667 78.41095770336688,182.32018198166043 79.96288504172117,187.82122815551702 80.68711779918522,189.16842011618428 81.51481237914413,192.53639481787104 82.75635424954817,194.78170715877786 83.27366336248815,195.23076923075132 82.75635424954817,194.66944162000436 82.03212149208412,192.87319187948015 80.16980868624523,190.62787673214916 79.75596139626577,189.84201565070543 79.34211410628632,187.2598978212336 78.10057223588228,184.7900418988429 77.27287765592337,182.20791552693117 76.75556854344904,179.62578478862997 76.34172125300393,178.61538461537566" stroke="#4dd2ff" stroke-linecap="round" stroke-linejoin="round" stroke-width="0.5"><title>2023-10-23 1.0km</title><desc>10087395010</desc></polyline><polyline fill="none" points="94.32677461113781,179.0536866748589 94.91429309803061,178.69507592532318 95.2080523413606,178.61538461540476 97.30108695081435,178.77476722345455 98.2190845864825,179.0138410476502 98.43940401915461,179.13337792022503 98.91676278994419,179.49198837959557 99.24724193871953,179.89044416727847 99.98164004716091,181.24519165381207 100.3488391013816,182.75931718968786 100.82619787217118,183.55622366722673 101.04651730461046,184.1937480054621 101.56059598061256,185.34925895705237 101.92779503506608,186.54461252110195 102.4785936162807,187.50089347397443 102.73563295439817,187.77980843401747 103.06611210317351,188.33763792351237 103.24971163040027,189.53298489612644 103.3598713465035,189.85174364360864 103.65363059006631,190.2900366152171 103.72707040095702,190.96739778321353 103.83723011729307,191.24631095919176 105.45290595595725,195.0713914624066 105.67322538862936,195.23076923078042 105.67322538862936,195.0315470129135 105.34274623985402,194.71279131202027 104.97554718563333,193.83621216777829 104.60834813117981,193.0791654023633 103.61691068462096,190.0111229470349 103.28643153584562,189.33376058388967" stroke="#4dd2ff" stroke-linecap="round" stroke-linejoin="round" stroke-width="0.5"><title>2023-10-22 1.5km</title><desc>10080655811</desc></polyline><polyline fill="none" points="117.76059274375439,178.61538461537566 117.64660610561259,178.69784431537846 117.60861055948772,178.986453170015 118.17854375042953,179.39875127610867 117.15266400645487,179.2338320700219 118.74847694160417,181.2953186595114 118.90045912587084,181.79007431329228 118.78647248772904,182.2023703578452 118.25453484267928,182.49097740883008 118.1025526584126,182.77958431115258 118.14054820453748,183.27433865517378 118.44451257307082,184.46999318461167 118.78647248772904,185.33581039033015 119.16642794851214,186.65514832356712 119.85034777759574,187.85079564445186 119.96433441597037,188.30431637514266 120.38228542264551,189.04644041592837 120.64825424528681,189.3762730078015 120.68624979117885,189.58241827911115 120.95221861382015,189.82979250475182 121.1421963442117,190.24208263828768 121.408165166853,191.0254330568423 121.67413398926146,191.56140902856714 121.63613844336942,192.63335943518905 122.13008054206148,193.58162154842285 122.28206272656098,194.03513764453237 122.54803154896945,194.52988205832662 123.00397810176946,195.10708332274226 123.23195137828588,195.23076923078042 122.3580538185779,193.99390892367228 122.16807608818635,193.3342489778588 121.78812062740326,192.5096729543584 121.63613844336942,191.97369788895594 121.1421963442117,191.2728066459531 120.72424533730373,190.07716662128223 120.64825424528681,189.1288985821593" stroke="#4dd2ff" stroke-linecap="round" stroke-linejoin="round" stroke-width="0.5"><title>2023-10-20 1.4km</title><desc>10069668027</desc></polyline><polyline fill="none" points="137.24218443175778,178.61538461540476 137.1660042873118,179.23537047379068 137.24218443175778,179.85535564849852 137.8516255861614,181.3433172776131 138.0039858748205,182.2526252232492 139.26095825596713,185.31119570010924 139.37522847251967,185.72451475841808 139.4514086167328,186.34449277620297 139.60376890539192,186.75781107490184 140.51793063711375,188.03909586946247 141.01310157519765,189.03105628548656 141.31782215251587,190.02301495114807 141.58445265772752,190.56032516428968 141.73681294638664,191.38695525864023 141.92726330715232,191.80026984997676 142.42243424523622,193.08154315213324 142.49861438944936,193.57751913036918 143.22232576063834,195.06544443956227 143.41277612140402,195.23076923078042 143.52704633772373,195.23076923078042 143.60322648193687,195.18943803748698 143.56513641006313,195.14810684119584 142.80333496676758,194.19748848769814 142.4605243173428,193.0402118008933 141.73681294638664,191.7176069559937 141.6225427298341,191.18029784894316 141.54636258538812,190.27100434413296 141.24164200830273,189.651030656707" stroke="#4dd2ff" stroke-linecap="round" stroke-linejoin="round" stroke-width="0.5"><title>2023-10-19 1.3km</title><desc>10064004415</desc></polyline><polyline fill="none" points="156.89994273614138,178.61538461537566 157.30289948591962,179.81781999743544 158.81398729700595,181.78543943422846 158.71324810991064,183.20649629691616 158.91472648456693,184.62755180161912 159.61990079656243,187.14172359765507 160.62729267030954,188.78139856585767 161.63468454452232,191.62349756073672 163.64946829341352,194.90283580403775 163.95168585563079,195.23076923075132 164.2539034173824,195.1214580964297 162.94429398095235,193.80972385965288 160.52655348321423,189.1093333425233 159.9221183587797,187.0324118688004 158.20955217257142,183.42512030899525 157.50437786057591,179.70850773027632" stroke="#4dd2ff" stroke-linecap="round" stroke-linejoin="round" stroke-width="0.5"><title>2023-10-18 1.0km</title><desc>10058081424</desc></polyline><polyline fill="none" points="177.7263922635466,180.3195353973424 178.90426523331553,182.0236841745209 179.68951387982816,186.60357408085838 181.75079157715663,192.0355177578749 183.12497670855373,194.9112444005441 183.7139131934382,195.23076923075132 184.00838143611327,195.23076923075132 184.20469359727576,194.80473610840272 183.5176010322757,193.95266948721837 182.63419630471617,192.5680601595668 181.45632333448157,190.01185484672897 180.965542930644,188.52073299826588 178.90426523331553,184.36688547045924 178.70795307168737,183.7278309474932 178.5116409100592,181.17161003663205 177.33376794075593,178.61538461537566" stroke="#4dd2ff" stroke-linecap="round" stroke-linejoin="round" stroke-width="0.5"><title>2023-10-17 1.0km</title><desc>10051702317</desc></polyline><polyline fill="none" points="16.048981571104378,199.01899072784 16.446705028880388,199.99002358946018 17.44101367238909,201.71630264632404 18.932476637419313,205.6004230992403 19.727923552505672,207.11091161018703 20.62280133133754,209.91610043437686 21.716540839523077,212.7212838968262 22.114264296833426,213.47652468213346 22.611418618354946,213.69230769225396 22.71084948303178,213.58441619121004 22.611418618354946,213.26074164023157 21.517679110635072,211.64236781513318 20.02621614560485,207.97404720413033 18.932476637419313,205.70831518713385 18.037598858587444,201.50051787507255 17.540444536600262,199.6663460403215 15.750688978470862,197.0769230768783" stroke="#4dd2ff" stroke-linecap="round" stroke-linejoin="round" stroke-width="0.5"><title>2023-10-16 1.0km</title><desc>10046279660</desc></polyline><polyline fill="none" points="36.42065507499501,198.70589061628561 37.32138162944466,200.00906335446052 37.72170454263687,200.87784454098437 38.122027455829084,202.83260034269188 39.02275400981307,205.87332644837443 40.22372274892405,207.71947852999438 41.62485294416547,212.93213077646215 42.1252565854229,213.47511432762258 42.825821683276445,213.69230769225396 42.92590241180733,213.47511432762258 42.825821683276445,212.82353404222522 41.524772216100246,210.97738833958283 40.824207118246704,208.80544926482253 40.02356129232794,207.50228428724222 38.122027455829084,203.04979527217802 37.42146235797554,200.00906335446052 35.92025143420324,197.0769230768783" stroke="#4dd2ff" stroke-linecap="round" stroke-linejoin="round" stroke-width="0.5"><title>2023-10-15 1.0km</title><desc>10039610121</desc></polyline><polyline fill="none" points="55.6809591059573,197.0769230768783 57.595003948546946,200.42309106816538 57.91401142207906,203.76925192552153 58.764698018785566,206.1923294721637 59.8280562646687,207.69232798321173 60.466071212198585,209.76924663211685 62.27378022996709,213.00000351166818 62.69912352785468,213.46153966605198 63.23080265149474,213.69230769225396 63.54981012456119,213.46153966605198 63.54981012456119,213.1153875628952 61.42309363326058,211.3846259030979 60.04072791384533,208.84617201634683 59.50904879113659,206.65386762830894 58.23301889607683,203.76925192552153 57.595003948546946,201.34617063810583 57.70133977336809,199.84616606147029 57.595003948546946,199.38462590344716 56.53164570266381,197.1923082987778" stroke="#4dd2ff" stroke-linecap="round" stroke-linejoin="round" stroke-width="0.5"><title>2023-10-14 1.0km</title><desc>10033377496</desc></polyline><polyline fill="none" points="76.33219187473878,198.2793584590545 77.13810501853004,200.13766577327624 78.9514095922932,202.32390669872984 79.15288787847385,203.963585283258 80.86545330891386,209.21054460247979 82.47727959696203,213.03644076676574 82.98097531171516,213.69230769225396 83.38393188361079,213.69230769225396 83.38393188361079,213.36437426588964 83.2831927407533,213.03644076676574 82.37654045363888,212.38057355210185 81.36914902413264,210.52228153927717 80.26101845130324,207.02431380318012 78.24623559135944,202.54253061441705 77.9440181623213,201.0121625290485 77.44032244756818,199.91904150368646 76.63440930377692,197.84210934175644 76.23145273188129,197.0769230768783" stroke="#4dd2ff" stroke-linecap="round" stroke-linejoin="round" stroke-width="0.5"><title>2023-10-13 1.0km</title><desc>10028006924</desc></polyline><polyline fill="none" points="96.38757813675329,197.0769230768783 97.034579067491,198.36403653386515 98.11291395220906,199.76815911813173 98.75991488294676,200.93826032499783 98.8677483717911,202.45939060824458 98.75991488294676,204.09752928745002 99.9460832560435,206.5547341449419 101.34791860589758,210.29903901345097 102.74975395621732,212.87324350094423 103.07325442135334,213.34128023358062 103.61242186371237,213.69230769225396 103.61242186371237,213.1072618844919 102.42625349061564,211.5861417776905 101.34791860589758,209.71399195853155 99.9460832560435,205.8526760013774 99.08341534854844,204.3315489612287 98.65208139456809,203.04444033035543 98.43641441734508,201.05527039873414" stroke="#4dd2ff" stroke-linecap="round" stroke-linejoin="round" stroke-width="0.5"><title>2023-10-12 1.0km</title><desc>10021974100</desc></polyline><polyline fill="none" points="117.28996571945027,198.48869504826143 119.19150011567399,201.20363735419232 119.59182314621285,203.37558760645334 119.49174238881096,204.24436681333464 120.39246920729056,207.1764928632183 121.09303451096639,208.47965812822804 121.79359981510788,210.8687914616894 122.79440739145502,213.25792093097698 122.99456890719011,213.47511432738975 123.49497269559652,213.69230769225396 123.39489193772897,213.25792093097698 122.29400360351428,210.43440387025476 121.09303451096639,208.3710610665148 119.49174238881096,204.67875622480642 119.09141935780644,203.26699016976636 118.89125784253702,201.20363735419232 118.29077329626307,199.1402816568734 116.88964268891141,197.0769230768783" stroke="#4dd2ff" stroke-linecap="round" stroke-linejoin="round" stroke-width="0.5"><title>2023-10-10 1.0km</title><desc>10009069592</desc></polyline><polyline fill="none" points="137.2113312142901,198.7166074477136 138.42020137468353,200.6842263059225 139.12537563452497,202.65184256003704 139.83054989483207,205.275326848845 141.34163759509102,208.55467570014298 142.55050775501877,212.70850719569717 143.2556820148602,213.69230769225396 143.457160375081,213.3643742656568 143.5578995551914,212.16195108287502 142.8527252948843,210.08503602212295 141.34163759509102,207.46156021999195 139.62907153461128,202.65184256003704 139.12537563452497,200.4656021167757 138.31946219410747,198.82591967482585 137.3120703944005,197.0769230768783" stroke="#4dd2ff" stroke-linecap="round" stroke-linejoin="round" stroke-width="0.5"><title>2023-10-09 1.0km</title><desc>10003389142</desc></polyline><polyline fill="none" points="157.43332705879584,198.2873215628788 158.1431713202037,199.49771906947717 158.85301558300853,200.37800755084027 159.56285984488204,202.0285470574163 159.96848513791338,205.3296206103405 161.4895799853839,208.63068688230123 162.80786218633875,212.37188652250916 163.4163001254201,213.47223757824395 163.9233317412436,213.69230769225396 163.9233317412436,212.81202704203315 161.9966116012074,209.731040688348 159.46145352208987,203.56904895463958 158.4473902899772,199.60775515821297 157.23051441228017,197.0769230768783" stroke="#4dd2ff" stroke-linecap="round" stroke-linejoin="round" stroke-width="0.5"><title>2023-10-08 1.0km</title><desc>9996447828</desc></polyline><polyline fill="none" points="177.6573655740358,198.3632821958745 177.95373368728906,199.2208543115994 179.3367848857306,201.68637133471202 179.83073174208403,203.50870732415933 181.31257231114432,207.47496013424825 181.80651916749775,209.19009314279538 183.38714910764247,213.1563304985175 183.88109596446157,213.69230769225396 183.979885335546,213.26352595316712 183.979885335546,212.8347440881189 182.10288728168234,209.51168035739101 181.2137829400599,207.5821560061304 179.63315299944952,202.8655301759718 179.1392061430961,200.40001514705364 178.54646991519257,198.68487179849762 177.55857620295137,197.0769230767619" stroke="#4dd2ff" stroke-linecap="round" stroke-linejoin="round" stroke-width="0.5"><title>2023-10-07 1.0km</title><desc>9989974159</desc></polyline><polyline fill="none" points="16.551108421292156,218.4461679549422 18.560854028444737,221.87309997587 19.326471402309835,224.3654089506017 19.900684433057904,225.61156178917736 21.04911049408838,230.4923164874781 21.336217009462416,231.4269271651283 21.910430040210485,232.15384615387302 22.38894089870155,232.15384615387302 22.580345241818577,231.73846392030828 22.484643070958555,231.4269271651283 21.336217009462416,229.7653966435464 20.187790947966278,227.2730971967103 19.80498226126656,225.61156178917736 17.79523665457964,220.73079022637103 17.508130139205605,218.96540061372798 16.933917108457536,217.51154868816957 15.881193219218403,215.53846153849736" stroke="#4dd2ff" stroke-linecap="round" stroke-linejoin="round" stroke-width="0.5"><title>2023-10-06 1.0km</title><desc>9984428862</desc></polyline><polyline fill="none" points="35.741094689350575,215.53846153849736 36.44242463866249,216.67998163157608 38.19574951240793,221.37288963340688 39.364632761105895,225.3047756983433 41.35173428431153,230.25132931023836 42.16995255835354,231.90017736307345 42.5206175330095,232.15384615387302 42.988170832861215,232.15384615387302 43.10505915712565,231.90017736307345 42.754394182469696,231.26600522128865 41.35173428431153,229.23665280279238 40.53351600980386,227.5878022046527 39.13085611118004,223.90959134639706 38.546414487063885,222.00706541130785 36.909977938979864,218.96301955112722 36.909977938979864,217.82150096900295 36.32553631393239,215.6652971416479" stroke="#4dd2ff" stroke-linecap="round" stroke-linejoin="round" stroke-width="0.5"><title>2023-10-04 1.0km</title><desc>9971682885</desc></polyline><polyline fill="none" points="56.884519995655864,217.23175791895483 58.152421426493675,219.34837559377775 58.640075822826475,221.0416674928274 59.127730218693614,222.2058045178419 59.51785373641178,224.00492352293804 61.370940442197025,227.7089849829208 61.46847132174298,228.97894671792164 62.05365659715608,231.51886682689656 62.24871835531667,231.8363565254258 62.833903631195426,232.15384615387302 62.833903631195426,231.09554711997043 61.56600220128894,228.76728650659788 60.68822428770363,226.75651294644922 60.20056989090517,225.80404027970508 59.71291549457237,224.42824531521183 58.73760670237243,222.41746569413226 58.34748318511993,220.83000611432362 58.152421426493675,219.2425447840942 57.85982878878713,217.65508170309477 56.396865599788725,215.53846153849736" stroke="#4dd2ff" stroke-linecap="round" stroke-linejoin="round" stroke-width="0.5"><title>2023-10-03 1.0km</title><desc>9965060084</desc></polyline><polyline fill="none" points="76.19526964752004,215.53846153849736 78.24410638026893,218.58072803204414 79.53810852719471,222.79308742273133 79.75377555191517,224.6652435733704 80.50861013773829,225.6013208227232 81.04777769884095,227.005435664556 82.01827930891886,230.63272660633083 82.77311389474198,231.80281869485043 83.31228145537898,232.15384615387302 83.42011496797204,232.0368370093638 83.09661443158984,231.10076354490593 81.91044579679146,228.8775868602097 79.96944257616997,224.19720474199858 78.78327394137159,220.68690912087914 78.56760691711679,217.99567723507062 77.59710530703887,216.0065029161051" stroke="#4dd2ff" stroke-linecap="round" stroke-linejoin="round" stroke-width="0.5"><title>2023-10-02 1.0km</title><desc>9958643020</desc></polyline><polyline fill="none" points="96.62523796549067,217.17814590933267 98.53928210493177,220.8947571220342 98.74076043488458,221.87856441759504 100.95702206948772,227.12552566535305 102.06515288678929,230.51417829771526 102.6695878780447,231.71660156885628 103.27402286883444,232.15384615387302 103.37476203450933,232.04453501966782 103.27402286883444,231.60729040252045 101.25923956464976,228.54657448385842 99.34519542613998,223.84617705526762 98.43854293925688,221.0040690760361 98.0355862788856,218.4898921039421 96.62523796549067,215.53846153849736" stroke="#4dd2ff" stroke-linecap="round" stroke-linejoin="round" stroke-width="0.5"><title>2023-10-01 1.0km</title><desc>9952075403</desc></polyline><polyline fill="none" points="116.88152791094035,216.77339499245863 118.22653219709173,218.9064595156815 119.15768901072443,220.8149884052109 119.57153648277745,222.72351490950678 119.88192208716646,224.51977296976838 121.43385011004284,228.8981431396678 122.77885439619422,231.70478408189956 123.39962560450658,232.15384615387302 123.60654934169725,231.81704961217474 121.53731197817251,228.67361164162867 120.60615516453981,226.54056076181587 120.2957695601508,225.4179012074601 118.84730340586975,222.2744500641711 118.01960846036673,218.79419303592294 117.29537538345903,216.6611283563543 116.77806604281068,215.53846153849736" stroke="#4dd2ff" stroke-linecap="round" stroke-linejoin="round" stroke-width="0.5"><title>2023-09-30 1.0km</title><desc>9945549317</desc></polyline><polyline fill="none" points="137.34242770215496,216.74886002438143 138.86352154333144,218.3994018365629 139.7761778482236,219.93990588583983 140.08039661636576,221.15030081220903 140.89164666458964,223.13094494387042 141.29727168940008,226.1019062269479 141.60149045754224,226.98218991886824 142.81836553057656,229.95314355718438 143.12258429871872,231.8237409706926 143.32539681112394,232.04381110088434 143.6296155792661,232.15384615387302 143.73102183500305,231.9337760397466 141.90570922615007,228.63272044621408 140.68883415311575,225.7717997089494 140.28320912877098,224.12126602674834 138.86352154333144,220.82019320235122 138.25508400658146,218.8395460123429 137.0382089340128,215.53846153849736" stroke="#4dd2ff" stroke-linecap="round" stroke-linejoin="round" stroke-width="0.5"><title>2023-09-28 1.0km</title><desc>9933629332</desc></polyline><polyline fill="none" points="156.82488718861714,215.53846153849736 158.54879556968808,219.2796900587855 159.36004657298326,222.14062320569064 160.88114220276475,224.23130166216288 161.89520595641807,227.9725084535312 163.31489521171898,230.50331950979307 163.72052071336657,231.9337760397466 164.12614621408284,232.15384615387302 164.3289589653723,231.82374097045977 164.12614621408284,231.3836006129859 163.31489521171898,230.28324915282428 160.98254857817665,225.55172865628265 159.76567207369953,222.25065898650791 158.44738919427618,217.6291492175078 157.83895094227046,216.63882383867167" stroke="#4dd2ff" stroke-linecap="round" stroke-linejoin="round" stroke-width="0.5"><title>2023-09-27 1.0km</title><desc>9927137811</desc></polyline><polyline fill="none" points="182.18637660949025,215.53846153846825 181.9098603478633,216.1385751440248 181.59877955366392,217.6388560689229 181.28769875958096,218.50151560251834 181.04574703075923,219.55170784817892 179.62860119051766,222.51473859942053 178.9027460042853,223.75245520920726 178.7644878734136,224.27754619685584 178.83361693867482,224.69011730811326 179.00643960223533,225.29022014682414 179.5249075924512,226.56543633530964 179.6977302558953,226.90299302802305 179.90511745214462,227.50309326357092 180.59640810568817,228.36573611549102 180.90748889988754,229.04084689498995 181.25313422689214,229.56593243926181 181.5296504884027,230.31605370770558 181.94442488066852,230.87864393516793 182.4628928708844,231.74128107889555 182.77397366508376,232.15384615384392" stroke="#4dd2ff" stroke-linecap="round" stroke-linejoin="round" stroke-width="0.5"><title>2023-09-26 1.0km</title><desc>9920397094</desc></polyline><polyline fill="none" points="19.483167129568756,234.0 18.810106065589935,236.00847671349766 18.22117763455026,237.97129995079013 17.632249203510582,239.0211795999785 17.085387088591233,239.70588276250055 16.79092287342064,240.2536447487655 16.664723923895508,240.80140625167405 16.706790240015835,241.4861074507353 16.917121822945774,242.03386786626652 17.421917620813474,242.80986096098786 17.632249203510582,243.58585308579495 18.052912368439138,244.59007674863096 18.85217238194309,245.5942987871822 20.198294510133564,248.33307790919207 21.081687156809494,249.51987844338873 21.796814537374303,250.61538461537566" stroke="#4dd2ff" stroke-linecap="round" stroke-linejoin="round" stroke-width="0.5"><title>2023-09-25 1.0km</title><desc>9914573673</desc></polyline><polyline fill="none" points="40.61992870434187,233.9999999999709 40.39195693656802,234.53598783386406 40.01200399012305,235.1132049280859 39.93601340078749,235.40181325236335 40.01200399012305,235.77288087960915 40.04999928479083,236.1439482612186 39.29009339190088,237.5457561535004 39.10011691856198,238.49403597577475 38.83414985612035,239.19493742237682 37.23834748077206,241.99853444757173 37.20035218610428,242.32836846998543 37.352333364542574,242.9880359331728 37.77028160588816,243.6477026202483 37.99825337366201,244.22491033480037 38.3402110254392,244.80211745519773 38.530187498778105,245.3793239814404 39.02412632922642,246.16267474542838 39.40407927567139,246.94602441511233 39.82202751701698,247.39954214473255 39.93601340078749,247.81183067156235 40.20198046322912,248.14166127471253 40.771909883245826,249.13115192050464 41.18985812412575,249.58466788294027 41.30384400812909,249.99695480332593 41.645801660139114,250.61538461537566" stroke="#4dd2ff" stroke-linecap="round" stroke-linejoin="round" stroke-width="0.5"><title>2023-09-24 1.0km</title><desc>9907510217</desc></polyline><polyline fill="none" points="60.18856591777876,234.0 59.69726765854284,235.59936170827132 59.4106770073995,236.0436280981521 59.205969399539754,236.4878941613133 59.083144834730774,237.06543955515372 59.04220331297256,237.82069039088674 58.346197445876896,238.7536460023839 57.936782230157405,239.81987922283588 57.5683085359633,240.3529951274395 57.32265940634534,241.06381560198497 57.281717884587124,241.8190614398336 58.14148983801715,243.9959412201424 58.469022010685876,244.66233142180135 59.53350157220848,246.35051664331695 59.983858309686184,247.46116224321304 60.55703961197287,248.17197435570415 60.884571784641594,248.7495085815317 61.08927939273417,249.3270422553178 61.949051345931366,250.61538461537566" stroke="#4dd2ff" stroke-linecap="round" stroke-linejoin="round" stroke-width="0.5"><title>2023-09-23 1.0km</title><desc>9901004991</desc></polyline><polyline fill="none" points="80.36789258453064,234.0 80.07741836691275,235.03566045319894 79.7869441495277,235.57600434223423 79.49646993190981,236.52160500071477 78.8325288631022,237.91748901846586 78.16858779452741,238.86308606143575 77.58763935929164,240.4390778883826 77.5461430423893,241.294614610204 77.62913567642681,241.78992479777662 78.45906201191247,243.77116154169198 78.58355096238665,244.35652571672108 78.74953622953035,244.67172157915775 79.33048466453329,245.39216865581693 79.7869441495277,246.29272630956257 80.1604110004846,247.2383104210021 80.78285575238988,248.13886536023347 81.488293137867,249.62477811501594 82.06924157310277,250.61538461537566" stroke="#4dd2ff" stroke-linecap="round" stroke-linejoin="round" stroke-width="0.5"><title>2023-09-22 1.0km</title><desc>9895405405</desc></polyline><polyline fill="none" points="100.93875454203226,234.0 100.60497514926828,234.45274121768307 100.4798078769818,234.90548210247653 100.22947333264165,235.17712647351436 99.68708181916736,236.1731548086973 99.47846969892271,236.89753804041538 98.85263333772309,238.4821233887924 98.18507455242798,239.84033615596127 97.76785031147301,240.8363569478388 97.64268303918652,241.33436673949473 97.64268303918652,241.65128185180947 97.76785031147301,242.1040174435475 98.01818485604599,242.5567527025123 98.56057636928745,243.96022988960613 99.10296788206324,244.95624401717214 99.39502485073172,245.6806169162155 99.93741636374034,246.58608184178593 100.27119575650431,246.99354062398197 100.52153030084446,247.71791112649953 101.1890890863724,248.8950113756 101.94009271962568,249.80047157465015 102.35731696081348,250.61538461537566" stroke="#4dd2ff" stroke-linecap="round" stroke-linejoin="round" stroke-width="0.5"><title>2023-09-21 1.0km</title><desc>9889267953</desc></polyline><polyline fill="none" points="121.59130064782221,233.9999999999709 121.68354194157291,234.20018897787668 121.59130064782221,235.53477990668034 121.06859998311847,237.10291923192563 120.76112900394946,238.3374080795911 120.26917543704621,239.3717069606937 119.68498057650868,241.10665462817997 118.67032634501811,243.00841656589182 118.393602463766,244.0427047998819 118.42434956156649,244.27625342967804 118.6088321490679,244.7767143744568 119.00854442222044,245.64417870459147 119.25452120555565,246.37818568872171 119.8694631641265,247.24564695739537 120.23842833924573,247.94628754086443 120.45365802454762,248.44674443814438 120.69963480788283,248.88047330267727 121.09934708103538,249.1807468891202 121.59130064782221,249.91474815289257 121.62204774573911,250.04820280053536 121.80653033335693,250.1816574089753 121.96026582294144,250.4152028792887 121.99101292085834,250.61538461537566" stroke="#4dd2ff" stroke-linecap="round" stroke-linejoin="round" stroke-width="0.5"><title>2023-09-20 1.0km</title><desc>9882714971</desc></polyline><polyline fill="none" points="141.60099660779815,233.9999999999709 141.3863410978811,234.8928961128113 141.0643578330055,235.70814776662155 140.45616722130217,237.49393270441215 140.42039130290505,238.07625257381005 140.20573579287156,238.38682290821453 139.9553043646738,238.96914179279702 139.81220069120172,239.51263883899082 139.52599334460683,240.25024107808713 138.70314722287003,241.57015830260934 138.48849171283655,242.34657865800546 138.41693987627514,243.04535600170493 138.48849171283655,243.74413242045557 138.70314722287003,244.52054957897053 138.9535786510678,245.06404091065633 139.7406488545239,246.4227667922387 140.13418395631015,246.96625616578967 140.49194313946646,247.93677151302109 140.849702322972,248.55790039902786 141.2074615061283,249.06256708092405 141.60099660779815,249.45077189267613 141.85142803622875,249.99425814955612 142.35229089297354,250.61538461537566" stroke="#4dd2ff" stroke-linecap="round" stroke-linejoin="round" stroke-width="0.5"><title>2023-09-19 1.0km</title><desc>9876194288</desc></polyline><polyline fill="none" points="160.57692307699472,234.0 160.22288486384787,235.0084602482384 159.95735620404594,235.44065702077933 159.514808437787,236.30504970799666 159.38204410788603,236.8813108637696 158.58545812801458,238.27393989113625 157.9658912550658,239.57052286795806 157.83312692516483,240.0507381321513 157.8773817019537,240.5789745146758 158.14291036198847,241.25127474759938 158.54120335145853,241.97159565764014 158.89524156483822,242.98004359711194 159.38204410788603,244.0365111969877 159.9131014274899,244.99693480494898 160.3999039705377,245.62120939284796 160.9752160666976,246.58163067052374 161.32925427984446,247.68611339398194 161.94882115302607,248.6465316354297 162.25860458938405,249.51090684527298 162.83391668577679,250.03913557704072 163.3207192288246,250.61538461537566" stroke="#4dd2ff" stroke-linecap="round" stroke-linejoin="round" stroke-width="0.5"><title>2023-09-18 1.0km</title><desc>9870505463</desc></polyline><polyline fill="none" points="181.25323527608998,234.0 181.20923486654647,234.19098384759855 180.76923076924868,234.6684432210168 180.54922872036695,235.098156356893 180.2412258523982,236.53053142264253 179.84522216487676,237.19897203875007 179.66922052577138,237.72417489712825 178.70121151185594,239.29978092381498 178.34920823411085,240.15920078154886 178.12920618546195,240.92312858899822 178.3052078243345,241.44832843536278 179.27321683824994,243.54912357305875 179.75722134532407,244.31304739270126 180.10922462306917,245.12471546628512 180.681229949696,245.8886374324793 180.98923281789757,246.4138332628645 181.38523650541902,247.65520353725879 183.10125248483382,249.99470260419184 183.40925535280257,250.61538461537566" stroke="#4dd2ff" stroke-linecap="round" stroke-linejoin="round" stroke-width="0.5"><title>2023-09-16 1.0km</title><desc>9856514700</desc></polyline><polyline fill="none" points="19.29734382010065,252.46153846156085 18.720364046283066,253.76188811159227 18.27653345116414,255.1103961330955 17.699553677346557,256.02545356651535 16.50121107045561,258.3371719144634 16.456828010967,258.8669395535835 16.50121107045561,259.49302802904276 16.767509427620098,260.11911590606906 17.211340022739023,260.79336371982936 17.61078755836934,261.7084132140735 18.32091651065275,262.91242375894217 19.20857770112343,264.5980348039302 19.29734382010065,265.2241178015829 19.608025236520916,265.46491879521636 19.963089712895453,265.9465205168235 20.540069486480206,266.9097228979226 21.16143231955357,267.4394836038118 21.294581498019397,267.77660382993054 21.383347617229447,268.2100438657799 22.00471045030281,269.0769230769365" stroke="#4dd2ff" stroke-linecap="round" stroke-linejoin="round" stroke-width="0.5"><title>2023-09-15 1.0km</title><desc>9850671982</desc></polyline><polyline fill="none" points="39.806946779135615,252.46153846156085 39.59368574828841,252.7855195129523 39.25246809865348,254.03515914891614 38.570032799383625,255.84018979861867 37.802293087821454,256.95097531791544 37.46107543841936,257.5526499891421 36.949248964199796,258.8485627123737 36.821292345412076,259.31138803833164 36.821292345412076,259.68164805392735 36.949248964199796,260.1444727673661 37.46107543841936,261.5329448659322 37.930249706609175,262.45859123021364 39.08185927383602,264.4487263042247 39.551033541793004,265.328086309426 39.63633795408532,265.8371889088885 39.97755560372025,266.16116307588527 40.53203428420238,267.04052068892634 41.0012085523922,267.4570580769214 42.02486150083132,269.0769230769365" stroke="#4dd2ff" stroke-linecap="round" stroke-linejoin="round" stroke-width="0.5"><title>2023-09-14 1.0km</title><desc>9844236351</desc></polyline><polyline fill="none" points="56.80630730651319,252.62092106955242 56.843027271097526,252.66076671428164 56.843027271097526,252.89984052084037 57.173506954684854,253.01937738453853 57.467266673222184,253.25845103294705 57.57742656767368,253.49752457582508 57.650866497308016,254.0155168901838 57.871186286211014,254.4538176926435 58.01806614571251,255.6890271375305 58.01806614571251,256.2867081161821 57.94462621584535,256.60547103526187 58.01806614571251,257.0039244205109 58.20166596956551,257.4820680960838 58.12822604016401,257.8805208367412 58.164946004981175,258.0797470972175 58.53214565315284,258.7571158350329 58.862625336507335,259.75324479382834 59.156385055044666,260.31107621101546 59.52358470344916,260.8290620127518 59.92750431643799,261.187667277758 60.03766421088949,261.42673732264666 60.14782410534099,261.9447220580769 60.44158382411115,262.46270629845094 60.772063507465646,263.41898359535844 61.21270308503881,264.2557248460653 61.43302287417464,264.9729306041554 61.54318276862614,265.5706013441086 61.76350255752914,266.0487374616787 62.167422170517966,267.36360960968887 62.71822164300829,268.39956723724026 62.75494160805829,268.55894515800173 62.71822164300829,268.678478567861 62.277582065202296,269.0769230769365 62.497901854105294,268.9175453084463 62.60806174855679,268.678478567861 62.681501678191125,268.4792562035145 62.64478171337396,268.20034477033187 62.42446192447096,267.9214331936091 61.76350255752914,266.4870285320503 61.43302287417464,265.41122254455695 60.73534354264848,263.8572767924925 60.40486385906115,262.3431715177139 60.22126403497532,261.9048770960653 59.52358470344916,260.9884421598399 58.82590537169017,259.6735545445117 58.49542568810284,258.59773503174074 58.385265794117004,257.8805208367412 58.09150607511401,257.1234603789926 57.50398663803935,255.84840879630065 57.357106778770685,255.2507273342053 56.843027271097526,254.29443562368397 56.73286737664603,253.77644357588724 56.69614741182886,253.13891422192683 56.47582762292586,252.46153846156085" stroke="#4dd2ff" stroke-linecap="round" stroke-linejoin="round" stroke-width="0.5"><title>2023-09-13 1.0km</title><desc>9837636972</desc></polyline></svg>