<?xml version="1.0" encoding="utf-8" ?>
<svg baseProfile="full" height="300mm" version="1.1" viewBox="0,0,200,300" width="200mm" xmlns="http://www.w3.org/2000/svg" xmlns:ev="http://www.w3.org/2001/xml-events" xmlns:xlink="http://www.w3.org/1999/xlink"><defs /><rect fill="#222222" height="300" width="200" x="0" y="0" /><text fill="#FFFFFF" style="font-size:12px; font-family:Arial; font-weight:bold;" x="10" y="20">Over 1km Runs</text><text fill="#FFFFFF" style="font-size:4px; font-family:Arial" x="10" y="280">ATHLETE</text><text fill="#FFFFFF" style="font-size:9px; font-family:Arial" x="10" y="290">Jiakai</text><text fill="#FFFFFF" style="font-size:4px; font-family:Arial" x="120" y="280">STATISTICS</text><text fill="#FFFFFF" style="font-size:3px; font-family:Arial" x="120" y="285">Number: 113</text><text fill="#FFFFFF" style="font-size:3px; font-family:Arial" x="120" y="290">Weekly: 5.1</text><text fill="#FFFFFF" style="font-size:3px; font-family:Arial" x="141" y="285">Total: 116.7 km</text><text fill="#FFFFFF" style="font-size:3px; font-family:Arial" x="141" y="290">Avg: 1.0 km</text><text fill="#FFFFFF" style="font-size:3px; font-family:Arial" x="167" y="285">Min: 1.0 km</text><text fill="#FFFFFF" style="font-size:3px; font-family:Arial" x="167" y="290">Max: 1.5 km</text><polyline fill="none" points="18.185049899853766,47.53846153843915 20.052405847702175,46.971111071296036 20.724653989076614,46.48481043858919 22.44262146158144,45.91745942895068 23.563035029917955,45.26905791769968 24.08589469594881,44.782756534114014 24.459365885239094,44.21540464874124 24.534060122910887,43.89120344026014 24.459365885239094,43.242800737556536 24.16058893315494,42.43229682254605 23.264258078299463,40.97338827402564 22.592009937390685,40.24393327598227 22.06915027135983,39.271325860812794 21.695679082069546,38.29871758760419 21.5462906062603,37.569260819698684 21.023430940695107,36.596651044965256 19.305463468190283,34.48932692257222 18.48382685147226,32.625152225547936 17.736884471960366,31.65253808867419 17.214024806395173,31.247281945194118 15.944222761783749,30.92307692306349 13.927478338126093,31.085179445974063" stroke="#4dd2ff" stroke-linecap="round" stroke-linejoin="round" stroke-width="0.5"><title>2024-03-19 1.0km</title><desc>10989237649</desc></polyline><polyline fill="none" points="31.115384615492076,32.93929942313116 31.89423076948151,34.06613488995936 33.278846154455096,39.70029731176328 34.403846153989434,41.67224828817416 35.26923076948151,44.019805004354566 35.9615384619683,44.77102224261034 37.0,45.52223903860431 37.60576923098415,45.52223903860431 38.55769230751321,45.428336963406764 39.25,45.052728592650965 41.240384615026414,44.67712011188269 43.83653846150264,43.92590281867888 45.39423076948151,42.986880580778234 47.03846153849736,42.14175997651182 47.64423076901585,41.484443564200774 47.73076923051849,40.63932196586393 47.55769230797887,39.888102297787555 46.778846153989434,38.103953815530986" stroke="#4dd2ff" stroke-linecap="round" stroke-linejoin="round" stroke-width="0.5"><title>2024-03-18 1.0km</title><desc>10982820714</desc></polyline><polyline fill="none" points="51.30769230751321,32.772515885182656 52.0516647528857,33.93859502079431 52.96096440823749,37.257429538527504 54.11825487902388,40.127765625016764 54.28358208946884,41.29383773112204 55.27554534981027,43.446583306998946 55.523536164779216,44.1641643216135 55.93685419019312,44.881744914338924 56.928817451000214,45.59932508470956 57.672789896372706,45.689022576552816 59.65671641752124,45.41993008181453 62.13662456907332,44.61265224148519 65.11251435102895,43.35688565066084 66.84845005720854,42.459908723132685 67.75774971256033,41.74232670618221 67.92307692300528,41.47323334089015 67.92307692300528,41.114442095160484 67.59242250258103,40.307161406381056" stroke="#4dd2ff" stroke-linecap="round" stroke-linejoin="round" stroke-width="0.5"><title>2024-03-17 1.0km</title><desc>10975003116</desc></polyline><polyline fill="none" points="71.5,32.843508695834316 72.3349439506419,33.84010730055161 72.6689215307124,34.474305993062444 73.67085427138954,37.28289627924096 74.08832624694332,39.27608550270088 75.1737533826381,42.26586329273414 75.34074217267334,43.26245427771937 75.92520293779671,44.44024258421268 76.42616930790246,45.07443582173437 77.01063007395715,45.52743079152424 77.67858523409814,45.618029765668325 78.68051797477528,45.618029765668325 80.2669114805758,45.255633829627186 81.18534982623532,44.89323778718244 82.43776575196534,44.71203972620424 84.52512562833726,43.89664812118281 86.44549671467394,42.99065681628417 87.94839582545683,41.99406561162323 88.11538461549208,41.722267870558426 87.8649014304392,40.725675640045665" stroke="#4dd2ff" stroke-linecap="round" stroke-linejoin="round" stroke-width="0.5"><title>2024-03-16 1.0km</title><desc>10967572329</desc></polyline><polyline fill="none" points="91.69230769248679,32.6623074010713 92.3602628535591,33.6589065187145 92.52725164359435,34.655504830298014 92.77773482864723,35.3803030961426 93.77966756932437,36.920497995684855 93.94665635935962,37.37349612941034 93.94665635935962,38.00769323646091 95.11557789007202,40.09148143371567 95.53304986516014,42.44706384849269 96.20100502576679,44.44024545175489 96.53498260583729,45.165037962957285 96.9524545809254,45.527434058487415 98.45535369217396,45.79923106043134 100.04174719797447,45.61803306569345 102.88055662997067,44.80264176055789 105.80286045651883,43.62485336721875 106.63780440716073,43.262456712080166 108.14070351794362,42.265865360968746 108.30769230797887,41.72226973879151 108.05720912339166,40.816276502329856" stroke="#4dd2ff" stroke-linecap="round" stroke-linejoin="round" stroke-width="0.5"><title>2024-03-12 1.0km</title><desc>10939588558</desc></polyline><polyline fill="none" points="123.19253177102655,32.3825436278712 122.15797174395993,31.484410436241888 121.3303237222135,31.259877055650577 119.98539568670094,31.14761035318952 118.53701164852828,31.596677114022896 117.19208361348137,32.3825436278712 116.67480359971523,33.05614317476284 116.26097958860919,33.72974242444616 116.054067583289,35.41373924841173 116.054067583289,37.32226673618425 115.9506115806289,41.58837837446481 116.1575235859491,44.50728999450803 116.46789159392938,45.742212461074814 117.81281962990761,46.97713392879814 119.57157167606056,47.53846153849736 121.5372357275337,47.20166499749757 122.88216376304626,46.52807169267908 123.81326778745279,45.62994682381395 124.43400380387902,43.833695500623435 124.43400380387902,38.781727322610095 124.22709179809317,36.1996037971694 124.43400380387902,34.627874295110814 124.12363579543307,33.392942836973816 123.5028997794725,32.27027700794861 122.36488374928012,31.484410436241888 120.19230769248679,30.923076923121698 118.74392365431413,31.37214374996256 117.3989956183359,32.27027700794861 116.67480359971523,33.28067629085854 116.054067583289,34.627874295110814 116.054067583289,38.55719501536805" stroke="#4dd2ff" stroke-linecap="round" stroke-linejoin="round" stroke-width="0.5"><title>2024-03-11 1.0km</title><desc>10935364964</desc></polyline><polyline fill="none" points="132.07692307699472,33.52469286730047 132.43044189875945,35.15500651253387 132.25368248810992,35.82631153881084 132.43044189875945,36.9771193517372 133.57937806891277,40.429536698618904 133.84451718488708,41.10083901043981 134.2864157119766,41.676240717293695 134.90507364971563,43.306544174440205 135.70049099856988,44.07374509656802 136.31914893630892,44.45734538824763 138.79378068773076,44.93684559420217 139.85433715209365,44.745045533170924 141.44517184980214,44.745045533170924 143.74304419010878,44.07374509656802 146.65957446815446,42.82704336917959 147.4549918170087,42.25164217001293 148.51554828183725,41.77214097708929 148.6923076924868,41.48444017674774 148.33878887118772,39.56643321865704 147.80851063877344,38.511528189410456" stroke="#4dd2ff" stroke-linecap="round" stroke-linejoin="round" stroke-width="0.5"><title>2024-03-08 1.0km</title><desc>10912839308</desc></polyline><polyline fill="none" points="152.26923076901585,32.91594249056652 152.85962514579296,34.38025670754723 153.70304568530992,36.02760814258363 156.99238578649238,44.81344564491883 157.49843810964376,45.36255842994433 159.10093713365495,45.545595971052535 161.7155408039689,45.088002067641355 164.24580242065713,44.35585147223901 167.9568527918309,42.61699208256323 168.63158922316507,41.88484003371559 168.88461538450792,41.06116846448276 168.80027333041653,40.6950920362724 167.9568527918309,39.50534290180076" stroke="#4dd2ff" stroke-linecap="round" stroke-linejoin="round" stroke-width="0.5"><title>2024-03-07 1.0km</title><desc>10906173208</desc></polyline><polyline fill="none" points="172.46153846150264,33.021702546509914 173.22448979550973,34.217528159730136 173.47880690684542,36.977121366537176 174.15698587102816,39.09280536987353 176.5306122447364,44.42799262306653 176.7849293560721,44.8879214937333 177.46310831978917,45.255864468286745 178.3956043953076,45.43983591499273 179.07378335902467,45.43983591499273 179.9215070642531,45.16387873457279 181.10832025110722,45.07189299433958 183.1428571427241,44.703949965536594 187.04238618491217,43.140190886100754 188.483516483102,42.31231764110271 189.07692307699472,41.76040184008889 189.07692307699472,41.300471819820814 188.65306122414768,40.47259735758416" stroke="#4dd2ff" stroke-linecap="round" stroke-linejoin="round" stroke-width="0.5"><title>2024-03-06 1.0km</title><desc>10898894581</desc></polyline><polyline fill="none" points="10.923076923005283,51.66744403238408 11.591032083146274,52.482842831057496 11.674526478163898,52.754642310668714 12.008504058234394,53.84183962945826 12.843448008876294,58.009420466725715 13.344414379447699,58.91541443578899 14.179358329623938,61.270995638449676 15.26478546531871,62.72058183257468 15.598763045389205,63.35477525671013 16.183223811443895,63.626572338165715 17.435639736708254,63.71717135224026 21.025898723863065,63.44537429057527 22.77928102016449,62.72058183257468 23.61422497080639,62.2675863300683 26.035562427248806,61.45219400583301 26.620023192837834,60.817999602877535 27.2044839579612,60.636801142129116 27.538461538031697,60.1838048734935 27.120989562943578,58.91541443578899 26.3695400073193,57.46582376526203" stroke="#4dd2ff" stroke-linecap="round" stroke-linejoin="round" stroke-width="0.5"><title>2024-03-05 1.0km</title><desc>10891326638</desc></polyline><polyline fill="none" points="43.182762493379414,64.56846069428138 44.03172375098802,64.43686068122042 46.639247613959014,63.252459693234414 47.6094890513923,62.39705800503725 47.73076923098415,61.87065655976767 47.30628860229626,60.554651592159644 46.821167883463204,59.30444508063374 45.850926446029916,57.92263585195178 45.36580572742969,57.46203230158426 43.91044357139617,55.093210298451595 42.27316114585847,52.921784621081315 42.394441325217485,52.32957670366159 42.27316114585847,52.06637305923505 41.48483997792937,50.816154690342955 38.816676025046036,51.01355770678492 37.90707467729226,51.34256263746647 36.33043234143406,51.53996553784236 34.632509825984016,52.26377579988912 33.48034811927937,53.053386327112094 32.3888265020214,53.31658968148986 31.843065693508834,53.71139456774108 31.418585064820945,53.77719536528457 31.236664795316756,53.974597728578374 31.115384615492076,54.36940232454799 31.297304884996265,54.69840602169279 31.357944974908605,55.42221372923814 31.661145424004644,56.40922329633031 31.539865244412795,57.59363334014779 31.903705783421174,58.449039619241375 31.843065693508834,59.63344696350396 32.26754632266238,61.739056150079705" stroke="#4dd2ff" stroke-linecap="round" stroke-linejoin="round" stroke-width="0.5"><title>2024-03-04 1.0km</title><desc>10884866628</desc></polyline><polyline fill="none" points="51.30769230751321,51.35527794808149 51.88347296277061,52.33707601646893 52.04798172134906,53.5866360461805 52.459253617562354,54.925448936759494 52.459253617562354,55.46097367932089 52.87052551424131,56.532022456172854 53.28179741092026,58.138593849609606 54.35110434098169,60.7269544005394 55.91393754770979,63.136802366701886 56.818735720124096,63.85083047498483 57.80578827112913,64.02933743654285 60.19116527028382,63.76157698442694 63.48134044185281,63.0475488237571 64.4683929933235,62.33352024271153 65.8667174410075,61.70874489005655 67.7585681648925,60.54844695352949 67.92307692300528,59.8344169028569 67.59405940631405,59.120386432507075" stroke="#4dd2ff" stroke-linecap="round" stroke-linejoin="round" stroke-width="0.5"><title>2024-03-03 1.0km</title><desc>10877188327</desc></polyline><polyline fill="none" points="71.5,60.99036835809238 73.01969981193542,64.28839962091297 74.23545966204256,65.38774175883736 75.24859287030995,65.82747838797513 75.7551594749093,65.82747838797513 77.88273921143264,65.60761008947156 82.1378986868076,64.50826811336447 86.1904315194115,62.85925363365095 87.91275797365233,61.54004074039403 88.11538461549208,61.32017181185074 87.91275797365233,60.11089212622028 87.30487804906443,58.57180747576058 83.96153846103698,52.85519347595982 82.44183864910156,49.55713699653279" stroke="#4dd2ff" stroke-linecap="round" stroke-linejoin="round" stroke-width="0.5"><title>2024-03-02 1.0km</title><desc>10870189784</desc></polyline><polyline fill="none" points="99.12997859437019,49.384615384507924 100.34800856281072,51.27273810002953 100.78301926609129,52.31120441004168 100.95702354703099,52.97204617015086 101.0440256879665,54.482540344586596 103.82809418812394,61.0909314667806 104.43710917234421,62.884631760651246 104.43710917234421,63.16784736758564 104.00209846906364,63.54546807927545 102.61006421921775,64.30070916994009 100.60901498468593,64.77273462607991 98.3469593282789,65.71678501786664 97.12892935983837,66.0 96.78092079702765,65.81119001889601 96.34591009374708,64.111898938776 95.56289082812145,62.12938983691856" stroke="#4dd2ff" stroke-linecap="round" stroke-linejoin="round" stroke-width="0.5"><title>2024-01-19 1.0km</title><desc>10585384707</desc></polyline><polyline fill="none" points="117.10994999110699,51.32668303558603 117.60710445884615,52.51350089034531 117.70653535285965,54.131887327414006 117.90539713995531,54.887133720563725 119.7945841178298,58.23179164726753 120.68946216022596,60.28173951175995 121.18661662843078,62.00800917670131 122.08149467036128,63.73427681135945 122.18092556437477,65.35265087452717 122.77751092612743,65.89210849907249 123.07580360677093,66.0 123.4735271804966,65.89210849907249 123.37409628741443,65.46054241538513 122.77751092612743,64.48951826279517 119.8940150118433,57.90811540686991 118.10425892658532,54.239779693307355 117.30881177820265,50.57143480994273 116.91108820354566,49.384615384507924" stroke="#4dd2ff" stroke-linecap="round" stroke-linejoin="round" stroke-width="0.5"><title>2024-01-17 1.0km</title><desc>10572816563</desc></polyline><polyline fill="none" points="137.74805059470236,50.815086217131466 138.45789496134967,51.915447465726174 139.26914566615596,55.10649051191285 140.9930534134619,60.71830833144486 142.2099294704385,63.02905072970316 142.9197738370858,65.22975445876364 143.42680552741513,65.88996494677849 143.7310245418921,66.0 143.7310245418921,65.55985973926727 141.6014914419502,61.048414606601 139.67477101832628,56.096812832634896 138.45789496134967,53.67602378083393 137.03820622805506,49.38461538462434" stroke="#4dd2ff" stroke-linecap="round" stroke-linejoin="round" stroke-width="0.5"><title>2024-01-16 1.0km</title><desc>10566280205</desc></polyline><polyline fill="none" points="157.84257390489802,50.463542174664326 158.24029742134735,51.97403834806755 159.73176060523838,55.10291833279189 160.9249311531894,59.202819939819165 162.31696345843375,62.00800917646848 163.51013400638476,65.46054241480306 163.8084266432561,66.0 164.0072884010151,66.0 161.02436203230172,59.85017177811824 160.32834587898105,57.69233120675199 159.8311914843507,55.7502719797194 159.13517533196136,54.347672050702386 158.43915917910635,51.65036072744988 157.14655775250867,49.384615384507924" stroke="#4dd2ff" stroke-linecap="round" stroke-linejoin="round" stroke-width="0.5"><title>2024-01-09 1.0km</title><desc>10520988068</desc></polyline><polyline fill="none" points="178.02085888944566,51.088766166591085 178.80610799835995,53.00593340001069 179.2968886909075,55.02960717200767 180.2784500764683,57.15978703601286 182.04526057001203,62.591731511754915 183.41944650979713,65.68047517014202 183.71391492523253,66.0 183.91022720281035,65.78698345448356 183.61575878737494,64.61539189389441 183.12497809436172,63.86983313434757 181.65263601625338,60.03552488365676 180.2784500764683,57.15978703601286 179.10057641379535,51.83433150337078 177.628234335687,49.38461538462434" stroke="#4dd2ff" stroke-linecap="round" stroke-linejoin="round" stroke-width="0.5"><title>2024-01-07 1.0km</title><desc>10508221625</desc></polyline><polyline fill="none" points="16.96413734694943,69.1579014871968 18.575964463874698,74.0769448352512 18.77744285436347,75.17006336944178 19.68409560713917,77.46560967504047 20.490009166300297,80.1983982748352 22.101836283225566,84.13360503490549 22.50479306280613,84.46153846150264 22.50479306280613,83.69636035361327 21.598140309099108,82.16600295703392 21.09444433497265,80.52633256919216 19.079660438466817,76.26318109966815 18.374486074782908,74.4048804800259 17.87079010065645,73.5303852672223 16.96413734694943,69.70446266315412 15.956745398696512,67.84615384612698" stroke="#4dd2ff" stroke-linecap="round" stroke-linejoin="round" stroke-width="0.5"><title>2024-01-06 1.0km</title><desc>10501510624</desc></polyline><polyline fill="none" points="36.38023662799969,69.55030462809373 36.57654890511185,70.18936065433081 37.754422567319125,72.00001786532812 38.53967167576775,73.91718185681384 39.12860850710422,76.36688770970795 40.110169892665,79.56214998837095 41.18988741654903,81.90533784707077 41.876980386674404,83.6094720910769 42.26960494089872,84.2485219159862 42.66222949512303,84.46153846150264 42.56407335633412,83.71598041488323 42.07329266378656,82.54438842344098 38.834140091668814,76.36688770970795 38.245203260332346,74.55623595695943 38.04889098322019,72.85209106351249 37.361798013560474,71.0414349178318 36.87101732054725,69.23077650915366 36.18392435088754,67.84615384612698" stroke="#4dd2ff" stroke-linecap="round" stroke-linejoin="round" stroke-width="0.5"><title>2024-01-05 1.0km</title><desc>10495609202</desc></polyline><polyline fill="none" points="56.5827428069897,69.46454373339657 56.781604564748704,70.54346933367196 57.37818983849138,71.9460714282468 57.875344233587384,73.45656449219678 58.57136038597673,74.85916380234994 59.86396181304008,78.5274941221578 61.4548558765091,82.19581527262926 62.051441150251776,84.13786393415648 62.44916466623545,84.46153846150264 62.64802642399445,83.9220808763057 62.54859554488212,83.16683992452454 60.162254449911416,78.31171023962088 59.366807418409735,75.50651687814388 58.57136038597673,70.97503935196437 57.37818983849138,67.84615384601057" stroke="#4dd2ff" stroke-linecap="round" stroke-linejoin="round" stroke-width="0.5"><title>2024-01-04 1.0km</title><desc>10489071805</desc></polyline><polyline fill="none" points="77.22248945431784,70.32768427708652 78.21679824404418,72.48553341522347 79.50939967064187,76.04597755637951 81.10029373411089,79.60641305928584 81.89574076607823,82.62738186365459 82.59175691893324,84.46153846150264 82.69118779804558,84.46153846150264 82.69118779804558,83.70629778678995 82.19403340294957,81.87214024562854 81.19972461322322,79.60641305928584 80.40427758125588,77.34068237512838 79.1116761546582,74.75127159547992 78.31622912315652,72.37764103373047 77.81907472806051,70.86714685917832 78.11736736493185,69.78822149685584 76.9241968174465,67.84615384601057" stroke="#4dd2ff" stroke-linecap="round" stroke-linejoin="round" stroke-width="0.5"><title>2024-01-03 1.0km</title><desc>10482519748</desc></polyline><polyline fill="none" points="97.10306641412899,70.09148665610701 97.72383789671585,71.10188534331974 100.10346191423014,78.06239146809094 102.58654784504324,84.01247638976201 103.10385741386563,84.46153846150264 103.20731932809576,84.01247638976201 102.89693358680233,83.22661744547077 100.31038574175909,78.28692339535337 99.37922851741314,75.81707037833985 98.03422363800928,70.87735235947184 96.7926806723699,67.84615384612698" stroke="#4dd2ff" stroke-linecap="round" stroke-linejoin="round" stroke-width="0.5"><title>2024-01-01 1.0km</title><desc>10470902913</desc></polyline><polyline fill="none" points="127.32176562119275,71.48078593728133 125.98200171487406,71.5846324309241 125.79060687124729,71.89617186621763 123.78096101200208,73.35002165520564 122.9196842154488,74.2846385864541 122.3454996845685,75.3231011176249 121.9627099968493,75.84233209688682 121.67561773117632,75.94617826968897 120.4315512473695,75.94617826968897 119.28318218514323,76.36156288522761 117.75202343519777,76.25771674257703 116.98644406022504,75.94617826968897 116.50795695092529,75.2192548988387 116.22086468525231,74.59617742605042 116.12516726367176,73.14232891984284 115.83807499753311,72.51925053063314 114.68970593577251,72.51925053063314 113.73273171717301,72.83078975975513 113.6370342951268,72.93463615397923 114.01982398238033,73.14232891984284 114.2112188260071,72.93463615397923 113.54133687354624,72.93463615397923 113.34994202945381,72.7269433576148 113.15854718582705,72.00001832924318 113.06284976378083,70.75386026746128 113.54133687354624,70.8577068146551 113.92412656126544,71.6884789171163 114.78540335781872,72.62309694779105 115.45528531074524,72.62309694779105 116.0294698420912,72.20771123282611 116.50795695092529,72.31155767280143 116.6036543729715,72.10386478481814 115.74237757641822,69.61154774471652 115.55098273232579,69.50770110578742 114.49831109168008,69.40385445952415 113.44563945150003,69.50770110578742 114.1155214048922,69.50770110578742 113.15854718582705,68.4692342976341 113.06284976378083,67.84615384601057 113.34994202945381,68.26154084445443 113.6370342951268,69.61154774471652 113.92412656126544,70.23462741705589 114.2112188260071,71.5846324309241 113.6370342951268,75.11540867225267 114.30691624805331,78.33463813934941 114.88110077939928,79.26925177127123 114.97679820097983,80.82693978282623 115.83807499753311,83.11154575867113 115.74237757641822,84.46153846150264" stroke="#4dd2ff" stroke-linecap="round" stroke-linejoin="round" stroke-width="0.5"><title>2023-12-31 1.5km</title><desc>10466792666</desc></polyline><polyline fill="none" points="137.66790767526254,70.31167449429631 139.05095887277275,73.09877977182623 140.13764195656404,76.95783982262947 141.61948252609,80.06651965831406 142.9037443525158,83.71117033541668 143.2989018377848,84.46153846150264 143.4964805804193,84.46153846150264 143.59526995103806,83.60397485736758 143.20011246670038,82.42482407775242 141.4219037834555,78.78017018525861 141.4219037834555,77.81540733575821 140.13764195656404,75.0283110741293 139.9400632143952,72.8843872473808 139.54490572959185,71.59803143807221 138.45822264486924,69.56129908608273 137.17396081844345,67.84615384601057" stroke="#4dd2ff" stroke-linecap="round" stroke-linejoin="round" stroke-width="0.5"><title>2023-12-30 1.0km</title><desc>10458865202</desc></polyline><polyline fill="none" points="163.66775136766955,68.8781710434705 163.0020345048979,68.36216253961902 161.48039596201852,67.84615384612698 159.388142965734,68.05255734641105 157.96160683128983,68.98137272137683 156.91548033291474,70.01338908378966 156.43996828841045,71.25180771679152 156.05955865234137,76.10227017232683 156.53507069684565,80.95271586126182 156.72527551511303,81.67512123147026 157.01058274134994,82.29432553832885 158.53222128516063,83.94553568819538 160.24406464584172,84.46153846150264 161.57549837091938,84.25513737474103 163.19223932316527,83.22313148668036 164.14326341217384,82.39752622984815 165.09428750164807,79.61110490118153 164.9991850927472,77.44388448703103 164.71387786604464,75.58626432495657 164.52367304824293,71.0454046871746 164.23836582154036,69.91018748190254 163.66775136766955,69.18777605460491 163.0020345048979,68.67176766472403 161.48039596201852,68.36216253961902 159.388142965734,68.46536425559316 157.8665044219233,69.29097770992666 157.10568515071645,70.21979226521216 156.53507069684565,71.66461368498858 156.53507069684565,72.38702383695636 156.82037792401388,74.14144694327842 156.63017310621217,75.58626432495657 156.63017310621217,79.92070754419547" stroke="#4dd2ff" stroke-linecap="round" stroke-linejoin="round" stroke-width="0.5"><title>2023-12-29 1.0km</title><desc>10454615358</desc></polyline><polyline fill="none" points="178.28614556835964,69.64242035802454 179.11384063540027,71.21415182296187 180.56230700248852,76.37840096000582 182.8384684366174,83.33888303372078 183.5627016206272,84.46153846150264 183.66616350365803,84.46153846150264 183.66616350365803,83.33888303372078 182.11423525353894,78.62372122437228 180.87269265251234,75.59253808751237 180.04499758593738,74.02081112936139 178.6999931014143,69.64242035802454 177.87229803483933,67.84615384612698" stroke="#4dd2ff" stroke-linecap="round" stroke-linejoin="round" stroke-width="0.5"><title>2023-12-27 1.0km</title><desc>10441997651</desc></polyline><polyline fill="none" points="16.64556675730273,88.03397479117848 17.341582807712257,90.51550230314024 18.932476637419313,93.6443788377801 19.72792355204001,96.88114064664114 20.821663059759885,98.93108609993942 22.114264296833426,102.27572779753245 22.511987753678113,102.9230769231217 22.71084948303178,102.81518542207778 22.014833432156593,100.76524539408274 21.02052478911355,99.25476143613923 17.83873712969944,91.70231832575519 17.639875400811434,89.65236277517397 17.341582807712257,88.68133019900415 15.7506889780052,86.30769230774604" stroke="#4dd2ff" stroke-linecap="round" stroke-linejoin="round" stroke-width="0.5"><title>2023-12-17 1.0km</title><desc>10391591057</desc></polyline><polyline fill="none" points="36.00949414074421,87.68349576857872 37.47245819075033,90.54092952457722 38.64282943028957,93.61001872189809 40.59344816254452,97.41991345025599 42.3490050220862,102.49975740292575 42.73912876844406,102.9230769231217 42.83665970526636,102.81724705465604 42.83665970526636,102.3939275033772 42.3490050220862,101.0181381017901 39.71566973300651,95.83245853881817 38.54529849346727,92.65754346421454 37.6675200634636,89.05929791450035 36.984803507104516,87.89515772263985 36.39961788756773,86.30769230774604" stroke="#4dd2ff" stroke-linecap="round" stroke-linejoin="round" stroke-width="0.5"><title>2023-12-16 1.0km</title><desc>10386207035</desc></polyline><polyline fill="none" points="57.43482896313071,89.25220491806976 58.500878393184394,91.56574628863018 58.8885327312164,93.3534802388167 60.245322914328426,97.45474379998632 61.0206315908581,98.71666868391912 62.08668102091178,102.18695637397468 62.37742177443579,102.9230769231217 62.57124894345179,102.9230769231217 62.57124894345179,101.87147602299228 61.117545175366104,97.45474379998632 59.082359900232404,94.29992671962827 58.985446316190064,93.03799793927465 58.40396480867639,91.56574628863018 58.597791977692395,90.61929799825884 58.21013763966039,88.93672171386424 56.6595202870667,86.30769230774604" stroke="#4dd2ff" stroke-linecap="round" stroke-linejoin="round" stroke-width="0.5"><title>2023-12-14 1.0km</title><desc>10376526598</desc></polyline><polyline fill="none" points="84.27750487020239,89.19733854767401 83.32648092089221,87.75251617166214 82.47055936651304,87.03010442561936 81.0440234420821,86.4108940619044 79.71258991258219,86.30769230774604 78.38115638354793,86.61729754670523 76.66931327432394,87.54611285356805 75.90849411441013,88.5781291401945 75.33787974482402,90.3325550853042 75.33787974482402,94.25420514831785 75.52808453468606,95.49261868093163 75.90849411441013,97.0406340592308 75.62318692961708,98.89825025945902 75.7182893245481,99.62065589544363 75.81339171947911,100.03345894883387 76.76441566925496,101.68466994864866 78.28605398815125,102.81987638387363 78.76156596280634,102.9230769231217 79.71258991258219,102.9230769231217 80.66361386189237,102.9230769231217 82.37545697111636,102.30387357238214 83.32648092089221,101.37506803416181 83.89709529047832,100.34306115936488 84.08730008080602,98.072643362917 84.18240247573704,96.52462912304327 83.89709529047832,94.66700978076551 84.08730008080602,92.19018016546033 83.99219768540934,90.02295066602528 83.89709529047832,89.30054008914158 83.23137852596119,87.85571781918406 82.94607134116814,87.54611285356805 81.89994499692693,86.8237010013545 79.80769230751321,86.61729754670523 78.47625877847895,86.8237010013545 77.71543961856514,87.13330612634309 76.28890369459987,88.68133072694764 75.7182893245481,90.848562298459 75.90849411441013,92.29338148678653 76.00359650934115,97.76304065145086" stroke="#4dd2ff" stroke-linecap="round" stroke-linejoin="round" stroke-width="0.5"><title>2023-12-13 1.0km</title><desc>10373769329</desc></polyline><polyline fill="none" points="96.66669974569231,86.87284439429641 98.4375155060552,89.92466207197867 99.47917183535174,94.2198026147671 100.52082816511393,96.48039808066096 102.60414082417265,102.35793073626701 103.02080335607752,102.9230769231217 103.22913462202996,102.9230769231217 103.33330025477335,102.47095999016892 102.91663772286847,101.79278434219304 101.24998759571463,98.96704925387166 98.85417803749442,94.10677275399212 98.5416811387986,92.63738381059375 97.39585917629302,90.15072239958681 97.18752791080624,87.77708730078302 96.66669974569231,86.30769230774604" stroke="#4dd2ff" stroke-linecap="round" stroke-linejoin="round" stroke-width="0.5"><title>2023-12-12 1.0km</title><desc>10365882163</desc></polyline><polyline fill="none" points="116.86791475210339,86.526316995034 117.4723498323001,87.40081542241387 118.58048081258312,89.80568344623316 120.09156851284206,93.63160183129366 121.19969949265942,95.70852483180352 122.81152637302876,100.7368527132785 123.01300473324955,102.04858762503136 123.41596145322546,102.9230769231217 123.51670063333586,102.15789881523233 123.31522227358073,101.28340906719677 121.19969949265942,96.4737062585773 119.68861179240048,93.52229001407977 119.28565507289022,92.3198594939895 118.9834375330247,89.80568344623316 118.17752409307286,87.51012768992223 117.4723498323001,86.30769230774604" stroke="#4dd2ff" stroke-linecap="round" stroke-linejoin="round" stroke-width="0.5"><title>2023-12-11 1.0km</title><desc>10361067591</desc></polyline><polyline fill="none" points="137.93463906785473,89.18770543509163 138.1388037605211,89.52001428802032 140.8950271178037,96.16617595194839 142.93667404912412,102.36923372151796 143.03875639569014,102.70153966674116 143.44708578195423,102.9230769231217 143.5491681280546,102.81230829912238 143.2429210888222,102.03692770237103 142.324179969728,100.26462769764476 141.30335650406778,97.4954047666397 138.44505080021918,91.7354047667468 137.628392027691,87.63692981970962 137.22006264142692,86.30769230774604" stroke="#4dd2ff" stroke-linecap="round" stroke-linejoin="round" stroke-width="0.5"><title>2023-12-10 1.0km</title><desc>10355395415</desc></polyline><polyline fill="none" points="157.8312592562288,87.33899719838519 158.14806661987677,88.37030140636489 159.94330834923312,91.23503173748031 160.78812798624858,94.78729003528133 162.58336971513927,99.82919113873504 163.21698444336653,102.57931213907432 163.63939426233992,102.9230769231217 163.74499671673402,102.80848867015447 163.74499671673402,102.57931213907432 163.5337918070145,101.662605678197 161.31614025961608,97.19365396013018 160.78812798624858,95.93317808199208 160.47132062213495,93.98516790149733 159.94330834923312,92.49551141506527 159.09848871221766,91.0058535047574 158.99288625689223,89.4016049321508 158.042464165017,87.33899719838519 157.4088494372554,86.30769230774604" stroke="#4dd2ff" stroke-linecap="round" stroke-linejoin="round" stroke-width="0.5"><title>2023-12-09 1.0km</title><desc>10350143310</desc></polyline><polyline fill="none" points="177.87915140856057,87.738163140486 179.29883951554075,91.03924445947632 179.9072772753425,93.23996129340958 181.22555908933282,96.43099495570641 183.05087236920372,101.71269089507405 183.86212271638215,102.9230769231217 183.76071642292663,101.82272602932062 183.1522786631249,99.9521276531741 181.5297779692337,97.09120796748903 180.5157150356099,94.67042550072074 179.40024580899626,92.90985397493932 179.0960269290954,91.1492803778965 177.87915140856057,88.17830773687456 177.6763388221152,86.30769230774604" stroke="#4dd2ff" stroke-linecap="round" stroke-linejoin="round" stroke-width="0.5"><title>2023-12-08 1.0km</title><desc>10345303898</desc></polyline><polyline fill="none" points="16.433320310432464,104.76923076924868 17.414881335105747,106.15385343227535 17.611193540040404,106.68640025798231 18.003817949909717,108.07102108874824 18.200130155310035,109.98818620794918 18.592754564713687,111.58582186908461 19.966939999256283,114.9941053915536 20.850344921462238,118.08285540807992 21.733749843668193,120.00000727828592 21.93006204860285,121.38461538462434 22.126374253537506,121.27810711588245 22.322686458472162,121.06509055441711 22.322686458472162,120.74556565377861 21.83190594613552,119.4674653467955 20.261408306658268,116.80475275148638 18.39644235977903,111.37280388292857 17.90566184790805,109.13611313467845 16.13885200303048,104.76923076924868" stroke="#4dd2ff" stroke-linecap="round" stroke-linejoin="round" stroke-width="0.5"><title>2023-12-07 1.0km</title><desc>10340288256</desc></polyline><polyline fill="none" points="36.14905381342396,104.76923076924868 37.05570636689663,106.19029066176154 37.660141402855515,107.61134919594042 38.76827230118215,112.31176390289329 40.38009906280786,115.26317949651275 41.68970830691978,118.8704572658753 42.29414334287867,121.1659931082977 42.59636086039245,121.38461538462434 42.697100032586604,120.6194372769678 42.49562168773264,119.63563627377152 40.88379492564127,116.24698339239694 39.77566402731463,114.60730987088755 39.17122899182141,113.40488147246651 37.156445540022105,106.51822736707982 36.451271331403404,105.097167787957" stroke="#4dd2ff" stroke-linecap="round" stroke-linejoin="round" stroke-width="0.5"><title>2023-12-06 1.0km</title><desc>10334845031</desc></polyline><polyline fill="none" points="57.014247708488256,106.36687218607403 58.48658935399726,108.60356720944401 59.17368212202564,112.11836669815239 59.860774889588356,114.67457915202249 61.529428754001856,119.04143166029826 62.41283374140039,121.06509055453353 62.707302070222795,121.38461538462434 62.31467763194814,119.46746534667909 61.3331165346317,117.6568213144783 60.449711547698826,115.10061412269715 59.17368212202564,112.4378935014829 58.58474546391517,110.41422255639918 57.60318436706439,108.28403956058901 57.112403818406165,105.94083464704454 56.523467160295695,104.76923076924868" stroke="#4dd2ff" stroke-linecap="round" stroke-linejoin="round" stroke-width="0.5"><title>2023-12-05 1.0km</title><desc>10329306344</desc></polyline><polyline fill="none" points="76.78551712911576,105.42510473448783 77.18847381975502,107.06478838203475 77.89364802837372,108.15790980914608 78.80030058184639,111.32795740303118 80.61360568832606,115.80973729700781 81.52025824226439,118.8704572658753 82.32617162261158,120.6194372769678 82.93060665857047,121.38461538462434 82.93060665857047,120.83805963338818 80.31138817081228,114.82593311159872 79.30399644514546,111.43726926867384 78.1958655458875,108.9230943301227 77.38995216507465,105.75304160860833 76.68477795692161,104.76923076924868" stroke="#4dd2ff" stroke-linecap="round" stroke-linejoin="round" stroke-width="0.5"><title>2023-12-04 1.0km</title><desc>10324662812</desc></polyline><polyline fill="none" points="97.4821970644407,106.88798121421132 98.20156933134422,108.22613786510192 99.22924399934709,112.12908802030142 100.87352346722037,115.80900325393304 102.00396560132504,119.71193389769178 102.82610533572733,121.27310334297363 103.4427101360634,121.38461538462434 103.4427101360634,120.93856716854498 102.72333786915988,119.71193389769178 101.79843066819012,117.03563968115486 100.77075600065291,115.47446587425657 100.05138373328373,113.57875266275369 98.81817413168028,109.11824164295103 97.99603439774364,106.88798121421132 96.55728986347094,104.76923076924868" stroke="#4dd2ff" stroke-linecap="round" stroke-linejoin="round" stroke-width="0.5"><title>2023-12-02 1.0km</title><desc>10313350310</desc></polyline><polyline fill="none" points="117.08980557275936,106.07240494468715 118.09061270812526,107.80996872310061 119.09141984349117,109.11314021574799 120.29238840565085,113.2398423574632 121.09303411422297,116.60635398712475 122.39408339001238,120.29864824248943 123.19472909811884,121.38461538462434 123.29480981174856,120.73303519503679 123.09464838448912,119.42987395368982 121.9937605354935,117.04074202559423 120.29238840565085,114.32581468916032 119.29158127075061,112.26246657653246 118.29077413491905,107.04978482157458 117.08980557275936,104.76923076924868" stroke="#4dd2ff" stroke-linecap="round" stroke-linejoin="round" stroke-width="0.5"><title>2023-12-01 1.0km</title><desc>10308709030</desc></polyline><polyline fill="none" points="137.56391979567707,106.19029066187795 138.77278933348134,108.2672219077358 140.5860936404206,114.4979982386576 142.39939794735983,118.21458923164755 143.40678922925144,120.94737079984043 143.7090066135861,121.38461538462434 143.8097457420081,121.0566819581436 143.40678922925144,119.96357001410797 141.89570230664685,117.8866551060928 141.49274579435587,116.79354083153885 139.98165887175128,113.8421282756608 139.27648497419432,110.453462190344 138.57131107710302,108.48584608070087 136.9594850265421,104.76923076924868" stroke="#4dd2ff" stroke-linecap="round" stroke-linejoin="round" stroke-width="0.5"><title>2023-11-30 1.0km</title><desc>10303537703</desc></polyline><polyline fill="none" points="158.1408677957952,106.81919099227525 159.13517607422546,109.08493317011744 159.83119186898693,111.35067185014486 160.1294843526557,113.18483869556803 161.22322345804423,115.34267910837661 162.416393391788,118.57943377853371 163.60956332553178,121.16883237473667 163.80842498131096,121.38461538462434 164.00728663662449,121.16883237473667 163.80842498131096,120.41359158942942 163.0129783586599,119.01100052834954 161.9192392528057,115.99003061349504 160.32834600796923,112.75327023246791 159.73176104109734,109.300717957085 158.5385911068879,107.4665462570265 157.84257531305775,105.74026491609402 157.1465595178306,104.76923076924868" stroke="#4dd2ff" stroke-linecap="round" stroke-linejoin="round" stroke-width="0.5"><title>2023-11-29 1.0km</title><desc>10298007687</desc></polyline><polyline fill="none" points="178.2847769469954,106.85991844837554 178.58899578265846,108.07031524321064 179.70446484535933,110.93124923144933 179.90727740200236,113.02192830271088 181.32696530036628,116.43302999192383 182.13821552786976,119.5140183835756 182.84805947728455,120.94447512412444 183.55790342623368,121.38461538462434 183.86212226143107,121.38461538462434 184.06493481853977,121.05451020144392 183.96352853998542,120.61436984385364 183.55790342623368,119.84412390657235 181.93540297122672,115.55274642910808 180.31290251621976,111.81153551209718 180.00868368102238,110.05096243298613 179.2988397316076,107.96027921163477 178.38618322554976,106.08966543269344 177.4735267199576,104.76923076924868" stroke="#4dd2ff" stroke-linecap="round" stroke-linejoin="round" stroke-width="0.5"><title>2023-11-28 1.0km</title><desc>10292316108</desc></polyline><polyline fill="none" points="18.099741236306727,123.23076923075132 19.23076923051849,125.02448587631807 20.10079076513648,127.38463553995825 20.62280368572101,129.65037513582502 21.31882091285661,130.68883778119925 22.101840293500572,132.19932740263175 22.884859674610198,134.65386924834456 23.580876901745796,135.78673313290346 23.580876901745796,136.353164700442 23.14586613466963,136.73078560677823 21.753831679932773,137.48602708627004 20.883810145780444,138.24126812128816 20.013788611628115,138.7132935427362 18.70875630993396,139.27972381934524 16.620704628061503,139.84615384612698 16.272696014493704,139.75174885930028 16.01168955396861,139.46853385621216 15.576678786892444,137.67483738658484 14.880661559756845,135.78673313290346" stroke="#4dd2ff" stroke-linecap="round" stroke-linejoin="round" stroke-width="0.5"><title>2023-11-27 1.0km</title><desc>10287544518</desc></polyline><polyline fill="none" points="36.60757963499054,125.37470046547242 38.286999070085585,127.84021748858504 38.7809459627606,129.01937632996123 39.96641850518063,135.02235201140866 41.25068042567,138.1310261329636 41.94220607588068,139.31017665250693 42.43615296855569,139.84615384612698 42.53494234709069,139.73895842314232 42.238574211485684,139.20298119005747 42.238574211485684,138.3454172075726 41.448259183205664,136.52309207001235 40.55915477639064,133.52161040809005 39.67005036957562,131.6992792416131 39.077314098365605,128.26900263212156 37.39789466327056,125.5890934158815 37.00273714866489,124.51712835009675 36.311211499385536,123.23076923075132" stroke="#4dd2ff" stroke-linecap="round" stroke-linejoin="round" stroke-width="0.5"><title>2023-11-26 1.0km</title><desc>10281488289</desc></polyline><polyline fill="none" points="56.770183658692986,124.80250254436396 57.597878482658416,125.9251682064496 58.63249701168388,128.61956242809538 59.56365368841216,132.43661277089268 60.49481036514044,134.56966615945566 60.701734071131796,135.91685623815283 61.21904333587736,137.1517794331303 62.357123718596995,139.28482623561285 62.8744329828769,139.84615384612698 63.08135668840259,139.84615384612698 61.529428894631565,136.4781850867439 61.32250518864021,135.3555271831574 60.28788665961474,133.89607067452744 58.21864960063249,128.28276341070887 57.1840310706757,126.3742342403857 56.873645511921495,123.90436942025553 56.149412541650236,123.23076923075132" stroke="#4dd2ff" stroke-linecap="round" stroke-linejoin="round" stroke-width="0.5"><title>2023-11-25 1.0km</title><desc>10275889695</desc></polyline><polyline fill="none" points="76.75592973688617,125.08984192274511 78.25504117505625,127.52987151232082 78.89751750556752,130.43466373032425 81.89574038190767,138.56805353902746 82.64529610099271,139.72996295208577 82.966534266714,139.84615384612698 83.07361365528777,139.4975811376935 82.00281977048144,138.10328953468706 80.7178671094589,134.268981283647 79.86123200133443,132.5261108216364 79.32583505939692,129.1565558121074 78.68335872888565,127.41367971210275 76.54177095973864,123.23076923075132" stroke="#4dd2ff" stroke-linecap="round" stroke-linejoin="round" stroke-width="0.5"><title>2023-11-24 1.0km</title><desc>10271180196</desc></polyline><polyline fill="none" points="97.91668780054897,125.71743685775436 98.95834390027449,127.18682947428897 99.2708407305181,128.09107038599905 99.99999999953434,131.93408832908608 101.77081536967307,137.35950907110237 102.60414025001228,139.62009539653081 102.91663707932457,139.84615384612698 103.33329951949418,139.84615384612698 103.43746512942016,139.62009539653081 103.22913390956819,138.48980264924467 102.08331219991669,135.21194898337126 99.06250951020047,128.6562206860399 98.02085341047496,125.60440659814049 96.56253487057984,123.23076923075132" stroke="#4dd2ff" stroke-linecap="round" stroke-linejoin="round" stroke-width="0.5"><title>2023-11-23 1.0km</title><desc>10265414399</desc></polyline><polyline fill="none" points="118.31531046610326,126.55386130104307 119.30320374295115,128.05461007612757 119.40199307072908,129.55535730626434 119.7971503813751,131.91367126174737 121.37777962489054,136.41589640302118 121.87172626284882,138.5598082508659 122.66204088460654,139.84615384612698 123.25477685080841,139.84615384612698 123.15598752303049,139.2029811902903 122.06930491840467,136.41589640302118 121.18020096933469,135.02235201152507 119.89593970915303,131.05610299226828 118.41409979341552,126.98264682292938 118.01894248323515,124.62432489206549 117.72257449943572,123.98114552162588 117.12983853369951,123.23076923075132" stroke="#4dd2ff" stroke-linecap="round" stroke-linejoin="round" stroke-width="0.5"><title>2023-11-21 1.0km</title><desc>10253878272</desc></polyline><polyline fill="none" points="137.86613662494346,125.63563902268652 139.4779630312696,128.91500065196306 139.98165878280997,132.19435504823923 142.09718094114214,137.55061834154185 143.00383329438046,139.51822041964624 143.30605074577034,139.84615384612698 143.50752904685214,139.7368427121546 143.6082681971602,139.51822041964624 143.20531159546226,137.76924092310946 141.3920068880543,133.8340295344824 140.6868328358978,131.75710821337998 139.57870218157768,127.49394483387005 138.97426727879792,126.40082404960413 138.57131067756563,124.87045360170305 137.1609625723213,123.23076923075132" stroke="#4dd2ff" stroke-linecap="round" stroke-linejoin="round" stroke-width="0.5"><title>2023-11-20 1.0km</title><desc>10248671423</desc></polyline><polyline fill="none" points="158.10562612628564,126.28044289362151 158.6871077613905,127.12173103587702 160.04389824392274,130.06623563659377 160.43155266763642,133.1158947260119 161.4976023323834,135.5345852423925 162.56365199759603,138.5842326731654 163.04822002723813,139.32035349251237 163.62970166280866,139.84615384612698 163.53278805688024,139.00487318774685 161.88525675656274,134.69330204825383 160.81920709181577,130.8023608395597 159.75315742660314,128.27850142342504 159.1716757910326,125.9649597130483 157.52414449071512,123.23076923075132" stroke="#4dd2ff" stroke-linecap="round" stroke-linejoin="round" stroke-width="0.5"><title>2023-11-19 1.0km</title><desc>10242265034</desc></polyline><polyline fill="none" points="177.4378056610003,138.94239566568285 177.95033260062337,136.3006360309082 178.59099127538502,134.28455134300748 178.84725474542938,133.79790956730722 179.29571581748314,133.51982844021404 181.4739553113468,133.2417472312227 183.07560199825093,132.8941456049797 183.58812893810682,132.4770234847092 183.90845827548765,132.0599011806189 184.29285348043777,130.32188959879568 184.16472174529918,129.7657252177014 184.4209852151107,129.34860171726905 184.22878761263564,126.15064876526594 184.1006558779627,125.73352366976906 184.0365900103934,124.482147278497 183.90845827548765,123.71741644624854 183.20373373338953,123.50885338458465 182.62714092596434,123.92597946169553 182.7552726608701,123.71741644624854 182.8834043960087,123.92597946169553 182.05054811877199,123.50885338458465 181.98648225166835,123.23076923075132 181.79428464896046,123.36981131782522 181.92241638386622,123.30029027693672 181.4739553113468,123.85645846166881 181.53802117914893,123.78693745651981 182.8834043960087,124.482147278497 182.56307505862787,124.76023106410867 182.05054811877199,124.96879384969361 180.8332966370508,125.1773565892363 180.76923076924868,124.89927292615175 181.0895601066295,124.76023106410867 181.53802117914893,124.82975199772045 182.8834043960087,123.50885338458465 184.74131455249153,123.57837441022275 184.5491169502493,123.43933235370787 184.29285348043777,123.36981131782522 184.1006558779627,126.70681527320994 184.16472174529918,127.68010587478057 184.3569193475414,128.86195740074618 184.48505108291283,130.87805365258828 184.48505108291283,131.57325825979933 184.29285348043777,132.26846235559788 183.90845827548765,132.6855845678947 180.7051649019122,133.03318627073895 179.23164995014668,133.3112675411394 178.46285954047926,133.86742983624572 177.56593739567325,135.1187938042567 177.0534104560502,136.926316611527 176.86121285357513,137.89959669171367 176.79714698623866,139.84615384612698" stroke="#4dd2ff" stroke-linecap="round" stroke-linejoin="round" stroke-width="0.5"><title>2023-11-18 1.0km</title><desc>10236386505</desc></polyline><polyline fill="none" points="15.922546982299536,141.69230769237038 16.678712067659944,143.94872956117615 18.758166052401066,147.5384841032792 19.514331137761474,150.2051529265009 19.797893045004457,151.743613390252 20.365016859024763,152.66668885422405 22.1609089365229,157.8974382802844 22.538991479668766,158.30769230774604 22.538991479668766,157.8974382802844 22.1609089365229,157.38462057639845 21.12118194438517,154.30771039344836 20.554058129899204,153.28207215759903 20.365016859024763,151.53848542657215 19.514331137761474,149.3846399851609 18.569124781060964,147.333355521434 18.474604145623744,146.20514778036159 16.584191432222724,143.2307775443187" stroke="#4dd2ff" stroke-linecap="round" stroke-linejoin="round" stroke-width="0.5"><title>2023-11-17 1.0km</title><desc>10231268371</desc></polyline><polyline fill="none" points="36.80250690551475,143.03046621277463 37.624646519776434,144.92618876195047 38.96062339050695,146.82190894184168 39.26892574550584,149.38670306117274 40.1938328105025,151.39393021620344 41.63257713383064,156.7465229772497 42.5574841988273,158.30769230774604 42.45471674669534,157.41559574427083 41.73534458549693,155.9659377093194 41.221507327165455,154.51627828890923 40.39936771383509,151.0593925412977 38.75508848764002,147.60249891551211 38.241251229308546,146.04131856618915 37.93294887430966,144.48013661033474 36.28866964764893,141.69230769237038" stroke="#4dd2ff" stroke-linecap="round" stroke-linejoin="round" stroke-width="0.5"><title>2023-11-16 1.0km</title><desc>10225818993</desc></polyline><polyline fill="none" points="55.96130249928683,142.82517994765658 58.513359849806875,146.7272897551302 59.093372884672135,148.9930268524913 60.02139373961836,151.5105089994613 61.29742241464555,153.9021136108786 61.761432841885835,155.7902201547986 62.573451090138406,157.4265774752712 63.385469338390976,158.30769230774604 61.29742241464555,154.40560889279004 60.36940156016499,151.5105089994613 57.70134160248563,146.60141538421158 55.845299892127514,141.69230769237038" stroke="#4dd2ff" stroke-linecap="round" stroke-linejoin="round" stroke-width="0.5"><title>2023-11-15 1.0km</title><desc>10219684298</desc></polyline><polyline fill="none" points="76.67078686645254,143.538470224943 77.4151373100467,144.80770570668392 78.79750242037699,146.53847970895004 79.01017397549003,148.73079070518725 80.60521064093336,152.53848147322424 81.56223263964057,155.76924215338659 82.51925463881344,158.19230829912703 82.94459774950519,158.30769230774604 82.83826197125018,156.92308364179917 81.45589686231688,155.07693685323466 80.9242179733701,153.46155663207173 80.07353175245225,152.4230970402714 79.75452441908419,151.15386771748308 78.15948775457218,147.92309753666632 77.62780886562541,145.61540047847666 77.30880153272301,142.96154466690496 76.67078686645254,141.69230769237038" stroke="#4dd2ff" stroke-linecap="round" stroke-linejoin="round" stroke-width="0.5"><title>2023-11-14 1.0km</title><desc>10213806154</desc></polyline><polyline fill="none" points="97.06678950134665,143.31069758010563 98.25995987374336,145.4685479871696 99.05540678882971,148.48953322693706 101.24288580426946,154.0999178874772 101.74004012579098,155.9340774512384 102.73434876976535,157.9840177805163 103.03264136286452,158.30769230774604 102.43605617666617,157.22877693979535 101.04402407538146,153.8841342588421 100.94459321117029,153.0209994261386 99.95028456766158,150.64737601939123 98.45882160263136,147.95007203309797 97.862236416433,146.11590249056462 97.464512958657,143.41859017580282 96.96735863713548,141.69230769237038" stroke="#4dd2ff" stroke-linecap="round" stroke-linejoin="round" stroke-width="0.5"><title>2023-11-13 1.0km</title><desc>10208522228</desc></polyline><polyline fill="none" points="117.00651598861441,142.026847433066 118.54802810354158,145.26072778913658 119.57570284651592,148.38308848731685 120.80891253845766,150.94787996669766 121.52828485844657,153.95871660439298 122.24765717890114,156.07744991476648 123.17256444785744,158.0846682160627 123.58363434439525,158.30769230774604 123.78916929382831,157.86164409143385 122.65872707590461,155.6314010429196 122.0421222303994,153.17812990187667 119.78123779548332,151.0593925412977 118.54802810354158,149.27519036328886 118.34249315457419,147.37947324942797 116.59544609114528,143.58803191396873 117.00651598861441,142.13836066343356 116.80098104011267,141.69230769237038" stroke="#4dd2ff" stroke-linecap="round" stroke-linejoin="round" stroke-width="0.5"><title>2023-11-12 1.0km</title><desc>10202270880</desc></polyline><polyline fill="none" points="137.21133214747533,143.22267982794438 138.4202019525692,146.39273138449062 140.8379415613599,151.85832164308522 141.64385476475582,154.59110923844855 142.44976796768606,156.77733569859993 142.95346371969208,157.76113655697554 143.45715947123244,158.30769230774604 143.55789862200618,157.87044772319496 142.6512462683022,155.13766615476925 140.93868071166798,152.5141911241226 139.12537600519136,148.36034619202837 138.4202019525692,145.40892300382257 137.71502789948136,143.6599287202116 137.21133214747533,141.69230769237038" stroke="#4dd2ff" stroke-linecap="round" stroke-linejoin="round" stroke-width="0.5"><title>2023-11-11 1.0km</title><desc>10196068378</desc></polyline><polyline fill="none" points="157.50366820348427,142.39436970721 159.76817179424688,146.95776525360998 161.27784085506573,151.52114771585912 162.67967641167343,155.26545175898355 163.32667743694037,157.72264650010038 163.75801145425066,158.30769230774604 163.97367846313864,158.07367401046213 163.6501779500395,156.66956350393593 162.03267538547516,153.04227229568642 160.41517282044515,149.64899239130318 158.2585027338937,146.25570525228977 158.04283572547138,144.9685944445664 157.1801676908508,141.69230769237038" stroke="#4dd2ff" stroke-linecap="round" stroke-linejoin="round" stroke-width="0.5"><title>2023-11-10 1.0km</title><desc>10191120477</desc></polyline><polyline fill="none" points="177.1755161685869,142.25745977903716 177.6963443714194,143.952914792113 179.46716026216745,145.309277456603 180.5088166682981,147.11775914754253 180.821313590277,147.79593923327047 180.821313590277,148.81320880097337 181.9671356366016,152.31713215948548 182.38379819924012,154.35166463861242 183.2171233240515,156.61225312436 183.42545460537076,157.74254612089135 183.9462828086689,158.30769230774604 184.25877972971648,158.1946630870225 184.57127665169537,157.74254612089135 183.42545460537076,156.9513411107473 181.55047307442874,154.23863512696698 179.36299462150782,148.24805912422016 178.84216641820967,144.85715670126956 178.32133821491152,143.5007936381735 176.96718488726765,141.69230769225396" stroke="#4dd2ff" stroke-linecap="round" stroke-linejoin="round" stroke-width="0.5"><title>2023-11-09 1.0km</title><desc>10185506531</desc></polyline><polyline fill="none" points="15.764800215139985,161.27651297161356 16.695956070441753,162.62371206341777 17.834035448729992,164.869041241589 18.247882494702935,165.9917045928305 19.59288539690897,168.91062544309534 20.11019420530647,170.93141353235114 20.006732443347573,169.69648779544514 20.213655967265368,170.48234974348452 20.62750301323831,173.51352775481064 21.55865886854008,176.32016869727522 21.972505915444344,176.76923076924868 22.489814723376185,176.54469974944368 22.696738246828318,176.20790315850172 21.55865886854008,175.1975129393395 20.730964775197208,173.85032494040206 20.213655967265368,172.3908699337626 19.48942363495007,169.92101982200984 18.45480601862073,168.46156106004491 17.31672663986683,165.9917045928305 17.00634135492146,164.1954428347526 17.109803116414696,161.95011266611982 16.902879593428224,161.3887796078343 15.971723738126457,160.1538461537566" stroke="#4dd2ff" stroke-linecap="round" stroke-linejoin="round" stroke-width="0.5"><title>2023-11-08 1.0km</title><desc>10179505859</desc></polyline><polyline fill="none" points="36.09214223222807,160.47752427402884 39.07506882119924,169.86415870848577 42.55514984112233,176.76923076924868 42.754011613316834,176.66133926832117 42.25685718236491,175.474532232387 41.361979205626994,173.9640491626924 40.765393887646496,172.45356453838758 39.57222325215116,171.15886219451204 39.17449970776215,170.4036186330486 38.87620704853907,167.81420918588992 38.677345275878906,167.05896390322596 37.48417464038357,165.0090104623232 36.78815843677148,161.34066557942424 36.2910040053539,160.15384615387302" stroke="#4dd2ff" stroke-linecap="round" stroke-linejoin="round" stroke-width="0.5"><title>2023-11-06 1.0km</title><desc>10167691585</desc></polyline><polyline fill="none" points="57.28945790277794,162.1519089434296 57.67711235489696,162.67771447671112 58.74316209787503,166.25318697770126 59.421557389665395,167.51511631486937 61.94131132820621,173.29894486477133 63.00736107164994,176.55891065113246 63.20118829747662,176.76923076924868 63.3950155233033,176.76923076924868 63.3950155233033,176.4537505803164 62.619706619530916,174.77118839812465 61.94131132820621,173.8247463006992 61.84439771529287,173.29894486477133 61.262916036881506,172.6679828867782 59.615384615492076,169.82865054125432 57.67711235489696,164.88609560613986 56.90180345065892,162.1519089434296 55.83575370721519,160.15384615387302" stroke="#4dd2ff" stroke-linecap="round" stroke-linejoin="round" stroke-width="0.5"><title>2023-11-05 1.1km</title><desc>10161301187</desc></polyline><polyline fill="none" points="76.46417339565232,160.15384615387302 77.7240500873886,162.25707006559242 79.662321920041,166.56866941635963 80.53454424533993,170.35445325286128 81.89133452810347,172.98346391064115 82.3759024864994,175.08666895807255 82.86047044489533,176.76923076924868 83.15121121983975,176.45375058043282 83.05429762788117,176.1382703220006 81.79442093661055,173.8247463008156 81.69750734465197,173.50926546251867 80.53454424533993,171.72153939807322 80.04997628647834,170.0389716491336 78.79009959567338,167.7254377626814 78.4993588202633,165.72738275886513 77.91787727037445,163.62416394997854 77.04565494554117,161.9415866759373" stroke="#4dd2ff" stroke-linecap="round" stroke-linejoin="round" stroke-width="0.5"><title>2023-11-04 1.0km</title><desc>10155501797</desc></polyline><polyline fill="none" points="104.74849921837449,164.04480796551798 104.45777477649972,162.67771448148414 103.19796886108816,160.99513609160203 102.42270368291065,160.46932993852533 100.87217332562432,160.15384615387302 99.4185511157848,160.25900742341764 97.38348002219573,161.2054584985599 96.51130669610575,162.04674781742506 95.73604151746258,163.6241639557993 95.54222522303462,164.88609561382327 95.25150078115985,169.09252642979845 95.44531707558781,173.50926546822302 95.63913337048143,174.14022707438562 96.60821484355256,175.71762987133116 97.77111261151731,176.55891065159813 99.70927555812523,176.76923076924868 101.45362220983952,176.03311022208072 103.10106071457267,174.0350668260362 103.5856014508754,173.0886242428096 104.26395848207176,170.03897165774833 104.26395848207176,167.62027705158107 104.74849921837449,164.46545185137074 104.65159107139334,163.3086808673106 103.5856014508754,162.04674781742506 102.71342812478542,161.4157808746677 100.6783570307307,160.46932993852533 99.61236741021276,160.46932993852533 97.28657187521458,161.2054584985599 96.22058225423098,162.15190894750413 95.54222522303462,163.41384190449025 95.348408928141,164.255129924044 95.54222522303462,167.7254377718782 95.348408928141,169.30284764559474 95.44531707558781,171.72153940564021" stroke="#4dd2ff" stroke-linecap="round" stroke-linejoin="round" stroke-width="0.5"><title>2023-11-03 1.0km</title><desc>10152446508</desc></polyline><polyline fill="none" points="116.54365944303572,160.15384615387302 117.50068193534389,161.45192870753817 118.33807661477476,163.269242679351 119.05584348365664,166.51444154779892 120.25212159845978,168.85098104015924 122.04653876973316,173.52405074809212 122.40542220370844,174.30289449729025 123.00356126111001,176.37980948144104 123.36244469555095,176.76923076924868 123.8409559414722,176.76923076924868 123.8409559414722,176.50961658684537 123.00356126111001,176.12019524211064 122.64467782713473,175.21154510357883 121.80728314677253,174.43270175531507 121.20914408983663,172.74520665581804 120.37174940947443,171.44713240501005 119.41472691809759,169.50001923902892 118.33807661477476,165.47597855888307 117.62030974589288,163.7884748991346 116.90254287794232,160.9326958003221" stroke="#4dd2ff" stroke-linecap="round" stroke-linejoin="round" stroke-width="0.5"><title>2023-11-02 1.1km</title><desc>10144903556</desc></polyline><polyline fill="none" points="138.08275863528252,161.78281369328033 138.3830008204095,162.86879105470143 138.58316227653995,164.06336523033679 139.38380810245872,165.9095234196866 140.78493829770014,170.9049987164326 143.1868757759221,175.90045711921994 143.88744087330997,176.76923076924868 143.48711796058342,175.46607010287698 141.9859070368111,173.18553616991267 141.18526121089235,170.2534159400966 140.18445392837748,168.84165227238555 138.9834851892665,166.2353158018086 137.98267790675163,161.78281369328033 136.88178989617154,160.15384615387302" stroke="#4dd2ff" stroke-linecap="round" stroke-linejoin="round" stroke-width="0.5"><title>2023-11-01 1.0km</title><desc>10138966680</desc></polyline><polyline fill="none" points="158.11050478136167,161.15746515465435 158.82987678423524,162.1610834915191 159.34371392941102,163.83377924351953 160.16585336159915,168.29429223097395 161.50182993803173,171.1936186386738 162.3239693697542,173.8699150190223 163.65994594665244,176.76923076924868 163.76271337550133,176.65771872724872 162.83780651492998,175.31957358680665 161.50182993803173,172.1972303345101 160.37138821929693,170.19000627845526 158.41880706883967,164.2798311325023 158.21327221021056,161.93805725174025 157.3911327784881,160.1538461537566" stroke="#4dd2ff" stroke-linecap="round" stroke-linejoin="round" stroke-width="0.5"><title>2023-10-31 1.0km</title><desc>10133123337</desc></polyline><polyline fill="none" points="177.44977021496743,161.0833827732131 178.62764331512153,162.94245437148493 179.16304017882794,165.7310576690361 179.16304017882794,166.77678263687994 180.34091327851638,168.75203902169596 183.55329445935786,175.60732144187205 184.08869132306427,176.6530398747418 184.30285006808117,176.76923076924868 181.840024495963,171.88920585322194 180.7692307694815,168.86823049699888 179.5913576693274,166.42820772447158 177.87808770639822,161.0833827732131 177.23561146995053,160.15384615387302" stroke="#4dd2ff" stroke-linecap="round" stroke-linejoin="round" stroke-width="0.5"><title>2023-10-30 1.0km</title><desc>10127985445</desc></polyline><polyline fill="none" points="16.59895912092179,180.58847176493146 17.07747005019337,181.7307841181755 17.555980978999287,184.95002305263188 17.8430875367485,185.9884856599383 19.757131253369153,190.4538661716506 20.71415311144665,193.05001114262268 22.149685898795724,195.02307812927756 22.53249464277178,195.23076923075132 22.628196828067303,194.91923256707378 21.76687715575099,193.56923956412356 20.522748739924282,190.86924968764652 18.321598465554416,186.81925519614015 17.460278793238103,183.80771330290008 16.790363492444158,182.4577096804278 16.694661306682974,180.38077851058915 16.503256935160607,179.44615848804824 15.833341633901,178.61538461537566" stroke="#4dd2ff" stroke-linecap="round" stroke-linejoin="round" stroke-width="0.5"><title>2023-10-28 1.0km</title><desc>10115543824</desc></polyline><polyline fill="none" points="36.47441498097032,180.41165112773888 37.81941867386922,183.21831332275178 38.6471132542938,185.91270417696796 39.57826965674758,188.04576023155823 40.40596423717216,191.0769400256686 41.64750610757619,193.9958482150687 42.164815220050514,195.11850372538902 42.682124332524836,195.23076923075132 42.78558615548536,195.11850372538902 42.57866251002997,194.44491051812656 41.957891575060785,192.7609262005426 39.888655124697834,188.71935626142658 38.23326596384868,184.22871045023203 37.198647738900036,181.9833825925598 36.78480044892058,180.0748513174476 36.060567690990865,178.61538461537566" stroke="#4dd2ff" stroke-linecap="round" stroke-linejoin="round" stroke-width="0.5"><title>2023-10-27 1.0km</title><desc>10110442644</desc></polyline><polyline fill="none" points="56.91609159950167,180.74557277956046 58.192121024709195,182.98226698092185 60.05708710895851,189.26629411440808 60.74417987652123,191.18344950815663 61.43127264501527,192.35504322231282 62.216521522030234,194.59171949978918 62.5109898513183,195.01775268523488 63.09992650942877,195.23076923075132 63.198082618415356,194.9112444006605 63.09992650942877,194.4852111840155 62.118365412112325,193.20711078308523 60.64602376706898,190.65090659772977 58.879213793203235,185.43197571544442 57.701340476516634,183.51481271034572 57.112403818406165,180.74557277956046 56.032686612103134,178.61538461537566" stroke="#4dd2ff" stroke-linecap="round" stroke-linejoin="round" stroke-width="0.5"><title>2023-10-26 1.0km</title><desc>10104873905</desc></polyline><polyline fill="none" points="77.28921391861513,181.56681518105324 79.40473576588556,187.36034703161567 81.72173588396981,193.15385630796663 82.82986637530848,195.12145809666254 83.23282291740179,195.23076923075132 83.13208378199488,194.137657527579 80.41212712135166,189.4372680473607 78.90104008791968,185.61135866318364 77.59143132530153,182.87856021872722 77.08773564780131,180.1457567512989 76.38256169809029,178.61538461537566" stroke="#4dd2ff" stroke-linecap="round" stroke-linejoin="round" stroke-width="0.5"><title>2023-10-25 1.0km</title><desc>10098978222</desc></polyline><polyline fill="none" points="96.97654252080247,178.61538461537566 97.85432049818337,180.73200477997307 97.75678961211815,181.47282110224478 98.34197493083775,183.90692919120193 99.1222220226191,185.49438877089415 99.60987645434216,187.3993379556341 100.48765443265438,189.93926628050394 102.34074127441272,193.53749040316325 102.92592659313232,195.01910948613659 103.12098836619407,195.23076923075132 103.31605013925582,195.12493936228566 103.21851925272495,193.7491503652418 102.14567950181663,191.73837946599815 101.36543241050094,190.57424766162876 100.39012354565784,188.35181160271168 100.19506177306175,187.18767705978826 99.02469113562256,185.3885581868235 98.34197493083775,183.8010984902503 98.146913157776,181.89614454377443 97.85432049818337,180.73200477997307 97.26913517992944,179.67369508673437 96.68394986120984,179.03870889730752" stroke="#4dd2ff" stroke-linecap="round" stroke-linejoin="round" stroke-width="0.5"><title>2023-10-24 1.0km</title><desc>10092835699</desc></polyline><polyline fill="none" points="118.07134033087641,180.5239177143667 118.7955730878748,182.32018198166043 120.34750042622909,187.82122815551702 121.07173318369314,189.16842011618428 121.89942776365206,192.53639481787104 123.14096963405609,194.78170715877786 123.65827874699607,195.23076923075132 123.14096963405609,194.66944162000436 122.41673687659204,192.87319187948015 120.55442407075316,190.62787673214916 120.1405767807737,189.84201565070543 119.72672949079424,187.2598978212336 118.4851876203902,184.7900418988429 117.65749304043129,182.20791552693117 117.14018392795697,179.62578478862997 116.72633663751185,178.61538461537566" stroke="#4dd2ff" stroke-linecap="round" stroke-linejoin="round" stroke-width="0.5"><title>2023-10-23 1.0km</title><desc>10087395010</desc></polyline><polyline fill="none" points="134.71138999587856,179.0536866748589 135.29890848277137,178.69507592532318 135.59266772610135,178.61538461540476 137.6857023355551,178.77476722345455 138.60369997122325,179.0138410476502 138.82401940389536,179.13337792022503 139.30137817468494,179.49198837959557 139.63185732346028,179.89044416727847 140.36625543190166,181.24519165381207 140.73345448612235,182.75931718968786 141.21081325691193,183.55622366722673 141.43113268935122,184.1937480054621 141.94521136535332,185.34925895705237 142.31241041980684,186.54461252110195 142.86320900102146,187.50089347397443 143.12024833913893,187.77980843401747 143.45072748791426,188.33763792351237 143.63432701514103,189.53298489612644 143.74448673124425,189.85174364360864 144.03824597480707,190.2900366152171 144.11168578569777,190.96739778321353 144.22184550203383,191.24631095919176 145.837521340698,195.0713914624066 146.05784077337012,195.23076923078042 146.05784077337012,195.0315470129135 145.72736162459478,194.71279131202027 145.3601625703741,193.83621216777829 144.99296351592056,193.0791654023633 144.00152606936172,190.0111229470349 143.67104692058638,189.33376058388967" stroke="#4dd2ff" stroke-linecap="round" stroke-linejoin="round" stroke-width="0.5"><title>2023-10-22 1.5km</title><desc>10080655811</desc></polyline><polyline fill="none" points="158.1452081282623,178.61538461537566 158.03122149012052,178.69784431537846 157.99322594399564,178.986453170015 158.56315913493745,179.39875127610867 157.5372793909628,179.2338320700219 159.1330923261121,181.2953186595114 159.28507451037876,181.79007431329228 159.17108787223697,182.2023703578452 158.6391502271872,182.49097740883008 158.48716804292053,182.77958431115258 158.5251635890454,183.27433865517378 158.82912795757875,184.46999318461167 159.17108787223697,185.33581039033015 159.55104333302006,186.65514832356712 160.23496316210367,187.85079564445186 160.3489498004783,188.30431637514266 160.76690080715343,189.04644041592837 161.03286962979473,189.3762730078015 161.07086517568678,189.58241827911115 161.33683399832807,189.82979250475182 161.52681172871962,190.24208263828768 161.79278055136092,191.0254330568423 162.0587493737694,191.56140902856714 162.02075382787734,192.63335943518905 162.5146959265694,193.58162154842285 162.6666781110689,194.03513764453237 162.93264693347737,194.52988205832662 163.3885934862774,195.10708332274226 163.6165667627938,195.23076923078042 162.74266920308582,193.99390892367228 162.55269147269428,193.3342489778588 162.17273601191118,192.5096729543584 162.02075382787734,191.97369788895594 161.52681172871962,191.2728066459531 161.10886072181165,190.07716662128223 161.03286962979473,189.1288985821593" stroke="#4dd2ff" stroke-linecap="round" stroke-linejoin="round" stroke-width="0.5"><title>2023-10-20 1.4km</title><desc>10069668027</desc></polyline><polyline fill="none" points="177.6267998162657,178.61538461540476 177.55061967181973,179.23537047379068 177.6267998162657,179.85535564849852 178.23624097066931,181.3433172776131 178.38860125932842,182.2526252232492 179.64557364047505,185.31119570010924 179.7598438570276,185.72451475841808 179.83602400124073,186.34449277620297 179.98838428989984,186.75781107490184 180.90254602162167,188.03909586946247 181.39771695970558,189.03105628548656 181.7024375370238,190.02301495114807 181.96906804223545,190.56032516428968 182.12142833089456,191.38695525864023 182.31187869166024,191.80026984997676 182.80704962974414,193.08154315213324 182.88322977395728,193.57751913036918 183.60694114514627,195.06544443956227 183.79739150591195,195.23076923078042 183.91166172223166,195.23076923078042 183.9878418664448,195.18943803748698 183.94975179457106,195.14810684119584 183.1879503512755,194.19748848769814 182.8451397018507,193.0402118008933 182.12142833089456,191.7176069559937 182.00715811434202,191.18029784894316 181.93097796989605,190.27100434413296 181.62625739281066,189.651030656707" stroke="#4dd2ff" stroke-linecap="round" stroke-linejoin="round" stroke-width="0.5"><title>2023-10-19 1.3km</title><desc>10064004415</desc></polyline><polyline fill="none" points="15.553788890130818,197.0769230768783 15.956745639909059,198.27935845893808 17.467833450995386,200.2469778957311 17.36709426390007,201.6680347584188 17.56857263855636,203.08909026312176 18.273746950551867,205.60326205915771 19.281138824298978,207.2429370273603 20.28853069851175,210.08503602223936 22.303314447402954,213.3643742655404 22.60553200962022,213.69230769225396 22.907749571371824,213.58299655793235 21.598140134941787,212.27126232115552 19.180399637203664,207.57087180402596 18.575964512769133,205.49395033030305 16.863398326560855,201.8866587704979 16.15822401456535,198.17004619177897" stroke="#4dd2ff" stroke-linecap="round" stroke-linejoin="round" stroke-width="0.5"><title>2023-10-18 1.0km</title><desc>10058081424</desc></polyline><polyline fill="none" points="36.38023841753602,198.78107385884505 37.55811138730496,200.48522263602354 38.34336003381759,205.06511254236102 40.40463773114607,210.49705621937755 41.778822862543166,213.37278286204673 42.367759347427636,213.69230769225396 42.6622275901027,213.69230769225396 42.8585397512652,213.26627456990536 42.17144718626514,212.414207948721 41.288042458705604,211.02959862106945 40.110169488471,208.4733933082316 39.61938908463344,206.98227145976853 37.55811138730496,202.82842393196188 37.361799225676805,202.18936940899584 37.16548706404865,199.6331484981347 35.98761409474537,197.0769230768783" stroke="#4dd2ff" stroke-linecap="round" stroke-linejoin="round" stroke-width="0.5"><title>2023-10-17 1.0km</title><desc>10051702317</desc></polyline><polyline fill="none" points="56.4335969556123,199.01899072784 56.83132041338831,199.99002358946018 57.825629056897014,201.71630264632404 59.31709202192724,205.6004230992403 60.112538937013596,207.11091161018703 61.007416715845466,209.91610043437686 62.101156224031,212.7212838968262 62.49887968134135,213.47652468213346 62.99603400286287,213.69230769225396 63.095464867539704,213.58441619121004 62.99603400286287,213.26074164023157 61.902294495142996,211.64236781513318 60.41083153011277,207.97404720413033 59.31709202192724,205.70831518713385 58.42221424309537,201.50051787507255 57.925059921108186,199.6663460403215 56.135304362978786,197.0769230768783" stroke="#4dd2ff" stroke-linecap="round" stroke-linejoin="round" stroke-width="0.5"><title>2023-10-16 1.0km</title><desc>10046279660</desc></polyline><polyline fill="none" points="76.80527045950294,198.70589061628561 77.70599701395258,200.00906335446052 78.1063199271448,200.87784454098437 78.50664284033701,202.83260034269188 79.407369394321,205.87332644837443 80.60833813343197,207.71947852999438 82.00946832867339,212.93213077646215 82.50987196993083,213.47511432762258 83.21043706778437,213.69230769225396 83.31051779631525,213.47511432762258 83.21043706778437,212.82353404222522 81.90938760060817,210.97738833958283 81.20882250275463,208.80544926482253 80.40817667683586,207.50228428724222 78.50664284033701,203.04979527217802 77.80607774248347,200.00906335446052 76.30486681871116,197.0769230768783" stroke="#4dd2ff" stroke-linecap="round" stroke-linejoin="round" stroke-width="0.5"><title>2023-10-15 1.0km</title><desc>10039610121</desc></polyline><polyline fill="none" points="96.06557449093089,197.0769230768783 97.97961933352053,200.42309106816538 98.29862680705264,203.76925192552153 99.14931340375915,206.1923294721637 100.21267164964229,207.69232798321173 100.85068659717217,209.76924663211685 102.65839561494067,213.00000351166818 103.08373891282827,213.46153966605198 103.61541803646833,213.69230769225396 103.93442550953478,213.46153966605198 103.93442550953478,213.1153875628952 101.80770901823416,211.3846259030979 100.42534329881892,208.84617201634683 99.89366417611018,206.65386762830894 98.61763428105041,203.76925192552153 97.97961933352053,201.34617063810583 98.08595515834168,199.84616606147029 97.97961933352053,199.38462590344716 96.9162610876374,197.1923082987778" stroke="#4dd2ff" stroke-linecap="round" stroke-linejoin="round" stroke-width="0.5"><title>2023-10-14 1.0km</title><desc>10033377496</desc></polyline><polyline fill="none" points="116.7168072592467,198.2793584590545 117.52272040303797,200.13766577327624 119.33602497680113,202.32390669872984 119.53750326298177,203.963585283258 121.25006869342178,209.21054460247979 122.86189498146996,213.03644076676574 123.36559069622308,213.69230769225396 123.76854726811871,213.69230769225396 123.76854726811871,213.36437426588964 123.66780812526122,213.03644076676574 122.7611558381468,212.38057355210185 121.75376440864056,210.52228153927717 120.64563383581117,207.02431380318012 118.63085097586736,202.54253061441705 118.32863354682922,201.0121625290485 117.8249378320761,199.91904150368646 117.01902468828484,197.84210934175644 116.61606811638921,197.0769230768783" stroke="#4dd2ff" stroke-linecap="round" stroke-linejoin="round" stroke-width="0.5"><title>2023-10-13 1.0km</title><desc>10028006924</desc></polyline><polyline fill="none" points="136.77219352126122,197.0769230768783 137.41919445199892,198.36403653386515 138.49752933671698,199.76815911813173 139.14453026745468,200.93826032499783 139.25236375629902,202.45939060824458 139.14453026745468,204.09752928745002 140.33069864055142,206.5547341449419 141.7325339904055,210.29903901345097 143.13436934072524,212.87324350094423 143.45786980586126,213.34128023358062 143.9970372482203,213.69230769225396 143.9970372482203,213.1072618844919 142.81086887512356,211.5861417776905 141.7325339904055,209.71399195853155 140.33069864055142,205.8526760013774 139.46803073305637,204.3315489612287 139.036696779076,203.04444033035543 138.821029801853,201.05527039873414" stroke="#4dd2ff" stroke-linecap="round" stroke-linejoin="round" stroke-width="0.5"><title>2023-10-12 1.0km</title><desc>10021974100</desc></polyline><polyline fill="none" points="157.6745811039582,198.48869504826143 159.5761155001819,201.20363735419232 159.97643853072077,203.37558760645334 159.8763577733189,204.24436681333464 160.77708459179848,207.1764928632183 161.47764989547431,208.47965812822804 162.1782151996158,210.8687914616894 163.17902277596295,213.25792093097698 163.37918429169804,213.47511432738975 163.87958808010444,213.69230769225396 163.7795073222369,213.25792093097698 162.6786189880222,210.43440387025476 161.47764989547431,208.3710610665148 159.8763577733189,204.67875622480642 159.47603474231437,203.26699016976636 159.27587322704494,201.20363735419232 158.675388680771,199.1402816568734 157.27425807341933,197.0769230768783" stroke="#4dd2ff" stroke-linecap="round" stroke-linejoin="round" stroke-width="0.5"><title>2023-10-10 1.0km</title><desc>10009069592</desc></polyline><polyline fill="none" points="177.59594659879804,198.7166074477136 178.80481675919145,200.6842263059225 179.5099910190329,202.65184256003704 180.21516527934,205.275326848845 181.72625297959894,208.55467570014298 182.9351231395267,212.70850719569717 183.64029739936814,213.69230769225396 183.84177575958893,213.3643742656568 183.94251493969932,212.16195108287502 183.23734067939222,210.08503602212295 181.72625297959894,207.46156021999195 180.0136869191192,202.65184256003704 179.5099910190329,200.4656021167757 178.7040775786154,198.82591967482585 177.69668577890843,197.0769230768783" stroke="#4dd2ff" stroke-linecap="round" stroke-linejoin="round" stroke-width="0.5"><title>2023-10-09 1.0km</title><desc>10003389142</desc></polyline><polyline fill="none" points="16.087173212785274,216.74886002449784 16.797017474193126,217.95925753109623 17.506861736997962,218.83954601245932 18.216705998871475,220.49008551903535 18.62233129190281,223.79115907195956 20.143426139373332,227.0922253439203 21.461708340328187,230.83342498412821 22.070146279409528,231.933776039863 22.577177895233035,232.15384615387302 22.577177895233035,231.2735655036522 20.65045775519684,228.19257914996706 18.115299676079303,222.03058741625864 17.101236443966627,218.06929361983202 15.884360566269606,215.53846153849736" stroke="#4dd2ff" stroke-linecap="round" stroke-linejoin="round" stroke-width="0.5"><title>2023-10-08 1.0km</title><desc>9996447828</desc></polyline><polyline fill="none" points="36.31121172802523,216.82482065749355 36.60757984127849,217.68239277321845 37.99063103972003,220.14790979633108 38.48457789607346,221.9702457857784 39.966418465133756,225.9364985958673 40.46036532148719,227.65163160441443 42.040995261631906,231.61786896013655 42.534942118451,232.15384615387302 42.63373148953542,231.72506441478617 42.63373148953542,231.29628254973795 40.75673343567178,227.97321881901007 39.867629094049335,226.04369446774945 38.286999153438956,221.32706863759086 37.793052297085524,218.8615536086727 37.20031606918201,217.14641026011668 36.212422356940806,215.53846153838094" stroke="#4dd2ff" stroke-linecap="round" stroke-linejoin="round" stroke-width="0.5"><title>2023-10-07 1.0km</title><desc>9989974159</desc></polyline><polyline fill="none" points="56.93572380626574,218.4461679549422 58.94546941341832,221.87309997587 59.71108678728342,224.3654089506017 60.28529981803149,225.61156178917736 61.43372587906197,230.4923164874781 61.720832394436,231.4269271651283 62.29504542518407,232.15384615387302 62.773556283675134,232.15384615387302 62.96496062679216,231.73846392030828 62.86925845593214,231.4269271651283 61.720832394436,229.7653966435464 60.57240633293986,227.2730971967103 60.189597646240145,225.61156178917736 58.179852039553225,220.73079022637103 57.89274552417919,218.96540061372798 57.31853249343112,217.51154868816957 56.26580860419199,215.53846153849736" stroke="#4dd2ff" stroke-linecap="round" stroke-linejoin="round" stroke-width="0.5"><title>2023-10-06 1.0km</title><desc>9984428862</desc></polyline><polyline fill="none" points="76.1257100738585,215.53846153849736 76.82704002317041,216.67998163157608 78.58036489691585,221.37288963340688 79.74924814561382,225.3047756983433 81.73634966881946,230.25132931023836 82.55456794286147,231.90017736307345 82.90523291751742,232.15384615387302 83.37278621736914,232.15384615387302 83.48967454163358,231.90017736307345 83.13900956697762,231.26600522128865 81.73634966881946,229.23665280279238 80.91813139431179,227.5878022046527 79.51547149568796,223.90959134639706 78.93102987157181,222.00706541130785 77.29459332348779,218.96301955112722 77.29459332348779,217.82150096900295 76.71015169844031,215.6652971416479" stroke="#4dd2ff" stroke-linecap="round" stroke-linejoin="round" stroke-width="0.5"><title>2023-10-04 1.0km</title><desc>9971682885</desc></polyline><polyline fill="none" points="97.26913538016379,217.23175791895483 98.5370368110016,219.34837559377775 99.0246912073344,221.0416674928274 99.51234560320154,222.2058045178419 99.9024691209197,224.00492352293804 101.75555582670495,227.7089849829208 101.8530867062509,228.97894671792164 102.438271981664,231.51886682689656 102.6333337398246,231.8363565254258 103.21851901570335,232.15384615387302 103.21851901570335,231.09554711997043 101.95061758579686,228.76728650659788 101.07283967221156,226.75651294644922 100.5851852754131,225.80404027970508 100.0975308790803,224.42824531521183 99.12222208688036,222.41746569413226 98.73209856962785,220.83000611432362 98.5370368110016,219.2425447840942 98.24444417329505,217.65508170309477 96.78148098429665,215.53846153849736" stroke="#4dd2ff" stroke-linecap="round" stroke-linejoin="round" stroke-width="0.5"><title>2023-10-03 1.0km</title><desc>9965060084</desc></polyline><polyline fill="none" points="116.57988503202796,215.53846153849736 118.62872176477686,218.58072803204414 119.92272391170263,222.79308742273133 120.1383909364231,224.6652435733704 120.89322552224621,225.6013208227232 121.43239308334887,227.005435664556 122.40289469342679,230.63272660633083 123.1577292792499,231.80281869485043 123.6968968398869,232.15384615387302 123.80473035247996,232.0368370093638 123.48122981609777,231.10076354490593 122.29506118129939,228.8775868602097 120.35405796067789,224.19720474199858 119.16788932587951,220.68690912087914 118.95222230162472,217.99567723507062 117.9817206915468,216.0065029161051" stroke="#4dd2ff" stroke-linecap="round" stroke-linejoin="round" stroke-width="0.5"><title>2023-10-02 1.0km</title><desc>9958643020</desc></polyline><polyline fill="none" points="137.00985335046425,217.17814590933267 138.92389748990536,220.8947571220342 139.12537581985816,221.87856441759504 141.3416374544613,227.12552566535305 142.44976827176288,230.51417829771526 143.05420326301828,231.71660156885628 143.65863825380802,232.15384615387302 143.75937741948292,232.04453501966782 143.65863825380802,231.60729040252045 141.64385494962335,228.54657448385842 139.72981081111357,223.84617705526762 138.82315832423046,221.0040690760361 138.4202016638592,218.4898921039421 137.00985335046425,215.53846153849736" stroke="#4dd2ff" stroke-linecap="round" stroke-linejoin="round" stroke-width="0.5"><title>2023-10-01 1.0km</title><desc>9952075403</desc></polyline><polyline fill="none" points="157.26614329591393,216.77339499245863 158.6111475820653,218.9064595156815 159.542304395698,220.8149884052109 159.95615186775103,222.72351490950678 160.26653747214004,224.51977296976838 161.81846549501643,228.8981431396678 163.1634697811678,231.70478408189956 163.78424098948017,232.15384615387302 163.99116472667083,231.81704961217474 161.9219273631461,228.67361164162867 160.9907705495134,226.54056076181587 160.6803849451244,225.4179012074601 159.23191879084334,222.2744500641711 158.4042238453403,218.79419303592294 157.67999076843262,216.6611283563543 157.16268142778426,215.53846153849736" stroke="#4dd2ff" stroke-linecap="round" stroke-linejoin="round" stroke-width="0.5"><title>2023-09-30 1.0km</title><desc>9945549317</desc></polyline><polyline fill="none" points="177.7270430866629,216.74886002438143 179.24813692783937,218.3994018365629 180.16079323273152,219.93990588583983 180.46501200087368,221.15030081220903 181.27626204909757,223.13094494387042 181.681887073908,226.1019062269479 181.98610584205016,226.98218991886824 183.20298091508448,229.95314355718438 183.50719968322664,231.8237409706926 183.71001219563186,232.04381110088434 184.01423096377403,232.15384615387302 184.11563721951097,231.9337760397466 182.290324610658,228.63272044621408 181.07344953762367,225.7717997089494 180.6678245132789,224.12126602674834 179.24813692783937,220.82019320235122 178.63969939108938,218.8395460123429 177.42282431852072,215.53846153849736" stroke="#4dd2ff" stroke-linecap="round" stroke-linejoin="round" stroke-width="0.5"><title>2023-09-28 1.0km</title><desc>9933629332</desc></polyline><polyline fill="none" points="15.478733342140913,234.0 17.202641723211855,237.74122852028813 18.013892726507038,240.6021616671933 19.534988356288522,242.69284012366552 20.54905210994184,246.43404691503383 21.96874136524275,248.96485797129571 22.37436686689034,250.39531450124923 22.77999236760661,250.61538461537566 22.982805118896067,250.2852794319624 22.77999236760661,249.84513907448854 21.96874136524275,248.74478761432692 19.63639473170042,244.0132671177853 18.419518227223307,240.71219744801056 17.101235347799957,236.09068767901044 16.49279709579423,235.1003623001743" stroke="#4dd2ff" stroke-linecap="round" stroke-linejoin="round" stroke-width="0.5"><title>2023-09-27 1.0km</title><desc>9927137811</desc></polyline><polyline fill="none" points="40.84022276336327,234.0 40.563706501736306,234.60011360555654 40.252625707536936,236.10039453045465 39.94154491345398,236.96305406405008 39.69959318463225,238.01324630971067 38.282447344390675,240.97627706095227 37.55659215815831,242.213993670739 37.41833402728662,242.73908465838758 37.48746309254784,243.151655769645 37.66028575610835,243.75175860835589 38.17875374632422,245.0269747968414 38.35157640976831,245.3645314895548 38.55896360601764,245.96463172510266 39.25025425956119,246.82727457702276 39.56133505376056,247.5023853565217 39.90698038076516,248.02747090079356 40.18349664227571,248.77759216923732 40.59827103454154,249.34018239669967 41.11673902475741,250.2028195404273 41.42781981895678,250.61538461537566" stroke="#4dd2ff" stroke-linecap="round" stroke-linejoin="round" stroke-width="0.5"><title>2023-09-26 1.0km</title><desc>9920397094</desc></polyline><polyline fill="none" points="59.86778251430951,234.0 59.19472145033069,236.00847671349766 58.60579301929101,237.97129995079013 58.01686458825134,239.0211795999785 57.47000247333199,239.70588276250055 57.175538258161396,240.2536447487655 57.04933930863626,240.80140625167405 57.09140562475659,241.4861074507353 57.30173720768653,242.03386786626652 57.80653300555423,242.80986096098786 58.01686458825134,243.58585308579495 58.43752775317989,244.59007674863096 59.23678776668385,245.5942987871822 60.58290989487432,248.33307790919207 61.46630254155025,249.51987844338873 62.18142992211506,250.61538461537566" stroke="#4dd2ff" stroke-linecap="round" stroke-linejoin="round" stroke-width="0.5"><title>2023-09-25 1.0km</title><desc>9914573673</desc></polyline><polyline fill="none" points="81.00454408908263,233.9999999999709 80.77657232130878,234.53598783386406 80.3966193748638,235.1132049280859 80.32062878552824,235.40181325236335 80.3966193748638,235.77288087960915 80.43461466953158,236.1439482612186 79.67470877664164,237.5457561535004 79.48473230330274,238.49403597577475 79.2187652408611,239.19493742237682 77.62296286551282,241.99853444757173 77.58496757084504,242.32836846998543 77.73694874928333,242.9880359331728 78.15489699062891,243.6477026202483 78.38286875840276,244.22491033480037 78.72482641017996,244.80211745519773 78.91480288351886,245.3793239814404 79.40874171396717,246.16267474542838 79.78869466041215,246.94602441511233 80.20664290175773,247.39954214473255 80.32062878552824,247.81183067156235 80.58659584796987,248.14166127471253 81.15652526798658,249.13115192050464 81.5744735088665,249.58466788294027 81.68845939286985,249.99695480332593 82.03041704487987,250.61538461537566" stroke="#4dd2ff" stroke-linecap="round" stroke-linejoin="round" stroke-width="0.5"><title>2023-09-24 1.0km</title><desc>9907510217</desc></polyline><polyline fill="none" points="100.57318130251952,234.0 100.0818830432836,235.59936170827132 99.79529239214025,236.0436280981521 99.59058478428051,236.4878941613133 99.46776021947153,237.06543955515372 99.42681869771332,237.82069039088674 98.73081283061765,238.7536460023839 98.32139761489816,239.81987922283588 97.95292392070405,240.3529951274395 97.70727479108609,241.06381560198497 97.66633326932788,241.8190614398336 98.5261052227579,243.9959412201424 98.85363739542663,244.66233142180135 99.91811695694923,246.35051664331695 100.36847369442694,247.46116224321304 100.94165499671362,248.17197435570415 101.26918716938235,248.7495085815317 101.47389477747492,249.3270422553178 102.33366673067212,250.61538461537566" stroke="#4dd2ff" stroke-linecap="round" stroke-linejoin="round" stroke-width="0.5"><title>2023-09-23 1.0km</title><desc>9901004991</desc></polyline><polyline fill="none" points="120.75250796927139,234.0 120.46203375165351,235.03566045319894 120.17155953426845,235.57600434223423 119.88108531665057,236.52160500071477 119.21714424784295,237.91748901846586 118.55320317926817,238.86308606143575 117.9722547440324,240.4390778883826 117.93075842713006,241.294614610204 118.01375106116757,241.78992479777662 118.84367739665322,243.77116154169198 118.96816634712741,244.35652571672108 119.1341516142711,244.67172157915775 119.71510004927404,245.39216865581693 120.17155953426845,246.29272630956257 120.54502638522536,247.2383104210021 121.16747113713063,248.13886536023347 121.87290852260776,249.62477811501594 122.45385695784353,250.61538461537566" stroke="#4dd2ff" stroke-linecap="round" stroke-linejoin="round" stroke-width="0.5"><title>2023-09-22 1.0km</title><desc>9895405405</desc></polyline><polyline fill="none" points="141.323369926773,234.0 140.98959053400904,234.45274121768307 140.86442326172255,234.90548210247653 140.6140887173824,235.17712647351436 140.07169720390812,236.1731548086973 139.86308508366346,236.89753804041538 139.23724872246385,238.4821233887924 138.56968993716873,239.84033615596127 138.15246569621377,240.8363569478388 138.02729842392728,241.33436673949473 138.02729842392728,241.65128185180947 138.15246569621377,242.1040174435475 138.40280024078675,242.5567527025123 138.9451917540282,243.96022988960613 139.487583266804,244.95624401717214 139.77964023547247,245.6806169162155 140.3220317484811,246.58608184178593 140.65581114124507,246.99354062398197 140.90614568558522,247.71791112649953 141.57370447111316,248.8950113756 142.32470810436644,249.80047157465015 142.74193234555423,250.61538461537566" stroke="#4dd2ff" stroke-linecap="round" stroke-linejoin="round" stroke-width="0.5"><title>2023-09-21 1.0km</title><desc>9889267953</desc></polyline><polyline fill="none" points="161.97591603244655,233.9999999999709 162.06815732619725,234.20018897787668 161.97591603244655,235.53477990668034 161.4532153677428,237.10291923192563 161.1457443885738,238.3374080795911 160.65379082167055,239.3717069606937 160.06959596113302,241.10665462817997 159.05494172964245,243.00841656589182 158.77821784839034,244.0427047998819 158.80896494619083,244.27625342967804 158.99344753369223,244.7767143744568 159.39315980684478,245.64417870459147 159.63913659018,246.37818568872171 160.25407854875084,247.24564695739537 160.62304372387007,247.94628754086443 160.83827340917196,248.44674443814438 161.08425019250717,248.88047330267727 161.48396246565972,249.1807468891202 161.97591603244655,249.91474815289257 162.00666313036345,250.04820280053536 162.19114571798127,250.1816574089753 162.34488120756578,250.4152028792887 162.37562830548268,250.61538461537566" stroke="#4dd2ff" stroke-linecap="round" stroke-linejoin="round" stroke-width="0.5"><title>2023-09-20 1.0km</title><desc>9882714971</desc></polyline><polyline fill="none" points="181.9856119924225,233.9999999999709 181.77095648250543,234.8928961128113 181.44897321762983,235.70814776662155 180.8407826059265,237.49393270441215 180.80500668752939,238.07625257381005 180.5903511774959,238.38682290821453 180.33991974929813,238.96914179279702 180.19681607582606,239.51263883899082 179.91060872923117,240.25024107808713 179.08776260749437,241.57015830260934 178.8731070974609,242.34657865800546 178.80155526089948,243.04535600170493 178.8731070974609,243.74413242045557 179.08776260749437,244.52054957897053 179.33819403569214,245.06404091065633 180.12526423914824,246.4227667922387 180.5187993409345,246.96625616578967 180.8765585240908,247.93677151302109 181.23431770759635,248.55790039902786 181.59207689075265,249.06256708092405 181.9856119924225,249.45077189267613 182.2360434208531,249.99425814955612 182.73690627759788,250.61538461537566" stroke="#4dd2ff" stroke-linecap="round" stroke-linejoin="round" stroke-width="0.5"><title>2023-09-19 1.0km</title><desc>9876194288</desc></polyline><polyline fill="none" points="19.23076923075132,252.46153846156085 18.87673101760447,253.46999870979926 18.61120235780254,253.90219548234018 18.1686545915436,254.7665881695575 18.035890261642635,255.34284932533046 17.239304281771183,256.7354783526971 16.619737408822402,258.0320613295189 16.486973078921437,258.51227659371216 16.531227855710313,259.04051297623664 16.796756515745074,259.71281320916023 17.195049505215138,260.433134119201 17.54908771859482,261.4415820586728 18.035890261642635,262.49804965854855 18.566947581246495,263.4584732665098 19.05375012429431,264.0827478544088 19.629062220454216,265.0431691320846 19.983100433601066,266.1476518555428 20.602667306782678,267.10807009699056 20.912450743140653,267.97244530683383 21.48776283953339,268.5006740386016 21.974565382581204,269.0769230769365" stroke="#4dd2ff" stroke-linecap="round" stroke-linejoin="round" stroke-width="0.5"><title>2023-09-18 1.0km</title><desc>9870505463</desc></polyline><polyline fill="none" points="39.907081430079415,252.46153846156085 39.8630810205359,252.6525223091594 39.42307692323811,253.12998168257764 39.20307487435639,253.55969481845386 38.895072006387636,254.99206988420337 38.49906831886619,255.66051050031092 38.323066679760814,256.1857133586891 37.35505766584538,257.7613193853758 37.00305438810028,258.6207392431097 36.78305233945139,259.3846670505591 36.95905397832394,259.90986689692363 37.92706299223937,262.0106620346196 38.4110674993135,262.7745858542621 38.7630707770586,263.586253927846 39.335076103685424,264.35017589404015 39.64307897188701,264.87537172442535 40.03908265940845,266.11674199881963 41.755098638823256,268.4562410657527 42.06310150679201,269.0769230769365" stroke="#4dd2ff" stroke-linecap="round" stroke-linejoin="round" stroke-width="0.5"><title>2023-09-16 1.0km</title><desc>9856514700</desc></polyline><polyline fill="none" points="59.681959204841405,252.46153846156085 59.10497943102382,253.76188811159227 58.661148835904896,255.1103961330955 58.08416906208731,256.02545356651535 56.885826455196366,258.3371719144634 56.841443395707756,258.8669395535835 56.885826455196366,259.49302802904276 57.15212481236085,260.11911590606906 57.59595540747978,260.79336371982936 57.99540294311009,261.7084132140735 58.705531895393506,262.91242375894217 59.593193085864186,264.5980348039302 59.681959204841405,265.2241178015829 59.99264062126167,265.46491879521636 60.34770509763621,265.9465205168235 60.92468487122096,266.9097228979226 61.546047704294324,267.4394836038118 61.67919688276015,267.77660382993054 61.7679630019702,268.2100438657799 62.389325835043564,269.0769230769365" stroke="#4dd2ff" stroke-linecap="round" stroke-linejoin="round" stroke-width="0.5"><title>2023-09-15 1.0km</title><desc>9850671982</desc></polyline><polyline fill="none" points="80.19156216364354,252.46153846156085 79.97830113279633,252.7855195129523 79.6370834831614,254.03515914891614 78.95464818389155,255.84018979861867 78.18690847232938,256.95097531791544 77.84569082292728,257.5526499891421 77.33386434870772,258.8485627123737 77.20590772992,259.31138803833164 77.20590772992,259.68164805392735 77.33386434870772,260.1444727673661 77.84569082292728,261.5329448659322 78.3148650911171,262.45859123021364 79.46647465834394,264.4487263042247 79.93564892630093,265.328086309426 80.02095333859324,265.8371889088885 80.36217098822817,266.16116307588527 80.9166496687103,267.04052068892634 81.38582393690012,267.4570580769214 82.40947688533925,269.0769230769365" stroke="#4dd2ff" stroke-linecap="round" stroke-linejoin="round" stroke-width="0.5"><title>2023-09-14 1.0km</title><desc>9844236351</desc></polyline><polyline fill="none" points="97.19092269102111,252.62092106955242 97.22764265560545,252.66076671428164 97.22764265560545,252.89984052084037 97.55812233919278,253.01937738453853 97.85188205773011,253.25845103294705 97.96204195218161,253.49752457582508 98.03548188181594,254.0155168901838 98.25580167071894,254.4538176926435 98.40268153022043,255.6890271375305 98.40268153022043,256.2867081161821 98.32924160035327,256.60547103526187 98.40268153022043,257.0039244205109 98.58628135407344,257.4820680960838 98.51284142467193,257.8805208367412 98.5495613894891,258.0797470972175 98.91676103766076,258.7571158350329 99.24724072101526,259.75324479382834 99.54100043955259,260.31107621101546 99.90820008795708,260.8290620127518 100.31211970094591,261.187667277758 100.42227959539741,261.42673732264666 100.53243948984891,261.9447220580769 100.82619920861907,262.46270629845094 101.15667889197357,263.41898359535844 101.59731846954674,264.2557248460653 101.81763825868256,264.9729306041554 101.92779815313406,265.5706013441086 102.14811794203706,266.0487374616787 102.55203755502589,267.36360960968887 103.10283702751622,268.39956723724026 103.13955699256621,268.55894515800173 103.10283702751622,268.678478567861 102.66219744971022,269.0769230769365 102.88251723861322,268.9175453084463 102.99267713306472,268.678478567861 103.06611706269905,268.4792562035145 103.02939709788188,268.20034477033187 102.80907730897889,267.9214331936091 102.14811794203706,266.4870285320503 101.81763825868256,265.41122254455695 101.1199589271564,263.8572767924925 100.78947924356908,262.3431715177139 100.60587941948324,261.9048770960653 99.90820008795708,260.9884421598399 99.2105207561981,259.6735545445117 98.88004107261077,258.59773503174074 98.76988117862493,257.8805208367412 98.47612145962194,257.1234603789926 97.88860202254727,255.84840879630065 97.74172216327861,255.2507273342053 97.22764265560545,254.29443562368397 97.11748276115395,253.77644357588724 97.08076279633678,253.13891422192683 96.86044300743379,252.46153846156085" stroke="#4dd2ff" stroke-linecap="round" stroke-linejoin="round" stroke-width="0.5"><title>2023-09-13 1.0km</title><desc>9837636972</desc></polyline></svg>