<svg xmlns="http://www.w3.org/2000/svg" xmlns:ev="http://www.w3.org/2001/xml-events" xmlns:xlink="http://www.w3.org/1999/xlink" width="200mm" height="200mm" baseProfile="full" version="1.1" viewBox="0 0 200 200"><rect width="200" height="200" x="0" y="0" fill="#1a1a1a"/><text style="dominant-baseline:central;font-size:9px;font-family:Arial" x="100" y="100" fill="#e1ed5e" alignment-baseline="middle" text-anchor="middle">2023</text><line x1="100" x2="100" y1="15" y2="10" stroke="#e1ed5e" stroke-width=".3"/><path id="id1" fill="none" stroke="none" d="M 100.0 14.0 a86.0,86.0 0 0,1 42.46469731375804,11.215312516191453"/><text fill="#e1ed5e" text-anchor="middle" style="font-size:6.75px;font-family:Arial"><textPath startOffset="22.206" xlink:href="#id1">January</textPath></text><line x1="143.237" x2="145.78" y1="26.818" y2="22.514" stroke="#e1ed5e" stroke-width=".3"/><path id="id2" fill="none" stroke="none" d="M 143.74570117128098 25.957352633546492 a86.0,86.0 0 0,1 28.547481713284135,27.462654790039103"/><text fill="#e1ed5e" text-anchor="middle" style="font-size:6.75px;font-family:Arial"><textPath startOffset="19.986" xlink:href="#id2">February</textPath></text><line x1="172.234" x2="176.484" y1="55.198" y2="52.563" stroke="#e1ed5e" stroke-width=".3"/><path id="id3" fill="none" stroke="none" d="M 173.08426987136738 54.67131705675599 a86.0,86.0 0 0,1 12.851231095245387,41.99856678651699"/><text fill="#e1ed5e" text-anchor="middle" style="font-size:6.75px;font-family:Arial"><textPath startOffset="22.206" xlink:href="#id3">March</textPath></text><line x1="184.98" x2="189.979" y1="98.171" y2="98.064" stroke="#e1ed5e" stroke-width=".3"/><path id="id4" fill="none" stroke="none" d="M 185.9800911702706 98.14961562048488 a86.0,86.0 0 0,1 -9.607161424134198,41.387399972396054"/><text fill="#e1ed5e" text-anchor="middle" style="font-size:6.75px;font-family:Arial"><textPath startOffset="21.466" xlink:href="#id4">April</textPath></text><line x1="174.801" x2="179.201" y1="140.371" y2="142.746" stroke="#e1ed5e" stroke-width=".3"/><path id="id5" fill="none" stroke="none" d="M 175.68104954172406 140.8457921977663 a86.0,86.0 0 0,1 -30.038265399797805,32.042727171017184"/><text fill="#e1ed5e" text-anchor="middle" style="font-size:6.75px;font-family:Arial"><textPath startOffset="22.206" xlink:href="#id5">May</textPath></text><line x1="143.865" x2="146.446" y1="172.807" y2="177.09" stroke="#e1ed5e" stroke-width=".3"/><path id="id6" fill="none" stroke="none" d="M 144.38136562736335 173.6633856474863 a86.0,86.0 0 0,1 -40.68145358897372,12.25698825130547"/><text fill="#e1ed5e" text-anchor="middle" style="font-size:6.75px;font-family:Arial"><textPath startOffset="21.466" xlink:href="#id6">June</textPath></text><line x1="102.195" x2="102.324" y1="184.972" y2="189.97" stroke="#e1ed5e" stroke-width=".3"/><path id="id7" fill="none" stroke="none" d="M 102.22038585953345 185.97133177190398 a86.0,86.0 0 0,1 -42.740103519485714,-10.115201625700543"/><text fill="#e1ed5e" text-anchor="middle" style="font-size:6.75px;font-family:Arial"><textPath startOffset="22.206" xlink:href="#id7">July</textPath></text><line x1="58.667" x2="56.235" y1="174.274" y2="178.643" stroke="#e1ed5e" stroke-width=".3"/><path id="id8" fill="none" stroke="none" d="M 58.180547188652646 175.14741091055294 a86.0,86.0 0 0,1 -31.652253787137756,-30.449443065178592"/><text fill="#e1ed5e" text-anchor="middle" style="font-size:6.75px;font-family:Arial"><textPath startOffset="22.206" xlink:href="#id8">August</textPath></text><line x1="26.633" x2="22.317" y1="142.922" y2="145.446" stroke="#e1ed5e" stroke-width=".3"/><path id="id9" fill="none" stroke="none" d="M 25.769776987707644 143.4266507060508 a86.0,86.0 0 0,1 -11.730757126820373,-40.83630448921669"/><text fill="#e1ed5e" text-anchor="middle" style="font-size:6.75px;font-family:Arial"><textPath startOffset="21.466" xlink:href="#id9">September</textPath></text><path fill="#ff2003" stroke="none" d="M 80.0844068197444 106.66101706037122 l -40.024770216460105 13.386780641492152 a63.204124523840804,63.204124523840804 0 0,0 -0.33620907033556807,-1.0347451208207792 l 40.24927153781192 -12.69583662069357"/><path fill="#ff1202" stroke="none" d="M 79.97269907076064 106.31721596034903 l -39.93753698374456 12.597506121376433 a62.87724944174439,62.87724944174439 0 0,0 -0.31670140997097224,-1.034998532006088 l 40.148465166221655 -11.908180616818298"/><path fill="#ff0b01" stroke="none" d="M 79.86692584326677 105.97154293290107 l -39.97392386918444 11.856411034055725 a62.69519243399449,62.69519243399449 0 0,0 -0.29797342079787,-1.0372845682377239 l 40.17208992686841 -11.166568990313404"/><path fill="#ff0d01" stroke="none" d="M 79.76711848015287 105.62410040840567 l -40.23188761952525 11.18319085543742 a62.75725732300014,62.75725732300014 0 0,0 -0.2803513825230894,-1.0432917876426264 l 40.41842707839012 -10.489008134619255"/><path fill="#ff1b02" stroke="none" d="M 79.58551787078972 104.9243191809786 l -40.91477319420604 9.869336932007293 a63.08827006436359,63.08827006436359 0 0,0 -0.2455618805467323,-1.0578741544438144 l 41.078595640683325 -9.163594120214904"/><path fill="#ff1d02" stroke="none" d="M 79.50377843672027 104.57218783832718 l -41.11494123257933 9.171701901092014 a63.125508997766985,63.125508997766985 0 0,0 -0.22745011044404778,-1.0625711939538685 l 41.266725381747825 -8.462616887721982"/><path fill="#ff4706" stroke="none" d="M 79.4281124754447 104.21870165774334 l -42.29626552976511 8.673745921164805 a64.17647445159596,64.17647445159596 0 0,0 -0.21260769661823622,-1.0840820646132272 l 42.439303159359014 -7.944400129483623"/><path fill="#ff1001" stroke="none" d="M 79.35854240842038 103.8639653848113 l -41.113456218299966 7.696208999420214 a62.82759753053987,62.82759753053987 0 0,0 -0.1898397420283027,-1.0647220903618757 l 41.23984240266746 -6.987368158325125"/><path fill="#ff1902" stroke="none" d="M 79.29508885075956 103.50808413554451 l -41.44789779514308 7.022619496348131 a63.03861815315907,63.03861815315907 0 0,0 -0.17206014285845558,-1.0714186738238523 l 41.56263969236282 -6.308121592831065"/><path fill="#ff1202" stroke="none" d="M 79.23777060512086 103.15116336523772 l -41.39491644163577 6.282665590340311 a62.8689741232103,62.8689741232103 0 0,0 -0.15317860583937787,-1.0713308124732301 l 41.49692909849175 -5.569189305886679"/><path fill="#ff0e01" stroke="none" d="M 79.18660465613746 102.79330883721812 l -41.390305898910675 5.554879698024928 a62.76139498226717,62.76139498226717 0 0,0 -0.13448419294116484,-1.0719713379187883 l 41.47979160109869 -4.841590605818731"/><path fill="#ff1502" stroke="none" d="M 79.1416061653843 102.43462659150553 l -41.652401454189565 4.861737916374998 a62.93517667148299,62.93517667148299 0 0,0 -0.11633327204817429,-1.077101618026764 l 41.72991702773879 -4.144039976463452"/><path fill="#ff2103" stroke="none" d="M 79.10278846688536 102.07522291339032 l -42.018135497589974 4.1726618608593515 a63.22481282017602,63.22481282017602 0 0,0 -0.09822547826498026,-1.0839099676569801 l 42.08373557213203 -3.448770504653805"/><path fill="#ff2403" stroke="none" d="M 79.07016306316243 101.71520430193888 l -42.16621227095052 3.455529486534557 a63.30756600551688,63.30756600551688 0 0,0 -0.07965732173573778,-1.0868608670473001 l 42.21944615135059 -2.7291954829904963"/><path fill="#ff0e01" stroke="none" d="M 79.04373962182676 101.35467743843564 l -41.690928879235884 2.6950304930811777 a62.777945619335355,62.777945619335355 0 0,0 -0.060427207845279315,-1.0789683887797117 l 41.7311424379687 -1.9769903879660287"/><path fill="#ff1202" stroke="none" d="M 79.0095281055655 100.63252640178507 l -41.841705797187814 1.2608570091014601 a62.86069880467622,62.86069880467622 0 0,0 -0.023282217851399924,-1.0818331778361552 l 41.857210077724226 -0.5404340154751759"/><line x1="15.007" x2="10.008" y1="101.097" y2="101.162" stroke="#e1ed5e" stroke-width=".3"/><path id="id10" fill="none" stroke="none" d="M 14.007167355692545 101.11028546245083 a86.0,86.0 0 0,1 10.666146001902534,-42.60595125391555"/><text fill="#e1ed5e" text-anchor="middle" style="font-size:6.75px;font-family:Arial"><textPath startOffset="22.206" xlink:href="#id10">October</textPath></text><path fill="#ff1a02" stroke="none" d="M 79.00175016825051 100.2711162175752 l -42.04752654145609 0.5428912621601475 a63.0510311309602,63.0510311309602 0 0,0 -0.004670888572860223,-1.0853500068251005 l 42.05064172731845 0.18096822286862832"/><path fill="#ff0100" stroke="none" d="M 79.00019446554 99.90962569577889 l -41.47137479414669 -0.17847530235287434 a62.47175883357415,62.47175883357415 0 0,0 0.013883583515241962,-1.0752988435013084 l 41.46215820351373 0.8923104039146547"/><path fill="#ff1a02" stroke="none" d="M 79.00486145842228 99.54816195383935 l -42.0578432061383 -0.9051301882271071 a63.067581768028376,63.067581768028376 0 0,0 0.03269995715399437,-1.0851523820239906 l 42.036031554528655 1.6289527176760923"/><path fill="#ff1101" stroke="none" d="M 79.01574976396665 99.18683210126434 l -41.812765526797314 -1.6203008590398662 a62.84414816760804,62.84414816760804 0 0,0 0.0511922199422453,-1.0805868531933922 l 41.77867969862157 2.3397988188562677"/><path fill="#ff1902" stroke="none" d="M 79.05617556472873 98.46500227214037 l -41.93441690093786 -3.0734231401240493 a63.04689347169316,63.04689347169316 0 0,0 0.08864247968232954,-1.0816627752921342 l 41.87529993743603 3.794799832623962"/><path fill="#ff2203" stroke="none" d="M 79.08570108090925 98.10471618934814 l -42.085459384081304 -3.8138447835650973 a63.25791409431236,63.25791409431236 0 0,0 0.10760735784740456,-1.0835914083962501 l 42.01357490055167 4.537711722665778"/><path fill="#ff1d02" stroke="none" d="M 79.12142395522702 97.74499172005258 l -41.89427658740998 -4.524826807365933 a63.137921975568105,63.137921975568105 0 0,0 0.12600419152776215,-1.0795269635468592 l 41.81018204287863 5.245297509237655"/><path fill="#ff0d01" stroke="none" d="M 79.16333360222342 97.38593545837743 l -41.42837264284057 -5.197397600718498 a62.753119663733095,62.753119663733095 0 0,0 0.14368671738260982,-1.0706329406541484 l 41.332769926400125 5.909748883437306"/><path fill="#ff1702" stroke="none" d="M 79.21141760316559 97.0276538004421 l -41.5744341247608 -5.94430196877303 a62.99724156048864,62.99724156048864 0 0,0 0.16272519448748404,-1.0721557166937346 l 41.465953036834016 6.659056797858857"/><path fill="#ff2403" stroke="none" d="M 79.32604984820605 96.31383870115002 l -41.65883781736437 -7.42776269604731 a63.31584132405097,63.31584132405097 0 0,0 0.200543207176539,-1.0713098317303085 l 41.524808886277974 8.143750605240191"/><path fill="#ff1f03" stroke="none" d="M 79.3925641242962 95.95851677861259 l -41.40299953196211 -8.11986163309223 a63.19171154603968,63.19171154603968 0 0,0 0.21852507546714134,-1.0656058755787068 l 41.25709516057997 8.831343164834339"/><path fill="#ff1e03" stroke="none" d="M 79.46518482838121 95.60439243477599 l -41.22877313781601 -8.82528065604216 a63.16274793117037,63.16274793117037 0 0,0 0.23672679974088318,-1.0611998257776218 l 41.07075195107309 9.533658651369741"/><path fill="#ff1e03" stroke="none" d="M 79.54389044137918 95.25157060432595 l -41.06672145529771 -9.532723061708174 a63.15861027190332,63.15861027190332 0 0,0 0.2549418348651326,-1.0568984951150164 l 40.896546820171764 10.238206788482586"/><path fill="#ff2103" stroke="none" d="M 79.62865764111835 94.90015583598534 l -40.97682269968924 -10.25830337654517 a63.24136345724419,63.24136345724419 0 0,0 0.2734546561638511,-1.0537323393739622 l 40.794171711655075 10.962132141467995"/><path fill="#ff3204" stroke="none" d="M 79.71946130924805 94.55025226153421 l -41.181774283506435 -11.066287966497125 a63.64271640614738,63.64271640614738 0 0,0 0.2934027097718277,-1.0555256544749976 l 40.985184803168245 11.773524924391065"/><path fill="#ff2803" stroke="none" d="M 79.81627453868168 94.20196356495316 l -40.7624824599723 -11.709550793228065 a63.41100748719296,63.41100748719296 0 0,0 0.31039417275661113,-1.0464948453264884 l 40.554882390103984 12.409475025301091"/><path fill="#74ff27" stroke="none" d="M 79.91906864156998 93.8553929516997 l -50.03483343465902 -15.310265479995865 a73.32483909102851,73.32483909102851 0 0,0 0.37969876927277096,-1.203748860640096 l 49.763879181618044 16.169264507062376"/><path fill="#3bff9b" stroke="none" d="M 80.02781315780177 93.51064311812611 l -55.119615348483634 -17.90944867550393 a78.95619335347433,78.95619335347433 0 0,0 0.4311109906375507,-1.288966989163656 l 54.803167064074316 18.85558876758991"/><path fill="#45fff0" stroke="none" d="M 80.2630227832202 92.82701384747504 l -57.145976658461706 -20.7684943211653 a81.80290292920006,81.80290292920006 0 0,0 0.492357694166555,-1.3192738355216558 l 56.78001437579353 21.749091293716294"/><path fill="#ff0100" stroke="none" d="M 80.38941819471856 92.48833698450439 l -38.72400844329382 -14.832895062648841 a62.46762117430711,62.46762117430711 0 0,0 0.3932677353709738,-1.0008234907566718 l 38.46294715804116 15.497267558301276"/><path fill="#ff4d07" stroke="none" d="M 80.52162464483688 92.15188598940014 l -40.170791050011644 -16.185382112626165 a64.30887954814133,64.30887954814133 0 0,0 0.42253479610910055,-1.023201523937571 l 39.886234567016345 16.874458207017046"/><path fill="#ff1502" stroke="none" d="M 80.65960295795068 91.81776055985345 l -38.62109365976027 -16.33922173766292 a62.93517667148299,62.93517667148299 0 0,0 0.4306842650183,-0.9940786636916386 l 38.33411868489929 17.001599545941158"/><path fill="#ff2904" stroke="none" d="M 80.803312248108 91.48605970444005 l -38.77665365146399 -17.1978686280206 a63.41928280572705,63.41928280572705 0 0,0 0.4511759005248368,-0.994106291174563 l 38.4748754339758 17.862796928037234"/><path fill="#ff1e03" stroke="none" d="M 80.95270993114464 91.15688171328213 l -38.23844184517941 -17.753027497051438 a63.15861027190332,63.15861027190332 0 0,0 0.46629642909527597,-0.9821392000901819 l 37.92718722224239 18.408609112782152"/><path fill="#ff3304" stroke="none" d="M 81.10775173730289 90.83032412892265 l -38.39620533883897 -18.636255078844627 a63.67995533955077,63.67995533955077 0 0,0 0.48712129527965187,-0.9820068067394226 l 38.069724030605904 19.294421474083013"/><path fill="#ff2503" stroke="none" d="M 81.43458229118936 90.18545643968196 l -37.43200829126348 -19.788301113766163 a63.340667279653225,63.340667279653225 0 0,0 0.5178609315244767,-0.9595176566699193 l 37.08583926052053 20.429699753768556"/><path fill="#ff1302" stroke="none" d="M 81.6062741919709 89.86733742301443 l -36.690807844572454 -20.21208641719465 a62.889662419545516,62.889662419545516 0 0,0 0.5304963399676702,-0.943693794430165 l 36.33745386331235 20.8406637215596"/><line x1="26.266" x2="21.929" y1="57.711" y2="55.224" stroke="#e1ed5e" stroke-width=".3"/><path id="id11" fill="none" stroke="none" d="M 25.398753493254645 57.213857153982495 a86.0,86.0 0 0,1 29.58750427330803,-30.492523968695096"/><text fill="#e1ed5e" text-anchor="middle" style="font-size:6.75px;font-family:Arial"><textPath startOffset="21.466" xlink:href="#id11">November</textPath></text><path fill="#ff2103" stroke="none" d="M 81.78341655067845 89.55222093294921 l -36.635360685779254 -21.01152258059649 a63.23308813871011,63.23308813871011 0 0,0 0.5496470710993703,-0.9395250152246896 l 36.26825394020956 21.639027008175074"/><path fill="#ff900d" stroke="none" d="M 81.96595687620814 89.24020034530311 l -38.677372797019785 -23.076399430193554 a66.0384211217654,66.0384211217654 0 0,0 0.5908369540429296,-0.9711806023297036 l 38.27442004469064 23.73874780573033"/><path fill="#ff1d02" stroke="none" d="M 82.15384107792192 88.93136811851018 l -35.798977535599036 -22.20341675793666 a63.125508997766985,63.125508997766985 0 0,0 0.580671729109322,-0.9184832268335789 l 35.41147821024376 22.816347632484458"/><path fill="#ff2c04" stroke="none" d="M 82.34701348167596 88.62581576622439 l -35.717559153422364 -23.013561913169912 a63.48962301326679,63.48962301326679 0 0,0 0.5998359440804452,-0.9135912952131917 l 35.316126573984 23.62497127236077"/><path fill="#ff6709" stroke="none" d="M 82.54541684631803 88.32363383020206 l -36.54732467637823 -24.44858990275372 a64.97090503086827,64.97090503086827 0 0,0 0.6298327003640253,-0.9242017705110027 l 36.12106751034546 25.07406969653514"/><path fill="#ff2803" stroke="none" d="M 82.7489923806493 88.02491185347247 l -34.822653302295016 -24.172752803331367 a63.390319190857745,63.390319190857745 0 0,0 0.629940935320764,-0.8910067790786008 l 34.40139974717037 24.768586082741752"/><path fill="#ff3905" stroke="none" d="M 83.17141714833178 87.43820079747576 l -34.321422782927435 -25.61943718875509 a63.82891107316432,63.82891107316432 0 0,0 0.6648056457617539,-0.8748063021806102 l 33.87534119694157 26.20642826681673"/><path fill="#ff2d04" stroke="none" d="M 83.39014120810768 87.1503855733568 l -33.62989142496103 -26.016544958922687 a63.518586628136084,63.518586628136084 0 0,0 0.6764606050390949,-0.8590362727496612 l 33.177076739327966 26.591573625625394"/><path fill="#ff0500" stroke="none" d="M 83.6137871275137 86.86637796730984 l -32.43449911670774 -25.996394379430978 a62.566924996716146,62.566924996716146 0 0,0 0.6807922241853757,-0.8345707690725706 l 31.982208400445973 26.55084931811163"/><path fill="#ff1802" stroke="none" d="M 83.84228863543731 86.58626213691792 l -32.32285107403224 -26.833642556916917 a63.009654538289766,63.009654538289766 0 0,0 0.6999754119821837,-0.828550104176661 l 31.856165048562936 27.386051610722696"/><path fill="#ff2203" stroke="none" d="M 84.07557802195018 86.31012108654704 l -32.05069693401659 -27.55328643785407 a63.26618941284645,63.26618941284645 0 0,0 0.7170413257467976,-0.8197021884549321 l 31.571663744691946 28.100904182511943"/><path fill="#ff1702" stroke="none" d="M 84.31358615837235 86.03803664274999 l -31.37076720593473 -27.92209275110095 a62.99724156048864,62.99724156048864 0 0,0 0.7279372042047504,-0.8038064421828294 l 30.885486361113934 28.457951980553336"/><path fill="#ff2703" stroke="none" d="M 84.5562425177563 85.77008943001954 l -31.1684765317133 -28.7186997179121 a63.382043872323656,63.382043872323656 0 0,0 0.74619583074003,-0.7959896852337585 l 30.669513379002815 29.250958820023907"/><path fill="#ff1302" stroke="none" d="M 84.80347519578584 85.50635884689758 l -30.307216091210243 -28.905418839820566 a62.881387101011434,62.881387101011434 0 0,0 0.7537853467258261,-0.7768420594035704 l 29.8051664807813 29.42282509477426"/><path fill="#ff1f03" stroke="none" d="M 85.05521093208273 85.24692304244772 l -30.01423255666901 -29.629209266057494 a63.17516090897149,63.17516090897149 0 0,0 0.7706292639784722,-0.7673199370137751 l 29.499767492523226 30.14146505372138"/><path fill="#ff3605" stroke="none" d="M 85.31137513191541 84.99185889309783 l -29.896261963873734 -30.546584323059147 a63.74202022855642,63.74202022855642 0 0,0 0.7907554455016451,-0.7607061120578561 l 29.366023274759662 31.05667352187932"/><path fill="#ff0e01" stroke="none" d="M 85.57189188830299 84.74124197986013 l -28.700810356435 -30.353163202022614 a62.77380796006831,62.77380796006831 0 0,0 0.791524259619133,-0.7356355358858857 l 28.174078213021012 30.842703323983148"/><path fill="#ff1202" stroke="none" d="M 85.83668400450813 84.49514656593479 l -28.241053042370506 -30.916021953120982 a62.873111782477345,62.873111782477345 0 0,0 0.8053417259588893,-0.7230437532013436 l 27.704700328815644 31.397564715091605"/><path fill="#ff1a02" stroke="none" d="M 86.10567301691215 84.25364557470407 l -27.82241792902701 -31.530973339869163 a63.0510311309602,63.0510311309602 0 0,0 0.8199822668371699,-0.7110805415617564 l 27.27554186354307 32.0052188748506"/><path fill="#ff0a01" stroke="none" d="M 86.37877921826538 84.01681056812374 l -27.03131532516047 -31.718642576748532 a62.67450413765928,62.67450413765928 0 0,0 0.8271317355513009,-0.6926990414889255 l 26.481326052650058 32.17924277563127"/><path fill="#ff0300" stroke="none" d="M 86.93701828274178 83.55741782278169 l -25.815389457001192 -32.49423996535525 a62.500722448443454,62.500722448443454 0 0,0 0.8481271988963265,-0.6619767315092923 l 25.25222970294544 32.93379508608776"/><path fill="#ff0c01" stroke="none" d="M 87.22198572758235 83.33499621200491 l -25.390701550768174 -33.114389176789146 a62.728293708130835,62.728293708130835 0 0,0 0.8625255274474365,-0.6496363452439406 l 24.816929869562347 33.54654211153894"/><path fill="#ff0c01" stroke="none" d="M 87.51073957382395 83.11751280151077 l -24.81446909317468 -33.54321573155762 a62.72415604886378,62.72415604886378 0 0,0 0.8735225340117375,-0.6346512701305385 l 24.233401242809162 33.96538623650483"/><path fill="#ff1302" stroke="none" d="M 87.80319425747018 82.90503203632743 l -24.32952738815946 -34.10011605100902 a62.889662419545516,62.889662419545516 0 0,0 0.8866509849772928,-0.6211556771082193 l 23.738945263598506 34.51385657088118"/><path fill="#ff1702" stroke="none" d="M 88.09926311788651 82.69761687909137 l -23.799910551711264 -34.60249350004385 a62.99724156048864,62.99724156048864 0 0,0 0.898746563659983,-0.6068376917014421 l 23.20075929364474 35.00704310404396"/><path fill="#ff0a01" stroke="none" d="M 88.39885842347998 82.49532879139004 l -23.020181955300114 -34.73457449269229 a62.670366478392225,62.670366478392225 0 0,0 0.904342264244567,-0.588209364581301 l 22.418872665271262 35.12568278143312"/><path fill="#ff1702" stroke="none" d="M 88.70189139769569 82.29822771554957 l -22.588054903634944 -35.39075595106761 a62.98482858268751,62.98482858268751 0 0,0 0.9189211985168011,-0.5754283702092307 l 21.9755145527459 35.77432866259977"/><path fill="#ff0f01" stroke="none" d="M 89.00827224532344 82.1063720568725 l -21.87589164258267 -35.612150765834265 a62.79449625640353,62.79449625640353 0 0,0 0.9258837177969691,-0.5578345801890533 l 21.25964585856805 35.98343195548194"/><line x1="56.763" x2="54.22" y1="26.818" y2="22.514" stroke="#e1ed5e" stroke-width=".3"/><path id="id12" fill="none" stroke="none" d="M 56.25429882871897 25.957352633546506 a86.0,86.0 0 0,1 42.265352541879196,-11.944610805530505"/><text fill="#e1ed5e" text-anchor="middle" style="font-size:6.75px;font-family:Arial"><textPath startOffset="22.206" xlink:href="#id12">December</textPath></text><path fill="#ff2003" stroke="none" d="M 89.3179101791058 81.91981866633112 l -21.474325977127986 -36.34679301472946 a63.21653750164193,63.21653750164193 0 0,0 0.9416352139401059,-0.5454558942616043 l 20.84549403072256 36.711053066381105"/><path fill="#ff0801" stroke="none" d="M 89.63071344664047 81.73862282372117 l -20.55742045840737 -36.20372595843641 a62.63312754498884,62.63312754498884 0 0,0 0.9421093436923859,-0.5242828297646721 l 19.93118702564294 36.55222418576127"/><path fill="#ff1302" stroke="none" d="M 90.26544431104013 81.39251694778311 l -19.421800388757596 -37.1245317325788 a62.897937738079605,62.897937738079605 0 0,0 0.9636548485486681,-0.4936214419840085 l 18.779885052620163 37.45334569987532"/><path fill="#ff3d05" stroke="none" d="M 90.58718382345135 81.22770947309562 l -19.23426702357532 -38.35953468826851 a63.91166425850519,63.91166425850519 0 0,0 0.9876748297651301,-0.4846477495410567 l 18.571120926799765 38.6849375979444"/><path fill="#ff3004" stroke="none" d="M 90.91171255644093 81.06846463323043 l -18.431448047396582 -38.39398926773133 a63.588926835675814,63.588926835675814 0 0,0 0.9908420181289603,-0.46521361325249244 l 17.767827817968012 38.70556786362383"/><path fill="#ff2903" stroke="none" d="M 91.23893434514133 80.91482961587045 l -17.695327208976018 -38.547631999417845 a63.415145146460006,63.415145146460006 0 0,0 0.9959737537774978,-0.4468643913818808 l 17.029171336731743 38.846516721316256"/><path fill="#ff1302" stroke="none" d="M 91.56875222667455 80.76684994638697 l -16.821518774338664 -38.372824926353374 a62.897937738079605,62.897937738079605 0 0,0 0.9953336338979892,-0.4261499176924406 l 16.158501382650368 38.6566943720086"/><path fill="red" stroke="none" d="M 91.90106846888425 80.62456947434976 l -15.981373824535199 -38.232944315195155 a62.43865755943781,62.43865755943781 0 0,0 0.9952012307805351,-0.4059675700501305 l 15.320888724166283 38.50237277142886"/><path fill="#ff0701" stroke="none" d="M 92.23578459929587 80.48803036053334 l -15.380550697230932 -38.65230712370901 a62.60002627085249,62.60002627085249 0 0,0 1.0046315583209438,-0.38978143674081506 l 14.712935973910312 38.911331264340376"/><path fill="#ff1202" stroke="none" d="M 92.57280143429618 80.3572730644239 l -14.805129624830979 -39.15515599774534 a62.86069880467622,62.86069880467622 0 0,0 1.0154028594682518,-0.3739814424793935 l 14.128944439590157 39.404200708031055"/><path fill="#ff2003" stroke="none" d="M 92.91201910852362 80.23233633223022 l -14.247651593624472 -39.735262985404056 a63.21239984237489,63.21239984237489 0 0,0 1.027406172978557,-0.35844184010319724 l 13.56156341658263 39.974625678679466"/><path fill="#ff3705" stroke="none" d="M 93.25333710446033 80.11325718540243 l -13.738360900841155 -40.495761261434254 a63.762708524891636,63.762708524891636 0 0,0 1.042420625568841,-0.34366969090840394 l 13.039257453029904 40.72624467660189"/><path fill="#ff1902" stroke="none" d="M 93.59665428221793 80.00007090966166 l -12.818466930119383 -40.036637243761504 a63.03861815315907,63.03861815315907 0 0,0 1.036278717646357,-0.3219768419190399 l 12.127402839762297 40.25135422056307"/><path fill="#ff0f01" stroke="none" d="M 93.94186890950719 79.89281104454417 l -12.05697796106683 -40.0176111202665 a62.79449625640353,62.79449625640353 0 0,0 1.0376335463858106,-0.3029136859753423 l 11.366354196957596 40.21922313516054"/><path fill="#ff3c05" stroke="none" d="M 94.28887869178378 79.79150937346287 l -11.665676067702147 -41.27835721633594 a63.89511362143702,63.89511362143702 0 0,0 1.0609695708611986,-0.2900030620740961 l 10.953408607617227 41.47304681923633"/><path fill="#ff1b02" stroke="none" d="M 94.63758080256005 79.69619591428918 l -10.747378446675262 -40.69295189015838 a63.08827006436359,63.08827006436359 0 0,0 1.0523457253231814,-0.26826635683987 l 10.04532383266708 40.871921243167115"/><path fill="#ff1702" stroke="none" d="M 98.19473922651362 79.07773832637324 l -3.6092173391369315 -41.82940809187392 a62.98482858268751,62.98482858268751 0 0,0 1.0809690544062975,-0.08390400312882551 l 2.8886580953683 41.88533735719121"/><path fill="#ff4506" stroke="none" d="M 98.91598698831166 79.02799685794201 l -2.225551474148 -43.056930134029486 a64.11440956259031,64.11440956259031 0 0,0 1.102643180451194,-0.04748213482177791 l 1.4840674613074816 43.08885999537546"/><path fill="#ff1402" stroke="none" d="M 99.27714615592234 79.0124445844662 l -1.4427642402154306 -41.88964988034101 a62.914488375147776,62.914488375147776 0 0,0 1.0826485885295152,-0.027961618917254866 l 0.7214890164910364 41.90827829140063"/><path fill="#4dd2ff" stroke="none" d="M 99.63851952072746 79.00311137660856 l -1.0844414378176228 -62.990665870174325 a84.0,84.0 0 0,0 1.445921917090143,-0.012445506434235476 l 1.543054966925665e-14 63.0"/></svg>