<?xml version="1.0" encoding="utf-8" ?>
<svg baseProfile="full" height="200mm" version="1.1" viewBox="0,0,200,200" width="200mm" xmlns="http://www.w3.org/2000/svg" xmlns:ev="http://www.w3.org/2001/xml-events" xmlns:xlink="http://www.w3.org/1999/xlink"><defs /><rect fill="#1a1a1a" height="200" width="200" x="0" y="0" /><text alignment-baseline="middle" fill="#e1ed5e" style="dominant-baseline: central; font-size:9.0px; font-family:Arial;" text-anchor="middle" x="100.0" y="100.0">2025</text><line stroke="#e1ed5e" stroke-width="0.3" x1="100.0" x2="100.0" y1="15.0" y2="10.0" /><path d="M 100.0 14.0 a86.0,86.0 0 0,1 42.46469731375804,11.215312516191453" fill="none" id="id25" stroke="none" /><text fill="#e1ed5e" style="font-size:6.75px; font-family:Arial;" text-anchor="middle"><textPath startOffset="22.20632615414155" xlink:href="#id25">January</textPath></text><path d="M 100.0 79.0 l 0.0 -60.175421620127196 a81.1754216201272,81.1754216201272 0 0,0 1.3973014434472923,0.012027014667560364 l -1.035820964174764 60.166505982068195" fill="#47fffc" stroke="none" /><path d="M 100.36148047927253 79.00311137660856 l 1.058107429996653 -61.461033536123 a82.47014100082941,82.47014100082941 0 0,0 1.4191672547344485,0.03665290323855473 l -2.1159013199259693 61.43371384074208" fill="#4aecff" stroke="none" /><path d="M 100.72285384407766 79.0124445844662 l 2.126293468085228 -61.73544258876745 a82.77204865910976,82.77204865910976 0 0,0 1.423518295007325,0.06129969223329204 l -3.1886525954818845 61.68969517000996" fill="#4ae7ff" stroke="none" /><path d="M 101.08401301168833 79.027996857942 l 3.185505750963575 -61.62881432041318 a82.71108653580316,82.71108653580316 0 0,0 1.4212047144680369,0.0857309495184374 l -4.245872514271224 61.56485010151444" fill="#4ae8ff" stroke="none" /><path d="M 101.44485096284872 79.0497635885617 l 4.245672783698531 -61.56195402238649 a82.70818357755044,82.70818357755044 0 0,0 1.4194686086366515,0.11017808335477705 l -5.304731581697523 61.479750676843246" fill="#4ae8ff" stroke="none" /><path d="M 101.80526077348638 79.07773832637324 l 5.275783523952928 -61.14425408379092 a82.37144042023778,82.37144042023778 0 0,0 1.4115910310774566,0.13404757732676503 l -6.327499682120629 61.044380961948974" fill="#49edff" stroke="none" /><path d="M 102.16513564639614 79.11191278185805 l 6.441233653039971 -62.14162635079247 a83.4745645562621,83.4745645562621 0 0,0 1.4279449046969657,0.16044624798906185 l -7.509945261246662 62.02154414933281" fill="#4cdbff" stroke="none" /><path d="M 102.52436894288641 79.15227682838746 l 7.506455671886852 -61.99272506836569 a83.44553497373514,83.44553497373514 0 0,0 1.4244759647555936,0.1849378629592052 l -8.572446365150292 61.85432888224235" fill="#4cdbff" stroke="none" /><path d="M 102.88285421437855 79.19881850522331 l 8.427785585523612 -60.81053169084011 a82.39176112800665,82.39176112800665 0 0,0 1.4031356922136984,0.20678572719703892 l -9.473290258165965 60.6564514794821" fill="#49edff" stroke="none" /><path d="M 103.2404852339499 79.25152402106235 l 9.476873874681255 -60.67939698789121 a82.41498479402821,82.41498479402821 0 0,0 1.3997627644065989,0.23097284975726515 l -10.519965845226729 60.50727787519432" fill="#49edff" stroke="none" /><line stroke="#e1ed5e" stroke-width="0.3" x1="143.23703022742887" x2="145.7803849466894" y1="26.81831364943548" y2="22.513508569990506" /><path d="M 143.74570117128098 25.957352633546492 a86.0,86.0 0 0,1 28.547481713284135,27.462654790039103" fill="none" id="id26" stroke="none" /><text fill="#e1ed5e" style="font-size:6.75px; font-family:Arial;" text-anchor="middle"><textPath startOffset="19.985693538727396" xlink:href="#id26">February</textPath></text><path d="M 116.15771136456269 86.58626213691792 l 22.5100103859639 -18.68726156816991 a50.2560132706663,50.2560132706663 0 0,0 0.5468368959321551,0.6703573756904283 l -22.828345773972462 18.29702002287138" fill="#ff0500" stroke="none" /><path d="M 116.60985879189232 87.15038557335679 l 24.31321464574894 -18.8090361022567 a51.73942493779376,51.73942493779376 0 0,0 0.5388884320411426,0.7091140087741691 l -24.633379018014192 18.3877373176015" fill="#ff2c04" stroke="none" /><path d="M 116.82858285166822 87.43820079747576 l 48.75729444126542 -36.395182400567556 a81.84310201824718,81.84310201824718 0 0,0 0.8329967051981383,1.1362065697497346 l -49.37655375897718 35.550513387146324" fill="#48f7ff" stroke="none" /><path d="M 117.04232023915458 87.72973835380427 l 23.70705951985244 -17.068792223620086 a50.21246889687586,50.21246889687586 0 0,0 0.4989861232032399,0.7057804843462777 l -23.99735826285956 16.658185238942014" fill="#ff0400" stroke="none" /><path d="M 117.2510076193507 88.02491185347247 l 24.009281823558588 -16.666462186790042 a50.22698368813934,50.22698368813934 0 0,0 0.4869040496267038,0.7144716120231446 l -24.292610338854026 16.25071255149649" fill="#ff0400" stroke="none" /><path d="M 117.45458315368197 88.32363383020206 l 26.13603051156802 -17.48388144197557 a52.444843793198785,52.444843793198785 0 0,0 0.4954873079380327,0.7546611634198703 l -26.43311445486398 17.031402214578023" fill="#ff3e05" stroke="none" /><path d="M 117.65298651832404 88.62581576622439 l 51.2898079405771 -33.04708380225267 a82.01437655515622,82.01437655515622 0 0,0 0.754424488645184,1.1933183656038495 l -51.85106002546824 32.159317788934615" fill="#48f4ff" stroke="none" /><line stroke="#e1ed5e" stroke-width="0.3" x1="172.23445277983987" x2="176.4835382374775" y1="55.19839476539836" y2="52.563006222186495" /><path d="M 173.08426987136738 54.67131705675599 a86.0,86.0 0 0,1 12.851231095245387,41.99856678651699" fill="none" id="id27" stroke="none" /><text fill="#e1ed5e" style="font-size:6.75px; font-family:Arial;" text-anchor="middle"><textPath startOffset="22.20632615414155" xlink:href="#id27">March</textPath></text><path d="M 117.84615892207809 88.93136811851018 l 51.991678087198736 -32.24653261022918 a82.17984517555986,82.17984517555986 0 0,0 0.7352521241796084,1.2085611706221637 l -52.53904600966457 31.34680366639994" fill="#49f1ff" stroke="none" /><path d="M 118.03404312379186 89.2402003453031 l 52.59139808398024 -31.378038915604886 a82.24080729886646,82.24080729886646 0 0,0 0.7148697017218174,1.221944048661065 l -53.12372746017238 30.468115454589928" fill="#49f0ff" stroke="none" /><path d="M 118.21658344932153 89.55222093294921 l 51.590150003628736 -29.588560927103902 a80.47290572297484,80.47290572297484 0 0,0 0.6788171586580681,1.20753998079867 l -52.091824803579236 28.69613743637044" fill="#45ffef" stroke="none" /><path d="M 118.3937258080291 89.86733742301442 l 53.68862599343855 -29.575776930197776 a82.29596350566769,82.29596350566769 0 0,0 0.6728357333779017,1.2466624279109937 l -54.18976982603492 28.647233518954323" fill="#49efff" stroke="none" /><path d="M 118.56541770881063 90.18545643968196 l 54.48490709953688 -28.80325681304287 a82.62980370472768,82.62980370472768 0 0,0 0.6539187578836672,1.2631629020709905 l -54.97263529058067 27.861121188711536" fill="#4ae9ff" stroke="none" /><path d="M 118.73160827565052 90.50648371742162 l 54.00938421530531 -27.37292820320986 a81.54990323472492,81.54990323472492 0 0,0 0.6238178761560492,1.2575787724478162 l -54.47256210441476 26.439189842263094" fill="#47fcff" stroke="none" /><path d="M 118.89224826269711 90.83032412892265 l 55.663447535405886 -27.01720645785768 a82.8736521979541,82.8736521979541 0 0,0 0.6118514628429007,1.2887152223242817 l -56.12025719209054 26.055048819892853" fill="#4ae5ff" stroke="none" /><path d="M 119.04729006885535 91.15688171328212 l 55.40670789589762 -25.72376805465917 a82.08695051147362,82.08695051147362 0 0,0 0.5839809625694551,1.2867246414118043 l -55.84129117543042 24.766221404405304" fill="#49f2ff" stroke="none" /><path d="M 119.196687751892 91.48605970444005 l 26.57921267942361 -11.788170583401772 a50.07602985899918,50.07602985899918 0 0,0 0.3426852716634998,0.790964854282707 l -26.77818866092979 11.328906584532463" fill="#ff0000" stroke="none" /><path d="M 119.34039704204932 91.81776055985345 l 57.1977404364948 -24.19834539431784 a83.10588885816976,83.10588885816976 0 0,0 0.5460385883082584,1.322275752980763 l -57.605800711689255 23.210195070883774" fill="#4be1ff" stroke="none" /><path d="M 119.47837535516314 92.15188598940014 l 55.650962377731766 -22.422562948725147 a80.99834116671275,80.99834116671275 0 0,0 0.509928721482001,1.2977129755872028 l -56.02868464909547 21.46130096824216" fill="#46fff9" stroke="none" /><path d="M 119.61058180528143 92.48833698450437 l 58.83174541584429 -22.534989046486903 a84.0,84.0 0 0,0 0.505581645993499,1.354707451882667 l -59.21093165033941 21.518958457574904" fill="#4dd2ff" stroke="none" /><path d="M 119.7369772167798 92.82701384747503 l 57.15920274972863 -20.773301063781876 a81.81697539397291,81.81697539397291 0 0,0 0.4696563962477644,1.3277818768029162 l -57.5083122267862 19.786321560552345" fill="#48f7ff" stroke="none" /><path d="M 119.85752413597 93.16781622104841 l 56.84401573232883 -19.5577635740295 a81.11445949682059,81.11445949682059 0 0,0 0.442895401911695,1.3242008789251734 l -57.172248428012296 18.576389592182014" fill="#46fffb" stroke="none" /><path d="M 119.97218684219823 93.5106431181261 l 30.215041858033928 -9.817462222176934 a52.7699751175007,52.7699751175007 0 0,0 0.27325930551030525,0.8663066733066842 l -30.379556647312437 9.29590538244383" fill="#ff4606" stroke="none" /><path d="M 120.08093135843002 93.85539295169968 l 58.846511455260995 -18.00656964568958 a82.53981199889412,82.53981199889412 0 0,0 0.40402885366643204,1.3621844410610888 l -59.14774620603913 16.99095581788196" fill="#4aebff" stroke="none" /><path d="M 120.18372546131832 94.20196356495316 l 59.45465936621951 -17.079120596407687 a82.85913740669062,82.85913740669062 0 0,0 0.3819933657346279,1.3742333793907735 l -59.7398395025205 16.053175913597965" fill="#4ae5ff" stroke="none" /><path d="M 120.28053869075195 94.5502522615342 l 59.927674184892695 -16.103650491767333 a83.05363560962124,83.05363560962124 0 0,0 0.35912260785051703,1.383845903379512 l -60.195993124613516 15.069708162838971" fill="#4be2ff" stroke="none" /><path d="M 120.37134235888165 94.90015583598534 l 61.11402707664495 -15.299532492043943 a84.0,84.0 0 0,0 0.33906879895672226,1.4056590733623755 l -61.36832867586249 14.245288187022162" fill="#4dd2ff" stroke="none" /><path d="M 120.45610955862082 95.25157060432595 l 60.336191547178956 -14.005700582733933 a82.94042023776609,82.94042023776609 0 0,0 0.3108512674819994,1.3934852803135167 l -60.56833720166299 12.965037132870451" fill="#4be4ff" stroke="none" /><path d="M 120.53481517161879 95.60439243477599 l 60.62794891283305 -12.977797398127537 a83.00138236107273,83.00138236107273 0 0,0 0.2870294679566504,1.399657622197364 l -60.8423576767047 11.93226411976676" fill="#4be3ff" stroke="none" /><path d="M 120.6074358757038 95.95851677861258 l 60.96770011222181 -11.956845991724323 a83.12911252419131,83.12911252419131 0 0,0 0.26329870197916355,1.4065521943298385 l -61.164484538110834 10.905615719931923" fill="#4be1ff" stroke="none" /><path d="M 120.67395015179393 96.31383870115 l 60.412860417303285 -10.771601285096763 a82.36563450373237,82.36563450373237 0 0,0 0.23685273058981365,1.3979182234054093 l -60.58932500941332 9.730097273375515" fill="#49eeff" stroke="none" /><path d="M 120.73433829027371 96.67025291283417 l 60.75556659371466 -9.75679416735611 a82.53400608238871,82.53400608238871 0 0,0 0.21318968670545546,1.4046536681753818 l -60.91451217385942 8.709541386788645" fill="#4aebff" stroke="none" /><path d="M 120.78858239683441 97.02765380044208 l 60.98060802610262 -8.718991754854702 a82.60077412220073,82.60077412220073 0 0,0 0.18913217622454095,1.409254395202107 l -61.121656201385 7.668019017587931" fill="#4aeaff" stroke="none" /><path d="M 120.83666639777658 97.38593545837742 l 61.25127328569518 -7.684280132375463 a82.73140724357202,82.73140724357202 0 0,0 0.16510686062354432,1.4145347527619605 l -61.374470499322314 6.628801641288649" fill="#4ae7ff" stroke="none" /><path d="M 120.87857604477298 97.74499172005257 l 61.905526345636694 -6.686158777521761 a83.26555156206801,83.26555156206801 0 0,0 0.14164213492626967,1.4263169688698771 l -62.01144560624519 5.619566277947448" fill="#4bdeff" stroke="none" /><path d="M 120.91429891909075 98.10471618934814 l 29.813139404708867 -2.7017095183082707 a50.935305501797075,50.935305501797075 0 0,0 0.07161386603582322,0.8738705569080024 l -29.855227754564186 2.1881250441924993" fill="#ff1702" stroke="none" /><line stroke="#e1ed5e" stroke-width="0.3" x1="184.98032266829074" x2="189.97916517819016" y1="98.17113171792111" y2="98.06355123074" /><path d="M 185.9800911702706 98.14961562048488 a86.0,86.0 0 0,1 -9.607161424134198,41.387399972396054" fill="none" id="id28" stroke="none" /><text fill="#e1ed5e" style="font-size:6.75px; font-family:Arial;" text-anchor="middle"><textPath startOffset="21.466115282336823" xlink:href="#id28">April</textPath></text><line stroke="#e1ed5e" stroke-width="0.3" x1="174.80103733775053" x2="179.2010983576182" y1="140.37084112569926" y2="142.7455964860345" /><path d="M 175.68104954172406 140.8457921977663 a86.0,86.0 0 0,1 -30.038265399797805,32.042727171017184" fill="none" id="id29" stroke="none" /><text fill="#e1ed5e" style="font-size:6.75px; font-family:Arial;" text-anchor="middle"><textPath startOffset="22.206326154141568" xlink:href="#id29">May</textPath></text><line stroke="#e1ed5e" stroke-width="0.3" x1="143.8653032363475" x2="146.44561519142675" y1="172.8068346515853" y2="177.08958963109032" /><path d="M 144.38136562736335 173.6633856474863 a86.0,86.0 0 0,1 -40.68145358897372,12.25698825130547" fill="none" id="id30" stroke="none" /><text fill="#e1ed5e" style="font-size:6.75px; font-family:Arial;" text-anchor="middle"><textPath startOffset="21.466115282336833" xlink:href="#id30">June</textPath></text><line stroke="#e1ed5e" stroke-width="0.3" x1="102.19456741930631" x2="102.32365962044197" y1="184.97166512339345" y2="189.96999836594603" /><path d="M 102.22038585953345 185.97133177190398 a86.0,86.0 0 0,1 -42.740103519485714,-10.115201625700543" fill="none" id="id31" stroke="none" /><text fill="#e1ed5e" style="font-size:6.75px; font-family:Arial;" text-anchor="middle"><textPath startOffset="22.20632615414155" xlink:href="#id31">July</textPath></text><line stroke="#e1ed5e" stroke-width="0.3" x1="58.666819895761336" x2="56.23545636021788" y1="174.27360380694188" y2="178.64263932499728" /><path d="M 58.180547188652646 175.14741091055294 a86.0,86.0 0 0,1 -31.652253787137756,-30.449443065178592" fill="none" id="id32" stroke="none" /><text fill="#e1ed5e" style="font-size:6.75px; font-family:Arial;" text-anchor="middle"><textPath startOffset="22.20632615414155" xlink:href="#id32">August</textPath></text><line stroke="#e1ed5e" stroke-width="0.3" x1="26.63291911575756" x2="22.317208475507996" y1="142.92168965132927" y2="145.44649492493687" /><path d="M 25.769776987707644 143.4266507060508 a86.0,86.0 0 0,1 -11.730757126820373,-40.83630448921669" fill="none" id="id33" stroke="none" /><text fill="#e1ed5e" style="font-size:6.75px; font-family:Arial;" text-anchor="middle"><textPath startOffset="21.46611528233685" xlink:href="#id33">September</textPath></text><line stroke="#e1ed5e" stroke-width="0.3" x1="15.007084014347285" x2="10.007500721073583" y1="101.09737516637583" y2="101.16192664675087" /><path d="M 14.007167355692545 101.11028546245083 a86.0,86.0 0 0,1 10.666146001902534,-42.60595125391555" fill="none" id="id34" stroke="none" /><text fill="#e1ed5e" style="font-size:6.75px; font-family:Arial;" text-anchor="middle"><textPath startOffset="22.20632615414155" xlink:href="#id34">October</textPath></text><line stroke="#e1ed5e" stroke-width="0.3" x1="26.266209847984243" x2="21.928928074336255" y1="57.711370442889674" y2="55.22380399835377" /><path d="M 25.398753493254645 57.213857153982495 a86.0,86.0 0 0,1 29.58750427330803,-30.492523968695096" fill="none" id="id35" stroke="none" /><text fill="#e1ed5e" style="font-size:6.75px; font-family:Arial;" text-anchor="middle"><textPath startOffset="21.46611528233685" xlink:href="#id35">November</textPath></text><line stroke="#e1ed5e" stroke-width="0.3" x1="56.762969772571076" x2="54.21961505331055" y1="26.818313649435495" y2="22.513508569990535" /><path d="M 56.25429882871897 25.957352633546506 a86.0,86.0 0 0,1 42.265352541879196,-11.944610805530505" fill="none" id="id36" stroke="none" /><text fill="#e1ed5e" style="font-size:6.75px; font-family:Arial;" text-anchor="middle"><textPath startOffset="22.20632615414155" xlink:href="#id36">December</textPath></text></svg>