<?xml version="1.0" encoding="utf-8" ?>
<svg baseProfile="full" height="200mm" version="1.1" viewBox="0,0,200,200" width="200mm" xmlns="http://www.w3.org/2000/svg" xmlns:ev="http://www.w3.org/2001/xml-events" xmlns:xlink="http://www.w3.org/1999/xlink"><defs /><rect fill="#1a1a1a" height="200" width="200" x="0" y="0" /><text alignment-baseline="middle" fill="#e1ed5e" style="dominant-baseline: central; font-size:9.0px; font-family:Arial;" text-anchor="middle" x="100.0" y="100.0">2025</text><line stroke="#e1ed5e" stroke-width="0.3" x1="100.0" x2="100.0" y1="15.0" y2="10.0" /><path d="M 100.0 14.0 a86.0,86.0 0 0,1 42.46469731375804,11.215312516191453" fill="none" id="id25" stroke="none" /><text fill="#e1ed5e" style="font-size:6.75px; font-family:Arial;" text-anchor="middle"><textPath startOffset="22.20632615414155" xlink:href="#id25">January</textPath></text><path d="M 100.0 79.0 l 0.0 -48.351549483505494 a69.3515494835055,69.3515494835055 0 0,0 1.193772921218573,0.01027518042049009 l -0.8322924419460447 48.34438567969356" fill="#31ff3b" stroke="none" /><path d="M 100.36148047927253 79.00311137660856 l 0.8501998387866033 -49.38455143844428 a70.39186937687438,70.39186937687438 0 0,0 1.2113212710306875,0.03128485468486846 l -1.7001477450121587 49.36259979161705" fill="#33ff4e" stroke="none" /><path d="M 100.72285384407766 79.0124445844662 l 1.7084979393678257 -49.60504184018034 a70.63445518160611,70.63445518160611 0 0,0 1.2147752875248539,0.05231077922851649 l -2.562114059282011 49.568283334427626" fill="#33ff53" stroke="none" /><path d="M 101.08401301168833 79.027996857942 l 2.5595855384283572 -49.51936496655214 a70.58547150949684,70.58547150949684 0 0,0 1.2128531867227041,0.07316261638149708 l -3.4116007739906733 49.46796908079034" fill="#33ff52" stroke="none" /><path d="M 101.44485096284872 79.0497635885617 l 3.411440288489967 -49.46564205242073 a70.5831389536821,70.5831389536821 0 0,0 1.2113740830718154,0.0940259431497349 l -4.262404560924123 49.39959084708253" fill="#33ff52" stroke="none" /><path d="M 101.80526077348638 79.07773832637324 l 4.239144508749914 -49.13001599934948 a70.31256247917361,70.31256247917361 0 0,0 1.204939261245327,0.11442350173658423 l -5.084208897085484 49.04976695309772" fill="#32ff4d" stroke="none" /><path d="M 102.16513564639614 79.11191278185805 l 5.175595273363451 -49.93141453089334 a71.19893368877041,71.19893368877041 0 0,0 1.2179536978861654,0.1368512891551017 l -6.034315674759342 49.834927288267636" fill="#34ff5d" stroke="none" /><path d="M 102.52436894288641 79.15227682838746 l 6.031511755018269 -49.8117708702163 a71.17560813062312,71.17560813062312 0 0,0 1.2150193906821707,0.15774438820054787 l -6.888045874208286 49.70056815885162" fill="#34ff5d" stroke="none" /><path d="M 102.88285421437855 79.19881850522331 l 6.771809499686527 -48.86186673903558 a70.32889036987672,70.32889036987672 0 0,0 1.1977044175381095,0.176510497396715 l -7.611882897653293 48.738061757477894" fill="#32ff4d" stroke="none" /><path d="M 103.2404852339499 79.25152402106235 l 7.6147623691485276 -48.75649870158891 a70.34755081639454,70.34755081639454 0 0,0 1.1948055617080602,0.19715315517092746 l -8.452897136995462 48.61819928347836" fill="#32ff4e" stroke="none" /><line stroke="#e1ed5e" stroke-width="0.3" x1="143.23703022742887" x2="145.7803849466894" y1="26.81831364943548" y2="22.513508569990506" /><path d="M 143.74570117128098 25.957352633546492 a86.0,86.0 0 0,1 28.547481713284135,27.462654790039103" fill="none" id="id26" stroke="none" /><text fill="#e1ed5e" style="font-size:6.75px; font-family:Arial;" text-anchor="middle"><textPath startOffset="19.985693538727396" xlink:href="#id26">February</textPath></text><path d="M 116.15771136456269 86.58626213691792 l 18.087017120078066 -15.015400442534833 a44.507497500833054,44.507497500833054 0 0,0 0.48428715680218176,0.593678791481487 l -18.342802768956656 14.701837481445246" fill="#ff0300" stroke="none" /><path d="M 116.60985879189232 87.15038557335679 l 19.535909668704633 -15.113247491250135 a45.69943352215928,45.69943352215928 0 0,0 0.47597931568690083,0.6263329857757182 l -19.793164924615645 14.774729729593382" fill="#ff1e03" stroke="none" /><path d="M 116.82858285166822 87.43820079747576 l 39.17697078619504 -29.24389086812236 a69.88803732089303,69.88803732089303 0 0,0 0.7113184054056121,0.9702375055775526 l -39.67455180411428 28.565190918873313" fill="#32ff45" stroke="none" /><path d="M 117.04232023915458 87.72973835380427 l 19.048857999179447 -13.71494423477371 a44.47250916361213,44.47250916361213 0 0,0 0.44194530610009647,0.625100293754752 l -19.282115925083428 13.385017440687164" fill="#ff0300" stroke="none" /><path d="M 117.2510076193507 88.02491185347247 l 19.291696624638767 -13.391668050565274 a44.48417194268577,44.48417194268577 0 0,0 0.43123281297696164,0.6327809417094389 l -19.51935390328446 13.05760908558543" fill="#ff0300" stroke="none" /><path d="M 117.45458315368197 88.32363383020206 l 21.000560337741092 -14.048472548178525 a46.26624458513829,46.26624458513829 0 0,0 0.43711326643069637,0.6657534933914069 l -21.239270239529713 13.684900990809444" fill="#ff2b04" stroke="none" /><path d="M 117.65298651832404 88.62581576622439 l 41.21187055893976 -26.55366036049048 a70.02565811396201,70.02565811396201 0 0,0 0.6441440334444256,1.0188811693848512 l -41.66284218863014 25.84033154339142" fill="#32ff48" stroke="none" /><line stroke="#e1ed5e" stroke-width="0.3" x1="172.23445277983987" x2="176.4835382374775" y1="55.19839476539836" y2="52.563006222186495" /><path d="M 173.08426987136738 54.67131705675599 a86.0,86.0 0 0,1 12.851231095245387,41.99856678651699" fill="none" id="id27" stroke="none" /><text fill="#e1ed5e" style="font-size:6.75px; font-family:Arial;" text-anchor="middle"><textPath startOffset="22.20632615414155" xlink:href="#id27">March</textPath></text><path d="M 117.84615892207809 88.93136811851018 l 41.775830199133125 -25.910409519315543 a70.15861379540152,70.15861379540152 0 0,0 0.6276997688711491,1.0317733774827726 l -42.2156457662905 25.18746836862569" fill="#32ff4a" stroke="none" /><path d="M 118.03404312379186 89.2402003453031 l 42.257711178441966 -25.212566201875568 a70.20759746751082,70.20759746751082 0 0,0 0.6102722712559834,1.0431531342397093 l -42.68544312416828 24.481433655281965" fill="#32ff4b" stroke="none" /><path d="M 118.21658344932153 89.55222093294921 l 41.45319839234146 -23.774702848680395 a68.78707097634121,68.78707097634121 0 0,0 0.580243047682567,1.0321876365681357 l -41.856299081316465 23.057631702177463" fill="#2fff30" stroke="none" /><path d="M 118.3937258080291 89.86733742301442 l 43.1393447113778 -23.764430780078936 a70.25191602799066,70.25191602799066 0 0,0 0.574365952209072,1.0642128783730986 l -43.54201876280534 23.018336918373375" fill="#32ff4c" stroke="none" /><path d="M 118.56541770881063 90.18545643968196 l 43.77916449606239 -23.143703186221494 a70.52015994668443,70.52015994668443 0 0,0 0.5580850169132735,1.0780426177832938 l -44.17105894613578 22.386687846177853" fill="#33ff51" stroke="none" /><path d="M 118.73160827565052 90.50648371742162 l 43.39707713134717 -21.994419929136967 a69.65244918360547,69.65244918360547 0 0,0 0.5328080254579897,1.0741084669368943 l -43.76924516975857 21.24415187370112" fill="#31ff41" stroke="none" /><path d="M 118.89224826269711 90.83032412892265 l 44.72613345230769 -21.708593970470112 a70.71609463512162,70.71609463512162 0 0,0 0.5220929065088834,1.09966081139906 l -45.093184552658336 20.935490743430513" fill="#33ff54" stroke="none" /><path d="M 119.04729006885535 91.15688171328212 l 44.51984059968048 -20.669303355259853 a70.08397200933024,70.08397200933024 0 0,0 0.49858966839045626,1.0985762437333537 l -44.86903258503428 19.899905102684436" fill="#32ff49" stroke="none" /><path d="M 119.196687751892 91.48605970444005 l 21.356661615344926 -9.47191225150821 a44.362879040319896,44.362879040319896 0 0,0 0.3035884693437804,0.7007240441083419 l -21.516540794531387 9.102889062813265" fill="#ff0000" stroke="none" /><path d="M 119.34039704204932 91.81776055985345 l 45.95895305093895 -19.443611083249504 a70.90269910029991,70.90269910029991 0 0,0 0.465858800813091,1.1281140377575194 l -46.28683353863824 18.64962247503868" fill="#34ff58" stroke="none" /><path d="M 119.47837535516314 92.15188598940014 l 44.71610150399995 -18.016752234930326 a69.20926357880707,69.20926357880707 0 0,0 0.43571005014551445,1.1088345524533136 l -45.01960510402717 17.244368677581228" fill="#30ff38" stroke="none" /><path d="M 119.61058180528143 92.48833698450437 l 47.27189229570337 -18.107087722124426 a71.62112629123624,71.62112629123624 0 0,0 0.4310753204551367,1.155067541654373 l -47.57657220466013 17.29069704344072" fill="#35ff65" stroke="none" /><path d="M 119.7369772167798 92.82701384747503 l 45.92798763651416 -16.691553914850395 a69.86704431856049,69.86704431856049 0 0,0 0.40105985454890314,1.133850216110587 l -46.20850057187287 15.898506072313193" fill="#32ff45" stroke="none" /><path d="M 119.85752413597 93.16781622104841 l 45.674731734718044 -15.714857458017255 a69.30256581139619,69.30256581139619 0 0,0 0.37840094021403303,1.1313706474591945 l -45.93846996870385 14.926313707635746" fill="#30ff3a" stroke="none" /><path d="M 119.97218684219823 93.5106431181261 l 24.2780865046115 -7.888428492194593 a46.52749083638787,46.52749083638787 0 0,0 0.24093378488010567,0.7638259391638584 l -24.410275773259816 7.469352386604315" fill="#ff3104" stroke="none" /><path d="M 120.08093135843002 93.85539295169968 l 47.283756955165835 -14.468457715974498 a70.44785071642787,70.44785071642787 0 0,0 0.3448392197525678,1.1626264202467294 l -47.5258020720301 13.65240190898124" fill="#33ff4f" stroke="none" /><path d="M 120.18372546131832 94.20196356495316 l 47.77240984729889 -13.72324318498425 a70.70443185604798,70.70443185604798 0 0,0 0.3259583039645009,1.1726454482688802 l -48.00155492182976 12.898886433296418" fill="#33ff54" stroke="none" /><path d="M 120.28053869075195 94.5502522615342 l 48.152481956404955 -12.93944325862989 a70.8607130956348,70.8607130956348 0 0,0 0.3064006035890342,1.1806865143009524 l -48.368078891864286 12.108660318780087" fill="#33ff57" stroke="none" /><path d="M 120.37134235888165 94.90015583598534 l 49.10572829861706 -12.29332645200998 a71.62112629123624,71.62112629123624 0 0,0 0.28910106275591896,1.1985105478060571 l -49.3100621616338 11.446230672544516" fill="#35ff65" stroke="none" /><path d="M 120.45610955862082 95.25157060432595 l 48.48072971812647 -11.253719650727232 a70.76974341886037,70.76974341886037 0 0,0 0.26523695416618676,1.1890052577867483 l -48.667261059294695 10.41753622339052" fill="#33ff55" stroke="none" /><path d="M 120.53481517161879 95.60439243477599 l 48.71515966182763 -10.427789223376049 a70.81872709096967,70.81872709096967 0 0,0 0.24490027732142386,1.1942207267824785 l -48.88743923506405 9.587692840430158" fill="#33ff56" stroke="none" /><path d="M 120.6074358757038 95.95851677861258 l 48.98815312804759 -9.607444618919665 a70.92135954681771,70.92135954681771 0 0,0 0.22463251855167476,1.199995896340195 l -49.14627137050913 8.762770645116907" fill="#34ff58" stroke="none" /><path d="M 120.67395015179393 96.31383870115 l 48.542333917446626 -8.655088714471841 a70.30789736754414,70.30789736754414 0 0,0 0.20217919249777155,1.193273038829725 l -48.68412497146462 7.818229887326277" fill="#32ff4d" stroke="none" /><path d="M 120.73433829027371 96.67025291283417 l 48.817701737080064 -7.839681107036997 a70.44318560479839,70.44318560479839 0 0,0 0.18195846030580284,1.1988789076706783 l -48.94541609082516 6.998203086974237" fill="#33ff4f" stroke="none" /><path d="M 120.78858239683441 97.02765380044208 l 48.99852476517008 -7.005796551662657 a70.49683438853715,70.49683438853715 0 0,0 0.16141761195990412,1.2027487001865655 l -49.11185837618782 6.161329509411427" fill="#33ff50" stroke="none" /><path d="M 120.83666639777658 97.38593545837742 l 49.21600699197143 -6.174395476797077 a70.60179940019992,70.60179940019992 0 0,0 0.14089983286541938,1.2071437219130685 l -49.314997177840446 5.326308016559156" fill="#33ff52" stroke="none" /><path d="M 120.87857604477298 97.74499172005257 l 49.74170582964965 -5.372395045717251 a71.03098967010996,71.03098967010996 0 0,0 0.12083005317391673,1.2167421458390033 l -49.826813008505795 4.515377369173813" fill="#34ff5a" stroke="none" /><path d="M 120.91429891909075 98.10471618934814 l 49.40634337567727 -4.477273807058077 a70.60879706764413,70.60879706764413 0 0,0 0.0992743419193685,1.2113984241034803 l -49.47609220141613 3.6261614657468275" fill="#33ff52" stroke="none" /><path d="M 120.94382443527127 98.46500227214037 l 49.95763964761196 -3.66145464909315 a71.09163612129291,71.09163612129291 0 0,0 0.07894356851798558,1.2212220637227582 l -50.01326380713436 2.8009735211173563" fill="#34ff5b" stroke="none" /><path d="M 120.96714384426684 98.82574320788733 l 49.4287083139753 -2.768235716516636 a70.50616461179607,70.50616461179607 0 0,0 0.05743362256204621,1.2123329979014312 l -49.46903554477084 1.916991611992205" fill="#33ff50" stroke="none" /><path d="M 120.98425023603335 99.18683210126433 l 49.1124221618859 -1.9031723641296532 a70.14928357214262,70.14928357214262 0 0,0 0.036371753964337485,1.2070014424459157 l -49.137905610305886 1.0575007742587383" fill="#32ff4a" stroke="none" /><line stroke="#e1ed5e" stroke-width="0.3" x1="184.98032266829074" x2="189.97916517819016" y1="98.17113171792111" y2="98.06355123074" /><path d="M 185.9800911702706 98.14961562048488 a86.0,86.0 0 0,1 -9.607161424134198,41.387399972396054" fill="none" id="id28" stroke="none" /><text fill="#e1ed5e" style="font-size:6.75px; font-family:Arial;" text-anchor="middle"><textPath startOffset="21.466115282336823" xlink:href="#id28">April</textPath></text><path d="M 120.99513854157772 99.54816195383933 l 50.378538033289274 -1.0842005232932244 a71.39020326557815,71.39020326557815 0 0,0 0.015865598595490155,1.228808095723812 l -50.38973663900248 0.2168561695089496" fill="#35ff61" stroke="none" /><path d="M 120.99980553446 99.90962569577887 l 49.64565822453031 -0.21365396990364674 a70.64611796067976,70.64611796067976 0 0,0 -0.005233540818929493,1.2160905735471508 l -49.64198038642188 -0.6409460818471888" fill="#33ff53" stroke="none" /><path d="M 120.99824983174949 100.27111621757518 l 51.24431267948108 0.661634390352593 a72.2485838053982,72.2485838053982 0 0,0 -0.026759283615970127,1.2433987610482042 l -51.2253313331801 -1.543622967190912" fill="#36ff70" stroke="none" /><path d="M 120.9904718944345 100.63252640178507 l 49.71452096023847 1.4980962418375048 a70.73708763745418,70.73708763745418 0 0,0 -0.04715087405913717,1.2167545492672718 l -49.68136795332813 -2.353628038118783" fill="#33ff55" stroke="none" /><path d="M 120.9764740272857 100.99374915477107 l 50.17997568873177 2.3772493109301793 a71.23625458180605,71.23625458180605 0 0,0 -0.06856879305729813,1.224341861947814 l -50.13162054478694 -3.2406628892134166" fill="#34ff5e" stroke="none" /><path d="M 120.95626037817324 101.35467743843564 l 25.451044204703567 1.6452341565983895 a46.50416527824059,46.50416527824059 0 0,0 -0.05851428967112072,0.7983809927428515 l -25.418953356368107 -2.083088285838011" fill="#ff3004" stroke="none" /><path d="M 120.92983693683757 101.71520430193887 l 49.86150645576945 4.086160376317328 a71.02865711429524,71.02865711429524 0 0,0 -0.1103494578214794,1.217697071788013 l -49.78378240167089 -4.943838836653911" fill="#34ff5a" stroke="none" /><path d="M 120.89721153311464 102.0752229133903 l 48.78801390809027 4.8449528397812625 a70.02799066977673,70.02799066977673 0 0,0 -0.12944406801459737,1.1984913056064412 l -48.69738753857462 -5.684040467272495" fill="#32ff48" stroke="none" /><path d="M 120.8583938346157 102.4346265915055 l 49.83031596078136 5.816277766311284 a71.16861046317895,71.16861046317895 0 0,0 -0.1524990504686679,1.2155674773894585 l -49.722815401065844 -6.673162997988138" fill="#34ff5d" stroke="none" /><path d="M 120.81339534386255 102.79330883721812 l 49.00614845042745 6.576981087565209 a70.44551816061313,70.44551816061313 0 0,0 -0.1716386565864293,1.2004403644029389 l -48.88567574282442 -7.419566923948557" fill="#33ff4f" stroke="none" /><path d="M 120.76222939487914 103.15116336523771 l 48.924880219078226 7.425517138011542 a70.48517160946352,70.48517160946352 0 0,0 -0.19238506572371283,1.1979819879074458 l -48.789813398993225 -8.266578355612193" fill="#33ff50" stroke="none" /><path d="M 120.70491114924044 103.5080841355445 l 50.268571354003946 8.51712796120534 a71.98500499833389,71.98500499833389 0 0,0 -0.21750974597026515,1.2199101670134567 l -50.11451516569449 -9.381156878952014" fill="#36ff6b" stroke="none" /><path d="M 120.64145759157962 103.86396538481128 l 48.37891776518068 9.05626275518192 a70.21926024658447,70.21926024658447 0 0,0 -0.2326266019882936,1.1861580318056852 l -48.215861230216724 -9.887684514055552" fill="#32ff4b" stroke="none" /><path d="M 120.5718875245553 104.21870165774334 l 49.80165373738559 10.212884886206375 a71.83805398200599,71.83805398200599 0 0,0 -0.25884263860542056,1.209226634413065 l -49.61847706005573 -11.06862534003561" fill="#35ff69" stroke="none" /><path d="M 120.49622156327973 104.57218783832717 l 49.9895627109293 11.151405148726864 a72.21826057980674,72.21826057980674 0 0,0 -0.2810990356796795,1.2109672886627882 l -49.790203109319066 -12.010241094738216" fill="#36ff70" stroke="none" /><path d="M 120.41448212921028 104.9243191809786 l 48.28230234113903 11.646509865664488 a70.66711096301233,70.66711096301233 0 0,0 -0.2954177520956166,1.1800470707115953 l -48.07467327474835 -12.47588477577348" fill="#33ff53" stroke="none" /><path d="M 120.32669344350535 105.2749913415812 l 49.00035852542448 12.71610986186126 a71.62345884705098,71.62345884705098 0 0,0 -0.31995878349987655,1.190685660992071 l -48.774211665582826 -13.557686456028879" fill="#35ff65" stroke="none" /><path d="M 120.23288151984713 105.62410040840565 l 48.19889036500735 13.397765351446864 a71.0263245584805,71.0263245584805 0 0,0 -0.337569055516858,1.1751221671537795 l -47.961128672604396 -14.225444994105226" fill="#34ff5a" stroke="none" /><path d="M 120.13307415673323 105.97154293290107 l 47.764337544559034 14.167076030638018 a70.8210596467844,70.8210596467844 0 0,0 -0.35671295492267013,1.1657585759607287 l -47.513397817130226 -14.987161579150804" fill="#33ff56" stroke="none" /><path d="M 120.02730092923936 106.31721596034902 l 47.11520978354877 14.861561039674799 a70.40353215594801,70.40353215594801 0 0,0 -0.3745057189355345,1.1526100857458854 l -46.85241181359699 -15.67037002539848" fill="#33ff4f" stroke="none" /><path d="M 119.9155931802556 106.66101706037122 l 47.151046166516515 15.770251987316742 a70.71842719093635,70.71842719093635 0 0,0 -0.39605406947274563,1.1511185146882807 l -46.87260126610054 -16.579543205094325" fill="#33ff54" stroke="none" /><path d="M 119.79798401119884 107.00284435728193 l 46.93197542674725 16.600544737655316 a70.78140619793402,70.78140619793402 0 0,0 -0.4161803065418632,1.1451494612739033 l -46.63927085920016 -17.40594199593535" fill="#33ff56" stroke="none" /><path d="M 119.67450827220406 107.3425965602758 l 45.662429228890794 17.04138122036684 a69.73875374875041,69.73875374875041 0 0,0 -0.42941046636824776,1.1210552259049944 l -45.36232448292904 -17.824860013104978" fill="#31ff42" stroke="none" /><path d="M 119.54520255179757 107.68017299344265 l 46.469516896726304 18.25992479447294 a70.92835721426191,70.92835721426191 0 0,0 -0.4562969349840287,1.1324915719910835 l -46.148317347484884 -19.057115734306837" fill="#34ff58" stroke="none" /><path d="M 119.41010516605496 108.01547362559984 l 23.7629877974295 9.813012362697032 a46.70943018993669,46.70943018993669 0 0,0 -0.31328463863423456,0.7405123429451379 l -23.59055217760296 -10.220599231308334" fill="#ff3505" stroke="none" /><path d="M 119.26925614724726 108.34839909993367 l 46.15161282940053 19.995171586345638 a71.29690103298901,71.29690103298901 0 0,0 -0.4975807846388885,1.1219133118698776 l -45.80059096003037 -20.786633234708205" fill="#34ff5f" stroke="none" /><path d="M 119.12269723197855 108.67885076344098 l 46.16380113737885 20.95147645147466 a71.69576807730758,71.69576807730758 0 0,0 -0.5197102745967016,1.1194096958847701 l -45.796316245942315 -21.743006214638264" fill="#35ff66" stroke="none" /><path d="M 118.97047184881838 109.00673069616215 l 23.481832531737425 11.148617891595142 a46.99400199933356,46.99400199933356 0 0,0 -0.3532309606779242,0.7277604025511049 l -23.286448314444783 -11.551167250111522" fill="#ff3b05" stroke="none" /><path d="M 118.81262510543309 109.33194174019688 l 45.58033893422325 22.609979471166774 a71.88003998667111,71.88003998667111 0 0,0 -0.559368178592284,1.1036864836354294 l -45.1843920858447 -23.3912201665049" fill="#35ff69" stroke="none" /><path d="M 118.64920377521936 109.65438752849418 l 44.74524611224185 23.163881484283337 a71.38553815394869,71.38553815394869 0 0,0 -0.5743051247678965,1.0863688635237083 l -44.33988847924906 -23.930665362893176" fill="#34ff61" stroke="none" /><line stroke="#e1ed5e" stroke-width="0.3" x1="174.80103733775053" x2="179.2010983576182" y1="140.37084112569926" y2="142.7455964860345" /><path d="M 175.68104954172406 140.8457921977663 a86.0,86.0 0 0,1 -30.038265399797805,32.042727171017184" fill="none" id="id29" stroke="none" /><text fill="#e1ed5e" style="font-size:6.75px; font-family:Arial;" text-anchor="middle"><textPath startOffset="22.206326154141568" xlink:href="#id29">May</textPath></text><path d="M 118.48025628344425 109.97397251340804 l 22.827827405107573 12.320398569544695 a46.9403532155948,46.9403532155948 0 0,0 -0.3898811880704011,0.7077476049941764 l -22.61236980758566 -12.711516692936677" fill="#ff3a05" stroke="none" /><path d="M 118.30583269289576 110.29060199501025 l 43.36223347869543 24.376027784692706 a70.74408530489836,70.74408530489836 0 0,0 -0.60586583457675,1.0563781511677397 l -42.9362156479663 -25.118825781718762" fill="#33ff55" stroke="none" /><path d="M 118.12598468904814 110.60418214915192 l 43.07110856967754 25.197741721293706 a70.90036654448518,70.90036654448518 0 0,0 -0.6253382763830597,1.0481029206084616 l -42.630989417596254 -25.935406735788273" fill="#34ff58" stroke="none" /><path d="M 117.94076556474637 110.91462005526583 l 42.99964893436601 26.159688054262578 a71.33188937020994,71.33188937020994 0 0,0 -0.6472022497294265,1.0434961002464258 l -42.54298204496862 -26.89598048587428" fill="#34ff60" stroke="none" /><path d="M 117.75023020441432 111.22182372390056 l 20.60312180785624 13.025442398618322 a45.37520826391203,45.37520826391203 0 0,0 -0.4230592905394024,0.6565974138318311 l -20.37585765393979 -13.378161412371606" fill="#ff1702" stroke="none" /><path d="M 117.35343817320211 111.8261652097733 l 41.40499893352819 28.21702264480063 a71.10563145618127,71.10563145618127 0 0,0 -0.6979833506686038,1.0054970746963119 l -40.913154675697456 -28.92556098168396" fill="#34ff5b" stroke="none" /><path d="M 117.14729908036423 112.12312394758627 l 41.46168540269343 29.313371677774683 a71.77740753082304,71.77740753082304 0 0,0 -0.7219447105429244,1.0027180598753513 l -40.950960899774905 -30.022723343101163" fill="#35ff68" stroke="none" /><path d="M 116.93607887273984 112.41649034213515 l 20.95235438015954 15.360976277985248 a46.980006664445185,46.980006664445185 0 0,0 -0.4837570062750362,0.6480715643455389 l -20.684836107189412 -15.719360721840102" fill="#ff3b05" stroke="none" /><path d="M 116.71984013943494 112.70617746262583 l 19.057980618780554 14.48303822297748 a44.93668777074309,44.93668777074309 0 0,0 -0.4733185234137412,0.6118279954913015 l -18.805855278148744 -14.808944212582034" fill="#ff0d01" stroke="none" /><path d="M 116.498646956653 112.99209946851258 l 38.95681850544591 30.6771132402133 a70.58547150949684,70.58547150949684 0 0,0 -0.7599100370218889,0.9481046126944983 l -38.42299055636917 -31.343145686486046" fill="#33ff52" stroke="none" /><path d="M 116.27256486870786 113.27417163493432 l 39.71893957457015 32.40030230786201 a72.25791402865711,72.25791402865711 0 0,0 -0.7945067327888273,0.9570345415005684 l -39.15533684188778 -33.079198106476355" fill="#36ff70" stroke="none" /><path d="M 116.0416608686014 113.55231037782055 l 38.88984673087794 32.85490684286476 a71.91036321226258,71.91036321226258 0 0,0 -0.8069626538312187,0.9386798744806458 l -38.31854156747595 -33.51946381650693" fill="#36ff6a" stroke="none" /><path d="M 115.80600337817218 113.82643327865902 l 36.582216193599194 32.000598714586026 a69.60346551149615,69.60346551149615 0 0,0 -0.7965989033092951,0.8949873125549864 l -36.02595844064156 -32.62556019688188" fill="#31ff40" stroke="none" /><path d="M 115.56566222782051 114.09645910891815 l 38.03325976758811 34.44339747617258 a72.31156281239588,72.31156281239588 0 0,0 -0.843475097825683,0.9154256303347573 l -37.434738261766704 -35.09297436130867" fill="#36ff71" stroke="none" /><path d="M 115.32070863581623 114.36230785411682 l 34.7272799212598 32.55488352537621 a68.60046651116295,68.60046651116295 0 0,0 -0.8150174746134238,0.8545425637352511 l -34.16175589526741 -33.14783320569397" fill="#31ff2f" stroke="none" /><path d="M 115.07121518719521 114.62390073753431 l 16.864092168810892 16.36356503720101 a44.49816727757414,44.49816727757414 0 0,0 -0.5381298451422356,0.5451226920283083 l -16.57992169861312 -16.651428223209983" fill="#ff0300" stroke="none" /><path d="M 114.55890576462653 115.13401014063108 l 33.61824857723213 34.94623312380089 a69.49150283238919,69.49150283238919 0 0,0 -0.8691870289713493,0.8218705878113414 l -33.01172571386997 -35.51973834835815" fill="#31ff3e" stroke="none" /><path d="M 114.29624159901734 115.38237550388516 l 34.461516736851515 37.07967490673282 a71.62112629123624,71.62112629123624 0 0,0 -0.9102719464200756,0.8315118407152026 l -33.818145240964576 -37.66737951403461" fill="#35ff65" stroke="none" /><path d="M 114.0293411484842 115.62618273729858 l 33.638941172090234 37.46777815728804 a71.35288237254247,71.35288237254247 0 0,0 -0.9209878290111607,0.8126646776836258 l -32.98901099017249 -38.04126597674395" fill="#34ff60" stroke="none" /><path d="M 113.75828350139079 115.86535959552629 l 32.18976826316734 37.11961951795686 a70.13295568143951,70.13295568143951 0 0,0 -0.9188570160788536,0.7830698832796464 l -31.54604577051144 -37.66821379145946" fill="#32ff4a" stroke="none" /><path d="M 113.48314897796784 116.09983520530334 l 15.12754502126548 18.06336059188815 a44.561146284571805,44.561146284571805 0 0,0 -0.5923022397292258,0.487424419565974 l -14.814372652991562 -18.3210801303113" fill="#ff0500" stroke="none" /><path d="M 113.20401910651253 116.32954008644616 l 16.17393343403534 20.00246229849253 a46.72342552482506,46.72342552482506 0 0,0 -0.6297483575895524,0.500310182001924 l -15.827227583728439 -20.27790639449958" fill="#ff3505" stroke="none" /><path d="M 112.92097659922987 116.55440617244103 l 16.009496163990818 20.511429618302763 a47.01966011329557,47.01966011329557 0 0,0 -0.6423137944049931,0.4924988278844659 l -15.65405364109233 -20.7839677880146" fill="#ff3c05" stroke="none" /><path d="M 112.63410532772338 116.77436683061366 l 29.85566931548537 39.63952619363609 a70.62512495834721,70.62512495834721 0 0,0 -0.9773677513791746,0.7230332969073945 l -29.16891659368763 -40.147569439283245" fill="#33ff53" stroke="none" /><path d="M 112.34349029814194 116.9893568818739 l 29.34715204173366 40.392889487560886 a70.92835721426191,70.92835721426191 0 0,0 -0.9939179623204617,0.7091340759570121 l -28.647506751564315 -40.89206782536212" fill="#34ff58" stroke="none" /><path d="M 112.04921762599082 117.19931262002967 l 28.74654508371175 41.033437272644385 a71.10096634455182,71.10096634455182 0 0,0 -1.00842539630404,0.6936041828916141 l -28.03596280278483 -41.522182244901096" fill="#34ff5b" stroke="none" /><path d="M 111.7513745106137 117.40417183066458 l 13.3986292737365 19.843810267885363 a44.94368543818727,44.94368543818727 0 0,0 -0.644889026399908,0.4273972819740616 l -13.055065548596627 -20.071505570950745" fill="#ff0d01" stroke="none" /><path d="M 111.45004920935366 117.60387380957326 l 14.358664397823274 22.075723126744656 a47.334555148283904,47.334555148283904 0 0,0 -0.6868428736045362,0.438375618780234 l -13.976539722171808 -22.319613174348696" fill="#ff4306" stroke="none" /><path d="M 111.1453310114006 117.79835938074945 l 26.660651856217193 42.57530463443522 a71.23392202599135,71.23392202599135 0 0,0 -1.0448347454478757,0.6418228381126471 l -25.92383791083701 -43.02791593937625" fill="#34ff5e" stroke="none" /><line stroke="#e1ed5e" stroke-width="0.3" x1="143.8653032363475" x2="146.44561519142675" y1="172.8068346515853" y2="177.08958963109032" /><path d="M 144.38136562736335 173.6633856474863 a86.0,86.0 0 0,1 -40.68145358897372,12.25698825130547" fill="none" id="id30" stroke="none" /><text fill="#e1ed5e" style="font-size:6.75px; font-family:Arial;" text-anchor="middle"><textPath startOffset="21.466115282336833" xlink:href="#id30">June</textPath></text><path d="M 110.8373102113329 117.98757091392108 l 25.539843469271386 42.39056893043023 a70.48983672109296,70.48983672109296 0 0,0 -1.0447000930270234,0.617227229288336 l -24.80637550521598 -42.82391473201231" fill="#33ff50" stroke="none" /><path d="M 110.5260780823613 118.17145234162733 l 25.261184388259256 43.60906356694436 a71.39720093302233,71.39720093302233 0 0,0 -1.0687522929366897,0.6068654446509184 l -24.50678332840137 -44.0374321773899" fill="#35ff61" stroke="none" /><path d="M 110.21172684928248 118.3499491758327 l 24.835718215249294 44.62851129112882 a72.07364211929357,72.07364211929357 0 0,0 -1.089263327343177,0.5939532157364047 l -24.063832076037468 -45.04940515862499" fill="#36ff6d" stroke="none" /><path d="M 109.89434966115114 118.52300852407294 l 23.686873069731256 44.34370795505318 a71.27357547484172,71.27357547484172 0 0,0 -1.0871226016217261,0.5687311645812767 l -22.920059565583035 -44.744868538579176" fill="#34ff5f" stroke="none" /><path d="M 109.57404056367764 118.69057910512821 l 23.159330822589308 45.21197731328248 a71.79840053315561,71.79840053315561 0 0,0 -1.1048272650912974,0.5539833265545676 l -22.37764964981525 -45.60392848074635" fill="#35ff68" stroke="none" /><path d="M 109.2508944713604 118.85261126421891 l 22.041645818632883 44.91917852146616 a71.03565478173942,71.03565478173942 0 0,0 -1.10236285779417,0.5292011622217482 l -21.26517029283848 -45.291933960187464" fill="#34ff5a" stroke="none" /><path d="M 108.92500713936063 119.00905698771935 l 21.210646757054313 45.175806210068096 a70.90736421192935,70.90736421192935 0 0,0 -1.1093018323521286,0.5092260634138035 l -20.429876928934764 -45.53421934381598" fill="#34ff58" stroke="none" /><path d="M 108.59647513512805 119.15986991738527 l 20.720149998031616 46.18118151807847 a71.6164611796068,71.6164611796068 0 0,0 -1.1290823643211136,0.4949565278463137 l -19.92214695905275 -46.531002599219235" fill="#35ff65" stroke="none" /><path d="M 108.2653958097858 119.30500536409082 l 19.909293961014654 46.500982597542325 a71.58380539820061,71.58380539820061 0 0,0 -1.1369162922895055,0.47523110238365474 l -19.105906209227687 -46.83679874294596" fill="#35ff64" stroke="none" /><path d="M 107.93186726928326 119.44442032107085 l 9.81637955285506 24.06417096716332 a46.9893368877041,46.9893368877041 0 0,0 -0.7515584719689663,0.2990606263956172 l -9.400700004844229 -24.229578437965007" fill="#ff3b05" stroke="none" /><path d="M 107.59598834532513 119.57807347666477 l 18.17789280240252 46.8521151899081 a71.2549150283239,71.2549150283239 0 0,0 -1.1473051756320256,0.43381264642259687 l -17.368717406010223 -47.158076086437326" fill="#34ff5e" stroke="none" /><path d="M 107.2578585660854 119.70592522655815 l 19.05681646603275 51.74146022776941 a76.1392869043652,76.1392869043652 0 0,0 -1.2337480952931463,0.44237817231740767 l -18.163348810109866 -52.06182594112678" fill="#3effb3" stroke="none" /><path d="M 106.91757812671514 119.82793768551818 l 16.689627289834444 47.837680158518324 a71.66544485171609,71.66544485171609 0 0,0 -1.1682500416790667,0.39633384322359966 l -15.86370751521815 -48.11787698864005" fill="#35ff66" stroke="none" /><path d="M 106.57524785965236 119.94407469862006 l 15.784830833129687 47.87862784197217 a71.41352882372543,71.41352882372543 0 0,0 -1.170769221225788,0.3748433329630594 l -14.958340266812959 -48.14324402159494" fill="#35ff61" stroke="none" /><path d="M 106.2309692047433 120.05430185196036 l 7.24351035175424 23.31315374681962 a45.41252915694768,45.41252915694768 0 0,0 -0.7484958483419808,0.2255156591003697 l -6.841139528972013 -23.434384775025713" fill="#ff1802" stroke="none" /><path d="M 105.88484417918355 120.15858648285463 l 6.853558949099137 23.47692760998898 a45.45684771742752,45.45684771742752 0 0,0 -0.7530009770051586,0.2128055976251184 l -6.448426803989372 -23.591422000952615" fill="#ff1902" stroke="none" /><path d="M 105.53697534728816 120.25689768951611 l 6.384465298255953 23.357420294886893 a45.21426191269576,45.21426191269576 0 0,0 -0.7525150790338702,0.19874607187596668 l -5.981459776410586 -23.463857716066443" fill="#ff1302" stroke="none" /><path d="M 105.18746579009965 120.34920634021253 l 12.359340352953193 48.48278085055634 a71.03332222592469,71.03332222592469 0 0,0 -1.1874292591041866,0.2918412218774682 l -11.522957809105796 -48.688343330747834" fill="#34ff5a" stroke="none" /><path d="M 104.83641907484287 120.43548508189849 l 11.420352450525877 48.254801439084765 a70.58780406531156,70.58780406531156 0 0,0 -1.1847989824584257,0.2696563910332238 l -10.58803331867459 -48.44423456369567" fill="#33ff52" stroke="none" /><path d="M 104.48393922423573 120.51570834832081 l 10.702584692835893 48.968350182946345 a71.1242919026991,71.1242919026991 0 0,0 -1.1983038940459185,0.2511162318878492 l -9.858089337360598 -49.14532239556073" fill="#34ff5c" stroke="none" /><path d="M 104.13013068566511 120.58985236759428 l 9.777808001140295 48.74509756335715 a70.71609463512164,70.71609463512164 0 0,0 -1.1955477984038254,0.22912958099183517 l -8.937292588164766 -48.90618434269745" fill="#33ff54" stroke="none" /><path d="M 103.7750983002368 120.6578951692458 l 8.953226580768227 48.993377502358804 a70.8047317560813,70.8047317560813 0 0,0 -1.2008180018844743,0.20877760179882895 l -8.108559607411703 -49.14023368267864" fill="#33ff56" stroke="none" /><path d="M 103.41894727170886 120.7198165907248 l 8.212612873261781 49.770826790071595 a71.4438520493169,71.4438520493169 0 0,0 -1.215103891317864,0.189774237950183 l -7.354673118335401 -49.904819335368884" fill="#35ff62" stroke="none" /><path d="M 103.06178313531738 120.77559828337769 l 7.455338208644623 50.58787799269196 a72.1342885704765,72.1342885704765 0 0,0 -1.2299631586745825,0.17046168634247086 l -6.583446458783209 -50.70871424452703" fill="#36ff6e" stroke="none" /><path d="M 102.70371172650421 120.8252237178851 l 6.526086807582242 50.26690398904374 a71.68877040986337,71.68877040986337 0 0,0 -1.225101608345982,0.1483427435471581 l -5.65985777618488 -50.371792261316244" fill="#35ff66" stroke="none" /><path d="M 102.34483914955558 120.86867818915974 l 2.70321954162362 24.058204034798283 a45.20959680106631,45.20959680106631 0 0,0 -0.7740903490603365,0.0802376297445841 l -2.288696595957681 -24.101171032998625" fill="#ff1302" stroke="none" /><path d="M 101.98527174616119 120.90594882070398 l 2.348455414485914 24.730462616960725 a45.841719426857715,45.841719426857715 0 0,0 -0.786197892194322,0.06783646228672975 l -1.9224132045500502 -24.767223331526118" fill="#ff2103" stroke="none" /><line stroke="#e1ed5e" stroke-width="0.3" x1="102.19456741930631" x2="102.32365962044197" y1="184.97166512339345" y2="189.96999836594603" /><path d="M 102.22038585953345 185.97133177190398 a86.0,86.0 0 0,1 -42.740103519485714,-10.115201625700543" fill="none" id="id31" stroke="none" /><text fill="#e1ed5e" style="font-size:6.75px; font-family:Arial;" text-anchor="middle"><textPath startOffset="22.20632615414155" xlink:href="#id31">July</textPath></text><line stroke="#e1ed5e" stroke-width="0.3" x1="58.666819895761336" x2="56.23545636021788" y1="174.27360380694188" y2="178.64263932499728" /><path d="M 58.180547188652646 175.14741091055294 a86.0,86.0 0 0,1 -31.652253787137756,-30.449443065178592" fill="none" id="id32" stroke="none" /><text fill="#e1ed5e" style="font-size:6.75px; font-family:Arial;" text-anchor="middle"><textPath startOffset="22.20632615414155" xlink:href="#id32">August</textPath></text><path d="M 82.85270091963577 112.12312394758628 l -20.9279709313609 14.796055307794967 a46.63012329223592,46.63012329223592 0 0,0 -0.4577281578275888,-0.6593915503298269 l 21.179559996350623 -14.433622495278128" fill="#ff3304" stroke="none" /><path d="M 82.6465618267979 111.8261652097733 l -40.83830884989812 27.830829978836697 a70.41986004665111,70.41986004665111 0 0,0 -0.6740082469898977,-1.0075508786100484 l 41.311320202298745 -27.123742186020827" fill="#33ff4f" stroke="none" /><path d="M 82.44556493220864 111.52570212397912 l -21.167493846044987 13.897925386861854 a46.322225924691764,46.322225924691764 0 0,0 -0.4318888835049705,-0.6703011381939307 l 21.403587592927003 -13.531502648746475" fill="#ff2c04" stroke="none" /><path d="M 82.24976979558568 111.22182372390057 l -20.922519485643093 13.227367917142374 a45.75308230589803,45.75308230589803 0 0,0 -0.41512285825980727,-0.6693102255104235 l 21.147106983570858 -12.865261360266686" fill="#ff1f03" stroke="none" /><path d="M 82.05923443525364 110.91462005526583 l -43.18098956153383 26.270010216322923 a71.54415194935022,71.54415194935022 0 0,0 -0.6310164368081564,-1.057619844088104 l 43.626786874040214 -25.522828278348708" fill="#35ff63" stroke="none" /><line stroke="#e1ed5e" stroke-width="0.3" x1="26.63291911575756" x2="22.317208475507996" y1="142.92168965132927" y2="145.44649492493687" /><path d="M 25.769776987707644 143.4266507060508 a86.0,86.0 0 0,1 -11.730757126820373,-40.83630448921669" fill="none" id="id33" stroke="none" /><text fill="#e1ed5e" style="font-size:6.75px; font-family:Arial;" text-anchor="middle"><textPath startOffset="21.46611528233685" xlink:href="#id33">September</textPath></text><path d="M 81.87401531095188 110.60418214915194 l -43.61269358371215 25.514583329437883 a71.5278240586471,71.5278240586471 0 0,0 -0.612577922691031,-1.0680812425585933 l 44.04542350255556 -24.76008224102098" fill="#35ff63" stroke="none" /><path d="M 81.69416730710424 110.29060199501025 l -44.57611575323267 25.058410256204564 a72.13662112629125,72.13662112629125 0 0,0 -0.5991584984230145,-1.0876467119881086 l 45.0008506611072 -24.287393025818634" fill="#36ff6e" stroke="none" /><path d="M 81.51974371655577 109.97397251340807 l -43.44902640804889 23.449858512863333 a70.37320893035654,70.37320893035654 0 0,0 -0.5661608160452278,-1.0709629006832804 l 43.846239732319006 -22.698480597093926" fill="#33ff4e" stroke="none" /><path d="M 81.35079622478065 109.6543875284942 l -44.453172610930494 23.012679813560528 a71.05664778407197,71.05664778407197 0 0,0 -0.5529605667334174,-1.091043657547607 l 44.84271184745018 -22.244081944310235" fill="#34ff5b" stroke="none" /><path d="M 81.18737489456691 109.33194174019688 l -45.58242852936991 22.611016008070063 a71.88237254248584,71.88237254248584 0 0,0 -0.5403046863161397,-1.1131876867730557 l 45.964886472300776 -21.823039365331724" fill="#35ff6a" stroke="none" /><path d="M 81.02952815118164 109.00673069616217 l -21.644417064429884 10.27625654903674 a44.96001332889037,44.96001332889037 0 0,0 -0.3259073931369922,-0.7019755307342671 l 21.818099074406703 -9.902160951023646" fill="#ff0e01" stroke="none" /><path d="M 80.87730276802145 108.67885076344099 l -46.49939884510431 21.1037877277852 a72.06431189603464,72.06431189603464 0 0,0 -0.5029365419556933,-1.1339891307406598 l 46.85577647179128 -20.300250260551845" fill="#36ff6d" stroke="none" /><path d="M 80.73074385275274 108.34839909993369 l -21.505885345722586 9.31741798912959 a44.4375208263912,44.4375208263912 0 0,0 -0.2980467241258877,-0.7044944142545827 l 21.663083051040783 -8.945849049208848" fill="#ff0200" stroke="none" /><path d="M 80.58989483394504 108.01547362559985 l -44.363182717084605 18.31993788670088 a68.99700099966677,68.99700099966677 0 0,0 -0.44387211710168484,-1.1016541929589931 l 44.67195744844368 -17.55358432589908" fill="#30ff34" stroke="none" /><path d="M 80.45479744820244 107.68017299344265 l -22.211148206979995 8.727740741520803 a44.864378540486506,44.864378540486506 0 0,0 -0.2762486089412914,-0.7211979468544977 l 22.358091095514798 -8.344119227833147" fill="#ff0b01" stroke="none" /><path d="M 80.32549172779594 107.34259656027581 l -22.20293280524194 8.286213601288706 a44.69876707764078,44.69876707764078 0 0,0 -0.2628196808127163,-0.7231668850351857 l 22.34227674705988 -7.902798919247403" fill="#ff0801" stroke="none" /><path d="M 80.20201598880116 107.00284435728193 l -46.828620406362226 16.563986514308414 a70.67177607464178,70.67177607464178 0 0,0 -0.3957928028526118,-1.1503591515939668 l 47.10680404015807 -15.75545465962515" fill="#33ff54" stroke="none" /><path d="M 80.0844068197444 106.66101706037122 l -46.290536808844685 15.482443963715232 a69.81106297900699,69.81106297900699 0 0,0 -0.3713541285498916,-1.1429104879000689 l 46.55018318841083 -14.683334575837359" fill="#31ff44" stroke="none" /><path d="M 79.97269907076064 106.31721596034903 l -45.47351833783304 14.343721943958107 a68.68210596467844,68.68210596467844 0 0,0 -0.3459394294742854,-1.1305500714434025 l 45.713684539813464 -13.558844899962658" fill="#30ff2f" stroke="none" /><path d="M 79.86692584326677 105.97154293290107 l -46.5657006737372 13.811555980428649 a69.57080973008998,69.57080973008998 0 0,0 -0.330651384231374,-1.1510408458958037 l 46.796544694854674 -13.007957659028248" fill="#31ff3f" stroke="none" /><path d="M 79.76711848015287 105.62410040840567 l -45.517803210372506 12.652508016422138 a68.2435854715095,68.2435854715095 0 0,0 -0.30486009668651476,-1.134497830510192 l 45.728851383400794 -11.867119252736407" fill="#37ff2e" stroke="none" /><path d="M 79.67330655649465 105.27499134158121 l -22.961509754576184 5.958753964665214 a44.72209263578807,44.72209263578807 0 0,0 -0.18695684449859412,-0.7467996595838949 l 23.060677913369837 -5.562626465683927" fill="#ff0801" stroke="none" /><path d="M 79.58551787078972 104.9243191809786 l -48.45463385750245 11.6880791489872 a70.84438520493168,70.84438520493168 0 0,0 -0.2757514263642317,-1.1879299276917807 l 48.64864584979724 -10.852280563946843" fill="#33ff57" stroke="none" /><path d="M 79.50377843672027 104.57218783832718 l -48.43692213488165 10.805050366349993 a70.62745751416193,70.62745751416193 0 0,0 -0.2544806888217992,-1.1888490571918222 l 48.61573686242789 -9.969687489742007" fill="#33ff53" stroke="none" /><path d="M 79.4281124754447 104.21870165774334 l -47.1967496189814 9.678694073163246 a69.1789403532156,69.1789403532156 0 0,0 -0.22918016747836104,-1.168584736489903 l 47.356359719435424 -8.86484560960539" fill="#30ff38" stroke="none" /><path d="M 79.35854240842038 103.8639653848113 l -48.40413780666766 9.06098380585761 a70.24491836054648,70.24491836054648 0 0,0 -0.2122519036938056,-1.190421395275938 l 48.55293615270066 -8.226443659848458" fill="#32ff4c" stroke="none" /><path d="M 79.29508885075956 103.50808413554451 l -48.205669510077605 8.167605416544312 a69.89270243252248,69.89270243252248 0 0,0 -0.19076795649431116,-1.1879122471923296 l 48.339119220933206 -7.336613939658769" fill="#32ff45" stroke="none" /><path d="M 79.23777060512086 103.15116336523772 l -48.20997506386188 7.317013234510119 a69.7620793068977,69.7620793068977 0 0,0 -0.16997347575203342,-1.1887940935255115 l 48.32878259063052 -6.486073669004207" fill="#31ff43" stroke="none" /><path d="M 79.18660465613746 102.79330883721812 l -48.59695473990165 6.522064319356011 a70.03265578140619,70.03265578140619 0 0,0 -0.15006494350467975,-1.1961652499472224 l 48.70202119265318 -5.68458131512138" fill="#32ff48" stroke="none" /><path d="M 79.10278846688536 102.07522291339032 l -23.54330962794422 2.337996891093853 a44.6591136287904,44.6591136287904 0 0,0 -0.0693819815260597,-0.7656243846328059 l 23.580066205747357 -1.9323911179124806" fill="#ff0701" stroke="none" /><path d="M 79.07016306316243 101.71520430193888 l -48.45270037071738 3.9707084372998045 a69.6151282905698,69.6151282905698 0 0,0 -0.08759386945050666,-1.1951487549987978 l 48.51387079883222 -3.136086545804246" fill="#31ff40" stroke="none" /><path d="M 79.04373962182676 101.35467743843564 l -23.59586931617706 1.5253099181852818 a44.64511829390203,44.64511829390203 0 0,0 -0.04297336932274181,-0.7673183771342579 l 23.618629036387333 -1.1189198247155865" fill="#ff0601" stroke="none" /><path d="M 79.0235259727143 100.99374915477108 l -25.664318717155616 1.2158332711100113 a46.69310229923359,46.69310229923359 0 0,0 -0.031123992511902822,-0.8031719503802968 l 25.68144484251872 -0.7738840737157178" fill="#ff3405" stroke="none" /><path d="M 79.0095281055655 100.63252640178507 l -50.12719601581048 1.5105317825590496 a71.14995001666111,71.14995001666111 0 0,0 -0.026352373866402042,-1.2244912639068866 l 50.145770452361894 -0.6474507028620341" fill="#34ff5c" stroke="none" /><line stroke="#e1ed5e" stroke-width="0.3" x1="15.007084014347285" x2="10.007500721073583" y1="101.09737516637583" y2="101.16192664675087" /><path d="M 14.007167355692545 101.11028546245083 a86.0,86.0 0 0,1 10.666146001902534,-42.60595125391555" fill="none" id="id34" stroke="none" /><text fill="#e1ed5e" style="font-size:6.75px; font-family:Arial;" text-anchor="middle"><textPath startOffset="22.20632615414155" xlink:href="#id34">October</textPath></text><path d="M 79.00175016825051 100.2711162175752 l -49.44372966602882 0.6383863930219656 a70.44785071642785,70.44785071642785 0 0,0 -0.005218852967058757,-1.212677634043385 l 49.44739281628539 0.21280071922509472" fill="#33ff4f" stroke="none" /><path d="M 79.00019446554 99.90962569577889 l -49.93489246714646 -0.21489871206994807 a70.9353548817061,70.9353548817061 0 0,0 0.015764514111202086,-1.2209789910166597 l 49.92379494591754 1.0744139611470798" fill="#34ff58" stroke="none" /><path d="M 79.00486145842228 99.54816195383935 l -59.87917053560932 -1.2886643908993627 a80.89303565478173,80.89303565478173 0 0,0 0.04194228993426959,-1.391860411785093 l 59.848116551219405 2.31919495010945" fill="#47ffff" stroke="none" /><path d="M 79.01574976396665 99.18683210126434 l -48.71152345694337 -1.8876370005194305 a69.74808397200934,69.74808397200934 0 0,0 0.056816097589905454,-1.1992980217437281 l 48.67181375111996 2.7258461288861677" fill="#31ff42" stroke="none" /><path d="M 79.03285615573316 98.82574320788736 l -61.03597754865553 -3.418296346516516 a82.13162279240254,82.13162279240254 0 0,0 0.09120290016034739,-1.4108684981214266 l 60.96809405749077 4.468423908890955" fill="#49edff" stroke="none" /><path d="M 79.08570108090925 98.10471618934814 l -61.86014283199688 -5.605855003204291 a83.1136287904032,83.1136287904032 0 0,0 0.14138370073207018,-1.4237145718027036 l 61.75448200558258 6.669845105711425" fill="#4bdfff" stroke="none" /><path d="M 79.12142395522702 97.74499172005258 l -53.7119515464831 -5.801204795275164 a75.02432522492504,75.02432522492504 0 0,0 0.14972585649145467,-1.2827597023791122 l 53.60413533698806 6.724908235979139" fill="#3cffa0" stroke="none" /><path d="M 79.16333360222342 97.38593545837743 l -62.50999919332974 -7.842193624867687 a84.0,84.0 0 0,0 0.19233600376866455,-1.4331266317413625 l 62.36574719050324 8.91703859867371" fill="#4dd2ff" stroke="none" /><line stroke="#e1ed5e" stroke-width="0.3" x1="26.266209847984243" x2="21.928928074336255" y1="57.711370442889674" y2="55.22380399835377" /><path d="M 25.398753493254645 57.213857153982495 a86.0,86.0 0 0,1 29.58750427330803,-30.492523968695096" fill="none" id="id35" stroke="none" /><text fill="#e1ed5e" style="font-size:6.75px; font-family:Arial;" text-anchor="middle"><textPath startOffset="21.46611528233685" xlink:href="#id35">November</textPath></text><line stroke="#e1ed5e" stroke-width="0.3" x1="56.762969772571076" x2="54.21961505331055" y1="26.818313649435495" y2="22.513508569990535" /><path d="M 56.25429882871897 25.957352633546506 a86.0,86.0 0 0,1 42.265352541879196,-11.944610805530505" fill="none" id="id36" stroke="none" /><text fill="#e1ed5e" style="font-size:6.75px; font-family:Arial;" text-anchor="middle"><textPath startOffset="22.20632615414155" xlink:href="#id36">December</textPath></text></svg>