<?xml version="1.0" encoding="utf-8" ?>
<svg baseProfile="full" height="200mm" version="1.1" viewBox="0,0,200,200" width="200mm" xmlns="http://www.w3.org/2000/svg" xmlns:ev="http://www.w3.org/2001/xml-events" xmlns:xlink="http://www.w3.org/1999/xlink"><defs /><rect fill="#1a1a1a" height="200" width="200" x="0" y="0" /><text alignment-baseline="middle" fill="#e1ed5e" style="dominant-baseline: central; font-size:9.0px; font-family:Arial;" text-anchor="middle" x="100.0" y="100.0">2025</text><line stroke="#e1ed5e" stroke-width="0.3" x1="100.0" x2="100.0" y1="15.0" y2="10.0" /><path d="M 100.0 14.0 a86.0,86.0 0 0,1 42.46469731375804,11.215312516191453" fill="none" id="id25" stroke="none" /><text fill="#e1ed5e" style="font-size:6.75px; font-family:Arial;" text-anchor="middle"><textPath startOffset="22.20632615414155" xlink:href="#id25">January</textPath></text><path d="M 100.0 79.0 l 0.0 -50.85979670522258 a71.85979670522258,71.85979670522258 0 0,0 1.236948273972872,0.010646804312591678 l -0.8754677947003436 50.852261277518544" fill="#35ff62" stroke="none" /><path d="M 100.36148047927253 79.00311137660856 l 0.8943041416749372 -51.9463858628711 a72.95408342096039,72.95408342096039 0 0,0 1.2554125048622269,0.03242360117292655 l -1.788343281732032 51.92329546955581" fill="#37ff76" stroke="none" /><path d="M 100.72285384407766 79.0124445844662 l 1.7971266442491571 -52.178314252499554 a73.2092534174553,73.2092534174553 0 0,0 1.2590568107450781,0.054217634767037795 l -2.695024287383567 52.13964889120832" fill="#37ff7b" stroke="none" /><path d="M 101.08401301168833 79.027996857942 l 2.692364598956713 -52.08819287228286 a73.15772870662462,73.15772870662462 0 0,0 1.2570516637164733,0.07582878921456634 l -3.5885783115127983 52.034130813687995" fill="#37ff7a" stroke="none" /><path d="M 101.44485096284872 79.0497635885617 l 3.5884095007915855 -52.03168307021193 a73.155275148966,73.155275148966 0 0,0 1.2555180411230793,0.09745236389633623 l -4.483517731277006 51.96220544412713" fill="#37ff7a" stroke="none" /><path d="M 101.80526077348638 79.07773832637324 l 4.459051058800735 -51.67864634211281 a72.87066246056784,72.87066246056784 0 0,0 1.248777161516503,0.11858643859086428 l -5.347953347407482 51.59423435900677" fill="#37ff75" stroke="none" /><path d="M 102.16513564639614 79.11191278185805 l 5.444080411974665 -52.52161759804098 a73.80301437083772,73.80301437083772 0 0,0 1.2625000068264358,0.1418565860035433 l -6.3473471223108255 52.42012505856684" fill="#39ff86" stroke="none" /><path d="M 102.52436894288641 79.15227682838746 l 6.344397748618938 -52.395767396256275 a73.77847879425167,73.77847879425167 0 0,0 1.259452285754068,0.16351305321350737 l -7.245364762880852 52.27879601987863" fill="#39ff85" stroke="none" /><path d="M 102.88285421437855 79.19881850522331 l 7.123098600967147 -51.39658678017728 a72.88783736417807,72.88783736417807 0 0,0 1.2412834090905391,0.182932907936686 l -8.006750990486342 51.26635938807962" fill="#37ff75" stroke="none" /><path d="M 103.2404852339499 79.25152402106235 l 8.00977983519619 -51.285752752705335 a72.9074658254469,72.9074658254469 0 0,0 1.2382839863983321,0.2043274677823406 l -8.891393027733397 51.14027902198337" fill="#37ff76" stroke="none" /><line stroke="#e1ed5e" stroke-width="0.3" x1="143.23703022742887" x2="145.7803849466894" y1="26.81831364943548" y2="22.513508569990506" /><path d="M 143.74570117128098 25.957352633546492 a86.0,86.0 0 0,1 28.547481713284135,27.462654790039103" fill="none" id="id26" stroke="none" /><text fill="#e1ed5e" style="font-size:6.75px; font-family:Arial;" text-anchor="middle"><textPath startOffset="19.985693538727396" xlink:href="#id26">February</textPath></text><path d="M 116.15771136456269 86.58626213691792 l 19.02528509546242 -15.79432762987979 a45.726954083420964,45.726954083420964 0 0,0 0.4975560933721192,0.6099449387795098 l -19.294339680910948 15.46449852149218" fill="#ff0400" stroke="none" /><path d="M 116.60985879189232 87.15038557335679 l 20.549339262454474 -15.897250515682321 a46.98072204696811,46.98072204696811 0 0,0 0.48932448844358867,0.6438936688199521 l -20.819939691122176 15.541172070981336" fill="#ff2103" stroke="none" /><path d="M 116.82858285166822 87.43820079747576 l 41.20928472813576 -30.760924113296607 a72.42411496670172,72.42411496670172 0 0,0 0.737130529714076,1.0054452141260486 l -41.73267787036347 30.04701645549906" fill="#36ff6d" stroke="none" /><path d="M 117.04232023915458 87.72973835380427 l 20.0370216808754 -14.426409971453173 a45.69015071854189,45.69015071854189 0 0,0 0.45404561210563066,0.6422153184742783 l -20.282379912784915 14.0793681526471" fill="#ff0300" stroke="none" /><path d="M 117.2510076193507 88.02491185347247 l 20.29245761322851 -14.086363764369572 a45.70241850683491,45.70241850683491 0 0,0 0.4430425841790517,0.6501103236992801 l -20.531924663076296 13.734975417399886" fill="#ff0300" stroke="none" /><path d="M 117.45458315368197 88.32363383020206 l 22.089969005804775 -14.777240139181128 a47.576936558009116,47.576936558009116 0 0,0 0.44949639487959786,0.684613847576694 l -22.3410620360423 14.39480822762676" fill="#ff2f04" stroke="none" /><path d="M 117.65298651832404 88.62581576622439 l 43.349745372372325 -27.93113730873885 a72.56887486855942,72.56887486855942 0 0,0 0.6675382855279086,1.0558852580391314 l -43.82411125414619 27.180804402985515" fill="#36ff6f" stroke="none" /><line stroke="#e1ed5e" stroke-width="0.3" x1="172.23445277983987" x2="176.4835382374775" y1="55.19839476539836" y2="52.563006222186495" /><path d="M 173.08426987136738 54.67131705675599 a86.0,86.0 0 0,1 12.851231095245387,41.99856678651699" fill="none" id="id27" stroke="none" /><text fill="#e1ed5e" style="font-size:6.75px; font-family:Arial;" text-anchor="middle"><textPath startOffset="22.20632615414155" xlink:href="#id27">March</textPath></text><path d="M 117.84615892207809 88.93136811851018 l 43.94296054244604 -27.254517689262517 a72.70872765509989,72.70872765509989 0 0,0 0.6505152977667998,1.0692761080478266 l -44.40559163849906 26.49407380800761" fill="#36ff72" stroke="none" /><path d="M 118.03404312379186 89.2402003453031 l 44.44983920312105 -26.520473596855446 a72.7602523659306,72.7602523659306 0 0,0 0.6324609596427672,1.0810807952617403 l -44.89975983723414 25.75141338923981" fill="#36ff73" stroke="none" /><path d="M 118.21658344932153 89.55222093294921 l 43.60359213999887 -25.008020767223936 a71.26603575184018,71.26603575184018 0 0,0 0.6011539842294651,1.0693858593800651 l -44.027603765520766 24.253751397909074" fill="#33ff57" stroke="none" /><path d="M 118.3937258080291 89.86733742301442 l 45.377207668715336 -24.9972158328135 a72.80686996144411,72.80686996144411 0 0,0 0.5952547568397332,1.1029166608941023 l -45.80077052477353 24.212418188586938" fill="#37ff74" stroke="none" /><path d="M 118.56541770881063 90.18545643968196 l 46.05021824489424 -24.344287859043362 a73.08902909218367,73.08902909218367 0 0,0 0.5784146273622262,1.1173129543856277 l -46.46244230541658 23.548002182397386" fill="#37ff79" stroke="none" /><path d="M 118.73160827565052 90.50648371742162 l 45.64831001443143 -23.135385281226796 a72.17630564318263,72.17630564318263 0 0,0 0.5521143239805578,1.1130287866720872 l -46.0397843513654 22.34619690605576" fill="#35ff68" stroke="none" /><path d="M 118.89224826269711 90.83032412892265 l 47.04631142319503 -22.834732038338878 a73.29512793550649,73.29512793550649 0 0,0 0.5411337627485941,1.139765710663645 l -47.43240337978538 22.02152391203469" fill="#38ff7d" stroke="none" /><path d="M 119.04729006885535 91.15688171328212 l 46.82931708364567 -21.741527994789625 a72.63021381002454,72.63021381002454 0 0,0 0.5167040791273517,1.138488946635969 l -47.19662347973637 20.932217039311595" fill="#36ff71" stroke="none" /><path d="M 119.196687751892 91.48605970444005 l 22.464543115194573 -9.963269774544738 a45.57483350858745,45.57483350858745 0 0,0 0.31188223678843385,0.7198672028629342 l -22.63271606182569 9.5751034270952" fill="#ff0000" stroke="none" /><path d="M 119.34039704204932 91.81776055985345 l 48.34308380857616 -20.452252667659216 a73.49141254819489,73.49141254819489 0 0,0 0.4828676729404988,1.1693023707456727 l -48.687973168402856 19.617075726460243" fill="#38ff80" stroke="none" /><path d="M 119.47837535516314 92.15188598940014 l 47.03575906537115 -18.95137520400488 a71.71012968804769,71.71012968804769 0 0,0 0.4514543658847462,1.1489021186950477 l -47.3550069811376 18.138924080414046" fill="#34ff5f" stroke="none" /><path d="M 119.61058180528143 92.48833698450437 l 49.72413206428526 -19.046396864386757 a74.24710830704521,74.24710830704521 0 0,0 0.44688065747777983,1.1974179869558763 l -50.04461731026466 18.187655740401546" fill="#39ff8e" stroke="none" /><path d="M 119.7369772167798 92.82701384747503 l 48.31051205649455 -17.557431930762714 a72.40203294777427,72.40203294777427 0 0,0 0.41561152452194533,1.17498974667333 l -48.60557666182631 16.72324455766277" fill="#36ff6c" stroke="none" /><path d="M 119.85752413597 93.16781622104841 l 48.04411844931261 -16.530069131268768 a71.80827199439187,71.80827199439187 0 0,0 0.39208241887856127,1.1722765272546602 l -48.32153816196295 15.700619501091793" fill="#35ff61" stroke="none" /><path d="M 119.97218684219823 93.5106431181261 l 25.537517560581538 -8.297642448326666 a47.851735015772874,47.851735015772874 0 0,0 0.24779113214962906,0.785565603947371 l -25.676564176499376 7.856826677952876" fill="#ff3505" stroke="none" /><path d="M 120.08093135843002 93.85539295169968 l 49.7366122055565 -15.219012129561682 a73.01296880476693,73.01296880476693 0 0,0 0.3573953632141563,1.2049594940059312 l -49.99121346588236 14.36062324880922" fill="#37ff78" stroke="none" /><path d="M 120.18372546131832 94.20196356495316 l 50.25061407351699 -14.435139431523918 a73.28286014721346,73.28286014721346 0 0,0 0.33784525490406203,1.2154091353525813 l -50.49164609898742 13.568018992752386" fill="#38ff7c" stroke="none" /><path d="M 120.28053869075195 94.5502522615342 l 50.650402506544424 -13.610679712284716 a73.44724851033999,73.44724851033999 0 0,0 0.31758474184630087,1.2237835613033254 l -50.877183580261025 12.736799725432538" fill="#38ff7f" stroke="none" /><path d="M 120.37134235888165 94.90015583598534 l 51.65309871158424 -12.931045454778113 a74.24710830704521,74.24710830704521 0 0,0 0.29970092666285114,1.2424538269371084 l -51.86803243850791 12.0400063961816" fill="#39ff8e" stroke="none" /><path d="M 120.45610955862082 95.25157060432595 l 50.99567819281371 -11.837508822934602 a73.35155976165439,73.35155976165439 0 0,0 0.27491330835227057,1.232382456260577 l -51.19188588816802 10.957948197124061" fill="#38ff7e" stroke="none" /><path d="M 120.53481517161879 95.60439243477599 l 51.24226924120041 -10.968733073729945 a73.40308447248512,73.40308447248512 0 0,0 0.25383731792394415,1.2378009106857357 l -51.42348585503935 10.085056506880798" fill="#38ff7f" stroke="none" /><path d="M 120.6074358757038 95.95851677861258 l 51.52942430328457 -10.105832913206422 a73.51104100946372,73.51104100946372 0 0,0 0.2328349370179584,1.2438135437719542 l -51.69574496421239 9.217341291971906" fill="#38ff81" stroke="none" /><path d="M 120.67395015179393 96.31383870115 l 51.0604781234691 -9.104073337584998 a72.86575534525062,72.86575534525062 0 0,0 0.2095346344867878,1.2366852738165963 l -51.209624619476116 8.223802275452563" fill="#37ff75" stroke="none" /><path d="M 120.73433829027371 96.67025291283417 l 51.35013070907021 -8.246366281885045 a73.0080616894497,73.0080616894497 0 0,0 0.1885836703844132,1.2425307643020451 l -51.48447027289392 7.361236405190919" fill="#37ff77" stroke="none" /><path d="M 120.78858239683441 97.02765380044208 l 51.54033397135486 -7.369223782523531 a73.06449351559762,73.06449351559762 0 0,0 0.16729681785917702,1.246555612998757 l -51.659546788271875 6.48094982746011" fill="#37ff78" stroke="none" /><path d="M 120.83666639777658 97.38593545837742 l 51.769098136314874 -6.494693594766224 a73.17490361023485,73.17490361023485 0 0,0 0.1460349704429214,1.2511384447014364 l -51.873223459761384 5.602611411739934" fill="#37ff7a" stroke="none" /><path d="M 120.87857604477298 97.74499172005257 l 52.32206771636123 -5.651089215631781 a73.62635821941815,73.62635821941815 0 0,0 0.12524500672130878,1.2612001255545409 l -52.41158984876477 4.749613559372805" fill="#38ff83" stroke="none" /><path d="M 120.91429891909075 98.10471618934814 l 51.96930826162197 -4.709533366625057 a73.18226428321067,73.18226428321067 0 0,0 0.10289257753428324,1.2555500632601804 l -52.04267532297575 3.8142693861571084" fill="#37ff7b" stroke="none" /><path d="M 120.94382443527127 98.46500227214037 l 52.549203148434444 -3.851393411121115 a73.69015071854189,73.69015071854189 0 0,0 0.08182908397866392,1.2658597107400793 l -52.60771282341753 2.9462746361280003" fill="#38ff84" stroke="none" /><path d="M 120.96714384426684 98.82574320788733 l 51.99283338599366 -2.9118385507418254 a73.07430774623205,73.07430774623205 0 0,0 0.059525606493956607,1.2564914723036804 l -52.035252600721115 2.0164359718151452" fill="#37ff79" stroke="none" /><path d="M 120.98425023603335 99.18683210126433 l 51.66013982047656 -2.001899847442373 a72.69891342446549,72.69891342446549 0 0,0 0.0376937134337232,1.2508708414297558 l -51.68694522836593 1.112358858587618" fill="#36ff72" stroke="none" /><line stroke="#e1ed5e" stroke-width="0.3" x1="184.98032266829074" x2="189.97916517819016" y1="98.17113171792111" y2="98.06355123074" /><path d="M 185.9800911702706 98.14961562048488 a86.0,86.0 0 0,1 -9.607161424134198,41.387399972396054" fill="none" id="id28" stroke="none" /><text fill="#e1ed5e" style="font-size:6.75px; font-family:Arial;" text-anchor="middle"><textPath startOffset="21.466115282336823" xlink:href="#id28">April</textPath></text><path d="M 120.99513854157772 99.54816195383933 l 52.99193573007399 -1.140443662952319 a74.00420609884333,74.00420609884333 0 0,0 0.016446528720114914,1.2738017740834588 l -53.003715265911815 0.22810563080839735" fill="#39ff89" stroke="none" /><path d="M 120.99980553446 99.90962569577887 l 52.221037620685415 -0.22473731639707117 a73.22152120574833,73.22152120574833 0 0,0 -0.005424329476499775,1.260423138446949 l -52.21716899391941 -0.6741953002535626" fill="#37ff7b" stroke="none" /><path d="M 120.99824983174949 100.27111621757518 l 53.90262262570022 0.6959568192948236 a74.90711531720996,74.90711531720996 0 0,0 -0.027743945113532235,1.2891521116868552 l -53.88265661790168 -1.6236987467717936" fill="#3bff9a" stroke="none" /><path d="M 120.9904718944345 100.63252640178507 l 52.293472625894026 1.5758103125672458 a73.31720995443393,73.31720995443393 0 0,0 -0.048870693555362325,1.2611354486187016 l -52.258599799487456 -2.475723008199954" fill="#38ff7d" stroke="none" /><path d="M 120.9764740272857 100.99374915477107 l 52.783072920394 2.500569639713098 a73.84227129337539,73.84227129337539 0 0,0 -0.07107722674248372,1.269131630467239 l -52.73220934276399 -3.4087729865157606" fill="#39ff87" stroke="none" /><path d="M 120.95626037817324 101.35467743843564 l 26.77132269832296 1.7305810388895082 a47.82719943918683,47.82719943918683 0 0,0 -0.06017900945858929,0.8210947716168312 l -26.737567130200034 -2.19114894700311" fill="#ff3405" stroke="none" /><path d="M 120.92983693683757 101.71520430193887 l 52.448083026205445 4.298130840984333 a73.62390466175957,73.62390466175957 0 0,0 -0.11438141015466767,1.2621893298075764 l -52.366327019773706 -5.20030155934048" fill="#38ff83" stroke="none" /><path d="M 120.89721153311464 102.0752229133903 l 51.31890281744791 5.096285829717339 a72.571328426218,72.571328426218 0 0,0 -0.1341453307865273,1.242019160099502 l -51.223575185160335 -5.978901311701633" fill="#36ff6f" stroke="none" /><path d="M 120.8583938346157 102.4346265915055 l 52.415274517457014 6.117998449596973 a73.77111812127586,73.77111812127586 0 0,0 -0.1580756655538051,1.2600185864985278 l -52.30219734265636 -7.019334790382896" fill="#39ff85" stroke="none" /><path d="M 120.81339534386255 102.79330883721812 l 51.548353136955065 6.918163422286433 a73.01051524710832,73.01051524710832 0 0,0 -0.17788820468500924,1.2441496892486226 l -51.42163088125345 -7.804458583515466" fill="#37ff77" stroke="none" /><path d="M 120.76222939487914 103.15116336523771 l 51.46286909830135 7.810717466236466 a73.0522257273046,73.0522257273046 0 0,0 -0.19939168660439288,1.2416122228197823 l -51.320795657335665 -8.695408918749454" fill="#37ff78" stroke="none" /><path d="M 120.70491114924044 103.5080841355445 l 52.8762645052106 8.958955840020058 a74.6298633017876,74.6298633017876 0 0,0 -0.22550144448754492,1.2647318564023482 l -52.714216618383865 -9.867806447155624" fill="#3aff95" stroke="none" /><path d="M 120.64145759157962 103.86396538481128 l 50.88858472250517 9.526058369541166 a72.77252015422363,72.77252015422363 0 0,0 -0.24108519545996054,1.2292882176848643 l -50.71706959406954 -10.400610314293976" fill="#37ff73" stroke="none" /><path d="M 120.5718875245553 104.21870165774334 l 52.38512543494364 10.742680526991006 a74.47528916929548,74.47528916929548 0 0,0 -0.2683449688699912,1.2536183579205054 l -52.1924464273492 -11.64281270432768" fill="#3aff92" stroke="none" /><path d="M 120.49622156327973 104.57218783832717 l 52.5827822276547 11.72988673372917 a74.8752190676481,74.8752190676481 0 0,0 -0.2914408586864493,1.2555195915052981 l -52.373080803037695 -12.633274982583032" fill="#3bff99" stroke="none" /><path d="M 120.41448212921028 104.9243191809786 l 50.786957352176046 12.25067511631936 a73.2436032246758,73.2436032246758 0 0,0 -0.3061885553994443,1.2230710758627104 l -50.56855748248154 -13.123074031579467" fill="#37ff7c" stroke="none" /><path d="M 120.32669344350535 105.2749913415812 l 51.542262858324186 13.375760846633597 a74.24956186470384,74.24956186470384 0 0,0 -0.3316902013956231,1.2343426311767216 l -51.304384580586785 -14.260994410985866" fill="#39ff8e" stroke="none" /><path d="M 120.23288151984713 105.62410040840565 l 50.69921836150967 14.092777364070118 a73.62145110410094,73.62145110410094 0 0,0 -0.3499029953961562,1.2180582299345148 l -50.44912272922741 -14.963393069509214" fill="#38ff83" stroke="none" /><path d="M 120.13307415673323 105.97154293290107 l 50.24212301830413 14.901996203275395 a73.40553803014372,73.40553803014372 0 0,0 -0.3697305082558152,1.2083006934440421 l -49.97816573754218 -15.764623869271494" fill="#38ff7f" stroke="none" /><path d="M 120.02730092923936 106.31721596034902 l 49.55932161248856 15.632507774295155 a72.96635120925342,72.96635120925342 0 0,0 -0.3881384211973164,1.1945672290641836 l -49.282890940274996 -16.483273903337132" fill="#37ff77" stroke="none" /><path d="M 119.9155931802556 106.66101706037122 l 49.59701701567336 16.588337263910812 a73.2975814931651,73.2975814931651 0 0,0 -0.4104984596800939,1.1931006739000165 l -49.30412772505003 -17.43961064090013" fill="#38ff7d" stroke="none" /><path d="M 119.79798401119884 107.00284435728193 l 49.366581933287236 17.461701632563475 a73.36382754994742,73.36382754994742 0 0,0 -0.43136442010546966,1.186929620483663 l -49.05869325217654 -18.30887905005327" fill="#38ff7e" stroke="none" /><path d="M 119.67450827220406 107.3425965602758 l 48.031177748300486 17.925406604388677 a72.267087276551,72.267087276551 0 0,0 -0.4449784658082547,1.1616983599131419 l -47.71550500289872 -18.74952853113496" fill="#35ff6a" stroke="none" /><path d="M 119.54520255179757 107.68017299344265 l 48.880133265711756 19.207162393345 a73.51840168243953,73.51840168243953 0 0,0 -0.47295923196535716,1.1738460266337112 l -48.542271419489005 -20.045707787821527" fill="#38ff81" stroke="none" /><path d="M 119.41010516605496 108.01547362559984 l 24.99569799512301 10.322064528725482 a48.04311251314407,48.04311251314407 0 0,0 -0.32222977418780224,0.761656001043446 l -24.8143172397429 -10.750795055435091" fill="#ff3905" stroke="none" /><path d="M 119.26925614724726 108.34839909993367 l 48.54573785525096 21.032425492682535 a73.90606379249914,73.90606379249914 0 0,0 -0.515790121010001,1.1629705582623278 l -48.17650664950969 -21.86494438743755" fill="#39ff88" stroke="none" /><path d="M 119.12269723197855 108.67885076344098 l 48.55855843437571 22.03833888218558 a74.32562215212059,74.32562215212059 0 0,0 -0.5387736338440227,1.1604704757474456 l -48.17201018369186 -22.870929425211855" fill="#3aff8f" stroke="none" /><path d="M 118.97047184881838 109.00673069616215 l 24.699957738431124 11.72695488702314 a48.34244654749387,48.34244654749387 0 0,0 -0.3633665597523408,0.7486427387096832 l -24.49443792206407 -12.150386581698099" fill="#ff4006" stroke="none" /><path d="M 118.81262510543309 109.33194174019688 l 47.94482900161374 23.782877109348583 a74.51945320715038,74.51945320715038 0 0,0 -0.5799080080910664,1.1442135158506566 l -47.52834232373641 -24.604644836901933" fill="#3aff93" stroke="none" /><path d="M 118.64920377521936 109.65438752849418 l 47.06641555655021 24.365512910737564 a73.9992989835261,73.9992989835261 0 0,0 -0.5953331407801407,1.1261459452041345 l -46.64002990754518 -25.172073871027834" fill="#39ff89" stroke="none" /><line stroke="#e1ed5e" stroke-width="0.3" x1="174.80103733775053" x2="179.2010983576182" y1="140.37084112569926" y2="142.7455964860345" /><path d="M 175.68104954172406 140.8457921977663 a86.0,86.0 0 0,1 -30.038265399797805,32.042727171017184" fill="none" id="id29" stroke="none" /><text fill="#e1ed5e" style="font-size:6.75px; font-family:Arial;" text-anchor="middle"><textPath startOffset="22.206326154141568" xlink:href="#id29">May</textPath></text><path d="M 118.48025628344425 109.97397251340804 l 24.01202595258599 12.959521944340565 a48.28601472134595,48.28601472134595 0 0,0 -0.4010580981416394,0.728036943326463 l -23.785391444992843 -13.370929406064834" fill="#ff3f05" stroke="none" /><path d="M 118.30583269289576 110.29060199501025 l 45.61165883966526 25.640539566022717 a73.32457062740974,73.32457062740974 0 0,0 -0.6279656028725479,1.0949109599864766 l -45.163541240640335 -26.42187037186751" fill="#38ff7d" stroke="none" /><path d="M 118.12598468904814 110.60418214915192 l 45.305431762216024 26.504880093095835 a73.48895899053629,73.48895899053629 0 0,0 -0.648169553813144,1.0863694548339071 l -44.84248133270465 -27.28081164181585" fill="#38ff80" stroke="none" /><path d="M 117.94076556474637 110.91462005526583 l 45.2302651426682 27.516727602818786 a73.9428671573782,73.9428671573782 0 0,0 -0.6708919446578575,1.081691431434134 l -44.74990855834238 -28.291215365618193" fill="#39ff88" stroke="none" /><path d="M 117.75023020441432 111.22182372390056 l 21.671913265116224 13.70114007649968 a46.63967753242201,46.63967753242201 0 0,0 -0.4348486683100421,0.6748947899396075 l -21.43285973342913 -14.072156466360742" fill="#ff1902" stroke="none" /><path d="M 117.35343817320211 111.8261652097733 l 43.5528923237007 29.680786875936448 a73.70487206449351,73.70487206449351 0 0,0 -0.7234978792907383,1.0422526561399617 l -43.03553353724783 -30.42608079426343" fill="#38ff84" stroke="none" /><path d="M 117.14729908036423 112.12312394758627 l 43.61251941587207 30.834009255170642 a74.41149667017174,74.41149667017174 0 0,0 -0.7484386560150389,1.039515832910164 l -43.075300967481425 -31.58015869353194" fill="#3aff91" stroke="none" /><path d="M 116.93607887273984 112.41649034213515 l 22.039262353613314 16.15783028749868 a48.327725201542236,48.327725201542236 0 0,0 -0.49763457528996047,0.6666628358809467 l -21.75786651162826 -16.534806002888942" fill="#ff4006" stroke="none" /><path d="M 116.71984013943494 112.70617746262583 l 20.04661753836678 15.234349003559556 a46.17840869260428,46.17840869260428 0 0,0 -0.48639758069152167,0.6287344400974963 l -19.781413140457193 -15.577161437770304" fill="#ff0e01" stroke="none" /><path d="M 116.498646956653 112.99209946851258 l 40.97771199959453 32.268495209912416 a73.15772870662462,73.15772870662462 0 0,0 -0.7876024788246784,0.9826551917510589 l -40.416191608715 -32.969078235241724" fill="#37ff7a" stroke="none" /><path d="M 116.27256486870786 113.27417163493432 l 41.77936826613566 34.081075087940384 a74.91692954784438,74.91692954784438 0 0,0 -0.8237437480138505,0.9922524097777933 l -41.186528518228265 -34.79518875483195" fill="#3bff9a" stroke="none" /><path d="M 116.0416608686014 113.55231037782055 l 40.90726604954949 34.55926233278553 a74.55134945671223,74.55134945671223 0 0,0 -0.8365992343371758,0.9731539130712668 l -40.30632430564154 -35.25829334501832" fill="#3aff93" stroke="none" /><path d="M 115.80600337817218 113.82643327865902 l 38.47992667262223 33.660636783201085 a72.12478093235191,72.12478093235191 0 0,0 -0.8254548961020501,0.927407326357926 l -37.89481292687184 -34.31801827929988" fill="#35ff67" stroke="none" /><path d="M 115.56566222782051 114.09645910891815 l 40.006243449888515 36.23015626568311 a74.9733613739923,74.9733613739923 0 0,0 -0.8745235320568671,0.9491225735524728 l -39.376673509835925 -36.91343009403692" fill="#3bff9b" stroke="none" /><path d="M 115.32070863581623 114.36230785411682 l 36.52876517479869 34.243675239976874 a71.06975113915178,71.06975113915178 0 0,0 -0.8443541573497974,0.8853019582978268 l -35.933904466069926 -34.867384314857205" fill="#33ff53" stroke="none" /><path d="M 115.07121518719521 114.62390073753431 l 17.73892064444497 17.212428558233523 a45.717139852786545,45.717139852786545 0 0,0 -0.5528712505363017,0.560055657864035 l -17.440008768853133 -17.515224710078222" fill="#ff0300" stroke="none" /><path d="M 114.55890576462653 115.13401014063108 l 35.3622025868467 36.75907662268716 a72.00701016473886,72.00701016473886 0 0,0 -0.9006505353777984,0.8516212969716901 l -34.724216217078094 -37.36233255640477" fill="#35ff65" stroke="none" /><path d="M 114.29624159901734 115.38237550388516 l 36.249215466979116 39.003191165476764 a74.24710830704521,74.24710830704521 0 0,0 -0.9436469837110911,0.8619991459660489 l -35.57246893380116 -39.621383078029396" fill="#39ff8e" stroke="none" /><path d="M 114.0293411484842 115.62618273729858 l 35.38396861459615 39.411427357175405 a73.96494917630564,73.96494917630564 0 0,0 -0.9547030995768204,0.8424144839505293 l -34.700323162112745 -40.014664982898225" fill="#39ff89" stroke="none" /><path d="M 113.75828350139079 115.86535959552629 l 33.85961954355597 39.045207912158624 a72.68173852085523,72.68173852085523 0 0,0 -0.952250261404151,0.8115283313968508 l -33.182503805574775 -39.62226063377842" fill="#36ff71" stroke="none" /><path d="M 113.48314897796784 116.09983520530334 l 15.912289733199339 19.000401379690274 a45.78338590956888,45.78338590956888 0 0,0 -0.6085481249393695,0.5007936770796882 l -15.58287147971528 -19.27149017562714" fill="#ff0500" stroke="none" /><path d="M 113.20401910651253 116.32954008644616 l 17.01295977411148 21.040094412119203 a48.05783385909569,48.05783385909569 0 0,0 -0.6477337995262582,0.5145989048231799 l -16.64826848186787 -21.329827230947508" fill="#ff3a05" stroke="none" /><path d="M 112.92097659922987 116.55440617244103 l 16.83999228466051 21.575464523142863 a48.36943568173852,48.36943568173852 0 0,0 -0.6607524531463097,0.5066368051425634 l -16.466111103020708 -21.862140670112797" fill="#ff4106" stroke="none" /><path d="M 112.63410532772338 116.77436683061366 l 31.404438701637435 41.69583529866874 a73.1994391868209,73.1994391868209 0 0,0 -1.0129931992677361,0.7493881515711802 l -30.682060531951134 -42.230233398979685" fill="#37ff7b" stroke="none" /><path d="M 112.34349029814194 116.9893568818739 l 30.86954198291017 42.48827947850341 a73.51840168243953,73.51840168243953 0 0,0 -1.0302122150176447,0.7350290615842754 l -30.133602440043642 -43.0133528019319" fill="#38ff81" stroke="none" /><path d="M 112.04921762599082 117.19931262002967 l 30.237778407367326 43.16205582026142 a73.69996494917632,73.69996494917632 0 0,0 -1.0452870077927134,0.7189579353956425 l -29.49033451495173 -43.67615454502216" fill="#38ff84" stroke="none" /><path d="M 111.7513745106137 117.40417183066458 l 14.093686102517783 20.873212272668763 a46.18576936558009,46.18576936558009 0 0,0 -0.6627114699052361,0.43920902570125275 l -13.732299933872582 -21.112719319461334" fill="#ff0e01" stroke="none" /><path d="M 111.45004920935366 117.60387380957326 l 15.103523258979196 23.22090610002128 a48.700665965650195,48.700665965650195 0 0,0 -0.7066656748651101,0.45102746842811287 l -14.701575782067156 -23.477447997273202" fill="#ff4806" stroke="none" /><path d="M 111.1453310114006 117.79835938074945 l 28.043679011744754 44.7839078892184 a73.83981773571679,73.83981773571679 0 0,0 -1.0830571302765708,0.6653021487089567 l -27.268642681535873 -45.25999850475573" fill="#39ff87" stroke="none" /><line stroke="#e1ed5e" stroke-width="0.3" x1="143.8653032363475" x2="146.44561519142675" y1="172.8068346515853" y2="177.08958963109032" /><path d="M 144.38136562736335 173.6633856474863 a86.0,86.0 0 0,1 -40.68145358897372,12.25698825130547" fill="none" id="id30" stroke="none" /><text fill="#e1ed5e" style="font-size:6.75px; font-family:Arial;" text-anchor="middle"><textPath startOffset="21.466115282336833" xlink:href="#id30">June</textPath></text><path d="M 110.8373102113329 117.98757091392108 l 26.864728444193283 44.58958898009854 a73.0571328426218,73.0571328426218 0 0,0 -1.0827489043414995,0.6397071376774524 l -26.093211668823404 -45.04541469006974" fill="#37ff78" stroke="none" /><path d="M 110.5260780823613 118.17145234162733 l 26.57161386230846 45.87129329281459 a74.01156677181915,74.01156677181915 0 0,0 -1.1078870131816838,0.6290871601594852 l -25.778078082205578 -46.3218836187687" fill="#39ff8a" stroke="none" /><path d="M 110.21172684928248 118.3499491758327 l 26.124076538367735 46.943625091019136 a74.72309849281459,74.72309849281459 0 0,0 -1.1293050899100718,0.6157871773169985 l -25.312148636589015 -47.3863529200959" fill="#3aff96" stroke="none" /><path d="M 109.89434966115114 118.52300852407294 l 24.91563479925114 46.64404751949338 a73.88152821591308,73.88152821591308 0 0,0 -1.126901220133446,0.5895414577329932 l -24.1090426765912 -47.06601839617109" fill="#39ff87" stroke="none" /><path d="M 109.57404056367764 118.69057910512821 l 24.360726182471268 47.557358540890554 a74.4335786890992,74.4335786890992 0 0,0 -1.1453771471700078,0.5743158792305764 l -23.5384951276185 -47.96964226103044" fill="#3aff91" stroke="none" /><path d="M 109.2508944713604 118.85261126421891 l 23.18506102408597 47.249370747606 a73.63126533473536,73.63126533473536 0 0,0 -1.1426426957954219,0.5485379322640732 l -22.368305660290314 -47.64146295636963" fill="#38ff83" stroke="none" /><path d="M 108.92500713936063 119.00905698771935 l 22.310953704143003 47.519311053772995 a73.49631966351208,73.49631966351208 0 0,0 -1.1498044382272403,0.5278188232436969 l -21.489681270148342 -47.89631694735077" fill="#38ff80" stroke="none" /><path d="M 108.59647513512805 119.15986991738527 l 21.795012318294038 48.57684042613162 a74.24220119172801,74.24220119172801 0 0,0 -1.1704789467847914,0.5131035730649726 l -20.955612696851492 -48.94480855249105" fill="#39ff8e" stroke="none" /><path d="M 108.2653958097858 119.30500536409082 l 20.942092946724493 48.91323125665073 a74.20785138450755,74.20785138450755 0 0,0 -1.1785922079097195,0.4926516384929211 l -20.09702927931731 -49.26646793816362" fill="#39ff8d" stroke="none" /><path d="M 107.93186726928326 119.44442032107085 l 10.3256063926106 25.31250510776626 a48.33753943217666,48.33753943217666 0 0,0 -0.7731219395839694,0.30764117517888034 l -9.888363376984765 -25.48649312735121" fill="#ff4006" stroke="none" /><path d="M 107.59598834532513 119.57807347666477 l 19.120874973715377 49.28257892916727 a73.86189975464424,73.86189975464424 0 0,0 -1.1892813265840272,0.44968443495618465 l -18.269723426371076 -49.60441161423009" fill="#39ff87" stroke="none" /><path d="M 107.2578585660854 119.70592522655815 l 20.045392994940165 54.42555981196496 a78.99964949176307,78.99964949176307 0 0,0 -1.280096925674004,0.45899721387958453 l -19.105576508636428 -54.76254456688451" fill="#43ffdf" stroke="none" /><path d="M 106.91757812671514 119.82793768551818 l 17.55540536165201 50.31927029642956 a74.29372590255872,74.29372590255872 0 0,0 -1.2110948109195898,0.41086911516822466 l -16.686640817795194 -50.614002398495906" fill="#3aff8f" stroke="none" /><path d="M 106.57524785965236 119.94407469862006 l 16.60367239054406 50.362342149932886 a74.02874167542939,74.02874167542939 0 0,0 -1.213643600410813,0.3885703552498346 l -15.734307445042306 -50.64068535184242" fill="#39ff8a" stroke="none" /><path d="M 106.2309692047433 120.05430185196036 l 7.619269038070269 24.52252870459365 a46.67893445495969,46.67893445495969 0 0,0 -0.7693689229202386,0.23180454524635713 l -7.196025140709784 -24.650048618945732" fill="#ff1a02" stroke="none" /><path d="M 105.88484417918355 120.15858648285463 l 7.209088820976695 24.694798372792473 a46.72555205047318,46.72555205047318 0 0,0 -0.7740172957840739,0.21874501923837403 l -6.782940357088015 -24.815232185369368" fill="#ff1b02" stroke="none" /><path d="M 105.53697534728816 120.25689768951611 l 6.7156608342327795 24.569091589539287 a46.47038205397827,46.47038205397827 0 0,0 -0.7734210787650706,0.20426753641665144 l -6.291749312656212 -24.681050475259525" fill="#ff1502" stroke="none" /><path d="M 105.18746579009965 120.34920634021253 l 13.000483841294264 50.997835728187724 a73.62881177707676,73.62881177707676 0 0,0 -1.2308167867906272,0.30250482056949124 l -12.120713769760425 -51.214061807071246" fill="#38ff83" stroke="none" /><path d="M 104.83641907484287 120.43548508189849 l 12.012785735726663 50.75802983480316 a73.16018226428322,73.16018226428322 0 0,0 -1.2279757197574064,0.27948327587108385 l -11.137289866576394 -50.95728984425193" fill="#37ff7a" stroke="none" /><path d="M 104.48393922423573 120.51570834832081 l 11.257783618366815 51.50859407606801 a73.72450052576237,73.72450052576237 0 0,0 -1.2421122756128111,0.2602967041861071 l -10.369479881324626 -51.69474676098065" fill="#38ff84" stroke="none" /><path d="M 104.13013068566511 120.58985236759428 l 10.285033933200848 51.27376017793017 a73.29512793550649,73.29512793550649 0 0,0 -1.2391497195816656,0.23748599295901526 l -9.400916599047479 -51.44320336923765" fill="#38ff7d" stroke="none" /><path d="M 103.7750983002368 120.6578951692458 l 9.417677171007872 51.53491969315766 a73.38836312653348,73.38836312653348 0 0,0 -1.2446352861665515,0.21639579832435848 l -8.52919291336927 -51.689394070003026" fill="#38ff7e" stroke="none" /><path d="M 103.41894727170886 120.7198165907248 l 8.638643965180025 52.352699332984535 a74.06063792499125,74.06063792499125 0 0,0 -1.2596097040515146,0.19672513059091165 l -7.736198397519994 -52.49364277092255" fill="#39ff8b" stroke="none" /><path d="M 103.06178313531738 120.77559828337769 l 7.8420855114414705 53.21213524573031 a74.78689099193831,74.78689099193831 0 0,0 -1.2751927342019185,0.1767300933777288 l -6.924964186052721 -53.339239904600646" fill="#3bff97" stroke="none" /><path d="M 102.70371172650421 120.8252237178851 l 6.8646289903800595 52.87451064532782 a74.31826147914475,74.31826147914475 0 0,0 -1.270037429112477,0.15378384564892164 l -5.953464138216202 -52.98484001970209" fill="#3aff8f" stroke="none" /><path d="M 102.34483914955558 120.86867818915974 l 2.8434496475332924 25.30622863947762 a46.46547493866106,46.46547493866106 0 0,0 -0.7955938176753239,0.08246655218890611 l -2.407423233252366 -25.351424560122283" fill="#ff1502" stroke="none" /><path d="M 101.98527174616119 120.90594882070398 l 2.470282053582975 26.013360782859845 a47.13038906414301,47.13038906414301 0 0,0 -0.8082989251668099,0.06974343240789281 l -2.0221388106746234 -26.0520284675464" fill="#ff2403" stroke="none" /><line stroke="#e1ed5e" stroke-width="0.3" x1="102.19456741930631" x2="102.32365962044197" y1="184.97166512339345" y2="189.96999836594603" /><path d="M 102.22038585953345 185.97133177190398 a86.0,86.0 0 0,1 -42.740103519485714,-10.115201625700543" fill="none" id="id31" stroke="none" /><text fill="#e1ed5e" style="font-size:6.75px; font-family:Arial;" text-anchor="middle"><textPath startOffset="22.20632615414155" xlink:href="#id31">July</textPath></text><line stroke="#e1ed5e" stroke-width="0.3" x1="58.666819895761336" x2="56.23545636021788" y1="174.27360380694188" y2="178.64263932499728" /><path d="M 58.180547188652646 175.14741091055294 a86.0,86.0 0 0,1 -31.652253787137756,-30.449443065178592" fill="none" id="id32" stroke="none" /><text fill="#e1ed5e" style="font-size:6.75px; font-family:Arial;" text-anchor="middle"><textPath startOffset="22.20632615414155" xlink:href="#id32">August</textPath></text><path d="M 82.85270091963577 112.12312394758628 l -22.013614008066618 15.563603918223869 a47.959691552751494,47.959691552751494 0 0,0 -0.47077939568895544,-0.6781928318764419 l 22.27825431091771 -15.182369824160416" fill="#ff3705" stroke="none" /><path d="M 82.6465618267979 111.8261652097733 l -42.95680506783886 29.274560380823317 a72.98352611286364,72.98352611286364 0 0,0 -0.6985458145171648,-1.0442312127624316 l 43.45435398776675 -28.530792253855065" fill="#37ff77" stroke="none" /><path d="M 82.44556493220864 111.52570212397912 l -22.26556222642167 14.618883310891144 a47.635821941815635,47.635821941815635 0 0,0 -0.44413629834497703,-0.6893093980050335 l 22.513903388143696 -14.233452312964662" fill="#ff3004" stroke="none" /><path d="M 82.24976979558568 111.22182372390057 l -22.00787976740797 13.91354052553252 a47.037153873116026,47.037153873116026 0 0,0 -0.426773383914665,-0.6880945824741816 l 22.244117790990593 -13.532649611693074" fill="#ff2203" stroke="none" /><path d="M 82.05923443525364 110.91462005526583 l -45.42101285459622 27.632772751204033 a74.16614090431126,74.16614090431126 0 0,0 -0.6541422700541941,-1.0963800708039064 l 45.88993600034865 -26.846830586514013" fill="#39ff8c" stroke="none" /><line stroke="#e1ed5e" stroke-width="0.3" x1="26.63291911575756" x2="22.317208475507996" y1="142.92168965132927" y2="145.44649492493687" /><path d="M 25.769776987707644 143.4266507060508 a86.0,86.0 0 0,1 -11.730757126820373,-40.83630448921669" fill="none" id="id33" stroke="none" /><text fill="#e1ed5e" style="font-size:6.75px; font-family:Arial;" text-anchor="middle"><textPath startOffset="21.46611528233685" xlink:href="#id33">September</textPath></text><path d="M 81.87401531095188 110.60418214915194 l -45.87511161749744 26.83815792907224 a74.14896600070101,74.14896600070101 0 0,0 -0.6350258820281584,-1.107221151806999 l 46.330289495677974 -26.044516931406935" fill="#39ff8c" stroke="none" /><path d="M 81.69416730710424 110.29060199501025 l -46.88851152311646 26.358320777732178 a74.78934454959693,74.78934454959693 0 0,0 -0.6211917148146832,-1.1276433997193103 l 47.33527964738266 -25.54730685961505" fill="#3bff97" stroke="none" /><path d="M 81.51974371655577 109.97397251340807 l -45.70295417124245 24.666325060323473 a72.93445495969155,72.93445495969155 0 0,0 -0.5867663442583289,-1.109940794666411 l 46.12077302372567 -23.875969250570936" fill="#37ff76" stroke="none" /><path d="M 81.35079622478065 109.6543875284942 l -46.759190678374495 24.206467620222625 a73.65334735366281,73.65334735366281 0 0,0 -0.5731679999633204,-1.1309148403898936 l 47.16893734812408 -23.397998568130046" fill="#38ff83" stroke="none" /><path d="M 81.18737489456691 109.33194174019688 l -47.94702699496641 23.7839674168308 a74.52190676480899,74.52190676480899 0 0,0 -0.5601447758898401,-1.154064147735297 l 48.34932502747097 -22.95511431313022" fill="#3aff93" stroke="none" /><path d="M 81.02952815118164 109.00673069616217 l -22.767225941238728 10.809339608713374 a46.202944269190326,46.202944269190326 0 0,0 -0.3349171854526491,-0.7213818218334392 l 22.949917743531202 -10.415837719601107" fill="#ff0f01" stroke="none" /><path d="M 80.87730276802145 108.67885076344099 l -48.911565346708045 22.198551339321206 a74.71328426218015,74.71328426218015 0 0,0 -0.5214237094108887,-1.1756728128824532 l 49.286430140850214 -21.353330189946057" fill="#3aff96" stroke="none" /><path d="M 80.73074385275274 108.34839909993369 l -22.62150785927567 9.800761088460533 a45.65334735366281,45.65334735366281 0 0,0 -0.30620138952620063,-0.7237696344117049 l 22.78686022999418 -9.40991692838267" fill="#ff0200" stroke="none" /><path d="M 80.58989483394504 108.01547362559985 l -46.66453253907147 19.270288677879197 a71.48685594111461,71.48685594111461 0 0,0 -0.45988987393349096,-1.1414089518088588 l 46.98932502726235 -18.464180358227534" fill="#34ff5b" stroke="none" /><path d="M 80.45479744820244 107.68017299344265 l -23.363356385961087 9.180494204452833 a46.10234840518753,46.10234840518753 0 0,0 -0.28387130347446715,-0.7410983969161076 l 23.517921969029064 -8.776972240703568" fill="#ff0c01" stroke="none" /><path d="M 80.32549172779594 107.34259656027581 l -23.354714808458144 8.716062747096887 a45.928145811426575,45.928145811426575 0 0,0 -0.2700481783202716,-0.7430566056598311 l 23.50128724778364 -8.31275834443094" fill="#ff0801" stroke="none" /><path d="M 80.20201598880116 107.00284435728193 l -49.257865348578015 17.423246943371737 a73.248510339993,73.248510339993 0 0,0 -0.41022363979680554,-1.192301918678833 l 49.55047981931805 -16.57277232160361" fill="#37ff7c" stroke="none" /><path d="M 80.0844068197444 106.66101706037122 l -48.691868546562546 16.28559913603555 a72.34314756396776,72.34314756396776 0 0,0 -0.38482334137000695,-1.184364462455248 l 48.9649841389488 -15.445035773602498" fill="#36ff6b" stroke="none" /><path d="M 79.97269907076064 106.31721596034903 l -47.83246706338485 15.087805662046366 a71.15562565720295,71.15562565720295 0 0,0 -0.3583981038146645,-1.1712657400418345 l 48.08509193970564 -14.262212949452483" fill="#33ff55" stroke="none" /><path d="M 79.86692584326677 105.97154293290107 l -48.98130659722585 14.528033472578473 a72.09043112513146,72.09043112513146 0 0,0 -0.34262646839730004,-1.192727684860844 l 49.22412570250926 -13.682748312213034" fill="#35ff67" stroke="none" /><path d="M 79.76711848015287 105.62410040840567 l -47.879049223388684 13.308859641529212 a70.69435681738523,70.69435681738523 0 0,0 -0.3158082668961842,-1.1752400446796587 l 48.10104556662664 -12.482728663674013" fill="#32ff4c" stroke="none" /><path d="M 79.67330655649465 105.27499134158121 l -24.15264310321876 6.267865631952438 a45.95268138801262,45.95268138801262 0 0,0 -0.19210121446055017,-0.7673488603722688 l 24.25695563197437 -5.851188932182778" fill="#ff0901" stroke="none" /><path d="M 79.58551787078972 104.9243191809786 l -50.96822860370308 12.294400815320923 a73.43007360672976,73.43007360672976 0 0,0 -0.2858158409662747,-1.2312871623871797 l 51.17230501059991 -11.415244995585168" fill="#38ff7f" stroke="none" /><path d="M 79.50377843672027 104.57218783832718 l -50.949598081591255 11.365564721141373 a73.2018927444795,73.2018927444795 0 0,0 -0.26375674198578225,-1.2321836894168423 l 51.13768886230148 -10.486867212308368" fill="#37ff7b" stroke="none" /><path d="M 79.4281124754447 104.21870165774334 l -49.645091344746994 10.180778448497337 a71.6782334384858,71.6782334384858 0 0,0 -0.23745997640482303,-1.2108033038248356 l 49.812981254127486 -9.324711417604547" fill="#34ff5f" stroke="none" /><path d="M 79.35854240842038 103.8639653848113 l -50.91511305916918 9.531024325754885 a72.79950928846827,72.79950928846827 0 0,0 -0.21997085049117088,-1.2337133481709097 l 51.07163035199954 -8.653192226850763" fill="#37ff74" stroke="none" /><path d="M 79.29508885075956 103.50808413554451 l -50.706349176215525 8.591301736785658 a72.42902208201892,72.42902208201892 0 0,0 -0.1976906894794598,-1.2310201120991155 l 50.84672162005628 -7.717202394993329" fill="#36ff6d" stroke="none" /><path d="M 79.23777060512086 103.15116336523772 l -50.71087808154558 7.696584898971213 a72.29162285313706,72.29162285313706 0 0,0 -0.1761366422300417,-1.2318992655181071 l 50.83584877479222 -6.8225401614727055" fill="#36ff6a" stroke="none" /><path d="M 79.18660465613746 102.79330883721812 l -51.11793241305463 6.860397834695896 a72.57623554153523,72.57623554153523 0 0,0 -0.15551528875782597,-1.2396098642573259 l 51.228449211059306 -5.979470216151162" fill="#36ff70" stroke="none" /><path d="M 79.10278846688536 102.07522291339032 l -24.764623972471306 2.459280991998827 a45.88643533123029,45.88643533123029 0 0,0 -0.0712887370517744,-0.7866652729716925 l 24.803287305800154 -2.0326343304785683" fill="#ff0701" stroke="none" /><path d="M 79.07016306316243 101.71520430193888 l -50.96619481686746 4.176689807338491 a72.13704872064493,72.13704872064493 0 0,0 -0.09076709880942592,-1.2384449484587847 l 51.03053847434122 -3.2987717223829454" fill="#35ff67" stroke="none" /><path d="M 79.04373962182676 101.35467743843564 l -24.81991020604535 1.6044357043372004 a45.87171398527866,45.87171398527866 0 0,0 -0.044154034794568135,-0.7883999522599204 l 24.84385059172745 -1.1769640357418423" fill="#ff0701" stroke="none" /><path d="M 79.0235259727143 100.99374915477108 l -26.99566087283001 1.2789048883985785 a48.02593760953383,48.02593760953383 0 0,0 -0.032012414016893836,-0.8260981618118971 l 27.013675419698103 -0.8140294795726847" fill="#ff3905" stroke="none" /><path d="M 79.0095281055655 100.63252640178507 l -52.72755529037761 1.5888909496879458 a73.75148966000702,73.75148966000702 0 0,0 -0.027315926831564544,-1.2692637839893117 l 52.74709327989418 -0.6810373499085051" fill="#38ff85" stroke="none" /><line stroke="#e1ed5e" stroke-width="0.3" x1="15.007084014347285" x2="10.007500721073583" y1="101.09737516637583" y2="101.16192664675087" /><path d="M 14.007167355692545 101.11028546245083 a86.0,86.0 0 0,1 10.666146001902534,-42.60595125391555" fill="none" id="id34" stroke="none" /><text fill="#e1ed5e" style="font-size:6.75px; font-family:Arial;" text-anchor="middle"><textPath startOffset="22.20632615414155" xlink:href="#id34">October</textPath></text><path d="M 79.00175016825051 100.2711162175752 l -52.008633973975634 0.6715028270097857 a73.0129688047669,73.0129688047669 0 0,0 -0.00540887968909561,-1.2568331519587599 l 52.01248715095423 0.22383980315264956" fill="#37ff78" stroke="none" /><path d="M 79.00019446554 99.90962569577889 l -52.52527595299914 -0.22604662983593207 a73.52576235541537,73.52576235541537 0 0,0 0.016340200456060064,-1.2655665328545203 l 52.513602745425366 1.1301494207509242" fill="#38ff81" stroke="none" /><path d="M 79.00486145842228 99.54816195383935 l -62.98541562473312 -1.3555141384819447 a84.0,84.0 0 0,0 0.04355322217741975,-1.4453194103000224 l 62.95275070810006 2.4395036962069616" fill="#4dd2ff" stroke="none" /><path d="M 79.01574976396665 99.18683210126434 l -24.79176754139144 -0.9607143114867314 a45.810375043813536,45.810375043813536 0 0,0 0.03731667726046779,-0.7876960776074072 l 24.771557255897473 1.3873214957171476" fill="#ff0600" stroke="none" /><line stroke="#e1ed5e" stroke-width="0.3" x1="26.266209847984243" x2="21.928928074336255" y1="57.711370442889674" y2="55.22380399835377" /><path d="M 25.398753493254645 57.213857153982495 a86.0,86.0 0 0,1 29.58750427330803,-30.492523968695096" fill="none" id="id35" stroke="none" /><text fill="#e1ed5e" style="font-size:6.75px; font-family:Arial;" text-anchor="middle"><textPath startOffset="21.46611528233685" xlink:href="#id35">November</textPath></text><line stroke="#e1ed5e" stroke-width="0.3" x1="56.762969772571076" x2="54.21961505331055" y1="26.818313649435495" y2="22.513508569990535" /><path d="M 56.25429882871897 25.957352633546506 a86.0,86.0 0 0,1 42.265352541879196,-11.944610805530505" fill="none" id="id36" stroke="none" /><text fill="#e1ed5e" style="font-size:6.75px; font-family:Arial;" text-anchor="middle"><textPath startOffset="22.20632615414155" xlink:href="#id36">December</textPath></text></svg>