<?xml version="1.0" encoding="utf-8" ?>
<svg baseProfile="full" height="200mm" version="1.1" viewBox="0,0,200,200" width="200mm" xmlns="http://www.w3.org/2000/svg" xmlns:ev="http://www.w3.org/2001/xml-events" xmlns:xlink="http://www.w3.org/1999/xlink"><defs /><rect fill="#1a1a1a" height="200" width="200" x="0" y="0" /><text alignment-baseline="middle" fill="#e1ed5e" style="dominant-baseline: central; font-size:9.0px; font-family:Arial;" text-anchor="middle" x="100.0" y="100.0">2025</text><line stroke="#e1ed5e" stroke-width="0.3" x1="100.0" x2="100.0" y1="15.0" y2="10.0" /><path d="M 100.0 14.0 a86.0,86.0 0 0,1 42.46469731375804,11.215312516191453" fill="none" id="id25" stroke="none" /><text fill="#e1ed5e" style="font-size:6.75px; font-family:Arial;" text-anchor="middle"><textPath startOffset="22.20632615414155" xlink:href="#id25">January</textPath></text><path d="M 100.0 79.0 l 0.0 -59.3657150650059 a80.3657150650059,80.3657150650059 0 0,0 1.3833636761322756,0.011907047903969832 l -1.0218831968597473 59.35691939371049" fill="#45ffee" stroke="none" /><path d="M 100.36148047927253 79.00311137660856 l 1.0438697811522575 -60.63402808441408 a81.64301300118191,81.64301300118191 0 0,0 1.4049338248126793,0.036285295736384046 l -2.0874302411598045 60.60707599653534" fill="#48faff" stroke="none" /><path d="M 100.72285384407766 79.0124445844662 l 2.097682554977071 -60.90474475231525 a81.94085825984179,81.94085825984179 0 0,0 1.409223436306106,0.06068412554758351 l -3.145746823672509 60.85961290024348" fill="#48f4ff" stroke="none" /><path d="M 101.08401301168833 79.027996857942 l 3.142642322366192 -60.799551249277506 a81.88071642876625,81.88071642876625 0 0,0 1.4069366645571781,0.08487026178346023 l -4.188741035762982 60.73644771811374" fill="#48f6ff" stroke="none" /><path d="M 101.44485096284872 79.0497635885617 l 4.18854399271868 -60.7335906079567 a81.87785253204835,81.87785253204835 0 0,0 1.4052181584044618,0.10907197415026756 l -5.2333523404854825 60.652493371617965" fill="#48f6ff" stroke="none" /><path d="M 101.80526077348638 79.07773832637324 l 5.204793801110394 -60.32151114312349 a81.5456405127739,81.5456405127739 0 0,0 1.3974393817085304,0.13270370769928913 l -6.242358309909169 60.222981890909026" fill="#47fbff" stroke="none" /><path d="M 102.16513564639614 79.11191278185805 l 6.354561902821777 -61.30546299958625 a82.6339212655696,82.6339212655696 0 0,0 1.4135645684832563,0.1588304496604838 l -7.408893174814759 61.18699659645516" fill="#4ae9ff" stroke="none" /><path d="M 102.52436894288641 79.15227682838746 l 7.405450540562254 -61.15856529837586 a82.60528229839076,82.60528229839076 0 0,0 1.4101322405440297,0.18307563588890294 l -8.45709750961413 61.02203133932282" fill="#4ae9ff" stroke="none" /><path d="M 102.88285421437855 79.19881850522331 l 8.314383251978972 -59.99227924150431 a81.56568778979909,81.56568778979909 0 0,0 1.3890676231573234,0.20471245951079606 l -9.345819855564951 59.84027229783255" fill="#48fbff" stroke="none" /><path d="M 103.2404852339499 79.25152402106235 l 9.349355251765276 -59.86290905678765 a81.58859896354214,81.58859896354214 0 0,0 1.3857271601115961,0.22865685478689146 l -10.378411618015747 59.693105939061134" fill="#48fbff" stroke="none" /><line stroke="#e1ed5e" stroke-width="0.3" x1="143.23703022742887" x2="145.7803849466894" y1="26.81831364943548" y2="22.513508569990506" /><path d="M 143.74570117128098 25.957352633546492 a86.0,86.0 0 0,1 28.547481713284135,27.462654790039103" fill="none" id="id26" stroke="none" /><text fill="#e1ed5e" style="font-size:6.75px; font-family:Arial;" text-anchor="middle"><textPath startOffset="19.985693538727396" xlink:href="#id26">February</textPath></text><path d="M 116.15771136456269 86.58626213691792 l 22.207120892635164 -18.435810098755486 a49.86235112282934,49.86235112282934 0 0,0 0.5425534485800987,0.665106375717323 l -22.521172833291672 18.050819553430063" fill="#ff0500" stroke="none" /><path d="M 116.60985879189232 87.15038557335679 l 23.98606165297043 -18.555946062877304 a51.325802345667796,51.325802345667796 0 0,0 0.5345803742999609,0.7034451097716262 l -24.301917967494504 18.140316177224644" fill="#ff2b04" stroke="none" /><path d="M 116.82858285166822 87.43820079747576 l 48.101227564521395 -35.90545724416387 a81.02441131011909,81.02441131011909 0 0,0 0.8246640950498207,1.1248408988718053 l -48.712154272084845 35.07215390162057" fill="#46fffa" stroke="none" /><path d="M 117.04232023915458 87.72973835380427 l 23.388062810248094 -16.83911850336408 a49.81939267206109,49.81939267206109 0 0,0 0.4950799304616221,0.7002554517312805 l -23.674455360513598 16.434036551301006" fill="#ff0400" stroke="none" /><path d="M 117.2510076193507 88.02491185347247 l 23.686218480537704 -16.4422021264532 a49.83371215565051,49.83371215565051 0 0,0 0.48309164665700427,0.7088773810909283 l -23.96573459286344 16.032046722091863" fill="#ff0400" stroke="none" /><path d="M 117.45458315368197 88.32363383020206 l 25.784350130104972 -17.248622377204917 a52.021729248113466,52.021729248113466 0 0,0 0.4914898151107028,0.7485727075916281 l -26.0774365805736 16.802231605635615" fill="#ff3d05" stroke="none" /><path d="M 117.65298651832404 88.62581576622439 l 50.5996641479409 -32.60240988619363 a81.19338121647422,81.19338121647422 0 0,0 0.7468724104049903,1.1813727914633754 l -51.15336415459185 31.726589447016043" fill="#47fffd" stroke="none" /><line stroke="#e1ed5e" stroke-width="0.3" x1="172.23445277983987" x2="176.4835382374775" y1="55.19839476539836" y2="52.563006222186495" /><path d="M 173.08426987136738 54.67131705675599 a86.0,86.0 0 0,1 12.851231095245387,41.99856678651699" fill="none" id="id27" stroke="none" /><text fill="#e1ed5e" style="font-size:6.75px; font-family:Arial;" text-anchor="middle"><textPath startOffset="22.20632615414155" xlink:href="#id27">March</textPath></text><path d="M 117.84615892207809 88.93136811851018 l 51.292090092207786 -31.81263072584752 a81.35662332939359,81.35662332939359 0 0,0 0.7278868680176898,1.1964546260556823 l -51.832092758511706 30.925008326584756" fill="#47ffff" stroke="none" /><path d="M 118.03404312379186 89.2402003453031 l 51.88374039542409 -30.95582328150092 a81.41676516046913,81.41676516046913 0 0,0 0.7077068007602356,1.209700329029261 l -52.408906870654654 30.058143540117765" fill="#47feff" stroke="none" /><path d="M 118.21658344932153 89.55222093294921 l 50.89596487765936 -29.190424094918118 a79.67265205927811,79.67265205927811 0 0,0 0.6720667385841819,1.1955317367193397 l -51.390889257535974 28.310008848263983" fill="#43ffe1" stroke="none" /><path d="M 118.3937258080291 89.86733742301442 l 52.96620425991468 -29.1778121165175 a81.47117919810891,81.47117919810891 0 0,0 0.6660924578779233,1.234168162535593 l -53.460604817011074 28.26176297064945" fill="#47fdff" stroke="none" /><path d="M 118.56541770881063 90.18545643968196 l 53.7517707916242 -28.41568685137996 a81.80052732066551,81.80052732066551 0 0,0 0.6473560001534662,1.250485743020073 l -54.23293622493779 27.48622838609954" fill="#48f7ff" stroke="none" /><path d="M 118.73160827565052 90.50648371742162 l 53.28264643333738 -27.004604412494785 a80.73515774161288,80.73515774161288 0 0,0 0.617585461610345,1.245014605030767 l -53.739591907901136 26.08343021896507" fill="#46fff4" stroke="none" /><path d="M 118.89224826269711 90.83032412892265 l 54.9144530599772 -26.653669176671844 a82.04109464496771,82.04109464496771 0 0,0 0.6057047377597723,1.2757686516888789 l -55.365115991578726 25.704458109342426" fill="#49f3ff" stroke="none" /><path d="M 119.04729006885535 91.15688171328212 l 54.661168049675865 -25.37763498146255 a81.26497863442131,81.26497863442131 0 0,0 0.5781333104764598,1.2738401151605474 l -55.08990367711567 24.432972857459937" fill="#47fffe" stroke="none" /><path d="M 119.196687751892 91.48605970444005 l 26.221568941215153 -11.629551686561742 a49.68478952632057,49.68478952632057 0 0,0 0.3400078968782543,0.7847851041388159 l -26.41786754793609 11.176467437836322" fill="#ff0000" stroke="none" /><path d="M 119.34039704204932 91.81776055985345 l 56.42810087066142 -23.87273805561804 a82.2702063823984,82.2702063823984 0 0,0 0.5405478236270346,1.3089794307816318 l -56.83067038117465 22.897884054383105" fill="#49efff" stroke="none" /><path d="M 119.47837535516314 92.15188598940014 l 54.902135899697 -22.12085012788586 a80.19101736521502,80.19101736521502 0 0,0 0.5048461779633331,1.2847784567117155 l -55.274775627542034 21.172522666278358" fill="#44ffeb" stroke="none" /><path d="M 119.61058180528143 92.48833698450437 l 58.04011905694393 -22.231763446079587 a83.1522865715065,83.1522865715065 0 0,0 0.5004794037255402,1.3410359792797961 l -58.41420304917109 21.229404329770457" fill="#4be0ff" stroke="none" /><path d="M 119.7369772167798 92.82701384747503 l 56.39008173809485 -20.49378032940241 a80.99863623965814,80.99863623965814 0 0,0 0.46495885987131913,1.3145013088896538 l -56.734493678775976 19.520081394086137" fill="#46fff9" stroke="none" /><path d="M 119.85752413597 93.16781622104841 l 56.07913580430038 -19.294598830965906 a80.30557323393035,80.30557323393035 0 0,0 0.4384787786767505,1.3109957376111054 l -56.402951876748894 18.326429990432487" fill="#45ffed" stroke="none" /><path d="M 119.97218684219823 93.5106431181261 l 29.80847524334268 -9.685360721233012 a52.34248568051642,52.34248568051642 0 0,0 0.2710456325570168,0.859288725104075 l -29.9707763596679 9.170821829702518" fill="#ff4506" stroke="none" /><path d="M 120.08093135843002 93.85539295169968 l 58.054686407949525 -17.764277409344263 a81.71174652241112,81.71174652241112 0 0,0 0.3999755085336777,1.348518576299244 l -58.35186781359491 16.76232944629849" fill="#48f8ff" stroke="none" /><path d="M 120.18372546131832 94.20196356495316 l 58.65465122127901 -16.849307899956344 a82.0267751613783,82.0267751613783 0 0,0 0.37815604778094597,1.3604285050334828 l -58.93599403962632 15.837168091503909" fill="#49f3ff" stroke="none" /><path d="M 120.28053869075195 94.5502522615342 l 59.12130126195749 -15.886963495423883 a82.21865624147648,82.21865624147648 0 0,0 0.3555121702581284,1.3699334145458544 l -59.38600976408592 14.866933655329177" fill="#49f0ff" stroke="none" /><path d="M 120.37134235888165 94.90015583598534 l 60.291690863594354 -15.093665521517302 a83.1522865715065,83.1522865715065 0 0,0 0.3356469754560225,1.3914734058341252 l -60.542570639311194 14.053606884023772" fill="#4be0ff" stroke="none" /><path d="M 120.45610955862082 95.25157060432595 l 59.52432170910435 -13.817243115123727 a82.10696426947902,82.10696426947902 0 0,0 0.3077275692491021,1.3794823536311096 l -59.75334366535549 12.790582591942654" fill="#49f2ff" stroke="none" /><path d="M 120.53481517161879 95.60439243477599 l 59.81215325512786 -12.80317115802181 a82.1671061005546,82.1671061005546 0 0,0 0.28414443322140137,1.3855891682290582 l -60.02367698426426 11.77170633362934" fill="#49f1ff" stroke="none" /><path d="M 120.6074358757038 95.95851677861258 l 60.147332840959976 -11.795957437603475 a82.29311755614145,82.29311755614145 0 0,0 0.26065081625940945,1.3924070829355957 l -60.34146938112925 10.758872277205317" fill="#49eeff" stroke="none" /><path d="M 120.67395015179393 96.31383870115 l 59.599958940645315 -10.626661109608596 a81.5399127193381,81.5399127193381 0 0,0 0.23447826385353893,1.3839039863170608 l -59.77404906601908 9.599171334975697" fill="#47fbff" stroke="none" /><path d="M 120.73433829027371 96.67025291283417 l 59.938053742012706 -9.625509001725716 a81.70601872897535,81.70601872897535 0 0,0 0.21105095174214752,1.3905620769830929 l -60.094860587194155 8.59234781235054" fill="#48f9ff" stroke="none" /><path d="M 120.78858239683441 97.02765380044208 l 60.16006706893712 -8.601671018449709 a81.77188835348667,81.77188835348667 0 0,0 0.1872342646015032,1.3951127491328748 l -60.299217332596456 7.564839927252169" fill="#48f7ff" stroke="none" /><path d="M 120.83666639777658 97.38593545837742 l 60.427090319399795 -7.580882236240217 a81.90076370579143,81.90076370579143 0 0,0 0.16344914741172362,1.4003324783114788 l -60.54862981981511 6.539606019603885" fill="#48f5ff" stroke="none" /><path d="M 120.87857604477298 97.74499172005257 l 61.072539901491375 -6.596191371478191 a82.42772070188198,82.42772070188198 0 0,0 0.14021690985398513,1.4119651468917884 l -61.17703393702759 5.543950693881967" fill="#49ecff" stroke="none" /><path d="M 120.91429891909075 98.10471618934814 l 60.66078408190139 -5.497167390436929 a81.90935539594508,81.90935539594508 0 0,0 0.11516266657513008,1.4052762285543696 l -60.746421232296015 4.4521772446747905" fill="#48f5ff" stroke="none" /><path d="M 120.94382443527127 98.46500227214037 l 61.33766202574557 -4.495509983514722 a82.50218201654695,82.50218201654695 0 0,0 0.09161438692723876,1.4172340162769312 l -61.40595700367723 3.439016902984756" fill="#4aebff" stroke="none" /><path d="M 120.96714384426684 98.82574320788733 l 60.688243606335064 -3.3988216413945733 a81.78334394035821,81.78334394035821 0 0,0 0.06661990101992712,1.4062408171473593 l -60.73775711558849 2.3536697176242143" fill="#48f7ff" stroke="none" /><path d="M 120.98425023603335 99.18683210126433 l 60.29990954497575 -2.3367025358113374 a81.34516774252205,81.34516774252205 0 0,0 0.042176716235113584,1.3996398794330578 l -60.331197955666504 1.2983925089532806" fill="#47ffff" stroke="none" /><line stroke="#e1ed5e" stroke-width="0.3" x1="184.98032266829074" x2="189.97916517819016" y1="98.17113171792111" y2="98.06355123074" /><path d="M 185.9800911702706 98.14961562048488 a86.0,86.0 0 0,1 -9.607161424134198,41.387399972396054" fill="none" id="id28" stroke="none" /><text fill="#e1ed5e" style="font-size:6.75px; font-family:Arial;" text-anchor="middle"><textPath startOffset="21.466115282336823" xlink:href="#id28">April</textPath></text><path d="M 120.99513854157772 99.54816195383933 l 61.85443830080507 -1.3311742855544455 a82.86876079643605,82.86876079643605 0 0,0 0.018416567466699982,1.426383446065343 l -61.86818787538949 0.26625458142863984" fill="#4ae5ff" stroke="none" /><path d="M 120.99980553446 99.90962569577887 l 60.95461328240472 -0.26232294177323373 a81.95517774343121,81.95517774343121 0 0,0 -0.006071328197843726,1.410762855542034 l -60.95009765691738 -0.7869493919724849" fill="#48f4ff" stroke="none" /><path d="M 120.99824983174949 100.27111621757518 l 62.91743072825277 0.8123503613525404 a83.92267478861714,83.92267478861714 0 0,0 -0.03108310970535092,1.4443099692733528 l -62.89412555586241 -1.8952501464160079" fill="#4dd3ff" stroke="none" /><path d="M 120.9904718944345 100.63252640178507 l 61.03916249727615 1.8393527318751328 a82.06686971542868,82.06686971542868 0 0,0 -0.054702911409246976,1.4116390765500015 l -60.9984574530157 -2.8897690554391406" fill="#49f2ff" stroke="none" /><path d="M 120.9764740272857 100.99374915477107 l 61.610644757566895 2.918771099141432 a82.67974361305572,82.67974361305572 0 0,0 -0.07958377743349279,1.4210218074327357 l -61.55127462924587 -3.9788646229095908" fill="#4ae8ff" stroke="none" /><path d="M 120.95626037817324 101.35467743843564 l 31.248625007947933 2.020007697770975 a52.31384671333758,52.31384671333758 0 0,0 -0.0658243742701289,0.8981212892070639 l -31.209224075013466 -2.5576021234748088" fill="#ff4406" stroke="none" /><path d="M 120.92983693683757 101.71520430193887 l 61.219630323842026 5.0169608875331715 a82.42485680516411,82.42485680516411 0 0,0 -0.12805448714632064,1.4130705950513376 l -61.124201240418635 -6.07001287113308" fill="#49ecff" stroke="none" /><path d="M 120.89721153311464 102.0752229133903 l 59.90160322045688 5.948601293283578 a81.1962451131921,81.1962451131921 0 0,0 -0.1500881600976467,1.389629959182156 l -59.79033275885818 -6.978827574350525" fill="#47fffd" stroke="none" /><path d="M 120.8583938346157 102.4346265915055 l 61.18133483883732 7.14118766207389 a82.59669060823711,82.59669060823711 0 0,0 -0.17698697231312877,1.4107603083710345 l -61.049346357277344 -8.193265724732319" fill="#4ae9ff" stroke="none" /><path d="M 120.81339534386255 102.79330883721812 l 60.16942737965247 8.07517420647553 a81.70888262569325,81.70888262569325 0 0,0 -0.19908154856746332,1.3923758870012186 l -60.0215117800684 -9.109695565457159" fill="#48f8ff" stroke="none" /><path d="M 120.76222939487914 103.15116336523771 l 60.069646778665486 9.117001199225097 a81.75756886989726,81.75756886989726 0 0,0 -0.22315240072898332,1.3895702123549798 l -59.90381262357521 -10.149650641273281" fill="#48f8ff" stroke="none" /><path d="M 120.70491114924044 103.5080841355445 l 61.71942193382547 10.457273802354534 a83.59905445949633,83.59905445949633 0 0,0 -0.25260273440642633,1.4167302827889174 l -61.53027275707986 -11.518122835876671" fill="#4cd9ff" stroke="none" /><path d="M 120.64145759157962 103.86396538481128 l 59.399317661594914 11.119219963392514 a81.43108464405854,81.43108464405854 0 0,0 -0.2697698103119772,1.3755504508308585 l -59.19911791830727 -12.140034141291316" fill="#47fdff" stroke="none" /><path d="M 120.5718875245553 104.21870165774334 l 61.146143549097545 12.53931302352705 a83.41862896626967,83.41862896626967 0 0,0 -0.3005690832867529,1.4041586925155425 l -60.92124042708635 -13.589985535458762" fill="#4cdcff" stroke="none" /><path d="M 120.49622156327973 104.57218783832717 l 61.37685695333617 13.691622041183916 a83.88544413128466,83.88544413128466 0 0,0 -0.3265118442835922,1.4066044795648196 l -61.132084543122026 -14.7460951780973" fill="#4dd4ff" stroke="none" /><path d="M 120.41448212921028 104.9243191809786 l 59.280693878162744 14.299508362657157 a81.98095281389217,81.98095281389217 0 0,0 -0.3427142904938203,1.3689732310241762 l -59.025768273373856 -15.317809433078729" fill="#48f4ff" stroke="none" /><path d="M 120.32669344350535 105.2749913415812 l 60.16231854774024 15.612756216883843 a83.15515046822439,83.15515046822439 0 0,0 -0.37147355369109974,1.382391284838509 l -59.88465691770737 -16.6460384348979" fill="#4be0ff" stroke="none" /><path d="M 120.23288151984713 105.62410040840565 l 59.178281201403934 16.449688352451513 a82.42199290844621,82.42199290844621 0 0,0 -0.3917296083230777,1.3636621566692377 l -58.886358956194755 -17.465907984625332" fill="#49ecff" stroke="none" /><path d="M 120.13307415673323 105.97154293290107 l 58.644740100963496 17.39424295442778 a82.16996999727249,82.16996999727249 0 0,0 -0.41387537760408355,1.3525686806792292 l -58.33663795085328 -18.401138607659068" fill="#49f1ff" stroke="none" /><path d="M 120.02730092923936 106.31721596034902 l 57.84774529702103 18.24692708976164 a81.65733248477133,81.65733248477133 0 0,0 -0.43436937142341414,1.3368514634830142 l -57.52508367458137 -19.23997745322245" fill="#48f9ff" stroke="none" /><path d="M 119.9155931802556 106.66101706037122 l 57.89174497279047 19.362611870417215 a82.04395854168561,82.04395854168561 0 0,0 -0.4594819900102699,1.3354697417218047 l -57.549872151836965 -20.356254315228323" fill="#49f3ff" stroke="none" /><path d="M 119.79798401119884 107.00284435728193 l 57.62277135653315 20.382039859047744 a82.12128375306844,82.12128375306844 0 0,0 -0.4828564856480759,1.3286136698947435 l -57.26339060987984 -21.37090132594862" fill="#49f1ff" stroke="none" /><path d="M 119.67450827220406 107.3425965602758 l 56.0640308684022 20.923295998767525 a80.84112192017456,80.84112192017456 0 0,0 -0.49777235754082494,1.2995265519533084 l -55.695564231267866 -21.885246117553976" fill="#46fff6" stroke="none" /><path d="M 119.54520255179757 107.68017299344265 l 57.05496780905903 22.419415800250913 a82.3017092462951,82.3017092462951 0 0,0 -0.5294640838725077,1.3140864351380812 l -56.66060111092913 -23.398201603231808" fill="#49eeff" stroke="none" /><path d="M 119.41010516605496 108.01547362559984 l 29.1760404318926 12.048352164018736 a52.56586962451132,52.56586962451132 0 0,0 -0.35256434092311584,0.8333579561195733 l -28.964325109777175 -12.548784645804473" fill="#ff4a06" stroke="none" /><path d="M 119.26925614724726 108.34839909993367 l 56.66464728199285 24.549940420747763 a82.7542049277207,82.7542049277207 0 0,0 -0.5775412622920333,1.302203080028111 l -56.233664934969546 -25.521691837268563" fill="#4ae7ff" stroke="none" /><path d="M 119.12269723197855 108.67885076344098 l 56.67961200652172 25.724085256745113 a83.24393126647877,83.24393126647877 0 0,0 -0.6034209206094511,1.2997149801475574 l -56.22841646907244 -26.6959203041715" fill="#4bdeff" stroke="none" /><path d="M 118.97047184881838 109.00673069616215 l 28.830839842244565 13.688199865173795 a52.9152650240931,52.9152650240931 0 0,0 -0.39773820282963845,0.8194585039933078 l -28.590948382800214 -14.182447325132378" fill="#ff5307" stroke="none" /><path d="M 118.81262510543309 109.33194174019688 l 55.96324094346922 27.760384377522662 a83.47017910719157,83.47017910719157 0 0,0 -0.6495622715655057,1.2816479857874135 l -55.47710000211745 -28.71958657501277" fill="#4cdbff" stroke="none" /><path d="M 118.64920377521936 109.65438752849418 l 54.937919458384386 28.440461633285224 a82.86303300300025,82.86303300300025 0 0,0 -0.6666429327016571,1.2610371977229042 l -54.44022401745783 -29.381913846094264" fill="#4ae5ff" stroke="none" /><line stroke="#e1ed5e" stroke-width="0.3" x1="174.80103733775053" x2="179.2010983576182" y1="140.37084112569926" y2="142.7455964860345" /><path d="M 175.68104954172406 140.8457921977663 a86.0,86.0 0 0,1 -30.038265399797805,32.042727171017184" fill="none" id="id29" stroke="none" /><text fill="#e1ed5e" style="font-size:6.75px; font-family:Arial;" text-anchor="middle"><textPath startOffset="22.206326154141568" xlink:href="#id29">May</textPath></text><path d="M 118.48025628344425 109.97397251340804 l 28.027856640810548 15.126904489718733 a52.84939539958177,52.84939539958177 0 0,0 -0.4389610144719964,0.7968417461123335 l -27.76331921688704 -15.607116754228871" fill="#ff5107" stroke="none" /><path d="M 118.30583269289576 110.29060199501025 l 53.23986562533343 29.928726904116978 a82.07546140558232,82.07546140558232 0 0,0 -0.7029098999364949,1.2255826589910672 l -52.71680372924455 -30.84072940896636" fill="#49f2ff" stroke="none" /><path d="M 118.12598468904814 110.60418214915192 l 52.88242437305304 30.93762188155386 a82.26734248568053,82.26734248568053 0 0,0 -0.7255945301824654,1.21613816870521 l -52.342048967172346 -31.843322144145173" fill="#49efff" stroke="none" /><path d="M 117.94076556474637 110.91462005526583 l 52.79468670189524 32.11869327473307 a82.79716337848896,82.79716337848896 0 0,0 -0.7512279694662353,1.2112186829724112 l -52.23399409276104 -33.02270828907075" fill="#4ae6ff" stroke="none" /><path d="M 117.75023020441432 111.22182372390056 l 25.29637771199151 15.992552674983283 a50.92772070188199,50.92772070188199 0 0,0 -0.474828572986686,0.7369444898349999 l -25.017344275627774 -16.425618764739735" fill="#ff2103" stroke="none" /><path d="M 117.35343817320211 111.8261652097733 l 50.83678589852091 34.64467518017184 a82.51936539685425,82.51936539685425 0 0,0 -0.8100222440220831,1.1668974568275226 l -50.23290274733669 -35.51461389918639" fill="#4aebff" stroke="none" /><path d="M 117.14729908036423 112.12312394758627 l 50.9063851732588 35.990765326166766 a83.34416765160468,83.34416765160468 0 0,0 -0.8382843997930718,1.1643037128870346 l -50.27932098109012 -36.86170264450493" fill="#4cddff" stroke="none" /><path d="M 116.93607887273984 112.41649034213515 l 25.72516317182148 18.860105841081168 a52.898081643785794,52.898081643785794 0 0,0 -0.5446959128053258,0.7297091881366413 l -25.396705992321063 -19.300127908727124" fill="#ff5307" stroke="none" /><path d="M 116.71984013943494 112.70617746262583 l 23.399263502711328 17.782179260132676 a50.3893081189199,50.3893081189199 0 0,0 -0.5307510210001579,0.6860672406003305 l -23.089705664493103 -18.18232449484626" fill="#ff1302" stroke="none" /><path d="M 116.498646956653 112.99209946851258 l 47.830926039348505 37.665158264611364 a81.88071642876625,81.88071642876625 0 0,0 -0.8815125396504713,1.0998224319631928 l -47.175495587643184 -38.482908530152805" fill="#48f6ff" stroke="none" /><path d="M 116.27256486870786 113.27417163493432 l 48.7666532852789 39.780878490455734 a83.93413037548868,83.93413037548868 0 0,0 -0.9228917356741515,1.111682547994634 l -48.074665549711206 -40.61442229556413" fill="#4dd3ff" stroke="none" /><path d="M 116.0416608686014 113.55231037782055 l 47.74869853415229 40.339038954401936 a83.50740976452403,83.50740976452403 0 0,0 -0.9371022198739227,1.0900615907694413 l -47.04725380470759 -41.15497764433291" fill="#4cdaff" stroke="none" /><path d="M 115.80600337817218 113.82643327865902 l 44.915404908306236 39.29012504237903 a80.6750159105373,80.6750159105373 0 0,0 -0.9233107680274831,1.0373494358291258 l -44.23243529063041 -40.05744864794902" fill="#46fff3" stroke="none" /><path d="M 115.56566222782051 114.09645910891815 l 46.696986683461546 42.289377326754476 a84.0,84.0 0 0,0 -0.9798143680171121,1.0633949807946608 l -45.96212590744871 -43.08692356235047" fill="#4dd2ff" stroke="none" /><path d="M 115.32070863581623 114.36230785411682 l 42.637926329362024 39.970672294612505 a79.44354032184744,79.44354032184744 0 0,0 -0.9438401355029526,0.989612608651711 l -41.9435796424801 -40.698692019846725" fill="#43ffdd" stroke="none" /><path d="M 115.07121518719521 114.62390073753431 l 20.705621665033792 20.091077738419948 a49.85089553595781,49.85089553595781 0 0,0 -0.602862012892078,0.610696036200095 l -20.35671902708618 -20.44451426860071" fill="#ff0400" stroke="none" /><path d="M 114.55890576462653 115.13401014063108 l 41.27626492510513 42.90675563418212 a80.5375488680789,80.5375488680789 0 0,0 -1.0073489558877857,0.9525113133435009 l -40.531580134826534 -43.610901584271545" fill="#45fff1" stroke="none" /><path d="M 114.29624159901734 115.38237550388516 l 42.31162403607704 45.52618145085676 a83.1522865715065,83.1522865715065 0 0,0 -1.056827749942644,0.9653870924285061 l -41.521696736667536 -46.24776130987185" fill="#4be0ff" stroke="none" /><path d="M 114.0293411484842 115.62618273729858 l 41.3016711572409 46.00269207428824 a82.82293844894988,82.82293844894988 0 0,0 -1.069037658158803,0.9433014384479493 l -40.503691146175505 -46.70681665450848" fill="#4ae5ff" stroke="none" /><path d="M 113.75828350139079 115.86535959552629 l 39.522386172374155 45.57522518231188 a81.32512046549685,81.32512046549685 0 0,0 -1.0654927743613665,0.9080360576828419 l -38.732027921435744 -46.248785630217675" fill="#47ffff" stroke="none" /><path d="M 113.48314897796784 116.09983520530334 l 18.573500476377824 22.17807556261056 a49.92822074734067,49.92822074734067 0 0,0 -0.6636408494855945,0.5461312386876404 l -18.18898949834754 -22.49450192015538" fill="#ff0601" stroke="none" /><path d="M 113.20401910651253 116.32954008644616 l 19.858249300839187 24.558891909263785 a52.583053004818616,52.583053004818616 0 0,0 -0.7087256744314422,0.5630545389930743 l -19.432566133690393 -24.897080362261985" fill="#ff4b07" stroke="none" /><path d="M 112.92097659922987 116.55440617244103 l 19.656354300083095 25.18379864354665 a52.946767887989814,52.946767887989814 0 0,0 -0.7232812679136902,0.5545812339407444 l -19.21994430367591 -25.518419219314765" fill="#ff5407" stroke="none" /><path d="M 112.63410532772338 116.77436683061366 l 36.65659480597983 48.669150057456 a81.92940267297027,81.92940267297027 0 0,0 -1.1338055133997433,0.8387622133515229 l -35.813404322161524 -49.29292221954729" fill="#48f5ff" stroke="none" /><path d="M 112.34349029814194 116.9893568818739 l 36.032240635293405 49.59412456448458 a82.3017092462951,82.3017092462951 0 0,0 -1.1532925667862581,0.8228436245851587 l -35.173220740658266 -50.207012450913965" fill="#49eeff" stroke="none" /><path d="M 112.04921762599082 117.19931262002967 l 35.29481935475819 50.38058493030512 a82.51363760341849,82.51363760341849 0 0,0 -1.1702913754714557,0.8049370793357618 l -34.422371094663845 -50.98066279900598" fill="#4aebff" stroke="none" /><line stroke="#e1ed5e" stroke-width="0.3" x1="143.8653032363475" x2="146.44561519142675" y1="172.8068346515853" y2="177.08958963109032" /><path d="M 144.38136562736335 173.6633856474863 a86.0,86.0 0 0,1 -40.68145358897372,12.25698825130547" fill="none" id="id30" stroke="none" /><text fill="#e1ed5e" style="font-size:6.75px; font-family:Arial;" text-anchor="middle"><textPath startOffset="21.466115282336833" xlink:href="#id30">June</textPath></text><line stroke="#e1ed5e" stroke-width="0.3" x1="102.19456741930631" x2="102.32365962044197" y1="184.97166512339345" y2="189.96999836594603" /><path d="M 102.22038585953345 185.97133177190398 a86.0,86.0 0 0,1 -42.740103519485714,-10.115201625700543" fill="none" id="id31" stroke="none" /><text fill="#e1ed5e" style="font-size:6.75px; font-family:Arial;" text-anchor="middle"><textPath startOffset="22.20632615414155" xlink:href="#id31">July</textPath></text><line stroke="#e1ed5e" stroke-width="0.3" x1="58.666819895761336" x2="56.23545636021788" y1="174.27360380694188" y2="178.64263932499728" /><path d="M 58.180547188652646 175.14741091055294 a86.0,86.0 0 0,1 -31.652253787137756,-30.449443065178592" fill="none" id="id32" stroke="none" /><text fill="#e1ed5e" style="font-size:6.75px; font-family:Arial;" text-anchor="middle"><textPath startOffset="22.20632615414155" xlink:href="#id32">August</textPath></text><line stroke="#e1ed5e" stroke-width="0.3" x1="26.63291911575756" x2="22.317208475507996" y1="142.92168965132927" y2="145.44649492493687" /><path d="M 25.769776987707644 143.4266507060508 a86.0,86.0 0 0,1 -11.730757126820373,-40.83630448921669" fill="none" id="id33" stroke="none" /><text fill="#e1ed5e" style="font-size:6.75px; font-family:Arial;" text-anchor="middle"><textPath startOffset="21.46611528233685" xlink:href="#id33">September</textPath></text><line stroke="#e1ed5e" stroke-width="0.3" x1="15.007084014347285" x2="10.007500721073583" y1="101.09737516637583" y2="101.16192664675087" /><path d="M 14.007167355692545 101.11028546245083 a86.0,86.0 0 0,1 10.666146001902534,-42.60595125391555" fill="none" id="id34" stroke="none" /><text fill="#e1ed5e" style="font-size:6.75px; font-family:Arial;" text-anchor="middle"><textPath startOffset="22.20632615414155" xlink:href="#id34">October</textPath></text><line stroke="#e1ed5e" stroke-width="0.3" x1="26.266209847984243" x2="21.928928074336255" y1="57.711370442889674" y2="55.22380399835377" /><path d="M 25.398753493254645 57.213857153982495 a86.0,86.0 0 0,1 29.58750427330803,-30.492523968695096" fill="none" id="id35" stroke="none" /><text fill="#e1ed5e" style="font-size:6.75px; font-family:Arial;" text-anchor="middle"><textPath startOffset="21.46611528233685" xlink:href="#id35">November</textPath></text><line stroke="#e1ed5e" stroke-width="0.3" x1="56.762969772571076" x2="54.21961505331055" y1="26.818313649435495" y2="22.513508569990535" /><path d="M 56.25429882871897 25.957352633546506 a86.0,86.0 0 0,1 42.265352541879196,-11.944610805530505" fill="none" id="id36" stroke="none" /><text fill="#e1ed5e" style="font-size:6.75px; font-family:Arial;" text-anchor="middle"><textPath startOffset="22.20632615414155" xlink:href="#id36">December</textPath></text></svg>