<?xml version="1.0" encoding="utf-8" ?>
<svg baseProfile="full" height="200mm" version="1.1" viewBox="0,0,200,200" width="200mm" xmlns="http://www.w3.org/2000/svg" xmlns:ev="http://www.w3.org/2001/xml-events" xmlns:xlink="http://www.w3.org/1999/xlink"><defs /><rect fill="#1a1a1a" height="200" width="200" x="0" y="0" /><text alignment-baseline="middle" fill="#e1ed5e" style="dominant-baseline: central; font-size:9.0px; font-family:Arial;" text-anchor="middle" x="100.0" y="100.0">2026</text><line stroke="#e1ed5e" stroke-width="0.3" x1="100.0" x2="100.0" y1="15.0" y2="10.0" /><path d="M 100.0 14.0 a86.0,86.0 0 0,1 42.46469731375804,11.215312516191453" fill="none" id="id37" stroke="none" /><text fill="#e1ed5e" style="font-size:6.75px; font-family:Arial;" text-anchor="middle"><textPath startOffset="22.20632615414155" xlink:href="#id37">January</textPath></text><path d="M 100.0 79.0 l 0.0 -14.387643020594965 a35.387643020594965,35.387643020594965 0 0,0 0.6091401028290386,0.005243061177443367 l -0.24765962355651028 14.385511336026081" fill="#ff730a" stroke="none" /><path d="M 100.36148047927253 79.00311137660856 l 0.25363957634193074 -14.732861773486217 a35.735044929396665,35.735044929396665 0 0,0 0.6149377822666025,0.015882028672770294 l -0.507203993803401 14.726312952671087" fill="#ff780b" stroke="none" /><path d="M 100.72285384407766 79.0124445844662 l 0.4898235486379906 -14.22168389239247 a35.23011664899258,35.23011664899258 0 0,0 0.6058895049417578,0.026090876605221507 l -0.7345538859690799 14.211145289263055" fill="#ff700a" stroke="none" /><path d="M 101.08401301168833 79.027996857942 l 0.7404346731955185 -14.324918728198588 a35.34404197131216,35.34404197131216 0 0,0 0.6073081757454782,0.036634487647656096 l -0.9869048977806087 14.310050971170629" fill="#ff720a" stroke="none" /><path d="M 101.44485096284872 79.0497635885617 l 1.0259998214167678 -14.87692458909022 a35.91226209744935,35.91226209744935 0 0,0 0.6163395991481758,0.04783981506644232 l -1.2819296099272848 14.857059511835315" fill="#ff7a0b" stroke="none" /><path d="M 101.80526077348638 79.07773832637324 l 1.2847709535569278 -14.889989565928984 a35.945314505776636,35.945314505776636 0 0,0 0.6159912137841699,0.05849578811740869 l -1.540887294431342 14.865668233296397" fill="#ff7b0b" stroke="none" /><path d="M 102.16513564639614 79.11191278185805 l 0.7326682717028379 -7.068397209554869 a28.10626779036669,28.10626779036669 0 0,0 0.4807955823986598,0.05402298575514831 l -0.8542305576112229 7.0547382703291195" fill="#ff0100" stroke="none" /><path d="M 102.52436894288641 79.15227682838746 l 0.878661297952603 -7.256501690430568 a28.309504939442988,28.309504939442988 0 0,0 0.48326383638212816,0.06274151572737292 l -1.0034398628425771 7.240301851539058" fill="#ff0400" stroke="none" /><path d="M 102.88285421437855 79.19881850522331 l 0.9808494329883185 -7.077301020938697 a28.14494614053692,28.14494614053692 0 0,0 0.4793097992390851,0.07063780498089259 l -1.1025282126560594 7.059368731796836" fill="#ff0200" stroke="none" /><path d="M 103.2404852339499 79.25152402106235 l 2.2140632994903133 -14.1764075034302 a35.34826142769437,35.34826142769437 0 0,0 0.6003663078583965,0.09906558493366342 l -2.457758813487585 14.136195655556913" fill="#ff720a" stroke="none" /><path d="M 103.59715602781102 79.31037775812273 l 2.4375214228751303 -14.019797044071664 a35.23011664899258,35.23011664899258 0 0,0 0.5965714935474133,0.10901962725676739 l -2.6784880375254447 13.975761935464158" fill="#ff700a" stroke="none" /><path d="M 103.95276090670814 79.375362276772 l 2.69913761172134 -14.083506875515171 a35.33982251492995,35.33982251492995 0 0,0 0.596458103941007,0.11964388446405341 l -2.9411621251294724 14.03495903497391" fill="#ff720a" stroke="none" /><path d="M 104.307194497241 79.44645832069477 l 1.4608449807910993 -6.9710198178714045 a28.12244237316515,28.12244237316515 0 0,0 0.47293548279316183,0.10336537865643251 l -1.5806231877377892 6.944840941119101" fill="#ff0100" stroke="none" /><path d="M 104.66035177308747 79.52364482259891 l 3.169517804084396 -13.92602435556752 a35.282156611039795,35.282156611039795 0 0,0 0.5910203318401145,0.13987541744548282 l -3.408761822887034 13.86940302598117" fill="#ff710a" stroke="none" /><path d="M 105.01212808612495 79.60689891045804 l 1.717388890234878 -6.987627739516438 a28.195579617123403,28.195579617123403 0 0,0 0.4703171865834292,0.11989432290910762 l -1.8374149655033323 6.957030420438462" fill="#ff0200" stroke="none" /><line stroke="#e1ed5e" stroke-width="0.3" x1="143.23703022742887" x2="145.7803849466894" y1="26.81831364943548" y2="22.513508569990506" /><path d="M 143.74570117128098 25.957352633546492 a86.0,86.0 0 0,1 28.547481713284135,27.462654790039103" fill="none" id="id38" stroke="none" /><text fill="#e1ed5e" style="font-size:6.75px; font-family:Arial;" text-anchor="middle"><textPath startOffset="19.985693538727396" xlink:href="#id38">February</textPath></text><line stroke="#e1ed5e" stroke-width="0.3" x1="172.23445277983987" x2="176.4835382374775" y1="55.19839476539836" y2="52.563006222186495" /><path d="M 173.08426987136738 54.67131705675599 a86.0,86.0 0 0,1 12.851231095245387,41.99856678651699" fill="none" id="id39" stroke="none" /><text fill="#e1ed5e" style="font-size:6.75px; font-family:Arial;" text-anchor="middle"><textPath startOffset="22.20632615414155" xlink:href="#id39">March</textPath></text><path d="M 118.21658344932153 89.55222093294921 l 6.157666797034713 -3.5316140615999574 a28.098532120332646,28.098532120332646 0 0,0 0.23702096457219327,0.4216338484639846 l -6.217545402899339 3.425096703201179" fill="#ff0100" stroke="none" /><path d="M 118.3937258080291 89.86733742301442 l 12.534261086150051 -6.904823936342458 a35.310286320254505,35.310286320254505 0 0,0 0.2886900083554636,0.5348987410689856 l -12.65125919372398 6.688044211941014" fill="#ff710a" stroke="none" /><path d="M 118.56541770881063 90.18545643968196 l 12.878806535849048 -6.808336323669867 a35.567673159569125,35.567673159569125 0 0,0 0.281476750645929,0.5437234899976322 l -12.994092719655093 6.58564011141189" fill="#ff750a" stroke="none" /><path d="M 118.73160827565052 90.50648371742162 l 12.883691545691333 -6.529686808992943 a35.44390243902439,35.44390243902439 0 0,0 0.2711289537469307,0.5465794262407968 l -12.994180512391672 6.306947794253197" fill="#ff730a" stroke="none" /><path d="M 118.89224826269711 90.83032412892265 l 6.436671334197032 -3.1241485397892794 a28.15479153876207,28.15479153876207 0 0,0 0.20786522534183388,0.43781717681153787 l -6.489494753380622 3.0128889473372014" fill="#ff0200" stroke="none" /><path d="M 119.04729006885535 91.15688171328212 l 6.4792891394574745 -3.008150769318978 a28.143539655076182,28.143539655076182 0 0,0 0.20021807699612126,0.4411539927491297 l -6.530109533416943 2.8961747677277856" fill="#ff0200" stroke="none" /><path d="M 119.196687751892 91.48605970444005 l 13.026147812131086 -5.7772385625583915 a35.249807445442876,35.249807445442876 0 0,0 0.2412249907698468,0.5567805372767114 l -13.123663512743613 5.552158880695077" fill="#ff710a" stroke="none" /><path d="M 119.34039704204932 91.81776055985345 l 13.229880796269738 -5.597095664805719 a35.36513925322319,35.36513925322319 0 0,0 0.23236296462830763,0.5626853497124737 l -13.324265447784242 5.368535744639942" fill="#ff720a" stroke="none" /><path d="M 119.47837535516314 92.15188598940014 l 6.640281111198104 -2.6754635472871517 a28.15901099514428,28.15901099514428 0 0,0 0.17727632773858054,0.4511489176412781 l -6.685350988818385 2.5607656247500894" fill="#ff0200" stroke="none" /><path d="M 119.61058180528143 92.48833698450437 l 13.501388111897558 -5.171589438039005 a35.45796729363175,35.45796729363175 0 0,0 0.21341544604640464,0.5718472919201762 l -13.588408146445587 4.938419009089495" fill="#ff740a" stroke="none" /><path d="M 119.7369772167798 92.82701384747503 l 13.355754823445984 -4.853866088655646 a35.21042585254228,35.21042585254228 0 0,0 0.20211944570945747,0.5714188907179096 l -13.437327349965251 4.623249571511122" fill="#ff700a" stroke="none" /><path d="M 119.85752413597 93.16781622104841 l 13.495180939288106 -4.643154689179329 a35.271607970084276,35.271607970084276 0 0,0 0.19258752489862224,0.5758121864440272 l -13.5731057579585 4.410169399812988" fill="#ff710a" stroke="none" /><path d="M 120.83666639777658 97.38593545837742 l 7.069836600176557 -0.8869465402373148 a28.12525534408662,28.12525534408662 0 0,0 0.05612950110259975,0.4808832877384143 l -7.084056454282745 0.7651195141740478" fill="#ff0100" stroke="none" /><path d="M 120.87857604477298 97.74499172005257 l 14.119869729001191 -1.525028482900207 a35.20198693977787,35.20198693977787 0 0,0 0.05988172167550059,0.6030007652410002 l -14.144028576358922 1.2817521869547719" fill="#ff700a" stroke="none" /><path d="M 120.91429891909075 98.10471618934814 l 16.64505982400327 -1.5083992312536318 a37.7132667299213,37.7132667299213 0 0,0 0.05302398414542865,0.6470269114010441 l -16.668558291968193 1.221658402644819" fill="#ff950d" stroke="none" /><path d="M 120.94382443527127 98.46500227214037 l 7.085154248315355 -0.5192793563712012 a28.10415806217559,28.10415806217559 0 0,0 0.031208207444210753,0.48277715608237265 l -7.093043046763982 0.39724313603579325" fill="#ff0100" stroke="none" /><path d="M 120.96714384426684 98.82574320788733 l 14.278066754696649 -0.7996376134713775 a35.30044092202936,35.30044092202936 0 0,0 0.028755389140121292,0.6069808165836074 l -14.289715752070267 0.5537456902647703" fill="#ff710a" stroke="none" /><path d="M 120.98425023603335 99.18683210126433 l 14.551828561291913 -0.5639029138924446 a35.56275046045655,35.56275046045655 0 0,0 0.018438956810052386,0.611899208620872 l -14.55937921255761 0.3133335578465736" fill="#ff750a" stroke="none" /><line stroke="#e1ed5e" stroke-width="0.3" x1="184.98032266829074" x2="189.97916517819016" y1="98.17113171792111" y2="98.06355123074" /><path d="M 185.9800911702706 98.14961562048488 a86.0,86.0 0 0,1 -9.607161424134198,41.387399972396054" fill="none" id="id40" stroke="none" /><text fill="#e1ed5e" style="font-size:6.75px; font-family:Arial;" text-anchor="middle"><textPath startOffset="21.466115282336823" xlink:href="#id40">April</textPath></text><path d="M 120.99513854157772 99.54816195383933 l 14.226822405162414 -0.3061765763485328 a35.23011664899258,35.23011664899258 0 0,0 0.007829462078233295,0.606400466329107 l -14.229984874358363 0.061239851958963004" fill="#ff700a" stroke="none" /><path d="M 120.99980553446 99.90962569577887 l 29.66812957150633 -0.127679114131195 a50.66840430875705,50.66840430875705 0 0,0 -0.0037535701866519304,0.8721975196266312 l -29.665931704030175 -0.3830278836991209" fill="#b8ff1f" stroke="none" /><path d="M 120.99824983174949 100.27111621757518 l 7.197089480201687 0.09292430050394665 a28.197689345314505,28.197689345314505 0 0,0 -0.010443802864547113,0.48528248098015386 l -7.194423614652132 -0.21679659727421535" fill="#ff0200" stroke="none" /><path d="M 120.9764740272857 100.99374915477107 l 14.956669698798922 0.708564168221873 a35.973444214991346,35.973444214991346 0 0,0 -0.034626408510898765,0.6182777846676296 l -14.942256939400496 -0.9659136692249258" fill="#ff7b0b" stroke="none" /><path d="M 120.95626037817324 101.35467743843564 l 14.551366599589954 0.9406453095706764 a35.58173801417648,35.58173801417648 0 0,0 -0.0447710460494523,0.6108653525830802 l -14.533018994876164 -1.1909837986505267" fill="#ff760a" stroke="none" /><path d="M 120.92983693683757 101.71520430193887 l 7.065002723335025 0.578978379088368 a28.088686722107497,28.088686722107497 0 0,0 -0.04363832115978621,0.4815452376755878 l -7.053989805898165 -0.7005050053125265" fill="#ff0100" stroke="none" /><path d="M 120.89721153311464 102.0752229133903 l 7.102975846216901 0.7053696234049744 a28.137913713233242,28.137913713233242 0 0,0 -0.052011859567128844,0.4815652230011616 l -7.08978168514872 -0.8275311682909275" fill="#ff0100" stroke="none" /><path d="M 119.67450827220406 107.3425965602758 l 6.603044769906654 2.4642798256544296 a28.047898643746166,28.047898643746166 0 0,0 -0.17270255904847157,0.45087188485625396 l -6.559647931264675 -2.5775752773438274" fill="#ff0000" stroke="none" /><path d="M 119.54520255179757 107.68017299344265 l 6.595646797381171 2.5917208211727933 a28.086576993916392,28.086576993916392 0 0,0 -0.18068681553983665,0.4484498581519836 l -6.550057367583943 -2.7048700471675904" fill="#ff0100" stroke="none" /><path d="M 119.41010516605496 108.01547362559984 l 13.704615415117582 5.659370851888606 a35.827169727074846,35.827169727074846 0 0,0 -0.24029627155786215,0.5679894035916792 l -13.60516816236741 -5.894434781146449" fill="#ff790b" stroke="none" /><path d="M 119.26925614724726 108.34839909993367 l 13.319307343930264 5.770585672436153 a35.51563319752191,35.51563319752191 0 0,0 -0.2478634607862288,0.5588666700303162 l -13.218002798412764 -5.999000678959157" fill="#ff750a" stroke="none" /><path d="M 119.12269723197855 108.67885076344098 l 13.878230543442726 6.298645545971746 a36.24067645253111,36.24067645253111 0 0,0 -0.2627024218557262,0.5658376455726462 l -13.76775350474717 -6.536603258823223" fill="#ff7f0b" stroke="none" /><path d="M 118.97047184881838 109.00673069616215 l 6.448075769342184 3.0613936451206962 a28.137913713233242,28.137913713233242 0 0,0 -0.2114989545376209,0.4357504902685512 l -6.394423558189849 -3.1719330913545227" fill="#ff0100" stroke="none" /><path d="M 118.81262510543309 109.33194174019688 l 12.945085248638918 6.421367602084014 a35.4502316235977,35.4502316235977 0 0,0 -0.2758725718244385,0.5443227562472874 l -12.83263400702821 -6.643244570033995" fill="#ff740a" stroke="none" /><path d="M 118.64920377521936 109.65438752849418 l 54.100281590754946 28.00683022037838 a81.91980800357203,81.91980800357203 0 0,0 -0.6590545756619917,1.2466828859508732 l -53.61017450686806 -28.933928121415384" fill="#4ae7ff" stroke="none" /><line stroke="#e1ed5e" stroke-width="0.3" x1="174.80103733775053" x2="179.2010983576182" y1="140.37084112569926" y2="142.7455964860345" /><path d="M 175.68104954172406 140.8457921977663 a86.0,86.0 0 0,1 -30.038265399797805,32.042727171017184" fill="none" id="id41" stroke="none" /><text fill="#e1ed5e" style="font-size:6.75px; font-family:Arial;" text-anchor="middle"><textPath startOffset="22.206326154141568" xlink:href="#id41">May</textPath></text><path d="M 118.48025628344425 109.97397251340804 l 14.561208352731812 7.858824555494046 a37.546598202824136,37.546598202824136 0 0,0 -0.3118577367341945,0.5661123773755291 l -14.42377420654611 -8.108307451267379" fill="#ff930d" stroke="none" /><path d="M 118.30583269289576 110.29060199501025 l 12.395900303054477 6.968340557273051 a35.220271250767425,35.220271250767425 0 0,0 -0.30163311806772647,0.5259227660822667 l -12.27411518883437 -7.1806831692136335" fill="#ff700a" stroke="none" /><path d="M 117.94076556474637 110.91462005526583 l 19.084881138462904 11.610665424197384 a43.33920857286376,43.33920857286376 0 0,0 -0.39322151056837656,0.6339982794909208 l -18.882194988226566 -11.937460035053578" fill="#ffe515" stroke="none" /><path d="M 117.75023020441432 111.22182372390056 l 15.892286255909633 10.047218141950275 a39.80189763911369,39.80189763911369 0 0,0 -0.3710960945763297,0.5759493797459032 l -15.716985297956253 -10.319289121617631" fill="#ffb310" stroke="none" /><path d="M 117.55443506779139 111.5257021239791 l 5.959709640584997 3.9129620405056675 a28.129474800468827,28.129474800468827 0 0,0 -0.26923509911055293,0.4024699428723266 l -5.891471436063723 -4.014968897583801" fill="#ff0100" stroke="none" /><path d="M 117.14729908036423 112.12312394758627 l 5.767510363225263 4.077624276259079 a28.063369983814255,28.063369983814255 0 0,0 -0.28226432545816776,0.392040460525835 l -5.696466245391493 -4.176298342236045" fill="#ff0000" stroke="none" /><path d="M 116.93607887273984 112.41649034213515 l 5.8047921168440775 4.255716201989836 a28.197689345314505,28.197689345314505 0 0,0 -0.29035393457886227,0.3889765443302394 l -5.730676915570124 -4.35500562582939" fill="#ff0200" stroke="none" /><path d="M 116.71984013943494 112.70617746262583 l 12.866167546935602 9.777593969314466 a37.15981470112184,37.15981470112184 0 0,0 -0.39140465168228333,0.5059432741773618 l -12.69595607803525 -9.997615237605082" fill="#ff8d0d" stroke="none" /><path d="M 116.498646956653 112.99209946851258 l 11.537910734914927 9.085695591927713 a35.685817938270915,35.685817938270915 0 0,0 -0.38418686807212554,0.4793321893514388 l -11.379805954787948 -9.282955614857402" fill="#ff770b" stroke="none" /><path d="M 116.27256486870786 113.27417163493432 l 5.541409124849813 4.5203455273420925 a28.15127532511023,28.15127532511023 0 0,0 -0.3095353371745782,0.37285525378906154 l -5.462777787781691 -4.615062038244925" fill="#ff0200" stroke="none" /><path d="M 116.0416608686014 113.55231037782055 l 10.92877877024592 9.232847094704962 a35.30677010660267,35.30677010660267 0 0,0 -0.3962049923087349,0.46087591623137963 l -10.768231268366405 -9.41960011009787" fill="#ff710a" stroke="none" /><path d="M 115.80600337817218 113.82643327865902 l 5.375117407110737 4.701928780871208 a28.14142992688508,28.14142992688508 0 0,0 -0.3220735067222971,0.3618529990803034 l -5.293385050740102 -4.793755949692378" fill="#ff0200" stroke="none" /><path d="M 115.56566222782051 114.09645910891815 l 5.29130001477723 4.7918677149509925 a28.13861695596361,28.13861695596361 0 0,0 -0.32822168082837,0.3562198099699433 l -5.208031925953137 -4.88223877972227" fill="#ff0200" stroke="none" /><path d="M 115.32070863581623 114.36230785411682 l 10.437099149804425 9.784196975262553 a35.3060668638723,35.3060668638723 0 0,0 -0.4194586847196366,0.43980075395481694 l -10.267133913705823 -9.962404845799876" fill="#ff710a" stroke="none" /><path d="M 114.81725581225074 114.88116024355365 l 5.18575008630348 5.208115388917091 a28.34958977507395,28.34958977507395 0 0,0 -0.34876751754843105,0.3413424217530835 l -5.095332616379255 -5.296607913592746" fill="#ff0500" stroke="none" /><path d="M 114.55890576462653 115.13401014063108 l 15.15777351863277 15.756534306152378 a42.863816487135125,42.863816487135125 0 0,0 -0.5361327901151852,0.5069470167754037 l -14.884304894126776 -16.015115959673704" fill="#ffde14" stroke="none" /><path d="M 114.29624159901734 115.38237550388516 l 13.239802246609072 14.24567487503301 a40.44817770832171,40.44817770832171 0 0,0 -0.5140779454093054,0.4695980144609601 l -12.992624751732903 -14.471465656080554" fill="#ffbd11" stroke="none" /><path d="M 114.0293411484842 115.62618273729858 l 6.381443572691663 7.107789477727069 a30.55214600658592,30.55214600658592 0 0,0 -0.39435203858093204,0.3479698235223587 l -6.258149181204144 -7.216582443021716" fill="#ff2803" stroke="none" /><path d="M 113.75828350139079 115.86535959552629 l 5.113225326732209 5.896313918328427 a28.804587821621922,28.804587821621922 0 0,0 -0.37738745441412075,0.32161777589768953 l -5.010972395741041 -5.983456084449063" fill="#ff0c01" stroke="none" /><path d="M 113.20401910651253 116.32954008644616 l 4.430130069592532 5.478785358914016 a28.045788915555057,28.045788915555057 0 0,0 -0.37800716254183936,0.30031175152758516 l -4.335165414333342 -5.554231024446727" fill="#ff0000" stroke="none" /><path d="M 112.92097659922987 116.55440617244103 l 14.278915927038655 18.294203394225175 a44.20701010213763,44.20701010213763 0 0,0 -0.6038914855952947,0.46303823990048726 l -13.961895712949866 -18.53728097595303" fill="#fff116" stroke="none" /><path d="M 112.04921762599082 117.19931262002967 l 5.5098085622449515 7.864819350109009 a30.602779483172405,30.602779483172405 0 0,0 -0.4340393895460466,0.29853624991222816 l -5.373612288076022 -7.958496389386331" fill="#ff2904" stroke="none" /><path d="M 111.7513745106137 117.40417183066458 l 35.25412353184112 52.21251549199374 a84.0,84.0 0 0,0 -1.2053012050401435,0.7988079156347263 l -34.35014762806101 -52.81162142871979" fill="#4dd2ff" stroke="none" /><line stroke="#e1ed5e" stroke-width="0.3" x1="143.8653032363475" x2="146.44561519142675" y1="172.8068346515853" y2="177.08958963109032" /><path d="M 144.38136562736335 173.6633856474863 a86.0,86.0 0 0,1 -40.68145358897372,12.25698825130547" fill="none" id="id42" stroke="none" /><text fill="#e1ed5e" style="font-size:6.75px; font-family:Arial;" text-anchor="middle"><textPath startOffset="21.466115282336833" xlink:href="#id42">June</textPath></text><line stroke="#e1ed5e" stroke-width="0.3" x1="102.19456741930631" x2="102.32365962044197" y1="184.97166512339345" y2="189.96999836594603" /><path d="M 102.22038585953345 185.97133177190398 a86.0,86.0 0 0,1 -42.740103519485714,-10.115201625700543" fill="none" id="id43" stroke="none" /><text fill="#e1ed5e" style="font-size:6.75px; font-family:Arial;" text-anchor="middle"><textPath startOffset="22.20632615414155" xlink:href="#id43">July</textPath></text><line stroke="#e1ed5e" stroke-width="0.3" x1="58.666819895761336" x2="56.23545636021788" y1="174.27360380694188" y2="178.64263932499728" /><path d="M 58.180547188652646 175.14741091055294 a86.0,86.0 0 0,1 -31.652253787137756,-30.449443065178592" fill="none" id="id44" stroke="none" /><text fill="#e1ed5e" style="font-size:6.75px; font-family:Arial;" text-anchor="middle"><textPath startOffset="22.20632615414155" xlink:href="#id44">August</textPath></text><line stroke="#e1ed5e" stroke-width="0.3" x1="26.63291911575756" x2="22.317208475507996" y1="142.92168965132927" y2="145.44649492493687" /><path d="M 25.769776987707644 143.4266507060508 a86.0,86.0 0 0,1 -11.730757126820373,-40.83630448921669" fill="none" id="id45" stroke="none" /><text fill="#e1ed5e" style="font-size:6.75px; font-family:Arial;" text-anchor="middle"><textPath startOffset="21.46611528233685" xlink:href="#id45">September</textPath></text><line stroke="#e1ed5e" stroke-width="0.3" x1="15.007084014347285" x2="10.007500721073583" y1="101.09737516637583" y2="101.16192664675087" /><path d="M 14.007167355692545 101.11028546245083 a86.0,86.0 0 0,1 10.666146001902534,-42.60595125391555" fill="none" id="id46" stroke="none" /><text fill="#e1ed5e" style="font-size:6.75px; font-family:Arial;" text-anchor="middle"><textPath startOffset="22.20632615414155" xlink:href="#id46">October</textPath></text><line stroke="#e1ed5e" stroke-width="0.3" x1="26.266209847984243" x2="21.928928074336255" y1="57.711370442889674" y2="55.22380399835377" /><path d="M 25.398753493254645 57.213857153982495 a86.0,86.0 0 0,1 29.58750427330803,-30.492523968695096" fill="none" id="id47" stroke="none" /><text fill="#e1ed5e" style="font-size:6.75px; font-family:Arial;" text-anchor="middle"><textPath startOffset="21.46611528233685" xlink:href="#id47">November</textPath></text><line stroke="#e1ed5e" stroke-width="0.3" x1="56.762969772571076" x2="54.21961505331055" y1="26.818313649435495" y2="22.513508569990535" /><path d="M 56.25429882871897 25.957352633546506 a86.0,86.0 0 0,1 42.265352541879196,-11.944610805530505" fill="none" id="id48" stroke="none" /><text fill="#e1ed5e" style="font-size:6.75px; font-family:Arial;" text-anchor="middle"><textPath startOffset="22.20632615414155" xlink:href="#id48">December</textPath></text></svg>