<?xml version="1.0" encoding="utf-8" ?>
<svg baseProfile="full" height="200mm" version="1.1" viewBox="0,0,200,200" width="200mm" xmlns="http://www.w3.org/2000/svg" xmlns:ev="http://www.w3.org/2001/xml-events" xmlns:xlink="http://www.w3.org/1999/xlink"><defs /><rect fill="#1a1a1a" height="200" width="200" x="0" y="0" /><text alignment-baseline="middle" fill="#e1ed5e" style="dominant-baseline: central; font-size:9.0px; font-family:Arial;" text-anchor="middle" x="100.0" y="100.0">2025</text><line stroke="#e1ed5e" stroke-width="0.3" x1="100.0" x2="100.0" y1="15.0" y2="10.0" /><path d="M 100.0 14.0 a86.0,86.0 0 0,1 42.46469731375804,11.215312516191453" fill="none" id="id25" stroke="none" /><text fill="#e1ed5e" style="font-size:6.75px; font-family:Arial;" text-anchor="middle"><textPath startOffset="22.20632615414155" xlink:href="#id25">January</textPath></text><path d="M 100.0 79.0 l 0.0 -55.24459579508439 a76.2445957950844,76.2445957950844 0 0,0 1.3124253823784433,0.011296459613611975 l -0.9509449031059148 55.23641071207934" fill="#3dffa9" stroke="none" /><path d="M 100.36148047927253 79.00311137660856 l 0.9714051967421364 -56.4248635644884 a77.43322475570032,77.43322475570032 0 0,0 1.3324907132228327,0.03441430389201591 l -1.942522545159837 56.39978246845402" fill="#3fffbf" stroke="none" /><path d="M 100.72285384407766 79.0124445844662 l 1.95206315175708 -56.67678730324595 a77.71039384068699,77.71039384068699 0 0,0 1.336467674009511,0.0575511093772807 l -2.927371658155922 56.63478846734447" fill="#40ffc4" stroke="none" /><path d="M 101.08401301168833 79.027996857942 l 2.9244826687851226 -56.57889624694814 a77.65442700621855,77.65442700621855 0 0,0 1.334317349497991,0.08048966638434281 l -3.8979620671227257 56.52017331118349" fill="#40ffc3" stroke="none" /><path d="M 101.44485096284872 79.0497635885617 l 3.8977787026450157 -56.51751453927119 a77.65176191886289,77.65176191886289 0 0,0 1.3326884194694257,0.10344227048971259 l -4.870057311476782 56.442047006593015" fill="#40ffc3" stroke="none" /><path d="M 101.80526077348638 79.07773832637324 l 4.843481282491918 -56.13404129305091 a77.34261178560854,77.34261178560854 0 0,0 1.3254125041359264,0.12586388778795865 l -5.809018913718089 56.04235186074778" fill="#3fffbd" stroke="none" /><path d="M 102.16513564639614 79.11191278185805 l 5.9134334251987575 -57.04968801831287 a78.35534498075214,78.35534498075214 0 0,0 1.340373755955633,0.15060660907762874 l -6.894573884664116 56.93944545576464" fill="#41ffcf" stroke="none" /><path d="M 102.52436894288641 79.15227682838746 l 6.89137023525904 -56.91298783508914 a78.32869410719573,78.32869410719573 0 0,0 1.3371277701259017,0.1735975603862997 l -7.870012733892788 56.7859319515387" fill="#41ffce" stroke="none" /><path d="M 102.88285421437855 79.19881850522331 l 7.737205583021001 -55.82766440012742 a77.36126739709803,77.36126739709803 0 0,0 1.317466139740741,0.19416026210120316 l -8.697040703190398 55.68620965386525" fill="#3fffbd" stroke="none" /><path d="M 103.2404852339499 79.25152402106235 l 8.700330675084926 -55.70727498757201 a77.38258809594315,77.38258809594315 0 0,0 1.314290910819451,0.2168692615642842 l -9.657950792043252 55.549259463068104" fill="#3fffbe" stroke="none" /><line stroke="#e1ed5e" stroke-width="0.3" x1="143.23703022742887" x2="145.7803849466894" y1="26.81831364943548" y2="22.513508569990506" /><path d="M 143.74570117128098 25.957352633546492 a86.0,86.0 0 0,1 28.547481713284135,27.462654790039103" fill="none" id="id26" stroke="none" /><text fill="#e1ed5e" style="font-size:6.75px; font-family:Arial;" text-anchor="middle"><textPath startOffset="19.985693538727396" xlink:href="#id26">February</textPath></text><path d="M 116.15771136456269 86.58626213691792 l 20.665520766368644 -17.156011275960203 a47.858750370151014,47.858750370151014 0 0,0 0.5207522203294397,0.6383806476882601 l -20.957771478774493 16.79774645866384" fill="#ff0400" stroke="none" /><path d="M 116.60985879189232 87.15038557335679 l 22.320968917553337 -17.26780749994394 a49.220610008883625,49.220610008883625 0 0,0 0.512653887894698,0.6745924238561468 l -22.61489874567215 16.881030300206763" fill="#ff2603" stroke="none" /><path d="M 116.82858285166822 87.43820079747576 l 44.762079781900326 -33.412929838703704 a76.85756588688184,76.85756588688184 0 0,0 0.7822540638678074,1.0669936640008906 l -45.33059645828176 32.63747373103132" fill="#3effb4" stroke="none" /><path d="M 117.04232023915458 87.72973835380427 l 21.76448266423443 -15.67016070210259 a47.818774059816405,47.818774059816405 0 0,0 0.47519879441586327,0.6721349947180607 l -22.030994078454174 15.293199207052735" fill="#ff0300" stroke="none" /><path d="M 117.2510076193507 88.02491185347247 l 22.04194061232998 -15.300797934672257 a47.83209949659461,47.83209949659461 0 0,0 0.4636878672955027,0.6804047291785399 l -22.302052945294218 14.919115182223312" fill="#ff0300" stroke="none" /><path d="M 117.45458315368197 88.32363383020206 l 23.994421682898984 -16.05123715274562 a49.86822623630441,49.86822623630441 0 0,0 0.4711439940007143,0.7175846261945628 l -24.26716231225762 15.635834462573383" fill="#ff3505" stroke="none" /><path d="M 117.65298651832404 88.62581576622439 l 47.08707694599619 -30.339177320381037 a77.01480604086467,77.01480604086467 0 0,0 0.7084350098840629,1.1205740546009697 l -47.60233955212621 29.524155618065862" fill="#3effb7" stroke="none" /><line stroke="#e1ed5e" stroke-width="0.3" x1="172.23445277983987" x2="176.4835382374775" y1="55.19839476539836" y2="52.563006222186495" /><path d="M 173.08426987136738 54.67131705675599 a86.0,86.0 0 0,1 12.851231095245387,41.99856678651699" fill="none" id="id27" stroke="none" /><text fill="#e1ed5e" style="font-size:6.75px; font-family:Arial;" text-anchor="middle"><textPath startOffset="22.20632615414155" xlink:href="#id27">March</textPath></text><path d="M 117.84615892207809 88.93136811851018 l 47.731435248884765 -29.60422398186022 a77.16671602013622,77.16671602013622 0 0,0 0.6904003256341404,1.1348366067997833 l -48.23395137280513 28.778219601853355" fill="#3fffba" stroke="none" /><path d="M 118.03404312379186 89.2402003453031 l 48.282013673105425 -28.806895407862314 a77.22268285460467,77.22268285460467 0 0,0 0.6712501745978195,1.1473841373286915 l -48.77072352217357 27.971531858179727" fill="#3fffbb" stroke="none" /><path d="M 118.21658344932153 89.55222093294921 l 47.3628087219743 -27.164048785481985 a75.59964465501923,75.59964465501923 0 0,0 0.6377094938878104,1.13441403208888 l -47.823375857154545 26.34475124345831" fill="#3bff9d" stroke="none" /><path d="M 118.3937258080291 89.86733742301442 l 49.289333783561204 -27.15231232028225 a77.27331951436186,77.27331951436186 0 0,0 0.6317715765295087,1.170576781835501 l -49.74941345930918 26.299854555114287" fill="#3fffbc" stroke="none" /><path d="M 118.56541770881063 90.18545643968196 l 50.02036693067174 -26.44309316623615 a77.57980456026058,77.57980456026058 0 0,0 0.6139538902474808,1.1859634983597591 l -50.46813025407934 25.578156945616048" fill="#3fffc1" stroke="none" /><path d="M 118.73160827565052 90.50648371742162 l 49.5838088007342 -25.129966913408364 a76.5883920639621,76.5883920639621 0 0,0 0.5858646813844844,1.1810674477236787 l -50.00903349507209 24.272739877185735" fill="#3dffaf" stroke="none" /><path d="M 118.89224826269711 90.83032412892265 l 51.102336749159385 -24.803393313948447 a77.80367189813444,77.80367189813444 0 0,0 0.574420086515722,1.2098751975881312 l -51.52171502951686 23.920075700719774" fill="#40ffc5" stroke="none" /><path d="M 119.04729006885535 91.15688171328212 l 50.86663457662209 -23.615940366437375 a77.0814332247557,77.0814332247557 0 0,0 0.5483708347106184,1.208262444976179 l -51.26560772829606 22.736855912619134" fill="#3effb8" stroke="none" /><path d="M 119.196687751892 91.48605970444005 l 24.40128912258772 -10.822237742754991 a47.693514954101275,47.693514954101275 0 0,0 0.32638100853149454,0.7533323670450974 l -24.583960840961893 10.400606231123291" fill="#ff0000" stroke="none" /><path d="M 119.34039704204932 91.81776055985345 l 52.510908369762255 -22.215512151422892 a78.01687888658573,78.01687888658573 0 0,0 0.5126017782464257,1.2413058652320517 l -52.88553183489488 21.308331715737538" fill="#40ffc9" stroke="none" /><path d="M 119.47837535516314 92.15188598940014 l 51.090874636047836 -20.585238847380733 a76.08202546639029,76.08202546639029 0 0,0 0.47897783355816786,1.2189463417957755 l -51.4376460194877 19.702743500689174" fill="#3cffa6" stroke="none" /><path d="M 119.61058180528143 92.48833698450437 l 54.011021575136525 -20.688452653955693 a78.83772579212317,78.83772579212317 0 0,0 0.47451079967102094,1.2714530311913284 l -54.35913696330917 19.75567648573503" fill="#42ffd7" stroke="none" /><path d="M 119.7369772167798 92.82701384747503 l 52.47552849420917 -19.07111890038471 a76.83358010068108,76.83358010068108 0 0,0 0.44105006530903934,1.2469079270691878 l -52.79603164032802 18.16501334688891" fill="#3effb4" stroke="none" /><path d="M 119.85752413597 93.16781622104841 l 52.1861681722154 -17.955183598442748 a76.18862896061593,76.18862896061593 0 0,0 0.4159997324020341,1.2437862504367183 l -52.48750519838921 17.054224245083713" fill="#3cffa8" stroke="none" /><path d="M 119.97218684219823 93.5106431181261 l 27.7391953298808 -9.013010920330125 a50.16671602013622,50.16671602013622 0 0,0 0.25977882212130926,0.8235698570892883 l -27.890229635770314 8.534190896814417" fill="#ff3d05" stroke="none" /><path d="M 120.08093135843002 93.85539295169968 l 54.02457767257811 -16.531095835304168 a77.49718685223571,77.49718685223571 0 0,0 0.3793454189924929,1.2789641701332424 l -54.3011289886823 15.598702278424394" fill="#3fffc0" stroke="none" /><path d="M 120.18372546131832 94.20196356495316 l 54.582893420436385 -15.679642759137003 a77.79034646135622,77.79034646135622 0 0,0 0.3586254599850183,1.2901665893149479 l -54.84470565098777 14.737764866403104" fill="#40ffc5" stroke="none" /><path d="M 120.28053869075195 94.5502522615342 l 55.017148997865434 -14.784103514206803 a77.96890731418418,77.96890731418418 0 0,0 0.33713632305677665,1.2991237792992107 l -55.263481652792514 13.834883309358741" fill="#40ffc8" stroke="none" /><path d="M 120.37134235888165 94.90015583598534 l 56.10629111287906 -14.045875635278039 a78.83772579212317,78.83772579212317 0 0,0 0.3182311071049358,1.3192733878922964 l -56.33975502024482 13.078017015726335" fill="#42ffd7" stroke="none" /><path d="M 120.45610955862082 95.25157060432595 l 55.39219209598026 -12.858061425884841 a77.86496890731416,77.86496890731416 0 0,0 0.2918290528055926,1.308212421800654 l -55.605315535787895 11.902670834534224" fill="#40ffc6" stroke="none" /><path d="M 120.53481517161879 95.60439243477599 l 55.66004261205224 -11.914385512676668 a77.92093574178266,77.92093574178266 0 0,0 0.2694606293585971,1.3139857257472256 l -55.85688253732583 10.954524130766032" fill="#40ffc7" stroke="none" /><path d="M 120.6074358757038 95.95851677861258 l 55.97195430582671 -10.977091742984106 a78.03819958543085,78.03819958543085 0 0,0 0.2471740168001358,1.3204134813359774 l -56.15261404653671 10.012000184185565" fill="#40ffc9" stroke="none" /><path d="M 120.67395015179393 96.31383870115 l 55.46257865291746 -9.888967007452512 a77.33728161089724,77.33728161089724 0 0,0 0.22239307007468437,1.312576488530666 l -55.624583584512365 8.932804730606009" fill="#3fffbd" stroke="none" /><path d="M 120.73433829027371 96.67025291283417 l 55.77720319035473 -8.95731405812269 a77.49185667752442,77.49185667752442 0 0,0 0.2001655491048636,1.3188408742348945 l -55.9231246328989 7.995874071495714" fill="#3fffc0" stroke="none" /><path d="M 120.78858239683441 97.02765380044208 l 55.983804534137604 -8.00455006827094 a77.55315368670418,77.55315368670418 0 0,0 0.1775745673780599,1.3231367848088695 l -56.1132951005735 7.039694941397404" fill="#3fffc1" stroke="none" /><path d="M 120.83666639777658 97.38593545837742 l 56.232291249467266 -7.0546236064474925 a77.67308261770802,77.67308261770802 0 0,0 0.15501197493481986,1.3280479370237668 l -56.34539357740567 6.085631931098873" fill="#40ffc3" stroke="none" /><path d="M 120.87857604477298 97.74499172005257 l 56.832934250730034 -6.138289174236525 a78.16345869114598,78.16345869114598 0 0,0 0.13296301957457707,1.3389194617132527 l -56.93017439598684 5.159094181818838" fill="#41ffcc" stroke="none" /><path d="M 120.91429891909075 98.10471618934814 l 56.44976218256556 -5.115558536944524 a77.68107787977496,77.68107787977496 0 0,0 0.1092178058027802,1.3327338693515411 l -56.52945447218783 4.143110750385214" fill="#40ffc3" stroke="none" /><path d="M 120.94382443527127 98.46500227214037 l 57.07965181447402 -4.183435366020427 a78.23275096239266,78.23275096239266 0 0,0 0.0868734055496067,1.3438931327729897 l -57.14320581102804 3.200283168994402" fill="#41ffcd" stroke="none" /><path d="M 120.96714384426684 98.82574320788733 l 56.475315489325226 -3.1628782295104627 a77.56381403612674,77.56381403612674 0 0,0 0.06318271380029568,1.3336872274478306 l -56.52139181135902 2.1902798954396325" fill="#3fffc1" stroke="none" /><path d="M 120.98425023603335 99.18683210126433 l 56.11393926013691 -2.174490561477973 a77.15605567071366,77.15605567071366 0 0,0 0.04000470041618998,1.3275612486079775 l -56.143055655008745 1.2082591654449963" fill="#3effba" stroke="none" /><line stroke="#e1ed5e" stroke-width="0.3" x1="184.98032266829074" x2="189.97916517819016" y1="98.17113171792111" y2="98.06355123074" /><path d="M 185.9800911702706 98.14961562048488 a86.0,86.0 0 0,1 -9.607161424134198,41.387399972396054" fill="none" id="id28" stroke="none" /><text fill="#e1ed5e" style="font-size:6.75px; font-family:Arial;" text-anchor="middle"><textPath startOffset="21.466115282336823" xlink:href="#id28">April</textPath></text><path d="M 120.99513854157772 99.54816195383933 l 57.5605539041884 -1.2387652579900457 a78.57388214391472,78.57388214391472 0 0,0 0.017462083271386052,1.3524575932597906 l -57.57334899457751 0.24777140666979222" fill="#41ffd3" stroke="none" /><path d="M 120.99980553446 99.90962569577887 l 56.72319400086041 -0.24411269821598186 a77.7237192774652,77.7237192774652 0 0,0 -0.005757857178564738,1.3379232303600581 l -56.71899184639234 -0.7323200103477611" fill="#40ffc4" stroke="none" /><path d="M 120.99824983174949 100.27111621757518 l 58.54975426879752 0.7559576652579714 a79.55463429079064,79.55463429079064 0 0,0 -0.02946528374432981,1.3691359539897474 l -58.52806692236818 -1.7636834350378334" fill="#44ffe4" stroke="none" /><path d="M 120.9904718944345 100.63252640178507 l 56.801873878551575 1.711666373187917 a77.82765768433521,77.82765768433521 0 0,0 -0.05187720060796948,1.338720036532719 l -56.7639945450924 -2.689163656734642" fill="#40ffc6" stroke="none" /><path d="M 120.9764740272857 100.99374915477107 l 57.33368430885218 2.716152402339914 a78.3979863784424,78.3979863784424 0 0,0 -0.07546235179895677,1.347430984110956 l -57.27843560616569 -3.702655102786293" fill="#41ffd0" stroke="none" /><path d="M 120.95626037817324 101.35467743843564 l 29.07937107850749 1.8797804194579253 a50.14006514657981,50.14006514657981 0 0,0 -0.06308919380794946,0.8608019249116202 l -29.042705326035204 -2.3800554808663157" fill="#ff3c05" stroke="none" /><path d="M 120.92983693683757 101.71520430193887 l 56.96981377655049 4.668687575783862 a78.16079360379035,78.16079360379035 0 0,0 -0.1214298784108499,1.3399685896751605 l -56.88100930186256 -5.648637554007593" fill="#41ffcc" stroke="none" /><path d="M 120.89721153311464 102.0752229133903 l 55.743283034122015 5.5356542683553505 a77.01747112822031,77.01747112822031 0 0,0 -0.1423638558765094,1.3181124953625838 l -55.63973687674445 -6.494363085602726" fill="#3effb7" stroke="none" /><path d="M 120.8583938346157 102.4346265915055 l 56.93417673271896 6.645452269144272 a78.32069884512882,78.32069884512882 0 0,0 -0.16782444013156772,1.3377259117881637 l -56.811350783340544 -7.624495935219831" fill="#41ffce" stroke="none" /><path d="M 120.81339534386255 102.79330883721812 l 55.99251505975697 7.514602233345266 a77.49452176488008,77.49452176488008 0 0,0 -0.18881336891022527,1.3205602623940502 l -55.85486763983015 -8.477307967719726" fill="#3fffc0" stroke="none" /><path d="M 120.76222939487914 103.15116336523771 l 55.89966114628721 8.484106450380882 a77.53982824992596,77.53982824992596 0 0,0 -0.211640329638703,1.3178845346866743 l -55.745339062287215 -9.445070214760761" fill="#3fffc1" stroke="none" /><path d="M 120.70491114924044 103.5080841355445 l 57.43491026271384 9.731338428198951 a79.2534794196032,79.2534794196032 0 0,0 -0.23947215362722438,1.3430870125994074 l -57.258891666747424 -10.718544191531576" fill="#43ffdf" stroke="none" /><path d="M 120.64145759157962 103.86396538481128 l 55.27586572696667 10.34733282942208 a77.23600829138289,77.23600829138289 0 0,0 -0.25587210826303186,1.3046863674968794 l -55.08956368572798 -11.297282923986904" fill="#3fffbb" stroke="none" /><path d="M 120.5718875245553 104.21870165774334 l 56.90142839346198 11.668844193559288 a79.0855789161978,79.0855789161978 0 0,0 -0.2849564929394297,1.3312218681118053 l -56.6921378617981 -12.646579881087263" fill="#43ffdc" stroke="none" /><path d="M 120.49622156327973 104.57218783832717 l 57.116125862324516 12.741160863909803 a79.51998815516731,79.51998815516731 0 0,0 -0.30951994423869134,1.3334038188907276 l -56.88834535215528 -13.722433340149095" fill="#43ffe3" stroke="none" /><path d="M 120.41448212921028 104.9243191809786 l 55.16547670932883 13.30684821531081 a77.74770506366599,77.74770506366599 0 0,0 -0.3250175640054514,1.2982836055509415 l -54.92824783102832 -14.254459660259146" fill="#40ffc4" stroke="none" /><path d="M 120.32669344350535 105.2749913415812 l 55.98589971712804 14.52893148013921 a78.84039087947883,78.84039087947883 0 0,0 -0.3521985109700053,1.3106616803814224 l -55.72751312981626 -15.49048409369618" fill="#42ffd7" stroke="none" /><path d="M 120.23288151984713 105.62410040840565 l 55.070173436629446 15.30776447299921 a78.15812851643469,78.15812851643469 0 0,0 -0.3714646053877479,1.2931170229327327 l -54.7985161943556 -16.253438971436523" fill="#41ffcb" stroke="none" /><path d="M 120.13307415673323 105.97154293290107 l 54.57367032196772 16.18674886888203 a77.9236008291383,77.9236008291383 0 0,0 -0.39248717893532153,1.2826708099168223 l -54.28695637052627 -17.12374665135091" fill="#40ffc7" stroke="none" /><path d="M 120.02730092923936 106.31721596034902 l 53.832002243913394 16.980240370598445 a77.44655019247853,77.44655019247853 0 0,0 -0.4119704661218581,1.2679147213856672 l -53.53173952677528 -17.904353991961905" fill="#3fffbf" stroke="none" /><path d="M 119.9155931802556 106.66101706037122 l 53.87294749826323 18.018475228454584 a77.80633698549008,77.80633698549008 0 0,0 -0.4357494590578313,1.266491897822527 l -53.55480720826217 -18.94313982936641" fill="#40ffc5" stroke="none" /><path d="M 119.79798401119884 107.00284435728193 l 53.62264580993343 18.967135361873698 a77.87829434409238,77.87829434409238 0 0,0 -0.45790856884710845,1.2599677175623973 l -53.2882129800811 -19.887350876442227" fill="#40ffc7" stroke="none" /><path d="M 119.67450827220406 107.3425965602758 l 52.172111808583765 19.470817944113033 a76.68700029612081,76.68700029612081 0 0,0 -0.4721937056715649,1.2327487633442908 l -51.82922382331869 -20.365990274290468" fill="#3dffb1" stroke="none" /><path d="M 119.54520255179757 107.68017299344265 l 53.09425871922167 20.863078335543793 a78.04619484749779,78.04619484749779 0 0,0 -0.5020874710026246,1.2461399271347122 l -52.72726863396165 -21.773917630521318" fill="#40ffca" stroke="none" /><path d="M 119.41010516605496 108.01547362559984 l 27.15066362455152 11.211965434412798 a50.37459283387622,50.37459283387622 0 0,0 -0.3378672368327815,0.7986183435043868 l -26.953645406526427 -11.677658303583348" fill="#ff4206" stroke="none" /><path d="M 119.26925614724726 108.34839909993367 l 52.73103392314729 22.84570368355723 a78.46727864968908,78.46727864968908 0 0,0 -0.5476228210946372,1.234744893365789 l -52.32997001732138 -23.749996913415703" fill="#41ffd1" stroke="none" /><path d="M 119.12269723197855 108.67885076344098 l 52.74495980876792 23.93834034764072 a78.9230085875037,78.9230085875037 0 0,0 -0.5720992963040967,1.2322509878963328 l -52.325085895624 -24.842711402815887" fill="#42ffd9" stroke="none" /><path d="M 118.97047184881838 109.00673069616215 l 26.82942657683049 12.737976252552693 a50.69973349126444,50.69973349126444 0 0,0 -0.3810851343856187,0.7851482505226857 l -26.606188185830156 -13.197913459040656" fill="#ff4906" stroke="none" /><path d="M 118.81262510543309 109.33194174019688 l 52.07831863760887 25.83328125287633 a79.13355048859935,79.13355048859935 0 0,0 -0.6158147659705879,1.2150609556219552 l -51.62592520185201 -26.72589642020098" fill="#43ffdd" stroke="none" /><path d="M 118.64920377521936 109.65438752849418 l 51.12417412942764 26.466148103092706 a78.56855196920343,78.56855196920343 0 0,0 -0.6320933232190027,1.195682356942007 l -50.66102829798374 -27.342245475120848" fill="#41ffd3" stroke="none" /><line stroke="#e1ed5e" stroke-width="0.3" x1="174.80103733775053" x2="179.2010983576182" y1="140.37084112569926" y2="142.7455964860345" /><path d="M 175.68104954172406 140.8457921977663 a86.0,86.0 0 0,1 -30.038265399797805,32.042727171017184" fill="none" id="id29" stroke="none" /><text fill="#e1ed5e" style="font-size:6.75px; font-family:Arial;" text-anchor="middle"><textPath startOffset="22.206326154141568" xlink:href="#id29">May</textPath></text><path d="M 118.48025628344425 109.97397251340804 l 26.08218581092899 14.076807181557285 a50.638436482084686,50.638436482084686 0 0,0 -0.4205970433793752,0.7635058044032452 l -25.836012358098106 -14.523683504358337" fill="#ff4806" stroke="none" /><path d="M 118.30583269289576 110.29060199501025 l 49.543997801348816 27.851099218950264 a77.83565294640212,77.83565294640212 0 0,0 -0.6665993719326943,1.162272192792927 l -49.05724643326374 -28.699791257601504" fill="#40ffc6" stroke="none" /><path d="M 118.12598468904814 110.60418214915192 l 49.21136982776009 28.789957534177493 a78.01421379923009,78.01421379923009 0 0,0 -0.6880821125230798,1.1532651989978473 l -48.70850683953878 -29.632784827061442" fill="#40ffc9" stroke="none" /><path d="M 117.94076556474637 110.91462005526583 l 49.12972283380394 29.889039919521885 a78.50725496002369,78.50725496002369 0 0,0 -0.7123051482136772,1.1484627018171953 l -48.607953045922294 -30.730298952704356" fill="#41ffd2" stroke="none" /><path d="M 117.75023020441432 111.22182372390056 l 23.540323909995735 14.882362779486536 a48.85016286644951,48.85016286644951 0 0,0 -0.45545830059475356,0.706881396925387 l -23.28066074602393 -15.285365776333377" fill="#ff1d02" stroke="none" /><path d="M 117.35343817320211 111.8261652097733 l 47.30773789905084 32.23967023196498 a78.2487414865265,78.2487414865265 0 0,0 -0.7681011707493852,1.1065070241568147 l -46.745775821139326 -33.04921851830881" fill="#41ffcd" stroke="none" /><path d="M 117.14729908036423 112.12312394758627 l 47.372505649196114 33.492315903592214 a79.01628664495112,79.01628664495112 0 0,0 -0.7947541176597838,1.103843958269964 l -46.78897173916073 -34.302793467313315" fill="#42ffda" stroke="none" /><path d="M 116.93607887273984 112.41649034213515 l 23.939343434736195 17.550852755704703 a50.683742967130584,50.683742967130584 0 0,0 -0.521894684683993,0.6991632169446699 l -23.63368748335711 -17.96032885215869" fill="#ff4906" stroke="none" /><path d="M 116.71984013943494 112.70617746262583 l 21.774905813809546 16.547754954287353 a48.349126443588986,48.349126443588986 0 0,0 -0.5092617696563572,0.6582894864582353 l -21.48683722693512 -16.92012243485884" fill="#ff1001" stroke="none" /><path d="M 116.498646956653 112.99209946851258 l 44.510542367003204 35.05047385697031 a77.65442700621855,77.65442700621855 0 0,0 -0.8360130950357061,1.0430548789468426 l -43.900611359912645 -35.8114565694954" fill="#40ffc3" stroke="none" /><path d="M 116.27256486870786 113.27417163493432 l 45.3813121946599 37.01932251927092 a79.56529464021321,79.56529464021321 0 0,0 -0.8748545143844783,1.0538186204095885 l -44.73736168038188 -37.79500239679428" fill="#44ffe4" stroke="none" /><path d="M 116.0416608686014 113.55231037782055 l 44.43402302780499 37.53873594140759 a79.16819662422267,79.16819662422267 0 0,0 -0.8884085018224505,1.0334197958467832 l -43.78127201641176 -38.2980328364159" fill="#43ffdd" stroke="none" /><path d="M 115.80600337817218 113.82643327865902 l 41.79741432264142 36.5626367732245 a76.53242522949361,76.53242522949361 0 0,0 -0.8758995770885253,0.9840824602066224 l -41.16185589590456 -37.27669340317199" fill="#3dffae" stroke="none" /><path d="M 115.56566222782051 114.09645910891815 l 43.45532015156255 39.35368342290051 a79.62659164939296,79.62659164939296 0 0,0 -0.9288009354084121,1.0080299749732204 l -42.77147280815842 -40.09586465267506" fill="#44ffe5" stroke="none" /><path d="M 115.32070863581623 114.36230785411682 l 39.678036439498534 37.195940993142095 a75.38643766656796,75.38643766656796 0 0,0 -0.895639157746989,0.9390740761795526 l -39.03189073037258 -37.873422185904154" fill="#3bff99" stroke="none" /><path d="M 115.07121518719521 114.62390073753431 l 19.268254384170792 18.69637159311993 a47.848090020728456,47.848090020728456 0 0,0 -0.5786414778071745,0.5861607620333948 l -18.943572281308082 -19.02527284913399" fill="#ff0400" stroke="none" /><path d="M 114.55890576462653 115.13401014063108 l 38.41090045359206 39.928203834372795 a76.40450103642286,76.40450103642286 0 0,0 -0.9556535482627945,0.9036300787694183 l -37.71791107093846 -40.58346854988813" fill="#3dffac" stroke="none" /><path d="M 114.29624159901734 115.38237550388516 l 39.37438578390044 42.36579125834201 a78.83772579212317,78.83772579212317 0 0,0 -1.0019916444250245,0.9152956101896734 l -38.639294590008554 -43.03727963511827" fill="#42ffd7" stroke="none" /><path d="M 114.0293411484842 115.62618273729858 l 38.434543005921796 42.80922290495338 a78.53124074622446,78.53124074622446 0 0,0 -1.0136425399999003,0.8944216873526658 l -37.69195811301531 -43.46446773407833" fill="#41ffd2" stroke="none" /><path d="M 113.75828350139079 115.86535959552629 l 36.77877452599038 42.41143041416713 a77.13740005922415,77.13740005922415 0 0,0 -1.0106267525419181,0.8612780435953847 l -36.04328229687142 -43.03823284798546" fill="#3effb9" stroke="none" /><path d="M 113.48314897796784 116.09983520530334 l 17.284143300450925 20.638491739342065 a47.92004737933077,47.92004737933077 0 0,0 -0.6369484126249956,0.5241651803632169 l -16.926324759281236 -20.932952038562462" fill="#ff0600" stroke="none" /><path d="M 113.20401910651253 116.32954008644616 l 18.479705914795908 22.854033767079176 a50.39058335801006,50.39058335801006 0 0,0 -0.6791750979564996,0.5395777738435313 l -18.083573324122057 -23.168745454927834" fill="#ff4206" stroke="none" /><path d="M 112.92097659922987 116.55440617244103 l 18.29182629947239 23.435559988186434 a50.72904945217648,50.72904945217648 0 0,0 -0.692986043745824,0.5313521479034553 l -17.885711527233074 -23.74695147791726" fill="#ff4a06" stroke="none" /><path d="M 112.63410532772338 116.77436683061366 l 34.11192404678473 45.29057756097622 a77.69973349126442,77.69973349126442 0 0,0 -1.0752719212873085,0.7954604612472963 l -33.32726715507886 -45.87104797096328" fill="#40ffc3" stroke="none" /><path d="M 112.34349029814194 116.9893568818739 l 33.530912030762074 46.15134109605027 a78.04619484749779,78.04619484749779 0 0,0 -1.0936601099523708,0.780297449974109 l -32.73152459296082 -46.721682807868596" fill="#40ffca" stroke="none" /><path d="M 112.04921762599082 117.19931262002967 l 32.844681930960306 46.88320602804062 a78.24341131181522,78.24341131181522 0 0,0 -1.1097267325163895,0.7632801656533681 l -32.03279831382103 -47.44162698305908" fill="#41ffcd" stroke="none" /><path d="M 111.7513745106137 117.40417183066458 l 15.308751556933418 22.672764140839956 a48.357121705655906,48.357121705655906 0 0,0 -0.693867822191666,0.4598577570927354 l -14.916209036001788 -22.93291991902401" fill="#ff1001" stroke="none" /><path d="M 111.45004920935366 117.60387380957326 l 16.405650269504157 25.22286077796211 a51.088836245188034,51.088836245188034 0 0,0 -0.7413189579120553,0.47314483323201384 l -15.969049509545172 -25.501520040017933" fill="#ff5307" stroke="none" /><path d="M 111.1453310114006 117.79835938074945 l 30.461421633088115 48.644883576778234 a78.39532129108676,78.39532129108676 0 0,0 -1.1498756945544883,0.7063475683318293 l -29.619566738601318 -49.16201961193844" fill="#41ffd0" stroke="none" /><line stroke="#e1ed5e" stroke-width="0.3" x1="143.8653032363475" x2="146.44561519142675" y1="172.8068346515853" y2="177.08958963109032" /><path d="M 144.38136562736335 173.6633856474863 a86.0,86.0 0 0,1 -40.68145358897372,12.25698825130547" fill="none" id="id30" stroke="none" /><text fill="#e1ed5e" style="font-size:6.75px; font-family:Arial;" text-anchor="middle"><textPath startOffset="21.466115282336833" xlink:href="#id30">June</textPath></text><path d="M 110.8373102113329 117.98757091392108 l 29.180829656988486 48.433811762003046 a77.54515842463724,77.54515842463724 0 0,0 -1.1492640356162493,0.6790054496585558 l -28.342797750343856 -48.92893578395535" fill="#3fffc1" stroke="none" /><path d="M 110.5260780823613 118.17145234162733 l 28.862444652586582 49.8260162392487 a78.58187740598164,78.58187740598164 0 0,0 -1.1763004790579759,0.6679341115658256 l -28.000495406607406 -50.31545351660915" fill="#42ffd3" stroke="none" /><path d="M 110.21172684928248 118.3499491758327 l 28.37632358710893 50.99079747290909 a79.35475273911754,79.35475273911754 0 0,0 -1.1993042042476083,0.6539562756569642 l -27.494396570992677 -51.47169440032582" fill="#43ffe0" stroke="none" /><path d="M 109.89434966115114 118.52300852407294 l 27.063697903480335 50.66539228216217 a78.44062777613267,78.44062777613267 0 0,0 -1.1964403184870551,0.6259210273708448 l -26.187566682466784 -51.12374272847774" fill="#41ffd0" stroke="none" /><path d="M 109.57404056367764 118.69057910512821 l 26.46094869441663 51.65744300750652 a79.04027243115192,79.04027243115192 0 0,0 -1.2162645319912753,0.6098602855779292 l -25.567830254742592 -52.10527113399375" fill="#42ffdb" stroke="none" /><path d="M 109.2508944713604 118.85261126421891 l 25.18392537397756 51.32290252067682 a78.16878886585727,78.16878886585727 0 0,0 -1.2130580023403494,0.5823415585367703 l -24.296754703636974 -51.74879835571315" fill="#41ffcc" stroke="none" /><path d="M 108.92500713936063 119.00905698771935 l 24.234458236866192 51.61611531484959 a78.022209061297,78.022209061297 0 0,0 -1.220609177026729,0.5603218060734062 l -23.342381064072047 -52.025624191257066" fill="#40ffc9" stroke="none" /><path d="M 108.59647513512805 119.15986991738527 l 23.674035758569985 52.76481795430354 a78.8323956174119,78.8323956174119 0 0,0 -1.2428464931488468,0.5448273787048267 l -22.762268590763387 -53.16450988630282" fill="#42ffd7" stroke="none" /><path d="M 108.2653958097858 119.30500536409082 l 22.7475832561887 53.13021020250521 a78.79508439443293,78.79508439443293 0 0,0 -1.251448071278552,0.5231053952898785 l -21.829663725412686 -53.51390064081506" fill="#42ffd7" stroke="none" /><path d="M 107.93186726928326 119.44442032107085 l 11.215812654641159 27.494783774783794 a50.69440331655316,50.69440331655316 0 0,0 -0.8108181731744534,0.32264128448613216 l -10.74087340542484 -27.683771903675996" fill="#ff4906" stroke="none" /><path d="M 107.59598834532513 119.57807347666477 l 20.769351778843845 53.53140061611015 a78.41930707728753,78.41930707728753 0 0,0 -1.262662047151212,0.4774307445360322 l -19.844819510932357 -53.88097961075281" fill="#41ffd0" stroke="none" /><path d="M 107.2578585660854 119.70592522655815 l 21.77357569825621 59.11777567967444 a84.0,84.0 0 0,0 -1.3611217574810608,0.4880498358401595 l -20.752734380145416 -59.48381305655456" fill="#4dd2ff" stroke="none" /><path d="M 106.91757812671514 119.82793768551818 l 19.06891761373741 54.65746873393213 a78.88836245188037,78.88836245188037 0 0,0 -1.2859940088712878,0.43627898969807855 l -18.125253871928894 -54.97761071052833" fill="#42ffd8" stroke="none" /><path d="M 106.57524785965236 119.94407469862006 l 18.035132449426786 54.70425396098931 a78.60053301747114,78.60053301747114 0 0,0 -1.2885945610661949,0.4125672859783613 l -17.09081654326965 -55.006594093627385" fill="#42ffd3" stroke="none" /><path d="M 106.2309692047433 120.05430185196036 l 8.276152590656553 26.63670077193837 a48.89280426413976,48.89280426413976 0 0,0 -0.8058582440768302,0.24279847838437246 l -7.816419372139477 -26.775214619428468" fill="#ff1e03" stroke="none" /><path d="M 105.88484417918355 120.15858648285463 l 7.8306093174930655 26.823822404424565 a48.943440923896944,48.943440923896944 0 0,0 -0.8107570296732031,0.22912803501872464 l -7.367721119715257 -26.95463923278181" fill="#ff1f03" stroke="none" /><path d="M 105.53697534728816 120.25689768951611 l 7.294641196353276 26.687278004340296 a48.666271838910276,48.666271838910276 0 0,0 -0.8099679581158488,0.21391989942260936 l -6.83418279542593 -26.80888925306649" fill="#ff1802" stroke="none" /><path d="M 105.18746579009965 120.34920634021253 l 14.121300545408552 55.39453563994569 a78.16612377850163,78.16612377850163 0 0,0 -1.3066648093713606,0.32114641914661446 l -13.16568245129398 -55.629403317406336" fill="#41ffcc" stroke="none" /><path d="M 104.83641907484287 120.43548508189849 l 13.048449567928147 55.13405525057069 a77.65709209357418,77.65709209357418 0 0,0 -1.3034552485584656,0.2966621708859571 l -12.097474169976818 -55.350494155034326" fill="#40ffc3" stroke="none" /><path d="M 104.48393922423573 120.51570834832081 l 12.22835610511463 55.94932823263243 a78.27006218537164,78.27006218537164 0 0,0 -1.318696015030383,0.27634557139081023 l -11.263468628654868 -56.15152978474978" fill="#41ffcd" stroke="none" /><path d="M 104.13013068566511 120.58985236759428 l 11.171742303092271 55.694248491421504 a77.80367189813444,77.80367189813444 0 0,0 -1.3153725347178629,0.25209427689169644 l -10.211402153802704 -55.87829996666167" fill="#40ffc5" stroke="none" /><path d="M 103.7750983002368 120.6578951692458 l 10.229607712676893 55.97792347227924 a77.90494521764879,77.90494521764879 0 0,0 -1.3212345888894865,0.22971356895809308 l -9.264524152315357 -56.145715619758334" fill="#40ffc7" stroke="none" /><path d="M 103.41894727170886 120.7198165907248 l 9.383411358091605 56.86620672503251 a78.63517915309447,78.63517915309447 0 0,0 -1.3374126596287867,0.2088763521534853 l -8.403162834854301 -57.01930138453311" fill="#42ffd4" stroke="none" /><path d="M 103.06178313531738 120.77559828337769 l 8.518178843321738 57.79973758215732 a79.42404501036421,79.42404501036421 0 0,0 -1.3542609376429382,0.18768822590354353 l -7.52198931449197 -57.937800373553465" fill="#43ffe1" stroke="none" /><path d="M 102.70371172650421 120.8252237178851 l 7.456452412791946 57.43300519650081 a78.91501332543677,78.91501332543677 0 0,0 -1.348592104382579,0.16329572284232102 l -6.466732885357986 -57.55284644806848" fill="#42ffd9" stroke="none" /><path d="M 102.34483914955558 120.86867818915974 l 3.088593282275576 27.487966190442354 a48.660941664198994,48.660941664198994 0 0,0 -0.8331851638534418,0.08636304892200929 l -2.614975521816532 -27.53705860782012" fill="#ff1802" stroke="none" /><path d="M 101.98527174616119 120.90594882070398 l 2.6832536185900433 28.256062643152926 a49.38318033757773,49.38318033757773 0 0,0 -0.8469349050748948,0.07307710732608738 l -2.196474395773607 -28.298064002757677" fill="#ff2a04" stroke="none" /><line stroke="#e1ed5e" stroke-width="0.3" x1="102.19456741930631" x2="102.32365962044197" y1="184.97166512339345" y2="189.96999836594603" /><path d="M 102.22038585953345 185.97133177190398 a86.0,86.0 0 0,1 -42.740103519485714,-10.115201625700543" fill="none" id="id31" stroke="none" /><text fill="#e1ed5e" style="font-size:6.75px; font-family:Arial;" text-anchor="middle"><textPath startOffset="22.20632615414155" xlink:href="#id31">July</textPath></text><line stroke="#e1ed5e" stroke-width="0.3" x1="58.666819895761336" x2="56.23545636021788" y1="174.27360380694188" y2="178.64263932499728" /><path d="M 58.180547188652646 175.14741091055294 a86.0,86.0 0 0,1 -31.652253787137756,-30.449443065178592" fill="none" id="id32" stroke="none" /><text fill="#e1ed5e" style="font-size:6.75px; font-family:Arial;" text-anchor="middle"><textPath startOffset="22.20632615414155" xlink:href="#id32">August</textPath></text><path d="M 82.85270091963577 112.12312394758628 l -23.911483856555968 16.905396074632357 a50.283979863784424,50.283979863784424 0 0,0 -0.4935949520665737,-0.7110603425030046 l 24.198939715784675 -16.49129446994234" fill="#ff3f05" stroke="none" /><path d="M 82.6465618267979 111.8261652097733 l -46.660259897918614 31.798421544836934 a77.465205803968,77.465205803968 0 0,0 -0.7414412288245825,-1.10835403702578 l 47.20070423215393 -30.99053059360533" fill="#3fffbf" stroke="none" /><path d="M 82.44556493220864 111.52570212397912 l -24.185153402759386 15.879227834246448 a49.93218833283979,49.93218833283979 0 0,0 -0.46554664935768825,-0.7225387382382992 l 24.45490491549412 -15.460567496086702" fill="#ff3705" stroke="none" /><path d="M 82.24976979558568 111.22182372390057 l -23.905255247165037 15.113075006307307 a49.28190701806337,49.28190701806337 0 0,0 -0.44714028150176177,-0.7209325063459524 l 24.161860168334755 -14.69934616859609" fill="#ff2703" stroke="none" /><path d="M 82.05923443525364 110.91462005526583 l -49.33691556611815 30.015089721759203 a78.74977790938703,78.74977790938703 0 0,0 -0.6945697573016852,-1.1641388648154234 l 49.84626619911807 -29.16138876305767" fill="#42ffd6" stroke="none" /><line stroke="#e1ed5e" stroke-width="0.3" x1="26.63291911575756" x2="22.317208475507996" y1="142.92168965132927" y2="145.44649492493687" /><path d="M 25.769776987707644 143.4266507060508 a86.0,86.0 0 0,1 -11.730757126820373,-40.83630448921669" fill="none" id="id33" stroke="none" /><text fill="#e1ed5e" style="font-size:6.75px; font-family:Arial;" text-anchor="middle"><textPath startOffset="21.46611528233685" xlink:href="#id33">September</textPath></text><path d="M 81.87401531095188 110.60418214915194 l -49.830163754916946 29.151968405803455 a78.73112229789753,78.73112229789753 0 0,0 -0.6742683421885683,-1.1756436888534854 l 50.32458409325789 -28.28990487109166" fill="#42ffd6" stroke="none" /><path d="M 81.69416730710424 110.29060199501025 l -50.93093237358015 28.63076283302293 a79.42671009771988,79.42671009771988 0 0,0 -0.659709140985609,-1.197563716362261 l 51.416217924017275 -27.749828598262848" fill="#43ffe2" stroke="none" /><path d="M 81.51974371655577 109.97397251340807 l -49.64316401941674 26.792894309146988 a77.41190405685518,77.41190405685518 0 0,0 -0.6227879535210213,-1.1780801042935385 l 50.09700448116264 -25.934399189767323" fill="#3fffbe" stroke="none" /><path d="M 81.35079622478065 109.6543875284942 l -50.79046233125859 26.293390967657526 a78.19277465205803,78.19277465205803 0 0,0 -0.6084936784162862,-1.2006157553255792 l 51.235534679461146 -25.415221000629263" fill="#41ffcc" stroke="none" /><path d="M 81.18737489456691 109.33194174019688 l -52.08070612757528 25.834465559539925 a79.13621557595499,79.13621557595499 0 0,0 -0.5948282815476214,-1.2255224423053628 l 52.51768766573762 -24.93415416126928" fill="#43ffdd" stroke="none" /><path d="M 81.02952815118164 109.00673069616217 l -24.730067282591765 11.741250185411111 a48.37577731714539,48.37577731714539 0 0,0 -0.35066767798922277,-0.7553069815276225 l 24.928509577420815 -11.313823136604663" fill="#ff1101" stroke="none" /><path d="M 80.87730276802145 108.67885076344099 l -53.12840066870098 24.112365275170298 a79.34409238969499,79.34409238969499 0 0,0 -0.5537421006483242,-1.2485422533167592 l 53.535583854080585 -23.194274685360842" fill="#43ffe0" stroke="none" /><path d="M 80.73074385275274 108.34839909993369 l -24.571786340480617 10.645718620432381 a47.77879774948178,47.77879774948178 0 0,0 -0.3204569896583685,-0.757465662087947 l 24.751394311331293 -10.221178432678276" fill="#ff0200" stroke="none" /><path d="M 80.58989483394504 108.01547362559985 l -50.68764338617278 20.93164695553552 a75.83950251702694,75.83950251702694 0 0,0 -0.4878913583843142,-1.2109063398307756 l 51.04043735881448 -20.056041247861938" fill="#3cffa2" stroke="none" /><path d="M 80.45479744820244 107.68017299344265 l -25.377592196045633 9.97197638173084 a48.26650873556411,48.26650873556411 0 0,0 -0.2971969373123002,-0.7758874219222839 l 25.54548341295144 -9.533665392975399" fill="#ff0e01" stroke="none" /><path d="M 80.32549172779594 107.34259656027581 l -25.36820559823934 9.467504681128927 a48.077287533313594,48.077287533313594 0 0,0 -0.28268469557334325,-0.7778268739720778 l 25.527414554817906 -9.029430010150733" fill="#ff0a01" stroke="none" /><path d="M 80.20201598880116 107.00284435728193 l -53.50455639220938 18.925365360842505 a77.75303523837727,77.75303523837727 0 0,0 -0.43545094600130607,-1.265624279149388 l 53.822398169153914 -18.00156837860382" fill="#40ffc4" stroke="none" /><path d="M 80.0844068197444 106.66101706037122 l -52.88976304708685 17.68963699885717 a76.76961800414568,76.76961800414568 0 0,0 -0.40836958178978733,-1.2568323389575768 l 53.18642487989289 -16.776605759921793" fill="#3effb3" stroke="none" /><path d="M 79.97269907076064 106.31721596034903 l -51.95626958782235 16.38857760414419 a75.47971572401539,75.47971572401539 0 0,0 -0.3801777686880424,-1.2424429450110097 l 52.23067412901652 -15.491807686581131" fill="#3bff9b" stroke="none" /><path d="M 79.86692584326677 105.97154293290107 l -53.20415455378688 15.780545516959153 a76.49511400651467,76.49511400651467 0 0,0 -0.3635607438136703,-1.2656026439041521 l 53.467907934486654 -14.862385397550403" fill="#3dffae" stroke="none" /><path d="M 79.76711848015287 105.62410040840567 l -52.006867757051936 14.456262490610662 a74.97867930115487,74.97867930115487 0 0,0 -0.33494733993307063,-1.2464636553598434 l 52.24800317332678 -13.55890790207528" fill="#3aff92" stroke="none" /><path d="M 79.67330655649465 105.27499134158121 l -26.234926052766532 6.80824001995189 a48.10393840687,48.10393840687 0 0,0 -0.2010943585700273,-0.8032720006967565 l 26.348231725631617 -6.355640179857741" fill="#ff0a01" stroke="none" /><path d="M 79.58551787078972 104.9243191809786 l -55.36237598279469 13.354343658149466 a77.95025170269469,77.95025170269469 0 0,0 -0.3034099742737639,-1.3070822281945937 l 55.584046522999 -12.399392772606298" fill="#40ffc8" stroke="none" /><path d="M 79.50377843672027 104.57218783832718 l -55.34213925889498 12.345429389768897 a77.70239857862006,77.70239857862006 0 0,0 -0.27997269913656836,-1.3079392426552052 l 55.546445996755985 -11.39097632769753" fill="#40ffc3" stroke="none" /><path d="M 79.4281124754447 104.21870165774334 l -53.92516648162225 11.05849859224443 a76.04737933076694,76.04737933076694 0 0,0 -0.25193434652697017,-1.284607805240272 l 54.10753076112489 -10.128627059936203" fill="#3cffa5" stroke="none" /><path d="M 79.35854240842038 103.8639653848113 l -55.30468116334392 10.352726917907196 a77.26532425229493,77.26532425229493 0 0,0 -0.23346474798210845,-1.3093942914242878 l 55.47469235366522 -9.399213875749695" fill="#3fffbc" stroke="none" /><path d="M 79.29508885075956 103.50808413554451 l -55.07791902354948 9.33198759234508 a76.86289606159312,76.86289606159312 0 0,0 -0.20979268366480816,-1.3063792414435367 l 55.230393461575574 -8.382529121208329" fill="#3effb4" stroke="none" /><path d="M 79.23777060512086 103.15116336523772 l -55.08283838148169 8.360134119500987 a76.71365116967723,76.71365116967723 0 0,0 -0.18691079819419643,-1.3072536872373828 l 55.21858323069249 -7.410734960283204" fill="#3effb2" stroke="none" /><path d="M 79.18660465613746 102.79330883721812 l -55.52498627564633 7.451856474533038 a77.02280130293158,77.02280130293158 0 0,0 -0.1650433243910391,-1.3155576829719147 l 55.64503110928421 -6.494981037273715" fill="#3effb7" stroke="none" /><path d="M 79.10278846688536 102.07522291339032 l -26.899667910704576 2.6713041174141825 a48.03198104826769,48.03198104826769 0 0,0 -0.07462203682436187,-0.8234479582028056 l 26.941664543806013 -2.207874770662811" fill="#ff0801" stroke="none" /><path d="M 79.07016306316243 101.71520430193888 l -55.36016685615744 4.536776690343518 a76.54575066627183,76.54575066627183 0 0,0 -0.09631438820117368,-1.314133304867237 l 55.43005780302295 -3.5831702489795205" fill="#3dffaf" stroke="none" /><path d="M 79.04373962182676 101.35467743843564 l -26.959720561809988 1.742759659049295 a48.01599052413385,48.01599052413385 0 0,0 -0.04621801829725942,-0.8252537642061677 l 26.985724930994778 -1.2784341785076898" fill="#ff0801" stroke="none" /><path d="M 79.0235259727143 100.99374915477108 l -29.323050223429753 1.3891637048695078 a50.35593722238673,50.35593722238673 0 0,0 -0.033565510447249466,-0.8661766796505184 l 29.342617866728204 -0.8842097782049925" fill="#ff4106" stroke="none" /><path d="M 79.0095281055655 100.63252640178507 l -27.813551806310414 0.8381329363811465 a48.82617708024874,48.82617708024874 0 0,0 -0.01808414022194764,-0.8402989358493566 l 27.82385800921737 -0.35924418474166103" fill="#ff1c02" stroke="none" /><line stroke="#e1ed5e" stroke-width="0.3" x1="15.007084014347285" x2="10.007500721073583" y1="101.09737516637583" y2="101.16192664675087" /><path d="M 14.007167355692545 101.11028546245083 a86.0,86.0 0 0,1 10.666146001902534,-42.60595125391555" fill="none" id="id34" stroke="none" /><text fill="#e1ed5e" style="font-size:6.75px; font-family:Arial;" text-anchor="middle"><textPath startOffset="22.20632615414155" xlink:href="#id34">October</textPath></text><line stroke="#e1ed5e" stroke-width="0.3" x1="26.266209847984243" x2="21.928928074336255" y1="57.711370442889674" y2="55.22380399835377" /><path d="M 25.398753493254645 57.213857153982495 a86.0,86.0 0 0,1 29.58750427330803,-30.492523968695096" fill="none" id="id35" stroke="none" /><text fill="#e1ed5e" style="font-size:6.75px; font-family:Arial;" text-anchor="middle"><textPath startOffset="21.46611528233685" xlink:href="#id35">November</textPath></text><line stroke="#e1ed5e" stroke-width="0.3" x1="56.762969772571076" x2="54.21961505331055" y1="26.818313649435495" y2="22.513508569990535" /><path d="M 56.25429882871897 25.957352633546506 a86.0,86.0 0 0,1 42.265352541879196,-11.944610805530505" fill="none" id="id36" stroke="none" /><text fill="#e1ed5e" style="font-size:6.75px; font-family:Arial;" text-anchor="middle"><textPath startOffset="22.20632615414155" xlink:href="#id36">December</textPath></text></svg>