<?xml version="1.0" encoding="utf-8" ?>
<svg baseProfile="full" height="200mm" version="1.1" viewBox="0,0,200,200" width="200mm" xmlns="http://www.w3.org/2000/svg" xmlns:ev="http://www.w3.org/2001/xml-events" xmlns:xlink="http://www.w3.org/1999/xlink"><defs /><rect fill="#1a1a1a" height="200" width="200" x="0" y="0" /><text alignment-baseline="middle" fill="#e1ed5e" style="dominant-baseline: central; font-size:9.0px; font-family:Arial;" text-anchor="middle" x="100.0" y="100.0">2025</text><line stroke="#e1ed5e" stroke-width="0.3" x1="100.0" x2="100.0" y1="15.0" y2="10.0" /><path d="M 100.0 14.0 a86.0,86.0 0 0,1 42.46469731375804,11.215312516191453" fill="none" id="id25" stroke="none" /><text fill="#e1ed5e" style="font-size:6.75px; font-family:Arial;" text-anchor="middle"><textPath startOffset="22.20632615414155" xlink:href="#id25">January</textPath></text><path d="M 100.0 79.0 l 0.0 -60.681520375447235 a81.68152037544723,81.68152037544723 0 0,0 1.406013101572641,0.012101998659413865 l -1.0445326223001126 60.67252975339638" fill="#48faff" stroke="none" /><path d="M 100.36148047927253 79.00311137660856 l 1.0670065259879822 -61.97794478885467 a82.98712885088983,82.98712885088983 0 0,0 1.4280637137315773,0.03688267252733989 l -2.133696874914427 61.950395324184974" fill="#4be3ff" stroke="none" /><path d="M 100.72285384407766 79.0124445844662 l 2.144176425091102 -62.25466172861071 a83.29157567027553,83.29157567027553 0 0,0 1.43245314943132,0.0616844458597548 l -3.2154704069117535 62.20852955622676" fill="#4bdeff" stroke="none" /><path d="M 101.08401301168833 79.027996857942 l 3.2122970962042428 -62.14713667495036 a83.23010083174574,83.23010083174574 0 0,0 1.4301228123333165,0.08626891353593993 l -4.281581957377171 62.08263449203412" fill="#4bdfff" stroke="none" /><path d="M 101.44485096284872 79.0497635885617 l 4.281380546992498 -62.07971405575167 a83.22717345848241,83.22717345848241 0 0,0 1.428375706003773,0.11086944553791571 l -5.349346442358612 61.99681934802529" fill="#4bdfff" stroke="none" /><path d="M 101.80526077348638 79.07773832637324 l 5.320154920162931 -61.65850109783144 a82.88759815993681,82.88759815993681 0 0,0 1.4204363739810557,0.13488754921716936 l -6.380716421234231 61.557788004099095" fill="#4ae5ff" stroke="none" /><path d="M 102.16513564639614 79.11191278185805 l 6.4954069391883955 -62.66426165442583 a84.0,84.0 0 0,0 1.436933185961099,0.1614561861175967 l -7.57310682865922 62.54316951483763" fill="#4dd2ff" stroke="none" /><path d="M 102.52436894288641 79.15227682838746 l 7.569587890492471 -62.51410805416441 a83.97072626736676,83.97072626736676 0 0,0 1.4334413620643005,0.18610182883850102 l -8.644543981064617 62.37454790216177" fill="#4dd2ff" stroke="none" /><path d="M 102.88285421437855 79.19881850522331 l 8.498666547885016 -61.32197196945365 a82.90808977278009,82.90808977278009 0 0,0 1.4119287941024705,0.20808160184300328 l -9.552964322416141 61.16659588344967" fill="#4ae4ff" stroke="none" /><path d="M 103.2404852339499 79.25152402106235 l 9.556578078543403 -61.18973437252985 a82.93150875888668,82.93150875888668 0 0,0 1.40853557453014,0.23242043859598716 l -10.608442859212419 61.016167670994236" fill="#4be4ff" stroke="none" /><line stroke="#e1ed5e" stroke-width="0.3" x1="143.23703022742887" x2="145.7803849466894" y1="26.81831364943548" y2="22.513508569990506" /><path d="M 143.74570117128098 25.957352633546492 a86.0,86.0 0 0,1 28.547481713284135,27.462654790039103" fill="none" id="id26" stroke="none" /><text fill="#e1ed5e" style="font-size:6.75px; font-family:Arial;" text-anchor="middle"><textPath startOffset="19.985693538727396" xlink:href="#id26">February</textPath></text><path d="M 116.15771136456269 86.58626213691792 l 22.69932834887731 -18.84442872322027 a50.50206774778124,50.50206774778124 0 0,0 0.5495142206489224,0.6736394592227472 l -23.02034106160264 18.45090509438942" fill="#ff0100" stroke="none" /><path d="M 116.60985879189232 87.15038557335679 l 24.51769825946952 -18.96722742861275 a51.99795548533991,51.99795548533991 0 0,0 0.5415811392285415,0.7126572957971974 l -24.840555338922172 18.542385356934517" fill="#ff2904" stroke="none" /><path d="M 116.82858285166822 87.43820079747576 l 49.167362295634135 -36.7012800732827 a82.35481622601182,82.35481622601182 0 0,0 0.838204917479437,1.1433105654483193 l -49.7918298256272 35.84950706416289" fill="#49eeff" stroke="none" /><path d="M 117.04232023915458 87.72973835380427 l 23.90644513265358 -17.212347420519638 a50.458157148831376,50.458157148831376 0 0,0 0.5014276488054094,0.7092338491632812 l -24.19918540126287 16.798287071024564" fill="#ff0000" stroke="none" /><path d="M 117.2510076193507 88.02491185347247 l 24.211209243755796 -16.806633631230778 a50.472794015148,50.472794015148 0 0,0 0.48928695289646235,0.7179682285366956 l -24.496920662320992 16.387387379423675" fill="#ff0000" stroke="none" /><path d="M 117.45458315368197 88.32363383020206 l 26.355844717348134 -17.63092770102476 a52.709307188327685,52.709307188327685 0 0,0 0.4979858997198537,0.7584666901221127 l -26.655427252425913 17.174642946924973" fill="#ff3c05" stroke="none" /><path d="M 117.65298651832404 88.62581576622439 l 51.721175220779905 -33.32502266049382 a82.52753124854794,82.52753124854794 0 0,0 0.7591448374842387,1.2007848238730086 l -52.2871476545101 32.42979018890661" fill="#4aebff" stroke="none" /><line stroke="#e1ed5e" stroke-width="0.3" x1="172.23445277983987" x2="176.4835382374775" y1="55.19839476539836" y2="52.563006222186495" /><path d="M 173.08426987136738 54.67131705675599 a86.0,86.0 0 0,1 12.851231095245387,41.99856678651699" fill="none" id="id27" stroke="none" /><text fill="#e1ed5e" style="font-size:6.75px; font-family:Arial;" text-anchor="middle"><textPath startOffset="22.20632615414155" xlink:href="#id27">March</textPath></text><path d="M 117.84615892207809 88.93136811851018 l 52.42894836895994 -32.51773852084911 a82.6943915245574,82.6943915245574 0 0,0 0.7398557017999008,1.2161282418006911 l -52.98091986904606 31.610442505841334" fill="#4ae8ff" stroke="none" /><path d="M 118.03404312379186 89.2402003453031 l 53.03371224471629 -31.641940455669225 a82.75586636308722,82.75586636308722 0 0,0 0.7193467993051444,1.2295968597034754 l -53.57051871849176 30.724364183611854" fill="#4ae7ff" stroke="none" /><path d="M 118.21658344932153 89.55222093294921 l 52.024043277670685 -29.837412259653775 a80.97309604572278,80.97309604572278 0 0,0 0.6830364393044619,1.2150456102686182 l -52.52993735826758 28.93748313945036" fill="#46fff7" stroke="none" /><path d="M 118.3937258080291 89.86733742301442 l 54.14016826864938 -29.8245207443498 a82.81148645509037,82.81148645509037 0 0,0 0.6770505483818486,1.254471839993846 l -54.64552691624969 28.888167921023495" fill="#4ae6ff" stroke="none" /><path d="M 118.56541770881063 90.18545643968196 l 54.943146409281596 -29.045503431841286 a83.14813438037265,83.14813438037265 0 0,0 0.6580207421120452,1.2710866299648602 l -55.43497658455376 28.09544407961608" fill="#4be0ff" stroke="none" /><path d="M 118.73160827565052 90.50648371742162 l 54.463624192210204 -27.60314520078344 a82.05915152641607,82.05915152641607 0 0,0 0.6277133827741809,1.2654318760829337 l -54.93069758793779 26.661553736201554" fill="#49f3ff" stroke="none" /><path d="M 118.89224826269711 90.83032412892265 l 26.659480855436485 -12.939635078702095 a50.633799544630826,50.633799544630826 0 0,0 0.3738264635263822,0.78737386982075 l -26.87826551280462 12.478818793240803" fill="#ff0500" stroke="none" /><line stroke="#e1ed5e" stroke-width="0.3" x1="184.98032266829074" x2="189.97916517819016" y1="98.17113171792111" y2="98.06355123074" /><path d="M 185.9800911702706 98.14961562048488 a86.0,86.0 0 0,1 -9.607161424134198,41.387399972396054" fill="none" id="id28" stroke="none" /><text fill="#e1ed5e" style="font-size:6.75px; font-family:Arial;" text-anchor="middle"><textPath startOffset="21.466115282336823" xlink:href="#id28">April</textPath></text><line stroke="#e1ed5e" stroke-width="0.3" x1="174.80103733775053" x2="179.2010983576182" y1="140.37084112569926" y2="142.7455964860345" /><path d="M 175.68104954172406 140.8457921977663 a86.0,86.0 0 0,1 -30.038265399797805,32.042727171017184" fill="none" id="id29" stroke="none" /><text fill="#e1ed5e" style="font-size:6.75px; font-family:Arial;" text-anchor="middle"><textPath startOffset="22.206326154141568" xlink:href="#id29">May</textPath></text><line stroke="#e1ed5e" stroke-width="0.3" x1="143.8653032363475" x2="146.44561519142675" y1="172.8068346515853" y2="177.08958963109032" /><path d="M 144.38136562736335 173.6633856474863 a86.0,86.0 0 0,1 -40.68145358897372,12.25698825130547" fill="none" id="id30" stroke="none" /><text fill="#e1ed5e" style="font-size:6.75px; font-family:Arial;" text-anchor="middle"><textPath startOffset="21.466115282336833" xlink:href="#id30">June</textPath></text><line stroke="#e1ed5e" stroke-width="0.3" x1="102.19456741930631" x2="102.32365962044197" y1="184.97166512339345" y2="189.96999836594603" /><path d="M 102.22038585953345 185.97133177190398 a86.0,86.0 0 0,1 -42.740103519485714,-10.115201625700543" fill="none" id="id31" stroke="none" /><text fill="#e1ed5e" style="font-size:6.75px; font-family:Arial;" text-anchor="middle"><textPath startOffset="22.20632615414155" xlink:href="#id31">July</textPath></text><line stroke="#e1ed5e" stroke-width="0.3" x1="58.666819895761336" x2="56.23545636021788" y1="174.27360380694188" y2="178.64263932499728" /><path d="M 58.180547188652646 175.14741091055294 a86.0,86.0 0 0,1 -31.652253787137756,-30.449443065178592" fill="none" id="id32" stroke="none" /><text fill="#e1ed5e" style="font-size:6.75px; font-family:Arial;" text-anchor="middle"><textPath startOffset="22.20632615414155" xlink:href="#id32">August</textPath></text><line stroke="#e1ed5e" stroke-width="0.3" x1="26.63291911575756" x2="22.317208475507996" y1="142.92168965132927" y2="145.44649492493687" /><path d="M 25.769776987707644 143.4266507060508 a86.0,86.0 0 0,1 -11.730757126820373,-40.83630448921669" fill="none" id="id33" stroke="none" /><text fill="#e1ed5e" style="font-size:6.75px; font-family:Arial;" text-anchor="middle"><textPath startOffset="21.46611528233685" xlink:href="#id33">September</textPath></text><line stroke="#e1ed5e" stroke-width="0.3" x1="15.007084014347285" x2="10.007500721073583" y1="101.09737516637583" y2="101.16192664675087" /><path d="M 14.007167355692545 101.11028546245083 a86.0,86.0 0 0,1 10.666146001902534,-42.60595125391555" fill="none" id="id34" stroke="none" /><text fill="#e1ed5e" style="font-size:6.75px; font-family:Arial;" text-anchor="middle"><textPath startOffset="22.20632615414155" xlink:href="#id34">October</textPath></text><line stroke="#e1ed5e" stroke-width="0.3" x1="26.266209847984243" x2="21.928928074336255" y1="57.711370442889674" y2="55.22380399835377" /><path d="M 25.398753493254645 57.213857153982495 a86.0,86.0 0 0,1 29.58750427330803,-30.492523968695096" fill="none" id="id35" stroke="none" /><text fill="#e1ed5e" style="font-size:6.75px; font-family:Arial;" text-anchor="middle"><textPath startOffset="21.46611528233685" xlink:href="#id35">November</textPath></text><line stroke="#e1ed5e" stroke-width="0.3" x1="56.762969772571076" x2="54.21961505331055" y1="26.818313649435495" y2="22.513508569990535" /><path d="M 56.25429882871897 25.957352633546506 a86.0,86.0 0 0,1 42.265352541879196,-11.944610805530505" fill="none" id="id36" stroke="none" /><text fill="#e1ed5e" style="font-size:6.75px; font-family:Arial;" text-anchor="middle"><textPath startOffset="22.20632615414155" xlink:href="#id36">December</textPath></text></svg>