<?xml version="1.0" encoding="utf-8" ?>
<svg baseProfile="full" height="200mm" version="1.1" viewBox="0,0,200,200" width="200mm" xmlns="http://www.w3.org/2000/svg" xmlns:ev="http://www.w3.org/2001/xml-events" xmlns:xlink="http://www.w3.org/1999/xlink"><defs /><rect fill="#1a1a1a" height="200" width="200" x="0" y="0" /><text alignment-baseline="middle" fill="#e1ed5e" style="dominant-baseline: central; font-size:9.0px; font-family:Arial;" text-anchor="middle" x="100.0" y="100.0">2025</text><line stroke="#e1ed5e" stroke-width="0.3" x1="100.0" x2="100.0" y1="15.0" y2="10.0" /><path d="M 100.0 14.0 a86.0,86.0 0 0,1 42.46469731375804,11.215312516191453" fill="none" id="id25" stroke="none" /><text fill="#e1ed5e" style="font-size:6.75px; font-family:Arial;" text-anchor="middle"><textPath startOffset="22.20632615414155" xlink:href="#id25">January</textPath></text><path d="M 100.0 79.0 l 0.0 -35.24769230769231 a56.24769230769231,56.24769230769231 0 0,0 0.9682115606361107,0.008333702577693832 l -0.6067310813635823 35.242469981723175" fill="#beff1f" stroke="none" /><path d="M 100.36148047927253 79.00311137660856 l 0.6197853561616022 -36.00073818626022 a57.006072874493924,57.006072874493924 0 0,0 0.9809750651896402,0.025335691775497406 l -1.2393870565461103 35.98473570234236" fill="#b3ff20" stroke="none" /><path d="M 100.72285384407766 79.0124445844662 l 1.2454742468120272 -36.16147301110475 a57.18291497975708,57.18291497975708 0 0,0 0.9834349512209853,0.0423487777099477 l -1.8677500304223442 36.13467650687061" fill="#b0ff20" stroke="none" /><path d="M 101.08401301168833 79.027996857942 l 1.86590676943081 -36.099015610839594 a57.1472064777328,57.1472064777328 0 0,0 0.9819467095221316,0.0592337070985215 l -2.4870155277925536 36.06154863436077" fill="#b0ff20" stroke="none" /><path d="M 101.44485096284872 79.0497635885617 l 2.486898535811755 -36.059852258942826 a57.14550607287449,57.14550607287449 0 0,0 0.9807524296437085,0.07612526426172249 l -3.107241154817805 36.01170173249264" fill="#b0ff20" stroke="none" /><path d="M 101.80526077348638 79.07773832637324 l 3.090284859293561 -35.81518494268368 a56.94825910931174,56.94825910931174 0 0,0 0.9759165480664479,0.09267503551758433 l -3.7063265344502527 35.756684362650915" fill="#b3ff20" stroke="none" /><path d="M 102.16513564639614 79.11191278185805 l 3.7729460928009027 -36.39939473859374 a57.594412955465586,57.594412955465586 0 0,0 0.9852300393054328,0.11070207449370685 l -4.398942835616061 36.32905671062944" fill="#aaff21" stroke="none" /><path d="M 102.52436894288641 79.15227682838746 l 4.396898812180525 -36.31217596312206 a57.57740890688259,57.57740890688259 0 0,0 0.982888241133265,0.12760710278049936 l -5.021301781821636 36.23111053717742" fill="#aaff21" stroke="none" /><path d="M 102.88285421437855 79.19881850522331 l 4.936566876573102 -35.61970738878845 a56.96016194331985,56.96016194331985 0 0,0 0.9700343233684932,0.14295784369035322 l -5.548970180370251 35.529455060937124" fill="#b3ff20" stroke="none" /><path d="M 103.2404852339499 79.25152402106235 l 5.551069280116939 -35.54289536926356 a56.97376518218624,56.97376518218624 0 0,0 0.9676608598470323,0.1596723331129503 l -6.162059346102846 35.442076773210985" fill="#b3ff20" stroke="none" /><line stroke="#e1ed5e" stroke-width="0.3" x1="143.23703022742887" x2="145.7803849466894" y1="26.81831364943548" y2="22.513508569990506" /><path d="M 143.74570117128098 25.957352633546492 a86.0,86.0 0 0,1 28.547481713284135,27.462654790039103" fill="none" id="id26" stroke="none" /><text fill="#e1ed5e" style="font-size:6.75px; font-family:Arial;" text-anchor="middle"><textPath startOffset="19.985693538727396" xlink:href="#id26">February</textPath></text><path d="M 116.15771136456269 86.58626213691792 l 13.185215800167029 -10.946044549323165 a38.13668016194332,38.13668016194332 0 0,0 0.41496613924779774,0.5086994205691914 l -13.371680431491235 10.717460959145873" fill="#ff0200" stroke="none" /><path d="M 116.60985879189232 87.15038557335679 l 14.241440870230592 -11.01737385941093 a39.005587044534415,39.005587044534415 0 0,0 0.4062600167772519,0.5345905608149775 l -14.428976827231958 10.770598522714918" fill="#ff1302" stroke="none" /><path d="M 116.82858285166822 87.43820079747576 l 28.559535869482914 -21.31844125390329 a56.63878542510122,56.63878542510122 0 0,0 0.5764679060553538,0.7863015760118395 l -28.922266388051895 20.823677234219957" fill="#b8ff1f" stroke="none" /><path d="M 117.04232023915458 87.72973835380427 l 13.886386118754052 -9.998027768879975 a38.111174089068825,38.111174089068825 0 0,0 0.3787295750879006,0.5356861253492728 l -14.056428313645835 9.75751514319891" fill="#ff0200" stroke="none" /><path d="M 117.2510076193507 88.02491185347247 l 14.063412527256911 -9.762363357023418 a38.11967611336033,38.11967611336033 0 0,0 0.36953492539581667,0.5422469048035651 l -14.229371918321462 9.518838428949445" fill="#ff0200" stroke="none" /><path d="M 117.45458315368197 88.32363383020206 l 15.309153418678793 -10.241165858400914 a39.41878542510122,39.41878542510122 0 0,0 0.372419983735432,0.5672211854955111 l -15.483170037772151 9.976126608927729" fill="#ff1b02" stroke="none" /><path d="M 117.65298651832404 88.62581576622439 l 30.04295308843196 -19.357295888704115 a56.7391093117409,56.7391093117409 0 0,0 0.5219252444101176,0.8255603960382485 l -30.371705929088037 18.83728784495166" fill="#b7ff1f" stroke="none" /><line stroke="#e1ed5e" stroke-width="0.3" x1="172.23445277983987" x2="176.4835382374775" y1="55.19839476539836" y2="52.563006222186495" /><path d="M 173.08426987136738 54.67131705675599 a86.0,86.0 0 0,1 12.851231095245387,41.99856678651699" fill="none" id="id27" stroke="none" /><text fill="#e1ed5e" style="font-size:6.75px; font-family:Arial;" text-anchor="middle"><textPath startOffset="22.20632615414155" xlink:href="#id27">March</textPath></text><path d="M 117.84615892207809 88.93136811851018 l 30.454072816420698 -18.888373838250843 a56.836032388663966,56.836032388663966 0 0,0 0.5085044082820215,0.8358475449840731 l -30.77469302298894 18.361358520059685" fill="#b5ff1f" stroke="none" /><path d="M 118.03404312379186 89.2402003453031 l 30.805358197531422 -18.379654535666862 a56.87174089068826,56.87174089068826 0 0,0 0.4943517188393063,0.8450073339604548 l -31.11716959084106 17.846667789352512" fill="#b5ff20" stroke="none" /><path d="M 118.21658344932153 89.55222093294921 l 30.218878147874513 -17.331469615114948 a55.836194331983805,55.836194331983805 0 0,0 0.4709978650105569,0.83785264649969 l -30.512733654177502 16.808733458680464" fill="#c4ff1e" stroke="none" /><path d="M 118.3937258080291 89.86733742301442 l 31.448058334942058 -17.32398140186645 a56.90404858299595,56.90404858299595 0 0,0 0.46523639349425705,0.862012379982127 l -31.74160282765478 16.780088038551867" fill="#b4ff20" stroke="none" /><path d="M 118.56541770881063 90.18545643968196 l 31.914479186886624 -16.87147852514592 a57.099595141700405,57.099595141700405 0 0,0 0.4518768610917646,0.8728822661131677 l -32.200165481138505 16.319623536772408" fill="#b1ff20" stroke="none" /><path d="M 118.73160827565052 90.50648371742162 l 31.635942138746447 -16.03366498963726 a56.46704453441296,56.46704453441296 0 0,0 0.431945966788925,0.8707767113463056 l -31.90724811848878 15.486728689792002" fill="#bbff1f" stroke="none" /><path d="M 118.89224826269711 90.83032412892265 l 32.6048080543422 -15.825301337339468 a57.242429149797566,57.242429149797566 0 0,0 0.4226176002033295,0.890140446953591 l -32.87238384838729 15.261718474745336" fill="#afff20" stroke="none" /><path d="M 119.04729006885535 91.15688171328212 l 32.45442307035816 -15.067671101814122 a56.78161943319839,56.78161943319839 0 0,0 0.4039543991613729,0.8900599723673683 l -32.70897978648288 14.506789120604692" fill="#b6ff1f" stroke="none" /><path d="M 119.196687751892 91.48605970444005 l 15.568746924935253 -6.904908987880843 a38.031255060728746,38.031255060728746 0 0,0 0.26025926993187065,0.6007142779089913 l -15.685296904709803 6.6358955653852485" fill="#ff0000" stroke="none" /><path d="M 119.34039704204932 91.81776055985345 l 33.503518568226994 -14.174156322469251 a57.37846153846154,57.37846153846154 0 0,0 0.3769992062924822,0.9129334813460519 l -33.74253946140567 13.595348270669897" fill="#adff20" stroke="none" /><path d="M 119.47837535516314 92.15188598940014 l 32.597494885871384 -13.133993552313987 a56.14396761133604,56.14396761133604 0 0,0 0.3534568882595964,0.8995092272348981 l -32.81874532401268 12.570935320183304" fill="#c0ff1e" stroke="none" /><path d="M 119.61058180528143 92.48833698450437 l 34.460635331029756 -13.199847025286333 a57.902186234817805,57.902186234817805 0 0,0 0.3485033645621584,0.9338157520548293 l -34.68274328409354 12.604708136202172" fill="#a5ff21" stroke="none" /><path d="M 119.7369772167798 92.82701384747503 l 33.48094515720947 -12.16794007250187 a56.62348178137652,56.62348178137652 0 0,0 0.32503744202699125,0.9189246186229745 l -33.68543568004627 11.58981782745228" fill="#b8ff1f" stroke="none" /><path d="M 119.85752413597 93.16781622104841 l 33.296324680782725 -11.455940218180517 a56.21198380566802,56.21198380566802 0 0,0 0.30692467550549196,0.9176657136513477 l -33.488586650059986 10.881101401606855" fill="#bfff1e" stroke="none" /><path d="M 119.97218684219823 93.5106431181261 l 17.698430186317204 -5.750568559937486 a39.60923076923078,39.60923076923078 0 0,0 0.2051088875387373,0.650251224555708 l -17.794794557624147 5.445067168955359" fill="#ff1f03" stroke="none" /><path d="M 120.08093135843002 93.85539295169968 l 34.46928452367271 -10.54732994468975 a57.04688259109312,57.04688259109312 0 0,0 0.2792420532631174,0.9414653849425644 l -34.645732474047534 9.952435173000655" fill="#b2ff20" stroke="none" /><path d="M 120.18372546131832 94.20196356495316 l 34.825506546982346 -10.004077602786495 a57.23392712550607,57.23392712550607 0 0,0 0.26385720562807974,0.9492347561312954 l -34.99255052317679 9.403131543236249" fill="#afff20" stroke="none" /><path d="M 120.28053869075195 94.5502522615342 l 35.10257449826022 -9.432696976311327 a57.347854251012144,57.347854251012144 0 0,0 0.24797121549329323,0.9555342471206049 l -35.25974204562382 8.827066303641871" fill="#adff20" stroke="none" /><path d="M 120.37134235888165 94.90015583598534 l 35.79747950384206 -8.961685671857964 a57.902186234817805,57.902186234817805 0 0,0 0.23372410409057298,0.9689373029582106 l -35.946436408193456 8.344163137240347" fill="#a5ff21" stroke="none" /><path d="M 120.45610955862082 95.25157060432595 l 35.34186312974029 -8.203824940526095 a57.28153846153845,57.28153846153845 0 0,0 0.21468469514674976,0.962389392904483 l -35.477842211889076 7.594257378071648" fill="#aeff20" stroke="none" /><path d="M 120.53481517161879 95.60439243477599 l 35.512759711371196 -7.601731690530736 a57.31724696356276,57.31724696356276 0 0,0 0.1982104205099016,0.9665444034043494 l -35.63834942779609 6.989311630962975" fill="#aeff20" stroke="none" /><path d="M 120.6074358757038 95.95851677861258 l 35.71176863253543 -7.003710437581681 a57.39206477732793,57.39206477732793 0 0,0 0.18178055438011573,0.9710789902415854 l -35.82703491082541 6.387953369877533" fill="#adff20" stroke="none" /><path d="M 120.67395015179393 96.31383870115 l 35.38677184281555 -6.309454550314978 a56.94485829959514,56.94485829959514 0 0,0 0.16375209470034421,0.9664741323960246 l -35.49013579903612 5.699394629603116" fill="#b3ff20" stroke="none" /><path d="M 120.73433829027371 96.67025291283417 l 35.58751163877991 -5.715032308231101 a57.043481781376514,57.043481781376514 0 0,0 0.14734631925439728,0.9708281438528599 l -35.6806138514736 5.101605051986159" fill="#b2ff20" stroke="none" /><path d="M 120.78858239683441 97.02765380044208 l 35.71932943002642 -5.1071405955157 a57.08259109311741,57.08259109311741 0 0,0 0.13070282685250517,0.9738878750517584 l -35.80194825593676 4.491534378399278" fill="#b1ff20" stroke="none" /><path d="M 120.83666639777658 97.38593545837742 l 35.87787133188007 -4.501059309927458 a57.15910931174089,57.15910931174089 0 0,0 0.11407229018496831,0.9773017195311803 l -35.950033975068635 3.882813852071424" fill="#b0ff20" stroke="none" /><path d="M 120.87857604477298 97.74499172005257 l 36.26109939954136 -3.9164107365661867 a57.47198380566801,57.47198380566801 0 0,0 0.09776497401346987,0.9844799463741539 l -36.32314149923705 3.291655259487598" fill="#abff21" stroke="none" /><path d="M 120.91429891909075 98.10471618934814 l 36.01662424382368 -3.2638782255015273 a57.1642105263158,57.1642105263158 0 0,0 0.08037156299240694,0.9807366422112738 l -36.067470290635576 2.6434276660824847" fill="#b0ff20" stroke="none" /><path d="M 120.94382443527127 98.46500227214037 l 36.418512530157926 -2.6691559680798074 a57.516194331983804,57.516194331983804 0 0,0 0.06386874569033565,0.988021226853529 l -36.45906186685268 2.0418756769732433" fill="#abff21" stroke="none" /><path d="M 120.96714384426684 98.82574320788733 l 36.032928012204025 -2.018010215044476 a57.08939271255061,57.08939271255061 0 0,0 0.04650445321203153,0.9816355065780896 l -36.06232607364955 1.3974636018433866" fill="#b1ff20" stroke="none" /><path d="M 120.98425023603335 99.18683210126433 l 35.80235924886307 -1.387389537996702 a56.829230769230776,56.829230769230776 0 0,0 0.029465429926954365,0.9778141702760411 l -35.820936373245665 0.7709052202956618" fill="#b5ff1f" stroke="none" /><line stroke="#e1ed5e" stroke-width="0.3" x1="184.98032266829074" x2="189.97916517819016" y1="98.17113171792111" y2="98.06355123074" /><path d="M 185.9800911702706 98.14961562048488 a86.0,86.0 0 0,1 -9.607161424134198,41.387399972396054" fill="none" id="id28" stroke="none" /><text fill="#e1ed5e" style="font-size:6.75px; font-family:Arial;" text-anchor="middle"><textPath startOffset="21.466115282336823" xlink:href="#id28">April</textPath></text><path d="M 120.99513854157772 99.54816195383933 l 36.72534234119055 -0.790369013053352 a57.73384615384616,57.73384615384616 0 0,0 0.012830640431757401,0.9937472413014664 l -36.73350598874002 0.1580855136914229" fill="#a7ff21" stroke="none" /><path d="M 120.99980553446 99.90962569577887 l 36.19108186197947 -0.1557511490722698 a57.19141700404858,57.19141700404858 0 0,0 -0.004236802021445801,0.9844835797649609 l -36.18840076266852 -0.4672419088963759" fill="#b0ff20" stroke="none" /><path d="M 120.99824983174949 100.27111621757518 l 37.35648154278285 0.4823234345218134 a58.35959514170041,58.35959514170041 0 0,0 -0.021615108225737582,1.0043691443131555 l -37.342644371872105 -1.1252823946250836" fill="#9eff22" stroke="none" /><path d="M 120.9904718944345 100.63252640178507 l 36.24128195992121 1.092093964798628 a57.25773279352227,57.25773279352227 0 0,0 -0.03816600651833481,0.9848950414005968 l -36.217113820551674 -1.7157662532132312" fill="#afff20" stroke="none" /><path d="M 120.9764740272857 100.99374915477107 l 36.58059280369653 1.7329858741946889 a57.621619433198376,57.621619433198376 0 0,0 -0.05546396173880928,0.9903462954284622 l -36.545342491070194 -2.3624038859585745" fill="#a9ff21" stroke="none" /><path d="M 120.95626037817324 101.35467743843564 l 18.553502103234507 1.1993557175591334 a39.59222672064777,39.59222672064777 0 0,0 -0.04981728000482279,0.6797172056525669 l -18.530108264565346 -1.5185460597084706" fill="#ff1e03" stroke="none" /><path d="M 120.92983693683757 101.71520430193887 l 36.34843260091436 2.978761284857077 a57.47028340080972,57.47028340080972 0 0,0 -0.08928529514391965,0.9852557918895072 l -36.291772709493365 -3.6039984652951547" fill="#abff21" stroke="none" /><path d="M 120.89721153311464 102.0752229133903 l 35.56586957202727 3.531911774619491 a56.74080971659919,56.74080971659919 0 0,0 -0.10488322115072062,0.9710883672086149 l -35.4998040493755 -4.143596463712897" fill="#b7ff1f" stroke="none" /><path d="M 120.8583938346157 102.4346265915055 l 36.325695108899964 4.239995848591132 a57.572307692307696,57.572307692307696 0 0,0 -0.12336509311094869,0.9833411720920958 l -36.24732850654217 -4.8646547749706235" fill="#aaff21" stroke="none" /><path d="M 120.81339534386255 102.79330883721812 l 35.724887003983675 4.7945393304736506 a57.045182186234825,57.045182186234825 0 0,0 -0.13898908959474157,0.9720893689069822 l -35.63706386337233 -5.408774171361042" fill="#b2ff20" stroke="none" /><path d="M 120.76222939487914 103.15116336523771 l 35.66564345039362 5.41311180514315 a57.07408906882591,57.07408906882591 0 0,0 -0.15578031699298414,0.970044182619237 l -35.56718137903935 -6.026235217455592" fill="#b1ff20" stroke="none" /><path d="M 120.70491114924044 103.5080841355445 l 36.64517796761923 6.208882836820379 a58.167449392712555,58.167449392712555 0 0,0 -0.17575864781060993,0.9857478360257546 l -36.53287287746944 -6.838749423579352" fill="#a1ff22" stroke="none" /><path d="M 120.64145759157962 103.86396538481128 l 35.26764345262524 6.601905553433428 a56.88024291497975,56.88024291497975 0 0,0 -0.18843630056931654,0.9608326369109452 l -35.14877721908026 -7.208001917412318" fill="#b4ff20" stroke="none" /><path d="M 120.5718875245553 104.21870165774334 l 36.304800696168634 7.44506903890818 a58.06032388663968,58.06032388663968 0 0,0 -0.20919953423108428,0.9773105778165918 l -36.171267123213106 -8.068893436140941" fill="#a3ff22" stroke="none" /><path d="M 120.49622156327973 104.57218783832717 l 36.44178405558676 8.129238911254085 a58.33748987854251,58.33748987854251 0 0,0 -0.22707016227162702,0.9782123160878895 l -36.296453327384576 -8.75531988469054" fill="#9eff22" stroke="none" /><path d="M 120.41448212921028 104.9243191809786 l 35.197211981965566 8.490164236484 a57.20672064777329,57.20672064777329 0 0,0 -0.23914775329322008,0.9552763966925838 l -35.045852914377285 -9.09476847257398" fill="#afff20" stroke="none" /><path d="M 120.32669344350535 105.2749913415812 l 35.72066621897948 9.269889642618375 a57.90388663967612,57.90388663967612 0 0,0 -0.25867023775979436,0.9626081823945795 l -35.55580790487791 -9.883388758188502" fill="#a5ff21" stroke="none" /><path d="M 120.23288151984713 105.62410040840565 l 35.136405664466494 9.766808215309807 a57.46858299595141,57.46858299595141 0 0,0 -0.27313274908182167,0.9508109312041815 l -34.96308027849857 -10.37017662201857" fill="#abff21" stroke="none" /><path d="M 120.13307415673323 105.97154293290107 l 34.81962193632915 10.327626356585757 a57.31894736842106,57.31894736842106 0 0,0 -0.2887052409385242,0.9435054317605431 l -34.63668992288449 -10.925458760898357" fill="#aeff20" stroke="none" /><path d="M 120.02730092923936 106.31721596034902 l 34.346415682695515 10.833897493132973 a57.014574898785426,57.014574898785426 0 0,0 -0.30328427720042417,0.9334130270238482 l -34.15483915447884 -11.423509420134618" fill="#b2ff20" stroke="none" /><path d="M 119.9155931802556 106.66101706037122 l 34.372539970619286 11.496322157231793 a57.24412955465587,57.24412955465587 0 0,0 -0.32059211953814865,0.9317907652225671 l -34.16955702013791 -12.08628562554366" fill="#afff20" stroke="none" /><path d="M 119.79798401119884 107.00284435728193 l 34.212840062105705 12.101595487701278 a57.290040485829955,57.290040485829955 0 0,0 -0.3368538136203968,0.9268770221270793 l -33.99946198748008 -12.688720306834488" fill="#aeff20" stroke="none" /><path d="M 119.67450827220406 107.3425965602758 l 33.2873563034578 12.422959929308718 a56.52995951417004,56.52995951417004 0 0,0 -0.34807843521569776,0.908722957136205 l -33.06858358864859 -12.994106453278066" fill="#baff1f" stroke="none" /><path d="M 119.54520255179757 107.68017299344265 l 33.875713410625664 13.311263394707682 a57.39716599190283,57.39716599190283 0 0,0 -0.3692479559305034,0.9164431448150469 l -33.641562840437764 -13.892405907365543" fill="#adff20" stroke="none" /><path d="M 119.41010516605496 108.01547362559984 l 17.322929485041115 7.153566826021165 a39.74186234817814,39.74186234817814 0 0,0 -0.2665524913014863,0.6300513511036783 l -17.197226012547322 -7.450692702791006" fill="#ff2103" stroke="none" /><path d="M 119.26925614724726 108.34839909993367 l 33.643965206728176 14.576237230110914 a57.66582995951418,57.66582995951418 0 0,0 -0.40244959461606017,0.907417592269108 l -33.388074527380844 -15.15320315887271" fill="#a9ff21" stroke="none" /><path d="M 119.12269723197855 108.67885076344098 l 33.652850335208235 15.273371861751123 a57.956599190283406,57.956599190283406 0 0,0 -0.4201174056381529,0.9048955163456145 l -33.38495831273025 -15.850387445375567" fill="#a4ff21" stroke="none" /><path d="M 118.97047184881838 109.00673069616215 l 17.117970711192875 8.127207034658385 a39.94931174089069,39.94931174089069 0 0,0 -0.3002794647039597,0.618664637129702 l -16.9755379898742 -8.420660627753362" fill="#ff2503" stroke="none" /><path d="M 118.81262510543309 109.33194174019688 l 33.227513475693286 16.482400419345307 a58.09093117408908,58.09093117408908 0 0,0 -0.4520617736106633,0.8919607664454134 l -32.93887303229635 -17.051915397493413" fill="#a2ff22" stroke="none" /><path d="M 118.64920377521936 109.65438752849418 l 32.61874095129662 16.886188259352455 a57.73044534412955,57.73044534412955 0 0,0 -0.46444828285478984,0.8785611192559233 l -32.32324016021694 -17.44516439369451" fill="#a8ff21" stroke="none" /><line stroke="#e1ed5e" stroke-width="0.3" x1="174.80103733775053" x2="179.2010983576182" y1="140.37084112569926" y2="142.7455964860345" /><path d="M 175.68104954172406 140.8457921977663 a86.0,86.0 0 0,1 -30.038265399797805,32.042727171017184" fill="none" id="id29" stroke="none" /><text fill="#e1ed5e" style="font-size:6.75px; font-family:Arial;" text-anchor="middle"><textPath startOffset="22.206326154141568" xlink:href="#id29">May</textPath></text><path d="M 118.48025628344425 109.97397251340804 l 16.641208917261817 8.981420916729626 a39.91020242914979,39.91020242914979 0 0,0 -0.33148956224806625,0.6017498431323981 l -16.48414294556224 -9.26654127825983" fill="#ff2503" stroke="none" /><path d="M 118.30583269289576 110.29060199501025 l 31.610541539165585 17.76982818992619 a57.262834008097165,57.262834008097165 0 0,0 -0.4904098281435195,0.8550708721356584 l -31.299979714869686 -18.311318907920164" fill="#afff20" stroke="none" /><path d="M 118.12598468904814 110.60418214915192 l 31.398315016421613 18.368847669377107 a57.376761133603246,57.376761133603246 0 0,0 -0.5060606405922851,0.8481867421863312 l -31.077473500131102 -18.906596505449542" fill="#adff20" stroke="none" /><path d="M 117.94076556474637 110.91462005526583 l 31.346221810210295 19.07009486255271 a57.69133603238867,57.69133603238867 0 0,0 -0.5234399761413243,0.8439519084565993 l -31.013317194401008 -19.606843102374587" fill="#a8ff21" stroke="none" /><path d="M 117.75023020441432 111.22182372390056 l 15.019425557581359 9.49538930483893 a38.769230769230774,38.769230769230774 0 0,0 -0.36146794453467634,0.5610062770680869 l -14.853752749669633 -9.75251718182847" fill="#ff0e01" stroke="none" /><path d="M 117.35343817320211 111.8261652097733 l 30.18374132781816 20.569866791185426 a57.5263967611336,57.5263967611336 0 0,0 -0.5646875829795764,0.8134745796721409 l -29.825192837676447 -21.08638263304459" fill="#abff21" stroke="none" /><path d="M 117.14729908036423 112.12312394758627 l 30.225065075340005 21.369091920243363 a58.016113360323885,58.016113360323885 0 0,0 -0.5835321671203892,0.8104751429646037 l -29.852753115844013 -21.886200668659097" fill="#a3ff21" stroke="none" /><path d="M 116.93607887273984 112.41649034213515 l 15.2740118610993 11.197965136089167 a39.93910931174089,39.93910931174089 0 0,0 -0.41125630509033834,0.5509450272133773 l -15.07899428931387 -11.459223042811859" fill="#ff2503" stroke="none" /><path d="M 116.71984013943494 112.70617746262583 l 13.893036397642208 10.557958957203741 a38.44955465587044,38.44955465587044 0 0,0 -0.4049894938514199,0.5235035139361239 l -13.709240086572718 -10.795540465253119" fill="#ff0801" stroke="none" /><path d="M 116.498646956653 112.99209946851258 l 28.39904753073114 22.36324295559841 a57.1472064777328,57.1472064777328 0 0,0 -0.6152361790818194,0.7676017302916733 l -28.009893439594467 -22.84877251946833" fill="#b0ff20" stroke="none" /><path d="M 116.27256486870786 113.27417163493432 l 28.954624533591506 23.619426856492446 a58.3663967611336,58.3663967611336 0 0,0 -0.6417635468545849,0.7730455343781237 l -28.543764986843378 -24.114333647984342" fill="#9eff22" stroke="none" /><path d="M 116.0416608686014 113.55231037782055 l 28.35022592049345 23.95082804099687 a58.11303643724696,58.11303643724696 0 0,0 -0.6521320156201672,0.7585768630814267 l -27.933751395302505 -24.435282003239827" fill="#a2ff22" stroke="none" /><path d="M 115.80600337817218 113.82643327865902 l 26.667991286718507 23.328047791693766 a56.43133603238866,56.43133603238866 0 0,0 -0.6458462960907365,0.7256151602275193 l -26.262486140979433 -23.783637121662153" fill="#bbff1f" stroke="none" /><path d="M 115.56566222782051 114.09645910891815 l 27.725784428145406 25.108818419269774 a58.4055060728745,58.4055060728745 0 0,0 -0.6812685002561087,0.7393824048650812 l -27.289469519893576 -25.58235207893619" fill="#9dff22" stroke="none" /><path d="M 115.32070863581623 114.36230785411682 l 25.31576527377344 23.73211468655563 a55.70016194331984,55.70016194331984 0 0,0 -0.6617535948566203,0.693845998551159 l -24.903505127537855 -24.164367801689295" fill="#c7ff1e" stroke="none" /><path d="M 115.07121518719521 114.62390073753431 l 12.293718364032749 11.928840164366047 a38.12987854251012,38.12987854251012 0 0,0 -0.46111619625543887,0.46710827230587654 l -12.086561542721775 -12.138688930652588" fill="#ff0200" stroke="none" /><path d="M 114.55890576462653 115.13401014063108 l 24.5072948939936 25.47537949907526 a56.34971659919028,56.34971659919028 0 0,0 -0.704811966325751,0.6664437063058225 l -24.06514709327704 -25.893457842127006" fill="#bdff1f" stroke="none" /><path d="M 114.29624159901734 115.38237550388516 l 25.12202714023273 27.03063264658426 a57.902186234817805,57.902186234817805 0 0,0 -0.73591045680602,0.6722367540237794 l -24.653017133959846 -27.459062167194624" fill="#a5ff21" stroke="none" /><path d="M 114.0293411484842 115.62618273729858 l 24.522379544318092 27.313555202434355 a57.706639676113355,57.706639676113355 0 0,0 -0.7448488558226017,0.6572425131719704 l -24.048588335588903 -27.731620857378612" fill="#a8ff21" stroke="none" /><path d="M 113.75828350139079 115.86535959552629 l 23.465950095003688 27.05975178300936 a56.817327935222664,56.817327935222664 0 0,0 -0.7444004020772909,0.6343941720721015 l -22.99668421634935 -27.45967034530441" fill="#b5ff1f" stroke="none" /><path d="M 113.48314897796784 116.09983520530334 l 11.027796585137907 13.167970478442838 a38.17578947368421,38.17578947368421 0 0,0 -0.5074287242140194,0.4175792944564768 l -10.799497732379196 -13.355844891756492" fill="#ff0300" stroke="none" /><path d="M 113.20401910651253 116.32954008644616 l 11.790601028876125 14.581552070714835 a39.75206477732793,39.75206477732793 0 0,0 -0.5357868611541511,0.4256614865091631 l -11.537856675004623 -14.782347471229125" fill="#ff2203" stroke="none" /><path d="M 112.92097659922987 116.55440617244103 l 11.670728256227473 14.952583065067182 a39.96801619433198,39.96801619433198 0 0,0 -0.5459845535838405,0.418637673712359 l -11.411614974150138 -15.151260080606914" fill="#ff2603" stroke="none" /><path d="M 112.63410532772338 116.77436683061366 l 21.764420311523466 28.896733143425564 a57.17611336032389,57.17611336032389 0 0,0 -0.7912494226458118,0.5853474067712766 l -21.26378591845909 -29.267090498936607" fill="#b0ff20" stroke="none" /><path d="M 112.34349029814194 116.9893568818739 l 21.393717395281634 29.445925834535277 a57.39716599190283,57.39716599190283 0 0,0 -0.804305590968494,0.5738506835180873 l -20.883684476464254 -29.809820779897585" fill="#adff20" stroke="none" /><path d="M 112.04921762599082 117.19931262002967 l 20.955882217705014 29.91287738992854 a57.52299595141701,57.52299595141701 0 0,0 -0.8158489676188245,0.561148359236294 l -20.437876365463307 -30.269166538529927" fill="#abff21" stroke="none" /><path d="M 111.7513745106137 117.40417183066458 l 9.767438004165966 14.465896667349952 a38.45465587044534,38.45465587044534 0 0,0 -0.5517790840482357,0.36568908931334687 l -9.516984221377767 -14.631883777754618" fill="#ff0801" stroke="none" /><path d="M 111.45004920935366 117.60387380957326 l 10.467291949279588 16.092934033205026 a40.197570850202425,40.197570850202425 0 0,0 -0.5832824453125962,0.3722784536522395 l -10.188727701920062 -16.270726915681074" fill="#ff2a04" stroke="none" /><path d="M 111.1453310114006 117.79835938074945 l 19.435291389597033 31.036879969540102 a57.619919028340085,57.619919028340085 0 0,0 -0.8451492170926144,0.5191596771703303 l -18.89816297257211 -31.366828113538812" fill="#a9ff21" stroke="none" /><line stroke="#e1ed5e" stroke-width="0.3" x1="143.8653032363475" x2="146.44561519142675" y1="172.8068346515853" y2="177.08958963109032" /><path d="M 144.38136562736335 173.6633856474863 a86.0,86.0 0 0,1 -40.68145358897372,12.25698825130547" fill="none" id="id30" stroke="none" /><text fill="#e1ed5e" style="font-size:6.75px; font-family:Arial;" text-anchor="middle"><textPath startOffset="21.466115282336833" xlink:href="#id30">June</textPath></text><path d="M 110.8373102113329 117.98757091392108 l 18.618235688570874 30.902209885073955 a57.0774898785425,57.0774898785425 0 0,0 -0.8459213662502264,0.49978525375025984 l -18.083546451292264 -31.218113711117965" fill="#b1ff20" stroke="none" /><path d="M 110.5260780823613 118.17145234162733 l 18.415096603036282 31.79047767556276 a57.73894736842106,57.73894736842106 0 0,0 -0.8643004429492928,0.49077234836255845 l -17.865147393165792 -32.10275318971995" fill="#a7ff21" stroke="none" /><path d="M 110.21172684928248 118.3499491758327 l 18.10493693051736 32.533642684537064 a58.232064777327935,58.232064777327935 0 0,0 -0.8800728084814783,0.4798858655736761 l -17.542241310167235 -32.84046920187051" fill="#a0ff22" stroke="none" /><path d="M 109.89434966115114 118.52300852407294 l 17.267442773019475 32.32602451168776 a57.64882591093118,57.64882591093118 0 0,0 -0.8793068284732162,0.46001177404998117 l -16.708445042019765 -32.61846570468246" fill="#a9ff21" stroke="none" /><path d="M 109.57404056367764 118.69057910512821 l 16.88287088224871 32.95898232805524 a58.03141700404859,58.03141700404859 0 0,0 -0.8929821731662148,0.4477597996313635 l -16.313034801399738 -33.244709968595906" fill="#a3ff22" stroke="none" /><path d="M 109.2508944713604 118.85261126421891 l 16.06809208948598 32.74553556508176 a57.47538461538461,57.47538461538461 0 0,0 -0.8919285594270553,0.428179910934281 l -15.50205086205869 -33.0172697525156" fill="#abff21" stroke="none" /><path d="M 108.92500713936063 119.00905698771935 l 15.462303866701212 32.93261403313709 a57.38186234817813,57.38186234817813 0 0,0 -0.8977037258973816,0.41209175097217215 l -14.893132145036411 -33.19389285444334" fill="#adff20" stroke="none" /><path d="M 108.59647513512805 119.15986991738527 l 15.104737686824182 33.66552042164052 a57.89878542510122,57.89878542510122 0 0,0 -0.9128138484132375,0.4001507660181233 l -14.52300316375319 -33.9205357409531" fill="#a5ff21" stroke="none" /><path d="M 108.2653958097858 119.30500536409082 l 14.513633484292704 33.898651524346036 a57.87497975708502,57.87497975708502 0 0,0 -0.9191884538092643,0.3842208482406634 l -13.927973570985978 -34.14345741560667" fill="#a5ff21" stroke="none" /><path d="M 107.93186726928326 119.44442032107085 l 7.156021466749321 17.542488357681894 a39.94591093117409,39.94591093117409 0 0,0 -0.6389042657185812,0.2542331928107392 l -6.852996124988874 -17.6630683948987" fill="#ff2503" stroke="none" /><path d="M 107.59598834532513 119.57807347666477 l 13.251463068828333 34.15462291941236 a57.63522267206478,57.63522267206478 0 0,0 -0.9280088151684603,0.3508935273389268 l -12.661584032899597 -34.37766469685791" fill="#a9ff21" stroke="none" /><path d="M 107.2578585660854 119.70592522655815 l 13.892187744428572 37.71889606725571 a61.195870445344134,61.195870445344134 0 0,0 -0.991607508704168,0.3555551729160223 l -13.24086067509467 -37.9524387812117" fill="#75ff27" stroke="none" /><path d="M 106.91757812671514 119.82793768551818 l 12.166535586265546 34.87308781110449 a57.9344939271255,57.9344939271255 0 0,0 -0.9444157513437845,0.32039709906024694 l -11.564450101984535 -35.07734789706286" fill="#a4ff21" stroke="none" /><path d="M 106.57524785965236 119.94407469862006 l 11.506949958758428 34.90293817500206 a57.750850202429156,57.750850202429156 0 0,0 -0.9467802394069954,0.303129134323594 l -10.904448374260493 -35.095840155985364" fill="#a7ff21" stroke="none" /><path d="M 106.2309692047433 120.05430185196036 l 5.280431068570319 16.995005925717983 a38.79643724696356,38.79643724696356 0 0,0 -0.6394484682729838,0.19266057801487976 l -4.98710762585709 -17.08338187283859" fill="#ff0f01" stroke="none" /><path d="M 105.88484417918355 120.15858648285463 l 4.996161232286604 17.114395082812216 a38.82874493927126,38.82874493927126 0 0,0 -0.6432052450470711,0.18177622705383953 l -4.700824819134927 -17.197860103204576" fill="#ff1001" stroke="none" /><path d="M 105.53697534728816 120.25689768951611 l 4.654197658315657 17.027275701608644 a38.6519028340081,38.6519028340081 0 0,0 -0.6432956878098666,0.16990023797410791 l -4.360411527694293 -17.104867288886336" fill="#ff0c01" stroke="none" /><path d="M 105.18746579009965 120.34920634021253 l 9.009809003857296 35.343358380369125 a57.473684210526315,57.473684210526315 0 0,0 -0.9607594312291063,0.23613129303528646 l -8.400096287884978 -35.493210931718444" fill="#abff21" stroke="none" /><path d="M 104.83641907484287 120.43548508189849 l 8.32529822769915 35.177164158387065 a57.1489068825911,57.1489068825911 0 0,0 -0.9592303885874737,0.21831771345648623 l -7.7185476897188146 -35.315258605421235" fill="#b0ff20" stroke="none" /><path d="M 104.48393922423573 120.51570834832081 l 7.802054250170168 35.69733252607822 a57.540000000000006,57.540000000000006 0 0,0 -0.9694353956835043,0.20315461280927719 l -7.1864273930572855 -35.82634311961404" fill="#aaff21" stroke="none" /><path d="M 104.13013068566511 120.58985236759428 l 7.1279032740296415 35.53458407796796 a57.24242914979757,57.24242914979757 0 0,0 -0.9677579127982303,0.18547310727102584 l -6.515177746659707 -35.652014383587456" fill="#afff20" stroke="none" /><path d="M 103.7750983002368 120.6578951692458 l 6.526793433737358 35.71557713795436 a57.30704453441295,57.30704453441295 0 0,0 -0.9719029929918196,0.16897779325385018 l -5.9110414692734885 -35.822633509729215" fill="#aeff20" stroke="none" /><path d="M 103.41894727170886 120.7198165907248 l 5.986895036273345 36.282328225993076 a57.772955465587046,57.772955465587046 0 0,0 -0.9825917974119046,0.15346063073479632 l -5.361467375252923 -36.38000716407498" fill="#a7ff21" stroke="none" /><path d="M 103.06178313531738 120.77559828337769 l 5.434851003435428 36.877948629004514 a58.27627530364372,58.27627530364372 0 0,0 -0.9936699046838012,0.13771359444838255 l -4.7992525075647965 -36.966036788945495" fill="#9fff22" stroke="none" /><path d="M 102.70371172650421 120.8252237178851 l 4.757438018515217 36.64396247881464 a57.9514979757085,57.9514979757085 0 0,0 -0.9903430198369155,0.11991674781468138 l -4.125967575626921 -36.72042475535468" fill="#a4ff21" stroke="none" /><path d="M 102.34483914955558 120.86867818915974 l 1.9706142132176077 17.538138536460647 a38.6485020242915,38.6485020242915 0 0,0 -0.6617495960932193,0.06859305136591638 l -1.6684320205187857 -17.56946095628232" fill="#ff0c01" stroke="none" /><path d="M 101.98527174616119 120.90594882070398 l 1.7119954734102578 18.02820687777307 a39.10931174089069,39.10931174089069 0 0,0 -0.6707352786999629,0.057873862153096485 l -1.4014158769687532 -18.05500499220483" fill="#ff1502" stroke="none" /><line stroke="#e1ed5e" stroke-width="0.3" x1="102.19456741930631" x2="102.32365962044197" y1="184.97166512339345" y2="189.96999836594603" /><path d="M 102.22038585953345 185.97133177190398 a86.0,86.0 0 0,1 -42.740103519485714,-10.115201625700543" fill="none" id="id31" stroke="none" /><text fill="#e1ed5e" style="font-size:6.75px; font-family:Arial;" text-anchor="middle"><textPath startOffset="22.20632615414155" xlink:href="#id31">July</textPath></text><line stroke="#e1ed5e" stroke-width="0.3" x1="58.666819895761336" x2="56.23545636021788" y1="174.27360380694188" y2="178.64263932499728" /><path d="M 58.180547188652646 175.14741091055294 a86.0,86.0 0 0,1 -31.652253787137756,-30.449443065178592" fill="none" id="id32" stroke="none" /><text fill="#e1ed5e" style="font-size:6.75px; font-family:Arial;" text-anchor="middle"><textPath startOffset="22.20632615414155" xlink:href="#id32">August</textPath></text><path d="M 82.85270091963577 112.12312394758628 l -15.256236623080335 10.78614461020875 a39.68404858299595,39.68404858299595 0 0,0 -0.38954446547774246,-0.5611678561197976 l 15.439641995720212 -10.52193549190194" fill="#ff2003" stroke="none" /><path d="M 82.6465618267979 111.8261652097733 l -29.77063113972735 20.288337028296905 a57.026477732793516,57.026477732793516 0 0,0 -0.5458164254121728,-0.815921498646104 l 30.115450670550253 -19.77287861544498" fill="#b2ff20" stroke="none" /><path d="M 82.44556493220864 111.52570212397912 l -15.430845918699843 10.131418806309092 a39.459595141700404,39.459595141700404 0 0,0 -0.3679046105645569,-0.5709961256860624 l 15.602955392641446 -9.864301080701582" fill="#ff1c02" stroke="none" /><path d="M 82.24976979558568 111.22182372390057 l -15.252262585363955 9.642590555306302 a39.04469635627531,39.04469635627531 0 0,0 -0.3542569185380079,-0.5711749505417656 l 15.415984143569919 -9.378619273399273" fill="#ff1402" stroke="none" /><path d="M 82.05923443525364 110.91462005526583 l -31.478416924897893 19.150518378749414 a57.84607287449393,57.84607287449393 0 0,0 -0.510199950576668,-0.8551244638128248 l 31.803397751172792 -18.60583182105048" fill="#a6ff21" stroke="none" /><line stroke="#e1ed5e" stroke-width="0.3" x1="26.63291911575756" x2="22.317208475507996" y1="142.92168965132927" y2="145.44649492493687" /><path d="M 25.769776987707644 143.4266507060508 a86.0,86.0 0 0,1 -11.730757126820373,-40.83630448921669" fill="none" id="id33" stroke="none" /><text fill="#e1ed5e" style="font-size:6.75px; font-family:Arial;" text-anchor="middle"><textPath startOffset="21.46611528233685" xlink:href="#id33">September</textPath></text><path d="M 81.87401531095188 110.60418214915194 l -31.79312391369721 18.59982135343557 a57.83417004048582,57.83417004048582 0 0,0 -0.4953028588554936,-0.8636022836167824 l 32.10857876870509 -18.04979922396048" fill="#a6ff21" stroke="none" /><path d="M 81.69416730710424 110.29060199501025 l -32.495446973793825 18.267276723612124 a58.277975708502034,58.277975708502034 0 0,0 -0.4840501796654392,-0.8786916779717757 l 32.805073562910785 -17.705214527242525" fill="#9fff22" stroke="none" /><path d="M 81.51974371655577 109.97397251340807 l -31.67381253049912 17.09466203978207 a56.99246963562752,56.99246963562752 0 0,0 -0.45851118071469577,-0.8673303594622112 l 31.9633762194387 -16.546916665233734" fill="#b3ff20" stroke="none" /><path d="M 81.35079622478065 109.6543875284942 l -32.40582291629209 16.77596407785307 a57.49068825910931,57.49068825910931 0 0,0 -0.4473907023907953,-0.8827442997839855 l 32.68979228846915 -16.215665566366404" fill="#abff21" stroke="none" /><path d="M 81.18737489456691 109.33194174019688 l -33.22903676517549 16.48315604215828 a58.09263157894737,58.09263157894737 0 0,0 -0.43665393854370377,-0.8996364460244544 l 33.507843960333915 -15.908730640168542" fill="#a2ff22" stroke="none" /><path d="M 81.02952815118164 109.00673069616217 l -15.77851715231274 7.491266211415207 a38.46655870445345,38.46655870445345 0 0,0 -0.2788374589351774,-0.6005910800014878 l 15.905129228087745 -7.2185550641348915" fill="#ff0901" stroke="none" /><path d="M 80.87730276802145 108.67885076344099 l -33.897496988054584 15.384404932246978 a58.22526315789473,58.22526315789473 0 0,0 -0.40635387665032496,-0.9162207175560411 l 34.15729194943619 -14.798635878198242" fill="#a0ff22" stroke="none" /><path d="M 80.73074385275274 108.34839909993369 l -15.677529211946599 6.792284547055361 a38.08566801619433,38.08566801619433 0 0,0 -0.2554442367007868,-0.6037947185529858 l 15.792124429839692 -6.521415302836217" fill="#ff0100" stroke="none" /><path d="M 80.58989483394504 108.01547362559985 l -32.3402213766731 13.355012210037899 a55.989230769230765,55.989230769230765 0 0,0 -0.3601904146029953,-0.8939630700437204 l 32.56531440553348 -12.796349772151373" fill="#c2ff1e" stroke="none" /><path d="M 80.45479744820244 107.68017299344265 l -16.191657271857565 6.362416995620388 a38.39684210526316,38.39684210526316 0 0,0 -0.23642530141692078,-0.6172318572745314 l 16.298776852867995 -6.082761571512699" fill="#ff0701" stroke="none" /><path d="M 80.32549172779594 107.34259656027581 l -16.185668343772733 6.040549073069008 a38.27611336032389,38.27611336032389 0 0,0 -0.22505578014351407,-0.6192568493435064 l 16.287248384921472 -5.761044426719385" fill="#ff0500" stroke="none" /><path d="M 80.20201598880116 107.00284435728193 l -34.137495507569156 12.074944986908392 a57.210121457489876,57.210121457489876 0 0,0 -0.3204016593453505,-0.9312371987498467 l 34.340287997857736 -11.485535085069248" fill="#afff20" stroke="none" /><path d="M 80.0844068197444 106.66101706037122 l -33.74523910040719 11.286513603670304 a56.58267206477733,56.58267206477733 0 0,0 -0.3009868060877156,-0.9263421380031266 l 33.93451815751115 -10.703972565689373" fill="#b9ff1f" stroke="none" /><path d="M 79.97269907076064 106.31721596034903 l -33.149642558340965 10.456399081899178 a55.75967611336033,55.75967611336033 0 0,0 -0.2808514717391881,-0.9178388596010728 l 33.324720802586285 -9.884233249746057" fill="#c6ff1e" stroke="none" /><path d="M 79.86692584326677 105.97154293290107 l -33.94583021584259 10.068456558040415 a56.40753036437248,56.40753036437248 0 0,0 -0.26808985073500163,-0.9332559404927967 l 34.1141127034637 -9.482643142043022" fill="#bcff1f" stroke="none" /><path d="M 79.76711848015287 105.62410040840567 l -33.181925692549285 9.223524669785304 a55.440000000000005,55.440000000000005 0 0,0 -0.2476634784577143,-0.9216479364165773 l 33.33577724734877 -8.650985800193187" fill="#cbff1d" stroke="none" /><path d="M 79.67330655649465 105.27499134158121 l -16.738661726352174 4.3438592667110045 a38.29311740890688,38.29311740890688 0 0,0 -0.16008106899394994,-0.6394442960947964 l 16.81095410964118 -4.055087131218817" fill="#ff0500" stroke="none" /><path d="M 79.58551787078972 104.9243191809786 l -35.32283956429916 8.520467739136175 a57.33595141700405,57.33595141700405 0 0,0 -0.22317182003138547,-0.9614183597460263 l 35.4642719502611 -7.911180722041574" fill="#adff20" stroke="none" /><path d="M 79.50377843672027 104.57218783832718 l -35.30992793363073 7.876750481639597 a57.17781376518219,57.17781376518219 0 0,0 -0.2060197258179721,-0.962455571523245 l 35.440281698173145 -7.267781090700188" fill="#b0ff20" stroke="none" /><path d="M 79.4281124754447 104.21870165774334 l -34.40585723236353 7.055650424347264 a56.12186234817814,56.12186234817814 0 0,0 -0.18592389167110354,-0.9480219180665709 l 34.522211057010296 -6.462364779212739" fill="#c0ff1e" stroke="none" /><path d="M 79.35854240842038 103.8639653848113 l -35.28602855655296 6.605347142035309 a56.89894736842105,56.89894736842105 0 0,0 -0.17192574465150343,-0.9642508795923241 l 35.394500743543645 -5.996977511709771" fill="#b4ff20" stroke="none" /><path d="M 79.29508885075956 103.50808413554451 l -35.14134757888492 5.954085146975584 a56.642186234817814,56.642186234817814 0 0,0 -0.1546014640057525,-0.9627034639424582 l 35.238630797251965 -5.348302453339912" fill="#b8ff1f" stroke="none" /><path d="M 79.23777060512086 103.15116336523772 l -35.14448627529948 5.33401377735179 a56.546963562753035,56.546963562753035 0 0,0 -0.13777519299133603,-0.9635993788900226 l 35.23109551930741 -4.728268926481366" fill="#baff1f" stroke="none" /><path d="M 79.18660465613746 102.79330883721812 l -35.42658975897446 4.754505673454427 a56.74421052631579,56.74421052631579 0 0,0 -0.12159065869825354,-0.9691971839412864 l 35.50318192691956 -4.143990735225732" fill="#b7ff1f" stroke="none" /><path d="M 79.10278846688536 102.07522291339032 l -17.162786767642253 1.7043713368840447 a38.24720647773279,38.24720647773279 0 0,0 -0.05942050250524246,-0.6557002937147449 l 17.189581866424568 -1.4086896546207337" fill="#ff0400" stroke="none" /><path d="M 79.07016306316243 101.71520430193888 l -35.32143007591649 2.8945982235635745 a56.43983805668016,56.43983805668016 0 0,0 -0.07101594047071913,-0.9689560852955077 l 35.366022575051545 -2.2861690017713063" fill="#bbff1f" stroke="none" /><path d="M 79.04373962182676 101.35467743843564 l -17.201102141987214 1.1119324043256757 a38.237004048582996,38.237004048582996 0 0,0 -0.036805208711909,-0.657181725891904 l 17.217693701586654 -0.815678962098334" fill="#ff0400" stroke="none" /><path d="M 79.0235259727143 100.99374915477108 l -18.708976632433362 0.8863276874334763 a39.72995951417004,39.72995951417004 0 0,0 -0.02648260452888193,-0.6833983500824263 l 18.721461369813447 -0.5641520903370533" fill="#ff2103" stroke="none" /><path d="M 79.0095281055655 100.63252640178507 l -36.54211706318557 1.101159322945678 a57.558704453441294,57.558704453441294 0 0,0 -0.021318475960526124,-0.9905858085428453 l 36.55565760183111 -0.4719836986127039" fill="#aaff21" stroke="none" /><line stroke="#e1ed5e" stroke-width="0.3" x1="15.007084014347285" x2="10.007500721073583" y1="101.09737516637583" y2="101.16192664675087" /><path d="M 14.007167355692545 101.11028546245083 a86.0,86.0 0 0,1 10.666146001902534,-42.60595125391555" fill="none" id="id34" stroke="none" /><text fill="#e1ed5e" style="font-size:6.75px; font-family:Arial;" text-anchor="middle"><textPath startOffset="22.20632615414155" xlink:href="#id34">October</textPath></text><path d="M 79.00175016825051 100.2711162175752 l -36.04387839540547 0.46537592683212603 a57.046882591093116,57.046882591093116 0 0,0 -0.004226094755826996,-0.9819955883194246 l 36.046548787450796 0.15512913969097392" fill="#b2ff20" stroke="none" /><path d="M 79.00019446554 99.90962569577889 l -36.40193011188013 -0.15665855099317752 a57.40226720647774,57.40226720647774 0 0,0 0.012756951070458173,-0.9880399190602905 l 36.393840153691954 0.78323472811394" fill="#acff20" stroke="none" /><path d="M 79.00486145842228 99.54816195383935 l -43.651188043084275 -0.9394206891714142 a64.6612955465587,64.6612955465587 0 0,0 0.03352628299070325,-1.1125741136736629 l 43.62855006563793 1.6906649502700715" fill="#45ff2d" stroke="none" /><path d="M 79.01574976396665 99.18683210126434 l -35.51010896217499 -1.3760644466134762 a56.53676113360324,56.53676113360324 0 0,0 0.04605428500764358,-0.9721331672786697 l 35.481161068933844 1.987108720515155" fill="#baff1f" stroke="none" /><path d="M 79.03285615573316 98.82574320788736 l -44.494486305307355 -2.49189651884115 a65.5642105263158,65.5642105263158 0 0,0 0.07280564955885319,-1.126271174132176 l 44.445000064744086 3.257426757226338" fill="#39ff2e" stroke="none" /><path d="M 79.08570108090925 98.10471618934814 l -45.09529278675853 -4.086600210028196 a66.28008097165991,66.28008097165991 0 0,0 0.1127483334439197,-1.1353603310665594 l 45.01826732763238 4.862236071799186" fill="#30ff2f" stroke="none" /><path d="M 79.12142395522702 97.74499172005258 l -39.15536030550504 -4.229007835778324 a60.38307692307693,60.38307692307693 0 0,0 0.1205063542096805,-1.0324248508782052 l 39.07676359829178 4.902376424981391" fill="#80ff25" stroke="none" /><path d="M 79.16333360222342 97.38593545837743 l -62.50999919332974 -7.842193624867687 a84.0,84.0 0 0,0 0.19233600376866455,-1.4331266317413625 l 62.36574719050324 8.91703859867371" fill="#4dd2ff" stroke="none" /><path d="M 79.21141760316559 97.0276538004421 l -18.64575928823763 -2.665965898988088 a39.83538461538461,39.83538461538461 0 0,0 0.10289689752206209,-0.6779619914162315 l 18.59710649727627 2.9865270027964117" fill="#ff2303" stroke="none" /><path d="M 79.26566170972629 96.67025291283419 l -16.91821270859014 -2.7169118540380466 a38.13497975708502,38.13497975708502 0 0,0 0.10966192564258771,-0.6472308927482531 l 16.86893892142733 3.0077285351021277" fill="#ff0200" stroke="none" /><path d="M 79.32604984820605 96.31383870115002 l -36.749411148366995 -6.552412873980056 a58.32898785425102,58.32898785425102 0 0,0 0.1847481143902848,-0.9869318144778437 l 36.63117731006685 7.1840227659204725" fill="#9fff22" stroke="none" /><path d="M 79.3925641242962 95.95851677861259 l -16.97985971426412 -3.330051276181238 a38.30331983805668,38.30331983805668 0 0,0 0.1324578121634682,-0.6459113335435787 l 16.920022606185658 3.621838265888219" fill="#ff0500" stroke="none" /><path d="M 79.46518482838121 95.60439243477599 l -19.400827807485673 -4.152870370124187 a40.84032388663967,40.84032388663967 0 0,0 0.15306489173968107,-0.6861598966598444 l 19.326468528743955 4.486208436333992" fill="#ff3605" stroke="none" /><path d="M 79.54389044137918 95.25157060432595 l -35.34517586003319 -8.204593916946438 a57.284939271255055,57.284939271255055 0 0,0 0.23123256615493207,-0.9586082696863628 l 35.19871049361744 8.811787418292198" fill="#aeff20" stroke="none" /><path d="M 79.62865764111835 94.90015583598534 l -36.43583654780055 -9.121494553758676 a58.56024291497976,58.56024291497976 0 0,0 0.25321356491647656,-0.9757351579370591 l 36.273426651013764 9.747326137244599" fill="#9bff22" stroke="none" /><path d="M 79.71946130924805 94.55025226153421 l -35.5755133762308 -9.559784211022093 a57.83757085020243,57.83757085020243 0 0,0 0.2666400960288101,-0.959246293563408 l 35.40568650963563 10.170741808004443" fill="#a6ff21" stroke="none" /><path d="M 79.81627453868168 94.20196356495316 l -35.17361452457431 -10.104076125917263 a57.59611336032388,57.59611336032388 0 0,0 0.28193051441556777,-0.950529539443014 l 34.99447811304704 10.708035052106815" fill="#aaff21" stroke="none" /><path d="M 79.91906864156998 93.8553929516997 l -35.106671170839086 -10.742365245332142 a57.713441295546566,57.713441295546566 0 0,0 0.2988581073217323,-0.9474618705523131 l 34.91655757974915 11.345077282310868" fill="#a8ff21" stroke="none" /><path d="M 80.02781315780177 93.51064311812611 l -17.738859714337842 -5.763704909900787 a39.65174089068826,39.65174089068826 0 0,0 0.21650361510413277,-0.6473182520610825 l 17.63701880546194 6.068196264884191" fill="#ff2003" stroke="none" /><path d="M 80.14247586403 93.16781622104843 l -17.13213924443404 -5.894487300787773 a39.11781376518219,39.11781376518219 0 0,0 0.22454913975468271,-0.6348306561988513 l 17.028137023869547 6.188515583413235" fill="#ff1502" stroke="none" /><path d="M 80.2630227832202 92.82701384747504 l -17.25826858008139 -6.2721520211430795 a39.36267206477733,39.36267206477733 0 0,0 0.2369171968239533,-0.6348202996686458 l 17.147746794755808 6.568295457841066" fill="#ff1a02" stroke="none" /><path d="M 80.38941819471856 92.48833698450439 l -16.87462776070655 -6.463679584264935 a39.0702024291498,39.0702024291498 0 0,0 0.24596822707436305,-0.6259623088672102 l 16.760865983750495 6.753190898027908" fill="#ff1402" stroke="none" /><path d="M 80.52162464483688 92.15188598940014 l -33.70941833731997 -13.582003299477789 a57.34275303643725,57.34275303643725 0 0,0 0.37676458729851714,-0.9123653328423469 l 33.47063206313525 14.160243202773447" fill="#adff20" stroke="none" /><path d="M 80.65960295795068 91.81776055985345 l -35.055448403746894 -14.830723066208934 a59.063562753036436,59.063562753036436 0 0,0 0.40418965130481654,-0.9329254423307266 l 34.7949680425994 15.431947653126262" fill="#94ff23" stroke="none" /><path d="M 80.803312248108 91.48605970444005 l -34.28979204912856 -15.207896592716788 a58.510931174089066,58.510931174089066 0 0,0 0.41625702617741456,-0.9171671802222137 l 34.02293270598779 15.795885781781072" fill="#9cff22" stroke="none" /><path d="M 80.95270993114464 91.15688171328213 l -16.872660190548796 -7.8334991139023105 a39.60242914979757,39.60242914979757 0 0,0 0.29238248303041353,-0.6158320760916604 l 16.735319513676632 8.122773605634503" fill="#ff1f03" stroke="none" /><path d="M 81.10775173730289 90.83032412892265 l -16.443139803702937 -7.980959185280189 a39.27765182186235,39.27765182186235 0 0,0 0.3004553085659205,-0.6056995680374484 l 16.3033244821836 8.2628183418166" fill="#ff1802" stroke="none" /><path d="M 81.26839172434947 90.50648371742162 l -16.561168482739117 -8.393498323034278 a39.56672064777328,39.56672064777328 0 0,0 0.31312455868804107,-0.6048569818400206 l 16.414234490890962 8.677328027134633" fill="#ff1e03" stroke="none" /><line stroke="#e1ed5e" stroke-width="0.3" x1="26.266209847984243" x2="21.928928074336255" y1="57.711370442889674" y2="55.22380399835377" /><path d="M 25.398753493254645 57.213857153982495 a86.0,86.0 0 0,1 29.58750427330803,-30.492523968695096" fill="none" id="id35" stroke="none" /><text fill="#e1ed5e" style="font-size:6.75px; font-family:Arial;" text-anchor="middle"><textPath startOffset="21.46611528233685" xlink:href="#id35">November</textPath></text><path d="M 82.15384107792192 88.93136811851018 l -16.058652963648072 -9.959976202347882 a39.896599190283396,39.896599190283396 0 0,0 0.36699628415230584,-0.580499987180677 l 15.884829083249803 10.234923837242773" fill="#ff2403" stroke="none" /><path d="M 82.54541684631803 88.32363383020206 l -16.37338832675349 -10.953093285595878 a40.69919028340081,40.69919028340081 0 0,0 0.3945409242282348,-0.5789401225119513 l 16.18242293685651 11.233311431378246" fill="#ff3404" stroke="none" /><path d="M 82.7489923806493 88.02491185347247 l -31.062988456608995 -21.56291580586875 a58.813603238866406,58.813603238866406 0 0,0 0.5844598466577701,-0.8266770045768568 l 30.687215990147347 22.094419310777393" fill="#97ff23" stroke="none" /><path d="M 83.17141714833178 87.43820079747576 l -15.10348277958628 -11.274087640548878 a39.84728744939272,39.84728744939272 0 0,0 0.4150266896184805,-0.5461264746561962 l 14.90718014974369 11.532398891086102" fill="#ff2303" stroke="none" /><path d="M 83.6137871275137 86.86637796730984 l -13.867910683662087 -11.115191699245146 a38.77263157894737,38.77263157894737 0 0,0 0.42188594199790264,-0.5171822805341303 l 13.674526249587792 11.352258149387358" fill="#ff0f01" stroke="none" /><path d="M 83.84228863543731 86.58626213691792 l -28.478129819630446 -23.641848750259722 a58.01271255060728,58.01271255060728 0 0,0 0.6444642914704277,-0.7628424465994698 l 28.066954914672895 24.12855014648831" fill="#a3ff21" stroke="none" /><path d="M 84.07557802195018 86.31012108654704 l -13.471932050742057 -11.581526711559231 a38.765829959514164,38.765829959514164 0 0,0 0.4393610926439127,-0.5022656801364617 l 13.2705790945203 11.811707947898636" fill="#ff0e01" stroke="none" /><path d="M 84.31358615837235 86.03803664274999 l -26.852346155939298 -23.90039411624475 a56.94825910931174,56.94825910931174 0 0,0 0.6580408204152257,-0.7266251094376761 l 26.436961694908025 24.35907201295198" fill="#b3ff20" stroke="none" /><path d="M 84.5562425177563 85.77008943001954 l -26.276896840031334 -24.211587919595104 a56.7306072874494,56.7306072874494 0 0,0 0.6678885698056422,-0.7124569590848271 l 25.856240948255238 24.66031429555798" fill="#b7ff1f" stroke="none" /><path d="M 84.80347519578584 85.50635884689758 l -26.958758051459753 -25.71183676302192 a58.254170040485825,58.254170040485825 0 0,0 0.6983169708335925,-0.7196770222387298 l 26.51217681692304 26.172077980810773" fill="#a0ff22" stroke="none" /><path d="M 85.05521093208273 85.24692304244772 l -13.07154749082125 -12.903865368055047 a39.36777327935223,39.36777327935223 0 0,0 0.48021972101428057,-0.4781575049189205 l 12.847491969639655 13.126958723624078" fill="#ff1a02" stroke="none" /><path d="M 85.31137513191541 84.99185889309783 l -25.31438799128036 -25.865042535976198 a57.19141700404859,57.19141700404859 0 0,0 0.7094915452906568,-0.6825303044401899 l 24.865413202377276 26.2969559271787" fill="#b0ff20" stroke="none" /><path d="M 85.83668400450813 84.49514656593479 l -24.68086830275147 -27.018619494292924 a57.59441295546559,57.59441295546559 0 0,0 0.7377268695657372,-0.6623384675284015 l 24.21213044558976 27.439456970590605" fill="#aaff21" stroke="none" /><path d="M 86.10567301691215 84.25364557470407 l -23.495475685409442 -26.627276584443763 a56.51125506072875,56.51125506072875 0 0,0 0.7349321049209012,-0.6373258792461811 l 23.033649781841767 27.027767457109622" fill="#baff1f" stroke="none" /><path d="M 86.37877921826538 84.01681056812374 l -24.37040440430835 -28.59632013657796 a58.57214574898785,58.57214574898785 0 0,0 0.7729918446887841,-0.6473584398714768 l 23.874555022660452 29.01157973384325" fill="#9bff22" stroke="none" /><path d="M 86.65592168130627 83.78471172551755 l -23.655215111834966 -28.745045035890225 a58.22696356275304,58.22696356275304 0 0,0 0.7794000747332641,-0.6302206567922469 l 23.156911638537203 29.147971789946606" fill="#a0ff22" stroke="none" /><path d="M 86.93701828274178 83.55741782278169 l -11.34628379603474 -14.281747288665658 a39.24024291497976,39.24024291497976 0 0,0 0.5324853218288206,-0.4156132398296123 l 11.098765919046494 14.474938917718491" fill="#ff1802" stroke="none" /><path d="M 87.22198572758235 83.33499621200491 l -11.201196964631052 -14.608528826626301 a39.40858299595141,39.40858299595141 0 0,0 0.541875234048223,-0.40812919203338616 l 10.94807557682444 14.799174608165542" fill="#ff1b02" stroke="none" /><path d="M 87.51073957382395 83.11751280151077 l -21.922444333493466 -29.6338912946437 a57.86137651821863,57.86137651821863 0 0,0 0.8058014554747787,-0.5854490265310467 l 21.409097561664908 30.006859555991415" fill="#a6ff21" stroke="none" /><path d="M 87.80319425747018 82.90503203632743 l -20.09164502235035 -28.16032617432832 a55.593036437246965,55.593036437246965 0 0,0 0.7837793783361791,-0.5490875425648308 l 19.60393450443051 28.501998559657093" fill="#c8ff1d" stroke="none" /><path d="M 88.09926311788651 82.69761687909137 l -9.991800868877306 -14.526996808153967 a38.6314979757085,38.6314979757085 0 0,0 0.551134068645978,-0.3721281833592404 l 9.740262105824787 14.696836903811874" fill="#ff0c01" stroke="none" /><path d="M 88.39885842347998 82.49532879139004 l -9.522329729650487 -14.368004213901147 a38.237004048582996,38.237004048582996 0 0,0 0.5517653839019219,-0.3588835540424726 l 9.273597319964278 14.529786692103155" fill="#ff0400" stroke="none" /><path d="M 88.70189139769569 82.29822771554957 l -9.3010421181885 -14.572786948664577 a38.28801619433199,38.28801619433199 0 0,0 0.5586054693145119,-0.34979869363818467 l 9.048817496501746 14.730729983625691" fill="#ff0500" stroke="none" /><path d="M 89.00827224532344 82.1063720568725 l -8.997196426884638 -14.646695131747032 a38.18939271255061,38.18939271255061 0 0,0 0.5630897453293779,-0.3392552711067911 l 8.743744615337611 14.799397012312442" fill="#ff0300" stroke="none" /><line stroke="#e1ed5e" stroke-width="0.3" x1="56.762969772571076" x2="54.21961505331055" y1="26.818313649435495" y2="22.513508569990535" /><path d="M 56.25429882871897 25.957352633546506 a86.0,86.0 0 0,1 42.265352541879196,-11.944610805530505" fill="none" id="id36" stroke="none" /><text fill="#e1ed5e" style="font-size:6.75px; font-family:Arial;" text-anchor="middle"><textPath startOffset="22.20632615414155" xlink:href="#id36">December</textPath></text></svg>