<?xml version="1.0" encoding="utf-8" ?>
<svg baseProfile="full" height="200mm" version="1.1" viewBox="0,0,200,200" width="200mm" xmlns="http://www.w3.org/2000/svg" xmlns:ev="http://www.w3.org/2001/xml-events" xmlns:xlink="http://www.w3.org/1999/xlink"><defs /><rect fill="#1a1a1a" height="200" width="200" x="0" y="0" /><text alignment-baseline="middle" fill="#e1ed5e" style="dominant-baseline: central; font-size:9.0px; font-family:Arial;" text-anchor="middle" x="100.0" y="100.0">2025</text><line stroke="#e1ed5e" stroke-width="0.3" x1="100.0" x2="100.0" y1="15.0" y2="10.0" /><path d="M 100.0 14.0 a86.0,86.0 0 0,1 42.46469731375804,11.215312516191453" fill="none" id="id25" stroke="none" /><text fill="#e1ed5e" style="font-size:6.75px; font-family:Arial;" text-anchor="middle"><textPath startOffset="22.20632615414155" xlink:href="#id25">January</textPath></text><path d="M 100.0 79.0 l 0.0 -59.427849829351544 a80.42784982935154,80.42784982935154 0 0,0 1.384433223960616,0.011916253839796657 l -1.0229527446880875 59.41904495212031" fill="#45ffef" stroke="none" /><path d="M 100.36148047927253 79.00311137660856 l 1.0449623411052271 -60.69749032086195 a81.70648464163823,81.70648464163823 0 0,0 1.4060260610165554,0.03631350497511948 l -2.0896150373166504 60.67051002374447" fill="#48f9ff" stroke="none" /><path d="M 100.72285384407766 79.0124445844662 l 2.099878081655773 -60.96849033271587 a82.00464163822525,82.00464163822525 0 0,0 1.410320386393933,0.06073136252586114 l -3.149039300439038 60.92331124366581" fill="#49f3ff" stroke="none" /><path d="M 101.08401301168833 79.027996857942 l 3.1459315498253244 -60.86318672953842 a81.94443686006827,81.94443686006827 0 0,0 1.4080315574085152,0.08493630871027556 l -4.193125156073451 60.80001715144784" fill="#48f4ff" stroke="none" /><path d="M 101.44485096284872 79.0497635885617 l 4.192927906795245 -60.797157050913825 a81.94156996587029,81.94156996587029 0 0,0 1.4063117007024657,0.10915685407908625 l -5.238829796860052 60.715974934646276" fill="#48f4ff" stroke="none" /><path d="M 101.80526077348638 79.07773832637324 l 5.2102413668635466 -60.38464628561685 a81.60901023890786,81.60901023890786 0 0,0 1.3985253422865678,0.13280683274142485 l -6.248891836240358 60.28601390836025" fill="#48faff" stroke="none" /><path d="M 102.16513564639614 79.11191278185805 l 6.361212866360566 -61.36962798930139 a82.69843003412969,82.69843003412969 0 0,0 1.4146680778919405,0.15895444180027968 l -7.416647647762232 61.251037594030514" fill="#4ae8ff" stroke="none" /><path d="M 102.52436894288641 79.15227682838746 l 7.413201410297541 -61.22257653850613 a82.66976109215017,82.66976109215017 0 0,0 1.4112329404433788,0.18321853832613708 l -8.465949079248766 61.08589967701585" fill="#4ae8ff" stroke="none" /><path d="M 102.88285421437855 79.19881850522331 l 8.323085450604479 -60.05506979543171 a81.62907849829352,81.62907849829352 0 0,0 1.390147170000667,0.2048715566532056 l -9.3556016010338 59.90290375461754" fill="#48faff" stroke="none" /><path d="M 103.2404852339499 79.25152402106235 l 9.359140697535043 -59.92556420619863 a81.65201365187714,81.65201365187714 0 0,0 1.3868042156940201,0.22883457818655972 l -10.389274119367938 59.75558336507245" fill="#48f9ff" stroke="none" /><line stroke="#e1ed5e" stroke-width="0.3" x1="143.23703022742887" x2="145.7803849466894" y1="26.81831364943548" y2="22.513508569990506" /><path d="M 143.74570117128098 25.957352633546492 a86.0,86.0 0 0,1 28.547481713284135,27.462654790039103" fill="none" id="id26" stroke="none" /><text fill="#e1ed5e" style="font-size:6.75px; font-family:Arial;" text-anchor="middle"><textPath startOffset="19.985693538727396" xlink:href="#id26">February</textPath></text><path d="M 116.15771136456269 86.58626213691792 l 22.23036384055465 -18.455105827186497 a49.89255972696245,49.89255972696245 0 0,0 0.5428821491323217,0.6655093237283577 l -22.54474448176338 18.06971233385004" fill="#ff0500" stroke="none" /><path d="M 116.60985879189232 87.15038557335679 l 24.011166518409258 -18.575367530883955 a51.357542662116046,51.357542662116046 0 0,0 0.53491096338911,0.703880126261729 l -24.327353422022483 18.159302628741194" fill="#ff2b04" stroke="none" /><path d="M 116.82858285166822 87.43820079747576 l 48.151572421585534 -35.94303747245129 a81.08723549488056,81.08723549488056 0 0,0 0.8253035177699102,1.1257130707434093 l -48.76313855186907 35.108861958036385" fill="#46fffb" stroke="none" /><path d="M 117.04232023915458 87.72973835380427 l 23.41254178383789 -16.856743064254978 a49.849556313993176,49.849556313993176 0 0,0 0.4953796814812402,0.7006794282908916 l -23.699234085123017 16.451237135632294" fill="#ff0400" stroke="none" /><path d="M 117.2510076193507 88.02491185347247 l 23.71100951694509 -16.459411257234013 a49.86389078498293,49.86389078498293 0 0,0 0.4833842004947058,0.7093066677485078 l -23.99081818310853 16.048826566215098" fill="#ff0400" stroke="none" /><path d="M 117.45458315368197 88.32363383020206 l 25.81133716323318 -17.266675542832935 a52.05419795221843,52.05419795221843 0 0,0 0.4917965722602263,0.7490399197757507 l -26.104730370851332 16.81981755907951" fill="#ff3d05" stroke="none" /><path d="M 117.65298651832404 88.62581576622439 l 50.65262397844843 -32.63653300006769 a81.25638225255975,81.25638225255975 0 0,0 0.7474519371468777,1.1822894635953933 l -51.20690351184127 31.759795888758095" fill="#47fffe" stroke="none" /><line stroke="#e1ed5e" stroke-width="0.3" x1="172.23445277983987" x2="176.4835382374775" y1="55.19839476539836" y2="52.563006222186495" /><path d="M 173.08426987136738 54.67131705675599 a86.0,86.0 0 0,1 12.851231095245387,41.99856678651699" fill="none" id="id27" stroke="none" /><text fill="#e1ed5e" style="font-size:6.75px; font-family:Arial;" text-anchor="middle"><textPath startOffset="22.20632615414155" xlink:href="#id27">March</textPath></text><path d="M 117.84615892207809 88.93136811851018 l 51.345774646115444 -31.84592722217036 a81.419795221843,81.419795221843 0 0,0 0.728452058521671,1.1973836506373907 l -51.88634250292334 30.957375798325888" fill="#47feff" stroke="none" /><path d="M 118.03404312379186 89.2402003453031 l 51.93804419652055 -30.98822300552706 a81.47999999999999,81.47999999999999 0 0,0 0.70825646305513,1.210639880066886 l -52.46376033404601 30.089603713106282" fill="#47fcff" stroke="none" /><path d="M 118.21658344932153 89.55222093294921 l 50.94923482952222 -29.220976074630663 a79.7340614334471,79.7340614334471 0 0,0 0.6725847481740415,1.1964532179786365 l -51.44467721898869 28.33963934671723" fill="#43ffe3" stroke="none" /><path d="M 118.3937258080291 89.86733742301442 l 53.02164101522654 -29.208350895979613 a81.53447098976109,81.53447098976109 0 0,0 0.6666099192118581,1.2351269397986175 l -53.51655903365687 28.29134297284854" fill="#47fcff" stroke="none" /><path d="M 118.56541770881063 90.18545643968196 l 53.80802975536516 -28.445427957071963 a81.8641638225256,81.8641638225256 0 0,0 0.6478596090256488,1.2514585550656454 l -54.289698797550926 27.514996679745973" fill="#48f6ff" stroke="none" /><path d="M 118.73160827565052 90.50648371742162 l 53.338414390924044 -27.032868617340633 a80.79767918088739,80.79767918088739 0 0,0 0.618063720810116,1.2459787463937335 l -53.79583812468756 26.11073028244795" fill="#46fff6" stroke="none" /><path d="M 118.89224826269711 90.83032412892265 l 54.9719289380377 -26.681566077289066 a82.10498293515357,82.10498293515357 0 0,0 0.6061764213741903,1.2767621376751623 l -55.42306355325365 25.731361523973366" fill="#49f2ff" stroke="none" /><path d="M 119.04729006885535 91.15688171328212 l 54.71837882852194 -25.40419632865589 a81.32805460750853,81.32805460750853 0 0,0 0.5785820440114365,1.2748288400229848 l -55.14756318949673 24.458545479790843" fill="#47ffff" stroke="none" /><path d="M 119.196687751892 91.48605970444005 l 26.249013586750902 -11.64172368605166 a49.71481228668942,49.71481228668942 0 0,0 0.3402133516202148,0.7852593220100644 l -26.445517648213798 11.188165219454993" fill="#ff0000" stroke="none" /><path d="M 119.34039704204932 91.81776055985345 l 56.48716099899022 -23.89772431160345 a82.33433447098977,82.33433447098977 0 0,0 0.5409691705549894,1.309999755788613 l -56.89015185643141 22.921849985361533" fill="#49eeff" stroke="none" /><path d="M 119.47837535516314 92.15188598940014 l 54.95959888607667 -22.1440027810345 a80.25296928327646,80.25296928327646 0 0,0 0.5052361990664246,1.2857710178774482 l -55.3326286350248 21.19468275826127" fill="#45ffec" stroke="none" /><path d="M 119.61058180528143 92.48833698450437 l 58.100866394295906 -22.255032185977644 a83.21733788395903,83.21733788395903 0 0,0 0.5008709364591567,1.3420850923480603 l -58.475341919256685 21.25162395660025" fill="#4bdfff" stroke="none" /><path d="M 119.7369772167798 92.82701384747503 l 56.44910207392995 -20.515230019849568 a81.06143344709898,81.06143344709898 0 0,0 0.46531933653278296,1.3155204249539214 l -56.79387449127255 19.54051196846903" fill="#46fffa" stroke="none" /><path d="M 119.85752413597 93.16781622104841 l 56.13783069046644 -19.314793405396504 a80.36764505119454,80.36764505119454 0 0,0 0.43881769879808463,1.3120090656353272 l -56.461985683036296 18.34561123683886" fill="#45ffee" stroke="none" /><path d="M 119.97218684219823 93.5106431181261 l 29.839674102527976 -9.695497845082313 a52.37529010238909,52.37529010238909 0 0,0 0.27121550403257905,0.859827264103174 l -30.00214509032876 9.180420414552719" fill="#ff4506" stroke="none" /><path d="M 120.08093135843002 93.85539295169968 l 58.11544899213078 -17.78287028217316 a81.77529010238908,81.77529010238908 0 0,0 0.40028655164311316,1.349567259036448 l -58.4129414408856 16.77987363639018" fill="#48f7ff" stroke="none" /><path d="M 120.18372546131832 94.20196356495316 l 58.71604175498047 -16.866943125517164 a82.09064846416382,82.09064846416382 0 0,0 0.3784505135293869,1.3614878550036493 l -58.997679039076225 15.853743967094562" fill="#49f2ff" stroke="none" /><path d="M 120.28053869075195 94.5502522615342 l 59.183180212083776 -15.90359148907097 a82.28273037542661,82.28273037542661 0 0,0 0.35578922580074296,1.3710010225696168 l -59.44816576975482 14.882494040952505" fill="#49efff" stroke="none" /><path d="M 120.37134235888165 94.90015583598534 l 60.35479479487365 -15.109463214668377 a83.21733788395903,83.21733788395903 0 0,0 0.33590955724630633,1.3925619768767805 l -60.605937152380776 14.068316006132191" fill="#4bdfff" stroke="none" /><path d="M 120.45610955862082 95.25157060432595 l 59.58662247812868 -13.83170484853205 a82.17092150170647,82.17092150170647 0 0,0 0.30796727368567894,1.3805569016189672 l -59.81588413881639 12.80396977736312" fill="#49f1ff" stroke="none" /><path d="M 120.53481517161879 95.60439243477599 l 59.874755281287946 -12.816571519188338 a82.23112627986349,82.23112627986349 0 0,0 0.28436582324507087,1.3866687446095372 l -60.08650040044802 11.78402711841539" fill="#49f0ff" stroke="none" /><path d="M 120.6074358757038 95.95851677861258 l 60.21028568079353 -11.8083036046599 a82.35726962457338,82.35726962457338 0 0,0 0.260854008087573,1.3934925418065474 l -60.40462541279096 10.77013298539079" fill="#49edff" stroke="none" /><path d="M 120.67395015179393 96.31383870115 l 59.66233887491768 -10.637783439780202 a81.60327645051194,81.60327645051194 0 0,0 0.2346604742236685,1.3849794022359032 l -59.83661121066157 9.609218249228462" fill="#48faff" stroke="none" /><path d="M 120.73433829027371 96.67025291283417 l 60.000787541151105 -9.635583482137077 a81.76955631399316,81.76955631399316 0 0,0 0.2112150726722578,1.391643428853656 l -60.15775850726266 8.601340940891339" fill="#48f7ff" stroke="none" /><path d="M 120.78858239683441 97.02765380044208 l 60.22303323697286 -8.610673905067426 a81.83549488054607,81.83549488054607 0 0,0 0.18737990537802945,1.3961979420838437 l -60.36232914140872 7.572757620918917" fill="#48f6ff" stroke="none" /><path d="M 120.83666639777658 97.38593545837742 l 60.49033596569541 -7.588816720492026 a81.96450511945392,81.96450511945392 0 0,0 0.16357635599008777,1.4014223237259331 l -60.61200267468909 6.54645065844124" fill="#48f4ff" stroke="none" /><path d="M 120.87857604477298 97.74499172005257 l 61.13646110366359 -6.603095235029681 a82.49201365187713,82.49201365187713 0 0,0 0.14032627790028016,1.4130664681925718 l -61.2410645072461 5.549753236132674" fill="#4aebff" stroke="none" /><path d="M 120.91429891909075 98.10471618934814 l 60.72427432235118 -5.502920967227832 a81.9731058020478,81.9731058020478 0 0,0 0.11525229817736339,1.4063699611301392 l -60.81000110434804 4.456837088889923" fill="#48f4ff" stroke="none" /><path d="M 120.94382443527127 98.46500227214037 l 61.40186071637549 -4.500215181677219 a82.5665529010239,82.5665529010239 0 0,0 0.09168586745021616,1.4183397883293631 l -61.47022717483012 3.4426163290948204" fill="#4aeaff" stroke="none" /><path d="M 120.96714384426684 98.82574320788733 l 60.75176258712897 -3.4023789973787415 a81.8469624573379,81.8469624573379 0 0,0 0.06667172403302515,1.4073347190470964 l -60.80132791939549 2.3561331717086453" fill="#48f6ff" stroke="none" /><path d="M 120.98425023603335 99.18683210126433 l 60.3630220782879 -2.3391482312981937 a81.4083276450512,81.4083276450512 0 0,0 0.04220946405972735,1.4007266203030344 l -60.394343236803266 1.2997514635701601" fill="#47feff" stroke="none" /><line stroke="#e1ed5e" stroke-width="0.3" x1="184.98032266829074" x2="189.97916517819016" y1="98.17113171792111" y2="98.06355123074" /><path d="M 185.9800911702706 98.14961562048488 a86.0,86.0 0 0,1 -9.607161424134198,41.387399972396054" fill="none" id="id28" stroke="none" /><text fill="#e1ed5e" style="font-size:6.75px; font-family:Arial;" text-anchor="middle"><textPath startOffset="21.466115282336823" xlink:href="#id28">April</textPath></text><path d="M 120.99513854157772 99.54816195383933 l 61.919177872177926 -1.3325675510182797 a82.93351535836179,82.93351535836179 0 0,0 0.0184309583752525,1.4274980377920732 l -61.932941837670896 0.2665332551657438" fill="#4be4ff" stroke="none" /><path d="M 120.99980553446 99.90962569577887 l 61.01841105739882 -0.26259750048362207 a82.018976109215,82.018976109215 0 0,0 -0.006076054449775875,1.4118610700437928 l -61.01389070565955 -0.7877730477638555" fill="#49f3ff" stroke="none" /><path d="M 120.99824983174949 100.27111621757518 l 62.98328287417996 0.8132006029139106 a83.9885324232082,83.9885324232082 0 0,0 -0.03110750192218725,1.4454433797423614 l -62.95995330957277 -1.8972337984463867" fill="#4dd2ff" stroke="none" /><path d="M 120.9904718944345 100.63252640178507 l 61.10304876519139 1.8412778792167994 a82.13078498293515,82.13078498293515 0 0,0 -0.05474551509607248,1.4127384884017407 l -61.06230111724411 -2.8927936146325464" fill="#49f1ff" stroke="none" /><path d="M 120.9764740272857 100.99374915477107 l 61.67512916391156 2.9218260131473595 a82.74430034129692,82.74430034129692 0 0,0 -0.07964591681694598,1.4221313478671687 l -61.61569689620709 -3.9830290773499515" fill="#4ae7ff" stroke="none" /><path d="M 120.95626037817324 101.35467743843564 l 31.281331191118934 2.022121926533147 a52.34662116040956,52.34662116040956 0 0,0 -0.06586561301677248,0.8986839591406789 l -31.241889019437824 -2.560279022170596" fill="#ff4406" stroke="none" /><path d="M 120.92983693683757 101.71520430193887 l 61.28370547730954 5.022211859110567 a82.4891467576792,82.4891467576792 0 0,0 -0.12815436741566028,1.4141727655006118 l -61.1881765136168 -6.07636601315975" fill="#4aebff" stroke="none" /><path d="M 120.89721153311464 102.0752229133903 l 59.964298868878736 5.954827360621257 a81.25924914675767,81.25924914675767 0 0,0 -0.15020462064903553,1.3907082392488015 l -59.852911946728646 -6.98613192175485" fill="#47fffe" stroke="none" /><path d="M 120.8583938346157 102.4346265915055 l 61.245369910568535 7.148661942675834 a82.66116040955632,82.66116040955632 0 0,0 -0.17712511725401067,1.411861459471883 l -61.11324328406767 -8.201841156435112" fill="#4ae8ff" stroke="none" /><path d="M 120.81339534386255 102.79330883721812 l 60.232403344600456 8.083626038409498 a81.77242320819113,81.77242320819113 0 0,0 -0.19923636352948532,1.3934586624850218 l -60.084332930054366 -9.11923017287493" fill="#48f7ff" stroke="none" /><path d="M 120.76222939487914 103.15116336523771 l 60.13251830885476 9.126543453039986 a81.82116040955631,81.82116040955631 0 0,0 -0.22332597003806529,1.3906510286083182 l -59.96651058445541 -10.160273711341508" fill="#48f7ff" stroke="none" /><path d="M 120.70491114924044 103.5080841355445 l 61.784020191139604 10.468218844331972 a83.6645733788396,83.6645733788396 0 0,0 -0.2528007062410179,1.4178406139730364 l -61.5946730425594 -11.530178209038226" fill="#4cd7ff" stroke="none" /><path d="M 120.64145759157962 103.86396538481128 l 59.46148759589374 11.13085782729049 a81.49433447098976,81.49433447098976 0 0,0 -0.2699793481547811,1.3766188797770098 l -59.261078314763296 -12.152740434135444" fill="#47fcff" stroke="none" /><path d="M 120.5718875245553 104.21870165774334 l 61.21014178807953 12.552437219183075 a83.4839590443686,83.4839590443686 0 0,0 -0.3008044767705416,1.4052583725052776 l -60.98500327258455 -13.60420941110452" fill="#4cdaff" stroke="none" /><path d="M 120.49622156327973 104.57218783832717 l 61.441096667098485 13.705952294059788 a83.95126279863481,83.95126279863481 0 0,0 -0.3267680338369449,1.4077081374555596 l -61.19606806733099 -14.761529088863911" fill="#4dd3ff" stroke="none" /><path d="M 120.41448212921028 104.9243191809786 l 59.342739655600646 14.314474856051522 a82.0447781569966,82.0447781569966 0 0,0 -0.34298110682647764,1.3700390296416824 l -59.08754723447911 -15.3338417250906" fill="#49f3ff" stroke="none" /><path d="M 120.32669344350535 105.2749913415812 l 60.225287072272586 15.629097213151802 a83.22020477815701,83.22020477815701 0 0,0 -0.37176416654619676,1.3834727633829607 l -59.94733482938461 -16.66346090971031" fill="#4bdfff" stroke="none" /><path d="M 120.23288151984713 105.62410040840565 l 59.240219789237024 16.466905318645203 a82.48627986348122,82.48627986348122 0 0,0 -0.3920351469642522,1.3647257767620704 l -58.94799200538667 -17.484188570911858" fill="#4aebff" stroke="none" /><path d="M 120.13307415673323 105.97154293290107 l 58.70612026125119 17.412448532946634 a82.23399317406144,82.23399317406144 0 0,0 -0.4141978508442444,1.3536225418862518 l -58.39769563790082 -18.420398047384943" fill="#49efff" stroke="none" /><path d="M 120.02730092923936 106.31721596034902 l 57.908291287548074 18.26602512494092 a81.72081911262799,81.72081911262799 0 0,0 -0.43470708324667306,1.3378908336017676 l -57.58529195328515 -19.26011485852048" fill="#48f8ff" stroke="none" /><path d="M 119.9155931802556 106.66101706037122 l 57.952337015310334 19.382877630281587 a82.10784982935154,82.10784982935154 0 0,0 -0.459839809117525,1.3365097315388994 l -57.61010637524958 -20.377560064909787" fill="#49f2ff" stroke="none" /><path d="M 119.79798401119884 107.00284435728193 l 57.683081879454676 20.403372597011714 a82.18525597269624,82.18525597269624 0 0,0 -0.4832326293192034,1.329648655730408 l -57.32332498913024 -21.393269049748252" fill="#49f0ff" stroke="none" /><path d="M 119.67450827220406 107.3425965602758 l 56.12270994507903 20.945195239175792 a80.9037542662116,80.9037542662116 0 0,0 -0.4981580109039235,1.3005333711902636 l -55.7538576545816 -21.908152177199202" fill="#46fff7" stroke="none" /><path d="M 119.54520255179757 107.68017299344265 l 57.1146840438535 22.442880945343326 a82.36587030716723,82.36587030716723 0 0,0 -0.5298768453768075,1.315110875341429 l -56.7199045842193 -23.42269118852757" fill="#49edff" stroke="none" /><path d="M 119.41010516605496 108.01547362559984 l 29.206577357031787 12.060962498479372 a52.59890784982936,52.59890784982936 0 0,0 -0.35278593147641074,0.8338817307307712 l -28.994640444363068 -12.561918754876308" fill="#ff4a06" stroke="none" /><path d="M 119.26925614724726 108.34839909993367 l 56.723954990183344 24.575635466466867 a82.8188395904437,82.8188395904437 0 0,0 -0.5779923473423877,1.3032201577336846 l -56.292521558109684 -25.54840396069324" fill="#4ae6ff" stroke="none" /><path d="M 119.12269723197855 108.67885076344098 l 56.73893537745007 25.751009214010427 a83.30907849829353,83.30907849829353 0 0,0 -0.6038931616725381,1.3007321453849097 l -56.287267598937696 -26.72386142667417" fill="#4bddff" stroke="none" /><path d="M 118.97047184881838 109.00673069616215 l 28.861015465287643 13.702526536249973 a52.94866894197953,52.94866894197953 0 0,0 -0.3979892837655757,0.8199758050890551 l -28.620872924907353 -14.197291297304304" fill="#ff5307" stroke="none" /><path d="M 118.81262510543309 109.33194174019688 l 56.02181452898458 27.78943961486888 a83.53556313993175,83.53556313993175 0 0,0 -0.6500710880228933,1.2826519289292688 l -55.53516477117542 -28.74964575550084" fill="#4cdaff" stroke="none" /><path d="M 118.64920377521936 109.65438752849418 l 54.99541989740797 28.470228669351926 a82.92778156996587,82.92778156996587 0 0,0 -0.6671638426056987,1.2620225629513282 l -54.497203546577374 -29.41266624738939" fill="#4be4ff" stroke="none" /><line stroke="#e1ed5e" stroke-width="0.3" x1="174.80103733775053" x2="179.2010983576182" y1="140.37084112569926" y2="142.7455964860345" /><path d="M 175.68104954172406 140.8457921977663 a86.0,86.0 0 0,1 -30.038265399797805,32.042727171017184" fill="none" id="id29" stroke="none" /><text fill="#e1ed5e" style="font-size:6.75px; font-family:Arial;" text-anchor="middle"><textPath startOffset="22.206326154141568" xlink:href="#id29">May</textPath></text><path d="M 118.48025628344425 109.97397251340804 l 28.057191826373174 15.142736972233571 a52.88273037542662,52.88273037542662 0 0,0 -0.43923789095664906,0.7973443573561895 l -27.792377525965016 -15.623451847987564" fill="#ff5207" stroke="none" /><path d="M 118.30583269289576 110.29060199501025 l 53.29558880664777 29.96005162397112 a82.139385665529,82.139385665529 0 0,0 -0.7034573594864401,1.2265372008618993 l -52.77197945100895 -30.873008670691334" fill="#49f1ff" stroke="none" /><path d="M 118.12598468904814 110.60418214915192 l 52.93777344065624 30.97000255519553 a82.33146757679182,82.33146757679182 0 0,0 -0.7261601108120562,1.217086114372541 l -52.39683245414596 -31.876650763454176" fill="#49eeff" stroke="none" /><path d="M 117.94076556474637 110.91462005526583 l 52.84994393939893 32.15231010955987 a82.86184300341299,82.86184300341299 0 0,0 -0.7518148149729514,1.2121648647849148 l -52.28866448475802 -33.05727130571005" fill="#4ae5ff" stroke="none" /><path d="M 117.75023020441432 111.22182372390056 l 25.32285401175833 16.009291182902494 a50.959044368600686,50.959044368600686 0 0,0 -0.4751206216345298,0.7373977558220033 l -25.04352852674675 -16.44281053864595" fill="#ff2103" stroke="none" /><path d="M 117.35343817320211 111.8261652097733 l 50.88999391106543 34.680935818585674 a82.5837542662116,82.5837542662116 0 0,0 -0.8106542946467583,1.1678079728929303 l -50.28547870925654 -35.551785053665625" fill="#4aeaff" stroke="none" /><path d="M 117.14729908036423 112.12312394758627 l 50.95966603146062 36.028434841638976 a83.40941979522184,83.40941979522184 0 0,0 -0.8389407127132029,1.1652152741303465 l -50.33194552637182 -36.900283721220454" fill="#4cdcff" stroke="none" /><path d="M 116.93607887273984 112.41649034213515 l 25.752088257280043 18.87984565606842 a52.9314675767918,52.9314675767918 0 0,0 -0.5450396905131079,0.7301697345555654 l -25.42328730007184 -19.3203282701333" fill="#ff5307" stroke="none" /><path d="M 116.71984013943494 112.70617746262583 l 23.423754199437724 17.800790869824745 a50.42006825938567,50.42006825938567 0 0,0 -0.5310750178274172,0.6864860501747748 l -23.113872364392236 -18.201354914112773" fill="#ff1302" stroke="none" /><path d="M 116.498646956653 112.99209946851258 l 47.88098798696649 37.70458027326148 a81.94443686006827,81.94443686006827 0 0,0 -0.8821985419434962,1.100678325301416 l -47.22487153296814 -38.52318643214114" fill="#48f4ff" stroke="none" /><path d="M 116.27256486870786 113.27417163493432 l 48.81769460612357 39.822514904802965 a84.0,84.0 0 0,0 -0.9236160004258265,1.1125549715449181 l -48.12498260580419 -40.656931133461654" fill="#4dd2ff" stroke="none" /><path d="M 116.0416608686014 113.55231037782055 l 47.79867441885243 40.381259564001546 a83.57283276450511,83.57283276450511 0 0,0 -0.9378363827306795,1.090915588033078 l -47.096495526550974 -41.19805225119615" fill="#4cd9ff" stroke="none" /><path d="M 115.80600337817218 113.82643327865902 l 44.962415343477616 39.331247812616795 a80.73747440273036,80.73747440273036 0 0,0 -0.924025594020955,1.0381525504106097 l -44.27873089980832 -40.099374532768266" fill="#46fff4" stroke="none" /><path d="M 115.56566222782051 114.09645910891815 l 21.855677271417612 19.79277569081546 a50.48600682593857,50.48600682593857 0 0,0 -0.5888918437126739,0.6391257887984292 l -21.511739019709214 -20.166052734415224" fill="#ff1402" stroke="none" /><line stroke="#e1ed5e" stroke-width="0.3" x1="143.8653032363475" x2="146.44561519142675" y1="172.8068346515853" y2="177.08958963109032" /><path d="M 144.38136562736335 173.6633856474863 a86.0,86.0 0 0,1 -40.68145358897372,12.25698825130547" fill="none" id="id30" stroke="none" /><text fill="#e1ed5e" style="font-size:6.75px; font-family:Arial;" text-anchor="middle"><textPath startOffset="21.466115282336833" xlink:href="#id30">June</textPath></text><line stroke="#e1ed5e" stroke-width="0.3" x1="102.19456741930631" x2="102.32365962044197" y1="184.97166512339345" y2="189.96999836594603" /><path d="M 102.22038585953345 185.97133177190398 a86.0,86.0 0 0,1 -42.740103519485714,-10.115201625700543" fill="none" id="id31" stroke="none" /><text fill="#e1ed5e" style="font-size:6.75px; font-family:Arial;" text-anchor="middle"><textPath startOffset="22.20632615414155" xlink:href="#id31">July</textPath></text><line stroke="#e1ed5e" stroke-width="0.3" x1="58.666819895761336" x2="56.23545636021788" y1="174.27360380694188" y2="178.64263932499728" /><path d="M 58.180547188652646 175.14741091055294 a86.0,86.0 0 0,1 -31.652253787137756,-30.449443065178592" fill="none" id="id32" stroke="none" /><text fill="#e1ed5e" style="font-size:6.75px; font-family:Arial;" text-anchor="middle"><textPath startOffset="22.20632615414155" xlink:href="#id32">August</textPath></text><line stroke="#e1ed5e" stroke-width="0.3" x1="26.63291911575756" x2="22.317208475507996" y1="142.92168965132927" y2="145.44649492493687" /><path d="M 25.769776987707644 143.4266507060508 a86.0,86.0 0 0,1 -11.730757126820373,-40.83630448921669" fill="none" id="id33" stroke="none" /><text fill="#e1ed5e" style="font-size:6.75px; font-family:Arial;" text-anchor="middle"><textPath startOffset="21.46611528233685" xlink:href="#id33">September</textPath></text><line stroke="#e1ed5e" stroke-width="0.3" x1="15.007084014347285" x2="10.007500721073583" y1="101.09737516637583" y2="101.16192664675087" /><path d="M 14.007167355692545 101.11028546245083 a86.0,86.0 0 0,1 10.666146001902534,-42.60595125391555" fill="none" id="id34" stroke="none" /><text fill="#e1ed5e" style="font-size:6.75px; font-family:Arial;" text-anchor="middle"><textPath startOffset="22.20632615414155" xlink:href="#id34">October</textPath></text><line stroke="#e1ed5e" stroke-width="0.3" x1="26.266209847984243" x2="21.928928074336255" y1="57.711370442889674" y2="55.22380399835377" /><path d="M 25.398753493254645 57.213857153982495 a86.0,86.0 0 0,1 29.58750427330803,-30.492523968695096" fill="none" id="id35" stroke="none" /><text fill="#e1ed5e" style="font-size:6.75px; font-family:Arial;" text-anchor="middle"><textPath startOffset="21.46611528233685" xlink:href="#id35">November</textPath></text><line stroke="#e1ed5e" stroke-width="0.3" x1="56.762969772571076" x2="54.21961505331055" y1="26.818313649435495" y2="22.513508569990535" /><path d="M 56.25429882871897 25.957352633546506 a86.0,86.0 0 0,1 42.265352541879196,-11.944610805530505" fill="none" id="id36" stroke="none" /><text fill="#e1ed5e" style="font-size:6.75px; font-family:Arial;" text-anchor="middle"><textPath startOffset="22.20632615414155" xlink:href="#id36">December</textPath></text></svg>