<?xml version="1.0" encoding="utf-8" ?>
<svg baseProfile="full" height="200mm" version="1.1" viewBox="0,0,200,200" width="200mm" xmlns="http://www.w3.org/2000/svg" xmlns:ev="http://www.w3.org/2001/xml-events" xmlns:xlink="http://www.w3.org/1999/xlink"><defs /><rect fill="#1a1a1a" height="200" width="200" x="0" y="0" /><text alignment-baseline="middle" fill="#e1ed5e" style="dominant-baseline: central; font-size:9.0px; font-family:Arial;" text-anchor="middle" x="100.0" y="100.0">2025</text><line stroke="#e1ed5e" stroke-width="0.3" x1="100.0" x2="100.0" y1="15.0" y2="10.0" /><path d="M 100.0 14.0 a86.0,86.0 0 0,1 42.46469731375804,11.215312516191453" fill="none" id="id25" stroke="none" /><text fill="#e1ed5e" style="font-size:6.75px; font-family:Arial;" text-anchor="middle"><textPath startOffset="22.20632615414155" xlink:href="#id25">January</textPath></text><path d="M 100.0 79.0 l 0.0 -59.43866915479495 a80.43866915479495,80.43866915479495 0 0,0 1.3846194608628393,0.011917856839611182 l -1.023138981590311 59.4298626745639" fill="#45ffef" stroke="none" /><path d="M 100.36148047927253 79.00311137660856 l 1.0451525850342434 -60.70854079472674 a81.71753675299257,81.71753675299257 0 0,0 1.4062162485721896,0.036318416958573574 l -2.089995468801301 60.6815555856258" fill="#48f8ff" stroke="none" /><path d="M 100.72285384407766 79.0124445844662 l 2.10026038161147 -60.979590144346226 a82.01574803149605,82.01574803149605 0 0,0 1.4105113947629253,0.06073958774802673 l -3.149612608763727 60.934402830074" fill="#49f3ff" stroke="none" /><path d="M 101.08401301168833 79.027996857942 l 3.146504292358632 -60.87426736978775 a81.95553229256748,81.95553229256748 0 0,0 1.408222207557575,0.08494780924790982 l -4.193888548755819 60.81108629115954" fill="#48f4ff" stroke="none" /><path d="M 101.44485096284872 79.0497635885617 l 4.1936912635667705 -60.80822566992087 a81.952664876428,81.952664876428 0 0,0 1.4065021156840443,0.10917163394641456 l -5.239783568613156 60.72702877378599" fill="#48f4ff" stroke="none" /><path d="M 101.80526077348638 79.07773832637324 l 5.211189933859471 -60.39563980366985 a81.62004460425106,81.62004460425106 0 0,0 1.3987144370877833,0.1328247895712927 l -6.250029498037498 60.29698946958339" fill="#48faff" stroke="none" /><path d="M 102.16513564639614 79.11191278185805 l 6.362370977118631 -61.38080083131847 a82.70966273724454,82.70966273724454 0 0,0 1.4148602284142475,0.15897603215033582 l -7.417997909042604 61.26218884569753" fill="#4ae7ff" stroke="none" /><path d="M 102.52436894288641 79.15227682838746 l 7.414551044162233 -61.23372260860552 a82.68098857584997,82.68098857584997 0 0,0 1.4114246017549166,0.18324342146509118 l -8.467490374424996 61.09702086397629" fill="#4ae8ff" stroke="none" /><path d="M 102.88285421437855 79.19881850522331 l 8.324600736290265 -60.06600331139282 a81.64011651722726,81.64011651722726 0 0,0 1.3903351479990154,0.20489925972376483 l -9.357304864717936 59.91380956750809" fill="#48faff" stroke="none" /><path d="M 103.2404852339499 79.25152402106235 l 9.3608446055406 -59.93647414460946 a81.6630558463429,81.6630558463429 0 0,0 1.3869917598971664,0.22886552458701961 l -10.391165571576641 59.76646235708282" fill="#48f9ff" stroke="none" /><line stroke="#e1ed5e" stroke-width="0.3" x1="143.23703022742887" x2="145.7803849466894" y1="26.81831364943548" y2="22.513508569990506" /><path d="M 143.74570117128098 25.957352633546492 a86.0,86.0 0 0,1 28.547481713284135,27.462654790039103" fill="none" id="id26" stroke="none" /><text fill="#e1ed5e" style="font-size:6.75px; font-family:Arial;" text-anchor="middle"><textPath startOffset="19.985693538727396" xlink:href="#id26">February</textPath></text><path d="M 116.15771136456269 86.58626213691792 l 22.234411059860197 -18.45846572993597 a49.89781985344317,49.89781985344317 0 0,0 0.5429393846957842,0.6655794877615535 l -22.54884893663239 18.073002072566318" fill="#ff0500" stroke="none" /><path d="M 116.60985879189232 87.15038557335679 l 24.015537947387166 -18.578749328258837 a51.36306950070548,51.36306950070548 0 0,0 0.5349685277973961,0.7039558742754094 l -24.331782415408675 18.162608678102394" fill="#ff2b04" stroke="none" /><path d="M 116.82858285166822 87.43820079747576 l 48.1603388086269 -35.94958119599093 a81.09817486686995,81.09817486686995 0 0,0 0.8254148583789461,1.1258649392090074 l -48.77201627951948 35.11525381311043" fill="#46fffb" stroke="none" /><path d="M 117.04232023915458 87.72973835380427 l 23.416804228293543 -16.859811972008693 a49.85480861135132,49.85480861135132 0 0,0 0.4954318761562726,0.7007532539572011 l -23.7035487242537 16.4542322177197" fill="#ff0400" stroke="none" /><path d="M 117.2510076193507 88.02491185347247 l 23.715326299889327 -16.462407827487027 a49.869145692048605,49.869145692048605 0 0,0 0.4834351419477418,0.709381418044993 l -23.995185907505803 16.051748386171628" fill="#ff0400" stroke="none" /><path d="M 117.45458315368197 88.32363383020206 l 25.816036327980022 -17.269819082142536 a52.05985162259341,52.05985162259341 0 0,0 0.49184998688998693,0.7491212739214432 l -26.10948295022793 16.82287974424342" fill="#ff3d05" stroke="none" /><path d="M 117.65298651832404 88.62581576622439 l 50.66184570235329 -32.64247474746199 a81.2673524190979,81.2673524190979 0 0,0 0.7475528482630567,1.1824490807473313 l -51.2162261468623 31.765578019000454" fill="#47fffe" stroke="none" /><line stroke="#e1ed5e" stroke-width="0.3" x1="172.23445277983987" x2="176.4835382374775" y1="55.19839476539836" y2="52.563006222186495" /><path d="M 173.08426987136738 54.67131705675599 a86.0,86.0 0 0,1 12.851231095245387,41.99856678651699" fill="none" id="id27" stroke="none" /><text fill="#e1ed5e" style="font-size:6.75px; font-family:Arial;" text-anchor="middle"><textPath startOffset="22.20632615414155" xlink:href="#id27">March</textPath></text><path d="M 117.84615892207809 88.93136811851018 l 51.35512256376072 -31.851725033325458 a81.43079513904692,81.43079513904692 0 0,0 0.7285504733151366,1.1975454186814205 l -51.89578883536208 30.963011841436956" fill="#47fdff" stroke="none" /><path d="M 118.03404312379186 89.2402003453031 l 51.94749994167489 -30.993864664624148 a81.4910108779755,81.4910108779755 0 0,0 0.7083521739717974,1.2108034810486201 l -52.473311790117016 30.095081771221633" fill="#47fcff" stroke="none" /><path d="M 118.21658344932153 89.55222093294921 l 50.9585105538551 -29.226295991989836 a79.74475444904645,79.74475444904645 0 0,0 0.6726749475076113,1.196613672528345 l -51.454043142655145 28.344798809526697" fill="#43ffe3" stroke="none" /><path d="M 118.3937258080291 89.86733742301442 l 53.03129403803209 -29.213668514821897 a81.54549178462517,81.54549178462517 0 0,0 0.6667000230793979,1.2352938885807632 l -53.52630216032995 28.296493642908676" fill="#47fbff" stroke="none" /><path d="M 118.56541770881063 90.18545643968196 l 53.81782594666375 -28.450606679561982 a81.87524464066269,81.87524464066269 0 0,0 0.6479473008088513,1.2516279476790588 l -54.29958268063272 27.52000600962258" fill="#48f6ff" stroke="none" /><path d="M 118.73160827565052 90.50648371742162 l 53.3481250849099 -27.03779017186565 a80.80856583678485,80.80856583678485 0 0,0 0.6181469985368946,1.2461466292092434 l -53.80563209640021 26.115483954157458" fill="#46fff6" stroke="none" /><path d="M 118.89224826269711 90.83032412892265 l 54.98193702668873 -26.68642367431738 a82.11610759637702,82.11610759637702 0 0,0 0.6062585541155704,1.2769351301749692 l -55.433153774646065 25.73604612850187" fill="#49f2ff" stroke="none" /><path d="M 119.04729006885535 91.15688171328212 l 54.72834075630466 -25.408821370088443 a81.33903782258432,81.33903782258432 0 0,0 0.5786601805297515,1.2750010034837038 l -55.15760325379776 24.462998357762675" fill="#47ffff" stroke="none" /><path d="M 119.196687751892 91.48605970444005 l 26.2537924340654 -11.643843156933464 a49.72004005279686,49.72004005279686 0 0,0 0.3402491267895676,0.7853418960333852 l -26.450332270697647 11.190202116313475" fill="#ff0000" stroke="none" /><path d="M 119.34039704204932 91.81776055985345 l 56.49744494801374 -23.902075087501053 a82.34550088753356,82.34550088753356 0 0,0 0.5410425383320483,1.3101774216802409 l -56.90050917323198 22.92602309536751" fill="#49eeff" stroke="none" /><path d="M 119.47837535516314 92.15188598940014 l 54.96960472994103 -22.1480342776038 a80.2637567702881,80.2637567702881 0 0,0 0.5053041121789725,1.2859438493412454 l -55.342702392001705 21.198541423366766" fill="#45ffec" stroke="none" /><path d="M 119.61058180528143 92.48833698450437 l 58.11144413156672 -22.259083896356955 a83.22866505848617,83.22866505848617 0 0,0 0.5009391127870364,1.34226777101164 l -58.48598783285538 21.255492988315982" fill="#4bdfff" stroke="none" /><path d="M 119.7369772167798 92.82701384747503 l 56.45937909401531 -20.51896498503455 a81.07236812161484,81.07236812161484 0 0,0 0.4653821051673179,1.315697880336267 l -56.804214279992436 19.54406947827167" fill="#46fffa" stroke="none" /><path d="M 119.85752413597 93.16781622104841 l 56.1480510410541 -19.31830982129116 a80.37845341586636,80.37845341586636 0 0,0 0.43887671386204524,1.3121855131649902 l -56.47226504868792 18.348951205203853" fill="#45ffee" stroke="none" /><path d="M 119.97218684219823 93.5106431181261 l 29.845106658916393 -9.697262989653806 a52.38100223021255,52.38100223021255 0 0,0 0.2712450832029037,0.8599210381563402 l -30.007607225887504 9.182091785071046" fill="#ff4506" stroke="none" /><path d="M 120.08093135843002 93.85539295169968 l 58.12602938428263 -17.786107798951125 a81.78635474033953,81.78635474033953 0 0,0 0.4003407125732037,1.3497498627678726 l -58.42357599396754 16.782928549436722" fill="#48f7ff" stroke="none" /><path d="M 120.18372546131832 94.20196356495316 l 58.726731489950176 -16.87001389027534 a82.10177051567973,82.10177051567973 0 0,0 0.37850178789725275,1.3616723161858295 l -59.0084200484138 15.85663027067056" fill="#49f2ff" stroke="none" /><path d="M 120.28053869075195 94.5502522615342 l 59.193954993425 -15.906486867795481 a82.29388739702333,82.29388739702333 0 0,0 0.3558374685858089,1.3711869216999464 l -59.45898879388111 14.885203520546685" fill="#49eeff" stroke="none" /><path d="M 120.37134235888165 94.90015583598534 l 60.365782878218944 -15.112214015854425 a83.22866505848617,83.22866505848617 0 0,0 0.3359552797637169,1.3927515262297523 l -60.61697095824348 14.070877257965266" fill="#4bdfff" stroke="none" /><path d="M 120.45610955862082 95.25157060432595 l 59.597470709429594 -13.834223023371344 a82.18205816758453,82.18205816758453 0 0,0 0.30800901264352115,1.3807440091827865 l -59.82677410907515 12.806300844638594" fill="#49f0ff" stroke="none" /><path d="M 120.53481517161879 95.60439243477599 l 59.88565596951903 -12.818904880713838 a82.24227390651313,82.24227390651313 0 0,0 0.28440437317346007,1.3868567277510915 l -60.09743963860749 11.786172496799335" fill="#49efff" stroke="none" /><path d="M 120.6074358757038 95.95851677861258 l 60.22124745507429 -11.81045340277644 a82.36844021664919,82.36844021664919 0 0,0 0.26088938922306926,1.393681549247131 l -60.41562256820722 10.772093776066747" fill="#49edff" stroke="none" /><path d="M 120.67395015179393 96.31383870115 l 59.67320089100704 -10.639720135140408 a81.61430977197213,81.61430977197213 0 0,0 0.2346922019257747,1.385166660929736 l -59.84750495445304 9.610967685894835" fill="#48faff" stroke="none" /><path d="M 120.73433829027371 96.67025291283417 l 60.01171117458446 -9.637337718809441 a81.7806199080606,81.7806199080606 0 0,0 0.211243650518712,1.391831721155553 l -60.16871071854247 8.602906885261806" fill="#48f7ff" stroke="none" /><path d="M 120.78858239683441 97.02765380044208 l 60.23399733205036 -8.612241548580249 a81.84657047926811,81.84657047926811 0 0,0 0.18740526533514307,1.3963869032206417 l -60.37331859644334 7.574136303294943" fill="#48f6ff" stroke="none" /><path d="M 120.83666639777658 97.38593545837742 l 60.50134872541789 -7.590198326558293 a81.97560420554366,81.97560420554366 0 0,0 0.1635985064081832,1.4016120949811424 l -60.62303758482967 6.547642493252298" fill="#48f4ff" stroke="none" /><path d="M 120.87857604477298 97.74499172005257 l 61.14759149574471 -6.604297382448555 a82.50320877520366,82.50320877520366 0 0,0 0.14034532180425946,1.4132582377067304 l -61.252213943231204 5.55076361403739" fill="#4aebff" stroke="none" /><path d="M 120.91429891909075 98.10471618934814 l 60.735329672462186 -5.503922818935485 a81.98420645396203,81.98420645396203 0 0,0 0.11526790543820661,1.4065604092441686 l -60.82107206171988 4.457648492483548" fill="#48f4ff" stroke="none" /><path d="M 120.94382443527127 98.46500227214037 l 61.41303942662378 -4.50103448260693 a82.57776159482954,82.57776159482954 0 0,0 0.09169831412236663,1.4185323328385036 l -61.48141833175056 3.443243085515391" fill="#4aeaff" stroke="none" /><path d="M 120.96714384426684 98.82574320788733 l 60.76282294170309 -3.402998428264431 a81.85804014382595,81.85804014382595 0 0,0 0.0666807478065933,1.4075251966449605 l -60.81239729774318 2.3565621249964708" fill="#48f6ff" stroke="none" /><path d="M 120.98425023603335 99.18683210126433 l 60.374011659477326 -2.339574092338892 a81.4193254744891,81.4193254744891 0 0,0 0.04221516633245328,1.40091585097396 l -60.405338520265424 1.2999880939399329" fill="#47feff" stroke="none" /><line stroke="#e1ed5e" stroke-width="0.3" x1="184.98032266829074" x2="189.97916517819016" y1="98.17113171792111" y2="98.06355123074" /><path d="M 185.9800911702706 98.14961562048488 a86.0,86.0 0 0,1 -9.607161424134198,41.387399972396054" fill="none" id="id28" stroke="none" /><text fill="#e1ed5e" style="font-size:6.75px; font-family:Arial;" text-anchor="middle"><textPath startOffset="21.466115282336823" xlink:href="#id28">April</textPath></text><path d="M 120.99513854157772 99.54816195383933 l 61.930450764239666 -1.3328101558248004 a82.94479086067999,82.94479086067999 0 0,0 0.018433464217588843,1.4276921180425581 l -61.94421723557497 0.26658177972177954" fill="#4be3ff" stroke="none" /><path d="M 120.99980553446 99.90962569577887 l 61.02951995750484 -0.26264530850337237 a82.03008511219332,82.03008511219332 0 0,0 -0.006076877416730365,1.4120522985810913 l -61.024998782798605 -0.7879164682814036" fill="#49f3ff" stroke="none" /><path d="M 120.99824983174949 100.27111621757518 l 62.994749495248485 0.8133486527255557 a84.0,84.0 0 0,0 -0.03111174925997018,1.4456407368395405 l -62.97141568330351 -1.8975792053552112" fill="#4dd2ff" stroke="none" /><path d="M 120.9904718944345 100.63252640178507 l 61.1141730742834 1.8416130988935033 a82.14191434163214,82.14191434163214 0 0,0 -0.054752933538191134,1.4129299254297167 l -61.073418007894006 -2.893320271337226" fill="#49f1ff" stroke="none" /><path d="M 120.9764740272857 100.99374915477107 l 61.68635762491267 2.922357955437313 a82.75554139547583,82.75554139547583 0 0,0 -0.07965673694669963,1.4223245485524723 l -61.62691453707844 -3.9837542203252085" fill="#4ae7ff" stroke="none" /><path d="M 120.95626037817324 101.35467743843564 l 31.287026212955183 2.0224900703457234 a52.35232806881798,52.35232806881798 0 0,0 -0.06587279378627428,0.8987819350353831 l -31.247576860504573 -2.5607451418778764" fill="#ff4406" stroke="none" /><path d="M 120.92983693683757 101.71520430193887 l 61.294862676431514 5.023126193798857 a82.50034135906422,82.50034135906422 0 0,0 -0.12817175924374138,1.4143646828742493 l -61.1993163209107 -6.077472265221677" fill="#4aebff" stroke="none" /><path d="M 120.89721153311464 102.0752229133903 l 59.975215859251286 5.955911485578814 a81.27021983523734,81.27021983523734 0 0,0 -0.15022489954797505,1.390895996667423 l -59.86380865820226 -6.987403804131028" fill="#47fffe" stroke="none" /><path d="M 120.8583938346157 102.4346265915055 l 61.25652013038748 7.149963414969798 a82.67238632743161,82.67238632743161 0 0,0 -0.17714917198552052,1.4120531993496779 l -61.12436944915511 -8.203334368606871" fill="#4ae8ff" stroke="none" /><path d="M 120.81339534386255 102.79330883721812 l 60.243369145582584 8.085097728553489 a81.78348732420008,81.78348732420008 0 0,0 -0.19926332095783106,1.3936472026760856 l -60.09527177360815 -9.120890403209984" fill="#48f7ff" stroke="none" /><path d="M 120.76222939487914 103.15116336523771 l 60.14346592495031 9.128205014817427 a81.83223339857084,81.83223339857084 0 0,0 -0.2233561931001743,1.390839227644921 l -59.97742797748885 -10.162123472155553" fill="#48f6ff" stroke="none" /><path d="M 120.70491114924044 103.5080841355445 l 61.7952684766416 10.470124669072643 a83.67598197624142,83.67598197624142 0 0,0 -0.25283517843592573,1.418033952349024 l -61.60588685586649 -11.532277372154885" fill="#4cd7ff" stroke="none" /><path d="M 120.64145759157962 103.86396538481128 l 59.4723130453673 11.13288429087017 a81.50534795867279,81.50534795867279 0 0,0 -0.27001583430127063,1.3768049218518985 l -59.27186727809036 -12.154952939790013" fill="#47fcff" stroke="none" /><path d="M 120.5718875245553 104.21870165774334 l 61.22128559433104 12.554722492901915 a83.49533475945563,83.49533475945563 0 0,0 -0.3008454650761253,1.405449856223255 l -60.996106090530475 -13.606686168541339" fill="#4cdaff" stroke="none" /><path d="M 120.49622156327973 104.57218783832717 l 61.45228252057208 13.708447574619445 a83.96272359018707,83.96272359018707 0 0,0 -0.3268126432948244,1.4079003138325663 l -61.20720931134671 -14.764216545800576" fill="#4dd3ff" stroke="none" /><path d="M 120.41448212921028 104.9243191809786 l 59.35354348604178 14.317080923113748 a82.05589185744846,82.05589185744846 0 0,0 -0.34302756669104845,1.370224613705956 l -59.098304605055674 -15.3366333762171" fill="#49f3ff" stroke="none" /><path d="M 120.32669344350535 105.2749913415812 l 60.23625157767921 15.631942617951427 a83.23153247462565,83.23153247462565 0 0,0 -0.3718147700222129,1.383661077742172 l -59.958248731315216 -16.66649462886915" fill="#4bdfff" stroke="none" /><path d="M 120.23288151984713 105.62410040840565 l 59.25100495509915 16.469903253253303 a82.49747394292474,82.49747394292474 0 0,0 -0.39208834941909726,1.3649109814868923 l -58.958723968793954 -17.487371710244776" fill="#4aebff" stroke="none" /><path d="M 120.13307415673323 105.97154293290107 l 58.716808189931946 17.4156186114197 a82.24514132265259,82.24514132265259 0 0,0 -0.41425400206600943,1.353806047327868 l -58.40832741535981 -18.423751631299627" fill="#49efff" stroke="none" /><path d="M 120.02730092923936 106.31721596034902 l 57.91883396494783 18.269350604004217 a81.73187383368986,81.73187383368986 0 0,0 -0.43476588791359994,1.3380718157570775 l -57.59577582601798 -19.26362131973909" fill="#48f8ff" stroke="none" /><path d="M 119.9155931802556 106.66101706037122 l 57.962887711594576 19.386406441465468 a82.11897501251649,82.11897501251649 0 0,0 -0.4599021150007456,1.336690821600276 l -57.620594765650594 -20.381269966155045" fill="#49f1ff" stroke="none" /><path d="M 119.79798401119884 107.00284435728193 l 57.69358355564226 20.407087197639264 a82.1963952482818,82.1963952482818 0 0,0 -0.48329812599943167,1.3298288744646913 l -57.3337611686376 -21.397163869110084" fill="#49f0ff" stroke="none" /><path d="M 119.67450827220406 107.3425965602758 l 56.13292754281151 20.949008483040735 a80.91466023394474,80.91466023394474 0 0,0 -0.4982251634760408,1.300708685365863 l -55.76400809974196 -21.912140735239742" fill="#46fff8" stroke="none" /><path d="M 119.54520255179757 107.68017299344265 l 57.12508223857269 22.446966855123552 a82.37704246506757,82.37704246506757 0 0,0 -0.5299487182018284,1.3152892577988835 l -56.73023090611347 -23.426955480765248" fill="#49edff" stroke="none" /><path d="M 119.41010516605496 108.01547362559984 l 29.211894652986814 12.063158295211146 a52.60466068909016,52.60466068909016 0 0,0 -0.3528245163223746,0.8339729339088507 l -28.999919155472128 -12.56420575478616" fill="#ff4b06" stroke="none" /><path d="M 119.26925614724726 108.34839909993367 l 56.734282049486985 24.580109661627112 a82.83009421510172,82.83009421510172 0 0,0 -0.5780708933224655,1.3033972581832272 l -56.30277007143325 -25.553055256303026" fill="#4ae5ff" stroke="none" /><path d="M 119.12269723197855 108.67885076344098 l 56.749265164055565 25.755697395561373 a83.32042237494879,83.32042237494879 0 0,0 -0.6039753914806509,1.3009092610760775 l -56.297515155735084 -26.72872672391628" fill="#4bddff" stroke="none" /><path d="M 118.97047184881838 109.00673069616215 l 28.866269848877877 13.705021193122437 a52.95448545810386,52.95448545810386 0 0,0 -0.39803300367643635,0.8200658810548379 l -28.626083588586724 -14.199876030142551" fill="#ff5307" stroke="none" /><path d="M 118.81262510543309 109.33194174019688 l 56.032013757882474 27.79449890932336 a83.54694824996587,83.54694824996587 0 0,0 -0.6501596865860554,1.2828267422997357 l -55.54527540151015 -28.754879863325787" fill="#4cd9ff" stroke="none" /><path d="M 118.64920377521936 109.65438752849418 l 55.005432262780026 28.475411907014177 a82.93905602840107,82.93905602840107 0 0,0 -0.6672545469615916,1.2621941414098483 l -54.50712520759354 -29.41802106351016" fill="#4be4ff" stroke="none" /><line stroke="#e1ed5e" stroke-width="0.3" x1="174.80103733775053" x2="179.2010983576182" y1="140.37084112569926" y2="142.7455964860345" /><path d="M 175.68104954172406 140.8457921977663 a86.0,86.0 0 0,1 -30.038265399797805,32.042727171017184" fill="none" id="id29" stroke="none" /><text fill="#e1ed5e" style="font-size:6.75px; font-family:Arial;" text-anchor="middle"><textPath startOffset="22.206326154141568" xlink:href="#id29">May</textPath></text><path d="M 118.48025628344425 109.97397251340804 l 28.06229986730464 15.145493831178946 a52.88853488689635,52.88853488689635 0 0,0 -0.4392861025629315,0.7974318754255997 l -27.797437355290203 -15.626296225002351" fill="#ff5207" stroke="none" /><path d="M 118.30583269289576 110.29060199501025 l 53.30529170388624 29.96550609607051 a82.1505165900505,82.1505165900505 0 0,0 -0.7035526868462576,1.2267034121489084 l -52.7815870208876 -30.878629354077734" fill="#49f1ff" stroke="none" /><path d="M 118.12598468904814 110.60418214915192 l 52.94741119468483 30.97564089711081 a82.34263347139411,82.34263347139411 0 0,0 -0.7262585935368315,1.2172511770839802 l -52.40637172544978 -31.882454168080894" fill="#49eeff" stroke="none" /><path d="M 117.94076556474637 110.91462005526583 l 52.859565703349475 32.15816370022202 a82.87310545719357,82.87310545719357 0 0,0 -0.7519170004819661,1.2123296203620209 l -52.29818406319955 -33.06328965194931" fill="#4ae5ff" stroke="none" /><path d="M 117.75023020441432 111.22182372390056 l 25.327464244157714 16.012205805119578 a50.96449865732101,50.96449865732101 0 0,0 -0.47517147512049057,0.7374766815615222 l -25.048087905660175 -16.445804086602553" fill="#ff2103" stroke="none" /><path d="M 117.35343817320211 111.8261652097733 l 50.899258850105255 34.68724976621091 a82.59496609166627,82.59496609166627 0 0,0 -0.8107643515766765,1.167966518108911 l -50.29463359136644 -35.558257546506844" fill="#4ae9ff" stroke="none" /><path d="M 117.14729908036423 112.12312394758627 l 24.79026025163577 17.526690140236234 a51.36020208456601,51.36020208456601 0 0,0 -0.5165863118063347,0.7174932051833537 l -24.484894147453833 -17.950816950870717" fill="#ff2b04" stroke="none" /><line stroke="#e1ed5e" stroke-width="0.3" x1="143.8653032363475" x2="146.44561519142675" y1="172.8068346515853" y2="177.08958963109032" /><path d="M 144.38136562736335 173.6633856474863 a86.0,86.0 0 0,1 -40.68145358897372,12.25698825130547" fill="none" id="id30" stroke="none" /><text fill="#e1ed5e" style="font-size:6.75px; font-family:Arial;" text-anchor="middle"><textPath startOffset="21.466115282336833" xlink:href="#id30">June</textPath></text><line stroke="#e1ed5e" stroke-width="0.3" x1="102.19456741930631" x2="102.32365962044197" y1="184.97166512339345" y2="189.96999836594603" /><path d="M 102.22038585953345 185.97133177190398 a86.0,86.0 0 0,1 -42.740103519485714,-10.115201625700543" fill="none" id="id31" stroke="none" /><text fill="#e1ed5e" style="font-size:6.75px; font-family:Arial;" text-anchor="middle"><textPath startOffset="22.20632615414155" xlink:href="#id31">July</textPath></text><line stroke="#e1ed5e" stroke-width="0.3" x1="58.666819895761336" x2="56.23545636021788" y1="174.27360380694188" y2="178.64263932499728" /><path d="M 58.180547188652646 175.14741091055294 a86.0,86.0 0 0,1 -31.652253787137756,-30.449443065178592" fill="none" id="id32" stroke="none" /><text fill="#e1ed5e" style="font-size:6.75px; font-family:Arial;" text-anchor="middle"><textPath startOffset="22.20632615414155" xlink:href="#id32">August</textPath></text><line stroke="#e1ed5e" stroke-width="0.3" x1="26.63291911575756" x2="22.317208475507996" y1="142.92168965132927" y2="145.44649492493687" /><path d="M 25.769776987707644 143.4266507060508 a86.0,86.0 0 0,1 -11.730757126820373,-40.83630448921669" fill="none" id="id33" stroke="none" /><text fill="#e1ed5e" style="font-size:6.75px; font-family:Arial;" text-anchor="middle"><textPath startOffset="21.46611528233685" xlink:href="#id33">September</textPath></text><line stroke="#e1ed5e" stroke-width="0.3" x1="15.007084014347285" x2="10.007500721073583" y1="101.09737516637583" y2="101.16192664675087" /><path d="M 14.007167355692545 101.11028546245083 a86.0,86.0 0 0,1 10.666146001902534,-42.60595125391555" fill="none" id="id34" stroke="none" /><text fill="#e1ed5e" style="font-size:6.75px; font-family:Arial;" text-anchor="middle"><textPath startOffset="22.20632615414155" xlink:href="#id34">October</textPath></text><line stroke="#e1ed5e" stroke-width="0.3" x1="26.266209847984243" x2="21.928928074336255" y1="57.711370442889674" y2="55.22380399835377" /><path d="M 25.398753493254645 57.213857153982495 a86.0,86.0 0 0,1 29.58750427330803,-30.492523968695096" fill="none" id="id35" stroke="none" /><text fill="#e1ed5e" style="font-size:6.75px; font-family:Arial;" text-anchor="middle"><textPath startOffset="21.46611528233685" xlink:href="#id35">November</textPath></text><line stroke="#e1ed5e" stroke-width="0.3" x1="56.762969772571076" x2="54.21961505331055" y1="26.818313649435495" y2="22.513508569990535" /><path d="M 56.25429882871897 25.957352633546506 a86.0,86.0 0 0,1 42.265352541879196,-11.944610805530505" fill="none" id="id36" stroke="none" /><text fill="#e1ed5e" style="font-size:6.75px; font-family:Arial;" text-anchor="middle"><textPath startOffset="22.20632615414155" xlink:href="#id36">December</textPath></text></svg>