<?xml version="1.0" encoding="utf-8" ?>
<svg baseProfile="full" height="200mm" version="1.1" viewBox="0,0,200,200" width="200mm" xmlns="http://www.w3.org/2000/svg" xmlns:ev="http://www.w3.org/2001/xml-events" xmlns:xlink="http://www.w3.org/1999/xlink"><defs /><rect fill="#1a1a1a" height="200" width="200" x="0" y="0" /><text alignment-baseline="middle" fill="#e1ed5e" style="dominant-baseline: central; font-size:9.0px; font-family:Arial;" text-anchor="middle" x="100.0" y="100.0">2026</text><line stroke="#e1ed5e" stroke-width="0.3" x1="100.0" x2="100.0" y1="15.0" y2="10.0" /><path d="M 100.0 14.0 a86.0,86.0 0 0,1 42.46469731375804,11.215312516191453" fill="none" id="id37" stroke="none" /><text fill="#e1ed5e" style="font-size:6.75px; font-family:Arial;" text-anchor="middle"><textPath startOffset="22.20632615414155" xlink:href="#id37">January</textPath></text><path d="M 100.0 79.0 l 0.0 -12.486239065360806 a33.486239065360806,33.486239065360806 0 0,0 0.5764105593514803,0.004961347663646372 l -0.21493008007895195 12.484389094305719" fill="#ff6209" stroke="none" /><path d="M 100.36148047927253 79.00311137660856 l 0.22011975012924778 -12.785835314188754 a33.7877299543724,33.7877299543724 0 0,0 0.5814278887018434,0.015016566985808524 l -0.44017427402595893 12.780151955060587" fill="#ff6709" stroke="none" /><path d="M 100.72285384407766 79.0124445844662 l 0.42509074762159493 -12.34221232332606 a33.3495306460519,33.3495306460519 0 0,0 0.5735470823016469,0.024698143852245086 l -0.6374786623125733 12.33306645294962" fill="#ff6008" stroke="none" /><path d="M 101.08401301168833 79.027996857942 l 0.6425822720627407 -12.431804123588504 a33.44840012787352,33.44840012787352 0 0,0 0.5747358177016545,0.03466963405920121 l -0.8564801386040071 12.418901220149" fill="#ff6209" stroke="none" /><path d="M 101.44485096284872 79.0497635885617 l 0.890408459042897 -12.910859458413471 a33.941526926094916,33.941526926094916 0 0,0 0.5825171091517556,0.045214538889556045 l -1.1125157575569937 12.89361965733545" fill="#ff6909" stroke="none" /><path d="M 101.80526077348638 79.07773832637324 l 1.1149816024334465 -12.922197828705164 a33.97021128193205,33.97021128193205 0 0,0 0.5821440698953738,0.05528159396497037 l -1.3372507994190646 12.901090690225015" fill="#ff6a09" stroke="none" /><path d="M 102.16513564639614 79.11191278185805 l 0.6358422420539077 -6.134270723918867 a27.16713650498416,27.16713650498416 0 0,0 0.46473047632794007,0.052217883902748556 l -0.741339421891573 6.122416886545518" fill="#ff0100" stroke="none" /><path d="M 102.52436894288641 79.15227682838746 l 0.7625415092667998 -6.297516191860874 a27.34351477811038,27.34351477811038 0 0,0 0.46677368184669626,0.06060062039806979 l -0.870829919621342 6.283457248298667" fill="#ff0400" stroke="none" /><path d="M 102.88285421437855 79.19881850522331 l 0.8512249358623082 -6.141997849020052 a27.20070330436804,27.20070330436804 0 0,0 0.4632292978951797,0.068267957087674 l -0.9568232141861437 6.126435407771409" fill="#ff0100" stroke="none" /><path d="M 103.2404852339499 79.25152402106235 l 1.9214629959684941 -12.302919451255919 a33.452061960533584,33.452061960533584 0 0,0 0.5681606426550023,0.09375137422631559 l -2.1329528447623716 12.268021814089979" fill="#ff6209" stroke="none" /><path d="M 103.59715602781102 79.31037775812273 l 2.115389933527745 -12.167005901490498 a33.3495306460519,33.3495306460519 0 0,0 0.5647264669840183,0.10320015220059413 l -2.3245115216146637 12.128790267939166" fill="#ff6008" stroke="none" /><path d="M 103.95276090670814 79.375362276772 l 2.342432144168254 -12.22229613805523 a33.44473829521346,33.44473829521346 0 0,0 0.5644732704002305,0.11322802775346519 l -2.5524718240356097 12.180164154224556" fill="#ff6209" stroke="none" /><path d="M 104.307194497241 79.44645832069477 l 1.2677865055089328 -6.049762275218787 a27.181173530181056,27.181173530181056 0 0,0 0.4571061522966179,0.09990570011637111 l -1.3717353819590787 6.027043077006545" fill="#ff0100" stroke="none" /><path d="M 104.66035177308747 79.52364482259891 l 2.750649079009374 -12.085625775170415 a33.39469324885931,33.39469324885931 0 0,0 0.5594029555286303,0.13239260598901303 l -2.9582757215005278 12.036487257040534" fill="#ff6109" stroke="none" /><path d="M 105.01212808612495 79.60689891045804 l 1.4904267655912846 -6.06417537121664 a27.244645296288763,27.244645296288763 0 0,0 0.4544550989628236,0.11585072359050162 l -1.5945907532391332 6.03762165145727" fill="#ff0200" stroke="none" /><line stroke="#e1ed5e" stroke-width="0.3" x1="143.23703022742887" x2="145.7803849466894" y1="26.81831364943548" y2="22.513508569990506" /><path d="M 143.74570117128098 25.957352633546492 a86.0,86.0 0 0,1 28.547481713284135,27.462654790039103" fill="none" id="id38" stroke="none" /><text fill="#e1ed5e" style="font-size:6.75px; font-family:Arial;" text-anchor="middle"><textPath startOffset="19.985693538727396" xlink:href="#id38">February</textPath></text><line stroke="#e1ed5e" stroke-width="0.3" x1="172.23445277983987" x2="176.4835382374775" y1="55.19839476539836" y2="52.563006222186495" /><path d="M 173.08426987136738 54.67131705675599 a86.0,86.0 0 0,1 12.851231095245387,41.99856678651699" fill="none" id="id39" stroke="none" /><text fill="#e1ed5e" style="font-size:6.75px; font-family:Arial;" text-anchor="middle"><textPath startOffset="22.20632615414155" xlink:href="#id39">March</textPath></text><path d="M 118.21658344932153 89.55222093294921 l 5.343898205046689 -3.0648923799822922 a27.160423145107384,27.160423145107384 0 0,0 0.22910768663904368,0.4075570100081916 l -5.395863532978166 2.972451860039307" fill="#ff0100" stroke="none" /><path d="M 118.3937258080291 89.86733742301442 l 10.87779146350037 -5.992314533380213 a33.419105466593045,33.419105466593045 0 0,0 0.273228082856093,0.5062501413781635 l -10.979327645574928 5.804183408669592" fill="#ff6109" stroke="none" /><path d="M 118.56541770881063 90.18545643968196 l 11.176803389753038 -5.90857827463711 a33.642477258856694,33.642477258856694 0 0,0 0.2662410650260614,0.5142929948013819 l -11.276853887939216 5.715312557575383" fill="#ff6509" stroke="none" /><path d="M 118.73160827565052 90.50648371742162 l 11.181042819424745 -5.666753783250823 a33.53506350082827,33.53506350082827 0 0,0 0.25652724601808047,0.5171432744677178 l -11.276930078396234 5.473450920284156" fill="#ff6309" stroke="none" /><path d="M 118.89224826269711 90.83032412892265 l 5.58603080079864 -2.711275605578217 a27.20924758057485,27.20924758057485 0 0,0 0.2008843280523405,0.423113626769095 l -5.631873322692737 2.614719563168582" fill="#ff0200" stroke="none" /><path d="M 119.04729006885535 91.15688171328212 l 5.6230164352184815 -2.6106075607102865 a27.199482693481357,27.199482693481357 0 0,0 0.1935018902000789,0.4263557654083463 l -5.667120642381907 2.5134297864598776" fill="#ff0100" stroke="none" /><path d="M 119.196687751892 91.48605970444005 l 11.304672728547404 -5.013745595888608 a33.366619198465514,33.366619198465514 0 0,0 0.22833776952195523,0.527035053827814 l -11.389301207912041 4.818411397474191" fill="#ff6108" stroke="none" /><path d="M 119.34039704204932 91.81776055985345 l 11.481481309481287 -4.857409545289706 a33.46670929117382,33.46670929117382 0 0,0 0.21988952826029468,0.5324799341632326 l -11.56339252462778 4.659055040673171" fill="#ff6209" stroke="none" /><path d="M 119.47837535516314 92.15188598940014 l 5.7627324570769485 -2.3218867339331712 a27.21290941323491,27.21290941323491 0 0,0 0.17132010242450696,0.4359909738935125 l -5.801846109383155 2.2223467551438745" fill="#ff0200" stroke="none" /><path d="M 119.61058180528143 92.48833698450437 l 11.717107481611812 -4.488136241552347 a33.547269609695135,33.547269609695135 0 0,0 0.201915283188778,0.5410325729829872 l -11.792627353302214 4.285780531540027" fill="#ff6309" stroke="none" /><path d="M 119.7369772167798 92.82701384747503 l 11.59072041092358 -4.212401731642071 a33.33244209363829,33.33244209363829 0 0,0 0.19133920016540562,0.5409416848813978 l -11.661512691898796 4.012262420334059" fill="#ff6008" stroke="none" /><path d="M 119.85752413597 93.16781622104841 l 11.71172062005217 -4.0295369702706685 a33.38553866720916,33.38553866720916 0 0,0 0.18228934345092454,0.5450219346926867 l -11.779347257274864 3.8273419326556675" fill="#ff6108" stroke="none" /><path d="M 120.83666639777658 97.38593545837742 l 6.135519891373543 -0.7697318124827791 a27.18361475195443,27.18361475195443 0 0,0 0.05425027134956396,0.4647831948406735 l -6.147860515726697 0.6640048793172528" fill="#ff0100" stroke="none" /><path d="M 120.87857604477298 97.74499172005257 l 12.253853446022564 -1.323487814628101 a33.32511842831817,33.32511842831817 0 0,0 0.056689000820935954,0.5708505019446957 l -12.274819572525729 1.1123617819789704" fill="#ff6008" stroke="none" /><path d="M 120.91429891909075 98.10471618934814 l 14.445326167895342 -1.3090562075024614 a35.50451916649713,35.50451916649713 0 0,0 0.04991853595864142,0.6091325777104261 l -14.465719187673479 1.0602097125842667" fill="#ff800b" stroke="none" /><path d="M 120.94382443527127 98.46500227214037 l 6.1488132304080425 -0.4506538128640186 a27.16530558865413,27.16530558865413 0 0,0 0.030165660548183943,0.4666494170430163 l -6.155659481960642 0.34474533156796705" fill="#ff0100" stroke="none" /><path d="M 120.96714384426684 98.82574320788733 l 12.39114388890018 -0.693961227225758 a33.41056119038623,33.41056119038623 0 0,0 0.02721591185054692,0.5744848841591008 l -12.401253408984223 0.48056523644365745" fill="#ff6109" stroke="none" /><path d="M 120.98425023603335 99.18683210126433 l 12.628726608962152 -0.4893801286587293 a33.63820512075329,33.63820512075329 0 0,0 0.017441097872306986,0.5787851284366394 l -12.635279401290104 0.27192485279709083" fill="#ff6509" stroke="none" /><line stroke="#e1ed5e" stroke-width="0.3" x1="184.98032266829074" x2="189.97916517819016" y1="98.17113171792111" y2="98.06355123074" /><path d="M 185.9800911702706 98.14961562048488 a86.0,86.0 0 0,1 -9.607161424134198,41.387399972396054" fill="none" id="id40" stroke="none" /><text fill="#e1ed5e" style="font-size:6.75px; font-family:Arial;" text-anchor="middle"><textPath startOffset="21.466115282336823" xlink:href="#id40">April</textPath></text><path d="M 120.99513854157772 99.54816195383933 l 12.346671754158065 -0.2657137046720655 a33.3495306460519,33.3495306460519 0 0,0 0.007411524864411967,0.5740307685356759 l -12.349416286140192 0.05314667807592684" fill="#ff6008" stroke="none" /><path d="M 120.99980553446 99.90962569577887 l 25.74732761451359 -0.110805636504433 a46.74756604376762,46.74756604376762 0 0,0 -0.0034631102477821994,0.8047048591366318 l -25.745420206976306 -0.3324087008358835" fill="#e3ff1b" stroke="none" /><path d="M 120.99824983174949 100.27111621757518 l 6.245955622888084 0.08064385733040834 a27.24647621261879,27.24647621261879 0 0,0 -0.010091494477913545,0.4689120946225148 l -6.243642065725163 -0.188145767743038" fill="#ff0200" stroke="none" /><path d="M 120.9764740272857 100.99374915477107 l 12.980065825480747 0.6149236247314798 a33.99462349966578,33.99462349966578 0 0,0 -0.032721685292037846,0.5842676720741835 l -12.96755778930118 -0.8382630131410866" fill="#ff6a09" stroke="none" /><path d="M 120.95626037817324 101.35467743843564 l 12.6283256979692 0.8163340023238984 a33.654683367723564,33.654683367723564 0 0,0 -0.04234631198273019,0.5777817827028423 l -12.61240282732213 -1.033588921523511" fill="#ff6509" stroke="none" /><path d="M 120.92983693683757 101.71520430193887 l 6.131324837203136 0.5024632905211954 a27.151878868900578,27.151878868900578 0 0,0 -0.04218290523494421,0.4654848442228093 l -6.121767335691117 -0.6079295232925753" fill="#ff0100" stroke="none" /><path d="M 120.89721153311464 102.0752229133903 l 6.164279608855638 0.6121512560932182 a27.19460024993461,27.19460024993461 0 0,0 -0.050268180633399086,0.46542092165234616 l -6.152829126721187 -0.7181684996303557" fill="#ff0100" stroke="none" /><path d="M 119.67450827220406 107.3425965602758 l 5.730417097388156 2.1386120703038154 a27.116481153186665,27.116481153186665 0 0,0 -0.16696743478104278,0.43589928512995396 l -5.692755383013607 -2.2369349222669133" fill="#ff0000" stroke="none" /><path d="M 119.54520255179757 107.68017299344265 l 5.723996806488539 2.2492110568433135 a27.15004795257055,27.15004795257055 0 0,0 -0.1746619286275579,0.43349658293308724 l -5.684432263603588 -2.3474070076192146" fill="#ff0100" stroke="none" /><path d="M 119.41010516605496 108.01547362559984 l 11.89347721006431 4.911454733417041 a33.86767996745038,33.86767996745038 0 0,0 -0.227153785367061,0.5369244484642852 l -11.80717244350494 -5.1154537075474895" fill="#ff6809" stroke="none" /><path d="M 119.26925614724726 108.34839909993367 l 11.559089660708855 5.007971920768722 a33.59731465604929,33.59731465604929 0 0,0 -0.23447552342536626,0.5286804055938139 l -11.471173052552215 -5.206200662855223" fill="#ff6409" stroke="none" /><path d="M 119.12269723197855 108.67885076344098 l 12.044148170869216 5.466245858504837 a34.22653956813624,34.22653956813624 0 0,0 -0.2481022904764863,0.5343902614704263 l -11.948271263552899 -5.672756187254094" fill="#ff6d0a" stroke="none" /><path d="M 118.97047184881838 109.00673069616215 l 5.5959280788603705 2.656814105787609 a27.19460024993461,27.19460024993461 0 0,0 -0.20440852795794545,0.42114211139943886 l -5.549366294287711 -2.7527451731523236" fill="#ff0100" stroke="none" /><path d="M 118.81262510543309 109.33194174019688 l 11.234323016258514 5.572749538712706 a33.540556249818366,33.540556249818366 0 0,0 -0.26101153897398977,0.5150005285668002 l -11.136732807498255 -5.7653042789822" fill="#ff6309" stroke="none" /><path d="M 118.64920377521936 109.65438752849418 l 46.950640106830406 24.305577855528078 a73.86892964050104,73.86892964050104 0 0,0 -0.5942843039464049,1.124161941179187 l -46.52530329465911 -25.1101548117934" fill="#3fffc0" stroke="none" /><line stroke="#e1ed5e" stroke-width="0.3" x1="174.80103733775053" x2="179.2010983576182" y1="140.37084112569926" y2="142.7455964860345" /><path d="M 175.68104954172406 140.8457921977663 a86.0,86.0 0 0,1 -30.038265399797805,32.042727171017184" fill="none" id="id41" stroke="none" /><text fill="#e1ed5e" style="font-size:6.75px; font-family:Arial;" text-anchor="middle"><textPath startOffset="22.206326154141568" xlink:href="#id41">May</textPath></text><path d="M 118.48025628344425 109.97397251340804 l 12.636866810809954 6.820238869713678 a35.35987677642477,35.35987677642477 0 0,0 -0.29369507946172335,0.5331418787255651 l -12.51759532189672 -7.036751266837048" fill="#ff7e0b" stroke="none" /><path d="M 118.30583269289576 110.29060199501025 l 10.75771579769959 6.04743709323439 a33.3409863698451,33.3409863698451 0 0,0 -0.2855385640441601,0.4978605545281829 l -10.652025237503048 -6.231717493620888" fill="#ff6008" stroke="none" /><path d="M 117.94076556474637 110.91462005526583 l 16.562712050037295 10.076253906698081 a40.38696271324363,40.38696271324363 0 0,0 -0.366435452061163,0.5908106243105882 l -16.38681195830817 -10.359860862373942" fill="#ffc612" stroke="none" /><path d="M 117.75023020441432 111.22182372390056 l 13.792035651870771 8.719424542480311 a37.31712633322677,37.31712633322677 0 0,0 -0.34792913565666705,0.5399937450319032 l -13.639901652837054 -8.955539887433668" fill="#ff9b0e" stroke="none" /><path d="M 117.55443506779139 111.5257021239791 l 5.172102145289573 3.3958431844255874 a27.187276584614487,27.187276584614487 0 0,0 -0.2602170555165395,0.38898919128349907 l -5.112881984362312 -3.4843692899148935" fill="#ff0100" stroke="none" /><path d="M 117.14729908036423 112.12312394758627 l 5.005303030113587 3.5387444252828186 a27.12990787294022,27.12990787294022 0 0,0 -0.2728754654168191,0.3790001551013068 l -4.943647772321165 -3.6243781858352566" fill="#ff0000" stroke="none" /><path d="M 116.93607887273984 112.41649034213515 l 5.037657800647861 3.693300550778958 a27.24647621261879,27.24647621261879 0 0,0 -0.2805592144399521,0.37585491607388016 l -4.973337319512817 -3.779468346362153" fill="#ff0200" stroke="none" /><path d="M 116.71984013943494 112.70617746262583 l 11.165834710804589 8.485432645926318 a35.024208782585944,35.024208782585944 0 0,0 -0.36891029595424124,0.47686628712920026 l -11.01811759763228 -8.676376927168771" fill="#ff790b" stroke="none" /><path d="M 116.498646956653 112.99209946851258 l 10.013114138620265 7.88497233865989 a33.745008573338374,33.745008573338374 0 0,0 -0.3632924759993902,0.45326322258105106 l -9.875903750566021 -8.05616339481919" fill="#ff6609" stroke="none" /><path d="M 116.27256486870786 113.27417163493432 l 4.809082279342329 3.9229576958251373 a27.206196053358134,27.206196053358134 0 0,0 -0.29914378554289933,0.3603379604284443 l -4.740842493905887 -4.005156913367352" fill="#ff0100" stroke="none" /><path d="M 116.0416608686014 113.55231037782055 l 9.484482220082736 8.012676983532835 a33.416053939376326,33.416053939376326 0 0,0 -0.3749877814952818,0.4361955066874614 l -9.345151929016675 -8.174749589381824" fill="#ff6109" stroke="none" /><path d="M 115.80600337817218 113.82643327865902 l 4.664766901256602 4.080543751483111 a27.197651777151325,27.197651777151325 0 0,0 -0.31127213880878407,0.3497175477249564 l -4.59383591279948 -4.160235468948933" fill="#ff0100" stroke="none" /><path d="M 115.56566222782051 114.09645910891815 l 4.592026425487695 4.158596774524928 a27.195210555377955,27.195210555377955 0 0,0 -0.3172173576596422,0.3442767905505107 l -4.51976265983233 -4.2370248198767735" fill="#ff0100" stroke="none" /><path d="M 115.32070863581623 114.36230785411682 l 9.057780690470796 8.491163029332398 a33.41544363393298,33.41544363393298 0 0,0 -0.39699686997294126,0.41624963099405876 l -8.910277269118891 -8.645819776908963" fill="#ff6109" stroke="none" /><path d="M 114.81725581225074 114.88116024355365 l 4.500425484432341 4.519835092719323 a27.378302188380946,27.378302188380946 0 0,0 -0.33681836543991023,0.32964766145175445 l -4.421957166616637 -4.59663285709365" fill="#ff0400" stroke="none" /><path d="M 114.55890576462653 115.13401014063108 l 13.154592700230717 13.67422404813334 a39.974396233543544,39.974396233543544 0 0,0 -0.499992449162617,0.4727740686384053 l -12.917264416677291 -13.898632753517667" fill="#ffc011" stroke="none" /><path d="M 114.29624159901734 115.38237550388516 l 11.490091587108738 12.36303276933198 a37.87799703565928,37.87799703565928 0 0,0 -0.48141211781477394,0.43975855545265236 l -11.2755799198271 -12.558984091371215" fill="#ffa30f" stroke="none" /><path d="M 114.0293411484842 115.62618273729858 l 5.538101683276494 6.1684570932234735 a29.289778836932197,29.289778836932197 0 0,0 -0.37805802549644113,0.33359225144771176 l -5.431101304873466 -6.262872486443475" fill="#ff2203" stroke="none" /><path d="M 113.75828350139079 115.86535959552629 l 4.437485259624952 5.1170845067032085 a27.77316981022407,27.77316981022407 0 0,0 -0.3638741828419399,0.31010147269971106 l -4.348745600205965 -5.192710369625867" fill="#ff0a01" stroke="none" /><path d="M 113.20401910651253 116.32954008644616 l 3.844664693195066 4.754734578921331 a27.114650236856637,27.114650236856637 0 0,0 -0.36545707557771295,0.2903412034229493 l -3.762250124900002 -4.820209696349407" fill="#ff0000" stroke="none" /><path d="M 112.92097659922987 116.55440617244103 l 12.391880838576707 15.876526597417943 a41.14007963032927,41.14007963032927 0 0,0 -0.5619955692110227,0.4309142377505512 l -12.11675654087219 -16.087480176995864" fill="#ffd013" stroke="none" /><path d="M 112.04921762599082 117.19931262002967 l 4.7816579000524495 6.825441420166388 a29.33372082885292,29.33372082885292 0 0,0 -0.4160403236794367,0.2861563282849288 l -4.663460691750129 -6.906738537816412" fill="#ff2303" stroke="none" /><path d="M 111.7513745106137 117.40417183066458 l 35.25412353184112 52.21251549199374 a84.0,84.0 0 0,0 -1.2053012050401435,0.7988079156347263 l -34.35014762806101 -52.81162142871979" fill="#4dd2ff" stroke="none" /><path d="M 111.45004920935366 117.60387380957326 l 3.6670505474462325 5.637905471867747 a27.72556598564329,27.72556598564329 0 0,0 -0.40230878592257824,0.2567725017571911 l -3.5694599594767236 -5.700192402448747" fill="#ff0a01" stroke="none" /><path d="M 111.1453310114006 117.79835938074945 l 3.524436825686591 5.628293423869765 a27.64073352901857,27.64073352901857 0 0,0 -0.4054248026698171,0.249045027095898 l -3.4270328230844647 -5.688126917794041" fill="#ff0801" stroke="none" /><line stroke="#e1ed5e" stroke-width="0.3" x1="143.8653032363475" x2="146.44561519142675" y1="172.8068346515853" y2="177.08958963109032" /><path d="M 144.38136562736335 173.6633856474863 a86.0,86.0 0 0,1 -40.68145358897372,12.25698825130547" fill="none" id="id42" stroke="none" /><text fill="#e1ed5e" style="font-size:6.75px; font-family:Arial;" text-anchor="middle"><textPath startOffset="21.466115282336833" xlink:href="#id42">June</textPath></text><line stroke="#e1ed5e" stroke-width="0.3" x1="102.19456741930631" x2="102.32365962044197" y1="184.97166512339345" y2="189.96999836594603" /><path d="M 102.22038585953345 185.97133177190398 a86.0,86.0 0 0,1 -42.740103519485714,-10.115201625700543" fill="none" id="id43" stroke="none" /><text fill="#e1ed5e" style="font-size:6.75px; font-family:Arial;" text-anchor="middle"><textPath startOffset="22.20632615414155" xlink:href="#id43">July</textPath></text><line stroke="#e1ed5e" stroke-width="0.3" x1="58.666819895761336" x2="56.23545636021788" y1="174.27360380694188" y2="178.64263932499728" /><path d="M 58.180547188652646 175.14741091055294 a86.0,86.0 0 0,1 -31.652253787137756,-30.449443065178592" fill="none" id="id44" stroke="none" /><text fill="#e1ed5e" style="font-size:6.75px; font-family:Arial;" text-anchor="middle"><textPath startOffset="22.20632615414155" xlink:href="#id44">August</textPath></text><line stroke="#e1ed5e" stroke-width="0.3" x1="26.63291911575756" x2="22.317208475507996" y1="142.92168965132927" y2="145.44649492493687" /><path d="M 25.769776987707644 143.4266507060508 a86.0,86.0 0 0,1 -11.730757126820373,-40.83630448921669" fill="none" id="id45" stroke="none" /><text fill="#e1ed5e" style="font-size:6.75px; font-family:Arial;" text-anchor="middle"><textPath startOffset="21.46611528233685" xlink:href="#id45">September</textPath></text><line stroke="#e1ed5e" stroke-width="0.3" x1="15.007084014347285" x2="10.007500721073583" y1="101.09737516637583" y2="101.16192664675087" /><path d="M 14.007167355692545 101.11028546245083 a86.0,86.0 0 0,1 10.666146001902534,-42.60595125391555" fill="none" id="id46" stroke="none" /><text fill="#e1ed5e" style="font-size:6.75px; font-family:Arial;" text-anchor="middle"><textPath startOffset="22.20632615414155" xlink:href="#id46">October</textPath></text><line stroke="#e1ed5e" stroke-width="0.3" x1="26.266209847984243" x2="21.928928074336255" y1="57.711370442889674" y2="55.22380399835377" /><path d="M 25.398753493254645 57.213857153982495 a86.0,86.0 0 0,1 29.58750427330803,-30.492523968695096" fill="none" id="id47" stroke="none" /><text fill="#e1ed5e" style="font-size:6.75px; font-family:Arial;" text-anchor="middle"><textPath startOffset="21.46611528233685" xlink:href="#id47">November</textPath></text><line stroke="#e1ed5e" stroke-width="0.3" x1="56.762969772571076" x2="54.21961505331055" y1="26.818313649435495" y2="22.513508569990535" /><path d="M 56.25429882871897 25.957352633546506 a86.0,86.0 0 0,1 42.265352541879196,-11.944610805530505" fill="none" id="id48" stroke="none" /><text fill="#e1ed5e" style="font-size:6.75px; font-family:Arial;" text-anchor="middle"><textPath startOffset="22.20632615414155" xlink:href="#id48">December</textPath></text></svg>