<?xml version="1.0" encoding="utf-8" ?>
<svg baseProfile="full" height="200mm" version="1.1" viewBox="0,0,200,200" width="200mm" xmlns="http://www.w3.org/2000/svg" xmlns:ev="http://www.w3.org/2001/xml-events" xmlns:xlink="http://www.w3.org/1999/xlink"><defs /><rect fill="#1a1a1a" height="200" width="200" x="0" y="0" /><text alignment-baseline="middle" fill="#e1ed5e" style="dominant-baseline: central; font-size:9.0px; font-family:Arial;" text-anchor="middle" x="100.0" y="100.0">2026</text><line stroke="#e1ed5e" stroke-width="0.3" x1="100.0" x2="100.0" y1="15.0" y2="10.0" /><path d="M 100.0 14.0 a86.0,86.0 0 0,1 42.46469731375804,11.215312516191453" fill="none" id="id37" stroke="none" /><text fill="#e1ed5e" style="font-size:6.75px; font-family:Arial;" text-anchor="middle"><textPath startOffset="22.20632615414155" xlink:href="#id37">January</textPath></text><path d="M 100.0 79.0 l 0.0 -14.87892920221178 a35.87892920221178,35.87892920221178 0 0,0 0.617596786847649,0.005315850526661974 l -0.2561163075751206 14.876724728293675" fill="#ff770a" stroke="none" /><path d="M 100.36148047927253 79.00311137660856 l 0.2623004542070239 -15.235935931958426 a36.238193634778995,36.238193634778995 0 0,0 0.6235960937266671,0.016105647313276766 l -0.5245231831285588 15.22916349250279" fill="#ff7c0b" stroke="none" /><path d="M 100.72285384407766 79.0124445844662 l 0.5065492583690349 -14.707303167603394 a35.7160238724647,35.7160238724647 0 0,0 0.6142461643877198,0.02645073193966473 l -0.7596362551460861 14.696404709139534" fill="#ff740a" stroke="none" /><path d="M 101.08401301168833 79.027996857942 l 0.7657178500723855 -14.814063101177123 a35.833839334156785,35.833839334156785 0 0,0 0.6157242460736981,0.03714216799314545 l -1.0206041449856955 14.798687663803673" fill="#ff760a" stroke="none" /><path d="M 101.44485096284872 79.0497635885617 l 1.0610340194352934 -15.384917973768545 a36.42146213074446,36.42146213074446 0 0,0 0.6250786795089653,0.04851813589620688 l -1.3257028883065998 15.364374575683872" fill="#ff7f0b" stroke="none" /><path d="M 101.80526077348638 79.07773832637324 l 1.328641253586034 -15.39842907250335 a36.45564315975388,36.45564315975388 0 0,0 0.6247366642361827,0.05932627401588366 l -1.5935030449124608 15.373277253972287" fill="#ff800b" stroke="none" /><path d="M 102.16513564639614 79.11191278185805 l 0.7576862539450603 -7.309757512299549 a28.348921237027717,28.348921237027717 0 0,0 0.48494649656764877,0.05448938932712663 l -0.8833994540224344 7.295632169501822" fill="#ff0100" stroke="none" /><path d="M 102.52436894288641 79.15227682838746 l 0.9086644161414331 -7.504285083602368 a28.5590982026389,28.5590982026389 0 0,0 0.4875245748925757,0.06329468187004306 l -1.037703719541855 7.487532078568188" fill="#ff0400" stroke="none" /><path d="M 102.88285421437855 79.19881850522331 l 1.0143419078838989 -7.3189653567685955 a28.388920313528114,28.388920313528114 0 0,0 0.48346469125031927,0.07125012805893553 l -1.140175579562874 7.300420744548691" fill="#ff0200" stroke="none" /><path d="M 103.2404852339499 79.25152402106235 l 2.2896655856123345 -14.660480753053832 a35.83820286977501,35.83820286977501 0 0,0 0.6086876318151759,0.10043867468638701 l -2.5416824235663853 14.618895815427821" fill="#ff760a" stroke="none" /><path d="M 103.59715602781102 79.31037775812273 l 2.5207539989641625 -14.498522610654412 a35.7160238724647,35.7160238724647 0 0,0 0.6047996354216053,0.11052326759131668 l -2.769948755488669 14.452983861712356" fill="#ff740a" stroke="none" /><path d="M 103.95276090670814 79.375362276772 l 2.7913034382589297 -14.564407903344534 a35.82947579853856,35.82947579853856 0 0,0 0.6047223692469885,0.12130161833826185 l -3.0415922169730436 14.514202328929064" fill="#ff760a" stroke="none" /><path d="M 104.307194497241 79.44645832069477 l 1.510727574591878 -7.209055033465429 a28.365648123564245,28.365648123564245 0 0,0 0.47702547709226384,0.10425929299530275 l -1.6345957758376697 7.181982242374255" fill="#ff0100" stroke="none" /><path d="M 104.66035177308747 79.52364482259891 l 3.2777454197755973 -14.401547922628241 a35.769840811756154,35.769840811756154 0 0,0 0.5991896532712874,0.14180883188805188 l -3.5251587600094085 14.34299317859932" fill="#ff750a" stroke="none" /><path d="M 105.01212808612495 79.60689891045804 l 1.7760315344141147 -7.226230055809158 a28.441282740946818,28.441282740946818 0 0,0 0.4744156446928418,0.12093911113717336 l -1.9001560677919815 7.194587948503117" fill="#ff0200" stroke="none" /><line stroke="#e1ed5e" stroke-width="0.3" x1="143.23703022742887" x2="145.7803849466894" y1="26.81831364943548" y2="22.513508569990506" /><path d="M 143.74570117128098 25.957352633546492 a86.0,86.0 0 0,1 28.547481713284135,27.462654790039103" fill="none" id="id38" stroke="none" /><text fill="#e1ed5e" style="font-size:6.75px; font-family:Arial;" text-anchor="middle"><textPath startOffset="19.985693538727396" xlink:href="#id38">February</textPath></text><line stroke="#e1ed5e" stroke-width="0.3" x1="172.23445277983987" x2="176.4835382374775" y1="55.19839476539836" y2="52.563006222186495" /><path d="M 173.08426987136738 54.67131705675599 a86.0,86.0 0 0,1 12.851231095245387,41.99856678651699" fill="none" id="id39" stroke="none" /><text fill="#e1ed5e" style="font-size:6.75px; font-family:Arial;" text-anchor="middle"><textPath startOffset="22.20632615414155" xlink:href="#id39">March</textPath></text><path d="M 118.21658344932153 89.55222093294921 l 6.367928936848264 -3.6522059601328927 a28.340921421727636,28.340921421727636 0 0,0 0.23906560326622128,0.42527103255374393 l -6.429852181406918 3.542051417644355" fill="#ff0100" stroke="none" /><path d="M 118.3937258080291 89.86733742301442 l 12.962260951005488 -7.140598801034772 a35.798931049210985,35.798931049210985 0 0,0 0.29268507227553103,0.5423009877678148 l -13.083254122499484 6.916416829934499" fill="#ff760a" stroke="none" /><path d="M 118.56541770881063 90.18545643968196 l 13.318571386681251 -7.040816483959562 a36.065106721922724,36.065106721922724 0 0,0 0.2854133585360588,0.5513277634442376 l -13.437794178377427 6.810515998254979" fill="#ff7a0b" stroke="none" /><path d="M 118.73160827565052 90.50648371742162 l 13.323623202012747 -6.752652092114848 a35.937109677121455,35.937109677121455 0 0,0 0.27490175395355915,0.5541851612379707 l -13.437884968919715 6.5223073423779265" fill="#ff780b" stroke="none" /><path d="M 118.89224826269711 90.83032412892265 l 6.656460473917382 -3.2308269585351277 a28.399101896637305,28.399101896637305 0 0,0 0.20966895482507883,0.4416162911116203 l -6.711087622584217 3.115768251782967" fill="#ff0200" stroke="none" /><path d="M 119.04729006885535 91.15688171328212 l 6.700533523708522 -3.11086828205341 a28.387465801655374,28.387465801655374 0 0,0 0.20195341038331127,0.4449775698406456 l -6.75308925105518 2.9950687033707015" fill="#ff0200" stroke="none" /><path d="M 119.196687751892 91.48605970444005 l 13.4709438367918 -5.974510448552917 a35.73638703868309,35.73638703868309 0 0,0 0.24455480067220817,0.564466197624544 l -13.57178934730669 5.74174510634177" fill="#ff750a" stroke="none" /><path d="M 119.34039704204932 91.81776055985345 l 13.68163356844661 -5.788216319757356 a35.85565701224791,35.85565701224791 0 0,0 0.23558586048271685,0.5704898476617317 l -13.779241115815525 5.551851901642321" fill="#ff770a" stroke="none" /><path d="M 119.47837535516314 92.15188598940014 l 6.867022791354679 -2.7668209898036333 a28.40346543225553,28.40346543225553 0 0,0 0.1788153017074446,0.45506543852812203 l -6.913631642943824 2.648206546379727" fill="#ff0200" stroke="none" /><path d="M 119.61058180528143 92.48833698450437 l 13.962411880872505 -5.348180588115993 a35.95165479584887,35.95165479584887 0 0,0 0.21638686676042074,0.5798092221363057 l -14.052403336134551 5.1070482289503545" fill="#ff780b" stroke="none" /><path d="M 119.7369772167798 92.82701384747503 l 13.811805740224273 -5.019608130862386 a35.695660706246315,35.695660706246315 0 0,0 0.20490485364744435,0.5792936140456654 l -13.896163674681526 4.7811168903901065" fill="#ff740a" stroke="none" /><path d="M 119.85752413597 93.16781622104841 l 13.95599275567808 -4.801701696123959 a35.758931972710585,35.758931972710585 0 0,0 0.1952483767534368,0.583767794810306 l -14.036578426203286 4.560760798391339" fill="#ff750a" stroke="none" /><path d="M 120.83666639777658 97.38593545837742 l 7.311246052925957 -0.9172325696048558 a28.36855714730973,28.36855714730973 0 0,0 0.05661505789720312,0.48504324183003866 l -7.3259514638267484 0.7912455894499644" fill="#ff0100" stroke="none" /><path d="M 120.87857604477298 97.74499172005257 l 14.602012417289888 -1.5771027120945544 a35.686933635009865,35.686933635009865 0 0,0 0.06070665928714779,0.6113077744114273 l -14.626996202259264 1.3255194069786922" fill="#ff740a" stroke="none" /><path d="M 120.91429891909075 98.10471618934814 l 17.213428657731797 -1.5599056314065658 a38.283964583790265,38.283964583790265 0 0,0 0.053826372179647114,0.6568180777928718 l -17.237729513730937 1.2633736364059251" fill="#ff9b0e" stroke="none" /><path d="M 120.94382443527127 98.46500227214037 l 7.327086743571069 -0.5370108758298688 a28.346739469218605,28.346739469218605 0 0,0 0.031477581493999346,0.48694425340482567 l -7.335244916069485 0.410807558172008" fill="#ff0100" stroke="none" /><path d="M 120.96714384426684 98.82574320788733 l 14.765611301551468 -0.8269423574963156 a35.78874946610179,35.78874946610179 0 0,0 0.029153160438113387,0.615377140002924 l -14.777658070223078 0.5726541108703919" fill="#ff750a" stroke="none" /><path d="M 120.98425023603335 99.18683210126433 l 15.048721087690167 -0.5831581670963402 a36.06001593036813,36.06001593036813 0 0,0 0.018696784351626413,0.620455249522481 l -15.056529566497439 0.32403277014886006" fill="#ff7a0b" stroke="none" /><line stroke="#e1ed5e" stroke-width="0.3" x1="184.98032266829074" x2="189.97916517819016" y1="98.17113171792111" y2="98.06355123074" /><path d="M 185.9800911702706 98.14961562048488 a86.0,86.0 0 0,1 -9.607161424134198,41.387399972396054" fill="none" id="id40" stroke="none" /><text fill="#e1ed5e" style="font-size:6.75px; font-family:Arial;" text-anchor="middle"><textPath startOffset="21.466115282336823" xlink:href="#id40">April</textPath></text><path d="M 120.99513854157772 99.54816195383933 l 14.712617142074349 -0.31663140351372326 a35.7160238724647,35.7160238724647 0 0,0 0.007937449009347343,0.6147641731496636 l -14.715887598201412 0.06333097230359702" fill="#ff740a" stroke="none" /><path d="M 120.99980553446 99.90962569577887 l 30.681189325076414 -0.13203889594979748 a51.68147344361458,51.68147344361458 0 0,0 -0.003828619443748059,0.8896363239206974 l -30.678916408343163 -0.39610690617458466" fill="#aeff20" stroke="none" /><path d="M 120.99824983174949 100.27111621757518 l 7.44284416041036 0.09609733063185914 a28.44346450875593,28.44346450875593 0 0,0 -0.010534832570015184,0.4895122736988958 l -7.440087265155337 -0.22419942012086977" fill="#ff0300" stroke="none" /><path d="M 120.9764740272857 100.99374915477107 l 15.467386091713912 0.7327590821586395 a36.484733397208714,36.484733397208714 0 0,0 -0.03511855232634371,0.6270653430959143 l -15.45248118850004 -0.9988961415899772" fill="#ff800b" stroke="none" /><path d="M 120.95626037817324 101.35467743843564 l 15.048243351660176 0.9727649584758683 a36.07965184065014,36.07965184065014 0 0,0 -0.0453975506582162,0.6194135102094346 l -15.029269242337623 -1.2316516051820732" fill="#ff7a0b" stroke="none" /><path d="M 120.92983693683757 101.71520430193887 l 7.306247116603002 0.5987484051234772 a28.330739838618445,28.330739838618445 0 0,0 -0.044014372619241536,0.48569493419481463 l -7.294858147706686 -0.7244247278668623" fill="#ff0100" stroke="none" /><path d="M 120.89721153311464 102.0752229133903 l 7.345516884843535 0.7294554551437153 a28.381647754164405,28.381647754164405 0 0,0 -0.05246239263926199,0.4857365997055684 l -7.331872190703222 -0.8557883767340752" fill="#ff0200" stroke="none" /><path d="M 119.67450827220406 107.3425965602758 l 6.828514963141832 2.5484261048085703 a28.288558994308936,28.288558994308936 0 0,0 -0.17418440476289052,0.45474051641566654 l -6.783636278785435 -2.6655901880573807" fill="#ff0000" stroke="none" /><path d="M 119.54520255179757 107.68017299344265 l 6.820864376503773 2.6802187512526663 a28.328558070809333,28.328558070809333 0 0,0 -0.18224353034399937,0.4523134966306636 l -6.773718231902381 -2.7972316157261434" fill="#ff0100" stroke="none" /><path d="M 119.41010516605496 108.01547362559984 l 14.172578664426888 5.852617980149845 a36.333464162443576,36.333464162443576 0 0,0 -0.24369203700783737,0.5760159900225228 l -14.069735646226743 -6.095708495838531" fill="#ff7e0b" stroke="none" /><path d="M 119.26925614724726 108.34839909993367 l 13.77411371057514 5.9676303861982145 a36.01128978263128,36.01128978263128 0 0,0 -0.25132264609382077,0.566666219700685 l -13.669349979750047 -6.203844942391587" fill="#ff790b" stroke="none" /><path d="M 119.12269723197855 108.67885076344098 l 14.352122123983479 6.513721602224237 a36.761090653029655,36.761090653029655 0 0,0 -0.26647481476395873,0.573963044289151 l -14.237872692379689 -6.759804713792218" fill="#ff840c" stroke="none" /><path d="M 118.97047184881838 109.00673069616215 l 6.668254329441392 3.165929210270903 a28.381647754164405,28.381647754164405 0 0,0 -0.2133309842811028,0.4395250141694096 l -6.612770088545574 -3.280243180405588" fill="#ff0200" stroke="none" /><path d="M 118.81262510543309 109.33194174019688 l 13.387113278762014 6.640634174480199 a35.943654980548786,35.943654980548786 0 0,0 -0.279712376650699,0.5518990554518777 l -13.270822232325045 -6.87008744163477" fill="#ff780b" stroke="none" /><path d="M 118.64920377521936 109.65438752849418 l 55.94761132565807 28.96316258548255 a84.0,84.0 0 0,0 -0.6757899671004277,1.2783399396554627 l -55.44076885033275 -29.921917540224147" fill="#4dd2ff" stroke="none" /><line stroke="#e1ed5e" stroke-width="0.3" x1="174.80103733775053" x2="179.2010983576182" y1="140.37084112569926" y2="142.7455964860345" /><path d="M 175.68104954172406 140.8457921977663 a86.0,86.0 0 0,1 -30.038265399797805,32.042727171017184" fill="none" id="id41" stroke="none" /><text fill="#e1ed5e" style="font-size:6.75px; font-family:Arial;" text-anchor="middle"><textPath startOffset="22.206326154141568" xlink:href="#id41">May</textPath></text><path d="M 118.48025628344425 109.97397251340804 l 6.452420510338055 3.4824335673697555 a28.332194350491186,28.332194350491186 0 0,0 -0.23532395555858707,0.42718133380231715 l -6.391520145327959 -3.592985419569878" fill="#ff0100" stroke="none" /><line stroke="#e1ed5e" stroke-width="0.3" x1="143.8653032363475" x2="146.44561519142675" y1="172.8068346515853" y2="177.08958963109032" /><path d="M 144.38136562736335 173.6633856474863 a86.0,86.0 0 0,1 -40.68145358897372,12.25698825130547" fill="none" id="id42" stroke="none" /><text fill="#e1ed5e" style="font-size:6.75px; font-family:Arial;" text-anchor="middle"><textPath startOffset="21.466115282336833" xlink:href="#id42">June</textPath></text><line stroke="#e1ed5e" stroke-width="0.3" x1="102.19456741930631" x2="102.32365962044197" y1="184.97166512339345" y2="189.96999836594603" /><path d="M 102.22038585953345 185.97133177190398 a86.0,86.0 0 0,1 -42.740103519485714,-10.115201625700543" fill="none" id="id43" stroke="none" /><text fill="#e1ed5e" style="font-size:6.75px; font-family:Arial;" text-anchor="middle"><textPath startOffset="22.20632615414155" xlink:href="#id43">July</textPath></text><line stroke="#e1ed5e" stroke-width="0.3" x1="58.666819895761336" x2="56.23545636021788" y1="174.27360380694188" y2="178.64263932499728" /><path d="M 58.180547188652646 175.14741091055294 a86.0,86.0 0 0,1 -31.652253787137756,-30.449443065178592" fill="none" id="id44" stroke="none" /><text fill="#e1ed5e" style="font-size:6.75px; font-family:Arial;" text-anchor="middle"><textPath startOffset="22.20632615414155" xlink:href="#id44">August</textPath></text><line stroke="#e1ed5e" stroke-width="0.3" x1="26.63291911575756" x2="22.317208475507996" y1="142.92168965132927" y2="145.44649492493687" /><path d="M 25.769776987707644 143.4266507060508 a86.0,86.0 0 0,1 -11.730757126820373,-40.83630448921669" fill="none" id="id45" stroke="none" /><text fill="#e1ed5e" style="font-size:6.75px; font-family:Arial;" text-anchor="middle"><textPath startOffset="21.46611528233685" xlink:href="#id45">September</textPath></text><line stroke="#e1ed5e" stroke-width="0.3" x1="15.007084014347285" x2="10.007500721073583" y1="101.09737516637583" y2="101.16192664675087" /><path d="M 14.007167355692545 101.11028546245083 a86.0,86.0 0 0,1 10.666146001902534,-42.60595125391555" fill="none" id="id46" stroke="none" /><text fill="#e1ed5e" style="font-size:6.75px; font-family:Arial;" text-anchor="middle"><textPath startOffset="22.20632615414155" xlink:href="#id46">October</textPath></text><line stroke="#e1ed5e" stroke-width="0.3" x1="26.266209847984243" x2="21.928928074336255" y1="57.711370442889674" y2="55.22380399835377" /><path d="M 25.398753493254645 57.213857153982495 a86.0,86.0 0 0,1 29.58750427330803,-30.492523968695096" fill="none" id="id47" stroke="none" /><text fill="#e1ed5e" style="font-size:6.75px; font-family:Arial;" text-anchor="middle"><textPath startOffset="21.46611528233685" xlink:href="#id47">November</textPath></text><line stroke="#e1ed5e" stroke-width="0.3" x1="56.762969772571076" x2="54.21961505331055" y1="26.818313649435495" y2="22.513508569990535" /><path d="M 56.25429882871897 25.957352633546506 a86.0,86.0 0 0,1 42.265352541879196,-11.944610805530505" fill="none" id="id48" stroke="none" /><text fill="#e1ed5e" style="font-size:6.75px; font-family:Arial;" text-anchor="middle"><textPath startOffset="22.20632615414155" xlink:href="#id48">December</textPath></text></svg>