<?xml version="1.0" encoding="utf-8" ?>
<svg baseProfile="full" height="200mm" version="1.1" viewBox="0,0,200,200" width="200mm" xmlns="http://www.w3.org/2000/svg" xmlns:ev="http://www.w3.org/2001/xml-events" xmlns:xlink="http://www.w3.org/1999/xlink"><defs /><rect fill="#1a1a1a" height="200" width="200" x="0" y="0" /><text alignment-baseline="middle" fill="#e1ed5e" style="dominant-baseline: central; font-size:9.0px; font-family:Arial;" text-anchor="middle" x="100.0" y="100.0">2026</text><line stroke="#e1ed5e" stroke-width="0.3" x1="100.0" x2="100.0" y1="15.0" y2="10.0" /><path d="M 100.0 14.0 a86.0,86.0 0 0,1 42.46469731375804,11.215312516191453" fill="none" id="id37" stroke="none" /><text fill="#e1ed5e" style="font-size:6.75px; font-family:Arial;" text-anchor="middle"><textPath startOffset="22.20632615414155" xlink:href="#id37">January</textPath></text><path d="M 100.0 79.0 l 0.0 -54.233653117899536 a75.23365311789954,75.23365311789954 0 0,0 1.2950236660229273,0.011146677547022126 l -0.9335431867503989 54.22561781696107" fill="#3aff96" stroke="none" /><path d="M 100.36148047927253 79.00311137660856 l 0.9560843830089989 -55.53494159630409 a76.54317091643526,76.54317091643526 0 0,0 1.3171744393774545,0.03401872972599916 l -1.9118854575813211 55.51025607443573" fill="#3dffae" stroke="none" /><path d="M 100.72285384407766 79.0124445844662 l 1.8463705547729692 -53.60807672725656 a74.6398636707902,74.6398636707902 0 0,0 1.2836605254245887,0.05527712247642615 l -2.7688719125868895 53.56835187825594" fill="#39ff8b" stroke="none" /><path d="M 101.08401301168833 79.027996857942 l 2.7910393081806166 -53.99721637068377 a75.06930068164604,75.06930068164604 0 0,0 1.2898977453813467,0.07781015455934974 l -3.720099102401575 53.941172946744125" fill="#3aff93" stroke="none" /><path d="M 101.44485096284872 79.0497635885617 l 3.867465875688847 -56.0779806998926 a77.21118404443322,77.21118404443322 0 0,0 1.3251270581220764,0.10285536332196338 l -4.832183123173265 56.00310007438217" fill="#3fffba" stroke="none" /><path d="M 101.80526077348638 79.07773832637324 l 4.842893455962188 -56.127228614985604 a77.33577379449633,77.33577379449633 0 0,0 1.3252953221748567,0.1258527599487744 l -5.80831390522729 56.03555031052165" fill="#3fffbd" stroke="none" /><path d="M 102.16513564639614 79.11191278185805 l 2.7617641639526522 -26.644044602287845 a47.786796263569805,47.786796263569805 0 0,0 0.8174575404986345,0.09185087942255478 l -3.219988407961012 26.59255776939469" fill="#ff0100" stroke="none" /><path d="M 102.52436894288641 79.15227682838746 l 3.3120791204697433 -27.353097026728197 a48.55289068417066,48.55289068417066 0 0,0 0.8288331523163709,0.1076063308414128 l -3.7824270012939607 27.292032372722645" fill="#ff1402" stroke="none" /><path d="M 102.88285421437855 79.19881850522331 l 3.697273266610221 -26.677607168256888 a47.93259277960111,47.93259277960111 0 0,0 0.8162943822127046,0.12030057275957579 l -4.155936629251581 26.610012111336342" fill="#ff0400" stroke="none" /><path d="M 103.2404852339499 79.25152402106235 l 8.345824315612207 -53.437409164133406 a75.08520575612219,75.08520575612219 0 0,0 1.2752714259172382,0.21043071222357124 l -9.26442494766832 53.28583218897021" fill="#3aff93" stroke="none" /><path d="M 103.59715602781102 79.31037775812273 l 9.18814090163547 -52.847072212116466 a74.6398636707902,74.6398636707902 0 0,0 1.2639190324546352,0.23097312441394285 l -10.096455055193005 52.681083606351784" fill="#39ff8b" stroke="none" /><path d="M 103.95276090670814 79.375362276772 l 10.174292810992862 -53.087223909914464 a75.0533956071699,75.0533956071699 0 0,0 1.2667354517492149,0.2540952147924767 l -11.086594672209202 52.90422473904478" fill="#3aff93" stroke="none" /><path d="M 104.307194497241 79.44645832069477 l 5.506597559714325 -26.276984363544972 a47.84776571572835,47.84776571572835 0 0,0 0.804656504547945,0.17586674569168603 l -5.958096788415798 26.178304119757414" fill="#ff0200" stroke="none" /><path d="M 104.66035177308747 79.52364482259891 l 11.947372400862601 -52.49359975988876 a74.83602625599596,74.83602625599596 0 0,0 1.253597209462383,0.29668595737833087 l -12.849193297287508 52.28016789036956" fill="#3aff8f" stroke="none" /><path d="M 105.01212808612495 79.60689891045804 l 6.473629711844297 -26.33958726940083 a48.12345367331483,48.12345367331483 0 0,0 0.802724669882865,0.20463239176349068 l -6.926063270412187 26.224251881468472" fill="#ff0901" stroke="none" /><line stroke="#e1ed5e" stroke-width="0.3" x1="143.23703022742887" x2="145.7803849466894" y1="26.81831364943548" y2="22.513508569990506" /><path d="M 143.74570117128098 25.957352633546492 a86.0,86.0 0 0,1 28.547481713284135,27.462654790039103" fill="none" id="id38" stroke="none" /><text fill="#e1ed5e" style="font-size:6.75px; font-family:Arial;" text-anchor="middle"><textPath startOffset="19.985693538727396" xlink:href="#id38">February</textPath></text><line stroke="#e1ed5e" stroke-width="0.3" x1="172.23445277983987" x2="176.4835382374775" y1="55.19839476539836" y2="52.563006222186495" /><path d="M 173.08426987136738 54.67131705675599 a86.0,86.0 0 0,1 12.851231095245387,41.99856678651699" fill="none" id="id39" stroke="none" /><text fill="#e1ed5e" style="font-size:6.75px; font-family:Arial;" text-anchor="middle"><textPath startOffset="22.20632615414155" xlink:href="#id39">March</textPath></text><path d="M 118.21658344932153 89.55222093294921 l 23.211082218814887 -13.312279967534803 a47.75763696036354,47.75763696036354 0 0,0 0.402852402736118,0.7166294729884818 l -23.436792262843436 12.910766984611525" fill="#ff0000" stroke="none" /><path d="M 118.3937258080291 89.86733742301442 l 47.2474029875769 -26.02746159796513 a74.94206008583691,74.94206008583691 0 0,0 0.612711654505779,1.135261641026011 l -47.68842274130114 25.210318973606658" fill="#3aff91" stroke="none" /><path d="M 118.56541770881063 90.18545643968196 l 48.54615347614395 -25.663755346123246 a75.9122696288816,75.9122696288816 0 0,0 0.6007572914155199,1.1604718698094554 l -48.98072020071959 24.824310754053446" fill="#3cffa3" stroke="none" /><path d="M 118.73160827565052 90.50648371742162 l 48.564567328147696 -24.61339698660409 a75.44572077758143,75.44572077758143 0 0,0 0.577123790877689,1.1634463458383475 l -48.981051131978795 23.773791052266795" fill="#3bff9a" stroke="none" /><path d="M 118.89224826269711 90.83032412892265 l 24.262778821595614 -11.776354747833992 a47.96970462004545,47.96970462004545 0 0,0 0.354157602150919,0.745946231578993 l -24.46189461758829 11.356966100614459" fill="#ff0500" stroke="none" /><path d="M 119.04729006885535 91.15688171328212 l 24.423424958272236 -11.339105725382508 a47.92729108810906,47.92729108810906 0 0,0 0.34096315441841535,0.7512671143821641 l -24.614990429654 10.91701660215828" fill="#ff0400" stroke="none" /><path d="M 119.196687751892 91.48605970444005 l 49.10155060800148 -21.777072987746926 a74.71408735167887,74.71408735167887 0 0,0 0.5112908789553198,1.1801298421896744 l -49.469132196799485 20.92864400097065" fill="#39ff8c" stroke="none" /><path d="M 119.34039704204932 91.81776055985345 l 49.86951405932108 -21.098031436994887 a75.14882605402676,75.14882605402676 0 0,0 0.49375753578177095,1.1956730373919855 l -50.225293281989046 20.2364838291496" fill="#3aff94" stroke="none" /><path d="M 119.47837535516314 92.15188598940014 l 25.03027784846764 -10.085054358483523 a47.985609694521585,47.985609694521585 0 0,0 0.30209557687976,0.7688002920192516 l -25.200166975229102 9.652705061568488" fill="#ff0600" stroke="none" /><path d="M 119.61058180528143 92.48833698450437 l 50.89295018111346 -19.494102491236397 a75.49873769250189,75.49873769250189 0 0,0 0.4544140008691253,1.2176036019019894 l -51.22096877048422 18.615175752305074" fill="#3bff9b" stroke="none" /><path d="M 119.7369772167798 92.82701384747503 l 50.343991242043614 -18.296456852319114 a74.56563998990154,74.56563998990154 0 0,0 0.4280313418203569,1.2101022426465236 l -50.65147566467378 17.427156983245975" fill="#39ff89" stroke="none" /><path d="M 119.85752413597 93.16781622104841 l 50.86955248868657 -17.502188539515704 a74.7962635698056,74.7962635698056 0 0,0 0.4083972379368513,1.221055759649582 l -51.163287020395195 16.62395967694381" fill="#39ff8e" stroke="none" /><path d="M 120.83666639777658 97.38593545837742 l 26.649470328486785 -3.3433100146074164 a47.85836909871245,47.85836909871245 0 0,0 0.09551082641671368,0.8182784332596704 l -26.70307150790709 2.8840878430228933" fill="#ff0300" stroke="none" /><path d="M 120.87857604477298 97.74499172005257 l 53.22429225248556 -5.748534740411304 a74.53382984094927,74.53382984094927 0 0,0 0.12678869694430403,1.2767448754334012 l -53.315358075112094 4.831514334273468" fill="#39ff89" stroke="none" /><path d="M 120.91429891909075 98.10471618934814 l 62.74289675727228 -5.6858514319555935 a84.0,84.0 0 0,0 0.118102064722021,1.441144331168925 l -62.831473305813795 4.6049931835789" fill="#4dd2ff" stroke="none" /><path d="M 120.94382443527127 98.46500227214037 l 26.707209599231298 -1.9574030606965434 a47.778843726331736,47.778843726331736 0 0,0 0.05305592372335456,0.8207516568926146 l -26.736946113959068 1.4973923395508935" fill="#ff0100" stroke="none" /><path d="M 120.96714384426684 98.82574320788733 l 53.820609703757434 -3.0142024574111477 a74.90494824539257,74.90494824539257 0 0,0 0.061016828092159824,1.287968803351918 l -53.86452014008309 2.08732254743623" fill="#3aff90" stroke="none" /><path d="M 120.98425023603335 99.18683210126433 l 54.852544040365906 -2.1256098014413305 a75.89371370865943,75.89371370865943 0 0,0 0.03935018779788966,1.3058411612247256 l -54.881005922619444 1.1810984927916057" fill="#3cffa2" stroke="none" /><line stroke="#e1ed5e" stroke-width="0.3" x1="184.98032266829074" x2="189.97916517819016" y1="98.17113171792111" y2="98.06355123074" /><path d="M 185.9800911702706 98.14961562048488 a86.0,86.0 0 0,1 -9.607161424134198,41.387399972396054" fill="none" id="id40" stroke="none" /><text fill="#e1ed5e" style="font-size:6.75px; font-family:Arial;" text-anchor="middle"><textPath startOffset="21.466115282336823" xlink:href="#id40">April</textPath></text><path d="M 120.99513854157772 99.54816195383933 l 27.01646582843261 -0.5814235095382281 a48.02272153496592,48.02272153496592 0 0,0 0.010672461885314954,0.8265939344832943 l -27.022471297435644 0.11629331699447107" fill="#ff0701" stroke="none" /><line stroke="#e1ed5e" stroke-width="0.3" x1="174.80103733775053" x2="179.2010983576182" y1="140.37084112569926" y2="142.7455964860345" /><path d="M 175.68104954172406 140.8457921977663 a86.0,86.0 0 0,1 -30.038265399797805,32.042727171017184" fill="none" id="id41" stroke="none" /><text fill="#e1ed5e" style="font-size:6.75px; font-family:Arial;" text-anchor="middle"><textPath startOffset="22.206326154141568" xlink:href="#id41">May</textPath></text><line stroke="#e1ed5e" stroke-width="0.3" x1="143.8653032363475" x2="146.44561519142675" y1="172.8068346515853" y2="177.08958963109032" /><path d="M 144.38136562736335 173.6633856474863 a86.0,86.0 0 0,1 -40.68145358897372,12.25698825130547" fill="none" id="id42" stroke="none" /><text fill="#e1ed5e" style="font-size:6.75px; font-family:Arial;" text-anchor="middle"><textPath startOffset="21.466115282336833" xlink:href="#id42">June</textPath></text><line stroke="#e1ed5e" stroke-width="0.3" x1="102.19456741930631" x2="102.32365962044197" y1="184.97166512339345" y2="189.96999836594603" /><path d="M 102.22038585953345 185.97133177190398 a86.0,86.0 0 0,1 -42.740103519485714,-10.115201625700543" fill="none" id="id43" stroke="none" /><text fill="#e1ed5e" style="font-size:6.75px; font-family:Arial;" text-anchor="middle"><textPath startOffset="22.20632615414155" xlink:href="#id43">July</textPath></text><line stroke="#e1ed5e" stroke-width="0.3" x1="58.666819895761336" x2="56.23545636021788" y1="174.27360380694188" y2="178.64263932499728" /><path d="M 58.180547188652646 175.14741091055294 a86.0,86.0 0 0,1 -31.652253787137756,-30.449443065178592" fill="none" id="id44" stroke="none" /><text fill="#e1ed5e" style="font-size:6.75px; font-family:Arial;" text-anchor="middle"><textPath startOffset="22.20632615414155" xlink:href="#id44">August</textPath></text><line stroke="#e1ed5e" stroke-width="0.3" x1="26.63291911575756" x2="22.317208475507996" y1="142.92168965132927" y2="145.44649492493687" /><path d="M 25.769776987707644 143.4266507060508 a86.0,86.0 0 0,1 -11.730757126820373,-40.83630448921669" fill="none" id="id45" stroke="none" /><text fill="#e1ed5e" style="font-size:6.75px; font-family:Arial;" text-anchor="middle"><textPath startOffset="21.46611528233685" xlink:href="#id45">September</textPath></text><line stroke="#e1ed5e" stroke-width="0.3" x1="15.007084014347285" x2="10.007500721073583" y1="101.09737516637583" y2="101.16192664675087" /><path d="M 14.007167355692545 101.11028546245083 a86.0,86.0 0 0,1 10.666146001902534,-42.60595125391555" fill="none" id="id46" stroke="none" /><text fill="#e1ed5e" style="font-size:6.75px; font-family:Arial;" text-anchor="middle"><textPath startOffset="22.20632615414155" xlink:href="#id46">October</textPath></text><line stroke="#e1ed5e" stroke-width="0.3" x1="26.266209847984243" x2="21.928928074336255" y1="57.711370442889674" y2="55.22380399835377" /><path d="M 25.398753493254645 57.213857153982495 a86.0,86.0 0 0,1 29.58750427330803,-30.492523968695096" fill="none" id="id47" stroke="none" /><text fill="#e1ed5e" style="font-size:6.75px; font-family:Arial;" text-anchor="middle"><textPath startOffset="21.46611528233685" xlink:href="#id47">November</textPath></text><line stroke="#e1ed5e" stroke-width="0.3" x1="56.762969772571076" x2="54.21961505331055" y1="26.818313649435495" y2="22.513508569990535" /><path d="M 56.25429882871897 25.957352633546506 a86.0,86.0 0 0,1 42.265352541879196,-11.944610805530505" fill="none" id="id48" stroke="none" /><text fill="#e1ed5e" style="font-size:6.75px; font-family:Arial;" text-anchor="middle"><textPath startOffset="22.20632615414155" xlink:href="#id48">December</textPath></text></svg>