<?xml version="1.0" encoding="utf-8" ?>
<svg baseProfile="full" height="200mm" version="1.1" viewBox="0,0,200,200" width="200mm" xmlns="http://www.w3.org/2000/svg" xmlns:ev="http://www.w3.org/2001/xml-events" xmlns:xlink="http://www.w3.org/1999/xlink"><defs /><rect fill="#1a1a1a" height="200" width="200" x="0" y="0" /><text alignment-baseline="middle" fill="#e1ed5e" style="dominant-baseline: central; font-size:9.0px; font-family:Arial;" text-anchor="middle" x="100.0" y="100.0">2025</text><line stroke="#e1ed5e" stroke-width="0.3" x1="100.0" x2="100.0" y1="15.0" y2="10.0" /><path d="M 100.0 14.0 a86.0,86.0 0 0,1 42.46469731375804,11.215312516191453" fill="none" id="id25" stroke="none" /><text fill="#e1ed5e" style="font-size:6.75px; font-family:Arial;" text-anchor="middle"><textPath startOffset="22.20632615414155" xlink:href="#id25">January</textPath></text><path d="M 100.0 79.0 l 0.0 -49.829326923076934 a70.82932692307693,70.82932692307693 0 0,0 1.2192104306049738,0.010494129094687167 l -0.8577299513324453 49.821944170590804" fill="#33ff52" stroke="none" /><path d="M 100.36148047927253 79.00311137660856 l 0.8761846552879794 -50.89390070974287 a71.9014423076923,71.9014423076923 0 0,0 1.237298387670136,0.03195576696770613 l -1.7521096781529832 50.87127815063281" fill="#35ff66" stroke="none" /><path d="M 100.72285384407766 79.0124445844662 l 1.7607150810586694 -51.12113000081772 a72.15144230769229,72.15144230769229 0 0,0 1.2408645164645389,0.05343423630681021 l -2.6404204299125396 51.08324803798671" fill="#36ff6a" stroke="none" /><path d="M 101.08401301168833 79.027996857942 l 2.6378146294036746 -51.032834568895254 a72.10096153846155,72.10096153846155 0 0,0 1.2388934875348765,0.07473343843946421 l -3.5158701657781632 50.97986786107548" fill="#35ff6a" stroke="none" /><path d="M 101.44485096284872 79.0497635885617 l 3.5157047753291177 -50.977469711303094 a72.09855769230768,72.09855769230768 0 0,0 1.237382263101568,0.09604467847772247 l -4.392677227793027 50.90939977063691" fill="#35ff69" stroke="none" /><path d="M 101.80526077348638 79.07773832637324 l 4.368706274298933 -50.63158585647247 a71.81971153846155,71.81971153846155 0 0,0 1.2307671220151986,0.11687616832875694 l -5.239598523404376 50.548884143628534" fill="#35ff64" stroke="none" /><path d="M 102.16513564639614 79.11191278185805 l 5.333777958572704 -51.45747768104769 a72.73317307692307,72.73317307692307 0 0,0 1.2441989299343224,0.1398002467765603 l -6.218743592016752 51.35804148080053" fill="#37ff75" stroke="none" /><path d="M 102.52436894288641 79.15227682838746 l 6.215853975552826 -51.334177328818384 a72.70913461538461,72.70913461538461 0 0,0 1.2411978029788437,0.16114309744211963 l -7.098566507039516 51.21957590821213" fill="#37ff75" stroke="none" /><path d="M 102.88285421437855 79.19881850522331 l 6.978777578488759 -50.35524110022176 a71.83653846153847,71.83653846153847 0 0,0 1.2233797377369564,0.18029437217646566 l -7.844526296654371 50.22765224388432" fill="#35ff65" stroke="none" /><path d="M 103.2404852339499 79.25152402106235 l 7.847493773974837 -50.24665267976246 a71.85576923076923,71.85576923076923 0 0,0 1.2204216311923928,0.20138002612279526 l -8.711244611306105 50.10412639070004" fill="#35ff65" stroke="none" /><line stroke="#e1ed5e" stroke-width="0.3" x1="143.23703022742887" x2="145.7803849466894" y1="26.81831364943548" y2="22.513508569990506" /><path d="M 143.74570117128098 25.957352633546492 a86.0,86.0 0 0,1 28.547481713284135,27.462654790039103" fill="none" id="id26" stroke="none" /><text fill="#e1ed5e" style="font-size:6.75px; font-family:Arial;" text-anchor="middle"><textPath startOffset="19.985693538727396" xlink:href="#id26">February</textPath></text><path d="M 116.15771136456269 86.58626213691792 l 18.639814003212315 -15.47431893133483 a45.22596153846153,45.22596153846153 0 0,0 0.4921047813729903,0.603262274838964 l -18.903417276661717 15.151172486887766" fill="#ff0300" stroke="none" /><path d="M 116.60985879189232 87.15038557335679 l 20.132989325474796 -15.57515649767914 a46.45432692307693,46.45432692307693 0 0,0 0.4838418561319834,0.6366791673648153 l -20.398107121830893 15.226292554433291" fill="#ff2003" stroke="none" /><path d="M 116.82858285166822 87.43820079747576 l 40.37434386310829 -30.137677367869237 a71.38221153846155,71.38221153846155 0 0,0 0.7265260670109736,0.9909807389165517 l -40.88713254263289 29.438234185281193" fill="#34ff5c" stroke="none" /><path d="M 117.04232023915458 87.72973835380427 l 19.631051804786228 -14.134116637553534 a45.18990384615384,45.18990384615384 0 0,0 0.4490744116651562,0.6351839079970947 l -19.87143883625527 13.794106229224646" fill="#ff0300" stroke="none" /><path d="M 117.2510076193507 88.02491185347247 l 19.881312352520926 -13.800960102934885 a45.20192307692307,45.20192307692307 0 0,0 0.4381907449135917,0.6429908482627377 l -20.11592756310325 13.456691231401742" fill="#ff0300" stroke="none" /><path d="M 117.45458315368197 88.32363383020206 l 21.642404386525076 -14.477838639108432 a47.03846153846154,47.03846153846154 0 0,0 0.4444090017532195,0.6768653988192395 l -21.88841002363622 14.10315517631152" fill="#ff2d04" stroke="none" /><path d="M 117.65298651832404 88.62581576622439 l 42.471436657753515 -27.365224842662066 a71.52403846153847,71.52403846153847 0 0,0 0.6579271636101002,1.0406827712810793 l -42.93619141760957 26.63009442366678" fill="#34ff5f" stroke="none" /><line stroke="#e1ed5e" stroke-width="0.3" x1="172.23445277983987" x2="176.4835382374775" y1="55.19839476539836" y2="52.563006222186495" /><path d="M 173.08426987136738 54.67131705675599 a86.0,86.0 0 0,1 12.851231095245387,41.99856678651699" fill="none" id="id27" stroke="none" /><text fill="#e1ed5e" style="font-size:6.75px; font-family:Arial;" text-anchor="middle"><textPath startOffset="22.20632615414155" xlink:href="#id27">March</textPath></text><path d="M 117.84615892207809 88.93136811851018 l 43.0526327017852 -26.702314205860556 a71.66105769230768,71.66105769230768 0 0,0 0.6411419342135276,1.0538687629262469 l -43.50589043428496 25.95727766972723" fill="#35ff61" stroke="none" /><path d="M 118.03404312379186 89.2402003453031 l 43.54924149948638 -25.98314257274333 a71.71153846153845,71.71153846153845 0 0,0 0.6233451226191844,1.0654988748464507 l -43.99004629657589 25.229664285542984" fill="#35ff62" stroke="none" /><path d="M 118.21658344932153 89.55222093294921 l 42.72014023881069 -24.501333533272618 a70.24759615384615,70.24759615384615 0 0,0 0.5925630893442342,1.054103615977051 l -43.135560969447354 23.762346407360774" fill="#32ff47" stroke="none" /><path d="M 118.3937258080291 89.86733742301442 l 44.45782056279011 -24.490747517519537 a71.75721153846153,71.75721153846153 0 0,0 0.5866729544676748,1.0870158844485776 l -44.87280161647625 23.7218506497385" fill="#35ff63" stroke="none" /><path d="M 118.56541770881063 90.18545643968196 l 45.11719527908078 -23.851048510250926 a72.03365384615384,72.03365384615384 0 0,0 0.5700625602019177,1.1011794190414956 l -45.52106727244282 23.070896368949086" fill="#35ff68" stroke="none" /><path d="M 118.73160827565052 90.50648371742162 l 44.72343010685881 -22.666639494278858 a71.13942307692308,71.13942307692308 0 0,0 0.5441826667418544,1.0970390496751463 l -45.106972786554074 21.89344085610476" fill="#34ff58" stroke="none" /><path d="M 118.89224826269711 90.83032412892265 l 46.093106624442086 -22.372077783441206 a72.2355769230769,72.2355769230769 0 0,0 0.5333111578588857,1.1232893097529486 l -46.47137597614273 21.575346058047717" fill="#36ff6c" stroke="none" /><path d="M 119.04729006885535 91.15688171328212 l 45.880508804821794 -21.301023135005078 a71.58413461538461,71.58413461538461 0 0,0 0.509262088272492,1.1220915062605554 l -46.24037321005763 20.508109619902463" fill="#34ff60" stroke="none" /><path d="M 119.196687751892 91.48605970444005 l 22.00938925400073 -9.761404075129168 a45.07692307692308,45.07692307692308 0 0,0 0.3084748865647952,0.7120025687628234 l -22.174154850408204 9.381102361779742" fill="#ff0000" stroke="none" /><path d="M 119.34039704204932 91.81776055985345 l 47.36360511877327 -20.0378698011098 a72.42788461538461,72.42788461538461 0 0,0 0.47587987341104304,1.1523808599178087 l -47.70150667907051 19.21961437073869" fill="#36ff70" stroke="none" /><path d="M 119.47837535516314 92.15188598940014 l 46.08276806782413 -18.5674015992534 a70.6826923076923,70.6826923076923 0 0,0 0.44498608737162093,1.1324410554080078 l -46.39554770507745 17.771411538949607" fill="#33ff4f" stroke="none" /><path d="M 119.61058180528143 92.48833698450437 l 48.71667197094981 -18.66049802681848 a73.16826923076923,73.16826923076923 0 0,0 0.440387309430807,1.1800190424795276 l -49.03066386888224 17.81915584730962" fill="#38ff7d" stroke="none" /><path d="M 119.7369772167798 92.82701384747503 l 47.331693302602666 -17.201700995352343 a71.36057692307692,71.36057692307692 0 0,0 0.4096332237957868,1.1580882854738461 l -47.620779607208256 16.38441508345188" fill="#34ff5c" stroke="none" /><path d="M 119.85752413597 93.16781622104841 l 47.07069709336844 -16.195153582249244 a70.77884615384616,70.77884615384616 0 0,0 0.3864616211291212,1.1554710574124756 l -47.34249600826933 15.382509421914454" fill="#33ff51" stroke="none" /><path d="M 119.97218684219823 93.5106431181261 l 25.020102197918654 -8.129524005864003 a47.30769230769231,47.30769230769231 0 0,0 0.24497391019250256,0.7766342404679568 l -25.15633159187936 7.697639598969626" fill="#ff3304" stroke="none" /><path d="M 120.08093135843002 93.85539295169968 l 48.72889925221588 -14.91065989204652 a71.95913461538461,71.95913461538461 0 0,0 0.3522368898765101,1.1875676863258502 l -48.978342039204094 14.069662818974138" fill="#35ff67" stroke="none" /><path d="M 120.18372546131832 94.20196356495316 l 49.23248693397801 -14.142669230129716 a72.22355769230768,72.22355769230768 0 0,0 0.3329617076847093,1.1978404176714272 l -49.468635412229084 13.293117509039337" fill="#36ff6c" stroke="none" /><path d="M 120.28053869075195 94.5502522615342 l 49.62417525795716 -13.334913880202025 a72.38461538461539,72.38461538461539 0 0,0 0.3129899330038285,1.2060778884927903 l -49.846361522831295 12.478739566160383" fill="#36ff6f" stroke="none" /><path d="M 120.37134235888165 94.90015583598534 l 50.6065558462053 -12.669049684918255 a73.16826923076923,73.16826923076923 0 0,0 0.29534615678355974,1.2244004943625224 l -50.81713480324968 11.796063958896326" fill="#38ff7d" stroke="none" /><path d="M 120.45610955862082 95.25157060432595 l 49.96245531734118 -11.59766918675564 a72.29086538461537,72.29086538461537 0 0,0 0.2709379463928255,1.2145616880865309 l -50.154687650736044 10.735929329119145" fill="#36ff6d" stroke="none" /><path d="M 120.53481517161879 95.60439243477599 l 50.2040501872063 -10.746495693458629 a72.34134615384616,72.34134615384616 0 0,0 0.2501656901023447,1.2198967494755364 l -50.381595173223644 9.88072328781968" fill="#36ff6e" stroke="none" /><path d="M 120.6074358757038 95.95851677861258 l 50.48538720373312 -9.901078743605053 a72.44711538461537,72.44711538461537 0 0,0 0.2294651159345994,1.2258118247977656 l -50.64833804357758 9.030588841344725" fill="#36ff70" stroke="none" /><path d="M 120.67395015179393 96.31383870115 l 50.025942337313644 -8.919615807736948 a71.81490384615384,71.81490384615384 0 0,0 0.2065127789701622,1.2188501115000392 l -50.17206697780403 8.057179907921071" fill="#35ff64" stroke="none" /><path d="M 120.73433829027371 96.67025291283417 l 50.30972627506087 -8.07928674526718 a71.9543269230769,71.9543269230769 0 0,0 0.18586181795803983,1.224597157597047 l -50.44134398645821 7.212090475278051" fill="#35ff67" stroke="none" /><path d="M 120.78858239683441 97.02765380044208 l 50.49607583113854 -7.219916020446303 a72.00961538461539,72.00961538461539 0 0,0 0.16488144828565238,1.2285583041564692 l -50.61287327848203 6.34963937422517" fill="#35ff68" stroke="none" /><path d="M 120.83666639777658 97.38593545837742 l 50.72020500786617 -6.363104679212922 a72.11778846153845,72.11778846153845 0 0,0 0.14392528840880597,1.2330639773942413 l -50.82222064927856 5.489096963493828" fill="#35ff6a" stroke="none" /><path d="M 120.87857604477298 97.74499172005257 l 51.26197087732781 -5.536592559133746 a72.56009615384615,72.56009615384615 0 0,0 0.1234311997804404,1.2429353371894036 l -51.34967920279048 4.6533816912399075" fill="#36ff72" stroke="none" /><path d="M 120.91429891909075 98.10471618934814 l 50.91635867802453 -4.614113562836979 a72.125,72.125 0 0,0 0.10140608831042577,1.2374111295899846 l -50.98823925015445 3.736988516039226" fill="#36ff6a" stroke="none" /><path d="M 120.94382443527127 98.46500227214037 l 51.484504320907796 -3.7733603715413953 a72.62259615384616,72.62259615384616 0 0,0 0.08064362009679522,1.247521109186304 l -51.541828532009006 2.8865801981020556" fill="#36ff73" stroke="none" /><path d="M 120.96714384426684 98.82574320788733 l 50.93940716010985 -2.8528418218634704 a72.01923076923077,72.01923076923077 0 0,0 0.05866615125050889,1.2383497304916355 l -50.980966919593854 1.9755809847488353" fill="#35ff68" stroke="none" /><path d="M 120.98425023603335 99.18683210126433 l 50.61345429526773 -1.9613393766322424 a71.65144230769232,71.65144230769232 0 0,0 0.03715060935904163,1.2328478612297453 l -50.63971659908242 1.0898213679774982" fill="#35ff61" stroke="none" /><line stroke="#e1ed5e" stroke-width="0.3" x1="184.98032266829074" x2="189.97916517819016" y1="98.17113171792111" y2="98.06355123074" /><path d="M 185.9800911702706 98.14961562048488 a86.0,86.0 0 0,1 -9.607161424134198,41.387399972396054" fill="none" id="id28" stroke="none" /><text fill="#e1ed5e" style="font-size:6.75px; font-family:Arial;" text-anchor="middle"><textPath startOffset="21.466115282336823" xlink:href="#id28">April</textPath></text><path d="M 120.99513854157772 99.54816195383933 l 51.91826670257593 -1.1173371464295898 a72.93028846153847,72.93028846153847 0 0,0 0.01620786367395008,1.2553169032398834 l -51.92980757336759 0.2234839851292437" fill="#37ff79" stroke="none" /><path d="M 120.99980553446 99.90962569577887 l 51.16298775131025 -0.22018391609919089 a72.16346153846152,72.16346153846152 0 0,0 -0.005345947272106173,1.2422098745793706 l -51.15919750674864 -0.6605354366838645" fill="#36ff6b" stroke="none" /><path d="M 120.99824983174949 100.27111621757518 l 52.81050218101741 0.6818560458269681 a73.81490384615384,73.81490384615384 0 0,0 -0.027339414048932698,1.2703551426892106 l -52.79094070428347 -1.5908010043062935" fill="#39ff88" stroke="none" /><path d="M 120.9904718944345 100.63252640178507 l 51.23395515167434 1.543882837140918 a72.25721153846155,72.25721153846155 0 0,0 -0.04816413560275678,1.242902327381638 l -51.19978888322037 -2.425562411536562" fill="#36ff6c" stroke="none" /><path d="M 120.9764740272857 100.99374915477107 l 51.713635659987666 2.4499056257216587 a72.77163461538461,72.77163461538461 0 0,0 -0.07004668035506244,1.250730532437927 l -51.663802628745074 -3.3397078744950086" fill="#37ff76" stroke="none" /><path d="M 120.95626037817324 101.35467743843564 l 26.2289092233226 1.6955177554779421 a47.283653846153854,47.283653846153854 0 0,0 -0.05949508826379098,0.8117632102917274 l -26.19583757639447 -2.14675410226644" fill="#ff3304" stroke="none" /><path d="M 120.92983693683757 101.71520430193887 l 51.38543299236405 4.211046459247356 a72.55769230769232,72.55769230769232 0 0,0 -0.11272495260677177,1.2439104587969263 l -51.30533344348021 -5.094938306592853" fill="#36ff72" stroke="none" /><path d="M 120.89721153311464 102.0752229133903 l 50.279131091407585 4.9930300385245765 a71.52644230769229,71.52644230769229 0 0,0 -0.13221389867630506,1.2241364975180895 l -50.185734891230226 -5.857762857927458" fill="#34ff5f" stroke="none" /><path d="M 120.8583938346157 102.4346265915055 l 51.35328921645084 5.99404175024044 a72.70192307692308,72.70192307692308 0 0,0 -0.15578461015777534,1.241756620802659 l -51.24250309704622 -6.8771161253304935" fill="#37ff74" stroke="none" /><path d="M 120.81339534386255 102.79330883721812 l 50.50393252051263 6.777994589211262 a71.95673076923077,71.95673076923077 0 0,0 -0.17532068645479115,1.2261924727264684 l -50.37977778304124 -7.646332533918139" fill="#35ff67" stroke="none" /><path d="M 120.76222939487914 103.15116336523771 l 50.4201804730267 7.652464605485108 a71.99759615384616,71.99759615384616 0 0,0 -0.1965131381782338,1.2236874990223008 l -50.280985580487176 -8.519231334200613" fill="#35ff68" stroke="none" /><path d="M 120.70491114924044 103.5080841355445 l 51.804939091128375 8.777438534195474 a73.54326923076923,73.54326923076923 0 0,0 -0.22221819403329446,1.2463176442385437 l -51.64617445475589 -9.667874929167237" fill="#38ff84" stroke="none" /><path d="M 120.64145759157962 103.86396538481128 l 49.85753166665769 9.33305100559785 a71.72355769230768,71.72355769230768 0 0,0 -0.23761012932750794,1.2115689303426882 l -49.68949160435452 -10.189883663008484" fill="#35ff63" stroke="none" /><path d="M 120.5718875245553 104.21870165774334 l 51.323750984166956 10.525023194885074 a73.39182692307692,73.39182692307692 0 0,0 -0.2644411016144721,1.2353807897670492 l -51.134975843828045 -11.406917804068293" fill="#38ff81" stroke="none" /><path d="M 120.49622156327973 104.57218783832717 l 51.51740305477295 11.492227627516936 a73.78365384615385,73.78365384615385 0 0,0 -0.28719210042669546,1.2372160521226132 l -51.3119503884157 -12.377312336988114" fill="#39ff88" stroke="none" /><path d="M 120.41448212921028 104.9243191809786 l 49.75796336736203 12.002464322410416 a72.18509615384616,72.18509615384616 0 0,0 -0.30176355803956245,1.2053954110274265 l -49.543988495027406 -12.857187572835238" fill="#36ff6b" stroke="none" /><path d="M 120.32669344350535 105.2749913415812 l 50.49796563695016 13.104754703106334 a73.17067307692308,73.17067307692308 0 0,0 -0.32687055222443256,1.2164069236572215 l -50.26490700838395 -13.972052559939103" fill="#38ff7d" stroke="none" /><path d="M 120.23288151984713 105.62410040840565 l 49.67200205542139 13.807243756762377 a72.55528846153845,72.55528846153845 0 0,0 -0.3448358105387891,1.2004186946938187 l -49.426973607996494 -14.660219926960778" fill="#36ff72" stroke="none" /><path d="M 120.13307415673323 105.97154293290107 l 49.2241679159415 14.60006702195903 a72.34375,72.34375 0 0,0 -0.36438247269092683,1.1908230037827199 l -48.96555867074444 -15.445216998293807" fill="#36ff6e" stroke="none" /><path d="M 120.02730092923936 106.31721596034902 l 48.55520074190586 15.315777706065958 a71.91346153846153,71.91346153846153 0 0,0 -0.3825376623852971,1.1773298658727422 l -48.28437082850431 -16.149306471916496" fill="#35ff66" stroke="none" /><path d="M 119.9155931802556 106.66101706037122 l 48.59213239894096 16.252241144896136 a72.23798076923077,72.23798076923077 0 0,0 -0.40456423298133837,1.1758530333634885 l -48.305177335016396 -17.086266881348926" fill="#36ff6c" stroke="none" /><path d="M 119.79798401119884 107.00284435728193 l 48.36636615922682 17.10791028767294 a72.30288461538461,72.30288461538461 0 0,0 -0.425126290920878,1.1697649681375444 l -48.06471560730072 -17.937923052816615" fill="#36ff6d" stroke="none" /><path d="M 119.67450827220406 107.3425965602758 l 47.05801858375732 17.56222013815965 a71.22836538461539,71.22836538461539 0 0,0 -0.4385826237826009,1.1450008346116203 l -46.74874168038121 -18.369644539604412" fill="#34ff59" stroke="none" /><path d="M 119.54520255179757 107.68017299344265 l 47.88977342275949 18.818006287161158 a72.45432692307692,72.45432692307692 0 0,0 -0.46611381681180564,1.156856267611007 l -47.558756991690295 -19.63956192261498" fill="#36ff70" stroke="none" /><path d="M 119.41010516605496 108.01547362559984 l 24.489260432721814 10.112929292738253 a47.49519230769231,47.49519230769231 0 0,0 -0.31855482069624086,0.7529694965531069 l -24.311554630833264 -10.532973314957523" fill="#ff3705" stroke="none" /><path d="M 119.26925614724726 108.34839909993367 l 47.56215319403535 20.60628775090084 a72.83413461538461,72.83413461538461 0 0,0 -0.5083091316079628,1.1461029020842555 l -47.20040297769612 -21.421938989477784" fill="#37ff77" stroke="none" /><path d="M 119.12269723197855 108.67885076344098 l 47.57471401554735 21.591820340273163 a73.2451923076923,73.2451923076923 0 0,0 -0.5309417839846999,1.1436013679045365 l -47.19599761472282 -22.40754177545653" fill="#38ff7e" stroke="none" /><path d="M 118.97047184881838 109.00673069616215 l 24.199512166120876 11.489355182924799 a47.78846153846154,47.78846153846154 0 0,0 -0.35920252501138733,0.7400635937969694 l -23.998156384494774 -11.904207732687043" fill="#ff3e05" stroke="none" /><path d="M 118.81262510543309 109.33194174019688 l 46.973419348078295 23.30101249758637 a73.43509615384616,73.43509615384616 0 0,0 -0.5714695760873704,1.1275636889531127 l -46.56537110220466 -24.106130398242176" fill="#38ff82" stroke="none" /><path d="M 118.64920377521936 109.65438752849418 l 46.112803428172306 23.871843521406 a72.92548076923076,72.92548076923076 0 0,0 -0.5866941458312063,1.1098042224510005 l -45.6950567741162 -24.662062758943136" fill="#37ff79" stroke="none" /><line stroke="#e1ed5e" stroke-width="0.3" x1="174.80103733775053" x2="179.2010983576182" y1="140.37084112569926" y2="142.7455964860345" /><path d="M 175.68104954172406 140.8457921977663 a86.0,86.0 0 0,1 -30.038265399797805,32.042727171017184" fill="none" id="id29" stroke="none" /><text fill="#e1ed5e" style="font-size:6.75px; font-family:Arial;" text-anchor="middle"><textPath startOffset="22.206326154141568" xlink:href="#id29">May</textPath></text><path d="M 118.48025628344425 109.97397251340804 l 23.525518558629056 12.696949212638607 a47.733173076923066,47.733173076923066 0 0,0 -0.3964662588737836,0.7197014212654286 l -23.303475890303762 -13.10002115230184" fill="#ff3d05" stroke="none" /><path d="M 118.30583269289576 110.29060199501025 l 44.68752152114182 25.1210368756397 a72.26442307692307,72.26442307692307 0 0,0 -0.618886297123073,1.0790804251153079 l -44.248483227866366 -25.88653714661332" fill="#36ff6d" stroke="none" /><path d="M 118.12598468904814 110.60418214915192 l 44.387498907143645 25.967865008792035 a72.42548076923077,72.42548076923077 0 0,0 -0.6387897202481814,1.0706483142520111 l -43.933928311197235 -26.728075416930153" fill="#36ff6f" stroke="none" /><path d="M 117.94076556474637 110.91462005526583 l 44.31385523764849 26.9592114872397 a72.87019230769232,72.87019230769232 0 0,0 -0.661159445181476,1.06599954338291 l -43.84323115279905 -27.718007361987883" fill="#37ff78" stroke="none" /><path d="M 117.75023020441432 111.22182372390056 l 21.232818868604596 13.423541427971697 a46.12019230769231,46.12019230769231 0 0,0 -0.4300052073314918,0.6673776309417357 l -20.998608797896054 -13.787040658834886" fill="#ff1802" stroke="none" /><path d="M 117.35343817320211 111.8261652097733 l 42.67046765093341 29.079424779205592 a72.63701923076923,72.63701923076923 0 0,0 -0.7130156786036779,1.0271522642507818 l -42.1635910651676 -29.809618305643394" fill="#37ff73" stroke="none" /><path d="M 117.14729908036423 112.12312394758627 l 42.72888663924553 30.20928173248689 a73.3293269230769,73.3293269230769 0 0,0 -0.7375540789356954,1.0243981073389699 l -42.202552767934236 -30.94031344527699" fill="#38ff80" stroke="none" /><path d="M 116.93607887273984 112.41649034213515 l 21.59272510125644 15.830456665602238 a47.77403846153845,47.77403846153845 0 0,0 -0.49193321722776323,0.6590249350540147 l -21.317030617333586 -16.19979448016557" fill="#ff3e05" stroke="none" /><path d="M 116.71984013943494 112.70617746262583 l 19.64045324071443 14.92568602580886 a45.668269230769226,45.668269230769226 0 0,0 -0.48102427729980946,0.621788721135122 l -19.38062214619655 -15.261552741057235" fill="#ff0e01" stroke="none" /><path d="M 116.498646956653 112.99209946851258 l 40.14746302707527 31.614703583063225 a72.10096153846155,72.10096153846155 0 0,0 -0.7762255203556218,0.9684606867735762 l -39.597319594664796 -32.30109210341505" fill="#35ff6a" stroke="none" /><path d="M 116.27256486870786 113.27417163493432 l 40.932876944809415 33.390558800100926 a73.82451923076923,73.82451923076923 0 0,0 -0.8117322283962213,0.9777837606203061 l -40.352048716519654 -34.090203817835004" fill="#39ff89" stroke="none" /><path d="M 116.0416608686014 113.55231037782055 l 40.07844438164996 33.859057498433074 a73.46634615384615,73.46634615384615 0 0,0 -0.824423560267612,0.9589908534140775 l -39.48967831181157 -34.543925451008676" fill="#38ff82" stroke="none" /><path d="M 115.80600337817218 113.82643327865902 l 37.700285301164556 32.978638991233744 a71.08894230769229,71.08894230769229 0 0,0 -0.8135999129292227,0.9140881270894406 l -37.127026538586996 -33.62270128806405" fill="#33ff57" stroke="none" /><path d="M 115.56566222782051 114.09645910891815 l 39.19567739097937 35.49609746771769 a73.87980769230771,73.87980769230771 0 0,0 -0.8617678224198125,0.9352787700246998 l -38.578863160563834 -36.165527492543724" fill="#39ff8a" stroke="none" /><path d="M 115.32070863581623 114.36230785411682 l 35.788656265007084 33.549864512243815 a70.05528846153845,70.05528846153845 0 0,0 -0.8323016910671746,0.872664995585622 l -35.20584802256094 -34.160936624411946" fill="#31ff43" stroke="none" /><path d="M 115.07121518719521 114.62390073753431 l 17.379512568201054 16.863687732362713 a45.216346153846146,45.216346153846146 0 0,0 -0.5468150003096812,0.5539207083589397 l -17.086656942835837 -17.160348934702316" fill="#ff0300" stroke="none" /><path d="M 114.55890576462653 115.13401014063108 l 34.645729388830226 36.01430137518079 a70.97355769230768,70.97355769230768 0 0,0 -0.8877243005507559,0.8393987351278237 l -34.02066925388866 -36.60533474705454" fill="#33ff55" stroke="none" /><path d="M 114.29624159901734 115.38237550388516 l 35.51477051074568 38.21294793787954 a73.16826923076923,73.16826923076923 0 0,0 -0.9299354296391478,0.8494739664191377 l -34.85173553163967 -38.81861467088526" fill="#38ff7d" stroke="none" /><path d="M 114.0293411484842 115.62618273729858 l 34.66705441533063 38.612912860584274 a72.8918269230769,72.8918269230769 0 0,0 -0.9408517665766414,0.8301922930447441 l -33.997260295847404 -39.203928295401305" fill="#37ff78" stroke="none" /><path d="M 113.75828350139079 115.86535959552629 l 33.17359016406771 38.25411338371859 a71.63461538461537,71.63461538461537 0 0,0 -0.9385312268777461,0.7998366725453506 l -32.51019346061292 -38.819474446486886" fill="#35ff61" stroke="none" /><path d="M 113.48314897796784 116.09983520530334 l 15.589891005775312 18.615434456131986 a45.28125,45.28125 0 0,0 -0.6018737853255097,0.4953011499642091 l -15.267147091905112 -18.881030724953373" fill="#ff0500" stroke="none" /><path d="M 113.20401910651253 116.32954008644616 l 16.66826038308381 20.613801290445082 a47.50961538461538,47.50961538461538 0 0,0 -0.640344793261707,0.5087286313647768 l -16.31095809710475 -20.897663835814985" fill="#ff3805" stroke="none" /><path d="M 112.92097659922987 116.55440617244103 l 16.49879738603586 21.138324273532476 a47.81490384615384,47.81490384615384 0 0,0 -0.6531772506336899,0.5008284628790927 l -16.132491406908677 -21.41919207823894" fill="#ff3f05" stroke="none" /><path d="M 112.63410532772338 116.77436683061366 l 30.768153714207276 40.85103643787839 a72.14182692307692,72.14182692307692 0 0,0 -0.9983571031099435,0.7385607175332866 l -30.06041164067877 -41.37460710415145" fill="#36ff6a" stroke="none" /><path d="M 112.34349029814194 116.9893568818739 l 30.244094532020167 41.62742491489362 a72.45432692307692,72.45432692307692 0 0,0 -1.0153013520268737,0.7243905567483272 l -29.52306585214441 -42.14185973348617" fill="#36ff70" stroke="none" /><path d="M 112.04921762599082 117.19931262002967 l 29.625131111338934 42.2875498815954 a72.63221153846155,72.63221153846155 0 0,0 -1.03014305530215,0.7085417867827016 l -28.8928311714139 -42.7912324577432" fill="#37ff73" stroke="none" /><path d="M 111.7513745106137 117.40417183066458 l 13.808134083270339 20.450300348188176 a45.67548076923077,45.67548076923077 0 0,0 -0.6553894287135922,0.434356376058134 l -13.454069955816783 -20.684954745337627" fill="#ff0e01" stroke="none" /><path d="M 111.45004920935366 117.60387380957326 l 14.797510940201803 22.750427576703544 a48.13942307692308,48.13942307692308 0 0,0 -0.6985218214524005,0.4458296758670334 l -14.403707316702473 -23.001771681394384" fill="#ff4606" stroke="none" /><path d="M 111.1453310114006 117.79835938074945 l 27.47548633946009 43.876541623605796 a72.76923076923077,72.76923076923077 0 0,0 -1.0673541277070915,0.6556560819793198 l -26.71615301182069 -44.3429861724135" fill="#37ff76" stroke="none" /><line stroke="#e1ed5e" stroke-width="0.3" x1="143.8653032363475" x2="146.44561519142675" y1="172.8068346515853" y2="177.08958963109032" /><path d="M 144.38136562736335 173.6633856474863 a86.0,86.0 0 0,1 -40.68145358897372,12.25698825130547" fill="none" id="id30" stroke="none" /><text fill="#e1ed5e" style="font-size:6.75px; font-family:Arial;" text-anchor="middle"><textPath startOffset="21.466115282336833" xlink:href="#id30">June</textPath></text><path d="M 110.8373102113329 117.98757091392108 l 26.32042247640228 43.68615980776825 a72.00240384615384,72.00240384615384 0 0,0 -1.0671172114339367,0.6304716579767995 l -25.56453739393996 -44.13275003803879" fill="#35ff68" stroke="none" /><path d="M 110.5260780823613 118.17145234162733 l 26.03324668583998 44.94189552348901 a72.9375,72.9375 0 0,0 -1.0918091934611924,0.6199577545168709 l -25.255788725457588 -45.38335644380051" fill="#37ff79" stroke="none" /><path d="M 110.21172684928248 118.3499491758327 l 25.59477691070163 45.992500818914 a73.63461538461539,73.63461538461539 0 0,0 -1.1128546276144178,0.606817073637215 l -24.79929947121856 -46.42625854431099" fill="#38ff85" stroke="none" /><path d="M 109.89434966115114 118.52300852407294 l 24.4108193963817 45.698992985272874 a72.81009615384616,72.81009615384616 0 0,0 -1.1105588659998826,0.5809919104376687 l -23.62056962785532 -46.11241431465526" fill="#37ff76" stroke="none" /><path d="M 109.57404056367764 118.69057910512821 l 23.867153776988502 46.5937994221019 a73.35096153846155,73.35096153846155 0 0,0 -1.1287179328031418,0.5659626033074125 l -23.061581936502602 -46.997729866318615" fill="#38ff80" stroke="none" /><path d="M 109.2508944713604 118.85261126421891 l 22.715308757457855 46.29205176611261 a72.56490384615384,72.56490384615384 0 0,0 -1.1260944243448916,0.5405937563310188 l -21.91510166511273 -46.67619979894319" fill="#36ff72" stroke="none" /><path d="M 108.92500713936063 119.00905698771935 l 21.858911716318676 46.55652281470273 a72.43269230769229,72.43269230769229 0 0,0 -1.1331646464670462,0.5201803109768396 l -21.05427907408421 -46.92589019601365" fill="#36ff70" stroke="none" /><path d="M 108.59647513512805 119.15986991738527 l 21.353423813218704 47.59262559606918 a73.16346153846153,73.16346153846153 0 0,0 -1.1534718802789155,0.5056481749004099 l -20.531031258282038 -47.953138324264046" fill="#38ff7d" stroke="none" /><path d="M 108.2653958097858 119.30500536409082 l 20.517785431663793 47.92220081566776 a73.1298076923077,73.1298076923077 0 0,0 -1.1614703822307966,0.4854947139705101 l -19.689843589935535 -48.26828057265824" fill="#37ff7c" stroke="none" /><path d="M 107.93186726928326 119.44442032107085 l 10.116399394958117 24.7996487199372 a47.78365384615385,47.78365384615385 0 0,0 -0.7642629636492425,0.3041160058260259 l -9.688015355267009 -24.970111570169294" fill="#ff3e05" stroke="none" /><path d="M 107.59598834532513 119.57807347666477 l 18.733467135992434 48.28406513905021 a72.79086538461539,72.79086538461539 0 0,0 -1.1720361544365978,0.44316378646074983 l -17.899560760795563 -48.59937717561759" fill="#37ff76" stroke="none" /><path d="M 107.2578585660854 119.70592522655815 l 19.639253507748723 53.3228441426978 a77.82451923076923,77.82451923076923 0 0,0 -1.2610553141726575,0.45216956946328873 l -18.71847863294633 -53.65300125320105" fill="#41ffcd" stroke="none" /><path d="M 106.91757812671514 119.82793768551818 l 17.19971548653611 49.29975211391259 a73.21394230769229,73.21394230769229 0 0,0 -1.1934927820433696,0.40489755128707255 l -16.348552971555517 -49.58851265209778" fill="#38ff7e" stroke="none" /><path d="M 106.57524785965236 119.94407469862006 l 16.267265566697183 49.34195128906542 a72.95432692307693,72.95432692307693 0 0,0 -1.196029406803463,0.3829308466946618 l -15.415514814802782 -49.614654982419786" fill="#37ff79" stroke="none" /><path d="M 106.2309692047433 120.05430185196036 l 7.464895111818157 24.025678019988213 a46.15865384615384,46.15865384615384 0 0,0 -0.7607935829668496,0.2292208656629873 l -7.050226554411061 -24.150614254756928" fill="#ff1902" stroke="none" /><path d="M 105.88484417918355 120.15858648285463 l 7.063025551595642 24.194457334332736 a46.20432692307692,46.20432692307692 0 0,0 -0.7653831064401754,0.21630491108520208 l -6.645511277050861 -24.312451038756457" fill="#ff1a02" stroke="none" /><path d="M 105.53697534728816 120.25689768951611 l 6.579594903868859 24.071297494833647 a45.95432692307692,45.95432692307692 0 0,0 -0.764832212084776,0.20199913866339114 l -6.164272248972586 -24.18098798280062" fill="#ff1402" stroke="none" /><path d="M 105.18746579009965 120.34920634021253 l 12.737081181048259 49.96456913891469 a72.5625,72.5625 0 0,0 -1.212991775039083,0.2981238663613429 l -11.875136121265966 -50.17641426359006" fill="#36ff72" stroke="none" /><path d="M 104.83641907484287 120.43548508189849 l 11.769394815943738 49.72962195010076 a72.10336538461539,72.10336538461539 0 0,0 -1.2102373075733863,0.27544607100931273 l -10.911637358977488 -49.92484475468775" fill="#35ff6a" stroke="none" /><path d="M 104.48393922423573 120.51570834832081 l 11.02968978818699 50.46497901752129 a72.65625,72.65625 0 0,0 -1.2241143633581788,0.2565250666827258 l -10.159383963399435 -50.64736006493055" fill="#37ff74" stroke="none" /><path d="M 104.13013068566511 120.58985236759428 l 10.07664897370262 50.23490308641305 a72.23557692307693,72.23557692307693 0 0,0 -1.2212366279899594,0.23405290632194745 l -9.210444731140957 -50.40091319108347" fill="#36ff6c" stroke="none" /><path d="M 103.7750983002368 120.6578951692458 l 9.226865717337038 50.49077125157238 a72.32692307692307,72.32692307692307 0 0,0 -1.2266337163860987,0.21326599467261514 l -8.356383029478888 -50.642115824766" fill="#36ff6e" stroke="none" /><path d="M 103.41894727170886 120.7198165907248 l 8.463616494731665 51.29198186710332 a72.98557692307693,72.98557692307693 0 0,0 -1.2413252643221389,0.19386947714367844 l -7.579455366801009 -51.4300696515941" fill="#37ff7a" stroke="none" /><path d="M 103.06178313531738 120.77559828337769 l 7.683197103070917 52.1340047582653 a73.69711538461537,73.69711538461537 0 0,0 -1.2566109491064732,0.1741548272811115 l -6.784657562777613 -52.258534151039015" fill="#39ff86" stroke="none" /><path d="M 102.70371172650421 120.8252237178851 l 6.7255448178414525 51.80322076618141 a73.23798076923076,73.23798076923076 0 0,0 -1.2515763280555854,0.1515484634071352 l -5.8328410667344865 -51.91131475831389" fill="#38ff7e" stroke="none" /><path d="M 102.34483914955558 120.86867818915974 l 2.7858385454713193 24.793499419103583 a45.949519230769226,45.949519230769226 0 0,0 -0.786759491287077,0.08155083813738301 l -2.3586464575786397 -24.837779625696722" fill="#ff1402" stroke="none" /><path d="M 101.98527174616119 120.90594882070398 l 2.420231696041286 25.48630436589942 a46.60096153846153,46.60096153846153 0 0,0 -0.7992190998468947,0.06895998687337809 l -1.98116827845285 -25.524188605051464" fill="#ff2303" stroke="none" /><line stroke="#e1ed5e" stroke-width="0.3" x1="102.19456741930631" x2="102.32365962044197" y1="184.97166512339345" y2="189.96999836594603" /><path d="M 102.22038585953345 185.97133177190398 a86.0,86.0 0 0,1 -42.740103519485714,-10.115201625700543" fill="none" id="id31" stroke="none" /><text fill="#e1ed5e" style="font-size:6.75px; font-family:Arial;" text-anchor="middle"><textPath startOffset="22.20632615414155" xlink:href="#id31">July</textPath></text><line stroke="#e1ed5e" stroke-width="0.3" x1="58.666819895761336" x2="56.23545636021788" y1="174.27360380694188" y2="178.64263932499728" /><path d="M 58.180547188652646 175.14741091055294 a86.0,86.0 0 0,1 -31.652253787137756,-30.449443065178592" fill="none" id="id32" stroke="none" /><text fill="#e1ed5e" style="font-size:6.75px; font-family:Arial;" text-anchor="middle"><textPath startOffset="22.20632615414155" xlink:href="#id32">August</textPath></text><path d="M 82.85270091963577 112.12312394758628 l -21.56759641655702 15.248269910265345 a47.41346153846153,47.41346153846153 0 0,0 -0.4654175214210246,-0.6704686520860077 l 21.82687484514018 -14.874759995992324" fill="#ff3605" stroke="none" /><path d="M 82.6465618267979 111.8261652097733 l -42.08645771241218 28.681428834645924 a71.93028846153845,71.93028846153845 0 0,0 -0.6884649813180762,-1.0291617349152038 l 42.57392579914098 -27.9527301855249" fill="#35ff66" stroke="none" /><path d="M 82.44556493220864 111.52570212397912 l -21.814439914828643 14.322690276776243 a47.09615384615384,47.09615384615384 0 0,0 -0.4391046607963508,-0.6815001847915504 l 22.057749439002038 -13.945068492063244" fill="#ff2e04" stroke="none" /><path d="M 82.24976979558568 111.22182372390057 l -21.561978357285348 13.631638433840752 a46.50961538461539,46.50961538461539 0 0,0 -0.4219869679148797,-0.680377355854495 l 21.79342996486818 -13.258464746620993" fill="#ff2103" stroke="none" /><path d="M 82.05923443525364 110.91462005526583 l -44.50073821228125 27.072905446148724 a73.0889423076923,73.0889423076923 0 0,0 -0.6446414233511057,-1.0804561052418489 l 44.960160511330585 -26.302887247020763" fill="#37ff7b" stroke="none" /><line stroke="#e1ed5e" stroke-width="0.3" x1="26.63291911575756" x2="22.317208475507996" y1="142.92168965132927" y2="145.44649492493687" /><path d="M 25.769776987707644 143.4266507060508 a86.0,86.0 0 0,1 -11.730757126820373,-40.83630448921669" fill="none" id="id33" stroke="none" /><text fill="#e1ed5e" style="font-size:6.75px; font-family:Arial;" text-anchor="middle"><textPath startOffset="21.46611528233685" xlink:href="#id33">September</textPath></text><path d="M 81.87401531095188 110.60418214915194 l -44.94563648513743 26.294390306196117 a73.07211538461537,73.07211538461537 0 0,0 -0.6258035280402973,-1.091141200274632 l 45.391592009330104 -25.51682926006318" fill="#37ff7b" stroke="none" /><path d="M 81.69416730710424 110.29060199501025 l -45.93850390640495 25.824275130106415 a73.69951923076923,73.69951923076923 0 0,0 -0.6121397507584654,-1.1112114556365795 l 46.37622006661493 -25.029693156072014" fill="#39ff86" stroke="none" /><path d="M 81.51974371655577 109.97397251340807 l -44.776967119009164 24.166560919334767 a71.88221153846152,71.88221153846152 0 0,0 -0.5783009210795822,-1.0939274042902434 l 45.18632054831363 -23.3922184999584" fill="#35ff66" stroke="none" /><path d="M 81.35079622478065 109.6543875284942 l -45.811803229877206 23.716020645774428 a72.58653846153845,72.58653846153845 0 0,0 -0.5648661271902347,-1.1145344578097212 l 46.213248026853705 -22.923931976262022" fill="#36ff72" stroke="none" /><path d="M 81.18737489456691 109.33194174019688 l -46.97557280791178 23.302080714360663 a73.4375,73.4375 0 0,0 -0.5519938198741227,-1.1372707641094952 l 47.369719884400624 -22.490020994285885" fill="#38ff82" stroke="none" /><path d="M 81.02952815118164 109.00673069616217 l -22.305939426632587 10.590331697685185 a45.69230769230769,45.69230769230769 0 0,0 -0.3312156688540035,-0.7134090843823322 l 22.484929712326416 -10.204802546024025" fill="#ff0e01" stroke="none" /><path d="M 80.87730276802145 108.67885076344099 l -47.92056865870811 21.74878673457534 a73.62499999999999,73.62499999999999 0 0,0 -0.5138285779361674,-1.1585477964631077 l 48.28783832137556 -20.920690601619537" fill="#38ff85" stroke="none" /><path d="M 80.73074385275274 108.34839909993369 l -22.16317373712688 9.602187975747903 a45.153846153846146,45.153846153846146 0 0,0 -0.3028511869601319,-0.715850745179358 l 22.325175905279316 -9.219262704902386" fill="#ff0200" stroke="none" /><path d="M 80.58989483394504 108.01547362559985 l -45.7190629580944 18.879853570738096 a70.46394230769229,70.46394230769229 0 0,0 -0.4533092568994037,-1.1250764000027293 l 46.03727482925119 -18.090077802892562" fill="#32ff4b" stroke="none" /><path d="M 80.45479744820244 107.68017299344265 l -22.889991678965306 8.994488312260964 a45.59375,45.59375 0 0,0 -0.28073965189444977,-0.732922642842891 l 23.041425610453263 -8.599142102584915" fill="#ff0c01" stroke="none" /><path d="M 80.32549172779594 107.34259656027581 l -22.881525188369185 8.539466695558863 a45.42307692307692,45.42307692307692 0 0,0 -0.2670784757377838,-0.7348852595893327 l 23.025127925112194 -8.144333638963413" fill="#ff0801" stroke="none" /><path d="M 80.20201598880116 107.00284435728193 l -48.259852280045685 17.07023472851633 a72.18990384615384,72.18990384615384 0 0,0 -0.4042949812206852,-1.1750704617130636 l 48.546538092209595 -16.236991563713968" fill="#36ff6b" stroke="none" /><path d="M 80.0844068197444 106.66101706037122 l -47.705323133016115 15.95563679090296 a71.30288461538461,71.30288461538461 0 0,0 -0.3792897493539392,-1.1673338174059518 l 47.9729051333863 -15.132104073519203" fill="#34ff5b" stroke="none" /><path d="M 79.97269907076064 106.31721596034903 l -46.8633339738451 14.782111797327703 a70.13942307692307,70.13942307692307 0 0,0 -0.35327967397162635,-1.1545384151644171 l 47.11084042032286 -13.973246409611237" fill="#32ff45" stroke="none" /><path d="M 79.86692584326677 105.97154293290107 l -47.98889688251557 14.233681146039277 a71.05528846153847,71.05528846153847 0 0,0 -0.33770671317349477,-1.1756013715155276 l 48.22679623257516 -13.405522299019154" fill="#33ff56" stroke="none" /><path d="M 79.76711848015287 105.62410040840567 l -46.90897233321699 13.03920898258339 a69.6875,69.6875 0 0,0 -0.3113104014253601,-1.1585018140156966 l 47.12647081098412 -12.229816235392153" fill="#31ff3c" stroke="none" /><path d="M 79.67330655649465 105.27499134158121 l -23.663286666718108 6.140872475261094 a45.44711538461539,45.44711538461539 0 0,0 -0.18998773946172431,-0.7589065783371005 l 23.76548572047489 -5.732638057526602" fill="#ff0901" stroke="none" /><path d="M 79.58551787078972 104.9243191809786 l -49.93556188405386 12.045304095505008 a72.36778846153845,72.36778846153845 0 0,0 -0.28168105112873587,-1.2134745959845663 l 50.135503501113156 -11.183960842171867" fill="#36ff6e" stroke="none" /><path d="M 79.50377843672027 104.57218783832718 l -49.917308834745825 11.135287139222642 a72.14423076923076,72.14423076923076 0 0,0 -0.25994583674474403,-1.2143804088463932 l 50.101588710215005 -10.274392910960085" fill="#36ff6a" stroke="none" /><path d="M 79.4281124754447 104.21870165774334 l -48.63923269456153 9.974505808229019 a70.6514423076923,70.6514423076923 0 0,0 -0.234058360795809,-1.1934585391192467 l 48.803720988333005 -9.135783542041816" fill="#33ff4f" stroke="none" /><path d="M 79.35854240842038 103.8639653848113 l -49.88352251298408 9.337916346627296 a71.74999999999999,71.74999999999999 0 0,0 -0.21679965534110518,-1.2159276016615197 l 50.03686861066437 -8.477869994232561" fill="#35ff63" stroke="none" /><path d="M 79.29508885075956 103.50808413554451 l -49.67898839276886 8.417233466706554 a71.38701923076923,71.38701923076923 0 0,0 -0.19484660493735673,-1.2133099949405486 l 49.81651675206751 -7.5608442420727915" fill="#34ff5c" stroke="none" /><path d="M 79.23777060512086 103.15116336523772 l -49.68342553799776 7.540644476911011 a71.25240384615384,71.25240384615384 0 0,0 -0.1736046123874758,-1.2141902546965369 l 49.80586420140184 -6.684308750234074" fill="#34ff5a" stroke="none" /><path d="M 79.18660465613746 102.79330883721812 l -50.08223254616925 6.72139938955611 a71.53125,71.53125 0 0,0 -0.15327610912792358,-1.2217613994585144 l 50.19051016454402 -5.858320235810187" fill="#34ff5f" stroke="none" /><path d="M 79.10278846688536 102.07522291339032 l -24.262868198303778 2.4094535268450037 a45.38221153846153,45.38221153846153 0 0,0 -0.07050537968007035,-0.7780209896510553 l 24.300748174260924 -1.9914511486453825" fill="#ff0701" stroke="none" /><path d="M 79.07016306316243 101.71520430193888 l -49.93356930375097 4.092065941049695 a71.10096153846152,71.10096153846152 0 0,0 -0.08946343267242318,-1.2206574597869517 l 49.99660929508773 -3.2319353447659824" fill="#33ff57" stroke="none" /><path d="M 79.04373962182676 101.35467743843564 l -24.31703427810693 1.5719282501627858 a45.36778846153847,45.36778846153847 0 0,0 -0.04366897890334427,-0.7797389534800008 l 24.340489607897805 -1.1531175803473475" fill="#ff0701" stroke="none" /><path d="M 79.0235259727143 100.99374915477108 l -26.448702084541214 1.2529930105086349 a47.47836538461539,47.47836538461539 0 0,0 -0.03164742148076142,-0.8166793262621966 l 26.466351638873178 -0.7975364372324414" fill="#ff3705" stroke="none" /><path d="M 79.0095281055655 100.63252640178507 l -51.65924287206293 1.556698447616658 a72.6826923076923,72.6826923076923 0 0,0 -0.026920067840672454,-1.2508697721805935 l 51.67838500258861 -0.6672388596459357" fill="#37ff74" stroke="none" /><line stroke="#e1ed5e" stroke-width="0.3" x1="15.007084014347285" x2="10.007500721073583" y1="101.09737516637583" y2="101.16192664675087" /><path d="M 14.007167355692545 101.11028546245083 a86.0,86.0 0 0,1 10.666146001902534,-42.60595125391555" fill="none" id="id34" stroke="none" /><text fill="#e1ed5e" style="font-size:6.75px; font-family:Arial;" text-anchor="middle"><textPath startOffset="22.20632615414155" xlink:href="#id34">October</textPath></text><path d="M 79.00175016825051 100.2711162175752 l -50.954887612552376 0.6578975156108925 a71.95913461538461,71.95913461538461 0 0,0 -0.005330810512674828,-1.238692624767969 l 50.95866272035455 0.21930458736075184" fill="#35ff67" stroke="none" /><path d="M 79.00019446554 99.90962569577889 l -51.46106191411625 -0.22146670155285514 a72.46153846153847,72.46153846153847 0 0,0 0.0161036897256848,-1.247248516142987 l 51.44962521727285 1.1072514757563139" fill="#36ff70" stroke="none" /><path d="M 79.00486145842228 99.54816195383935 l -61.709268810907815 -1.3280500814179215 a82.72355769230768,82.72355769230768 0 0,0 0.04289139866047234,-1.4233567097829287 l 61.6772657177917 2.3900769386258447" fill="#4ae5ff" stroke="none" /><path d="M 79.01574976396665 99.18683210126434 l -50.20030284831285 -1.9453292028017892 a71.23798076923077,71.23798076923077 0 0,0 0.058029752747282844,-1.2249163639225191 l 50.159379487332075 2.8091566733473172" fill="#34ff5a" stroke="none" /><path d="M 79.03285615573316 98.82574320788736 l -62.90143153280056 -3.522770376337934 a84.0,84.0 0 0,0 0.09327763598234728,-1.442963742987953 l 62.831473305813795 4.604993183578899" fill="#4dd2ff" stroke="none" /><path d="M 79.08570108090925 98.10471618934814 l -24.438319982380776 -2.214635661530921 a45.53846153846153,45.53846153846153 0 0,0 0.07746498753157736,-0.7800618528314185 l 24.39657786916697 2.63497304506677" fill="#ff0b01" stroke="none" /><line stroke="#e1ed5e" stroke-width="0.3" x1="26.266209847984243" x2="21.928928074336255" y1="57.711370442889674" y2="55.22380399835377" /><path d="M 25.398753493254645 57.213857153982495 a86.0,86.0 0 0,1 29.58750427330803,-30.492523968695096" fill="none" id="id35" stroke="none" /><text fill="#e1ed5e" style="font-size:6.75px; font-family:Arial;" text-anchor="middle"><textPath startOffset="21.46611528233685" xlink:href="#id35">November</textPath></text><line stroke="#e1ed5e" stroke-width="0.3" x1="56.762969772571076" x2="54.21961505331055" y1="26.818313649435495" y2="22.513508569990535" /><path d="M 56.25429882871897 25.957352633546506 a86.0,86.0 0 0,1 42.265352541879196,-11.944610805530505" fill="none" id="id36" stroke="none" /><text fill="#e1ed5e" style="font-size:6.75px; font-family:Arial;" text-anchor="middle"><textPath startOffset="22.20632615414155" xlink:href="#id36">December</textPath></text></svg>