<?xml version="1.0" encoding="utf-8" ?>
<svg baseProfile="full" height="200mm" version="1.1" viewBox="0,0,200,200" width="200mm" xmlns="http://www.w3.org/2000/svg" xmlns:ev="http://www.w3.org/2001/xml-events" xmlns:xlink="http://www.w3.org/1999/xlink"><defs /><rect fill="#1a1a1a" height="200" width="200" x="0" y="0" /><text alignment-baseline="middle" fill="#e1ed5e" style="dominant-baseline: central; font-size:9.0px; font-family:Arial;" text-anchor="middle" x="100.0" y="100.0">2026</text><line stroke="#e1ed5e" stroke-width="0.3" x1="100.0" x2="100.0" y1="15.0" y2="10.0" /><path d="M 100.0 14.0 a86.0,86.0 0 0,1 42.46469731375804,11.215312516191453" fill="none" id="id37" stroke="none" /><text fill="#e1ed5e" style="font-size:6.75px; font-family:Arial;" text-anchor="middle"><textPath startOffset="22.20632615414155" xlink:href="#id37">January</textPath></text><path d="M 100.0 79.0 l 0.0 -3.9446579954093366 a24.944657995409337,24.944657995409337 0 0,0 0.4293812822604702,0.0036958202569246463 l -0.06790080298794181 3.9440735517609706" fill="#ff1e03" stroke="none" /><path d="M 100.36148047927253 79.00311137660856 l 0.0695403257738083 -4.039306570704706 a25.039905126243305,25.039905126243305 0 0,0 0.43089308427961054,0.011128697108515386 l -0.13906004524828663 4.037511081453831" fill="#ff1f03" stroke="none" /><path d="M 100.72285384407766 79.0124445844662 l 0.13429485112390016 -3.8991570053557125 a24.901469013006885,24.901469013006885 0 0,0 0.42825684862002,0.018441640763789187 l -0.2013925321332517 3.8962676380677284" fill="#ff1d02" stroke="none" /><path d="M 101.08401301168833 79.027996857942 l 0.20300486671222814 -3.927460885281319 a24.9327039020658,24.9327039020658 0 0,0 0.4284126568052398,0.025843021402709884 l -0.2705795723570799 3.923384594498305" fill="#ff1d03" stroke="none" /><path d="M 101.44485096284872 79.0497635885617 l 0.2812982218871343 -4.0788042519162895 a25.08849273144606,25.08849273144606 0 0,0 0.4305780435487978,0.033421143154705575 l -0.3514664547982733 4.073357846573119" fill="#ff2003" stroke="none" /><path d="M 101.80526077348638 79.07773832637324 l 0.3522454655681634 -4.082386274716902 a25.097554705432287,25.097554705432287 0 0,0 0.43009425285538516,0.040842631717079775 l -0.4224648455137927 4.075718098484645" fill="#ff2003" stroke="none" /><path d="M 102.16513564639614 79.11191278185805 l 0.20087555354399 -1.9379414354031308 a22.94832440703902,22.94832440703902 0 0,0 0.392562010746136,0.04410891591130809 l -0.2342042677998513 1.934196566021222" fill="#ff0000" stroke="none" /><path d="M 102.52436894288641 79.15227682838746 l 0.24090244032772432 -1.9895140135798692 a23.004045906656465,23.004045906656465 0 0,0 0.39269579248884356,0.05098318430976043 l -0.275112961324414 1.9850725061059722" fill="#ff0100" stroke="none" /><path d="M 102.88285421437855 79.19881850522331 l 0.26891934645526705 -1.9403825920758782 a22.95892884468248,22.95892884468248 0 0,0 0.3909916729042733,0.05762200894621901 l -0.30227999978819614 1.93546609896869" fill="#ff0000" stroke="none" /><path d="M 103.2404852339499 79.25152402106235 l 0.6070294129604888 -3.8867435843758065 a24.933860749808723,24.933860749808723 0 0,0 0.42348475750747705,0.06987861354615503 l -0.6738433766068411 3.8757187078900266" fill="#ff1d03" stroke="none" /><path d="M 103.59715602781102 79.31037775812273 l 0.6682948941645555 -3.8438057175001057 a24.901469013006885,24.901469013006885 0 0,0 0.42167066060619907,0.07705761797475012 l -0.7343606758736554 3.831732618174617" fill="#ff1d02" stroke="none" /><path d="M 103.95276090670814 79.375362276772 l 0.7400221666290937 -3.8612730327254083 a24.931547054322877,24.931547054322877 0 0,0 0.4207894161906177,0.08440639830653746 l -0.8063779922868367 3.8479626783416627" fill="#ff1d03" stroke="none" /><path d="M 104.307194497241 79.44645832069477 l 0.4005196560188847 -1.9112434900811308 a22.952758990053557,22.952758990053557 0 0,0 0.3859968494327588,0.08436396073765683 l -0.4333592296051714 1.9040660312476034" fill="#ff0000" stroke="none" /><path d="M 104.66035177308747 79.52364482259891 l 0.8689862355895966 -3.818096073124764 a24.915736801836267,24.915736801836267 0 0,0 0.41736981089343467,0.09877794956071757 l -0.9345797334455548 3.8025722114231777" fill="#ff1d03" stroke="none" /><path d="M 105.01212808612495 79.60689891045804 l 0.4708562623770204 -1.9157968815442372 a22.97281101759755,22.97281101759755 0 0,0 0.383198642923007,0.0976858663547754 l -0.5037637939850523 1.907408019020594" fill="#ff0100" stroke="none" /><line stroke="#e1ed5e" stroke-width="0.3" x1="143.23703022742887" x2="145.7803849466894" y1="26.81831364943548" y2="22.513508569990506" /><path d="M 143.74570117128098 25.957352633546492 a86.0,86.0 0 0,1 28.547481713284135,27.462654790039103" fill="none" id="id38" stroke="none" /><text fill="#e1ed5e" style="font-size:6.75px; font-family:Arial;" text-anchor="middle"><textPath startOffset="19.985693538727396" xlink:href="#id38">February</textPath></text><line stroke="#e1ed5e" stroke-width="0.3" x1="172.23445277983987" x2="176.4835382374775" y1="55.19839476539836" y2="52.563006222186495" /><path d="M 173.08426987136738 54.67131705675599 a86.0,86.0 0 0,1 12.851231095245387,41.99856678651699" fill="none" id="id39" stroke="none" /><text fill="#e1ed5e" style="font-size:6.75px; font-family:Arial;" text-anchor="middle"><textPath startOffset="22.20632615414155" xlink:href="#id39">March</textPath></text><path d="M 118.21658344932153 89.55222093294921 l 1.688246610596343 -0.9682621138743148 a22.94620351951033,22.94620351951033 0 0,0 0.19355926737285406,0.3443203387328559 l -1.70466351926163 0.939058265206665" fill="#ff0000" stroke="none" /><path d="M 118.3937258080291 89.86733742301442 l 3.436516539870703 -1.8930945748653067 a24.923449120122417,24.923449120122417 0 0,0 0.203769254926938,0.37755348219318285 l -3.468593894016106 1.8336601093396652" fill="#ff1d03" stroke="none" /><path d="M 118.56541770881063 90.18545643968196 l 3.530980515727733 -1.8666405801253707 a24.994016832440703,24.994016832440703 0 0,0 0.19779856309471017,0.3820838658808361 l -3.5625885119825593 1.8055839919841898" fill="#ff1e03" stroke="none" /><path d="M 118.73160827565052 90.50648371742162 l 3.5323198381660545 -1.7902432831939799 a24.96008263198164,24.96008263198164 0 0,0 0.1909327309849235,0.38490873479243565 l -3.562612582104386 1.7291749599025943" fill="#ff1e03" stroke="none" /><path d="M 118.89224826269711 90.83032412892265 l 1.7647412439909451 -0.8565473509931834 a22.961628156082632,22.961628156082632 0 0,0 0.16952439531681127,0.3570616106481189 l -1.7792238331495125 0.826043324704524" fill="#ff0000" stroke="none" /><path d="M 119.04729006885535 91.15688171328212 l 1.7764257614638042 -0.8247442591260619 a22.95854322876817,22.95854322876817 0 0,0 0.16333110306070495,0.3598784352361223 l -1.790359181487856 0.7940438150478767" fill="#ff0000" stroke="none" /><path d="M 119.196687751892 91.48605970444005 l 3.5713770520268193 -1.5839446568532316 a24.906867635807192,24.906867635807192 0 0,0 0.17044515561829335,0.3934109190697859 l -3.5981129174877933 1.5222345931968428" fill="#ff1d02" stroke="none" /><path d="M 119.34039704204932 91.81776055985345 l 3.6272344946712325 -1.5345549047639502 a24.938488140780414,24.938488140780414 0 0,0 0.16385573929873584,0.3967896696325458 l -3.6531119208561655 1.4718906646781011" fill="#ff1e03" stroke="none" /><path d="M 119.47837535516314 92.15188598940014 l 1.8205649069523553 -0.7335314518246963 a22.962785003825555,22.962785003825555 0 0,0 0.14456325191359526,0.3678977078524413 l -1.832921708747651 0.7020847390764705" fill="#ff0000" stroke="none" /><path d="M 119.61058180528143 92.48833698450437 l 3.7016736159275996 -1.4178939244276187 a24.963938791124715,24.963938791124715 0 0,0 0.1502536817202118,0.402605165579517 l -3.7255318861494366 1.3539656218187686" fill="#ff1e03" stroke="none" /><path d="M 119.7369772167798 92.82701384747503 l 3.6617453584037 -1.3307837599149694 a24.89607039020658,24.89607039020658 0 0,0 0.1429116469276917,0.40403047055392777 l -3.6841100861412013 1.2675556629344271" fill="#ff1d02" stroke="none" /><path d="M 119.85752413597 93.16781622104841 l 3.699971796315608 -1.2730130461518903 a24.91284468247896,24.91284468247896 0 0,0 0.13602734243507644,0.4067044399939329 l -3.7213364325224543 1.2091355032356434" fill="#ff1d02" stroke="none" /><path d="M 120.83666639777658 97.38593545837742 l 1.938336072920632 -0.24317400400048908 a22.953530221882172,22.953530221882172 0 0,0 0.0458083023295493,0.392457559700787 l -1.9422347282537704 0.20977270597484937" fill="#ff0000" stroke="none" /><path d="M 120.87857604477298 97.74499172005257 l 3.871242630979562 -0.418116837461714 a24.893756694720736,24.893756694720736 0 0,0 0.04234650198584226,0.4264234959895874 l -3.877866258647633 0.35141781076769163" fill="#ff1d02" stroke="none" /><path d="M 120.91429891909075 98.10471618934814 l 4.5635736322366744 -0.41355759795518493 a25.58227390971691,25.58227390971691 0 0,0 0.035968087726450666,0.4389017740880859 l -4.57001620378262 0.33494190665933027" fill="#ff2703" stroke="none" /><path d="M 120.94382443527127 98.46500227214037 l 1.9425357102841057 -0.14237074564809207 a22.94774598316756,22.94774598316756 0 0,0 0.02548227971944121,0.39419958853578657 l -1.9446985810079624 0.10891209285927027" fill="#ff0000" stroke="none" /><path d="M 120.96714384426684 98.82574320788733 l 3.914615486517211 -0.2192365282412649 a24.920749808722263,24.920749808722263 0 0,0 0.020300195683000993,0.42850504621698154 l -3.9178092904337083 0.15182037540128362" fill="#ff1d03" stroke="none" /><path d="M 120.98425023603335 99.18683210126433 l 3.9896727212343883 -0.15460517992671666 a24.99266717674063,24.99266717674063 0 0,0 0.012958466504224888,0.4300284164965598 l -3.991742882194258 0.08590661600515778" fill="#ff1e03" stroke="none" /><line stroke="#e1ed5e" stroke-width="0.3" x1="184.98032266829074" x2="189.97916517819016" y1="98.17113171792111" y2="98.06355123074" /><path d="M 185.9800911702706 98.14961562048488 a86.0,86.0 0 0,1 -9.607161424134198,41.387399972396054" fill="none" id="id40" stroke="none" /><text fill="#e1ed5e" style="font-size:6.75px; font-family:Arial;" text-anchor="middle"><textPath startOffset="21.466115282336823" xlink:href="#id40">April</textPath></text><path d="M 120.99513854157772 99.54816195383933 l 3.9005658306548567 -0.08394438742825801 a24.901469013006885,24.901469013006885 0 0,0 0.005534046602006185,0.42861800805870975 l -3.9014328843745787 0.016790121309085537" fill="#ff1d02" stroke="none" /><path d="M 120.99980553446 99.90962569577887 l 8.134106771731888 -0.03500576416049918 a29.13418209640398,29.13418209640398 0 0,0 -0.0021582917169280214,0.5015109851494258 l -8.133504182725458 -0.1050146991926113" fill="#ff5908" stroke="none" /><path d="M 120.99824983174949 100.27111621757518 l 1.9732249765382353 0.02547704196066125 a22.973389441469013,22.973389441469013 0 0,0 -0.00850883728517417,0.39537223380794034 l -1.9724940765680536 -0.05943909155871642" fill="#ff0100" stroke="none" /><path d="M 120.9764740272857 100.99374915477107 l 4.100667957052493 0.19426693499665343 a25.10526702371844,25.10526702371844 0 0,0 -0.02416519326153934,0.4314857589434091 l -4.096716412903424 -0.2648244102754859" fill="#ff2003" stroke="none" /><path d="M 120.95626037817324 101.35467743843564 l 3.989546065261717 0.2578965877823689 a24.99787299158378,24.99787299158378 0 0,0 -0.031453801452831026,0.4291621306622761 l -3.9845157051445486 -0.3265318549414153" fill="#ff1e03" stroke="none" /><path d="M 120.92983693683757 101.71520430193887 l 1.9370107696096972 0.15873841802794636 a22.943504208110177,22.943504208110177 0 0,0 -0.03564481369562931,0.3933375488968502 l -1.9339913596369924 -0.1920573554733671" fill="#ff0000" stroke="none" /><path d="M 120.89721153311464 102.0752229133903 l 1.9474218551900258 0.1933910871085987 a22.95700076511094,22.95700076511094 0 0,0 -0.042435139720961794,0.39289669111783476 l -1.9438044139680122 -0.22688410011122487" fill="#ff0000" stroke="none" /><path d="M 119.67450827220406 107.3425965602758 l 1.8103558246735643 0.6756312415646576 a22.932321346595256,22.932321346595256 0 0,0 -0.14120382534831918,0.36863863068665625 l -1.7984577197317382 -0.7066934390844578" fill="#ff0000" stroke="none" /><path d="M 119.54520255179757 107.68017299344265 l 1.8083275236217047 0.7105717207796928 a22.942925784238714,22.942925784238714 0 0,0 -0.14759663308272924,0.366322738999555 l -1.7958282762815831 -0.7415938276220612" fill="#ff0000" stroke="none" /><path d="M 119.41010516605496 108.01547362559984 l 3.7573924161080607 1.5516288837534535 a25.065162968630453,25.065162968630453 0 0,0 -0.16811445763745106,0.39737291764696225 l -3.730126977278301 -1.6160763270665794" fill="#ff1f03" stroke="none" /><path d="M 119.26925614724726 108.34839909993367 l 3.6517525582432837 1.5821206349355557 a24.979749043611324,24.979749043611324 0 0,0 -0.1743335677865095,0.39307617264078837 l -3.6239779057255013 -1.6447451440690317" fill="#ff1e03" stroke="none" /><path d="M 119.12269723197855 108.67885076344098 l 3.8049924506023456 1.7268987336981751 a25.178534047436877,25.178534047436877 0 0,0 -0.18251485679916335,0.39312076426148934 l -3.774702976963351 -1.7921395652384953" fill="#ff2103" stroke="none" /><path d="M 118.97047184881838 109.00673069616215 l 1.7678679963168151 0.8393418506446443 a22.95700076511094,22.95700076511094 0 0,0 -0.17255656231744163,0.35551762793941427 l -1.7531581773846594 -0.8696484345493339" fill="#ff0000" stroke="none" /><path d="M 118.81262510543309 109.33194174019688 l 3.5491521407783235 1.760545421982238 a24.96181790359602,24.96181790359602 0 0,0 -0.19425207077898032,0.38327776434565797 l -3.518321400213074 -1.8213773980305903" fill="#ff1e03" stroke="none" /><path d="M 118.64920377521936 109.65438752849418 l 14.832666339120989 7.678628570138018 a37.702374904361136,37.702374904361136 0 0,0 -0.3033200797169786,0.5737672816679601 l -14.698293751179117 -7.932810866892113" fill="#ffcd13" stroke="none" /><line stroke="#e1ed5e" stroke-width="0.3" x1="174.80103733775053" x2="179.2010983576182" y1="140.37084112569926" y2="142.7455964860345" /><path d="M 175.68104954172406 140.8457921977663 a86.0,86.0 0 0,1 -30.038265399797805,32.042727171017184" fill="none" id="id41" stroke="none" /><text fill="#e1ed5e" style="font-size:6.75px; font-family:Arial;" text-anchor="middle"><textPath startOffset="22.206326154141568" xlink:href="#id41">May</textPath></text><path d="M 118.48025628344425 109.97397251340804 l 3.9922443772899134 2.1546527859339983 a25.53657842387146,25.53657842387146 0 0,0 -0.2121038904292748,0.3850301708687722 l -3.9545640774091293 -2.2230534752005755" fill="#ff2603" stroke="none" /><path d="M 118.30583269289576 110.29060199501025 l 3.3985821840830455 1.910508917592368 a24.89876970160673,24.89876970160673 0 0,0 -0.21323781090931349,0.3717980971889596 l -3.3651923770213523 -1.9687268606396426" fill="#ff1d02" stroke="none" /><path d="M 117.94076556474637 110.91462005526583 l 5.232499087342614 3.183294451497238 a27.124737566947207,27.124737566947207 0 0,0 -0.24610579267762997,0.39680089958668413 l -5.176928654997021 -3.272891682449196" fill="#ff3d05" stroke="none" /><path d="M 117.75023020441432 111.22182372390056 l 4.357185812503946 2.7546443374035663 a26.154913542463657,26.154913542463657 0 0,0 -0.24385737478133848,0.37847206102269426 l -4.309123574345557 -2.8292379983477134" fill="#ff2f04" stroke="none" /><path d="M 117.55443506779139 111.5257021239791 l 1.6339727257897685 1.0728162338139255 a22.954687069625095,22.954687069625095 0 0,0 -0.21970575320301522,0.3284302909704581 l -1.6152638671760322 -1.1007834389901905" fill="#ff0000" stroke="none" /><path d="M 117.14729908036423 112.12312394758627 l 1.5812774778562668 1.1179616550533116 a22.93656312165264,22.93656312165264 0 0,0 -0.23069836308312203,0.32041984887341823 l -1.561799322397542 -1.1450151093778609" fill="#ff0000" stroke="none" /><path d="M 116.93607887273984 112.41649034213515 l 1.5914990108262492 1.1667890924414983 a22.973389441469013,22.973389441469013 0 0,0 -0.23655888726398125,0.316909287390965 l -1.5711788568671758 -1.1940112593417782" fill="#ff0100" stroke="none" /><path d="M 116.71984013943494 112.70617746262583 l 3.5275152859746783 2.6807215171875645 a25.43053404743688,25.43053404743688 0 0,0 -0.2678600364665162,0.346245205029256 l -3.4808484322900934 -2.741044716330073" fill="#ff2503" stroke="none" /><path d="M 116.498646956653 112.99209946851258 l 3.163347308913096 2.4910238396414517 a25.02640856924254,25.02640856924254 0 0,0 -0.2694296525286976,0.3361549182324802 l -3.119999744329544 -2.5451065914521824" fill="#ff1f03" stroke="none" /><path d="M 116.27256486870786 113.27417163493432 l 1.5192873341994495 1.2393424761038747 a22.96066411629686,22.96066411629686 0 0,0 -0.2524623423597012,0.3041071549114176 l -1.497728991946205 -1.2653108881290627" fill="#ff0000" stroke="none" /><path d="M 116.0416608686014 113.55231037782055 l 2.9963416867099637 2.531368345766317 a24.92248508033665,24.92248508033665 0 0,0 -0.279674775680564,0.3253249479202582 l -2.952324401458621 -2.582570392848103" fill="#ff1d03" stroke="none" /><path d="M 115.80600337817218 113.82643327865902 l 1.4736951581209357 1.2891271303270007 a22.95796480489671,22.95796480489671 0 0,0 -0.262749698616278,0.2952020717858191 l -1.4512866098563193 -1.3143033718536863" fill="#ff0000" stroke="none" /><path d="M 115.56566222782051 114.09645910891815 l 1.4507149558494827 1.3137856748091352 a22.957193573068096,22.957193573068096 0 0,0 -0.26778319181240745,0.29062576688966735 l -1.4278853560413534 -1.3385626965001374" fill="#ff0000" stroke="none" /><path d="M 115.32070863581623 114.36230785411682 l 2.8615379566495145 2.682531862368463 a24.922292272379494,24.922292272379494 0 0,0 -0.2960927926941592,0.3104521093764406 l -2.8149386125763907 -2.7313910883274106" fill="#ff1d03" stroke="none" /><path d="M 114.81725581225074 114.88116024355365 l 1.4217763473037408 1.4279082390700462 a23.01503596021423,23.01503596021423 0 0,0 -0.28313979220924546,0.2771118797034987 l -1.3969866027187012 -1.452170221696117" fill="#ff0100" stroke="none" /><path d="M 114.55890576462653 115.13401014063108 l 4.1558045621016575 4.319966720173407 a26.994399387911248,26.994399387911248 0 0,0 -0.3376410186355715,0.31926065760972633 l -4.080827709075279 -4.390862014529056" fill="#ff3b05" stroke="none" /><path d="M 114.29624159901734 115.38237550388516 l 3.6299546572684736 3.905734609578676 a26.33210405508799,26.33210405508799 0 0,0 -0.33466906837087634,0.3057122590297725 l -3.5621860394307334 -3.9676396351950314" fill="#ff3204" stroke="none" /><path d="M 114.0293411484842 115.62618273729858 l 1.7495994566475366 1.948741607841406 a23.618910482019892,23.618910482019892 0 0,0 -0.3048612524841069,0.269004609707194 l -1.715795851256842 -1.9785693593208888" fill="#ff0a01" stroke="none" /><path d="M 113.75828350139079 115.86535959552629 l 1.4018922445150879 1.6165915298345896 a23.13978270849273,23.13978270849273 0 0,0 -0.3031691946481824,0.25836736479439737 l -1.3738575732898584 -1.6404832848519337" fill="#ff0300" stroke="none" /><path d="M 113.20401910651253 116.32954008644616 l 1.214608117167398 1.5021177853965186 a22.931742922723796,22.931742922723796 0 0,0 -0.30907895300994676,0.24555101314635966 l -1.1885716714401 -1.5228027125480044" fill="#ff0000" stroke="none" /><path d="M 112.92097659922987 116.55440617244103 l 3.9148483039747775 5.0157190851466344 a27.362662586074983,27.362662586074983 0 0,0 -0.37378865751765894,0.2866052034185053 l -3.8279309179636245 -5.0823636303925115" fill="#ff4006" stroke="none" /><path d="M 112.04921762599082 117.19931262002967 l 1.5106234125438847 2.1562963779021147 a23.632792654934967,23.632792654934967 0 0,0 -0.335184028067013,0.23054263087563706 l -1.4732824998539884 -2.181979798142846" fill="#ff0a01" stroke="none" /><path d="M 111.7513745106137 117.40417183066458 l 11.137497811236003 16.49500026531611 a40.902986993114006,40.902986993114006 0 0,0 -0.586909756101686,0.3889717831333776 l -10.851913356394352 -16.684270069540805" fill="#fff517" stroke="none" /><path d="M 111.45004920935366 117.60387380957326 l 1.1584961801414921 1.7811295123014304 a23.124743687834737,23.124743687834737 0 0,0 -0.33554905831826765,0.2141632849729314 l -1.127665319776294 -1.8008072260981707" fill="#ff0300" stroke="none" /><path d="M 111.1453310114006 117.79835938074945 l 1.1134415920586063 1.7780928699795076 a23.09794338179036,23.09794338179036 0 0,0 -0.338792714303681,0.20811415620856524 l -1.0826696778226166 -1.796995493016451" fill="#ff0200" stroke="none" /><line stroke="#e1ed5e" stroke-width="0.3" x1="143.8653032363475" x2="146.44561519142675" y1="172.8068346515853" y2="177.08958963109032" /><path d="M 144.38136562736335 173.6633856474863 a86.0,86.0 0 0,1 -40.68145358897372,12.25698825130547" fill="none" id="id42" stroke="none" /><text fill="#e1ed5e" style="font-size:6.75px; font-family:Arial;" text-anchor="middle"><textPath startOffset="21.466115282336833" xlink:href="#id42">June</textPath></text><path d="M 110.5260780823613 118.17145234162733 l 0.9675938218264838 1.670383297729512 a22.930393267023717,22.930393267023717 0 0,0 -0.3432474951652733,0.19490488596418573 l -0.9386975597400113 -1.6867913494883262" fill="#ff0000" stroke="none" /><path d="M 108.59647513512805 119.15986991738527 l 1.6018252137789482 3.5701566332670316 a24.913037490436114,24.913037490436114 0 0,0 -0.39277103069331787,0.1721792773793546 l -1.5401335084278764 -3.597200463940841" fill="#ff1d02" stroke="none" /><path d="M 108.2653958097858 119.30500536409082 l 0.767676303092209 1.7930169939997789 a22.95044529456771,22.95044529456771 0 0,0 -0.36450612014193,0.1523635877816484 l -0.736698723452818 -1.8059656248014004" fill="#ff0000" stroke="none" /><path d="M 107.93186726928326 119.44442032107085 l 23.79560180784979 58.33326096321254 a84.0,84.0 0 0,0 -1.343515695832535,0.5346126223757244 l -22.787965035975386 -58.73422042999433" fill="#4dd2ff" stroke="none" /><path d="M 107.59598834532513 119.57807347666477 l 1.4175613690014865 3.653654979219785 a24.91901453710788,24.91901453710788 0 0,0 -0.4012314706811329,0.15171141019940695 l -1.3544596775600788 -3.677514639525823" fill="#ff1d03" stroke="none" /><path d="M 107.2578585660854 119.70592522655815 l 1.3595240746620445 3.6912650632493267 a24.933667941851567,24.933667941851567 0 0,0 -0.40402092773169274,0.14486753030849647 l -1.295783586300617 -3.7141201345977835" fill="#ff1d03" stroke="none" /><path d="M 106.91757812671514 119.82793768551818 l 0.6859993390664135 1.9662881861479593 a23.082518745218056,23.082518745218056 0 0,0 -0.3762783241205696,0.12765403723512905 l -0.652051282008617 -1.9778052102812114" fill="#ff0200" stroke="none" /><path d="M 106.57524785965236 119.94407469862006 l 0.733851993713244 2.225923538207426 a23.34377352716144,23.34377352716144 0 0,0 -0.38270299763965976,0.12252941448188125 l -0.6954276509826439 -2.238225799349014" fill="#ff0601" stroke="none" /><path d="M 106.2309692047433 120.05430185196036 l 1.181929521989258 3.804026407909725 a24.983412394797245,24.983412394797245 0 0,0 -0.4117802025580512,0.12406599714623197 l -1.116274344990961 -3.8238077741616827" fill="#ff1e03" stroke="none" /><path d="M 105.88484417918355 120.15858648285463 l 1.101902177722442 3.774575786362698 a24.932125478194337,24.932125478194337 0 0,0 -0.41300520794137435,0.11671939716174945 l -1.0367658016764618 -3.7929839768629665" fill="#ff1d03" stroke="none" /><path d="M 105.53697534728816 120.25689768951611 l 0.5135534043608724 1.8788233860091073 a22.94774598316756,22.94774598316756 0 0,0 -0.3819265017643397,0.10087026039191897 l -0.4811364597850353 -1.8873849957046103" fill="#ff0000" stroke="none" /><path d="M 105.18746579009965 120.34920634021253 l 0.9722747663880121 3.814004880450789 a24.935981637337413,24.935981637337413 0 0,0 -0.41684259264242396,0.10244976754161558 l -0.9064788890023772 -3.8301759063064345" fill="#ff1d03" stroke="none" /><path d="M 104.83641907484287 120.43548508189849 l 0.4562589685754597 1.927846450342836 a22.981101759755166,22.981101759755166 0 0,0 -0.38573215786028264,0.08779138329291354 l -0.423006661322315 -1.9354145672134342" fill="#ff0100" stroke="none" /><path d="M 104.48393922423573 120.51570834832081 l 2.1824261927025344 9.98542063621591 a31.22113542463657,31.22113542463657 0 0,0 -0.5260144903383877,0.11023145079350104 l -2.010220240934769 -10.021508067735953" fill="#ff760a" stroke="none" /><path d="M 104.13013068566511 120.58985236759428 l 6.463139441733246 32.22055113130958 a53.86238102524865,53.86238102524865 0 0,0 -0.9106137914400856,0.17452130040858227 l -5.907558035721457 -32.327029630066626" fill="#73ff27" stroke="none" /><path d="M 103.7750983002368 120.6578951692458 l 0.3510061559586674 1.9207575000362875 a22.952566182096405,22.952566182096405 0 0,0 -0.38926571681473704,0.0676788345040996 l -0.31789146767188037 -1.9265149130613934" fill="#ff0000" stroke="none" /><path d="M 103.41894727170886 120.7198165907248 l 0.7940537736968383 4.812197219393796 a25.877270084162202,25.877270084162202 0 0,0 -0.4401158486561404,0.06873704412050811 l -0.7111020614321807 -4.82515257086141" fill="#ff2b04" stroke="none" /><path d="M 103.06178313531738 120.77559828337769 l 0.2871844821154003 1.9486779990480796 a22.969726090283093,22.969726090283093 0 0,0 -0.391657246723823,0.05428012560696198 l -0.2535986442047468 -1.9533326901476442" fill="#ff0100" stroke="none" /><path d="M 102.70371172650421 120.8252237178851 l 0.32849166589285544 2.5301929804937107 a23.551427697016067,23.551427697016067 0 0,0 -0.40247435944986915,0.04873403992080758 l -0.28488988339160604 -2.535472549139869" fill="#ff0901" stroke="none" /><path d="M 102.34483914955558 120.86867818915974 l 0.4440303668821791 3.9517963671132637 a24.976664116296863,24.976664116296863 0 0,0 -0.4276568696071849,0.04432838311822766 l -0.37594090066939156 -3.95885411868725" fill="#ff1e03" stroke="none" /><path d="M 101.98527174616119 120.90594882070398 l 0.8140373635827892 8.57223878499746 a29.610803366488142,29.610803366488142 0 0,0 -0.5078332899370758,0.04381799310681379 l -0.6663597559041717 -8.584981030382936" fill="#ff6008" stroke="none" /><path d="M 101.62511606390274 120.93702456842531 l 2.9550056107826577 38.07052705159537 a59.185037490436116,59.185037490436116 0 0,0 -1.0163965963688755,0.0700966601072797 l -2.299246253634852 -38.11575205621894" fill="#3cff2e" stroke="none" /><path d="M 101.26447882468166 120.96189622390904 l 0.3707873729397058 6.146727237330131 a27.15790053557766,27.15790053557766 0 0,0 -0.46687267286588036,0.024131984377465707 l -0.2649266316603458 -6.1521990284697985" fill="#ff3e05" stroke="none" /><line stroke="#e1ed5e" stroke-width="0.3" x1="102.19456741930631" x2="102.32365962044197" y1="184.97166512339345" y2="189.96999836594603" /><path d="M 102.22038585953345 185.97133177190398 a86.0,86.0 0 0,1 -42.740103519485714,-10.115201625700543" fill="none" id="id43" stroke="none" /><text fill="#e1ed5e" style="font-size:6.75px; font-family:Arial;" text-anchor="middle"><textPath startOffset="22.20632615414155" xlink:href="#id43">July</textPath></text><line stroke="#e1ed5e" stroke-width="0.3" x1="58.666819895761336" x2="56.23545636021788" y1="174.27360380694188" y2="178.64263932499728" /><path d="M 58.180547188652646 175.14741091055294 a86.0,86.0 0 0,1 -31.652253787137756,-30.449443065178592" fill="none" id="id44" stroke="none" /><text fill="#e1ed5e" style="font-size:6.75px; font-family:Arial;" text-anchor="middle"><textPath startOffset="22.20632615414155" xlink:href="#id44">August</textPath></text><line stroke="#e1ed5e" stroke-width="0.3" x1="26.63291911575756" x2="22.317208475507996" y1="142.92168965132927" y2="145.44649492493687" /><path d="M 25.769776987707644 143.4266507060508 a86.0,86.0 0 0,1 -11.730757126820373,-40.83630448921669" fill="none" id="id45" stroke="none" /><text fill="#e1ed5e" style="font-size:6.75px; font-family:Arial;" text-anchor="middle"><textPath startOffset="21.46611528233685" xlink:href="#id45">September</textPath></text><line stroke="#e1ed5e" stroke-width="0.3" x1="15.007084014347285" x2="10.007500721073583" y1="101.09737516637583" y2="101.16192664675087" /><path d="M 14.007167355692545 101.11028546245083 a86.0,86.0 0 0,1 10.666146001902534,-42.60595125391555" fill="none" id="id46" stroke="none" /><text fill="#e1ed5e" style="font-size:6.75px; font-family:Arial;" text-anchor="middle"><textPath startOffset="22.20632615414155" xlink:href="#id46">October</textPath></text><line stroke="#e1ed5e" stroke-width="0.3" x1="26.266209847984243" x2="21.928928074336255" y1="57.711370442889674" y2="55.22380399835377" /><path d="M 25.398753493254645 57.213857153982495 a86.0,86.0 0 0,1 29.58750427330803,-30.492523968695096" fill="none" id="id47" stroke="none" /><text fill="#e1ed5e" style="font-size:6.75px; font-family:Arial;" text-anchor="middle"><textPath startOffset="21.46611528233685" xlink:href="#id47">November</textPath></text><line stroke="#e1ed5e" stroke-width="0.3" x1="56.762969772571076" x2="54.21961505331055" y1="26.818313649435495" y2="22.513508569990535" /><path d="M 56.25429882871897 25.957352633546506 a86.0,86.0 0 0,1 42.265352541879196,-11.944610805530505" fill="none" id="id48" stroke="none" /><text fill="#e1ed5e" style="font-size:6.75px; font-family:Arial;" text-anchor="middle"><textPath startOffset="22.20632615414155" xlink:href="#id48">December</textPath></text></svg>