<svg xmlns="http://www.w3.org/2000/svg" xmlns:ev="http://www.w3.org/2001/xml-events" xmlns:xlink="http://www.w3.org/1999/xlink" width="200mm" height="200mm" baseProfile="full" version="1.1" viewBox="0 0 200 200"><rect width="200" height="200" x="0" y="0" fill="#1a1a1a"/><text style="dominant-baseline:central;font-size:9px;font-family:Arial" x="100" y="100" fill="#e1ed5e" alignment-baseline="middle" text-anchor="middle">2026</text><line x1="100" x2="100" y1="15" y2="10" stroke="#e1ed5e" stroke-width=".3"/><path id="id37" fill="none" stroke="none" d="M 100.0 14.0 a86.0,86.0 0 0,1 42.46469731375804,11.215312516191453"/><text fill="#e1ed5e" text-anchor="middle" style="font-size:6.75px;font-family:Arial"><textPath startOffset="22.206" xlink:href="#id37">January</textPath></text><path fill="#48fbff" stroke="none" d="M 100.0 79.0 l 0.0 -60.64920948616603 a81.64920948616603,81.64920948616603 0 0,0 1.4054569227277318,0.012097211452503805 l -1.0439764434552035 60.64022365132208"/><path fill="#4be1ff" stroke="none" d="M 100.36148047927253 79.00311137660856 l 1.0691841448612773 -62.104433558148074 a83.11363636363637,83.11363636363637 0 0,0 1.4302406873294033,0.03693889733267402 l -2.1380514673855484 62.076827868673035"/><path fill="#46fff7" stroke="none" d="M 100.72285384407766 79.0124445844662 l 2.0647864956114432 -59.949630693580815 a80.98517786561266,80.98517786561266 0 0,0 1.392787591749838,0.05997636350727318 l -3.096414919750613 59.90520660354935"/><path fill="#47feff" stroke="none" d="M 101.08401301168833 79.027996857942 l 3.1212046018360877 -60.384803513347954 a81.46541501976284,81.46541501976284 0 0,0 1.3998006402934253,0.0844397973122337 l -4.160167290969125 60.32213044665542"/><path fill="#4dd4ff" stroke="none" d="M 101.44485096284872 79.0497635885617 l 4.324966779673497 -62.71171133604591 a83.8606719367589,83.8606719367589 0 0,0 1.4392480425082907,0.11171334810142959 l -5.4038050115441285 62.62797272575602"/><path fill="#4dd2ff" stroke="none" d="M 101.80526077348638 79.07773832637324 l 5.415782320459128 -62.76678502088029 a84.0,84.0 0 0,0 1.4394994916390231,0.13669782193928715 l -6.4954069391883955 62.66426165442583"/><path fill="red" stroke="none" d="M 102.16513564639614 79.11191278185805 l 3.088466361777656 -29.79589516365392 a50.95553359683795,50.95553359683795 0 0,0 0.871663062305383,0.09794150138253001 l -3.6008961275927645 29.738317708800793"/><path fill="#ff1702" stroke="none" d="M 102.52436894288641 79.15227682838746 l 3.7038806877980397 -30.588824766479505 a51.81225296442688,51.81225296442688 0 0,0 0.8844728366939394,0.11482995874325505 l -4.229868252999825 30.520536484572112"/><path fill="#ff0400" stroke="none" d="M 102.88285421437855 79.19881850522331 l 4.1346412786682905 -29.83342800493098 a51.11857707509881,51.11857707509881 0 0,0 0.8705518494478063,0.12829671303335 l -4.6475621085447525 29.75783680773666"/><path fill="#47feff" stroke="none" d="M 103.2404852339499 79.25152402106235 l 9.333091505968367 -59.75877405396173 a81.48320158102767,81.48320158102767 0 0,0 1.3839370568691047,0.2283614724136839 l -10.360357768976346 59.589266318608416"/><path fill="#46fff7" stroke="none" d="M 103.59715602781102 79.31037775812273 l 10.275049720885967 -59.09860334054019 a80.98517786561266,80.98517786561266 0 0,0 1.371367827017201,0.2506087048248411 l -11.290812669006069 58.912979154364606"/><path fill="#47ffff" stroke="none" d="M 103.95276090670814 79.375362276772 l 11.377858222569941 -59.36716372308617 a81.44762845849803,81.44762845849803 0 0,0 1.3746559711872857,0.2757430557282187 l -12.39808060322435 59.162516711280745"/><path fill="#ff0200" stroke="none" d="M 104.307194497241 79.44645832069477 l 6.157999134395382 -29.38541362620035 a51.023715415019765,51.023715415019765 0 0,0 0.858066492358763,0.18754010033510393 l -6.6629083509076725 29.275060027769378"/><path fill="#46fffb" stroke="none" d="M 104.66035177308747 79.52364482259891 l 13.360683817000783 -58.7033169533934 a81.20454545454547,81.20454545454547 0 0,0 1.3602778858040083,0.32193382675397875 l -14.369185389767315 58.46463721449855"/><path fill="#ff0a01" stroke="none" d="M 105.01212808612495 79.60689891045804 l 7.239426111974946 -29.455422127074165 a51.33201581027669,51.33201581027669 0 0,0 0.8562451840104612,0.21827596249857206 l -7.745380184670433 29.326443168406723"/><line x1="143.237" x2="145.78" y1="26.818" y2="22.514" stroke="#e1ed5e" stroke-width=".3"/><path id="id38" fill="none" stroke="none" d="M 143.74570117128098 25.957352633546492 a86.0,86.0 0 0,1 28.547481713284135,27.462654790039103"/><text fill="#e1ed5e" text-anchor="middle" style="font-size:6.75px;font-family:Arial"><textPath startOffset="19.986" xlink:href="#id38">February</textPath></text><line x1="172.234" x2="176.484" y1="55.198" y2="52.563" stroke="#e1ed5e" stroke-width=".3"/><path id="id39" fill="none" stroke="none" d="M 173.08426987136738 54.67131705675599 a86.0,86.0 0 0,1 12.851231095245387,41.99856678651699"/><text fill="#e1ed5e" text-anchor="middle" style="font-size:6.75px;font-family:Arial"><textPath startOffset="22.206" xlink:href="#id39">March</textPath></text><line x1="184.98" x2="189.979" y1="98.171" y2="98.064" stroke="#e1ed5e" stroke-width=".3"/><path id="id40" fill="none" stroke="none" d="M 185.9800911702706 98.14961562048488 a86.0,86.0 0 0,1 -9.607161424134198,41.387399972396054"/><text fill="#e1ed5e" text-anchor="middle" style="font-size:6.75px;font-family:Arial"><textPath startOffset="21.466" xlink:href="#id40">April</textPath></text><line x1="174.801" x2="179.201" y1="140.371" y2="142.746" stroke="#e1ed5e" stroke-width=".3"/><path id="id41" fill="none" stroke="none" d="M 175.68104954172406 140.8457921977663 a86.0,86.0 0 0,1 -30.038265399797805,32.042727171017184"/><text fill="#e1ed5e" text-anchor="middle" style="font-size:6.75px;font-family:Arial"><textPath startOffset="22.206" xlink:href="#id41">May</textPath></text><line x1="143.865" x2="146.446" y1="172.807" y2="177.09" stroke="#e1ed5e" stroke-width=".3"/><path id="id42" fill="none" stroke="none" d="M 144.38136562736335 173.6633856474863 a86.0,86.0 0 0,1 -40.68145358897372,12.25698825130547"/><text fill="#e1ed5e" text-anchor="middle" style="font-size:6.75px;font-family:Arial"><textPath startOffset="21.466" xlink:href="#id42">June</textPath></text><line x1="102.195" x2="102.324" y1="184.972" y2="189.97" stroke="#e1ed5e" stroke-width=".3"/><path id="id43" fill="none" stroke="none" d="M 102.22038585953345 185.97133177190398 a86.0,86.0 0 0,1 -42.740103519485714,-10.115201625700543"/><text fill="#e1ed5e" text-anchor="middle" style="font-size:6.75px;font-family:Arial"><textPath startOffset="22.206" xlink:href="#id43">July</textPath></text><line x1="58.667" x2="56.235" y1="174.274" y2="178.643" stroke="#e1ed5e" stroke-width=".3"/><path id="id44" fill="none" stroke="none" d="M 58.180547188652646 175.14741091055294 a86.0,86.0 0 0,1 -31.652253787137756,-30.449443065178592"/><text fill="#e1ed5e" text-anchor="middle" style="font-size:6.75px;font-family:Arial"><textPath startOffset="22.206" xlink:href="#id44">August</textPath></text><line x1="26.633" x2="22.317" y1="142.922" y2="145.446" stroke="#e1ed5e" stroke-width=".3"/><path id="id45" fill="none" stroke="none" d="M 25.769776987707644 143.4266507060508 a86.0,86.0 0 0,1 -11.730757126820373,-40.83630448921669"/><text fill="#e1ed5e" text-anchor="middle" style="font-size:6.75px;font-family:Arial"><textPath startOffset="21.466" xlink:href="#id45">September</textPath></text><line x1="15.007" x2="10.008" y1="101.097" y2="101.162" stroke="#e1ed5e" stroke-width=".3"/><path id="id46" fill="none" stroke="none" d="M 14.007167355692545 101.11028546245083 a86.0,86.0 0 0,1 10.666146001902534,-42.60595125391555"/><text fill="#e1ed5e" text-anchor="middle" style="font-size:6.75px;font-family:Arial"><textPath startOffset="22.206" xlink:href="#id46">October</textPath></text><line x1="26.266" x2="21.929" y1="57.711" y2="55.224" stroke="#e1ed5e" stroke-width=".3"/><path id="id47" fill="none" stroke="none" d="M 25.398753493254645 57.213857153982495 a86.0,86.0 0 0,1 29.58750427330803,-30.492523968695096"/><text fill="#e1ed5e" text-anchor="middle" style="font-size:6.75px;font-family:Arial"><textPath startOffset="21.466" xlink:href="#id47">November</textPath></text><line x1="56.763" x2="54.22" y1="26.818" y2="22.514" stroke="#e1ed5e" stroke-width=".3"/><path id="id48" fill="none" stroke="none" d="M 56.25429882871897 25.957352633546506 a86.0,86.0 0 0,1 42.265352541879196,-11.944610805530505"/><text fill="#e1ed5e" text-anchor="middle" style="font-size:6.75px;font-family:Arial"><textPath startOffset="22.206" xlink:href="#id48">December</textPath></text></svg>