<svg xmlns="http://www.w3.org/2000/svg" xmlns:ev="http://www.w3.org/2001/xml-events" xmlns:xlink="http://www.w3.org/1999/xlink" width="200mm" height="200mm" baseProfile="full" version="1.1" viewBox="0 0 200 200"><rect width="200" height="200" x="0" y="0" fill="#1a1a1a"/><text fill="#e1ed5e" alignment-baseline="middle" style="dominant-baseline:central;font-size:9px;font-family:Arial" x="100" y="100" text-anchor="middle">2026</text><line x1="100" x2="100" y1="15" y2="10" stroke="#e1ed5e" stroke-width=".3"/><path id="id37" fill="none" stroke="none" d="M 100.0 14.0 a86.0,86.0 0 0,1 42.46469731375804,11.215312516191453"/><text fill="#e1ed5e" style="font-size:6.75px;font-family:Arial" text-anchor="middle"><textPath startOffset="22.206" xlink:href="#id37">January</textPath></text><path fill="#f2ff19" stroke="none" d="M 100.0 79.0 l 0.0 -30.55174457191619 a51.55174457191619,51.55174457191619 0 0,0 0.8873785397710108,0.0076379472472124605 l -0.5258980604984824 30.547218001277535"/><path fill="#e7ff1a" stroke="none" d="M 100.36148047927253 79.00311137660856 l 0.5385963175924875 -31.28480662694991 a52.28944249549635,52.28944249549635 0 0,0 0.8998100846848565,0.0232394397890762 l -1.0770330374722117 31.270900395018472"/><path fill="#f7ff18" stroke="none" d="M 100.72285384407766 79.0124445844662 l 1.0401261639502795 -30.199335154545828 a51.21724186972599,51.21724186972599 0 0,0 0.880836973380215,0.037930692963544795 l -1.5598039697198258 30.176956735058088"/><path fill="#f4ff19" stroke="none" d="M 101.08401301168833 79.027996857942 l 1.5722916516123198 -30.418551347911038 a51.45915900255997,51.45915900255997 0 0,0 0.8842103572819229,0.05333798342499157 l -2.0956640577338543 30.38698009510574"/><path fill="#e1ff1b" stroke="none" d="M 101.44485096284872 79.0497635885617 l 2.1786809993747305 -31.590719856680742 a52.665758035460314,52.665758035460314 0 0,0 0.9038693276499529,0.07015765584227476 l -2.7221405163870243 31.548536938650003"/><path fill="#e0ff1b" stroke="none" d="M 101.80526077348638 79.07773832637324 l 2.7281740275527957 -31.618462957801924 a52.73594387029486,52.73594387029486 0 0,0 0.9037305284808752,0.08582010315454533 l -3.272029683123915 31.5668173101322"/><path fill="#ff0200" stroke="none" d="M 102.16513564639614 79.11191278185805 l 1.5557999222645948 -15.009537404427158 a36.08995448942827,36.08995448942827 0 0,0 0.6173673010200623,0.06936840963119913 l -1.8139339267943826 14.980533041325359"/><path fill="#ff0a01" stroke="none" d="M 102.52436894288641 79.15227682838746 l 1.865811898575043 -15.408971838845696 a36.521522707879015,36.521522707879015 0 0,0 0.6234489515828987,0.08094156702017849 l -2.1307755786657876 15.37457194866138"/><path fill="#ff0400" stroke="none" d="M 102.88285421437855 79.19881850522331 l 2.0828054530733504 -15.028444390840834 a36.17208684934104,36.17208684934104 0 0,0 0.6160123952358595,0.09078421411279766 l -2.3411868287378654 14.990365692567067"/><path fill="#f4ff19" stroke="none" d="M 103.2404852339499 79.25152402106235 l 4.701499494757744 -30.103192049748614 a51.46811889636864,51.46811889636864 0 0,0 0.8741511821574554,0.14424243507233403 l -5.218979883054075 30.017803351736656"/><path fill="#f7ff18" stroke="none" d="M 103.59715602781102 79.31037775812273 l 5.176006368357555 -29.770634260765146 a51.21724186972599,51.21724186972599 0 0,0 0.8672905282155878,0.15849180044985448 l -5.687692017676044 29.67712697896455"/><path fill="#f4ff19" stroke="none" d="M 103.95276090670814 79.375362276772 l 5.731540792311945 -29.90592024848362 a51.4501991087513,51.4501991087513 0 0,0 0.8683656573212395,0.17418598169867425 l -6.2454728591003095 29.802830310707737"/><path fill="#ff0300" stroke="none" d="M 104.307194497241 79.44645832069477 l 3.102062140992003 -14.802759324547496 a36.12430074902816,36.12430074902816 0 0,0 0.6075028402088312,0.1327765908833432 l -3.3564077053543624 14.747169235568283"/><path fill="#f6ff19" stroke="none" d="M 104.66035177308747 79.52364482259891 l 6.7303795505570445 -29.57151066401622 a51.327747226699536,51.327747226699536 0 0,0 0.8598040798060915,0.20348784653442517 l -7.23840731732566 29.451276905340926"/><path fill="#ff0601" stroke="none" d="M 105.01212808612495 79.60689891045804 l 3.646825726075935 -14.838025766677257 a36.27960557504504,36.27960557504504 0 0,0 0.6051630169024518,0.15426952752508383 l -3.9016976316634118 14.773053242983305"/><line x1="143.237" x2="145.78" y1="26.818" y2="22.514" stroke="#e1ed5e" stroke-width=".3"/><path id="id38" fill="none" stroke="none" d="M 143.74570117128098 25.957352633546492 a86.0,86.0 0 0,1 28.547481713284135,27.462654790039103"/><text fill="#e1ed5e" style="font-size:6.75px;font-family:Arial" text-anchor="middle"><textPath startOffset="19.986" xlink:href="#id38">February</textPath></text><line x1="172.234" x2="176.484" y1="55.198" y2="52.563" stroke="#e1ed5e" stroke-width=".3"/><path id="id39" fill="none" stroke="none" d="M 173.08426987136738 54.67131705675599 a86.0,86.0 0 0,1 12.851231095245387,41.99856678651699"/><text fill="#e1ed5e" style="font-size:6.75px;font-family:Arial" text-anchor="middle"><textPath startOffset="22.206" xlink:href="#id39">March</textPath></text><path fill="#ff0200" stroke="none" d="M 118.21658344932153 89.55222093294921 l 13.07562766692791 -7.4992804993939535 a36.07352801744572,36.07352801744572 0 0,0 0.30429284951970653,0.5413030253869698 l -13.202778157740047 7.273093964072189"/><path fill="#f5ff19" stroke="none" d="M 118.3937258080291 89.86733742301442 l 26.616141542683998 -14.66219428124678 a51.38747985209064,51.38747985209064 0 0,0 0.42013400438944215,0.7784445028366745 l -26.864583646291905 14.201868795077647"/><path fill="#ecff1a" stroke="none" d="M 118.56541770881063 90.18545643968196 l 27.347773857827743 -14.457305621408102 a51.934033374419265,51.934033374419265 0 0,0 0.4109974497512463,0.7939162550585817 l -27.592580740739105 13.984416644089174"/><path fill="#f0ff19" stroke="none" d="M 118.73160827565052 90.50648371742162 l 27.35814703519385 -13.865601421817408 a51.6712098226984,51.6712098226984 0 0,0 0.39526011793333343,0.796820278654274 l -27.59276716608059 13.392621554664185"/><path fill="#ff0400" stroke="none" d="M 118.89224826269711 90.83032412892265 l 13.668085746516573 -6.634039227671911 a36.19299326822793,36.19299326822793 0 0,0 0.2672108117418675,0.5628141167814618 l -13.780254752100195 6.397782695249909"/><path fill="#ff0400" stroke="none" d="M 119.04729006885535 91.15688171328212 l 13.75858342557832 -6.387721311023058 a36.16910021807149,36.16910021807149 0 0,0 0.2573133223857325,0.5669557977035659 l -13.8664990649274 6.149943504477429"/><path fill="#f7ff19" stroke="none" d="M 119.196687751892 91.48605970444005 l 27.66064880415671 -12.267799294273098 a51.259054707499764,51.259054707499764 0 0,0 0.3507810650547612,0.809651061626657 l -27.867720579054154 11.789849088059839"/><path fill="#f3ff19" stroke="none" d="M 119.34039704204932 91.81776055985345 l 28.093269914047234 -11.88527105175928 a51.5039584716033,51.5039584716033 0 0,0 0.33840139564738886,0.8194658213180804 l -28.29369299658082 11.399930659987897"/><path fill="#ff0400" stroke="none" d="M 119.47837535516314 92.15188598940014 l 14.100445229607516 -5.681269599974386 a36.201953162036595,36.201953162036595 0 0,0 0.22791103404294327,0.5800087221944484 l -14.196149813532159 5.437711872884153"/><path fill="#f0ff19" stroke="none" d="M 119.61058180528143 92.48833698450437 l 28.669807860157924 -10.981720863912113 a51.70107613539395,51.70107613539395 0 0,0 0.3111799425258057,0.8338075370353726 l -28.854592391185356 10.486590189847407"/><path fill="#f8ff18" stroke="none" d="M 119.7369772167798 92.82701384747503 l 28.360559776676027 -10.307044504413955 a51.175429031952206,51.175429031952206 0 0,0 0.29376382419228897,0.8305098896536024 l -28.533776681678123 9.81733698833374"/><path fill="#f6ff19" stroke="none" d="M 119.85752413597 93.16781622104841 l 28.656627108327612 -9.859604931026128 a51.30534749217787,51.30534749217787 0 0,0 0.2801338089253736,0.8375644325826561 l -28.822098211024755 9.364867395521157"/><path fill="#ff0300" stroke="none" d="M 120.83666639777658 97.38593545837742 l 15.012593908856001 -1.8834053713653138 a36.13027401156727,36.13027401156727 0 0,0 0.07210509665278048,0.6177524342805748 l -15.04278935851237 1.6247091987598863"/><path fill="#f8ff18" stroke="none" d="M 120.87857604477298 97.74499172005257 l 29.98313571803763 -3.2383539546936335 a51.15750924433488,51.15750924433488 0 0,0 0.08702348919740951,0.876314660161968 l -30.034436332917267 2.721763763827231"/><path fill="#a8ff21" stroke="none" d="M 120.91429891909075 98.10471618934814 l 35.345303980594785 -3.2030422189214143 a56.49013937612591,56.49013937612591 0 0,0 0.07942383448518106,0.9691719539148372 l -35.39520229889946 2.5941563477988083"/><path fill="#ff0200" stroke="none" d="M 120.94382443527127 98.46500227214037 l 15.045120492446452 -1.1026747212599328 a36.08547454252394,36.08547454252394 0 0,0 0.04007104474556514,0.6198813263496838 l -15.061872128196434 0.8435343306572137"/><path fill="#f5ff19" stroke="none" d="M 120.96714384426684 98.82574320788733 l 30.31906253483216 -1.6980073860536964 a51.366573433203754,51.366573433203754 0 0,0 0.04184270137386931,0.8832332932173316 l -30.343798844439526 1.175862986213365"/><path fill="#edff1a" stroke="none" d="M 120.98425023603335 99.18683210126433 l 30.900387827423344 -1.1974315573398753 a51.923580164975824,51.923580164975824 0 0,0 0.026921895513955442,0.8934066460084266 l -30.916421417392947 0.6653547639064497"/><line x1="184.98" x2="189.979" y1="98.171" y2="98.064" stroke="#e1ed5e" stroke-width=".3"/><path id="id40" fill="none" stroke="none" d="M 185.9800911702706 98.14961562048488 a86.0,86.0 0 0,1 -9.607161424134198,41.387399972396054"/><text fill="#e1ed5e" style="font-size:6.75px;font-family:Arial" text-anchor="middle"><textPath startOffset="21.466" xlink:href="#id40">April</textPath></text><path fill="#f7ff18" stroke="none" d="M 120.99513854157772 99.54816195383933 l 30.21024663805999 -0.6501571203229191 a51.21724186972599,51.21724186972599 0 0,0 0.011382404916964392,0.8815798046692143 l -30.21696205009467 0.13004105759324217"/><path fill="#4dd2ff" stroke="none" d="M 120.99980553446 99.90962569577887 l 62.99941660337998 -0.27112291266339017 a84.0,84.0 0 0,0 -0.006222810841987947,1.4459620871852612 l -62.994749495248485 -0.8133486527255557"/><path fill="#ff0601" stroke="none" d="M 120.99824983174949 100.27111621757518 l 15.282811725700864 0.19732206932412202 a36.284085521949365,36.284085521949365 0 0,0 -0.013438825843883367,0.6244494301130927 l -15.277150837171973 -0.4603613152273296"/><path fill="#dfff1b" stroke="none" d="M 120.9764740272857 100.99374915477107 l 31.76005629484454 1.5046155544267676 a52.79567649568597,52.79567649568597 0 0,0 -0.05081872758758633,0.9074025191665794 l -31.729451216369423 -2.0510897899287706"/><path fill="#ecff1a" stroke="none" d="M 120.95626037817324 101.35467743843564 l 30.899406865086423 1.997433157719945 a51.96389968711482,51.96389968711482 0 0,0 -0.06538405023593906,0.8921134175996175 l -30.860446256186147 -2.5290197118163324"/><path fill="#ff0200" stroke="none" d="M 120.92983693683757 101.71520430193887 l 15.002329310940745 1.2294438724431458 a36.05262159855883,36.05262159855883 0 0,0 -0.05601101594870549,0.618076893671284 l -14.978943698714962 -1.4875021546630005"/><path fill="#ff0400" stroke="none" d="M 120.89721153311464 102.0752229133903 l 15.082964141067153 1.4978320307370494 a36.15715369299327,36.15715369299327 0 0,0 -0.06683511860165434,0.6188101917827942 l -15.054946720964448 -1.757238544404635"/><path fill="red" stroke="none" d="M 119.67450827220406 107.3425965602758 l 14.021374933916928 5.232827064123731 a35.96600929174173,35.96600929174173 0 0,0 -0.22145765436263304,0.5781560539024847 l -13.929222999960787 -5.473406684859359"/><path fill="#ff0200" stroke="none" d="M 119.54520255179757 107.68017299344265 l 14.005665552844233 5.503444338787446 a36.048141651654504,36.048141651654504 0 0,0 -0.23190522371512984,0.575569746851979 l -13.90885771487171 -5.743713453482239"/><path fill="#e4ff1a" stroke="none" d="M 119.41010516605496 108.01547362559984 l 29.10135517121713 12.017510613597247 a52.48506684365222,52.48506684365222 0 0,0 -0.35202238890402354,0.8320769416364776 l -28.890181801120796 -12.51666208089989"/><path fill="#ff0801" stroke="none" d="M 119.26925614724726 108.34839909993367 l 14.112122100632854 6.114072413734963 a36.37965772257514,36.37965772257514 0 0,0 -0.2538934844603897,0.5724627815357902 l -14.004787531441192 -6.356083531763441"/><line x1="174.801" x2="179.201" y1="140.371" y2="142.746" stroke="#e1ed5e" stroke-width=".3"/><path id="id41" fill="none" stroke="none" d="M 175.68104954172406 140.8457921977663 a86.0,86.0 0 0,1 -30.038265399797805,32.042727171017184"/><text fill="#e1ed5e" style="font-size:6.75px;font-family:Arial" text-anchor="middle"><textPath startOffset="22.206" xlink:href="#id41">May</textPath></text><line x1="143.865" x2="146.446" y1="172.807" y2="177.09" stroke="#e1ed5e" stroke-width=".3"/><path id="id42" fill="none" stroke="none" d="M 144.38136562736335 173.6633856474863 a86.0,86.0 0 0,1 -40.68145358897372,12.25698825130547"/><text fill="#e1ed5e" style="font-size:6.75px;font-family:Arial" text-anchor="middle"><textPath startOffset="21.466" xlink:href="#id42">June</textPath></text><line x1="102.195" x2="102.324" y1="184.972" y2="189.97" stroke="#e1ed5e" stroke-width=".3"/><path id="id43" fill="none" stroke="none" d="M 102.22038585953345 185.97133177190398 a86.0,86.0 0 0,1 -42.740103519485714,-10.115201625700543"/><text fill="#e1ed5e" style="font-size:6.75px;font-family:Arial" text-anchor="middle"><textPath startOffset="22.206" xlink:href="#id43">July</textPath></text><line x1="58.667" x2="56.235" y1="174.274" y2="178.643" stroke="#e1ed5e" stroke-width=".3"/><path id="id44" fill="none" stroke="none" d="M 58.180547188652646 175.14741091055294 a86.0,86.0 0 0,1 -31.652253787137756,-30.449443065178592"/><text fill="#e1ed5e" style="font-size:6.75px;font-family:Arial" text-anchor="middle"><textPath startOffset="22.206" xlink:href="#id44">August</textPath></text><line x1="26.633" x2="22.317" y1="142.922" y2="145.446" stroke="#e1ed5e" stroke-width=".3"/><path id="id45" fill="none" stroke="none" d="M 25.769776987707644 143.4266507060508 a86.0,86.0 0 0,1 -11.730757126820373,-40.83630448921669"/><text fill="#e1ed5e" style="font-size:6.75px;font-family:Arial" text-anchor="middle"><textPath startOffset="21.466" xlink:href="#id45">September</textPath></text><line x1="15.007" x2="10.008" y1="101.097" y2="101.162" stroke="#e1ed5e" stroke-width=".3"/><path id="id46" fill="none" stroke="none" d="M 14.007167355692545 101.11028546245083 a86.0,86.0 0 0,1 10.666146001902534,-42.60595125391555"/><text fill="#e1ed5e" style="font-size:6.75px;font-family:Arial" text-anchor="middle"><textPath startOffset="22.206" xlink:href="#id46">October</textPath></text><line x1="26.266" x2="21.929" y1="57.711" y2="55.224" stroke="#e1ed5e" stroke-width=".3"/><path id="id47" fill="none" stroke="none" d="M 25.398753493254645 57.213857153982495 a86.0,86.0 0 0,1 29.58750427330803,-30.492523968695096"/><text fill="#e1ed5e" style="font-size:6.75px;font-family:Arial" text-anchor="middle"><textPath startOffset="21.466" xlink:href="#id47">November</textPath></text><line x1="56.763" x2="54.22" y1="26.818" y2="22.514" stroke="#e1ed5e" stroke-width=".3"/><path id="id48" fill="none" stroke="none" d="M 56.25429882871897 25.957352633546506 a86.0,86.0 0 0,1 42.265352541879196,-11.944610805530505"/><text fill="#e1ed5e" style="font-size:6.75px;font-family:Arial" text-anchor="middle"><textPath startOffset="22.206" xlink:href="#id48">December</textPath></text></svg>