<?xml version="1.0" encoding="utf-8" ?>
<svg baseProfile="full" height="200mm" version="1.1" viewBox="0,0,200,200" width="200mm" xmlns="http://www.w3.org/2000/svg" xmlns:ev="http://www.w3.org/2001/xml-events" xmlns:xlink="http://www.w3.org/1999/xlink"><defs /><rect fill="#1a1a1a" height="200" width="200" x="0" y="0" /><text alignment-baseline="middle" fill="#e1ed5e" style="dominant-baseline: central; font-size:9.0px; font-family:Arial;" text-anchor="middle" x="100.0" y="100.0">2025</text><line stroke="#e1ed5e" stroke-width="0.3" x1="100.0" x2="100.0" y1="15.0" y2="10.0" /><path d="M 100.0 14.0 a86.0,86.0 0 0,1 42.46469731375804,11.215312516191453" fill="none" id="id25" stroke="none" /><text fill="#e1ed5e" style="font-size:6.75px; font-family:Arial;" text-anchor="middle"><textPath startOffset="22.20632615414155" xlink:href="#id25">January</textPath></text><path d="M 100.0 79.0 l 0.0 -59.43866915479495 a80.43866915479495,80.43866915479495 0 0,0 1.3846194608628393,0.011917856839611182 l -1.023138981590311 59.4298626745639" fill="#45ffef" stroke="none" /><path d="M 100.36148047927253 79.00311137660856 l 1.0451525850342434 -60.70854079472674 a81.71753675299257,81.71753675299257 0 0,0 1.4062162485721896,0.036318416958573574 l -2.089995468801301 60.6815555856258" fill="#48f8ff" stroke="none" /><path d="M 100.72285384407766 79.0124445844662 l 2.10026038161147 -60.979590144346226 a82.01574803149605,82.01574803149605 0 0,0 1.4105113947629253,0.06073958774802673 l -3.149612608763727 60.934402830074" fill="#49f3ff" stroke="none" /><path d="M 101.08401301168833 79.027996857942 l 3.146504292358632 -60.87426736978775 a81.95553229256748,81.95553229256748 0 0,0 1.408222207557575,0.08494780924790982 l -4.193888548755819 60.81108629115954" fill="#48f4ff" stroke="none" /><path d="M 101.44485096284872 79.0497635885617 l 4.1936912635667705 -60.80822566992087 a81.952664876428,81.952664876428 0 0,0 1.4065021156840443,0.10917163394641456 l -5.239783568613156 60.72702877378599" fill="#48f4ff" stroke="none" /><path d="M 101.80526077348638 79.07773832637324 l 5.211189933859471 -60.39563980366985 a81.62004460425106,81.62004460425106 0 0,0 1.3987144370877833,0.1328247895712927 l -6.250029498037498 60.29698946958339" fill="#48faff" stroke="none" /><path d="M 102.16513564639614 79.11191278185805 l 6.362370977118631 -61.38080083131847 a82.70966273724454,82.70966273724454 0 0,0 1.4148602284142475,0.15897603215033582 l -7.417997909042604 61.26218884569753" fill="#4ae7ff" stroke="none" /><path d="M 102.52436894288641 79.15227682838746 l 7.414551044162233 -61.23372260860552 a82.68098857584997,82.68098857584997 0 0,0 1.4114246017549166,0.18324342146509118 l -8.467490374424996 61.09702086397629" fill="#4ae8ff" stroke="none" /><path d="M 102.88285421437855 79.19881850522331 l 8.324600736290265 -60.06600331139282 a81.64011651722726,81.64011651722726 0 0,0 1.3903351479990154,0.20489925972376483 l -9.357304864717936 59.91380956750809" fill="#48faff" stroke="none" /><path d="M 103.2404852339499 79.25152402106235 l 9.3608446055406 -59.93647414460946 a81.6630558463429,81.6630558463429 0 0,0 1.3869917598971664,0.22886552458701961 l -10.391165571576641 59.76646235708282" fill="#48f9ff" stroke="none" /><line stroke="#e1ed5e" stroke-width="0.3" x1="143.23703022742887" x2="145.7803849466894" y1="26.81831364943548" y2="22.513508569990506" /><path d="M 143.74570117128098 25.957352633546492 a86.0,86.0 0 0,1 28.547481713284135,27.462654790039103" fill="none" id="id26" stroke="none" /><text fill="#e1ed5e" style="font-size:6.75px; font-family:Arial;" text-anchor="middle"><textPath startOffset="19.985693538727396" xlink:href="#id26">February</textPath></text><path d="M 116.15771136456269 86.58626213691792 l 22.234411059860197 -18.45846572993597 a49.89781985344317,49.89781985344317 0 0,0 0.5429393846957842,0.6655794877615535 l -22.54884893663239 18.073002072566318" fill="#ff0500" stroke="none" /><path d="M 116.60985879189232 87.15038557335679 l 24.015537947387166 -18.578749328258837 a51.36306950070548,51.36306950070548 0 0,0 0.5349685277973961,0.7039558742754094 l -24.331782415408675 18.162608678102394" fill="#ff2b04" stroke="none" /><path d="M 116.82858285166822 87.43820079747576 l 48.1603388086269 -35.94958119599093 a81.09817486686995,81.09817486686995 0 0,0 0.8254148583789461,1.1258649392090074 l -48.77201627951948 35.11525381311043" fill="#46fffb" stroke="none" /><path d="M 117.04232023915458 87.72973835380427 l 23.416804228293543 -16.859811972008693 a49.85480861135132,49.85480861135132 0 0,0 0.4954318761562726,0.7007532539572011 l -23.7035487242537 16.4542322177197" fill="#ff0400" stroke="none" /><path d="M 117.2510076193507 88.02491185347247 l 23.715326299889327 -16.462407827487027 a49.869145692048605,49.869145692048605 0 0,0 0.4834351419477418,0.709381418044993 l -23.995185907505803 16.051748386171628" fill="#ff0400" stroke="none" /><path d="M 117.45458315368197 88.32363383020206 l 25.816036327980022 -17.269819082142536 a52.05985162259341,52.05985162259341 0 0,0 0.49184998688998693,0.7491212739214432 l -26.10948295022793 16.82287974424342" fill="#ff3d05" stroke="none" /><path d="M 117.65298651832404 88.62581576622439 l 50.66184570235329 -32.64247474746199 a81.2673524190979,81.2673524190979 0 0,0 0.7475528482630567,1.1824490807473313 l -51.2162261468623 31.765578019000454" fill="#47fffe" stroke="none" /><line stroke="#e1ed5e" stroke-width="0.3" x1="172.23445277983987" x2="176.4835382374775" y1="55.19839476539836" y2="52.563006222186495" /><path d="M 173.08426987136738 54.67131705675599 a86.0,86.0 0 0,1 12.851231095245387,41.99856678651699" fill="none" id="id27" stroke="none" /><text fill="#e1ed5e" style="font-size:6.75px; font-family:Arial;" text-anchor="middle"><textPath startOffset="22.20632615414155" xlink:href="#id27">March</textPath></text><path d="M 117.84615892207809 88.93136811851018 l 51.35512256376072 -31.851725033325458 a81.43079513904692,81.43079513904692 0 0,0 0.7285504733151366,1.1975454186814205 l -51.89578883536208 30.963011841436956" fill="#47fdff" stroke="none" /><path d="M 118.03404312379186 89.2402003453031 l 51.94749994167489 -30.993864664624148 a81.4910108779755,81.4910108779755 0 0,0 0.7083521739717974,1.2108034810486201 l -52.473311790117016 30.095081771221633" fill="#47fcff" stroke="none" /><path d="M 118.21658344932153 89.55222093294921 l 50.9585105538551 -29.226295991989836 a79.74475444904645,79.74475444904645 0 0,0 0.6726749475076113,1.196613672528345 l -51.454043142655145 28.344798809526697" fill="#43ffe3" stroke="none" /><path d="M 118.3937258080291 89.86733742301442 l 53.03129403803209 -29.213668514821897 a81.54549178462517,81.54549178462517 0 0,0 0.6667000230793979,1.2352938885807632 l -53.52630216032995 28.296493642908676" fill="#47fbff" stroke="none" /><path d="M 118.56541770881063 90.18545643968196 l 53.81782594666375 -28.450606679561982 a81.87524464066269,81.87524464066269 0 0,0 0.6479473008088513,1.2516279476790588 l -54.29958268063272 27.52000600962258" fill="#48f6ff" stroke="none" /><path d="M 118.73160827565052 90.50648371742162 l 53.3481250849099 -27.03779017186565 a80.80856583678485,80.80856583678485 0 0,0 0.6181469985368946,1.2461466292092434 l -53.80563209640021 26.115483954157458" fill="#46fff6" stroke="none" /><path d="M 118.89224826269711 90.83032412892265 l 54.98193702668873 -26.68642367431738 a82.11610759637702,82.11610759637702 0 0,0 0.6062585541155704,1.2769351301749692 l -55.433153774646065 25.73604612850187" fill="#49f2ff" stroke="none" /><path d="M 119.04729006885535 91.15688171328212 l 54.72834075630466 -25.408821370088443 a81.33903782258432,81.33903782258432 0 0,0 0.5786601805297515,1.2750010034837038 l -55.15760325379776 24.462998357762675" fill="#47ffff" stroke="none" /><path d="M 119.196687751892 91.48605970444005 l 26.2537924340654 -11.643843156933464 a49.72004005279686,49.72004005279686 0 0,0 0.3402491267895676,0.7853418960333852 l -26.450332270697647 11.190202116313475" fill="#ff0000" stroke="none" /><path d="M 119.34039704204932 91.81776055985345 l 56.49744494801374 -23.902075087501053 a82.34550088753356,82.34550088753356 0 0,0 0.5410425383320483,1.3101774216802409 l -56.90050917323198 22.92602309536751" fill="#49eeff" stroke="none" /><path d="M 119.47837535516314 92.15188598940014 l 54.96960472994103 -22.1480342776038 a80.2637567702881,80.2637567702881 0 0,0 0.5053041121789725,1.2859438493412454 l -55.342702392001705 21.198541423366766" fill="#45ffec" stroke="none" /><path d="M 119.61058180528143 92.48833698450437 l 58.11144413156672 -22.259083896356955 a83.22866505848617,83.22866505848617 0 0,0 0.5009391127870364,1.34226777101164 l -58.48598783285538 21.255492988315982" fill="#4bdfff" stroke="none" /><path d="M 119.7369772167798 92.82701384747503 l 56.45937909401531 -20.51896498503455 a81.07236812161484,81.07236812161484 0 0,0 0.4653821051673179,1.315697880336267 l -56.804214279992436 19.54406947827167" fill="#46fffa" stroke="none" /><path d="M 119.85752413597 93.16781622104841 l 56.1480510410541 -19.31830982129116 a80.37845341586636,80.37845341586636 0 0,0 0.43887671386204524,1.3121855131649902 l -56.47226504868792 18.348951205203853" fill="#45ffee" stroke="none" /><path d="M 119.97218684219823 93.5106431181261 l 29.845106658916393 -9.697262989653806 a52.38100223021255,52.38100223021255 0 0,0 0.2712450832029037,0.8599210381563402 l -30.007607225887504 9.182091785071046" fill="#ff4506" stroke="none" /><path d="M 120.08093135843002 93.85539295169968 l 58.12602938428263 -17.786107798951125 a81.78635474033953,81.78635474033953 0 0,0 0.4003407125732037,1.3497498627678726 l -58.42357599396754 16.782928549436722" fill="#48f7ff" stroke="none" /><path d="M 120.18372546131832 94.20196356495316 l 58.726731489950176 -16.87001389027534 a82.10177051567973,82.10177051567973 0 0,0 0.37850178789725275,1.3616723161858295 l -59.0084200484138 15.85663027067056" fill="#49f2ff" stroke="none" /><path d="M 120.28053869075195 94.5502522615342 l 59.193954993425 -15.906486867795481 a82.29388739702333,82.29388739702333 0 0,0 0.3558374685858089,1.3711869216999464 l -59.45898879388111 14.885203520546685" fill="#49eeff" stroke="none" /><path d="M 120.37134235888165 94.90015583598534 l 60.365782878218944 -15.112214015854425 a83.22866505848617,83.22866505848617 0 0,0 0.3359552797637169,1.3927515262297523 l -60.61697095824348 14.070877257965266" fill="#4bdfff" stroke="none" /><path d="M 120.45610955862082 95.25157060432595 l 59.597470709429594 -13.834223023371344 a82.18205816758453,82.18205816758453 0 0,0 0.30800901264352115,1.3807440091827865 l -59.82677410907515 12.806300844638594" fill="#49f0ff" stroke="none" /><path d="M 120.53481517161879 95.60439243477599 l 59.88565596951903 -12.818904880713838 a82.24227390651313,82.24227390651313 0 0,0 0.28440437317346007,1.3868567277510915 l -60.09743963860749 11.786172496799335" fill="#49efff" stroke="none" /><path d="M 120.6074358757038 95.95851677861258 l 60.22124745507429 -11.81045340277644 a82.36844021664919,82.36844021664919 0 0,0 0.26088938922306926,1.393681549247131 l -60.41562256820722 10.772093776066747" fill="#49edff" stroke="none" /><path d="M 120.67395015179393 96.31383870115 l 59.67320089100704 -10.639720135140408 a81.61430977197213,81.61430977197213 0 0,0 0.2346922019257747,1.385166660929736 l -59.84750495445304 9.610967685894835" fill="#48faff" stroke="none" /><path d="M 120.73433829027371 96.67025291283417 l 60.01171117458446 -9.637337718809441 a81.7806199080606,81.7806199080606 0 0,0 0.211243650518712,1.391831721155553 l -60.16871071854247 8.602906885261806" fill="#48f7ff" stroke="none" /><path d="M 120.78858239683441 97.02765380044208 l 60.23399733205036 -8.612241548580249 a81.84657047926811,81.84657047926811 0 0,0 0.18740526533514307,1.3963869032206417 l -60.37331859644334 7.574136303294943" fill="#48f6ff" stroke="none" /><path d="M 120.83666639777658 97.38593545837742 l 60.50134872541789 -7.590198326558293 a81.97560420554366,81.97560420554366 0 0,0 0.1635985064081832,1.4016120949811424 l -60.62303758482967 6.547642493252298" fill="#48f4ff" stroke="none" /><path d="M 120.87857604477298 97.74499172005257 l 61.14759149574471 -6.604297382448555 a82.50320877520366,82.50320877520366 0 0,0 0.14034532180425946,1.4132582377067304 l -61.252213943231204 5.55076361403739" fill="#4aebff" stroke="none" /><path d="M 120.91429891909075 98.10471618934814 l 60.735329672462186 -5.503922818935485 a81.98420645396203,81.98420645396203 0 0,0 0.11526790543820661,1.4065604092441686 l -60.82107206171988 4.457648492483548" fill="#48f4ff" stroke="none" /><path d="M 120.94382443527127 98.46500227214037 l 61.41303942662378 -4.50103448260693 a82.57776159482954,82.57776159482954 0 0,0 0.09169831412236663,1.4185323328385036 l -61.48141833175056 3.443243085515391" fill="#4aeaff" stroke="none" /><path d="M 120.96714384426684 98.82574320788733 l 60.76282294170309 -3.402998428264431 a81.85804014382595,81.85804014382595 0 0,0 0.0666807478065933,1.4075251966449605 l -60.81239729774318 2.3565621249964708" fill="#48f6ff" stroke="none" /><path d="M 120.98425023603335 99.18683210126433 l 60.374011659477326 -2.339574092338892 a81.4193254744891,81.4193254744891 0 0,0 0.04221516633245328,1.40091585097396 l -60.405338520265424 1.2999880939399329" fill="#47feff" stroke="none" /><line stroke="#e1ed5e" stroke-width="0.3" x1="184.98032266829074" x2="189.97916517819016" y1="98.17113171792111" y2="98.06355123074" /><path d="M 185.9800911702706 98.14961562048488 a86.0,86.0 0 0,1 -9.607161424134198,41.387399972396054" fill="none" id="id28" stroke="none" /><text fill="#e1ed5e" style="font-size:6.75px; font-family:Arial;" text-anchor="middle"><textPath startOffset="21.466115282336823" xlink:href="#id28">April</textPath></text><path d="M 120.99513854157772 99.54816195383933 l 61.930450764239666 -1.3328101558248004 a82.94479086067999,82.94479086067999 0 0,0 0.018433464217588843,1.4276921180425581 l -61.94421723557497 0.26658177972177954" fill="#4be3ff" stroke="none" /><path d="M 120.99980553446 99.90962569577887 l 61.02951995750484 -0.26264530850337237 a82.03008511219332,82.03008511219332 0 0,0 -0.006076877416730365,1.4120522985810913 l -61.024998782798605 -0.7879164682814036" fill="#49f3ff" stroke="none" /><path d="M 120.99824983174949 100.27111621757518 l 62.994749495248485 0.8133486527255557 a84.0,84.0 0 0,0 -0.03111174925997018,1.4456407368395405 l -62.97141568330351 -1.8975792053552112" fill="#4dd2ff" stroke="none" /><path d="M 120.9904718944345 100.63252640178507 l 61.1141730742834 1.8416130988935033 a82.14191434163214,82.14191434163214 0 0,0 -0.054752933538191134,1.4129299254297167 l -61.073418007894006 -2.893320271337226" fill="#49f1ff" stroke="none" /><path d="M 120.9764740272857 100.99374915477107 l 30.085596902636524 1.425288942931399 a51.119339128851664,51.119339128851664 0 0,0 -0.04920516114342863,0.8785912063735175 l -30.056605390605565 -1.94295186564034" fill="#ff2503" stroke="none" /><line stroke="#e1ed5e" stroke-width="0.3" x1="174.80103733775053" x2="179.2010983576182" y1="140.37084112569926" y2="142.7455964860345" /><path d="M 175.68104954172406 140.8457921977663 a86.0,86.0 0 0,1 -30.038265399797805,32.042727171017184" fill="none" id="id29" stroke="none" /><text fill="#e1ed5e" style="font-size:6.75px; font-family:Arial;" text-anchor="middle"><textPath startOffset="22.206326154141568" xlink:href="#id29">May</textPath></text><line stroke="#e1ed5e" stroke-width="0.3" x1="143.8653032363475" x2="146.44561519142675" y1="172.8068346515853" y2="177.08958963109032" /><path d="M 144.38136562736335 173.6633856474863 a86.0,86.0 0 0,1 -40.68145358897372,12.25698825130547" fill="none" id="id30" stroke="none" /><text fill="#e1ed5e" style="font-size:6.75px; font-family:Arial;" text-anchor="middle"><textPath startOffset="21.466115282336833" xlink:href="#id30">June</textPath></text><line stroke="#e1ed5e" stroke-width="0.3" x1="102.19456741930631" x2="102.32365962044197" y1="184.97166512339345" y2="189.96999836594603" /><path d="M 102.22038585953345 185.97133177190398 a86.0,86.0 0 0,1 -42.740103519485714,-10.115201625700543" fill="none" id="id31" stroke="none" /><text fill="#e1ed5e" style="font-size:6.75px; font-family:Arial;" text-anchor="middle"><textPath startOffset="22.20632615414155" xlink:href="#id31">July</textPath></text><line stroke="#e1ed5e" stroke-width="0.3" x1="58.666819895761336" x2="56.23545636021788" y1="174.27360380694188" y2="178.64263932499728" /><path d="M 58.180547188652646 175.14741091055294 a86.0,86.0 0 0,1 -31.652253787137756,-30.449443065178592" fill="none" id="id32" stroke="none" /><text fill="#e1ed5e" style="font-size:6.75px; font-family:Arial;" text-anchor="middle"><textPath startOffset="22.20632615414155" xlink:href="#id32">August</textPath></text><line stroke="#e1ed5e" stroke-width="0.3" x1="26.63291911575756" x2="22.317208475507996" y1="142.92168965132927" y2="145.44649492493687" /><path d="M 25.769776987707644 143.4266507060508 a86.0,86.0 0 0,1 -11.730757126820373,-40.83630448921669" fill="none" id="id33" stroke="none" /><text fill="#e1ed5e" style="font-size:6.75px; font-family:Arial;" text-anchor="middle"><textPath startOffset="21.46611528233685" xlink:href="#id33">September</textPath></text><line stroke="#e1ed5e" stroke-width="0.3" x1="15.007084014347285" x2="10.007500721073583" y1="101.09737516637583" y2="101.16192664675087" /><path d="M 14.007167355692545 101.11028546245083 a86.0,86.0 0 0,1 10.666146001902534,-42.60595125391555" fill="none" id="id34" stroke="none" /><text fill="#e1ed5e" style="font-size:6.75px; font-family:Arial;" text-anchor="middle"><textPath startOffset="22.20632615414155" xlink:href="#id34">October</textPath></text><line stroke="#e1ed5e" stroke-width="0.3" x1="26.266209847984243" x2="21.928928074336255" y1="57.711370442889674" y2="55.22380399835377" /><path d="M 25.398753493254645 57.213857153982495 a86.0,86.0 0 0,1 29.58750427330803,-30.492523968695096" fill="none" id="id35" stroke="none" /><text fill="#e1ed5e" style="font-size:6.75px; font-family:Arial;" text-anchor="middle"><textPath startOffset="21.46611528233685" xlink:href="#id35">November</textPath></text><line stroke="#e1ed5e" stroke-width="0.3" x1="56.762969772571076" x2="54.21961505331055" y1="26.818313649435495" y2="22.513508569990535" /><path d="M 56.25429882871897 25.957352633546506 a86.0,86.0 0 0,1 42.265352541879196,-11.944610805530505" fill="none" id="id36" stroke="none" /><text fill="#e1ed5e" style="font-size:6.75px; font-family:Arial;" text-anchor="middle"><textPath startOffset="22.20632615414155" xlink:href="#id36">December</textPath></text></svg>