<?xml version="1.0" encoding="utf-8" ?>
<svg baseProfile="full" height="200mm" version="1.1" viewBox="0,0,200,200" width="200mm" xmlns="http://www.w3.org/2000/svg" xmlns:ev="http://www.w3.org/2001/xml-events" xmlns:xlink="http://www.w3.org/1999/xlink"><defs /><rect fill="#1a1a1a" height="200" width="200" x="0" y="0" /><text alignment-baseline="middle" fill="#e1ed5e" style="dominant-baseline: central; font-size:9.0px; font-family:Arial;" text-anchor="middle" x="100.0" y="100.0">2025</text><line stroke="#e1ed5e" stroke-width="0.3" x1="100.0" x2="100.0" y1="15.0" y2="10.0" /><path d="M 100.0 14.0 a86.0,86.0 0 0,1 42.46469731375804,11.215312516191453" fill="none" id="id25" stroke="none" /><text fill="#e1ed5e" style="font-size:6.75px; font-family:Arial;" text-anchor="middle"><textPath startOffset="22.20632615414155" xlink:href="#id25">January</textPath></text><path d="M 100.0 79.0 l 0.0 -49.041533666303664 a70.04153366630366,70.04153366630366 0 0,0 1.2056498646989704,0.010377409022710749 l -0.8441693854264422 49.03426763388951" fill="#32ff46" stroke="none" /><path d="M 100.36148047927253 79.00311137660856 l 0.8623323236241455 -50.089276720903584 a71.09669908746105,71.09669908746105 0 0,0 1.2234501607511319,0.03159810812263731 l -1.7244091195701452 50.067011820638584" fill="#34ff59" stroke="none" /><path d="M 100.72285384407766 79.0124445844662 l 1.7328784725068769 -50.3129135552004 a71.34274662961434,71.34274662961434 0 0,0 1.2269565232290638,0.05283532886184973 l -2.598675828125272 50.275630499814355" fill="#34ff5e" stroke="none" /><path d="M 101.08401301168833 79.027996857942 l 2.5961112248830793 -50.22601405916884 a71.29306395283339,71.29306395283339 0 0,0 1.22501157755652,0.07389604371971799 l -3.4602848512792113 50.173884746068815" fill="#34ff5d" stroke="none" /><path d="M 101.44485096284872 79.0497635885617 l 3.4601220756252777 -50.17152451063996 a71.2906981110819,71.2906981110819 0 0,0 1.2235174764972157,0.09496850419327826 l -4.323229741484835 50.10453074425822" fill="#34ff5d" stroke="none" /><path d="M 101.80526077348638 79.07773832637324 l 4.2996377647236645 -49.831109021233644 a71.01626046791094,71.01626046791094 0 0,0 1.216998462400741,0.11556866819329198 l -5.15676135421465 49.74971480852517" fill="#34ff58" stroke="none" /><path d="M 102.16513564639614 79.11191278185805 l 5.24945182839286 -50.64394363531857 a71.91528033347103,71.91528033347103 0 0,0 1.2302077724864295,0.13822817721690525 l -6.120426304389015 50.54607950463107" fill="#35ff68" stroke="none" /><path d="M 102.52436894288641 79.15227682838746 l 6.117582372274155 -50.52259264086794 a71.89162191595629,71.89162191595629 0 0,0 1.2272422666929939,0.15933126830564312 l -6.986339367474995 50.40980304939816" fill="#35ff68" stroke="none" /><path d="M 102.88285421437855 79.19881850522331 l 6.868444281686636 -49.55913322898389 a71.03282136017125,71.03282136017125 0 0,0 1.2096923964793906,0.17827721387093184 l -7.720505658594682 49.43356153095199" fill="#34ff58" stroke="none" /><path d="M 103.2404852339499 79.25152402106235 l 7.723426220599068 -49.45226157314262 a71.05174809418304,71.05174809418304 0 0,0 1.206765876093949,0.19912670952452727 l -8.573521302831892 49.31198860067847" fill="#34ff58" stroke="none" /><line stroke="#e1ed5e" stroke-width="0.3" x1="143.23703022742887" x2="145.7803849466894" y1="26.81831364943548" y2="22.513508569990506" /><path d="M 143.74570117128098 25.957352633546492 a86.0,86.0 0 0,1 28.547481713284135,27.462654790039103" fill="none" id="id26" stroke="none" /><text fill="#e1ed5e" style="font-size:6.75px; font-family:Arial;" text-anchor="middle"><textPath startOffset="19.985693538727396" xlink:href="#id26">February</textPath></text><path d="M 116.15771136456269 86.58626213691792 l 18.34512168673959 -15.229672558204339 a44.84295317135454,44.84295317135454 0 0,0 0.4879372580667379,0.5981533840390011 l -18.604557436882732 14.911635004557235" fill="#ff0300" stroke="none" /><path d="M 116.60985879189232 87.15038557335679 l 19.81469015892612 -15.328915899627289 a46.05189830635774,46.05189830635774 0 0,0 0.4796503884739446,0.6311636872451526 l -20.075616487624178 14.985567436501102" fill="#ff1f03" stroke="none" /><path d="M 116.82858285166822 87.43820079747576 l 39.7360322942785 -29.66120577029243 a70.58567726914268,70.58567726914268 0 0,0 0.7184189644506125,0.9799226601351644 l -40.24071387124274 28.97282066648577" fill="#33ff50" stroke="none" /><path d="M 117.04232023915458 87.72973835380427 l 19.320688185806365 -13.910658636711974 a44.80746554508243,44.80746554508243 0 0,0 0.44527393323004927,0.6298084007716466 l -19.557274738840295 13.576023735608533" fill="#ff0300" stroke="none" /><path d="M 117.2510076193507 88.02491185347247 l 19.566992156478594 -13.582769250731065 a44.8192947538398,44.8192947538398 0 0,0 0.43448151799349866,0.6375480154520632 l -19.797898140140827 13.243943212008595" fill="#ff0300" stroke="none" /><path d="M 117.45458315368197 88.32363383020206 l 21.30024162236844 -14.24894645137834 a46.626797851965904,46.626797851965904 0 0,0 0.44051969411028163,0.6709417164489851 l -21.542357951836646 13.88018667095168" fill="#ff2c04" stroke="none" /><path d="M 117.65298651832404 88.62581576622439 l 41.79997040543784 -26.932585252036784 a70.72526193247964,70.72526193247964 0 0,0 0.6505794692205475,1.0290604833094315 l -42.257377470904345 26.20907712101315" fill="#33ff52" stroke="none" /><line stroke="#e1ed5e" stroke-width="0.3" x1="172.23445277983987" x2="176.4835382374775" y1="55.19839476539836" y2="52.563006222186495" /><path d="M 173.08426987136738 54.67131705675599 a86.0,86.0 0 0,1 12.851231095245387,41.99856678651699" fill="none" id="id27" stroke="none" /><text fill="#e1ed5e" style="font-size:6.75px; font-family:Arial;" text-anchor="middle"><textPath startOffset="22.20632615414155" xlink:href="#id27">March</textPath></text><path d="M 117.84615892207809 88.93136811851018 l 42.3719778380107 -26.280155120627654 a70.86011491231365,70.86011491231365 0 0,0 0.633976005887928,1.0420898609129485 l -42.81806964218485 25.54689748650762" fill="#33ff55" stroke="none" /><path d="M 118.03404312379186 89.2402003453031 l 42.86073533435501 -25.572353469768203 a70.90979758909461,70.90979758909461 0 0,0 0.6163760731026919,1.0535865101721733 l -43.29457108192803 24.830787547242135" fill="#33ff56" stroke="none" /><path d="M 118.21658344932153 89.55222093294921 l 42.0447420248132 -24.113971581359003 a69.46899996244696,69.46899996244696 0 0,0 0.5859953576382733,1.0424203541193438 l -42.45359502374391 23.386667717304864" fill="#31ff3b" stroke="none" /><path d="M 118.3937258080291 89.86733742301442 l 43.7549499158663 -24.10355292873004 a70.95474858237262,70.95474858237262 0 0,0 0.5801121739801663,1.074859754615095 l -44.16337018906493 23.346812190782487" fill="#33ff57" stroke="none" /><path d="M 118.56541770881063 90.18545643968196 l 44.40390002907167 -23.47396745490467 a71.22682038379212,71.22682038379212 0 0,0 0.5636774120849996,1.0888453452314364 l -44.80138687431679 22.70614938741289" fill="#34ff5c" stroke="none" /><path d="M 118.73160827565052 90.50648371742162 l 44.01636021782853 -22.308283745768165 a70.34672725224381,70.34672725224381 0 0,0 0.538118921646218,1.0848149095770845 l -44.39383915242816 21.54730924769213" fill="#32ff4b" stroke="none" /><path d="M 118.89224826269711 90.83032412892265 l 45.364382380614316 -22.018379005911875 a71.42555109091592,71.42555109091592 0 0,0 0.5273307831896917,1.1106931155139366 l -45.73667135764576 21.2342434747574" fill="#34ff5f" stroke="none" /><path d="M 119.04729006885535 91.15688171328212 l 45.15514569667543 -20.964257550873608 a70.7844079762665,70.7844079762665 0 0,0 0.5035726927035903,1.1095556772824415 l -45.50932070634237 20.183879864749105" fill="#33ff54" stroke="none" /><path d="M 119.196687751892 91.48605970444005 l 21.66142452096778 -9.607077922602622 a44.69627098276315,44.69627098276315 0 0,0 0.3058699702672419,0.7059900627986448 l -21.823585201077705 9.232788715217374" fill="#ff0000" stroke="none" /><path d="M 119.34039704204932 91.81776055985345 l 46.6147945079729 -19.72107445820293 a71.61481843103385,71.61481843103385 0 0,0 0.47053770671739575,1.1394443795322806 l -46.94735390157649 18.915755508217348" fill="#35ff63" stroke="none" /><path d="M 119.47837535516314 92.15188598940014 l 45.35420727483326 -18.273854110677576 a69.89721731946375,69.89721731946375 0 0,0 0.4400410940454109,1.1198565867690091 l -45.66204191876037 17.490448519012784" fill="#31ff43" stroke="none" /><path d="M 119.61058180528143 92.48833698450437 l 47.94646960136141 -18.365478699420137 a72.34349769048782,72.34349769048782 0 0,0 0.4354231504676634,1.1667175644828613 l -48.2554973403307 17.537437997907944" fill="#36ff70" stroke="none" /><path d="M 119.7369772167798 92.82701384747503 l 46.58338721223518 -16.92974500304909 a70.5643846933794,70.5643846933794 0 0,0 0.4050628180637294,1.1451671330118651 l -46.86790311110872 16.12538024361061" fill="#33ff4f" stroke="none" /><path d="M 119.85752413597 93.16781622104841 l 46.32651730906155 -15.939110934830003 a69.9918509895227,69.9918509895227 0 0,0 0.38216452611341367,1.1426232902600872 l -46.594019128946734 15.1393145416476" fill="#32ff45" stroke="none" /><path d="M 119.97218684219823 93.5106431181261 l 24.62453860088822 -8.000997602076078 a46.891772128130995,46.891772128130995 0 0,0 0.24282014644405325,0.7698062208163542 l -24.758614231100477 7.575941214833303" fill="#ff3204" stroke="none" /><path d="M 120.08093135843002 93.85539295169968 l 47.95850357137235 -14.674924873286841 a71.15347928949643,71.15347928949643 0 0,0 0.3482932414735646,1.1742716644037554 l -48.204002709957614 13.847223822136556" fill="#34ff5a" stroke="none" /><path d="M 120.18372546131832 94.20196356495316 l 48.45412961679732 -13.919076014241602 a71.41372188215854,71.41372188215854 0 0,0 0.3292282400613024,1.184409148206594 l -48.68654462742498 13.082955562616057" fill="#34ff5f" stroke="none" /><path d="M 120.28053869075195 94.5502522615342 l 48.83962541441817 -13.124091140198082 a71.57223327950732,71.57223327950732 0 0,0 0.3094772056196981,1.192541916950054 l -49.05829895190817 12.281452797699178" fill="#35ff62" stroke="none" /><path d="M 120.37134235888165 94.90015583598534 l 49.80647473120842 -12.46875414556828 a72.34349769048782,72.34349769048782 0 0,0 0.2920169389790728,1.2105987372310032 l -50.01372447044831 11.60957017667787" fill="#36ff70" stroke="none" /><path d="M 120.45610955862082 95.25157060432595 l 49.172557323101806 -11.414311992432756 a71.47996545119982,71.47996545119982 0 0,0 0.2678987856147551,1.200937726237984 l -49.361750495718596 10.566196096644807" fill="#34ff60" stroke="none" /><path d="M 120.53481517161879 95.60439243477599 l 49.41033261881042 -10.576595408545712 a71.52964812798078,71.52964812798078 0 0,0 0.24735873380983275,1.2062090337230111 l -49.58507064853525 9.724510718659289" fill="#35ff61" stroke="none" /><path d="M 120.6074358757038 95.95851677861258 l 49.68722174454309 -9.744544358120894 a71.63374516504562,71.63374516504562 0 0,0 0.22688889063231557,1.2120495262190885 l -49.84759635908526 8.887816754439243" fill="#35ff63" stroke="none" /><path d="M 120.67395015179393 96.31383870115 l 49.23504062399324 -8.77859818578129 a71.01152878440797,71.01152878440797 0 0,0 0.2042025730425475,1.205215145341998 l -49.37885505855601 7.929797252123453" fill="#34ff58" stroke="none" /><path d="M 120.73433829027371 96.67025291283417 l 49.514337985534404 -7.951554584098626 a71.14874760599346,71.14874760599346 0 0,0 0.18378096413332698,1.2108869307892278 l -49.643874843107035 7.098068540917316" fill="#34ff5a" stroke="none" /><path d="M 120.78858239683441 97.02765380044208 l 49.69774138655147 -7.105770365535948 a71.20316196627738,71.20316196627738 0 0,0 0.16303490033673923,1.214799377119814 l -49.81269228594604 6.2492526463514695" fill="#34ff5b" stroke="none" /><path d="M 120.83666639777658 97.38593545837742 l 49.91832711878618 -6.262505067137795 a71.30962484509371,71.30962484509371 0 0,0 0.14231243831925633,1.219246062777931 l -50.01872991010902 5.402315266035011" fill="#34ff5d" stroke="none" /><path d="M 120.87857604477298 97.74499172005257 l 50.45152776120048 -5.449059964316244 a71.74493972736491,71.74493972736491 0 0,0 0.12204454594365408,1.228971922288983 l -50.53784943282636 4.579812511322826" fill="#35ff65" stroke="none" /><path d="M 120.91429891909075 98.10471618934814 l 50.11137963249342 -4.5411652054088245 a71.31672237034813,71.31672237034813 0 0,0 0.1002696685850626,1.2235439304949436 l -50.182123784897975 3.6779073577061125" fill="#34ff5d" stroke="none" /><path d="M 120.94382443527127 98.46500227214037 l 50.67054298855952 -3.7137041803055646 a71.80645161290323,71.80645161290323 0 0,0 0.0797373339849018,1.2335012641670409 l -50.72696091354884 2.8409438518854886" fill="#35ff66" stroke="none" /><path d="M 120.96714384426684 98.82574320788733 l 50.13406372196324 -2.807738873686501 a71.21262533328327,71.21262533328327 0 0,0 0.058009098460589395,1.2244803845745804 l -50.17496642865732 1.944347382488921" fill="#34ff5b" stroke="none" /><path d="M 120.98425023603335 99.18683210126433 l 49.81326411695432 -1.9303309317953286 a70.85065154530776,70.85065154530776 0 0,0 0.03673540676390163,1.2190693084623243 l -49.83911121817387 1.072591475908005" fill="#33ff55" stroke="none" /><line stroke="#e1ed5e" stroke-width="0.3" x1="184.98032266829074" x2="189.97916517819016" y1="98.17113171792111" y2="98.06355123074" /><path d="M 185.9800911702706 98.14961562048488 a86.0,86.0 0 0,1 -9.607161424134198,41.387399972396054" fill="none" id="id28" stroke="none" /><text fill="#e1ed5e" style="font-size:6.75px; font-family:Arial;" text-anchor="middle"><textPath startOffset="21.466115282336823" xlink:href="#id28">April</textPath></text><path d="M 120.99513854157772 99.54816195383933 l 51.097447660111534 -1.0996722345422922 a72.1092793570919,72.1092793570919 0 0,0 0.01602540445267661,1.2411852354751367 l -51.108806071681926 0.2199507410066927" fill="#36ff6c" stroke="none" /><path d="M 120.99980553446 99.90962569577887 l 50.3541095417154 -0.21670284551156999 a71.3545758383717,71.3545758383717 0 0,0 -0.005286024144672269,1.2282858501127494 l -50.350379220281226 -0.6500924828048642" fill="#34ff5e" stroke="none" /><path d="M 120.99824983174949 100.27111621757518 l 51.975577046081526 0.6710760167123507 a72.97990912163432,72.97990912163432 0 0,0 -0.027030150400091636,1.25598487615574 l -51.95632483299642 -1.5656507086582054" fill="#37ff7b" stroke="none" /><path d="M 120.9904718944345 100.63252640178507 l 50.42395495944576 1.5194743098046934 a71.4468436666792,71.4468436666792 0 0,0 -0.047623972659382376,1.2289631219732275 l -50.39032885393517 -2.3872146787919273" fill="#34ff60" stroke="none" /><path d="M 120.9764740272857 100.99374915477107 l 50.89605179980309 2.411173030865343 a71.9531338014946,71.9531338014946 0 0,0 -0.06925882853362222,1.2366629089171945 l -50.84700662038194 -3.2869076561179607" fill="#35ff69" stroke="none" /><path d="M 120.95626037817324 101.35467743843564 l 25.8142345910413 1.668711905650453 a46.86811371061626,46.86811371061626 0 0,0 -0.05897223110217237,0.8046292397333904 l -25.78168580127479 -2.1128142818806137" fill="#ff3104" stroke="none" /><path d="M 120.92983693683757 101.71520430193887 l 50.573037961015324 4.1444705247645315 a71.74257388561344,71.74257388561344 0 0,0 -0.11145859224475668,1.2299362777261968 l -50.49420477249349 -5.014388191039299" fill="#35ff65" stroke="none" /><path d="M 120.89721153311464 102.0752229133903 l 49.484226506575936 4.914091075506109 a70.72762777423111,70.72762777423111 0 0,0 -0.1307373204993301,1.2104652174486688 l -49.392306884575554 -5.765152614839569" fill="#33ff52" stroke="none" /><path d="M 120.8583938346157 102.4346265915055 l 50.54140237277945 5.899276960843498 a71.88452439070188,71.88452439070188 0 0,0 -0.15403310028998662,1.2277953638304517 l -50.43236776324262 -6.768390078961344" fill="#35ff68" stroke="none" /><path d="M 120.81339534386255 102.79330883721812 l 49.705473862991305 6.670835637614961 a71.15111344774496,71.15111344774496 0 0,0 -0.17335782098949185,1.212464196233863 l -49.58328199098521 -7.525445305829233" fill="#34ff5a" stroke="none" /><path d="M 120.76222939487914 103.15116336523771 l 49.62304592125441 7.531480430378674 a71.19133275752,71.19133275752 0 0,0 -0.1943124903972755,1.209984063189591 l -49.48605167649584 -8.384543723261471" fill="#34ff5b" stroke="none" /><path d="M 120.70491114924044 103.5080841355445 l 50.985911739092444 8.638668710961548 a72.71256900371776,72.71256900371776 0 0,0 -0.21970815190205356,1.23223999497334 l -50.829657144851204 -9.515027456668106" fill="#37ff77" stroke="none" /><path d="M 120.64145759157962 103.86396538481128 l 49.06929249764412 9.185497042874632 a70.92162679785197,70.92162679785197 0 0,0 -0.23495344427626177,1.1980225505022937 l -48.90390912039219 -10.02878332044487" fill="#33ff56" stroke="none" /><path d="M 120.5718875245553 104.21870165774334 l 50.51233113496743 10.358624352831425 a72.56352097337489,72.56352097337489 0 0,0 -0.2614565984756879,1.221438184694905 l -50.3265404977673 -11.2265763569425" fill="#37ff74" stroke="none" /><path d="M 120.49622156327973 104.57218783832717 l 50.702921598989434 11.31053744646678 a72.94915317886516,72.94915317886516 0 0,0 -0.28394392841361193,1.2232230121028091 l -50.50071710464527 -12.181629115918154" fill="#37ff7b" stroke="none" /><path d="M 120.41448212921028 104.9243191809786 l 48.97129835637179 11.81270738524662 a71.37586841413498,71.37586841413498 0 0,0 -0.2983806513869328,1.1918823805558036 l -48.7607063906898 -12.65391760519982" fill="#34ff5e" stroke="none" /><path d="M 120.32669344350535 105.2749913415812 l 49.69960131485186 12.897570740884408 a72.3458635322393,72.3458635322393 0 0,0 -0.32318593460355416,1.2026950907785332 l -49.470227303906526 -13.75115676483849" fill="#36ff70" stroke="none" /><path d="M 120.23288151984713 105.62410040840565 l 48.88669607827872 13.588953561051051 a71.74020804386195,71.74020804386195 0 0,0 -0.34096195210002395,1.1869332852659948 l -48.64554148929259 -14.428444321821628" fill="#35ff65" stroke="none" /><path d="M 120.13307415673323 105.97154293290107 l 48.44594212103327 14.369242424105384 a71.53201396973225,71.53201396973225 0 0,0 -0.3602939041292849,1.1774613251602803 l -48.19142144439785 -15.201030721817721" fill="#35ff61" stroke="none" /><path d="M 120.02730092923936 106.31721596034902 l 47.78755120522247 15.073637842974831 a71.10852829621842,71.10852829621842 0 0,0 -0.37825588711990793,1.1641519166285699 l -47.52100306708631 -15.893988659581197" fill="#34ff5a" stroke="none" /><path d="M 119.9155931802556 106.66101706037122 l 47.823898978987 15.995295952737164 a71.4279169326674,71.4279169326674 0 0,0 -0.40002752180509277,1.16266722709789 l -47.54148062623867 -16.816135882924357" fill="#34ff5f" stroke="none" /><path d="M 119.79798401119884 107.00284435728193 l 47.60170206545557 16.837437110643748 a71.49179465995718,71.49179465995718 0 0,0 -0.4203572465571808,1.156642606271703 l -47.30482055789316 -17.65432751392158" fill="#34ff61" stroke="none" /><path d="M 119.67450827220406 107.3425965602758 l 46.31403924454962 17.28456439899689 a70.43426339704834,70.43426339704834 0 0,0 -0.43369300808838257,1.1322355909671633 l -46.009651956867735 -18.079223556797196" fill="#32ff4d" stroke="none" /><path d="M 119.54520255179757 107.68017299344265 l 47.13264417979199 18.52049678072476 a71.64084269030005,71.64084269030005 0 0,0 -0.46088050285033005,1.143867611539579 l -46.80686106268426 -19.329063760107154" fill="#35ff63" stroke="none" /><path d="M 119.41010516605496 108.01547362559984 l 24.10208935449223 9.953045585793092 a47.076307784745964,47.076307784745964 0 0,0 -0.31574532193192084,0.7463286713867728 l -23.927193051368 -10.366448782846028" fill="#ff3605" stroke="none" /><path d="M 119.26925614724726 108.34839909993367 l 46.810203571642916 20.280505816050525 a72.01464568703295,72.01464568703295 0 0,0 -0.5025899216834889,1.1332075935318922 l -46.45417256522815 -21.083261746075106" fill="#36ff6a" stroke="none" /><path d="M 119.12269723197855 108.67885076344098 l 46.822565808684715 21.250457301358637 a72.41920462653499,72.41920462653499 0 0,0 -0.5249543415442356,1.1307049495556616 l -46.44983685030065 -22.05328231819313" fill="#36ff71" stroke="none" /><path d="M 118.97047184881838 109.00673069616215 l 23.81692195913087 11.307710414739311 a47.36494047842578,47.36494047842578 0 0,0 -0.35601912405511454,0.7335048449348301 l -23.618749578461042 -11.716004215639417" fill="#ff3c05" stroke="none" /><path d="M 118.81262510543309 109.33194174019688 l 46.23077750852214 22.93262741885702 a72.60610612490143,72.60610612490143 0 0,0 -0.5650184021224147,1.1148349106972226 l -45.829180436613456 -23.725016541256934" fill="#37ff75" stroke="none" /><path d="M 118.64920377521936 109.65438752849418 l 45.38376778119869 23.49443370043969 a72.10454767358894,72.10454767358894 0 0,0 -0.5800896416681653,1.0973109895469062 l -44.97262563130563 -24.27215970507273" fill="#36ff6c" stroke="none" /><line stroke="#e1ed5e" stroke-width="0.3" x1="174.80103733775053" x2="179.2010983576182" y1="140.37084112569926" y2="142.7455964860345" /><path d="M 175.68104954172406 140.8457921977663 a86.0,86.0 0 0,1 -30.038265399797805,32.042727171017184" fill="none" id="id29" stroke="none" /><text fill="#e1ed5e" style="font-size:6.75px; font-family:Arial;" text-anchor="middle"><textPath startOffset="22.206326154141568" xlink:href="#id29">May</textPath></text><path d="M 118.48025628344425 109.97397251340804 l 23.153584076929313 12.496212586459604 a47.31052611814188,47.31052611814188 0 0,0 -0.39295580172687816,0.713328921862589 l -22.935051865750925 -12.892912026719998" fill="#ff3b05" stroke="none" /><path d="M 118.30583269289576 110.29060199501025 l 43.98101934079706 24.723877518373406 a71.45394119193361,71.45394119193361 0 0,0 -0.6119451757340248,1.0669779949046394 l -43.54892216891066 -25.47727535913636" fill="#34ff60" stroke="none" /><path d="M 118.12598468904814 110.60418214915192 l 43.68574003373845 25.55731744152698 a71.61245258928238,71.61245258928238 0 0,0 -0.6316188456042431,1.0586295158808317 l -43.23934031243598 -26.305509051293914" fill="#35ff63" stroke="none" /><path d="M 117.94076556474637 110.91462005526583 l 43.6132606582407 26.532990899304444 a72.05013331330505,72.05013331330505 0 0,0 -0.6537189577534233,1.054003108546116 l -43.150077060819314 -27.279790339215833" fill="#36ff6b" stroke="none" /><path d="M 117.75023020441432 111.22182372390056 l 20.897131582424777 13.211317501381291 a45.72304630290286,45.72304630290286 0 0,0 -0.4263023856044914,0.6616307693925451 l -20.666624333443238 -13.569069870695289" fill="#ff1802" stroke="none" /><path d="M 117.35343817320211 111.8261652097733 l 41.995854752174814 28.619683976620237 a71.82064666341208,71.82064666341208 0 0,0 -0.7050020452487864,1.0156080277180426 l -41.49699179976389 -29.3383332665253" fill="#35ff67" stroke="none" /><path d="M 117.14729908036423 112.12312394758627 l 42.05335014613193 29.73167808197892 a72.50200908783657,72.50200908783657 0 0,0 -0.7292328291770844,1.0128406192213302 l -41.53533752457925 -30.45115230665138" fill="#36ff73" stroke="none" /><path d="M 116.93607887273984 112.41649034213515 l 21.25134775822333 15.580179814942491 a47.350745427916934,47.350745427916934 0 0,0 -0.4875745339226628,0.6531857664809869 l -20.980011957605576 -15.943678460932793" fill="#ff3c05" stroke="none" /><path d="M 116.71984013943494 112.70617746262583 l 19.329940986617746 14.689713446408005 a45.27826805362575,45.27826805362575 0 0,0 -0.4769163915064254,0.6164787249985955 l -19.074217777893253 -15.020270165519852" fill="#ff0d01" stroke="none" /><path d="M 116.498646956653 112.99209946851258 l 39.51273840600807 31.114880450070263 a71.29306395283339,71.29306395283339 0 0,0 -0.7675278454506381,0.9576090000009555 l -38.971292648502576 -31.79041728364947" fill="#34ff5d" stroke="none" /><path d="M 116.27256486870786 113.27417163493432 l 40.28573506213397 32.86265969555918 a72.98937248864021,72.98937248864021 0 0,0 -0.8025494320422467,0.9667224908592922 l -39.71408963019818 -33.55124344353224" fill="#37ff7c" stroke="none" /><path d="M 116.0416608686014 113.55231037782055 l 39.444810933729485 33.32375150846574 a72.63686206767059,72.63686206767059 0 0,0 -0.8151152679771784,0.9481632065616112 l -38.86535315618153 -33.99779181418888" fill="#37ff75" stroke="none" /><path d="M 115.80600337817218 113.82643327865902 l 37.10425014731763 32.457252269415086 a70.29704457546285,70.29704457546285 0 0,0 -0.8045367885518467,0.9039056107739368 l -36.54005450911744 -33.09113204992989" fill="#32ff4a" stroke="none" /><path d="M 115.56566222782051 114.09645910891815 l 38.576000340335256 34.934910151862454 a73.04378684892413,73.04378684892413 0 0,0 -0.8520160934399433,0.9246951942069163 l -37.96893783889959 -35.593756600870705" fill="#38ff7d" stroke="none" /><path d="M 115.32070863581623 114.36230785411682 l 35.22284364389598 33.01944681125413 a69.27973262232905,69.27973262232905 0 0,0 -0.8230875910232442,0.8630040485270477 l -34.64924950149377 -33.62085797636368" fill="#30ff37" stroke="none" /><path d="M 115.07121518719521 114.62390073753431 l 17.104745404912443 16.597075672753846 a44.833489804348645,44.833489804348645 0 0,0 -0.5421850022519714,0.5492305447709352 l -16.816519777604935 -16.889046711505443" fill="#ff0300" stroke="none" /><path d="M 114.55890576462653 115.13401014063108 l 34.09798624891895 35.444921342924566 a70.18348417139208,70.18348417139208 0 0,0 -0.8778422052106981,0.8300545971745079 l -33.48280820931744 -36.026610576844995" fill="#32ff48" stroke="none" /><path d="M 114.29624159901734 115.38237550388516 l 34.9532879772287 37.60880767418781 a72.34349769048782,72.34349769048782 0 0,0 -0.9194529584159089,0.8398984774937029 l -34.30073546934592 -38.2048989182681" fill="#36ff70" stroke="none" /><path d="M 114.0293411484842 115.62618273729858 l 34.11897413034607 38.00244921890394 a72.07142588906831,72.07142588906831 0 0,0 -0.9302624344837188,0.8208484386732706 l -33.45976934295576 -38.5841207993495" fill="#36ff6b" stroke="none" /><path d="M 113.75828350139079 115.86535959552629 l 32.64912129707788 37.64932230126919 a70.83409065304744,70.83409065304744 0 0,0 -0.9280430368535447,0.7908984094703029 l -31.996212783647294 -38.20574510096244" fill="#33ff54" stroke="none" /><path d="M 113.48314897796784 116.09983520530334 l 15.34341745763489 18.321127576187884 a44.897367531638444,44.897367531638444 0 0,0 -0.5967712584660951,0.49110211773717083 l -15.025776070624104 -18.582524812782236" fill="#ff0500" stroke="none" /><path d="M 113.20401910651253 116.32954008644616 l 16.40473799691541 20.287900567801447 a47.090502835254796,47.090502835254796 0 0,0 -0.6346959043662478,0.5042408123854412 l -16.053084599831813 -20.567275294192015" fill="#ff3605" stroke="none" /><path d="M 112.92097659922987 116.55440617244103 l 16.237954181277104 20.804130930967716 a47.390964737691995,47.390964737691995 0 0,0 -0.6473860148677002,0.49638799024469343 l -15.87743943791591 -21.08055826303978" fill="#ff3d05" stroke="none" /><path d="M 112.63410532772338 116.77436683061366 l 30.281714391901474 40.20518843981813 a71.33328326260843,71.33328326260843 0 0,0 -0.9871678202620896,0.7302831535804173 l -29.58516160122082 -40.720481542138316" fill="#34ff5e" stroke="none" /><path d="M 112.34349029814194 116.9893568818739 l 29.765940497021464 40.969302345921065 a71.64084269030005,71.64084269030005 0 0,0 -1.0039020101729665,0.7162574290068626 l -29.056311158999613 -41.47560403677215" fill="#35ff63" stroke="none" /><path d="M 112.04921762599082 117.19931262002967 l 29.15676278365582 41.61899084820506 a71.81591497990914,71.81591497990914 0 0,0 -1.0185655167273469,0.7005786501813189 l -28.436040382305592 -42.11471028775147" fill="#35ff66" stroke="none" /><path d="M 111.7513745106137 117.40417183066458 l 13.589829811647045 20.126984547873217 a45.285365578880175,45.285365578880175 0 0,0 -0.6497917345584251,0.4306465296050221 l -13.241363378348657 -20.357929098569556" fill="#ff0e01" stroke="none" /><path d="M 111.45004920935366 117.60387380957326 l 14.563564787292384 22.390747152737486 a47.71035337414098,47.71035337414098 0 0,0 -0.6922958525653519,0.4418559679517965 l -14.1759871326801 -22.63811754951309" fill="#ff4406" stroke="none" /><path d="M 111.1453310114006 117.79835938074945 l 27.04110353316198 43.18286089869921 a71.95076795974316,71.95076795974316 0 0,0 -1.0553491958307093,0.6482816723113625 l -26.29377513739896 -43.64193103783895" fill="#35ff69" stroke="none" /><line stroke="#e1ed5e" stroke-width="0.3" x1="143.8653032363475" x2="146.44561519142675" y1="172.8068346515853" y2="177.08958963109032" /><path d="M 144.38136562736335 173.6633856474863 a86.0,86.0 0 0,1 -40.68145358897372,12.25698825130547" fill="none" id="id30" stroke="none" /><text fill="#e1ed5e" style="font-size:6.75px; font-family:Arial;" text-anchor="middle"><textPath startOffset="21.466115282336833" xlink:href="#id30">June</textPath></text><path d="M 110.8373102113329 117.98757091392108 l 25.904301035020126 42.995488987269155 a71.19606444102294,71.19606444102294 0 0,0 -1.0551667957323843,0.6234111417372148 l -25.16036636825936 -43.435018701300116" fill="#34ff5b" stroke="none" /><path d="M 110.5260780823613 118.17145234162733 l 25.621665445285004 44.231371733057955 a72.11637688234633,72.11637688234633 0 0,0 -1.0795177141971952,0.6129783318028696 l -24.85649896416661 -44.66585323065546" fill="#36ff6c" stroke="none" /><path d="M 110.21172684928248 118.3499491758327 l 25.190127803359804 45.26536713590815 a72.80247099027376,72.80247099027376 0 0,0 -1.1002782634241601,0.599959437135952 l -24.407226728066995 -45.69226722480388" fill="#37ff78" stroke="none" /><path d="M 109.89434966115114 118.52300852407294 l 24.02488845771045 44.9764996116276 a71.9909872695182,71.9909872695182 0 0,0 -1.0980651504059962,0.5744557889284124 l -23.247132404777958 -45.38338481950073" fill="#35ff6a" stroke="none" /><path d="M 109.57404056367764 118.69057910512821 l 23.489818100090684 45.85715930956652 a72.52330166359985,72.52330166359985 0 0,0 -1.1159819778350784,0.5595765310923375 l -22.696982214572845 -46.25470368156816" fill="#37ff73" stroke="none" /><path d="M 109.2508944713604 118.85261126421891 l 22.356183556102575 45.560182233139784 a71.74967141086785,71.74967141086785 0 0,0 -1.1134432851403666,0.5345204407043834 l -21.568627602961975 -45.93825695034373" fill="#35ff65" stroke="none" /><path d="M 108.92500713936063 119.00905698771935 l 21.513326007784 45.820472039045015 a71.61955011453679,71.61955011453679 0 0,0 -1.120443540064977,0.5143406749585178 l -20.7214144719516 -46.18399978433761" fill="#35ff63" stroke="none" /><path d="M 108.59647513512805 119.15986991738527 l 21.01582978320012 46.840194210138634 a72.33876600698488,72.33876600698488 0 0,0 -1.1404699926515796,0.4999485294548418 l -20.20643911589079 -47.19500729288793" fill="#36ff70" stroke="none" /><path d="M 108.2653958097858 119.30500536409082 l 20.193402703557958 47.164558901086075 a72.30564422246425,72.30564422246425 0 0,0 -1.1483807613149684,0.4800232513660942 l -19.37855048274553 -47.50516719547214" fill="#36ff6f" stroke="none" /><path d="M 107.93186726928326 119.44442032107085 l 9.956460826281962 24.407570455222285 a47.36020879492283,47.36020879492283 0 0,0 -0.7574902842129154,0.3014210169061374 l -9.53484946602718 -24.57533831653449" fill="#ff3c05" stroke="none" /><path d="M 107.59598834532513 119.57807347666477 l 18.437294179281604 47.52070221053093 a71.97206053550642,71.97206053550642 0 0,0 -1.1588522352523296,0.4381787563283804 l -17.616571723268997 -47.831029216965945" fill="#35ff69" stroke="none" /><path d="M 107.2578585660854 119.70592522655815 l 19.328760221227935 52.47981896773534 a76.92613316309289,76.92613316309289 0 0,0 -1.2464980186567989,0.4469498412150682 l -18.4225426419414 -52.80475634999037" fill="#3fffbf" stroke="none" /><path d="M 106.91757812671514 119.82793768551818 l 16.92779088479247 48.520331345578946 a72.38844868376583,72.38844868376583 0 0,0 -1.1800360461987331,0.4003322958671934 l -16.09008510565651 -48.80452662834426" fill="#36ff71" stroke="none" /><path d="M 106.57524785965236 119.94407469862006 l 16.010082840962852 48.561863358887926 a72.13293777460665,72.13293777460665 0 0,0 -1.1825633710324035,0.3786194472841624 l -15.17179812483951 -48.830255652831795" fill="#36ff6c" stroke="none" /><path d="M 106.2309692047433 120.05430185196036 l 7.346876378779912 23.64583610153784 a45.76089977092643,45.76089977092643 0 0,0 -0.7542377429928219,0.22724564485718807 l -6.938763661346844 -23.768797115500753" fill="#ff1802" stroke="none" /><path d="M 105.88484417918355 120.15858648285463 l 6.951360308544018 23.811947043380997 a45.80585076420444,45.80585076420444 0 0,0 -0.7587822761580263,0.21443945051355517 l -6.540446864281385 -23.92807528723307" fill="#ff1902" stroke="none" /><path d="M 105.53697534728816 120.25689768951611 l 6.475572617845021 23.690734340178007 a45.559803222051144,45.559803222051144 0 0,0 -0.7582660309397338,0.20026495054389373 l -6.0668161440937896 -23.798690640025487" fill="#ff1402" stroke="none" /><path d="M 105.18746579009965 120.34920634021253 l 12.535710075215471 49.174637725512646 a71.74730556911638,71.74730556911638 0 0,0 -1.1993645689792105,0.2947746306601025 l -11.68739222149305 -49.38313361448677" fill="#35ff65" stroke="none" /><path d="M 104.83641907484287 120.43548508189849 l 11.583322668378592 48.943405012138676 a71.29542979458486,71.29542979458486 0 0,0 -1.1966763068079507,0.2723596313859275 l -10.73912621217778 -49.135541377102285" fill="#34ff5d" stroke="none" /><path d="M 104.48393922423573 120.51570834832081 l 10.855312252386671 49.66713620831417 a71.83957339742386,71.83957339742386 0 0,0 -1.210354975013308,0.25364165307503117 l -9.998765815943985 -49.846633842115736" fill="#35ff67" stroke="none" /><path d="M 104.13013068566511 120.58985236759428 l 9.917338852484068 49.44069773888292 a71.42555109091593,71.42555109091593 0 0,0 -1.2075420849684992,0.23142831455859755 l -9.064829152943865 -49.60408325178999" fill="#34ff5f" stroke="none" /><path d="M 103.7750983002368 120.6578951692458 l 9.080990526116983 49.69252067149383 a71.51545307747193,71.51545307747193 0 0,0 -1.2128715318659038,0.21087326248911167 l -8.224270022779029 -49.84147251250395" fill="#35ff61" stroke="none" /><path d="M 103.41894727170886 120.7198165907248 l 8.329808145027132 50.481064282287875 a72.1636937173758,72.1636937173758 0 0,0 -1.2273468259707623,0.1916863325542977 l -7.459625455447853 -50.61696892218928" fill="#36ff6d" stroke="none" /><path d="M 103.06178313531738 120.77559828337769 l 7.561727052359557 51.30977493351674 a72.86398287581208,72.86398287581208 0 0,0 -1.242405190480033,0.1721860385786543 l -6.6773932706926935 -51.432335537587996" fill="#37ff79" stroke="none" /><path d="M 102.70371172650421 120.8252237178851 l 6.6192150882867855 50.98422058057315 a72.41210710128055,72.41210710128055 0 0,0 -1.2374628322721903,0.14983951561759087 l -5.740624832963214 -51.090605624916094" fill="#36ff71" stroke="none" /><path d="M 102.34483914955558 120.86867818915974 l 2.7417949077964763 24.401518373797998 a45.555071538548205,45.555071538548205 0 0,0 -0.7800056564077044,0.0808507755373713 l -2.321356654783169 -24.44509851779113" fill="#ff1402" stroke="none" /><path d="M 101.98527174616119 120.90594882070398 l 2.3819682410098033 25.08337019120103 a46.19621465319764,46.19621465319764 0 0,0 -0.7922775812466946,0.06836104344016583 l -1.9498463420215668 -25.12065548691986" fill="#ff2203" stroke="none" /><line stroke="#e1ed5e" stroke-width="0.3" x1="102.19456741930631" x2="102.32365962044197" y1="184.97166512339345" y2="189.96999836594603" /><path d="M 102.22038585953345 185.97133177190398 a86.0,86.0 0 0,1 -42.740103519485714,-10.115201625700543" fill="none" id="id31" stroke="none" /><text fill="#e1ed5e" style="font-size:6.75px; font-family:Arial;" text-anchor="middle"><textPath startOffset="22.20632615414155" xlink:href="#id31">July</textPath></text><line stroke="#e1ed5e" stroke-width="0.3" x1="58.666819895761336" x2="56.23545636021788" y1="174.27360380694188" y2="178.64263932499728" /><path d="M 58.180547188652646 175.14741091055294 a86.0,86.0 0 0,1 -31.652253787137756,-30.449443065178592" fill="none" id="id32" stroke="none" /><text fill="#e1ed5e" style="font-size:6.75px; font-family:Arial;" text-anchor="middle"><textPath startOffset="22.20632615414155" xlink:href="#id32">August</textPath></text><path d="M 82.85270091963577 112.12312394758628 l -21.226616353791975 15.007197334043122 a46.99586916519584,46.99586916519584 0 0,0 -0.4613183731828817,-0.6645635233200405 l 21.481795634136994 -14.639592548536069" fill="#ff3405" stroke="none" /><path d="M 82.6465618267979 111.8261652097733 l -41.421077912309826 28.2279802808367 a71.12508918847873,71.12508918847873 0 0,0 -0.6807581930604314,-1.017641132140787 l 41.900839210780994 -27.51080223449009" fill="#34ff5a" stroke="none" /><path d="M 82.44556493220864 111.52570212397912 l -21.469557297976984 14.096250958494567 a46.68357805400127,46.68357805400127 0 0,0 -0.4352579782443587,-0.6755300480472427 l 21.70902013959839 -13.724599310525877" fill="#ff2d04" stroke="none" /><path d="M 82.24976979558568 111.22182372390057 l -21.221087115090103 13.416124528675446 a46.106312666641635,46.106312666641635 0 0,0 -0.4183277570247835,-0.6744775427815476 l 21.448879511782845 -13.048850654528634" fill="#ff2003" stroke="none" /><path d="M 82.05923443525364 110.91462005526583 l -43.79718904455545 26.644887375893422 a72.26542491268918,72.26542491268918 0 0,0 -0.6373780342677843,-1.0682822473488425 l 44.24934795452147 -25.88704303465847" fill="#36ff6f" stroke="none" /><line stroke="#e1ed5e" stroke-width="0.3" x1="26.63291911575756" x2="22.317208475507996" y1="142.92168965132927" y2="145.44649492493687" /><path d="M 25.769776987707644 143.4266507060508 a86.0,86.0 0 0,1 -11.730757126820373,-40.83630448921669" fill="none" id="id33" stroke="none" /><text fill="#e1ed5e" style="font-size:6.75px; font-family:Arial;" text-anchor="middle"><textPath startOffset="21.46611528233685" xlink:href="#id33">September</textPath></text><path d="M 81.87401531095188 110.60418214915194 l -44.23505355073348 25.878680429035562 a72.24886402042885,72.24886402042885 0 0,0 -0.618753046396784,-1.0788480912423 l 44.67395859328264 -25.113412491934955" fill="#36ff6e" stroke="none" /><path d="M 81.69416730710424 110.29060199501025 l -45.21222390548129 25.41599769461223 a72.86634871756357,72.86634871756357 0 0,0 -0.6052195320702533,-1.0986492486040782 l 45.64301984700305 -24.63397792761033" fill="#37ff79" stroke="none" /><path d="M 81.51974371655577 109.97397251340807 l -44.06905081884384 23.784491666000445 a71.07777235344925,71.07777235344925 0 0,0 -0.5718291123846565,-1.0816851812042303 l 44.47193243945338 -23.02239146971009" fill="#34ff59" stroke="none" /><path d="M 81.35079622478065 109.6543875284942 l -45.08752634528605 23.341074358198075 a71.77096398663113,71.77096398663113 0 0,0 -0.5585193526389145,-1.1020116695013087 l 45.48262436771123 -22.56150847699408" fill="#35ff66" stroke="none" /><path d="M 81.18737489456691 109.33194174019688 l -46.23289692251876 22.933678747304228 a72.6084719666529,72.6084719666529 0 0,0 -0.5457624210532206,-1.1244322368590736 l 46.6208126001867 -22.13445755447987" fill="#37ff75" stroke="none" /><path d="M 81.02952815118164 109.00673069616217 l -21.9532862853726 10.422900339214141 a45.30192647114049,45.30192647114049 0 0,0 -0.3283858626173028,-0.7073139334998603 l 22.129446764829726 -10.043466338435453" fill="#ff0e01" stroke="none" /><path d="M 80.87730276802145 108.67885076344099 l -47.16295254825276 21.4049420834335 a72.79300762326787,72.79300762326787 0 0,0 -0.5080221064958959,-1.1454557362289877 l 47.524415739479934 -20.589938010711816" fill="#37ff78" stroke="none" /><path d="M 80.73074385275274 108.34839909993369 l -21.812777697345805 9.450379002906649 a44.77197791881032,44.77197791881032 0 0,0 -0.3002899599973404,-0.7097967612135329 l 21.972218638535452 -9.073507716026956" fill="#ff0200" stroke="none" /><path d="M 80.58989483394504 108.01547362559985 l -44.9962522815629 18.581366269176623 a69.68192572007962,69.68192572007962 0 0,0 -0.44827838087112604,-1.1125901782796845 l 45.309433276691415 -17.80407672305413" fill="#31ff3f" stroke="none" /><path d="M 80.45479744820244 107.68017299344265 l -22.528104770074837 8.852286968633273 a45.20492695933006,45.20492695933006 0 0,0 -0.27834550697137983,-0.7266722859284889 l 22.677144556639725 -8.463191115871625" fill="#ff0c01" stroke="none" /><path d="M 80.32549172779594 107.34259656027581 l -22.51977213326748 8.404459166968596 a45.036952194975406,45.036952194975406 0 0,0 -0.26480814068318903,-0.7286382725891944 l 22.661104534955893 -8.015573097373284" fill="#ff0801" stroke="none" /><path d="M 80.20201598880116 107.00284435728193 l -47.496872152744665 16.800357195724814 a71.38060009763792,71.38060009763792 0 0,0 -0.3997625268693763,-1.1618970277733067 l 47.77902551055727 -15.98028746486221" fill="#34ff5f" stroke="none" /><path d="M 80.0844068197444 106.66101706037122 l -46.95111001802871 15.70338086356922 a70.50760449134403,70.50760449134403 0 0,0 -0.3750593230459348,-1.1543139040025736 l 47.21446159209089 -14.892868059588844" fill="#33ff4e" stroke="none" /><path d="M 79.97269907076064 106.31721596034903 l -46.12243256549373 14.548409102270625 a69.36253708363063,69.36253708363063 0 0,0 -0.34936663878565866,-1.141750389769974 l 46.36602597678552 -13.752331739948604" fill="#30ff39" stroke="none" /><path d="M 79.86692584326677 105.97154293290107 l -47.23020051436284 14.008649047106442 a70.26392279094222,70.26392279094222 0 0,0 -0.33394556456201513,-1.1625083197826247 l 47.46433871581096 -13.19358325181922" fill="#32ff4a" stroke="none" /><path d="M 79.76711848015287 105.62410040840567 l -46.167349390099176 12.833061287151057 a68.91775883435353,68.91775883435353 0 0,0 -0.3078717871649687,-1.1457054511568772 l 46.38140925360592 -12.036464902818642" fill="#2fff30" stroke="none" /><path d="M 79.67330655649465 105.27499134158121 l -23.28917409445898 6.043786316859167 a45.060610612490144,45.060610612490144 0 0,0 -0.1883719896539356,-0.7524524610264158 l 23.389757398407973 -5.642006016435359" fill="#ff0801" stroke="none" /><path d="M 79.58551787078972 104.9243191809786 l -49.14608907046017 11.854869868751935 a71.55567238724699,71.55567238724699 0 0,0 -0.2785200078758176,-1.1998569043831826 l 49.34286964426654 -11.007144307020178" fill="#35ff62" stroke="none" /><path d="M 79.50377843672027 104.57218783832718 l -49.12812459878398 10.959240127107552 a71.3356491043599,71.3356491043599 0 0,0 -0.2570324029855895,-1.2007698162556637 l 49.30949104049401 -10.111956491435725" fill="#34ff5e" stroke="none" /><path d="M 79.4281124754447 104.21870165774334 l -47.87025462687554 9.816810553233923 a69.86646137669459,69.86646137669459 0 0,0 -0.23145782860617398,-1.1801984815104438 l 48.03214238845738 -8.991348344655524" fill="#31ff42" stroke="none" /><path d="M 79.35854240842038 103.8639653848113 l -49.09487243307248 9.190285463682761 a70.94765105711818,70.94765105711818 0 0,0 -0.2143752793929508,-1.2023304138452977 l 49.24579415480462 -8.343836299104249" fill="#33ff57" stroke="none" /><path d="M 79.29508885075956 103.50808413554451 l -48.89357196281071 8.28415842485431 a70.59040895264562,70.59040895264562 0 0,0 -0.19267230476593722,-1.1997706256975875 l 49.02892602193794 -7.441308569463509" fill="#33ff50" stroke="none" /><path d="M 79.23777060512086 103.15116336523772 l -48.89793895752172 7.42142815918299 a70.45792181456308,70.45792181456308 0 0,0 -0.1716688777638281,-1.2006517312472527 l 49.01844188630214 -6.578630955955337" fill="#32ff4d" stroke="none" /><path d="M 79.18660465613746 102.79330883721812 l -49.29044089413811 6.615135198523659 a70.73235945773405,70.73235945773405 0 0,0 -0.1515642582384505,-1.2081162635643001 l 49.39700666162341 -5.765701180671951" fill="#33ff53" stroke="none" /><path d="M 79.10278846688536 102.07522291339032 l -23.879276343127625 2.3713604728511726 a44.996732885200345,44.996732885200345 0 0,0 -0.06990650364725057,-0.7714124425324237 l 23.916557443051953 -1.9599666417701826" fill="#ff0701" stroke="none" /><path d="M 79.07016306316243 101.71520430193888 l -49.144127992515905 4.027371068497895 a70.30887378422021,70.30887378422021 0 0,0 -0.08846678103876159,-1.2070589400890497 l 49.206171332219 -3.1808389919120845" fill="#32ff4b" stroke="none" /><path d="M 79.04373962182676 101.35467743843564 l -23.932586066342196 1.5470763295755112 a44.982537834691506,44.982537834691506 0 0,0 -0.04329815409422794,-0.7731176274072117 l 23.955670571323957 -1.134886985832862" fill="#ff0701" stroke="none" /><path d="M 79.0235259727143 100.99374915477108 l -26.03055256418401 1.2331834022836117 a47.059746892485634,47.059746892485634 0 0,0 -0.03136838500272033,-0.8094786346346748 l 26.047923082037933 -0.7849275206349401" fill="#ff3605" stroke="none" /><path d="M 79.0095281055655 100.63252640178507 l -50.84251895268413 1.5320873076396928 a71.86559765669008,71.86559765669008 0 0,0 -0.026617433984676694,-1.2368075660693738 l 50.861358449353816 -0.6566899257801901" fill="#35ff67" stroke="none" /><line stroke="#e1ed5e" stroke-width="0.3" x1="15.007084014347285" x2="10.007500721073583" y1="101.09737516637583" y2="101.16192664675087" /><path d="M 14.007167355692545 101.11028546245083 a86.0,86.0 0 0,1 10.666146001902534,-42.60595125391555" fill="none" id="id34" stroke="none" /><text fill="#e1ed5e" style="font-size:6.75px; font-family:Arial;" text-anchor="middle"><textPath startOffset="22.20632615414155" xlink:href="#id34">October</textPath></text><path d="M 79.00175016825051 100.2711162175752 l -50.14929943106286 0.6474962668192674 a71.15347928949642,71.15347928949642 0 0,0 -0.005271126694855276,-1.2248242074278113 l 50.15301485504721 0.21583741881221918" fill="#34ff5a" stroke="none" /><path d="M 79.00019446554 99.90962569577889 l -50.647471202266665 -0.21796535034350625 a71.64794021555448,71.64794021555448 0 0,0 0.015922877476968307,-1.2332444082178056 l 50.636215317671976 1.0897460166217838" fill="#35ff63" stroke="none" /><path d="M 79.00486145842228 99.54816195383935 l -60.73365567600258 -1.3070538335574335 a81.7477186525968,81.7477186525968 0 0,0 0.0423854351544494,-1.4065662442421827 l 60.70215854639248 2.352290225224611" fill="#49f3ff" stroke="none" /><path d="M 79.01574976396665 99.18683210126434 l -49.406644524713045 -1.9145738761136095 a70.44372676405425,70.44372676405425 0 0,0 0.05738276131039416,-1.2112593972658792 l 49.366368155169155 2.764744380002498" fill="#32ff4d" stroke="none" /><path d="M 79.03285615573316 98.82574320788736 l -61.90697050627652 -3.4670759706734993 a83.00398062262948,83.00398062262948 0 0,0 0.09217160820956477,-1.4258539828824874 l 61.838118307062544 4.5321890178089985" fill="#4be0ff" stroke="none" /><path d="M 79.08570108090925 98.10471618934814 l -62.742896757272284 -5.685851431955563 a84.0,84.0 0 0,0 0.1428914972710853,-1.4388978771822787 l 62.635728134318974 6.7650248398422725" fill="#4dd2ff" stroke="none" /><path d="M 79.12142395522702 97.74499172005258 l -28.694027094917477 -3.099122686591157 a49.860903526230814,49.860903526230814 0 0,0 0.0995072793193544,-0.8525176011368168 l 28.636429462594535 3.592584026052836" fill="#ff730a" stroke="none" /><line stroke="#e1ed5e" stroke-width="0.3" x1="26.266209847984243" x2="21.928928074336255" y1="57.711370442889674" y2="55.22380399835377" /><path d="M 25.398753493254645 57.213857153982495 a86.0,86.0 0 0,1 29.58750427330803,-30.492523968695096" fill="none" id="id35" stroke="none" /><text fill="#e1ed5e" style="font-size:6.75px; font-family:Arial;" text-anchor="middle"><textPath startOffset="21.46611528233685" xlink:href="#id35">November</textPath></text><line stroke="#e1ed5e" stroke-width="0.3" x1="56.762969772571076" x2="54.21961505331055" y1="26.818313649435495" y2="22.513508569990535" /><path d="M 56.25429882871897 25.957352633546506 a86.0,86.0 0 0,1 42.265352541879196,-11.944610805530505" fill="none" id="id36" stroke="none" /><text fill="#e1ed5e" style="font-size:6.75px; font-family:Arial;" text-anchor="middle"><textPath startOffset="22.20632615414155" xlink:href="#id36">December</textPath></text></svg>