<?xml version="1.0" encoding="utf-8" ?>
<svg baseProfile="full" height="200mm" version="1.1" viewBox="0,0,200,200" width="200mm" xmlns="http://www.w3.org/2000/svg" xmlns:ev="http://www.w3.org/2001/xml-events" xmlns:xlink="http://www.w3.org/1999/xlink"><defs /><rect fill="#1a1a1a" height="200" width="200" x="0" y="0" /><text alignment-baseline="middle" fill="#e1ed5e" style="dominant-baseline: central; font-size:9.0px; font-family:Arial;" text-anchor="middle" x="100.0" y="100.0">2024</text><line stroke="#e1ed5e" stroke-width="0.3" x1="100.0" x2="100.0" y1="15.0" y2="10.0" /><path d="M 100.0 14.0 a86.0,86.0 0 0,1 42.35913384403234,11.155469271406648" fill="none" id="id13" stroke="none" /><text fill="#e1ed5e" style="font-size:6.75px; font-family:Arial;" text-anchor="middle"><textPath startOffset="22.145653131862478" xlink:href="#id13">January</textPath></text><path d="M 100.0 79.0 l 0.0 -0.03890468273590031 a21.0389046827359,21.0389046827359 0 0,0 0.3611607754617015,0.003100130888721246 l -0.0006678506128467356 0.03889895004161397" fill="#ff0000" stroke="none" /><path d="M 100.72087961077811 79.0123766808444 l 0.0013631007627713753 -0.03968519143469703 a21.03970859432035,21.03970859432035 0 0,0 0.36085528762568475,0.01549667871538605 l -0.002044148989292399 0.03965594429348006" fill="#ff0000" stroke="none" /><path d="M 101.08105385017728 79.02784411241856 l 0.0020602650169480132 -0.039968590924567574 a21.04002165604314,21.04002165604314 0 0,0 0.36054145829440126,0.02168927882757085 l -0.0027460754438116447 0.03992733427230498" fill="#ff0000" stroke="none" /><path d="M 101.44090949804482 79.04949213459386 l 0.002703379340822434 -0.039306542305348406 a21.0393993975571,21.0393993975571 0 0,0 0.36010535594234744,0.027874432015379123 l -0.003377730058403347 0.03925434329491564" fill="#ff0000" stroke="none" /><path d="M 101.80034050326958 79.07731436759882 l 0.0033551986042172676 -0.038992493643741286 a21.039136580308337,21.039136580308337 0 0,0 0.35956930022261946,0.03405158657387396 l -0.0040240622118496395 0.03892915156468363" fill="#ff0000" stroke="none" /><path d="M 102.15924093988457 79.11130261209362 l 0.004058635924315834 -0.03926362087005046 a21.039472831788373,21.039472831788373 0 0,0 0.3589375126131045,0.040219696960304405 l -0.004732050138217022 0.0391881634027752" fill="#ff0000" stroke="none" /><path d="M 102.87502721639298 79.19773525538626 l 0.005401424113348639 -0.03908201416777839 a21.039453506990668,21.039453506990668 0 0,0 0.35734499322276103,0.05251740815307215 l -0.006071522943791644 0.038983532715823825" fill="#ff0000" stroke="none" /><path d="M 105.3480935250658 79.69241777938227 l 0.009972862510990398 -0.03786858334986986 a21.03915977006558,21.03915977006558 0 0,0 0.34846719413025623,0.09497628332498395 l -0.01062145757593944 0.037691805880743855" fill="#ff0000" stroke="none" /><path d="M 105.69591212413111 79.78721728523813 l 0.010631940656847546 -0.037729006636647223 a21.039198419660988,21.039198419660988 0 0,0 0.346786089546782,0.10094437655244695 l -0.011278042585233971 0.037540935781684326" fill="#ff0000" stroke="none" /><path d="M 106.38641147887787 79.99465700312896 l 0.012005449012335356 -0.03760689803930626 a21.03947669674791,21.03947669674791 0 0,0 0.34312106573458784,0.11279070955731042 l -0.012649252394665593 0.03739526707997427" fill="#ff0000" stroke="none" /><path d="M 109.3889696526874 81.21577127319529 l 28.166908958062173 -56.352686180414125 a84.0,84.0 0 0,0 1.2842911131456847,0.6557681933086643 l -29.130127292921436 55.86086003543262" fill="#4dd2ff" stroke="none" /><line stroke="#e1ed5e" stroke-width="0.3" x1="143.13028292997686" x2="145.6673583964461" y1="26.7553504044142" y2="22.446841604673864" /><path d="M 143.63769802327073 25.89364864446614 a86.0,86.0 0 0,1 29.32050498858742,28.57503671076993" fill="none" id="id14" stroke="none" /><text fill="#e1ed5e" style="font-size:6.75px; font-family:Arial;" text-anchor="middle"><textPath startOffset="20.669276256404974" xlink:href="#id14">February</textPath></text><line stroke="#e1ed5e" stroke-width="0.3" x1="172.87174338648825" x2="177.1583165268699" y1="56.24261187166439" y2="53.66864786411523" /><path d="M 173.72905801456457 55.72781907015455 a86.0,86.0 0 0,1 12.242430191666344,42.057860355516425" fill="none" id="id15" stroke="none" /><text fill="#e1ed5e" style="font-size:6.75px; font-family:Arial;" text-anchor="middle"><textPath startOffset="22.145653131862474" xlink:href="#id15">March</textPath></text><path d="M 118.18653347947321 89.5 l 0.03436522135796732 -0.019840769801783512 a21.039681539603567,21.039681539603567 0 0,0 0.17790216438139433,0.31433607820577064 l -0.03470075076073762 0.019247921496894804" fill="#ff0000" stroke="none" /><path d="M 118.36410011445183 89.81374322990088 l 0.03451148008355606 -0.01914293624279544 a21.03946510186929,21.03946510186929 0 0,0 0.17247817899488263,0.31734042272842194 l -0.03483500869377999 0.018547680039770205" fill="#ff0000" stroke="none" /><path d="M 118.53625476483649 90.13048839642627 l 0.03458255637340788 -0.01841326339860555 a21.039179094863286,21.039179094863286 0 0,0 0.16700292335736852,0.3202501256985882 l -0.03489354870572098 0.01781689459551914" fill="#ff0000" stroke="none" /><path d="M 118.70294669586156 90.45014215332178 l 0.03495206605088986 -0.017846773968914965 a21.039244799175474,21.039244799175474 0 0,0 0.16148130012812448,0.3230707722907896 l -0.03525327939075133 0.01724414551437489" fill="#ff0000" stroke="none" /><path d="M 118.8641267826498 90.77261029715802 l 0.03491998070831189 -0.01708111242698379 a21.038873763059577,21.038873763059577 0 0,0 0.15590881650928906,0.3257894627798802 l -0.03520805517751294 0.016479147582000083" fill="#ff0000" stroke="none" /><path d="M 119.0197475246899 91.09779779509293 l 0.03556510644298129 -0.016646265602814563 a21.039267988932718,21.039267988932718 0 0,0 0.1502960498294156,0.32842399299571656 l -0.03584562112744832 0.016033290392413767" fill="#ff0000" stroke="none" /><path d="M 119.16976305983485 91.42560881287824 l 0.03579622755503048 -0.016011197275732143 a21.03921387949915,21.03921387949915 0 0,0 0.14463569681895094,0.3309547793569987 l -0.03606580639095175 0.015394348142884106" fill="#ff0000" stroke="none" /><path d="M 119.58574465831526 92.42381321644754 l 0.037229051765502626 -0.014400996994017428 a21.039917302135542,21.039917302135542 0 0,0 0.12741104266253792,0.3379729280048609 l -0.03747077824248116 0.013759788794998765" fill="#ff0000" stroke="none" /><path d="M 119.71291397450082 92.76114493625339 l 0.03674879093901015 -0.01349466505659802 a21.03914817518696,21.03914817518696 0 0,0 0.1215860688076653,0.340097873952295 l -0.03697502979061869 0.012861834723386183" fill="#ff0000" stroke="none" /><path d="M 120.16314734710363 94.1308016681162 l 0.03723186518042275 -0.010837653331003876 a21.03877713907106,21.03877713907106 0 0,0 0.09796206445548471,0.34763280752514725 l -0.037412421710489495 0.01019692190284349" fill="#ff0000" stroke="none" /><path d="M 120.26092885502905 94.47779374421319 l 0.03784497836537226 -0.010314817142625792 a21.039225474377773,21.039225474377773 0 0,0 0.0919820102032842,0.34927067491735936 l -0.038016469373386735 0.009663637852467849" fill="#ff0000" stroke="none" /><path d="M 120.35273937422433 94.82641323984039 l 0.038166302733808714 -0.009701724906768315 a21.039380072759396,21.039380072759396 0 0,0 0.08597339260034938,0.35080078030158185 l -0.038327221850449296 0.009045119997091552" fill="#ff0000" stroke="none" /><path d="M 120.43855184770803 95.1765574152323 l 0.03796234399006253 -0.00895900981555118 a21.039005171683957,21.039005171683957 0 0,0 0.07993733792059352,0.35221866030682575 l -0.03811054346832245 0.00830601556969913" fill="#ff0000" stroke="none" /><path d="M 120.51834098615036 95.52812308129327 l 0.03856747725346656 -0.008405602161448556 a21.039472831788373,21.039472831788373 0 0,0 0.07388089950783887,0.3535468493317049 l -0.03870608758567225 0.007742301544339249" fill="#ff0000" stroke="none" /><path d="M 120.592083275326 95.88100663000786 l 0.0387591459648144 -0.007752914706154253 a21.03952694122194,21.03952694122194 0 0,0 0.06780108555913994,0.35476392965710296 l -0.03888652380611125 0.007086420015736735" fill="#ff0000" stroke="none" /><path d="M 120.65975698304385 96.23510406497455 l 0.038738232574233485 -0.007059396413447766 a21.039376207799858,21.039376207799858 0 0,0 0.061700658266995105,0.3558730005721538 l -0.03885370833346291 0.006393362920701286" fill="#ff0000" stroke="none" /><path d="M 120.7213421655516 96.59031103205396 l 0.03862107423370333 -0.0063550830681135045 a21.03914044526788,21.03914044526788 0 0,0 0.05558191040937794,0.3568757366004104 l -0.03872447678134647 0.005691164536261878" fill="#ff0000" stroke="none" /><path d="M 120.77682067341334 96.94652285012252 l 0.03869006182222466 -0.005686106722415178 a21.039105660632014,21.039105660632014 0 0,0 0.04944739195840274,0.3577766960202597 l -0.03878197033583994 0.0050211025020698505" fill="#ff0000" stroke="none" /><path d="M 120.82617615685814 97.30363454192243 l 0.03947573754583766 -0.00511092455710748 a21.039805218308864,21.039805218308864 0 0,0 0.04329983271611195,0.3585847297110721 l -0.03955765652161326 0.004432517922622421" fill="#ff0000" stroke="none" /><path d="M 120.86939407059847 97.66154086499901 l 0.03895847267683753 -0.0043653781230373985 a21.03920228462053,21.03920228462053 0 0,0 0.0371368044183404,0.3592648949542638 l -0.039027669576844004 0.0036959608858421985" fill="#ff0000" stroke="none" /><path d="M 120.9064616781168 98.02013634271609 l 0.03908153799585761 -0.003701062281129571 a21.039256394054096,21.039256394054096 0 0,0 0.030964152203505013,0.35985038455291696 l -0.03913931289710342 0.003029630352550596" fill="#ff0000" stroke="none" /><path d="M 120.93736805541906 98.37931529534042 l 0.03915087319430628 -0.0030305251926665265 a21.039267988932718,21.039267988932718 0 0,0 0.024782292858705795,0.36032909919994616 l -0.03919712721807816 0.0023580018383862057" fill="#ff0000" stroke="none" /><path d="M 120.96210409425399 98.7389718711861 l 0.03895021618048675 -0.002343148283498901 a21.03902063152212,21.03902063152212 0 0,0 0.018592894395782152,0.36069718414651775 l -0.03898470003284158 0.001674170760250496" fill="#ff0000" stroke="none" /><path d="M 120.98066250479742 99.09900007780936 l 0.039262720873011456 -0.00168611017137744 a21.039298908609045,21.039298908609045 0 0,0 0.01239847187432897,0.36096798070165653 l -0.03928587974418856 0.0010118649056009683" fill="#ff0000" stroke="none" /><path d="M 120.99303781780057 99.45929381324524 l 0.039034740662423094 -0.0010053964537063427 a21.039047686238902,21.039047686238902 0 0,0 0.006200075509772223,0.36112331540850906 l -0.039046247770861346 0.00033516507613088806" fill="#ff0000" stroke="none" /><line stroke="#e1ed5e" stroke-width="0.3" x1="184.99686870605535" x2="189.99668451229388" y1="99.2704041080226" y2="99.22748670261217" /><path d="M 185.99683186730306 99.26182062694052 a86.0,86.0 0 0,1 -10.086455211305974,41.156179273409016" fill="none" id="id16" stroke="none" /><text fill="#e1ed5e" style="font-size:6.75px; font-family:Arial;" text-anchor="middle"><textPath startOffset="21.40746469413373" xlink:href="#id16">April</textPath></text><path d="M 120.99922638620191 99.81974689727618 l 0.03919311082295407 -0.00033642571880068657 a21.039194554701446,21.039194554701446 0 0,0 0.0,0.3611790568852551 l -0.03919311082295407 -0.0003364257188006818" fill="#ff0000" stroke="none" /><path d="M 120.99922638620191 100.18025310272382 l 0.039162192285673074 0.0003361603203438966 a21.039163635025123,21.039163635025123 0 0,0 -0.006200109679150581,0.3611253056036274 l -0.039150651007854136 -0.0010083818930423313" fill="#ff0000" stroke="none" /><path d="M 120.99303781780057 100.54070618675476 l 0.04016293469126955 0.0010344547299096806 a21.040176254424765,21.040176254424765 0 0,0 -0.012398988894763761,0.3609830331874379 l -0.04013925879965999 -0.0017237524814583047" fill="#ff0000" stroke="none" /><path d="M 120.98066250479742 100.90099992219065 l 0.03960252412210837 0.0017007027849770594 a21.03963902504862,21.03963902504862 0 0,0 -0.018593440891065113,0.36070778600900977 l -0.03956749377447059 -0.002380282170717486" fill="#ff0000" stroke="none" /><path d="M 120.96210409425399 101.26102812881392 l 0.040377670616577696 0.0024290203976920746 a21.04045066655215,21.04045066655215 0 0,0 -0.02478368594249263,0.3603493543324575 l -0.040330023509018986 -0.003121798884493064" fill="#ff0000" stroke="none" /><path d="M 120.9064616781168 101.97986365728391 l 0.03919697032232141 0.0037119938424602255 a21.039372342840316,21.039372342840316 0 0,0 -0.03713710459221403,0.3592677988641954 l -0.039127473248441305 -0.004384314989587056" fill="#ff0000" stroke="none" /><path d="M 120.86939407059847 102.33845913500097 l 0.0387126536635944 0.004337833589874105 a21.03895492720993,21.03895492720993 0 0,0 -0.043298082820523,0.3585702380653258 l -0.03863248458340774 -0.00500174857860848" fill="#ff0000" stroke="none" /><path d="M 120.82617615685814 102.69636545807757 l 0.03888162750412455 0.005034005117710313 a21.039206149580068,21.039206149580068 0 0,0 -0.04944762813367232,0.3577784048668434 l -0.03878948281524203 -0.00570071818463881" fill="#ff0000" stroke="none" /><path d="M 120.77682067341334 103.0534771498775 l 0.03874359620307963 0.00569397443284321 a21.03915977006558,21.03915977006558 0 0,0 -0.05558196146227757,0.35687606439665454 l -0.03864014260253453 -0.0063582207609483" fill="#ff0000" stroke="none" /><path d="M 120.7213421655516 103.40968896794604 l 0.038571496474738 0.006346925066742297 a21.03909020079385,21.03909020079385 0 0,0 -0.06169981951491589,0.3558681628730553 l -0.03845685946758779 -0.007008120860385579" fill="#ff0000" stroke="none" /><path d="M 120.65975698304385 103.76489593502545 l 0.03938463025165872 0.007177191602914197 a21.040033250921763,21.040033250921763 0 0,0 -0.06780271717126335,0.3547724669411985 l -0.03925562079823613 -0.007852223577427238" fill="#ff0000" stroke="none" /><path d="M 120.592083275326 104.11899336999214 l 0.03890695144957426 0.007782479942640244 a21.039677674644025,21.039677674644025 0 0,0 -0.07388161882122679,0.3535502915066446 l -0.038767621803983 -0.00844922273469389" fill="#ff0000" stroke="none" /><path d="M 120.51834098615036 104.47187691870673 l 0.03902063472633567 0.008504365723513851 a21.039936626933248,21.039936626933248 0 0,0 -0.07994087696877863,0.3522342540061267 l -0.03886889619989296 -0.009172953668657478" fill="#ff0000" stroke="none" /><path d="M 120.43855184770803 104.8234425847677 l 0.037992437009474335 0.008966111686193328 a21.03903609136028,21.03903609136028 0 0,0 -0.08597198698631182,0.35079504491665603 l -0.03783292350686664 -0.009616981210948962" fill="#ff0000" stroke="none" /><path d="M 120.35273937422433 105.17358676015961 l 0.04052992399448625 0.0103025481883635 a21.04181886222953,21.04181886222953 0 0,0 -0.09199334831210061,0.3493137275632997 l -0.04034709487765537 -0.010996780124466447" fill="#ff0000" stroke="none" /><path d="M 120.26092885502905 105.52220625578681 l 0.03837075843725137 0.010458120839256556 a21.039770433673,21.039770433673 0 0,0 -0.09796668949567713,0.34764922016115685 l -0.038185576866994524 -0.011115264903421867" fill="#ff0000" stroke="none" /><path d="M 120.16314734710363 105.8691983318838 l 0.03755842793691676 0.01093271099004267 a21.039117255510636,21.039117255510636 0 0,0 -0.1039168888388904,0.3459055258082554 l -0.03736521909439669 -0.011575840389021532" fill="#ff0000" stroke="none" /><path d="M 120.05942366710727 106.21446072829308 l 0.03737629464595102 0.011579271623204568 a21.039128850389258,21.039128850389258 0 0,0 -0.10983956530054209,0.3440708738752702 l -0.03717201356815409 -0.012219179189858282" fill="#ff0000" stroke="none" /><path d="M 119.94978838288452 106.5578916946017 l 0.03763831599043374 0.012372462058004585 a21.039619700250917,21.039619700250917 0 0,0 -0.11573251428344045,0.3421426141588645 l -0.03742038013462831 -0.013016750691029528" fill="#ff0000" stroke="none" /><path d="M 119.83427380445688 106.89939002012753 l 0.03989535991526252 0.013877677134158896 a21.04224014281946,21.04224014281946 0 0,0 -0.12160393741081339,0.34014785561549205 l -0.039651252460505895 -0.014560489130572408" fill="#ff0000" stroke="none" /><path d="M 119.71291397450082 107.23885506374661 l 0.03644766055615448 0.013384085808922997 a21.038827383545087,21.038827383545087 0 0,0 -0.12740444246245,0.3379554201899756 l -0.03621253427926385 -0.014007786193057526" fill="#ff0000" stroke="none" /><path d="M 119.58574465831526 107.57618678355244 l 0.03664869958364353 0.014176504302689494 a21.039295043649503,21.039295043649503 0 0,0 -0.133190083851496,0.3357260175081262 l -0.036399940766023105 -0.014803539024379827" fill="#ff0000" stroke="none" /><path d="M 119.4528033332814 107.91128576633889 l 0.03614574623525017 0.014700160321643216 a21.03902063152212,21.03902063152212 0 0,0 -0.13893182942170415,0.3333858142554666 l -0.035888072277060507 -0.015318484018387628" fill="#ff0000" stroke="none" /><path d="M 119.31412917781788 108.2440532568976 l 0.03599115806311508 0.015362485210594579 a21.039132715348796,21.039132715348796 0 0,0 -0.14463513884975057,0.33095350261426826 l -0.03572213719639885 -0.01597805760070754" fill="#ff0000" stroke="none" /><path d="M 119.16976305983485 108.57439118712176 l 0.03603966730481267 0.016120084779381115 a21.039480561707453,21.039480561707453 0 0,0 -0.15029756836362804,0.32842731126702807 l -0.035757634086128545 -0.01673637826109807" fill="#ff0000" stroke="none" /><path d="M 119.0197475246899 108.90220220490707 l 0.03707382306472629 0.017352421161359346 a21.040933786494726,21.040933786494726 0 0,0 -0.1559240823366985,0.3258213624878118 l -0.03677048276811582 -0.017986285714274644" fill="#ff0000" stroke="none" /><path d="M 118.8641267826498 109.22738970284198 l 0.03513176424611099 0.017184706367929743 a21.039109525591552,21.039109525591552 0 0,0 -0.1614802618706055,0.3230686950802458 l -0.034831589163773165 -0.017785257611921377" fill="#ff0000" stroke="none" /><path d="M 118.70294669586154 109.54985784667822 l 0.03548904874775292 0.018120961160086446 a21.039847732863812,21.039847732863812 0 0,0 -0.16700823081257643,0.3202603034437679 l -0.035172748960227235 -0.018727507708357197" fill="#ff0000" stroke="none" /><path d="M 118.5362547648365 109.86951160357373 l 0.03493394271122439 0.018600356831578645 a21.03957718569597,21.03957718569597 0 0,0 -0.17247909784021812,0.3173421133003432 l -0.03460949525566733 -0.019197303606525124" fill="#ff0000" stroke="none" /><line stroke="#e1ed5e" stroke-width="0.3" x1="174.33088141563837" x2="178.70328620479359" y1="141.23008692659167" y2="143.65538615756765" /><path d="M 175.20536237346943 141.71514677278685 a86.0,86.0 0 0,1 -30.301960400862466,31.631185727798858" fill="none" id="id17" stroke="none" /><text fill="#e1ed5e" style="font-size:6.75px; font-family:Arial;" text-anchor="middle"><textPath startOffset="22.145653131862474" xlink:href="#id17">May</textPath></text><path d="M 118.36410011445183 110.18625677009912 l 0.03413969839624013 0.018936715207960163 a21.039039956319822,21.039039956319822 0 0,0 -0.17789673943926088,0.3143264928528282 l -0.03380959393560093 -0.019519978159911126" fill="#ff0000" stroke="none" /><path d="M 118.18653347947321 110.5 l 0.03481373987963343 0.020099722091003958 a21.040199444182008,21.040199444182008 0 0,0 -0.18327645821209465,0.3112434941050405 l -0.034463571537773414 -0.020694384489593935" fill="#ff0000" stroke="none" /><path d="M 118.00360718960297 110.81064883170644 l 0.03345627168703949 0.02008952987130369 a21.03902449648166,21.03902449648166 0 0,0 -0.1885818288973975,0.3080342450292543 l -0.03310647833423732 -0.02066089102511502" fill="#ff0000" stroke="none" /><path d="M 117.81537515405839 111.11811171558189 l 0.03362781438010742 0.020986243275585202 a21.03963902504862,21.03963902504862 0 0,0 -0.1938475202821151,0.30476049910079756 l -0.03326260247210237 -0.021560417055054692" fill="#ff0000" stroke="none" /><path d="M 117.62189284568427 111.42229804090321 l 0.032824765953603674 0.02127661671355458 a21.039117255510636,21.039117255510636 0 0,0 -0.19904563930243793,0.3013804672591176 l -0.032454687730439066 -0.021836962311733224" fill="#ff0000" stroke="none" /><path d="M 117.423217284605 111.72311816256416 l 0.03243865438999153 0.021826174364734875 a21.03909793071293,21.03909793071293 0 0,0 -0.20418971840127864,0.2979189014311304 l -0.03205919917339255 -0.022379810865909337" fill="#ff0000" stroke="none" /><path d="M 117.21940702142032 112.02048342749411 l 0.032312731788445855 0.02255679632155171 a21.03940712747618,21.03940712747618 0 0,0 -0.20927688022909074,0.29437414050394667 l -0.03192075302939445 -0.023108163535002363" fill="#ff0000" stroke="none" /><path d="M 117.01052211995028 112.31430620078461 l 0.03166090382368182 0.02292005274906575 a21.03908633583431,21.03908633583431 0 0,0 -0.214296098906497,0.2907338149241186 l -0.03126278533335673 -0.023460176942061668" fill="#ff0000" stroke="none" /><path d="M 116.79662413953412 112.60449989151573 l 0.03219946326829464 0.02416307752680009 a21.04025741857512,21.04025741857512 0 0,0 -0.21926755866721867,0.2870282728785837 l -0.03177992724677154 -0.02471226364626105" fill="#ff0000" stroke="none" /><path d="M 116.57777611688842 112.89097897827486 l 0.030885964239540434 0.024017112604751232 a21.039124985429716,21.039124985429716 0 0,0 -0.2241504061508806,0.2832067157555842 l -0.030469127447098187 -0.02454377227501834" fill="#ff0000" stroke="none" /><path d="M 116.35404254752997 113.17365903436017 l 0.03038184060565096 0.02447346017425976 a21.039012901603037,21.039012901603037 0 0,0 -0.22897777708290123,0.27931565677537606 l -0.029957244284122168 -0.02499139864812871" fill="#ff0000" stroke="none" /><path d="M 116.1254893667686 113.45245675266167 l 0.030524099213612585 0.025464289191203804 a21.039751108875297,21.039751108875297 0 0,0 -0.23374706267418202,0.2753534520815574 l -0.03008247303231604 -0.025984523722317895" fill="#ff0000" stroke="none" /><line stroke="#e1ed5e" stroke-width="0.3" x1="143.1302829299769" x2="145.66735839644613" y1="173.24464959558577" y2="177.55315839532614" /><path d="M 143.63769802327073 174.10635135553383 a86.0,86.0 0 0,1 -40.68552437913181,11.842963189579606" fill="none" id="id18" stroke="none" /><text fill="#e1ed5e" style="font-size:6.75px; font-family:Arial;" text-anchor="middle"><textPath startOffset="21.407464694133747" xlink:href="#id18">June</textPath></text><line stroke="#e1ed5e" stroke-width="0.3" x1="101.45913802915013" x2="101.54496967792366" y1="184.9874750549273" y2="189.98673829345242" /><path d="M 101.47630435890484 185.9873277026323 a86.0,86.0 0 0,1 -42.54439059252881,-10.42667462771756" fill="none" id="id19" stroke="none" /><text fill="#e1ed5e" style="font-size:6.75px; font-family:Arial;" text-anchor="middle"><textPath startOffset="22.145653131862474" xlink:href="#id19">July</textPath></text><line stroke="#e1ed5e" stroke-width="0.3" x1="58.13341422392154" x2="55.67067388415222" y1="173.97424548756322" y2="178.32567169271397" /><path d="M 57.64086615596768 174.84453072859336 a86.0,86.0 0 0,1 -31.369924170532247,-30.572349798747897" fill="none" id="id20" stroke="none" /><text fill="#e1ed5e" style="font-size:6.75px; font-family:Arial;" text-anchor="middle"><textPath startOffset="22.145653131862474" xlink:href="#id20">August</textPath></text><line stroke="#e1ed5e" stroke-width="0.3" x1="26.387840678322732" x2="22.057713659400548" y1="142.50000000000003" y2="145.00000000000006" /><path d="M 25.521815274538298 143.00000000000003 a86.0,86.0 0 0,1 -11.493303480769221,-40.785679425670985" fill="none" id="id21" stroke="none" /><text fill="#e1ed5e" style="font-size:6.75px; font-family:Arial;" text-anchor="middle"><textPath startOffset="21.40746469413373" xlink:href="#id21">September</textPath></text><line stroke="#e1ed5e" stroke-width="0.3" x1="15.003131293944662" x2="10.003315487706104" y1="100.72959589197737" y2="100.7725132973878" /><path d="M 14.003168132696942 100.73817937305945 a86.0,86.0 0 0,1 10.791469493833604,-42.45332614584628" fill="none" id="id22" stroke="none" /><text fill="#e1ed5e" style="font-size:6.75px; font-family:Arial;" text-anchor="middle"><textPath startOffset="22.145653131862435" xlink:href="#id22">October</textPath></text><line stroke="#e1ed5e" stroke-width="0.3" x1="26.387840678322718" x2="22.05771365940052" y1="57.49999999999999" y2="54.99999999999999" /><path d="M 25.521815274538284 56.99999999999999 a86.0,86.0 0 0,1 29.574782752854787,-30.34633250058573" fill="none" id="id23" stroke="none" /><text fill="#e1ed5e" style="font-size:6.75px; font-family:Arial;" text-anchor="middle"><textPath startOffset="21.40746469413373" xlink:href="#id23">November</textPath></text><line stroke="#e1ed5e" stroke-width="0.3" x1="56.869717070023135" x2="54.33264160355391" y1="26.7553504044142" y2="22.446841604673864" /><path d="M 56.362301976729285 25.89364864446614 a86.0,86.0 0 0,1 42.16139366436587,-11.88097634709845" fill="none" id="id24" stroke="none" /><text fill="#e1ed5e" style="font-size:6.75px; font-family:Arial;" text-anchor="middle"><textPath startOffset="22.145653131862474" xlink:href="#id24">December</textPath></text></svg>